<svg xmlns="http://www.w3.org/2000/svg" viewBox="0 0 380 600"><defs><style>.cls-1{isolation:isolate;}.cls-2{opacity:0.3;}.cls-3{fill:#fff;}.cls-4{opacity:0.3;}.cls-5{mix-blend-mode:multiply;}.cls-6{fill:#ff4500;}.cls-7{fill:#c08d41;}.cls-8{fill:#9c6926;}.cls-9{fill:#00cc78;}</style></defs><g class="cls-1"><g id="Art"><g class="cls-2"><ellipse cx="190" cy="548.5" rx="77.5" ry="38.75"/><path d="M267.439,548.5a5.5,5.5,0,0,1-.279-1.138c-.055-.28-.082-.606-.163-.966s-.176-.759-.277-1.2a23.939,23.939,0,0,0-2.639-6.507,32.85,32.85,0,0,0-6.25-7.527,51.6,51.6,0,0,0-9.52-6.76,91.785,91.785,0,0,0-23.364-8.879,119.122,119.122,0,0,0-20.31-3.081,163.124,163.124,0,0,0-28.363.707,131.533,131.533,0,0,0-28.528,6.322,88.194,88.194,0,0,0-13.277,5.926,50.548,50.548,0,0,0-11.266,8.37,30.246,30.246,0,0,0-4.118,5.206,19.565,19.565,0,0,0-2.368,5.755,16.754,16.754,0,0,0,1.624,11.609,29.646,29.646,0,0,0,7.088,8.511,52.806,52.806,0,0,0,9.7,6.508,96.887,96.887,0,0,0,22.292,8.229,151.838,151.838,0,0,0,46.058,3.529c14.817-1.12,28.87-4.245,40.666-9.767a51.95,51.95,0,0,0,15.236-10.366c4.066-4.152,6.737-9.257,6.98-14.484a18.062,18.062,0,0,1-.456,7.974,26.913,26.913,0,0,1-4.3,8.571c-4.024,5.518-9.935,10.127-16.076,13.658a87.593,87.593,0,0,1-18.349,7.764,83.971,83.971,0,0,1-14.2,3,167.53,167.53,0,0,1-40.491-.679,140.031,140.031,0,0,1-18.889-3.923c-3.05-.859-6.049-1.818-8.974-2.921a90.625,90.625,0,0,1-8.562-3.651,70.264,70.264,0,0,1-8.015-4.513,54.012,54.012,0,0,1-7.22-5.567,36.678,36.678,0,0,1-5.876-6.927,25.169,25.169,0,0,1-3.521-8.371,21.246,21.246,0,0,1,.05-9.01,25.15,25.15,0,0,1,3.429-8.1,42.357,42.357,0,0,1,11.923-11.719,77.355,77.355,0,0,1,14.149-7.456,111.769,111.769,0,0,1,14.639-4.785,141.345,141.345,0,0,1,28.9-4.113,147.044,147.044,0,0,1,27.257,1.324,113.988,113.988,0,0,1,24.748,6.286,73.343,73.343,0,0,1,12.067,5.843,52.04,52.04,0,0,1,11.4,9.143,31.971,31.971,0,0,1,4.077,5.427,29.128,29.128,0,0,1,1.446,2.725,26.448,26.448,0,0,1,.987,2.628A21,21,0,0,1,267.439,548.5Z"/></g><path class="cls-3" d="M188.264,508.308q.367,29.264,2.21,58.485l37.587,3.284c3.62-7.574,12.568-26.3,12.981-28.222.514-2.389-1.543-34.277-1.878-47.786a130.691,130.691,0,0,0-39.46-2.785,150.5,150.5,0,0,1-13.051,17.379"/><path d="M186.607,508.623c.072-.573,1.564-2.606,3.723-5.614,1.08-1.5,2.322-3.255,3.641-5.185.66-.965,1.337-1.976,2.022-3.023q.51-.787,1.033-1.6l1.179-1.862.695-1.107.088-.14c.038-.03.1-.016.147-.026l.31-.028.623-.056,2.429-.21c1.36-.108,2.73-.2,4.1-.262,2.736-.129,5.46-.173,8.063-.152,5.207.06,9.92.4,13.292.68,1.49.115,2.99.273,4.5.448l2.274.294,1.14.173.572.087.85.144,3.66.694.467.089c.068.022.176.012.213.062l.013.229.052.922.1,1.869.107,1.9.086,1.2q.085,1.151.172,2.308c.463,6.19.936,12.5,1.41,18.835.442,6.363.9,12.692,1.15,19.144l.037,1.226,0,1.313a8.849,8.849,0,0,1-.054.934,4.871,4.871,0,0,1-.18,1.067c-.238.833-.367,1.073-.533,1.538-.625,1.583-1.248,3.013-1.879,4.467-1.261,2.886-2.535,5.7-3.8,8.487l-2.888,6.284-3.25,6.928-1.467,3.086c-.1.765-.847.4-1.377.418l-1.7-.146-4.735-.408-6.736-.6-13.222-1.252L186.981,570.2q-.184-3.717-.366-7.385-.072-2.091-.142-4.155-.1-4.126-.2-8.126c-.1-5.332-.122-10.484-.083-15.423.078-9.878.417-18.9.936-26.786a206.044,206.044,0,0,1,4.531,23.835c1.2,8.569,2.02,16.645,1.951,20.915-.025,2.324-.049,4.629-.073,6.89q0,.849,0,1.689v1.254a.631.631,0,0,1-.017.127c-.049.265-.093.577-.132.93.175.067.389.137.638.208l.095.027.055.014.179.025.717.1,1.431.2,5.672.754,11.11,1.385,10.8,1.234,2.09.238.753.09.095.012.042-.081.085-.163.17-.329q.436-.867.871-1.726l1.153-2.338c3.049-6.214,5.961-12.279,8.6-18.2l.95-2.208c.159-.369.3-.723.43-1.073l.1-.259.056-.182a.879.879,0,0,0,.06-.38c.026-.209.025-.636.025-1.013s0-.763-.011-1.16q-.036-1.182-.071-2.354c-.121-3.141-.292-6.249-.472-9.309q-.579-9.186-1.122-17.813-.261-4.324-.513-8.513-.106-2.022-.212-4.013l-.054-.96-.013-.235-.007-.117a.5.5,0,0,0-.113-.028l-.471-.09-2.909-.537c-1.29-.222-2.571-.433-3.846-.617-2.549-.368-5.064-.681-7.548-.912-4.966-.469-9.792-.686-14.473-.716l-3.866.025-1.911.01-.712-.006-.37,0h-.188l-.1.119-.4.5-.218.264-.346.457-1.416,1.812c-.955,1.2-1.925,2.368-2.885,3.478A114.588,114.588,0,0,1,186.607,508.623Z"/><g class="cls-4"><path d="M221.527,516.3c-.178.709,2.435,42.837,2.758,42.865,3.62-7.574,9.447-18.611,9.861-20.536.472-2.2-.24-20.938-.778-35.8C228,508.236,221.77,515.331,221.527,516.3Z"/><path d="M221.467,516.287c-.327-.649,1.118-2.947,3.257-5.693l.837-1.061,1.061-1.282c.8-.95,1.668-1.942,2.566-2.951l2.774-3.05,1.43-1.55.724-.779.363-.39.18-.195c.07-.088.079-.025.122-.045.249,3.537.51,6.946.79,9.478q.173,1.659.347,3.344.144,1.167.289,2.349.274,2.293.51,4.647c.313,3.136.577,6.336.786,9.564.1,1.616.2,3.234.261,4.872l.076,2.478.007,1.29-.018.7c-.006.129,0,.207-.016.378l-.058.535a5.386,5.386,0,0,1-.231,1.1l-.083.278-.063.179-.128.356c-.176.493-.331.844-.5,1.269q-.494,1.139-.985,2.268-.5,1.092-.989,2.172l-.494,1.068q-.436.909-.869,1.814l-3.7,7.613-3.725,7.777-1.847-1.5a3.709,3.709,0,0,0-.606-.234l-.01,0c.091-.475.02-.136.038-.244l-.009-.007-.027-.022-.043-.037-.078-.066-.15-.129-.3-.263-1.495-1.35-.479-.446-.27-.251-.134-.126c-.021-.026-.048-.033-.063-.073l-.029-.172c-.066-.482-.169-.866-.2-1.424l-.127-1.6c-.151-2.163-.274-4.344-.387-6.477q-.079-1.593-.159-3.171l-.073-1.56-.035-.772-.01-.4q-.076-3.222-.087-6.312c-.015-4.116.054-8.036.208-11.7q.115-2.745.3-5.287.1-1.269.2-2.484.06-.611.119-1.205l.068-.6.038-.311.022-.173.014-.1a2,2,0,0,1,.05-.3,1.383,1.383,0,0,0,0,.3l.037.105a1.4,1.4,0,0,0,.077.176l.159.321.323.634c.215.43.43.875.641,1.336.424.921.835,1.906,1.228,2.928.785,2.045,1.5,4.244,2.083,6.389,1.177,4.289,1.869,8.358,1.715,10.528q-.108,1.705-.214,3.38l-.087,1.668-.02.415-.009.207c-.005.051-.013.039-.019.062q-.041.088-.078.2a11.879,11.879,0,0,0-.434,2.635c-.093,1.138-.147,2.482-.14,3.9,0,.177,0,.356.017.534,0,.068.021.035.031.019l.034-.048.071-.1.3-.451c.211-.326.441-.7.683-1.1.648-1.083,1.377-2.4,2.089-3.754l.591-1.148.829-1.666c.538-1.105,1.068-2.2,1.542-3.282.237-.537.463-1.076.637-1.561a3.919,3.919,0,0,0,.163-1.307c.031-1.112.007-2.283-.021-3.425-.061-2.293-.174-4.548-.291-6.749q-.386-6.614-.737-12.624-.1-1.924-.2-3.757c-.033-.847-.042-1.689-.023-2.658.019-.116-.038-.036-.075-.008l-.118.1-.235.2-.471.384a13.5,13.5,0,0,1-1.512,1.119l-1.088.762-.161.118-.22.184-.437.366-.862.719A44.033,44.033,0,0,0,221.467,516.287Z"/></g><path class="cls-3" d="M130.017,487.444c.174,16.251,1.319,52.667,2.217,54.522,1.046,2.161,27.385,18.142,27.885,18.136.7-.007,23.658-22.392,24.13-23.468.619-1.414-.926-32.7-1.627-46.714-9.079-4.156-28.972-13.255-29.89-13.247-.865.008-14.819,6.336-22.715,10.771"/><path d="M129.987,487.391c.474-1.026,8.051-5.45,17.2-9.792,1.147-.545,2.315-1.086,3.531-1.611a9.478,9.478,0,0,1,1.194-.447,1.888,1.888,0,0,1,1.237-.123c.411.108.82.237,1.231.366l1.008.387c2.444.959,4.816,1.955,7.093,2.9,4.546,1.9,8.656,3.623,11.631,4.777l3.965,1.558,2,.8c.705.285,1.176.462,2.424,1l1.631.693.826.352c.1.013.078.1.085.163l.016.207.033.414q.129,1.683.259,3.376.194,2.233.389,4.492c.5,5.926.954,11.971,1.348,18.051.383,6.1.758,12.158.915,18.341l.015,1.185c0,.2.006.388,0,.617l-.03.98a16.039,16.039,0,0,1-.415,2.066,9.447,9.447,0,0,1-.547.893c-.226.276-.436.562-.676.831l-1.751,1.89-1.571,1.642q-3.135,3.243-6.23,6.344c-3.214,3.227-6.44,6.408-9.733,9.534l-1.245,1.171-.63.585-1.1,1a12.624,12.624,0,0,1-1.276,1.037,5.505,5.505,0,0,1-1.356.62l-.661.212-.169.054-.086.028-.043.013c-.009-.014,0,.154-.014.084l-.021,0a.861.861,0,0,1-.343-.009,6.624,6.624,0,0,1-.695-.134,6.463,6.463,0,0,1-.719-.19l-.737-.232-.725-.4-1.336-.763-1.663-.984-2.864-1.736q-5.68-3.486-11.1-7.062c-1.807-1.2-3.589-2.4-5.353-3.655-.884-.632-1.758-1.259-2.646-1.945l-.673-.528-.8-.662c-.373-.327-.72-.679-1.062-1.029-.285-.387-.567-.783-.817-1.189l-.471-1.785-.151-1.421c-.062-.718-.089-1.363-.134-2.044-.068-1.331-.123-2.633-.16-3.923q-.118-3.867-.151-7.589-.076-7.452.035-14.358c.139-9.193.46-17.6.978-24.982,3.415,11.859,6.467,34.661,6.32,42.788-.045,1.967-.076,3.924-.073,5.817-.006.957.006,1.882.026,2.786,0,.459.026.908.041,1.258a2.133,2.133,0,0,0-.033.321.75.75,0,0,0,.145.274l.063.075.221.205.488.421c.67.563,1.371,1.128,2.091,1.681,1.435,1.111,2.907,2.193,4.381,3.253,2.95,2.118,5.916,4.151,8.863,6.115l4.41,2.888,3.636,2.309.307.183c.051.024.107.074.161.063a.707.707,0,0,0,.147-.088c.188-.133.367-.28.549-.428l.547-.458.946-.837,3.719-3.4c4.888-4.55,9.56-9.066,13.967-13.531l1.627-1.675.77-.82c.162-.176.323-.352.471-.538a.517.517,0,0,0,.111-.329,1.9,1.9,0,0,0,.028-.353l.009-.355c.007-.178.012-.356.009-.549,0-.755,0-1.5-.024-2.262-.064-3.028-.193-6.031-.334-8.984-.284-5.908-.629-11.635-.973-17.186q-.263-4.164-.517-8.2-.128-2.017-.253-4-.053-.783-.1-1.56a9.208,9.208,0,0,0-.1-1.03l-2.392-1.05-3.486-1.56-6.792-3.069-12.859-5.918-1.569-.7-.448-.206c-.075-.037-.158-.057-.239-.088a1.119,1.119,0,0,0-.248.042c-.164.04-.338.091-.5.141l-.907.318-1.959.715-8.027,3.028C135.9,484.953,131.447,486.771,129.987,487.391Z"/><g class="cls-4"><path d="M162.262,508.279c-.158.454,1.494,19.02,1.3,35.925,2.595-2.9,12.968-10.566,13.235-11.3.387-1.067-.483-23.065-.986-35.3C171.345,501.615,162.411,507.853,162.262,508.279Z"/><path d="M162.205,508.259c-.1-.716,1.779-2.43,4.282-4.59l4.656-3.93c1.941-1.665,4.069-3.6,6.026-5.438l.1.05a1.263,1.263,0,0,1,.027.229l.041.489q.042.489.083.963c.058.64.114,1.258.168,1.847.113,1.189.23,2.286.35,3.235q.155,1.295.31,2.609l.152,1.39.037.355.033.233.063.454q.232,1.824.47,3.686c.292,2.484.545,5.017.766,7.568s.406,5.119.563,7.68q.1,1.932.2,3.845.033.978.067,1.95l.011.661a8.5,8.5,0,0,1-.036.891c-.048.591-.136,1.173-.239,1.746-.273.467-.57.925-.849,1.376a13.742,13.742,0,0,1-1.147,1.169l-1.5,1.311-2.659,2.245-3.607,2.986c-.881.726-1.756,1.508-2.633,2.255l-1.348,1.329c-.446.439-.891.874-1.376,1.384l-5.686,5.86c.089-6.673.176-13.222.26-19.576.085-3.32.167-6.537.246-9.615.1-3.083.227-6.031.393-8.8q.124-2.079.281-4.024.088-.973.172-1.91l.1-.937a11.075,11.075,0,0,1,.2-1.328,3.088,3.088,0,0,0,.083.626,1.642,1.642,0,0,0,.162.311l.326.566c.22.376.435.768.65,1.172.429.81.844,1.676,1.238,2.579a49.738,49.738,0,0,1,2.058,5.668c1.14,3.82,1.73,7.48,1.514,9.421q-.234,2.181-.462,4.3-.1,1.063-.206,2.111l-.053.523-.025.261a.322.322,0,0,1-.029.086c-.037.1-.074.2-.109.319a13.812,13.812,0,0,0-.385,1.737c-.056.367-.113.732-.168,1.093l-.078.588c0,.078-.045.25-.017.253l.126-.09,1.556-1.053.944-.653c.348-.246.566-.391,1.239-.9l3.333-2.556L174.462,533l.483-.409c.134-.148.354-.265.367-.48a6.791,6.791,0,0,0,.039-.78l0-1.11q-.03-1.239-.06-2.455c-.052-1.626-.13-3.229-.215-4.8-.172-3.148-.381-6.185-.584-9.115q-.287-4.314-.553-8.318c-.049-.615-.087-1.192-.111-1.772-.008-.3-.017-.59-.025-.88l-.005-.454v-.351c-.007-.023-.045.028-.066.038a14.656,14.656,0,0,1-2.924,1.745c-.142.056-.491.262-.783.423l-.907.5-1.8.939C164.95,506.93,162.866,507.8,162.205,508.259Z"/></g><path class="cls-3" d="M124.488,463.728c1.609,11.111,4.383,25.428,5.779,31.375.221.94,81.375,19.183,83.812,18.4,1.507-.485,23.27-24.661,23.7-25.509.449-.885.385-28-.778-37.37-8.049-3.521-86.738-5.886-88.752-5.449-1.838.4-18.843,10.851-22.995,17.6"/><path d="M125.215,462.747a8.7,8.7,0,0,1,1.473-2.421A33.093,33.093,0,0,1,130.877,456a96.858,96.858,0,0,1,14.831-10.629c.386-.214.759-.435,1.181-.638a4.1,4.1,0,0,1,1.507-.524c.309-.034.531-.027.751-.038l.671-.015,1.328-.013,5.307.023,10.4.159,17.12.313c7.667.088,15.614.281,23.722.624,4.054.174,8.148.378,12.272.656s8.265.6,12.5,1.173c.529.071,1.058.143,1.6.243l.811.139a4.536,4.536,0,0,1,.45.089l.649.174c.864.227,1.731.454,2.628.782a5.983,5.983,0,0,1,.654.238l.095.695.19,1.4.192,1.4.081.886.14,1.586.215,3.146c.25,4.183.4,8.34.508,12.477s.163,8.245.15,12.344c-.008,1.032-.012,2.045-.043,3.1l-.022.785-.057,1a11.041,11.041,0,0,1-.3,1.4,1.5,1.5,0,0,1-.292.647,4.835,4.835,0,0,1-.412.562l-.657.8-.5.587-.991,1.151-1.975,2.263q-5.135,5.84-10.363,11.521c-1.749,1.894-3.5,3.774-5.3,5.636l-1.372,1.4-.71.7-.826.783a4.66,4.66,0,0,1-3.272,1.5,7.3,7.3,0,0,1-.94-.059l-.454-.046-.26-.035-1-.145c-5.154-.843-10.037-1.883-14.938-2.9q-7.321-1.551-14.444-3.168c-9.492-2.146-18.7-4.329-27.534-6.515q-6.624-1.643-12.95-3.3l-6.239-1.684-3.072-.886-.978-.3a9.4,9.4,0,0,1-1.192-.443c-.215-.059-.314-.234-.456-.365l-.194-.2-.095-.107-.047-.056c-.256.214-.08.04-.141.079l-.014-.034-.468-1.078-.329-1.589-.2-1.052q-.191-1.047-.379-2.083-.356-2.071-.7-4.1-.669-4.051-1.229-7.918c-.75-5.153-1.365-10.055-1.828-14.677,1.194,3.917,2.559,8.727,4.009,13.907.72,2.59,1.465,5.271,2.218,7.978L131,489.8l.573,2.026.289,1a1.247,1.247,0,0,0,.095.278l.065.139c.061.075.043.2.163.215a2.793,2.793,0,0,0,.3.032l.135.007.464.1,1,.208,3.968.8L145.5,496.1c4.666.958,8.624,1.839,11.319,2.57q16.222,4.386,31.6,8.066c5.124,1.227,10.179,2.4,15.163,3.479,2.491.536,4.97,1.059,7.414,1.5.608.107,1.219.215,1.809.3.245.036.351.052.536.069a.515.515,0,0,0,.467-.118c.137-.1.255-.2.393-.326l.654-.608,1.312-1.278c3.475-3.477,6.809-7.045,10.066-10.56s6.436-7.02,9.476-10.5l.553-.645.361-.441a4.043,4.043,0,0,0,.153-1.248c.045-1.131.067-2.272.085-3.41q.038-3.417.006-6.789-.056-6.738-.307-13.256c-.091-2.17-.189-4.323-.333-6.446-.064-1.064-.149-2.118-.243-3.163-.049-.623-.075-.784-.114-1.116l-.052-.448a.7.7,0,0,0-.017-.108l-.108-.035-.215-.071a8.877,8.877,0,0,0-.919-.229l-1.423-.255c-1.007-.159-2.021-.307-3.04-.425-2.034-.252-4.071-.445-6.093-.622-8.094-.689-15.964-1.1-23.571-1.469-15.218-.712-29.42-1.217-42.672-1.748l-5.1-.184-2.757-.093-1.253-.02a1.167,1.167,0,0,0-.4.085c-.13.049-.372.163-.564.246-1.667.775-3.407,1.764-5.089,2.734s-3.35,2-4.935,3.012a84.067,84.067,0,0,0-8.2,5.89A26.1,26.1,0,0,0,125.215,462.747Z"/><g class="cls-4"><path d="M205.656,476.362c1.385,8.192,5.743,21.058,8.231,26.035,3.829-4.786,17.488-18.729,17.421-19.335-.26-2.335-.333-14.847-1.314-23.358C226.361,461.78,214.721,470.843,205.656,476.362Z"/><path d="M205.624,476.31c.045-.762,3.345-3.148,7.086-6.033,3.755-2.863,8-6.153,10.235-8.186l.17-.153.25-.21.513-.423,1.063-.865c.725-.6,1.478-1.149,2.263-1.745,1.56-1.121,3.206-2.315,5.023-3.45.437,2.744.893,5.669,1.261,8.907q.2,1.893.405,3.8.138,1.424.276,2.854c.171,1.9.312,3.809.44,5.694q.094,1.409.187,2.806.122,1.653.241,3.287l.022.5a4.613,4.613,0,0,1-.054.463l-.063.457-.016.114,0,.014v.01c-.068-.02.153.048-.153-.044v0l0,.029-.011.057-.044.227a2.061,2.061,0,0,1-.118.442,1.43,1.43,0,0,1-.18.422,8.974,8.974,0,0,1-.545.767l-.592.736-.4.479-.642.757c-2.6,3.023-5.22,5.848-7.813,8.613l-4.217,4.469c-1.241,1.357-2.452,2.664-3.635,4.1l-3.5,4.138c-.5-1.039-1.057-2.316-1.542-3.389q-.732-1.668-1.455-3.314c-.463-1.111-.888-2.267-1.306-3.374q-.294-.849-.586-1.692l-.288-.953c-.728-2.484-1.326-4.9-1.817-7.229a65.151,65.151,0,0,1-1.536-12.842,73.414,73.414,0,0,1,6.387,9.457c1.962,3.383,3.529,6.591,3.9,8.435l.095.459.021.108-.015.01-.029.023a.43.43,0,0,0-.094.14,1.4,1.4,0,0,0-.1.447,3.714,3.714,0,0,0,0,.631c.008.12.023.244.042.373s.033.324.083.267a1.912,1.912,0,0,0,.754-.315c.161-.1.338-.213.528-.347l.145-.1a1.415,1.415,0,0,0,.217-.184l.641-.6q2.554-2.38,4.938-4.695t4.586-4.6c.732-.761,1.449-1.52,2.132-2.275.4-.441.514-.569.739-.843.083-.128.235-.238.232-.4l-.035-.47-.282-5.774q-.156-2.921-.367-5.7-.115-1.389-.228-2.747-.06-.626-.118-1.242l-.092-.7c-.125-.907-.252-1.707-.387-2.434.006-.065-.038-.028-.08,0l-.118.081-.231.161-.439.323-.816.619-.761.575-1.364.99c-2.193,1.576-4.341,3.054-6.481,4.383a50.63,50.63,0,0,1-6.968,3.632C208.532,475.318,206.348,476.083,205.624,476.31Z"/></g><path class="cls-3" d="M130.894,350.946c8.628-.761,21.375.728,21.375.728s15.942,10.142,17.587,12.3c3.478,4.549-39.667,97.576-40.54,98.332-1.006.872-22.765,6.041-23.647,5.763-.864-.272-16.9-14.435-17.213-15.362-.257-.773,29.065-77.742,44.464-100.644.2-.3.18-.669.233-.316"/><path d="M133.093,351.751c-.014-.028-.069-.083-.052-.1.05-.01.084-.058.083-.037.031.027-.015,0,.095.052v.006a.2.2,0,0,1,0,.043l-.008.108a1.461,1.461,0,0,1-.172.536c-.717,1.557-2.56,4.846-4.8,9.34s-4.922,10.112-7.608,16.073c-5.372,11.924-10.8,25.15-13.623,32.81-2.528,6.891-5.145,14.021-7.811,21.288q-1.972,5.455-3.976,11l-1.964,5.553-.95,2.773a2.109,2.109,0,0,0-.1.314l-.034.138c0,.088-.081.188-.009.26l2.98,2.676,4.451,3.884,4.5,3.816,2.236,1.833.163.127.036.024.067.041c.043.037.1.014.151,0l.078-.022.578-.116,1.4-.3,2.827-.652c1.887-.445,3.772-.91,5.643-1.385s3.729-.963,5.56-1.462c.914-.252,1.817-.507,2.7-.77l1.029-.323a.307.307,0,0,0,.053-.036.23.23,0,0,0,.014-.042l0-.02,0-.008.044-.091.1-.207.793-1.67c7.694-16.611,15.189-33.31,22.264-49.2,3.527-7.956,6.938-15.733,10.1-23.266,1.575-3.765,3.088-7.473,4.455-11.1.679-1.811,1.326-3.611,1.862-5.348q.206-.654.375-1.282c.063-.214.111-.416.159-.616l.115-.455a2.446,2.446,0,0,0,.081-.37.372.372,0,0,0-.091-.341,2.6,2.6,0,0,0-.266-.286c-.265-.221-.626-.537-.966-.8-.69-.554-1.4-1.1-2.107-1.636q-2.137-1.609-4.249-3.134l-7.775-5.566-.332-.067-.255-.042-.363-.051-1.441-.2-2.822-.358q-2.78-.333-5.4-.568A91.854,91.854,0,0,0,131,352.08a54.424,54.424,0,0,1,9.778-1.785c1.833-.188,3.744-.329,5.7-.42.98-.043,1.972-.078,2.974-.1l1.511-.022c.412-.014,1.224.017,1.971.052l.869.473.415.224.3.153,1.207.618,2.407,1.26c1.6.849,3.193,1.715,4.758,2.6s3.105,1.781,4.61,2.711c.751.459,1.5.946,2.238,1.433l.563.392.28.2c.114.083.264.187.416.313.567.519,1.166,1.011,1.7,1.559l.31.471.077.117.038.059.02.03.01.014c.014,0-.109.057-.055.035l0,.008.134.253a2.658,2.658,0,0,1,.226.52,2.559,2.559,0,0,1,.167.538,8.644,8.644,0,0,1,.078,2.28q-.068.568-.134,1.13l-.118.713c-.075.465-.17.868-.256,1.294-.364,1.652-.781,3.113-1.2,4.472a66.492,66.492,0,0,1-2.4,6.639c-3.353,7.736-6.812,15.111-10.186,22.335q-5.1,10.8-9.959,21.107t-9.524,20.117q-2.331,4.91-4.609,9.7l-2.284,4.763q-.577,1.183-1.15,2.36l-.643,1.286a8,8,0,0,1-.935,1.488,9.667,9.667,0,0,1-1.353.628,5.22,5.22,0,0,1-.7.254l-.573.174c-.723.22-1.428.409-2.138.608l-4.219,1.1q-4.2,1.059-8.328,2.011c-1.38.316-2.75.628-4.137.912l-1.048.209a8.321,8.321,0,0,1-1.4.193c-.236.012-.472.043-.706.038a1.14,1.14,0,0,1-.674-.123,13.6,13.6,0,0,1-1.194-.757l-.989-.789-.806-.664-1.586-1.328-3.109-2.659q-3.077-2.66-6.047-5.322l-1.478-1.344-.734-.683c-.27-.24-.648-.639-.963-.954l-.5-.5-.4-.538c-.249-.354-.59-.724-.452-1.17a8.775,8.775,0,0,1,.193-1.3l.389-1.338,1.33-3.8q.657-1.814,1.308-3.608,1.326-3.574,2.625-7.073c7.024-18.615,13.876-35.491,21.046-50.628,2.58-5.591,6.489-12.992,10.239-19.372a118.59,118.59,0,0,1,8.932-13.416,1.768,1.768,0,0,0,.288-.542c0-.03.042-.054.006-.07-.1.011-.029.012-.048.036Z"/><g class="cls-4"><path d="M163.264,366.039c-4.86.263-7.126.13-11.967.638-2.979,9.94-27.734,61.1-40.387,90.369,5.544-1.123,10.857-2.679,11.568-3.294C123.219,453.111,162.333,377.243,163.264,366.039Z"/><path d="M163.325,366.044a1.956,1.956,0,0,1,.111.706,5.894,5.894,0,0,1-.091,1.356,15.569,15.569,0,0,1-.364,1.884c-.157.709-.371,1.484-.624,2.319-.994,3.35-2.616,7.651-4.476,12.2-3.72,9.106-8.379,19.229-10.748,24.968-4.19,10.131-9.068,20.821-14.216,31.5l-3.918,8-2.013,3.988-.52,1-.342.646c-.18.295-.378.573-.567.86A5.408,5.408,0,0,1,122.3,457.8c-.881.327-1.548.541-2.333.786-1.351.408-2.694.765-4.041,1.112-2.7.676-5.285,1.2-7.929,1.78l-2,.43-1.007.217-.126.027c-.017,0-.05.016-.055.008l.023-.058.094-.23.186-.461,1.5-3.691c1.016-2.477,1.958-4.9,3.037-7.429l3.441-7.918,3-6.749q3.022-6.711,6.082-13.248c4.067-8.7,8.138-17.134,12.07-25.143,3.949-7.982,7.707-15.58,11.194-22.63.848-1.758,1.7-3.48,2.466-5.168l.6-1.295.776-1.963.378-.951c.075-.142.1-.348.215-.434l.525-.03,2.049-.112c1.511-.073,2.216-.052,3.153-.039.9.016,1.778.049,2.637.086l4.969.2c-1.407.491-3,.947-4.722,1.376l-2.65.654c-.865.221-1.95.47-2.495.687-.317.113-.608.223-.872.333-.178,0-.139.257-.17.419l-.053.515-.041.474a2.259,2.259,0,0,1-.079.545l-.355,1.5c-.467,2.021-1.054,3.986-1.619,5.951-2.356,7.777-5.12,14.853-7.033,18.355-7.719,14.084-14.646,27.429-20.786,40.167-1.541,3.182-3.021,6.329-4.466,9.432q-1.069,2.332-2.12,4.63-.668,1.479-1.323,2.935-.31.7-.62,1.4l-.153.349-.076.174c0,.036.107-.012.155-.014l.742-.157c.986-.217,1.962-.454,2.915-.717l.711-.2.862-.26,1.092-.355.489-.175.335-.133c.2-.108.476-.163.575-.4l.356-.653q.541-1.032,1.078-2.055c5.662-11.04,10.661-21.543,15.354-31.344s9.035-18.952,13.209-27.429c1.925-4.055,4.828-9.462,7.258-14.273C161.173,371.842,163.046,367.591,163.325,366.044Z"/></g><g class="cls-5"><g class="cls-2"><path d="M149.231,364.148c.027.23-.163.48-.555.619a2.667,2.667,0,0,1-1.451.013c-1.052-.254-1.93-.791-2.522-.847a18.342,18.342,0,0,1-5.844-2.266,13.347,13.347,0,0,1-6.42-6.83c2.233-1.481,4.834-1.823,5.167-1.069a11.36,11.36,0,0,0,5.212,5.62c.957.536,1.9.961,2.753,1.412a7.947,7.947,0,0,1,2.1,1.477,5.12,5.12,0,0,1,.693,1.058A2.415,2.415,0,0,0,149.231,364.148Z"/></g></g><path class="cls-3" d="M204.63,482.676c1.154-.251,26.09-18.212,26.97-19.585.706-1.1,1.753-88.31,3.6-106.576-27.325-5.646-63.214-8.912-63.214-8.912s-35.479,11.551-36.278,12.3c-1.887,1.773-14.2,90.774-13.486,107.978,22.623,5.726,73.621,13.878,81.42,14.727"/><path d="M203.636,482.671c-1.838.487-18.452-1.662-37.55-4.773-9.553-1.548-19.734-3.317-29.02-5.093l-6.773-1.347-3.217-.669-1.559-.338-1.9-.431c-.722-.161-1.424-.33-2.115-.5l-1.034-.253c-.015-.349-.029-.7-.044-1.039-.021-.69-.057-1.363-.059-2.042,0-.339-.007-.676-.011-1.009l0-.873c.011-1.843.063-3.538.112-5.079.4-10.864,1.388-22.013,2.5-33.38,1.138-11.363,2.478-22.919,3.981-34.512.755-5.8,1.549-11.6,2.42-17.4.437-2.9.889-5.8,1.4-8.715l.405-2.2.223-1.116.122-.57c.028-.148.135-.592.215-.893a5.3,5.3,0,0,1,1.882-3.355,10.96,10.96,0,0,1,1.757-.954c.3-.137.636-.275.922-.382l.533-.2c5.551-2.037,10.976-3.868,16.4-5.724l16.078-5.416,2.1-.694a8.1,8.1,0,0,1,1.438.073l.9.082,2.953.276,5.885.59c3.918.406,7.822.854,11.715,1.318,7.784.944,15.516,2,23.169,3.222q5.739.909,11.415,1.973l2.832.541,4.85.971,2.76.552a.365.365,0,0,1,.082.02l-.007.088-.015.175-.03.35-.059.7-.118,1.4-.249,2.806-.161,2.114c-.51,7.4-.817,14.837-1.135,22.123-.589,14.608-1.158,28.739-1.7,42.186q-.45,10.1-.876,19.65-.247,4.775-.488,9.4-.141,2.318-.279,4.6-.086,1.152-.169,2.293l-.056.713a4.22,4.22,0,0,1-.135.859,5.841,5.841,0,0,1-.481,1.608,14.467,14.467,0,0,1-1.274,1.22c-.2.174-.488.412-.631.515l-.471.352c-.627.475-1.248.926-1.863,1.367l-3.648,2.58c-2.4,1.673-4.748,3.265-7.04,4.8s-4.531,3.009-6.726,4.429l-3.273,2.08-1.633,1-.842.489c-.162.089-.236.144-.469.26a7.105,7.105,0,0,1-.716.3,7.519,7.519,0,0,0,1.7-1.216l1.346-1.181,2.8-2.494,6.091-5.393,6.584-5.788,3.385-3a24.714,24.714,0,0,0,2.687-2.587c.111-.1.045-.28.053-.411l-.034-.417-.039-1.741q-.051-1.822-.1-3.642c-.071-2.436-.142-4.861-.212-7.253-.132-4.789-.234-9.451-.287-13.8-.109-8.706-.03-16.177.266-20.98.98-15.769,1.8-31.061,2.818-45.93q.208-2.792.417-5.563.114-1.315.228-2.624l.152-1.175.02-.151.011-.076c-.009-.017-.042-.015-.062-.023l-.278-.068-.567-.14-.582-.141-1.322-.287-5.284-1.065c-7.033-1.36-14.006-2.511-20.889-3.535s-13.68-1.917-20.382-2.7q-5.023-.594-9.977-1.094l-1.048-.105a.6.6,0,0,0-.371.031l-.386.123-2.359.763-4.686,1.526q-9.328,3.052-18.325,6.1l-4.465,1.541-2.206.782c-.689.254-1.586.572-1.9.7a5.557,5.557,0,0,0-.647.283c-.176.153-.2.421-.272.635-.064.236-.109.436-.169.7l-.235,1.106c-.3,1.486-.57,2.994-.829,4.5-2.012,12.052-3.554,23.828-5.007,35.2q-2.148,17.076-3.808,33.062c-.55,5.329-1.058,10.569-1.485,15.715-.212,2.572-.4,5.121-.555,7.64-.075,1.259-.142,2.511-.185,3.749l-.045,1.559,0,.834,0,.207c.023.053-.044.178.055.168l.4.1.8.2,1.673.406,1.8.406c2.383.552,4.758,1.068,7.116,1.574,4.713,1.016,9.363,1.963,13.933,2.9C167.6,475.179,197.667,481.677,203.636,482.671Z"/><g class="cls-4"><path d="M204.979,375.8c.14,7.336.822,97.049-.226,99.144-.45.9,16.511-13.738,17.261-14.907.594-.927,4.045-80.28,5.587-96.873C216.276,370.118,204.91,372.166,204.979,375.8Z"/><path d="M204.918,375.805a1.3,1.3,0,0,1,.01-1.033,4.071,4.071,0,0,1,1.21-1.615,24.93,24.93,0,0,1,5.244-3.1c2.18-1.052,4.7-2.176,7.345-3.476l2-1.006c.844-.434,1.769-.925,2.673-1.431,1.824-1.041,3.766-2.217,5.657-3.4.123-.029.057.251.054.43l-.042.587-.085,1.181-.162,2.4c-.1,1.621-.193,3.238-.288,4.84-.1,2.4-.2,4.757-.295,7-.162,4.415-.264,8.373-.273,11.329-.036,12.2-.305,25.289-.711,38.482-.2,6.6-.437,13.22-.7,19.779q-.228,4.935-.452,9.8-.084,1.32-.168,2.635c-.267,1.495-.473,3.064-1.743,4.091L223,464.45l-.9.844-1.779,1.638-3.107,2.795-3.365,2.954c-2.065,1.765-4.172,3.6-6.228,5.175a4.878,4.878,0,0,1-2.636,1.119,2,2,0,0,1-1.717-.171c-.109-.074-.177-.149-.319-.257-.092,0-.164.03-.253.038a1.956,1.956,0,0,1-.672-.172l-.644-.651-.161-.163-.067-.4-.132-.8-.263-1.608.139-2.127.147-2.134c.05-.712.038-1.247.06-1.879q.085-4.733.172-9.413c.147-10.684.292-21.127.509-31.086.419-19.917,1.129-37.94,2.051-52.322,3.478,12.838,5.924,37.764,5.367,46.639q-.837,13.4-1.368,26-.263,6.309-.517,12.422-.061,1.53-.123,3.048l-.062,1.516-.057,1.018q-.055.876-.11,1.745-.065.854-.127,1.7c-.022.289-.054.579-.09.872a1.626,1.626,0,0,1-.041.217l-.025.109c-.025.05.011.059.043.033a3.311,3.311,0,0,0,.327-.211c.424-.3.845-.629,1.273-.964l1.293-1.033q.734-.6,1.46-1.2c2.909-2.455,5.772-4.911,8.458-7.383l.75-.715a1.321,1.321,0,0,0,.269-.325,3.125,3.125,0,0,0,.061-.42l.094-1.074.1-1.354q.162-2.719.322-5.4.26-5.37.51-10.566c.538-13.877,1.04-26.846,1.511-38.987.248-6.071.517-11.936.843-17.6q.245-4.25.54-8.354.159-2.052.316-4.069l.086-1.006.058-.561.116-.984c.039-.334.079-.683.125-1.073.027-.2.056-.42.086-.649l.051-.365.027-.193.014-.1c0-.031-.041.013-.059.016-.483.241-1.028.483-1.659.742l-2.422.943c-2.53,1.016-5.109,1.894-7.474,2.681a64.485,64.485,0,0,0-6.164,2.257,7.527,7.527,0,0,0-1.987,1.246A2.1,2.1,0,0,0,204.918,375.805Z"/></g><g class="cls-5"><g class="cls-2"><path d="M198.349,375c-.662.825-9.33-.9-12.777-1a186.513,186.513,0,0,1-19.048-2.087,174.28,174.28,0,0,1-27.888-6.232c3.327-2.277,9.829-3.111,11.915-2.337a117.744,117.744,0,0,0,22.849,5.634c6.777,1.046,12.729,1.643,17.779,3.027A38.245,38.245,0,0,1,198.349,375Z"/></g></g><path class="cls-3" d="M202.821,380.349c6.49-5.736,17.63-12.108,17.63-12.108s18.849-1.307,21.451-.552c5.5,1.595,26.031,102.064,25.778,103.19-.292,1.3-14.729,18.379-15.6,18.68-.856.294-22.173-1.575-22.972-2.138-.665-.469-22.782-79.81-23.993-107.38-.016-.356-.252-.645,0-.393"/><path d="M205.068,379.691c-.027-.014-.1-.025-.1-.05.035-.038.034-.1.045-.079.041,0-.009.013.107-.015l0,0a.178.178,0,0,1,.025.035l.058.091a1.5,1.5,0,0,1,.18.534c.347,1.679.818,5.419,1.687,10.364.851,4.94,2.044,11.059,3.423,17.45,2.759,12.784,6.243,26.651,8.524,34.488l6.357,21.767q1.653,5.561,3.334,11.212l1.718,5.634.882,2.8a2.35,2.35,0,0,0,.107.311l.055.132c.049.072.047.2.147.214l3.988.383,5.887.482,5.883.4,2.888.147.206,0,.043,0,.079-.007c.057,0,.09-.049.122-.088l.05-.065.4-.436.946-1.074,1.887-2.2c1.254-1.478,2.494-2.972,3.718-4.465s2.428-2.99,3.6-4.478c.586-.746,1.161-1.487,1.713-2.221l.636-.871a.391.391,0,0,0,.021-.06.413.413,0,0,0-.014-.042l-.008-.019,0-.008-.018-.1-.043-.227-.354-1.814c-3.673-17.934-7.56-35.821-11.3-52.807-1.887-8.5-3.761-16.778-5.694-24.714-.969-3.965-1.954-7.846-3.008-11.578-.53-1.86-1.078-3.693-1.679-5.409-.148-.432-.3-.851-.459-1.254-.077-.21-.158-.4-.238-.591l-.178-.433a2.3,2.3,0,0,0-.154-.346.373.373,0,0,0-.276-.221,2.811,2.811,0,0,0-.384-.072c-.344-.02-.823-.06-1.253-.07-.883-.036-1.777-.052-2.667-.066q-2.675-.025-5.279,0l-9.561.139-.307.144-.23.118-.323.174-1.277.7-2.482,1.388q-2.434,1.383-4.68,2.748a91.645,91.645,0,0,0-8.239,5.538,54.3,54.3,0,0,1,6.808-7.243c1.363-1.24,2.817-2.488,4.34-3.725.762-.617,1.54-1.235,2.334-1.846l1.2-.914c.322-.257,1-.713,1.617-1.129l.979-.136.468-.066.333-.056,1.338-.219,2.685-.417c1.793-.267,3.588-.515,5.372-.732s3.556-.412,5.32-.557c.876-.078,1.768-.13,2.651-.177l.686-.018.342-.009c.141,0,.323-.006.52,0,.765.081,1.538.121,2.3.244l.529.195.132.048.066.025.033.012.016.006c.01-.011-.053.11-.023.061l.008,0,.258.124a2.53,2.53,0,0,1,.49.283,2.592,2.592,0,0,1,.455.335,8.615,8.615,0,0,1,1.416,1.787q.284.5.563.989l.329.644c.216.419.379.8.562,1.193.689,1.545,1.22,2.968,1.694,4.308a66.612,66.612,0,0,1,2.009,6.77c1.9,8.215,3.493,16.2,5.068,24.018q2.313,11.715,4.522,22.9,2.191,11.178,4.283,21.841,1.04,5.336,2.054,10.545.5,2.608.991,5.188.238,1.295.476,2.581l.246,1.417a7.931,7.931,0,0,1,.132,1.752,9.5,9.5,0,0,1-.716,1.309,5.271,5.271,0,0,1-.413.621l-.359.48c-.45.607-.9,1.177-1.359,1.759l-2.741,3.392q-2.748,3.345-5.5,6.564c-.923,1.073-1.84,2.138-2.787,3.191l-.719.79a8.419,8.419,0,0,1-1.016.99c-.183.149-.355.314-.546.449s-.369.307-.615.3a13.983,13.983,0,0,1-1.41.1l-1.264-.048-1.043-.056-2.065-.126-4.081-.293c-2.7-.209-5.374-.434-8.025-.691l-1.988-.2-1-.113c-.361-.033-.9-.13-1.342-.2l-.7-.109-.641-.2c-.411-.137-.9-.232-1.058-.674a8.6,8.6,0,0,1-.616-1.158L226.7,486l-1.185-3.844q-.547-1.85-1.09-3.679-1.054-3.663-2.088-7.25c-5.4-19.148-9.912-36.8-13.132-53.232-1.245-6.031-2.5-14.307-3.267-21.667a118.693,118.693,0,0,1-.781-16.1,1.759,1.759,0,0,0-.09-.607c-.017-.024,0-.069-.036-.06-.076.07-.017.027-.018.057Z"/><g class="cls-4"><path d="M237.828,373.269c-3.755,3.1-5.656,4.337-9.25,7.621,3.506,9.767,13.971,65.629,21.172,96.692,3.793-4.2,7.145-8.6,7.351-9.519C257.316,467.106,243.732,382.837,237.828,373.269Z"/><path d="M237.88,373.237a1.95,1.95,0,0,1,.509.5,5.907,5.907,0,0,1,.731,1.145,15.507,15.507,0,0,1,.827,1.731c.294.664.582,1.415.874,2.237,1.19,3.286,2.439,7.709,3.646,12.476,2.415,9.535,4.678,20.447,6.18,26.472,2.645,10.639,5.069,22.137,7.266,33.782q.8,4.377,1.6,8.76.375,2.2.749,4.4l.178,1.118.108.723c.03.343.036.685.055,1.028a5.414,5.414,0,0,1-1.236,3.81c-.515.786-.925,1.354-1.41,2.018-.846,1.13-1.714,2.214-2.591,3.293-1.767,2.145-3.541,4.1-5.324,6.141l-1.35,1.533-.682.772-.085.1c-.013.012-.031.042-.04.038l-.015-.06-.062-.241-.123-.481q-.5-1.935-.989-3.858c-.653-2.6-1.333-5.1-1.968-7.781q-.969-4.213-1.934-8.413-.8-3.618-1.592-7.214-1.552-7.194-2.974-14.271c-1.9-9.419-3.627-18.618-5.219-27.4-1.564-8.767-3.052-17.113-4.433-24.855-.362-1.918-.7-3.81-1.085-5.623l-.289-1.4q-.272-1.026-.541-2.04l-.261-.991c-.023-.158-.128-.337-.085-.475l.405-.337,1.583-1.307c1.172-.955,1.751-1.357,2.512-1.9.733-.52,1.46-1.016,2.174-1.5l4.118-2.786c-.84,1.231-1.852,2.544-2.981,3.911l-1.744,2.1c-.565.692-1.29,1.536-1.6,2.035q-.282.418-.5.785c-.147.1.041.29.111.439l.264.445.249.406a2.341,2.341,0,0,1,.259.486l.605,1.416c.824,1.9,1.519,3.833,2.231,5.75,2.724,7.656,4.7,14.99,5.242,18.944,2.154,15.916,4.505,30.767,7.129,44.662.65,3.475,1.328,6.885,2.008,10.24l1.044,4.984q.342,1.587.679,3.147.168.753.335,1.5l.084.372.042.186c.023.027.079-.074.117-.1l.5-.567c.664-.76,1.309-1.531,1.92-2.309l.452-.584.539-.721.667-.934.291-.432.19-.305c.1-.208.286-.414.228-.659l-.1-.738-.353-2.293c-2-12.245-4.216-23.664-6.261-34.337s-3.985-20.613-5.661-29.913c-.859-4.4-1.735-10.479-2.636-15.794C239.592,379.18,238.574,374.648,237.88,373.237Z"/></g><g class="cls-5"><g class="cls-2"><path d="M225.414,380.082c.159.169.154.483-.079.827a2.658,2.658,0,0,1-1.159.873c-1,.42-2.023.509-2.532.816a18.325,18.325,0,0,1-6.048,1.647,13.346,13.346,0,0,1-9.221-1.683c.917-2.517,2.807-4.337,3.522-3.928a11.356,11.356,0,0,0,7.53,1.426c1.089-.137,2.1-.356,3.054-.5a7.948,7.948,0,0,1,2.568-.059,5.126,5.126,0,0,1,1.186.44A2.4,2.4,0,0,0,225.414,380.082Z"/></g></g><path class="cls-3" d="M131.2,212.4c-9.209-.5-19.95-1.394-28.781-3.742-13.084,4.564-17.343,3.674-29.847,9.356-.358,6.946.346,56.037.346,56.037s19.93,8.605,23.105,9.456c7.168,1.921,29.908-12.958,35.177-16.841C133.732,245.748,131.1,233.43,131.2,212.4Z"/><path d="M131.262,212.4c.328.479.523,2.98.788,6.662s.606,8.553.976,13.773.733,10.847.833,16.011-.039,9.857-.182,13.211c-.015.692-.049,1.386-.093,2.081l-.065,1.081-.124,1.6c.245,1.271-1.023,1.686-1.808,2.4l-1.905,1.434c-2.294,1.7-4.659,3.35-7.091,4.961a113.044,113.044,0,0,1-15.616,8.837,41.481,41.481,0,0,1-4.464,1.71,17.109,17.109,0,0,1-5.405.912c-.281-.013-.542-.013-.84-.047s-.624-.1-.933-.161a7.08,7.08,0,0,1-.734-.2c-.219-.067-.475-.14-.645-.2-.765-.255-1.49-.515-2.195-.775-1.418-.522-2.8-1.055-4.181-1.593q-4.133-1.614-8.169-3.266l-4.019-1.646-6.238-2.619c-.058-2.642-.112-5.081-.165-7.5-.273-10.591-.427-21.126-.441-31.413-.005-5.146.02-10.221.125-15.246l.053-1.927c.019-1.183.087-2.391.129-3.575l.036-.89.018-.443a2.461,2.461,0,0,1,.4-.189l1.639-.708,1.628-.7.811-.349.5-.2a72.973,72.973,0,0,1,7.185-2.454c2.412-.687,4.808-1.219,7.09-1.7s4.476-.937,6.614-1.46c1.067-.267,2.127-.524,3.171-.817l1.561-.432.774-.226,1.269-.393.665-.207c.222-.045.451.1.674.134l1.327.37c.512.159,1,.289,1.509.429q1.5.417,3,.768c8.013,1.884,15.708,2.887,22.537,3.823A88.442,88.442,0,0,1,107,212.615c-1.106-.1-2.207-.225-3.3-.379l-.813-.122-.1-.016a.147.147,0,0,0-.027,0l-.043.008-.078.016c-.09,0-.16.106-.215.161.032,0-.12.062-.239.113l-.359.153-.713.3-1.417.556c-.93.372-1.853.682-2.739,1a62.448,62.448,0,0,1-8.671,2.29,69.708,69.708,0,0,0-9.078,2.122q-1.1.333-2.19.717l-.545.188-.272.094a.588.588,0,0,1-.1.024l-.293.059a2.807,2.807,0,0,0-.319.08l-.07.285c-.024.1-.045.2-.066.324-.01,0-.023.268-.034.447l-.037.579c-.357,6.207-.541,12.336-.684,18.3s-.2,11.793-.221,17.478q0,4.263.007,8.423.029,3.655.056,7.221l5.04,2.152,5.859,2.439,5.76,2.316,2.838,1.085a24.83,24.83,0,0,0,2.65.88,6.627,6.627,0,0,0,2.346-.081,19.474,19.474,0,0,0,2.639-.691,45.979,45.979,0,0,0,5.215-2.125c3.408-1.614,6.666-3.454,9.807-5.334s6.167-3.832,9.075-5.8l2.154-1.483.827-.589.472-.351q.079-.8.157-1.591c.095-.844.17-1.685.232-2.522.58-6.691.684-13.111.649-19.317-.073-4.773-.039-11.364.2-17.179C130.574,219.025,131.077,214.03,131.262,212.4Z"/><path class="cls-3" d="M302.26,198.272c-16.927-1.4-148.636-10.635-153.379-9.845-12.66,2.111-54.158,14.771-67.944,20.5-.4,41.051-.252,138.53,1.043,140.707,2.286,3.838,142.822,26.651,169.125,29.847,13.572-11.726,49.47-35.283,51.155-38.375C303.841,338.209,301.51,218.672,302.26,198.272Z"/><path d="M302.321,198.274c.231,1.514.351,9.426.589,21.117.2,11.691.476,27.149.767,43.728.268,16.582.542,34.284.7,50.469.066,8.1.142,15.795.015,22.845-.023.886-.043,1.756-.09,2.639l-.039.666c-.016.289-.048.6-.089.9a4.164,4.164,0,0,1-.179.876c-.041.142-.089.284-.143.42l-.246.369a9.231,9.231,0,0,1-1.2,1.3c-.331.318-.648.574-.968.856-.636.538-1.262,1.047-1.879,1.536-2.466,1.956-4.78,3.679-6.881,5.259l-22.675,16.758c-3.81,2.849-7.626,5.738-11.372,8.715l-2.782,2.256-1.368,1.146-2.073,1.775-.289.248c-.1.084-.184.191-.322.136l-.756-.089-1.517-.179-2.037-.245-3.649-.459c-19.428-2.551-39.122-5.537-58.9-8.616-19.776-3.1-39.611-6.344-59.213-9.789-9.8-1.734-19.541-3.5-29.2-5.469-2.417-.5-4.829-1.008-7.248-1.564-1.213-.282-2.421-.565-3.651-.889-.61-.153-1.237-.332-1.865-.51l-.562-.171c-.284-.084-.564-.177-.841-.275-.532-.226-1.1-.409-1.6-.671a5.245,5.245,0,0,1-1.286-.991,5.925,5.925,0,0,0-.585-.566c-.113-.241-.234-.477-.34-.723l-.453-1.6a13.218,13.218,0,0,1-.194-1.743l-.075-1.091-.05-.93-.088-1.844c-.108-2.447-.175-4.856-.244-7.263-.421-16.8-.542-33.5-.635-50.086s-.076-33.041,0-49.3q.1-12.193.189-24.224l.051-4.545.016-1.478a3.593,3.593,0,0,1,.037-.716l.647-.256,2.584-1.022,2.372-.932,1.429-.526c.952-.349,1.9-.706,2.852-1.031,3.8-1.351,7.578-2.593,11.35-3.82,7.543-2.438,15.048-4.7,22.513-6.844,7.482-2.121,14.863-4.168,22.395-5.845.956-.2,1.873-.424,2.856-.6l1.461-.267.73-.132.892-.036,1.8-.031c.326-.006.529.011.774.02l.713.031,2.846.124c3.763.2,7.471.41,11.152.658q11.043.713,21.743,1.522,21.405,1.583,41.373,3.251c26.58,2.212,51.042,4.377,72.781,6.6-39.246.319-114.736-2.477-141.478-4.422-3.344-.251-6.755-.476-9.911-.622l-.89-.025a3.069,3.069,0,0,0-.989.031l-2.346.4c-1.595.324-3.186.633-4.791,1.009-6.409,1.443-12.788,3.113-19.089,4.835-12.588,3.486-25,7.141-36.88,11.332l-1.692.606-.514.187-.259.095a1.225,1.225,0,0,0-.126.05l0,.111-.039.912-.05,2.367q-.088,4.734-.176,9.433-.136,9.4-.272,18.655-.224,18.513-.292,36.456t.023,35.327q.088,8.688.176,17.239.087,4.27.171,8.507.068,2.112.135,4.216l.092,2.089.059,1.034.047.69.069.645a2.2,2.2,0,0,0,.086.309.807.807,0,0,0,.261.187,7.989,7.989,0,0,0,1.208.455c1.207.371,2.593.737,3.914,1.058,2.674.659,5.376,1.246,8.069,1.817,5.389,1.134,10.763,2.175,16.1,3.18,10.675,2,21.205,3.855,31.575,5.628q31.11,5.305,60.3,9.768,14.6,2.249,28.725,4.306c4.708.679,9.38,1.341,14,1.945l2.727.341c.152.061.252-.058.359-.154l.323-.278,1.222-1.017c1.82-1.5,3.655-2.935,5.491-4.35,7.355-5.637,14.734-10.9,21.972-16.084l10.74-7.7c1.763-1.279,3.514-2.558,5.224-3.848.851-.646,1.7-1.293,2.511-1.946a21.533,21.533,0,0,0,1.887-1.631.95.95,0,0,0,.22-.658l.043-.547.046-.768q.058-1.575.116-3.144.057-3.177.113-6.327.039-6.325.077-12.54.012-12.449.025-24.465C300.583,261.369,301.492,208.61,302.321,198.274Z"/><g class="cls-5"><g class="cls-2"><path d="M247.533,222.487c-1.38.834-24.931-1.089-34.05-1.278-16.1-.333-34.479-1.579-51.091-2.679-29.053-1.923-57.395-5-76.178-8.151,8.67-1.793,25.17-2.221,30.962-1.319,46.629,7.264,82.485,7.21,110.214,10.238C233.984,219.927,245.312,222.027,247.533,222.487Zm-69.007-3.546h0"/></g></g><g class="cls-4"><path d="M297.368,202.723c-10.163,4.669-27.567,11.59-43.462,19.1,1.648,11.273,1.248,113.928,3.12,142.735,8.441-4.291,35.351-25.588,36.766-28.466C295.073,333.489,296.947,227.686,297.368,202.723Z"/><path d="M297.414,202.724c.91,3.013-.109,57.1-.087,77.949.024,8.814-.015,17.935-.13,27.246q-.09,6.984-.25,14.1-.107,3.561-.215,7.144l-.16,3.61-.12,1.843-.105,1.036a9.511,9.511,0,0,1-.375,1.529l-.5.716-.251.358a1.858,1.858,0,0,1-.227.293l-.747.791c-.5.554-.98.956-1.472,1.441-.979.928-1.96,1.8-2.95,2.667q-2.971,2.589-6,5.063-6.062,4.962-12.305,9.636-3.12,2.337-6.323,4.573l-1.623,1.1-.96.646c-.5.336-1.029.628-1.541.935l-3.1,1.826-3.15,1.764-.2.111c-.061.029-.025-.109-.043-.155l-.028-.405-.056-.81-.112-1.621-.225-3.246-.225-3.248-.056-.812-.036-.62-.04-.947q-.155-3.785-.307-7.523c-1.08-33.381-1.05-66.344-1.173-96.4-.043-7.506-.042-14.844-.176-21.92-.011-1.778-.1-3.506-.138-5.241-.017-.427-.016-.877-.048-1.283l-.122-1.623-.175-2.223c0-.174-.066-.389-.006-.529l.509-.232,1.012-.462,3.076-1.379,2.347-1.019,4.64-1.969c12.269-5.15,23.745-9.393,33.766-13.489-8.313,5.162-21.17,11.522-33.152,17.654l-4.449,2.283-2.178,1.124c-.494.25-.387.219-.462.271l-.12.109a.585.585,0,0,0,.048.17l.03.074.015.034c0,.015,0-.012.009.038l.019.156c.118.847.172,1.616.234,2.385.117,1.537.253,3.045.329,4.476.339,5.736.454,10.6.421,13.956-.493,32.129-.85,61.9-.489,89.557.1,6.912.213,13.694.454,20.333q.043,1.247.086,2.485l.044,1.235.044.855q.088,1.709.178,3.4c0,.015,0,.042.006.046l.041-.023.082-.046.165-.092.33-.183c.217-.126.443-.238.652-.376l1.268-.8,1.9-1.267,1.962-1.364c5.207-3.659,10.164-7.494,14.956-11.316,2.391-1.917,4.737-3.843,7.007-5.8,1.143-.97,2.249-1.96,3.341-2.947.523-.5,1.07-1,1.57-1.5l.717-.753.166-.176.09-.124.178-.248a1.508,1.508,0,0,0,.1-.4l.066-.642c.049-.469.073-.979.111-1.466q.079-1.493.16-2.974.114-2.984.227-5.926.163-5.9.323-11.629.249-11.475.483-22.311c.3-14.458.6-28.1,1.018-40.993C295.4,234.076,297.051,207.869,297.414,202.724Z"/></g><path class="cls-3" d="M262.825,297.568l27.555,6.463s25.134-13.918,30.4-18.072c.422-9.888.422-45.84,0-58.1-9.209-.537-19.95-1.492-28.781-4-13.084,4.882-17.343,3.93-29.847,10.007"/><path d="M262.128,233.808c.2-.43,1.841-1.516,4.441-2.806a62.419,62.419,0,0,1,10.159-3.823c3.935-1.135,8.038-2.31,11.7-3.707q.688-.251,1.352-.518l1.663-.65.463-.18a3.072,3.072,0,0,1,.472.1l.931.226.74.174.624.127c1.638.342,3.135.559,4.384.714,3.439.4,6.994.684,10.65.886,1.828.1,3.679.189,5.555.254l8.525.345c.179,3.879.36,7.8.541,11.728.1,2.983.195,5.978.292,8.963.159,5.969.26,11.9.338,17.65q.086,6.169.042,12.3-.045,3.066-.089,6.107l-.04,1.526-.085,2.252-.062,1.438-.031.717-.015.359c-.011.117-.176.159-.256.242l-2.4,1.755-1.627,1.087c-.441.293-.869.549-1.3.824-.867.549-1.726,1.061-2.584,1.575-1.716,1.024-3.421,2.006-5.116,2.964Q306.3,299.3,301.356,301.9l-4.885,2.542-2.405,1.224-1.509.776-1.042.545c-.348.16-.673.469-1.07.249l-2.25-.59-1.257-.359-2.467-.714-4.8-1.419c-6.271-1.882-12.023-3.722-17.107-5.476a107.261,107.261,0,0,1,18.888.339c1.671.156,3.313.335,4.884.533l2.3.311,1.1.163a.278.278,0,0,0,.061-.065c.03-.04.021-.1.027-.128l1.572-.939c1-.574,1.888-1.045,2.639-1.384,7.715-3.511,15.077-7.087,21.808-10.906.414-.241.844-.476,1.24-.724s.884-.542,1.011-.6l.6-.367c.124-.179.082-.47.13-.708l.04-.382.042-.662.083-1.421.141-2.828q.249-5.635.342-11.061c.135-7.232.113-14.172.009-20.828-.051-3.328-.131-6.584-.223-9.771q-.083-2.388-.163-4.724l-.044-1.066-.037-.625q-.042-.6-.084-1.192l-1.375-.036-.779-.029-1.281-.068c-1.7-.1-3.384-.206-5.047-.347-3.325-.266-6.571-.637-9.731-1.135-1.58-.253-3.138-.535-4.672-.871q-1.152-.243-2.283-.532c-.374-.091-.762-.189-1.118-.291l-.494-.142a1.661,1.661,0,0,0-.473.126l-.923.318c-.709.247-1.425.462-2.13.688q-2.126.657-4.228,1.184c-3.693,1.015-8.729,1.665-13.025,2.675C267.047,232.162,263.359,233.445,262.128,233.808Z"/><g class="cls-4"><path d="M291.625,240.35c.134,16.427,1.044,51.576,1.044,51.576s16.641-7.085,20.432-10.361c.3-7.719,1.745-38.079,1.451-48.02C307.865,236.685,297.694,237.859,291.625,240.35Z"/><path d="M291.608,240.308a7.131,7.131,0,0,1,2.459-1.352,55.783,55.783,0,0,1,5.635-1.822c2.236-.627,4.739-1.272,7.221-2.009l1.85-.573.91-.308.452-.153.6-.227,1.2-.454,1.252-.542c.844-.36,1.646-.745,2.459-1.116.025.021.051.039.075.063l.006.173.014.346.027.686q.027.689.054,1.355c.029.886.057,1.74.083,2.554.052,1.319.1,2.51.138,3.524.362,7.316.375,15.146.27,23.033-.053,3.943-.14,7.9-.239,11.814q-.038,1.465-.076,2.924l-.037,1.453-.1,2.343-.028.645-.014.323c-.047.089-.17.147-.251.223l-1.092.856a11.771,11.771,0,0,1-1.1.806l-.666.45c-.873.55-1.735,1.068-2.587,1.545-2.981,1.683-5.968,3.133-8.959,4.542l-2.242,1.032-3.554,1.578-4.4,1.884-1.094.465-.069.029c-.013-.005,0-.044-.008-.065l0-.148-.008-.3-.016-.594-.062-2.37q-.057-3.751-.114-7.454-.01-2.368-.023-4.7c.012-3.1.023-6.155.034-9.134.115-11.914.509-22.678,1.155-31.279,2.636,7.683,4.68,22.5,4.35,27.8q-.463,7.445-.69,14.477-.052,1.76-.1,3.493l-.023.865-.011.415-.015.189-.056.8-.048.868-.011.226c0,.033-.012.088,0,.1l.088-.029.361-.124c.491-.17,1.019-.366,1.571-.579,3.984-1.65,7.954-3.434,11.586-5.332.9-.484,1.793-.977,2.645-1.492l1.067-.693c.229-.2.595-.319.506-.728q.105-2.841.208-5.595c.272-7.847.42-15.218.527-22.143q.072-5.19.14-10.053.026-2.4.05-4.732a17.812,17.812,0,0,0-.037-2.134c-.379.162-.759.3-1.152.423l-1.909.545a86.441,86.441,0,0,1-10.609,1.978A70.352,70.352,0,0,0,291.608,240.308Z"/></g><g class="cls-5"><g class="cls-2"><path d="M266.087,235.4c.337-.9,3.83-.326,5.26-.652a27.955,27.955,0,0,1,7.786-.226,20.2,20.2,0,0,1,11.029,3.765c-1.636,2.257-4.331,3.607-5.13,3.042-6.433-4.55-12.168-2.483-16.174-3.913A8.478,8.478,0,0,1,266.087,235.4Zm10.526-.377h0"/></g></g><path d="M114.31,305.775c5.712.59,11.674,2.174,17.386,2.763.053,4.613-1.142,11.066-1.089,15.678,10.029,3.764,51.243,6.221,56.741,6.4,1.017-4.331,1.29-12.509,1.253-16.936,7.245.851,11.168,2.313,18.476,2.635-.988,6.433.736,11.306-.252,17.739-6.9-.275-10.162-3.163-17.059-3.438.245,4.3.176,11.253-.924,15.447-5.344-.769-51.333-8.135-56.982-8.673.13-3.11.27-12.268-.417-12.8-1.056-.809-11.732-1.261-16.091-1.861a117.14,117.14,0,0,0-1.46-15.451"/><path d="M113.952,307.27a16.992,16.992,0,0,1,1.274,4.815c.235,1.351.465,2.942.66,4.721.086.865.176,1.775.27,2.723.059.717.121,1.463.185,2.233a24.477,24.477,0,0,0,2.466.215l3.477.218,3.668.243,1.879.156,1.022.1c.418.042.825.1,1.233.174a7.12,7.12,0,0,1,1.186.275,3.65,3.65,0,0,1,1.077.465,3.955,3.955,0,0,1,.8,2.191c.053.413.093.832.122,1.254l.067,1.116q.037.956.075,1.9c.037,1.261.053,2.506.059,3.734q.006,1.11.013,2.182l2.607.257,3.738.447,6.334.725c6.864.723,13.959,1.572,21.176,2.487l10.9,1.42,5.489.736,1.374.186.343.046.07,0,.133.007.489.021a2.626,2.626,0,0,0,.071-.673,1,1,0,0,1,0-.111l.039-.445.063-.9c.033-.605.062-1.211.08-1.821l.031-1.837-.02-2.339c-.042-2.356-.224-4.888-.356-7.335.576-.023,1.328.06,1.983.085l2,.119a31.2,31.2,0,0,1,4.061.457c.344.062.688.113,1.034.188l.829.193c.409.091.789.2,1.182.3l2.222.64,2.032.585c.321.081.65.179.962.246l.472.109.211.048.031,0a.937.937,0,0,0,.312-.008,1.61,1.61,0,0,0-.012-.208l-.014-.134c-.016-.381-.019-.869-.047-1.313-.086-1.81-.282-3.723-.377-5.767-.028-.525-.038-1.072-.049-1.612v-.824c0,.022-.006,0-.006,0l-.021-.055-.055.013c-.095,0,.325.051-.875-.088-1.669-.2-3.313-.464-4.888-.747l-4.5-.807c.013,0,.007.007.007.007h0l-.08,2.081-.122,2.2c-.095,1.465-.22,2.93-.394,4.414l-.237,1.755c-.076.629-.238,1.333-.353,1.994q-.424,1.983-.846,3.955l-5.019-.239-2.23-.117-1.271-.085-5.039-.363c-3.338-.263-6.636-.539-9.892-.857-6.512-.624-12.854-1.344-18.993-2.232q-4.6-.659-9.062-1.508c-1.492-.306-2.961-.607-4.437-.971l-1.109-.293-.687-.177c-.289-.074-.577-.14-.866-.241l-3.4-1.145-.417-.142c-.136-.049-.323-.06-.259-.255l.023-.9.055-1.77.1-1.751.075-.868.06-.545c.167-1.426.367-2.8.563-4.145q.279-1.986.552-3.922c.05-.3.1-.595.149-.889a3.294,3.294,0,0,0,.064-.918l-1.1-.25-.671-.16-1.162-.25c-1.531-.338-2.988-.693-4.394-1.035-2.81-.685-5.418-1.319-7.945-1.758a56.529,56.529,0,0,1,8.157-.26l10.993.368c.1.057.076.231.1.364l.036.427.069.87q.068.878.106,1.818c.038.623.022,1.276.034,1.939l.024,1.355c.023,1.77,0,3.522,0,5.216l0,1.259.006.62.007.288.022.08a2.266,2.266,0,0,0,.187.48c0,.083.157.04.234.046l.244-.018a2.273,2.273,0,0,1,.23-.031l1.08.17c2.967.435,5.86.737,8.381,1.035s4.707.573,6.375.856c6.347,1.1,12.646,1.984,18.813,2.738q4.628.561,9.157,1.024l4.5.435,1,.1.474.061.994.116a3.636,3.636,0,0,0,.259-.865l.1-.5c.035-.2.063-.315.116-.728.191-1.377.338-2.77.458-4.158q.079-1.044.157-2.08.063-1.106.124-2.2c.081-2.06.1-4.108.121-6.085,2.247.223,4.6.608,6.8.994l4.663.923c1.524.3,3.022.564,4.515.762l.56.073.769.08c.541.051,1.075.113,1.62.145,1.069.1,2.2.112,3.183.241q-.225,1.594-.4,3.2l-.118,1.58-.028,1.214c0,1.431.087,2.881.178,4.356q.061,1.119.124,2.232l.039,1.13.01.568c0,.18.007.373,0,.644a44.156,44.156,0,0,1-.508,5.883,37.064,37.064,0,0,1-6.087-.685c-1.636-.347-3.044-.8-4.468-1.227-.7-.213-1.393-.423-2.074-.6-.34-.094-.679-.183-1.016-.259-.26-.064-.444-.1-.668-.143a12.453,12.453,0,0,0-1.285-.191c-.213-.022-.425-.046-.637-.052l-.317-.016-.157-.008c-.039.012,0,.1-.011.141.052.8.082,1.564.1,2.348l0,.793-.006.991q-.025.991-.05,1.977c-.024.658-.06,1.315-.1,1.971l-.077.983-.123,1.188c-.113.9-.253,1.788-.431,2.653l-.275,1.3-.149.652-.075.326-.037.164-.085.089L129.6,339.316q.081-1.894.16-3.766.041-1.5.081-2.989c.033-1.562.055-3.111.03-4.609-.011-.445-.012-.725-.04-1.129a1.665,1.665,0,0,0-.108-.571,1.4,1.4,0,0,0-.531-.226c-.191-.055-.391-.1-.6-.144-.233-.047-.326-.075-.8-.149l-2.439-.357-5.087-.7-2.881-.416c-1.09-.173-2.182-.318-3.126-.558.017-2.124.034-4.184.05-6.116,0-1.626-.015-3.145-.054-4.5C114.182,310.359,114.028,308.28,113.952,307.27Z"/><path class="cls-3" d="M195.5,205.251c-.813.162-6.855-1.528-12.52-2.685-.976-19.714-.978-56.512-.006-76.226,3.358-1.34,15.049-4.174,15.049-4.174s60.484,5.013,82.168,7.672a146.179,146.179,0,0,0-1.282,16.545s-5.787,4.489-9.369,5.387c-17.287-2.073-45.459-5.689-67.692-9.22-.709,10.274-.472,45.873.357,57.932-2.413,1.243-4.522,3.3-6.935,4.539"/><path d="M195.24,204.967c.216-.271.948-.8,2.02-1.691l1.9-1.565a19.424,19.424,0,0,1,2.231-1.595c.061-.014.049-.071.041-.125l-.017-.159-.032-.319-.065-.646c-.044-.446-.088-.828-.129-1.437-.078-1.124-.159-2.311-.245-3.551-.152-2.481-.284-5.176-.4-8.012-.226-5.673-.387-11.912-.494-18.136s-.163-12.432-.13-18.057q.007-1.056.015-2.082.036-1.357.07-2.674c.019-.883.054-1.806.094-2.733q.027-.693.055-1.37c.016-.1-.018-.26.04-.306l.324.044.644.088,4.954.669,3.182.384,35.134,3.942,18.142,1.99,4.551.491,2,.21a.271.271,0,0,0,.172-.032c.044-.015.016-.016.138-.061s.257-.1.4-.171a27.08,27.08,0,0,0,3.5-2c.591-.386,1.179-.795,1.761-1.212a2.472,2.472,0,0,0,.2-.151l.054-.047a.894.894,0,0,0,.1-.094l-.008-.132,0-.063,0-.03.006-.216q.033-1.062.067-2.119c.054-1.41.116-2.813.2-4.217s.181-2.8.317-4.219c.022-.246.015-.192.017-.216v-.131l0-.157-17.986-1.674-42.094-3.694-10.3-.925-5.1-.463-2.221-.2-.034-.006h-.01l-.258.061-1.221.293c-3.247.788-6.488,1.59-9.577,2.456l-.482.136-.039,0-.082.011c-.078-.006-.075.057-.088.109a.461.461,0,0,0-.022.135l-.069,1.216q-.06,1.218-.119,2.429c-.609,12.934-.932,25.4-1.216,37.077-.111,5.84-.219,11.487-.322,16.911q-.048,4.067-.095,7.962-.014,1.92-.026,3.8-.025,1.252-.05,2.475l5.34,1.507,2.929.838,1.387.374.652.154c.111.026.2.043.278.055a.844.844,0,0,1,.091.018.066.066,0,0,0-.049.024c.037-.007.091.035-.038.039a1.561,1.561,0,0,1-.283.027c-.209.012-.441.01-.674.006-.469-.009-.96-.034-1.459-.064-1-.063-2.046-.151-3.124-.248l-3.334-.313-4.057-.434c-.213-1.207-.4-2.568-.6-4.036q-.261-1.854-.529-3.756c-.333-2.489-.647-5.034-.92-7.593-.557-5.119-1-10.3-1.314-15.2a215.06,215.06,0,0,1-.5-23.625c.337-5.635.686-11.193,1.086-16.684q.169-2.367.34-4.719c.036-.6.076-1.19.135-1.762l.081-.861.04-.429c.019-.139-.019-.319.175-.327,1.13-.383,2.2-.789,3.326-1.117l.836-.25.406-.118.258-.068,1-.259,1.989-.489,3.942-.918,3.909-.869,1.067-.234.782-.177.782.075,2.08.228,7.776.857,15.232,1.629,29.2,2.979,13.976,1.414,6.836.717,3.794.418c1.493.186,3.049.318,4.48.546q-.221,1.455-.439,2.9c-.077.487-.125.967-.185,1.449l-.087.723-.062.606c-.136,1.359-.234,2.724-.322,4.084s-.155,2.718-.21,4.07l-.072,2.023q-.035,1.405-.069,2.8c-.633.534-1.325,1.035-2,1.536l-.834.592-.762.524c-1.023.691-2.067,1.351-3.164,1.961-.548.306-1.107.6-1.7.867-.294.14-.586.262-.923.388-.379.16-.794.264-1.192.392a1.079,1.079,0,0,1-.617.033l-.625-.068-.944-.106-1.745-.195-13.7-1.573q-13.465-1.579-26.029-3.215l-12.353-1.689-9.743-1.454c-.305-.143-.223.191-.25.388l-.038.667q-.035.87-.069,1.732-.078,2.89-.154,5.73-.106,5.7-.21,11.2c-.049,5.541-.266,12.659-.467,19.289-.1,3.314-.194,6.506-.278,9.318-.037,1.405-.072,2.716-.1,3.9-.022.559-.017,1.247-.027,1.8q-.006.421-.012.815c0,.128,0,.253-.007.377l0,.18c.007.064,0,.12-.068.141a25.708,25.708,0,0,0-2.981,1.742c-.77.507-1.411.936-1.96,1.277A16.176,16.176,0,0,1,195.24,204.967Z"/><g class="cls-5"><g class="cls-2"><path d="M195.971,141.527c.941.493.874,9.334,1.4,12.743a166.606,166.606,0,0,1,1.344,19.14c.366,10.894-.473,21.555-2.138,28.649-2.47-3.189-4.193-9.336-3.749-11.522,3.576-17.6.705-30.977,1.544-41.407A38.9,38.9,0,0,1,195.971,141.527Zm1.889,25.85h0"/></g></g><path class="cls-3" d="M309.8,110.839c-10.185-.637-23.677-3.574-34.924-3.574-13.022,2.978-18.941,4.169-33.148,8.935a365.184,365.184,0,0,1,0,51.823l44.395,5.361s17.258-5.8,23.085-10.722C312.01,136.143,309.685,137.506,309.8,110.839Z"/><path d="M309.864,110.839c.641.994.839,10.352,1.666,21.154a146.956,146.956,0,0,1,.417,16.642c-.078,2.672-.217,5.208-.351,7.506-.066,1.148-.13,2.239-.189,3.257-.077,1.214-.148,2.341-.213,3.367l-.06.789a1.368,1.368,0,0,1-.022.195l-.15.123-.3.248-1.224,1c-.209.176-.417.324-.618.463l-.473.339c-.309.218-.619.457-.933.649q-1.881,1.231-3.837,2.29c-2.6,1.423-5.285,2.7-8.019,3.911-1.366.609-2.748,1.186-4.14,1.759l-2.1.84-1.06.411-1.645.6a.807.807,0,0,1-.477.025l-.486-.049-.9-.094-1.116-.1-2.236-.212-4.485-.434-17.973-1.836-8.905-.948-4.407-.475-7.958-.907c.144-2.076.283-4.075.419-6.032.038-.708.075-1.408.111-2.1.021-.487.041-.969.062-1.451.431-10.832.523-21.639.238-32.133-.067-2.625-.178-5.228-.3-7.811-.023-.647-.073-1.288-.108-1.931q-.112-1.757-.224-3.506l-.121-1.9-.06-.947a4.207,4.207,0,0,1,.866-.325l3.617-1.172,2.511-.79,1.861-.561,3.716-1.074c2.473-.692,4.945-1.326,7.391-1.9,4.9-1.152,9.663-2.064,14.254-2.949l1.715-.329.663-.135a2.2,2.2,0,0,1,.749-.041l1.032.048c1.2.049,2.375.162,3.539.262,2.321.225,4.568.538,6.757.872,8.74,1.38,16.524,3.263,23.515,4.266-6.42,1.289-16.082,1.051-24.838,1.032-2.2-.01-4.334.027-6.365.078-1.013.037-2,.067-2.949.129-.724.031-.268.033-.583.115l-1.383.395c-3.625,1.016-6.712,1.757-8.862,2.119-3.361.564-6.641,1.184-9.869,1.911-1.616.358-3.217.747-4.809,1.147l-2.379.616-2.3.619-.818.152a1.253,1.253,0,0,0-.213.052l-.013.193-.023.411-.019.443.035,1.194c.033.813.03,1.623.047,2.43.063,3.228.079,6.414.065,9.558-.025,6.287-.168,12.409-.39,18.375q-.162,4.476-.4,8.834-.126,2.179-.25,4.332-.1,1.422-.2,2.825c.656.106,1.358.172,2.03.258l3.1.368,6.47.751,12.562,1.4,12.067,1.3,5.851.621a1.169,1.169,0,0,0,.729-.053l1.157-.429,2.648-1.013c3.5-1.37,6.891-2.81,10.1-4.351,1.594-.782,3.167-1.573,4.611-2.443.363-.215.736-.422,1.067-.654l.828-.551.463-.361c.1-.149.059-.376.1-.56q.231-2.433.459-4.813c.162-1.692.3-3.364.428-5.016.251-3.305.448-6.527.528-9.681.089-4.873.03-11.7.321-17.727C309.148,117.69,309.684,112.531,309.864,110.839Z"/><g class="cls-4"><path d="M284.138,122.63c.068,7.145,1.329,31.105,1.214,41.755l.533.079s13.986-6.078,16.131-6.794c.358-7.151,3.048-32.853,2.146-42.192C300.138,116.646,287.106,120.521,284.138,122.63Z"/><path d="M284.112,122.592a1.865,1.865,0,0,1,.569-.656,11.221,11.221,0,0,1,1.468-.945,44.284,44.284,0,0,1,4.924-2.234c1.961-.777,4.16-1.568,6.357-2.327l3.475-1.172,4.376-1.4c.139,1.167.27,2.43.337,3.479.079,1.033.151,1.974.213,2.8a166.317,166.317,0,0,1,.068,18.8c-.131,3.206-.311,6.42-.5,9.6q-.142,2.378-.283,4.726-.174,3.267-.346,6.472l-2.545.962-1.439.6-1,.433-2.015.875-4.022,1.746-4.961,2.138c-.331.139-.665.293-.991.419l-.959.323-.479.161-.239.081a1.149,1.149,0,0,1-.188-.013l-.739-.074c-.743-.1-2.025-.3-2.813-.436q.02-4.647.039-9.195,0-2.879,0-5.679c0-3.737.012-7.362.06-10.83.1-6.938.3-13.236.813-18.594,2.59,6.445,4.905,18.832,4.6,23.336q-.282,4.593-.481,8.992-.1,2.2-.2,4.342l-.023.512-.029.257-.055.536c-.036.355-.071.707-.107,1.056.01.184-.139.511.122.492.172.026.333-.082.51-.121l1.118-.378.148-.053.218-.082.562-.219,1.117-.438L293,160l4.331-1.735,2.129-.852.79-.307.649-.238q.411-5.7.793-11.008.375-5.661.611-10.916t.338-10.117c.025-1.618.042-3.2.031-4.746,0-.471-.006-.561-.01-.78l-.014-.588c-.016-.374-.022-.713-.062-1.032l-1.253.32-.322.079-.592.159-1.355.367c-2.415.7-5.778,1.432-8.72,2.144A37.263,37.263,0,0,0,284.112,122.592Z"/></g><g class="cls-5"><g class="cls-2"><path d="M283.293,123.417c-.383.911-5.725.378-7.835.724a62.4,62.4,0,0,1-11.7.327c-6.623-.212-13-1.611-17.137-3.644,2.152-2.291,6.027-3.682,7.309-3.124,10.321,4.491,18.675,2.339,24.908,3.726A15.955,15.955,0,0,1,283.293,123.417Zm-15.808.515h0"/></g></g><path d="M192.845,140.523c.372-.6,5.5.233,7.521.248a91.3,91.3,0,0,1,11.17,1.023,120.567,120.567,0,0,1,16.319,3.257c-1.853,1.655-5.683,2.49-6.936,2.037a69.652,69.652,0,0,0-13.448-3.217c-3.97-.578-7.451-.863-10.4-1.629A22.733,22.733,0,0,1,192.845,140.523Z"/><path class="cls-6" d="M95.991,251.1c10.84,1.857,27.2,3.786,34.92,4.81-1.1,12-.909,24.986-1.128,37.037-10.748-2.039-22.425-4.625-33.295-5.87-.465-6.243.905-23.912-.5-35.977"/><path d="M96.021,251.1a16.667,16.667,0,0,1,.716,4c.241,2.23.425,5.192.508,8.368.175,6.351.02,13.554.155,17.54q.048,1.315.1,2.654l.068,1.332.019.325.016.146.037.264.037.249a3.354,3.354,0,0,0,.345.027l.673.036,2.782.3c3.736.43,7.521,1,11.3,1.638s7.56,1.336,11.29,2.024c1.657.3,4.5.837,3.846.688.055,0,0-.112.006-.14q0-1.327,0-2.641c0-6.385.015-12.762.245-19,.115-3.119.284-6.2.532-9.232l.1-1.134.045-.52.019-.12.037-.249.019-.127-.034-.014-.081-.029c-.021,0,.013,0-.055-.012l-.271-.04-.542-.08-2.152-.317c-11.417-1.684-21.737-3.421-29.886-5.364,7.643-.334,22.034.332,27.1,1.264l3.791.691,1.877.335,1.237.2,1.65.26.808.128.2.031a1.181,1.181,0,0,1-.016.191l-.043.391-.171,1.538q-.138,1.229-.275,2.449c-.143,1.218-.26,2.431-.375,3.635-.434,4.821-.665,9.522-.811,14.084s-.206,8.991-.274,13.284q-.018,1.031-.034,2.053l-.018,1.1-.009.549a2.686,2.686,0,0,1-.518-.077l-3.839-.734-6.022-1.151c-3.949-.748-7.77-1.439-11.474-2.047-1.852-.3-3.673-.587-5.466-.837l-2.668-.365-2.835-.346-1.874-.219-.234-.028c-.08-.007-.174,0-.149-.113l-.029-.5-.056-1c-.018-.33-.04-.665-.045-.988l-.018-.684q-.009-.651-.019-1.3c-.015-1.717.015-3.39.044-5.036q.141-4.918.272-9.5c.107-2.888.252-6.846.381-10.341S96.03,252.1,96.021,251.1Z"/><path class="cls-6" d="M192.673,261.43c.311,6.951-.24,34.131-.134,37.7.255.4,32.858,4.818,37.159,4.324.124-5.58.3-24.633.544-37.856a334.615,334.615,0,0,0-37.569-4.17"/><path d="M192.674,261.4c.622-.283,6.451-.165,13.166.376,6.718.511,14.309,1.44,18.542,1.9l2.827.318,1.615.2,2.114.292.539.076.006.575.007,1.173q.009.932.018,1.869.021,1.471.041,2.957c.028,3.964.055,8,.084,12.056,0,4.056-.006,8.128-.009,12.156q-.011,3.021-.022,6l-.011,1.259c0,.48,0,.957-.047,1.4l-.047.681-.024.341-.012.171c-.007.053-.1.022-.148.037l-1.375.1a13.3,13.3,0,0,1-1.395.043c-.433.008-1.064,0-1.216-.017l-1.5-.073c-6.879-.462-13.567-1.3-20.122-2.166-3.273-.444-6.5-.911-9.673-1.429l-2.593-.452c-.367-.082-.758-.135-1.1-.242a8.837,8.837,0,0,1-.832-.5c-.135-.072-.212-.2-.4-.236l-.131-.464-.261-.925c-.032-.351-.013-.742-.015-1.111l.01-.716.026-1.171q.03-1.165.061-2.316c.342-12.248.993-23.311,1.314-32.114,1.891,7.86,2.764,23.247,2.438,28.673q-.23,3.826-.451,7.532a.782.782,0,0,0-.024.243,1.452,1.452,0,0,0,.213.088l.121.042a1.139,1.139,0,0,0,.144.034l.238.049.955.192,3.82.707c5.072.893,10.016,1.647,14.815,2.292q3.6.483,7.094.864,1.746.19,3.465.338l1.708.129.846.048.6.024.525,0c.169-.012.407.034.337-.208l.015-1.059q.021-1.679.042-3.331.03-3.306.058-6.5c.033-8.531.064-16.506.093-23.971v-.82a1.257,1.257,0,0,0-.017-.306l-.4-.059-2.065-.31-5.247-.769L211.449,264c-3.055-.385-7.215-1.015-10.885-1.53Z"/><g class="cls-2"><path d="M60.58,563.511c-11.62,3.2-24.935,9.731-34.262,13.911-4.241,1.9-3.483,7.331,1.157,8.308l42.155,8.883a40.2,40.2,0,0,0,26.781-3.589c7.34-3.858,16.3-8.691,22.41-12.4,3.22-1.955,2.811-6.186-.728-7.673-9.764-4.1-31.2-7.81-43.6-8.776A40.639,40.639,0,0,0,60.58,563.511Z"/><path d="M60.563,563.452c.332-.4,2.48-1.292,5.852-1.891a36.339,36.339,0,0,1,5.842-.527c2.193-.021,4.491.167,6.875.355,9.535.8,20.223,2.617,26.209,3.677,2.646.449,5.333.987,8.059,1.682,1.364.335,2.737.735,4.125,1.187l1.045.36.523.182c.211.085.463.2.69.309a7.627,7.627,0,0,1,2.548,2,6.9,6.9,0,0,1,1.095,6.762,7.185,7.185,0,0,1-2.029,2.892,6.8,6.8,0,0,1-.663.516l-.342.242-.229.148-.913.587c-2.439,1.548-4.91,3.04-7.4,4.5s-4.994,2.893-7.5,4.3l-3.768,2.1c-1.27.7-2.455,1.369-3.9,2.1a43.865,43.865,0,0,1-25.558,3.955c-.65-.081-1.291-.221-1.937-.331L67.4,598.2l-3.493-.718-13.8-2.927-13.429-2.991-6.534-1.509-3.214-.755-.2-.049-.313-.088-.623-.187a8.183,8.183,0,0,1-1.23-.513,8.651,8.651,0,0,1-2.252-1.64,7.7,7.7,0,0,1-2.192-5.31,7.351,7.351,0,0,1,2.156-5.233l.492-.477.525-.392.536-.373.548-.289.553-.274.382-.161.717-.293,2.852-1.169c3.785-1.555,7.485-3.057,11.093-4.41a123.214,123.214,0,0,1,20.313-6.031c-5.052,3.065-12.068,7.289-18.744,11.245-3.341,1.973-6.608,3.848-9.523,5.388-1.453.769-2.837,1.457-4.061,2.025-.408.232-.4.3-.492.27-.157-.046-.392.206-.018.656a1.792,1.792,0,0,0,.4.31,2.321,2.321,0,0,1,.3.132c.148.057.436.126.646.188l2.733.758q5.446,1.5,10.745,2.878,10.6,2.761,20.606,5.1l4.969,1.151,2.446.55c.785.165,1.569.322,2.359.432a37.4,37.4,0,0,0,9.4.239,37.015,37.015,0,0,0,8.883-2,34.674,34.674,0,0,0,4.075-1.763c1.307-.659,2.672-1.424,3.984-2.129,5.282-2.878,10.352-5.737,15.162-8.614l3.544-2.173a2.387,2.387,0,0,0,1.3-1.836,2.076,2.076,0,0,0-.823-1.823,3.687,3.687,0,0,0-.483-.336c-.214-.083-.323-.168-.67-.286l-1.775-.652a134.344,134.344,0,0,0-14.507-3.761c-4.762-1.015-9.4-1.878-13.881-2.681-4.25-.677-10.113-1.945-15.171-2.546A45.357,45.357,0,0,0,60.563,563.452Z"/></g><path class="cls-7" d="M131.733,410.07c-15.971-2.269-50.717-9.564-64.048-9.944C43.8,405.35,32.947,407.44,6.894,415.8c3.854,45.952,0,90.9,0,90.9l78.855,19.2s34.213-19.971,44.9-28.606C132.712,486.827,132.288,424.011,131.733,410.07Z"/><path d="M131.779,410.068c.584,1.765,1.183,18.743,1.328,38.375.079,9.817.074,20.3-.094,29.885-.074,4.794-.219,9.363-.45,13.534-.074,1.046-.147,2.067-.217,3.057q-.1.788-.2,1.552l-.132,1.008-.066.507c-.053.15-.242.221-.356.335l-2.432,1.928-1.972,1.478c-8.254,6.058-17.105,11.721-26.169,17.434l-6.855,4.254-3.462,2.119-4.02,2.424-.384.228-.192.114a2.187,2.187,0,0,1-.216-.045l-.866-.205-1.42-.334-1.987-.461-3.98-.925-7.982-1.861-31.987-7.534L3.857,508.884q.2-2.56.386-5.033.082-1.285.162-2.535c.094-1.673.185-3.308.276-4.938.986-19.692,1.2-39.339.534-58.442-.147-4.778-.41-9.518-.676-14.22q-.306-4.361-.609-8.687l-.062-.863-.031-.431c.127-.051.273-.089.408-.134l1.652-.52,2.849-.893,3.362-1.036c8.95-2.739,17.852-5.192,26.615-7.236s17.332-3.751,25.616-5.443l1.551-.315.773-.157.575-.119a1.769,1.769,0,0,1,.673-.029l1.719.117c.543.036,1.084.072,1.608.136,2.123.207,4.2.488,6.246.77,4.087.605,8.069,1.287,11.963,1.994,15.559,2.843,29.741,6.054,42.406,8.355-11.6-.433-28.5-2.709-44.389-4.564-3.973-.471-7.886-.891-11.622-1.23-1.871-.175-3.687-.295-5.444-.4l-2.448-.072c-.051,0-.036.012-.054.018l-.633.154-1.25.3c-6.607,1.583-12.237,2.832-16.126,3.6-6.044,1.177-11.971,2.448-17.8,3.852s-11.557,2.963-17.2,4.587L10.666,416.7l-.96.283-.368.1-.382.1a2.034,2.034,0,0,0,0,.368q.208,3.95.415,7.852c.106,2.886.251,5.753.33,8.6.063,2.852.164,5.684.2,8.5.186,11.264.075,22.249-.239,32.959-.148,5.356-.374,10.642-.632,15.86q-.22,3.914-.438,7.777c-.16,2.461-.373,5.579-.473,6.7l44.618,10.756,21.453,5.1,10.4,2.467.82.192c.115.062.206-.038.3-.089l.29-.175,2.2-1.313,4.454-2.686q8.85-5.362,17.232-10.658c5.575-3.541,11.023-7.049,16.119-10.708.629-.463,1.284-.905,1.883-1.383l.835-.644c.125-.122.325-.191.375-.347l.236-1.682q.1-1.144.2-2.284c.247-3.047.388-6.111.51-9.136.24-6.055.394-12,.52-17.818.215-9,.509-21.3.767-32.113S131.772,413.135,131.779,410.068Z"/><path class="cls-8" d="M21.477,466.871a5.783,5.783,0,0,0-3.9.413c-1.253.813-1.67,2.443-1.8,3.931a18.238,18.238,0,0,0,.082,3.929,7.617,7.617,0,0,0,1.2,3.517c1.541,2.135,4.725,2.618,7.134,1.556a10.351,10.351,0,0,0,5.079-5.79,4.841,4.841,0,0,0,.45-2.6,4.244,4.244,0,0,0-.9-1.831,8.727,8.727,0,0,0-12.189-1.107"/><path class="cls-8" d="M16.6,468.851c-.065-.216.21-.766.885-1.306a7.383,7.383,0,0,1,2.9-1.4,10.322,10.322,0,0,1,3.775-.2,13.06,13.06,0,0,1,3.108.813,7.987,7.987,0,0,1,2.6,1.553,7.107,7.107,0,0,1,1.143,1.229,5.328,5.328,0,0,1,.886,1.9,7.2,7.2,0,0,1-.357,3.919,14.724,14.724,0,0,1-1.348,2.955A11.369,11.369,0,0,1,25.025,483a9,9,0,0,1-7.636-.233,7.562,7.562,0,0,1-3.042-2.866,9.249,9.249,0,0,1-1.135-3.4,17.181,17.181,0,0,1,.176-5.6,9.675,9.675,0,0,1,.948-2.78,5.392,5.392,0,0,1,2.288-2.311,4.8,4.8,0,0,1,2.928-.408,8.883,8.883,0,0,1,2.033.615c-.6.427-1.314.812-1.936,1.253a2.506,2.506,0,0,0-1.155,1.423,2.706,2.706,0,0,0,.045.911c.049.338.1.655.138.946a8.712,8.712,0,0,1,.069.966,2.855,2.855,0,0,1-.1.845,11.772,11.772,0,0,0-.534,3.122,4.452,4.452,0,0,0,.474,2.435,3.361,3.361,0,0,0,1.9,1.387,4.855,4.855,0,0,0,2.559.061,6.794,6.794,0,0,0,3.914-3.163,11.4,11.4,0,0,0,1.068-2.29,3.231,3.231,0,0,0,.233-1.842,3.428,3.428,0,0,0-.935-1.361,6.25,6.25,0,0,0-1.486-1.136,9.632,9.632,0,0,0-3.431-1.133,16.769,16.769,0,0,0-3.234-.184A9.768,9.768,0,0,0,16.6,468.851Z"/><path class="cls-8" d="M52.747,498.03a4.774,4.774,0,0,0-3.477,5.9,4.541,4.541,0,0,0,6.3,2.425,6.9,6.9,0,0,0,2.548-3.2c.494-1.071.863-2.391.212-3.375a3.275,3.275,0,0,0-1.646-1.129,10.291,10.291,0,0,0-4.532-.617"/><path class="cls-8" d="M52.15,497.988c.064-.478,1.268-.832,2.725-.767a11.31,11.31,0,0,1,2.211.331,6.425,6.425,0,0,1,2.157.984,2.872,2.872,0,0,1,.4.34A4.029,4.029,0,0,1,60.7,502.12a6.873,6.873,0,0,1-.148.962c-.059.279-.114.5-.184.744a11.9,11.9,0,0,1-.463,1.312,8.528,8.528,0,0,1-1.709,2.635,6.66,6.66,0,0,1-1.443,1.135,6.417,6.417,0,0,1-1.81.728,7.124,7.124,0,0,1-6.105-1.428,6.693,6.693,0,0,1-1.947-2.556,6.187,6.187,0,0,1-.46-3.079c.5-3.938,3.9-5.814,6.144-5.38a6.359,6.359,0,0,0-.7,3.755c.128.937.413,1.337.153,1.476a1.439,1.439,0,0,0-.717,1.1,1.841,1.841,0,0,0,.629,1.392,2.6,2.6,0,0,0,3.031.451,4.968,4.968,0,0,0,1.861-2.732,5.166,5.166,0,0,0,.209-.74,2.442,2.442,0,0,0,.025-.461,1.261,1.261,0,0,0-.273-.761,1.909,1.909,0,0,0-.514-.4c-.111-.061-.137-.089-.325-.179l-.526-.257a17.116,17.116,0,0,1-1.767-1.023C53.018,498.43,52.37,498.109,52.15,497.988Z"/><path class="cls-8" d="M97.561,467.124c.648,1.89,0,3.95-.063,5.947s.94,4.421,2.935,4.538c1.6.094,2.828-1.351,3.647-2.725a13.113,13.113,0,0,0,2.053-5.871,6.668,6.668,0,0,0-2.259-5.6,4.524,4.524,0,0,0-5.754.054,7.273,7.273,0,0,0-1.649,3.292c-.437,1.484-.7,3.4.562,4.295"/><path class="cls-8" d="M97.007,471.086c-.174.14-.825-.024-1.266-.81a4.829,4.829,0,0,1-.365-2.944c.072-.545.187-1.059.306-1.569a10.708,10.708,0,0,1,.5-1.58,6.086,6.086,0,0,1,1.909-2.542,5.9,5.9,0,0,1,4.51-1.11,6.52,6.52,0,0,1,2.392.857,7.4,7.4,0,0,1,1.927,1.685,9.2,9.2,0,0,1,1.886,4.444,11.757,11.757,0,0,1-.278,4.5,14.631,14.631,0,0,1-.91,2.576c-.182.4-.378.786-.581,1.159s-.4.718-.671,1.131a10.991,10.991,0,0,1-.888,1.179c-.178.2-.343.379-.564.59a7.464,7.464,0,0,1-.815.679,5.662,5.662,0,0,1-3.83,1.122,5.181,5.181,0,0,1-2.9-1.251,6.191,6.191,0,0,1-1.722-2.543,7.544,7.544,0,0,1-.428-2.273,7.643,7.643,0,0,1,.195-2.025c.555-2.258,1.3-3.557,1.343-4.963a3.738,3.738,0,0,1,1.937,1.756,12.608,12.608,0,0,1,1.06,2.618,9.127,9.127,0,0,0,.633,1.747,1.435,1.435,0,0,1,.238.808c-.01.191-.12.162-.153.261a.535.535,0,0,0-.079.264.653.653,0,0,0,.259.538c.451.283.99.2,1.831-.735a11.813,11.813,0,0,0,1.837-2.941,7.742,7.742,0,0,0,.67-3.074,5.64,5.64,0,0,0-.7-2.7,3.871,3.871,0,0,0-1.671-1.627,3.5,3.5,0,0,0-1.989-.279,2.471,2.471,0,0,0-1.421.7,6.129,6.129,0,0,0-1.023,1.648c-.312.8-.946,1.725-1.262,2.615a2.81,2.81,0,0,0-.2,1.257A2.106,2.106,0,0,0,97.007,471.086Z"/><path class="cls-8" d="M118.229,451.339a4.385,4.385,0,0,1,.055,2.383,3.874,3.874,0,0,0,.142,2.37,1.394,1.394,0,0,0,2.006.607,2,2,0,0,0,.5-.879,7.172,7.172,0,0,0,.608-2.976,2.453,2.453,0,0,0-1.735-2.266"/><path class="cls-8" d="M119.809,450.533a.6.6,0,0,1,.625-.366,1.925,1.925,0,0,1,1.105.434,5.818,5.818,0,0,1,1.476,2.071,5.212,5.212,0,0,1,.535,3.1c-.021.233-.05.456-.079.663a4.258,4.258,0,0,1-.146.717,3.89,3.89,0,0,1-.69,1.31,3.809,3.809,0,0,1-1.785,1.224,4.115,4.115,0,0,1-3.071-.244,4.3,4.3,0,0,1-1.934-1.865,4.481,4.481,0,0,1-.276-3.482c.554-1.589,1.292-1.6,1.862-2.461a3.091,3.091,0,0,1,1.805.247,3.948,3.948,0,0,1,1.3,1.043c.628.788.84,1.381.608,1.5-.489.324-.829.542-1.056.717a1.687,1.687,0,0,0-.149.126l-.058.064-.007.009,0,0v0l-.249.128h0l.029-.014.051-.032c.109-.076.028-.021.021.014a.214.214,0,0,0-.013.114.579.579,0,0,0,.06.167c0-.021,0,.1.012.16a.376.376,0,0,0,.029.1.134.134,0,0,0-.015-.021,1.073,1.073,0,0,0-.108-.112c-.039-.032,0-.023,0-.065a3.3,3.3,0,0,0,.112-.416,5.591,5.591,0,0,0,.144-1.947,3.748,3.748,0,0,1-.1-1.021c-.019-.137.154-.457.18-.869A2.024,2.024,0,0,0,119.809,450.533Z"/><path class="cls-8" d="M62.23,452.146a15.178,15.178,0,0,0-.84,7.878,7.989,7.989,0,0,0,4.769,6.009c3.031,1.094,6.564-.364,8.6-2.858a15.452,15.452,0,0,0,2.992-9.024,6.974,6.974,0,0,0-.341-3.053c-.924-2.24-3.623-3.13-6.035-3.354a12.16,12.16,0,0,0-7.728,1.478c-2.246,1.448-3.735,4.28-3.013,6.853"/><path class="cls-8" d="M60.6,456.087c-.238-.051-.657-.693-.712-1.788a6.476,6.476,0,0,1,1.14-3.839,8.627,8.627,0,0,1,3.572-3.042,16.816,16.816,0,0,1,3.635-1.182,14.9,14.9,0,0,1,5.317-.245,9.978,9.978,0,0,1,2.948.894,7,7,0,0,1,2.757,2.406,7.334,7.334,0,0,1,1.123,3.542,21.184,21.184,0,0,1-.021,2.866,19.95,19.95,0,0,1-1.128,5.511,13.568,13.568,0,0,1-2.682,4.471,11.645,11.645,0,0,1-4.485,2.987,9.793,9.793,0,0,1-5.5.423,8.811,8.811,0,0,1-4.649-2.714,10.716,10.716,0,0,1-2.653-8.257,14.81,14.81,0,0,1,2.168-6.251,64.3,64.3,0,0,0,1.893,6.31c.757,1.859,1.685,2.807,1.925,3.54a3.885,3.885,0,0,0,3.1,2.782,6.168,6.168,0,0,0,4.649-1.4,9.11,9.11,0,0,0,2.781-4.238,16.676,16.676,0,0,0,.789-5.008,5.5,5.5,0,0,0-.274-2.083,2.991,2.991,0,0,0-1.07-1.315,7.718,7.718,0,0,0-3.714-1.1,12.811,12.811,0,0,0-7.172,1.254,8.53,8.53,0,0,0-2.787,2.527A5.653,5.653,0,0,0,60.6,456.087Z"/><g class="cls-4"><path d="M83.441,433.494c.124,12.532,3.717,48.432,3.507,67.112l.976,11.164s29.493-19.237,33.428-20.491c.655-12.543,3.365-54.006,3.934-76.453C117.908,416.874,88.884,429.8,83.441,433.494Z"/><path d="M83.415,433.456c.269-.466,2.4-1.973,5.729-3.771,3.321-1.822,7.8-4.044,12.652-6.322s10.071-4.625,14.906-6.655c1.208-.508,2.391-1,3.546-1.456l1.031-.407,1.19-.425c.79-.275,1.561-.57,2.336-.818l1.15-.378.568-.188c.034,0,.122-.068.113-.009v.419q0,1.125,0,2.178c0,1.4,0,2.709.008,3.895.063,11.962-.325,24.771-.841,37.676-.291,6.449-.584,12.925-.874,19.331q-.234,4.8-.464,9.537-.139,2.9-.278,5.78l-.057,1.145-.007.143c0,.049-.075.047-.108.073l-.259.118-.517.234c-.691.329-1.367.585-2.1.983l-.945.5-.974.561c-5.033,2.936-10.068,6.155-15.019,9.283l-7.385,4.706L85.4,516.947q-.444-5.3-.883-10.54-.224-2.863-.444-5.695.013-1.437.028-2.864c.018-.9,0-1.807,0-2.707,0-1.8-.041-3.6-.077-5.376-.153-7.128-.447-14.057-.706-20.682s-.514-12.953-.677-18.906-.258-11.527-.055-16.675c1.342,6.327,3.082,15.407,4.373,24.1a178.891,178.891,0,0,1,2.206,21.282c.037,5.74.062,11.372-.051,16.9-.011,1.377-.084,2.761-.123,4.126l-.017.513a1.507,1.507,0,0,0,0,.309l.054,1.007q.055,1.007.109,2t.112,1.993l.052.941.006.4q.023.888.047,1.765l1.958-1.123,4.244-2.605,8.324-5.1,8.141-4.927,4.033-2.367,2.032-1.139,1.045-.546.374-.193a3.407,3.407,0,0,1,.32-.145l.323-.136.081-.034c.016-.02.007-.056.012-.083l.01-.174.04-.7q.06-1.082.122-2.155.127-2.247.253-4.463.244-4.429.482-8.741.429-8.622.836-16.775.748-16.314,1.252-30.849.123-3.637.241-7.171.025-.864.049-1.718l.012-.4,0-.1c.008-.043-.05,0-.072,0l-.183.057c-.243.075-.487.146-.726.232l-.718.249-1.392.519-3.116,1.2-6.09,2.427c-4.528,1.867-10.77,4.3-16.238,6.5S84.873,432.613,83.415,433.456Z"/></g><path class="cls-9" d="M131.651,410.145c-2.753-2.614-17.08-2.939-20.544-3.556-14.251-2.542-28.9-6.049-43.422-6.463C43.8,405.35,32.947,407.44,6.894,415.8c.624,7.439-2.5,16.693,4.793,21.895,4.871,3.474,13.261,1.152,14.276-4.744-1.882,6.444,2.631,14.009,9.2,15.413s13.778-3.651,14.7-10.3c-.9,6.922,5.29,13.892,12.269,13.817S75.144,444.7,74.1,437.8c2.184,6.468,8.986,11.274,15.767,10.483s12.454-7.655,11.324-14.388a11,11,0,0,0,5.932,8.163A8.607,8.607,0,0,0,116.8,440.4c3.046-3.274,2.608-8.369,1.976-12.8.734,2.114,1.521,4.315,3.143,5.857s4.349,2.171,6.1.781c2.195-1.739,5.333-21.9,3.829-23.871A1.878,1.878,0,0,0,131.651,410.145Z"/><path d="M131.683,410.112a1.017,1.017,0,0,1,.341.3,1.9,1.9,0,0,1,.3.693,10.391,10.391,0,0,1,.275,2.217,50.177,50.177,0,0,1-.382,7.1,80.153,80.153,0,0,1-1.687,9.755,27.083,27.083,0,0,1-.823,2.741c-.079.234-.19.468-.291.713a4.924,4.924,0,0,1-.449.787,3.308,3.308,0,0,1-1.451,1.1,5.24,5.24,0,0,1-3.482.145,6.733,6.733,0,0,1-1.464-.6,3.863,3.863,0,0,1-.825-.638,8.55,8.55,0,0,1-1.83-3.3l-.084-.237-.041-.118-.021-.058.009.061.079.542.135,1.077a19.052,19.052,0,0,1,.124,2.118,10.147,10.147,0,0,1-.189,2.022,10.519,10.519,0,0,1-1.221,3.176,8.552,8.552,0,0,1-2.344,2.578,9.363,9.363,0,0,1-3.09,1.444,10.209,10.209,0,0,1-6.433-.437,10.661,10.661,0,0,1-2.658-1.6c-.1-.075-.191-.164-.287-.246l-.22-.195-.27-.263a6.784,6.784,0,0,1-.471-.551,5.748,5.748,0,0,1-1.1-2.482,7.5,7.5,0,0,1,0,2.211c-.055.242-.082.487-.159.725a5.94,5.94,0,0,1-.317.893,1.794,1.794,0,0,1-.121.263l-.255.454a10.444,10.444,0,0,1-.536.9,16.113,16.113,0,0,1-2.742,3.177,15.952,15.952,0,0,1-3.566,2.362,14.537,14.537,0,0,1-4.22,1.232,15.847,15.847,0,0,1-8.605-1.461,17.747,17.747,0,0,1-3.73-2.352c-.281-.24-.572-.47-.843-.721l-.527-.51a4.3,4.3,0,0,1-.376-.409,3.967,3.967,0,0,1-.568-.94,3.346,3.346,0,0,1-.054,1.292,3.769,3.769,0,0,1-.135.435l-.453.928-.6.975a15.793,15.793,0,0,1-3.009,3.438,14.218,14.218,0,0,1-8.594,3.5,13.673,13.673,0,0,1-4.748-.682,15.675,15.675,0,0,1-4.166-2.176,17.135,17.135,0,0,1-3.3-3.268c-.236-.309-.442-.64-.661-.961l-.295-.448-.1-.176L49,446.324l-.053-.109a1.044,1.044,0,0,1-.091-.541,1.6,1.6,0,0,1-.207.6,1.332,1.332,0,0,1-.145.2c.077-.062-.318.313-.577.558a9.939,9.939,0,0,1-.86.758,15.94,15.94,0,0,1-3.893,2.358,14.3,14.3,0,0,1-9.085.823,14.675,14.675,0,0,1-7.586-4.805,16.514,16.514,0,0,1-2.38-3.7l-.433-1.013a5.179,5.179,0,0,1-.186-.52l-.061-.192-.026-.062-.012-.048c-.01-.044.007-.084-.025.01a.34.34,0,0,1-.053.085s-.043.025.008.011l-.855.429-.881.335a14.835,14.835,0,0,1-1.8.513,15.9,15.9,0,0,1-1.844.239,12.387,12.387,0,0,1-7.337-1.708,10.132,10.132,0,0,1-1.524-1.1l-.7-.58-.637-.675-.627-.684c-.2-.241-.366-.5-.547-.756l-.529-.77c-.157-.266-.291-.544-.434-.817a17.5,17.5,0,0,1-1.77-6.695,49.415,49.415,0,0,1,0-6.134c.042-.97.093-1.909.115-2.82.012-.453.03-.914.021-1.346l0-.538c0-.238-.008-.478-.023-.72L3.9,415.47l-.056-1.419-.013-.355c-.029-.077.059-.073.11-.1l.17-.054.68-.215,2.717-.859,3.056-.962,5.45-1.662c7.254-2.179,14.488-4.152,21.639-5.855s14.189-3.161,21.043-4.563l5.108-1.04,2.529-.513.778-.16a3.3,3.3,0,0,1,1.1-.039l1.308.073c3.478.209,6.882.58,10.207,1.046,6.651.931,12.978,2.247,19.03,3.544l8.876,1.926,2.158.46c.693.139,1.476.327,2.083.423,1.335.217,2.79.365,4.188.531,2.82.323,5.594.655,8.293,1.131,1.35.233,2.683.513,4,.878l.982.293.978.368c.325.125.654.318.974.476a7.089,7.089,0,0,1,.96.7,8.786,8.786,0,0,0-3.94-1.225c-1.34-.179-2.728-.272-4.164-.327-2.871-.122-5.924-.1-9.109-.119l-2.426-.035c-.8-.016-1.73-.091-2.517-.186l-4.939-.572-9.918-1.3c-6.55-.876-12.873-1.674-18.348-2.1-2.737-.231-5.262-.376-7.5-.463l-1.432-.057c.224-.05-.542.113-.986.2l-2.681.526c-8.4,1.544-16.609,3.047-24.575,4.792S24,412.408,16.455,414.569l-5.618,1.648-1.342.4-.679.192-.344.1.008.347c.01.234.009.47,0,.71-.04,3.97-.6,7.738-.165,11.23.456,6.868,8.124,12.478,14.8,6.2a3.224,3.224,0,0,0,2.484-1.336,2.439,2.439,0,0,0,.224-.482l.119-.559.008-.035,0-.017,0-.009.374-1.116-.044.165-.087.329-.173.657-.173.654a.369.369,0,0,0-.025.208l.012.134a3.369,3.369,0,0,0,1.054,2.268c-.023.58.038,1.06.053,1.594a4.358,4.358,0,0,0,.243,1.393l.159.5a3.2,3.2,0,0,0,.156.408l.339.805a13.718,13.718,0,0,0,1.923,2.89,12.357,12.357,0,0,0,2.623,2.186,10.555,10.555,0,0,0,3.1,1.214,10.7,10.7,0,0,0,3.3.091,12.637,12.637,0,0,0,3.187-.939,13.719,13.719,0,0,0,2.8-1.778c.211-.176.4-.374.606-.559l.3-.283.394-.493a8.171,8.171,0,0,0,.774-1.04l.667-1.446a3.39,3.39,0,0,0,2.327-2.748,3.207,3.207,0,0,0,1.569,3.2l.348,1.748a1.92,1.92,0,0,0,.244.7l.287.591.286.58.256.38a8.169,8.169,0,0,0,.525.749,12.278,12.278,0,0,0,2.6,2.517,10.123,10.123,0,0,0,6.577,1.987,9.181,9.181,0,0,0,3.3-.832,10.742,10.742,0,0,0,2.881-1.858,11.752,11.752,0,0,0,2.227-2.591c.145-.243.305-.479.441-.726l.422-.861a8.4,8.4,0,0,0,.413-1.449,5.149,5.149,0,0,0,.243-1.691c1.436-1.106,1.643-1.979,1.588-2.775-.011-.094.031,0,.057.034l.085.133.169.265a3.834,3.834,0,0,0,.483.478l.129.115.193.1.386.191a3.913,3.913,0,0,0,1.016.3l.43.871.468.668a14.29,14.29,0,0,0,.954,1.291c.153.183.374.392.5.515l.319.319.682.587a14.5,14.5,0,0,0,3,1.912,13.739,13.739,0,0,0,3.3,1.074,12.54,12.54,0,0,0,3.379.113,11.563,11.563,0,0,0,3.169-.907,12.307,12.307,0,0,0,4.967-4.266c.168-.217.282-.465.427-.694l.208-.35c.071-.121.173-.423.258-.625.169-.467.374-.869.514-1.388l.19-1.956c.114-.064.266-.133.35-.193l.24-.18.48-.359c.2-.124.217-.226.314-.337l.244-.328a3.943,3.943,0,0,0,.217-.622c.01-.2-.006-.393-.009-.589a1.922,1.922,0,0,0,.59,1.091,3.538,3.538,0,0,0,1.957.795l.289.782a3.594,3.594,0,0,0,.3.706,8.849,8.849,0,0,0,.661,1.012,9.149,9.149,0,0,0,.745.838c.143.129.279.267.433.381a7.675,7.675,0,0,0,1.923,1.167,7.41,7.41,0,0,0,4.346.377,6.045,6.045,0,0,0,3.56-2.147,7.346,7.346,0,0,0,1.055-1.864,9.781,9.781,0,0,0,.327-1.071,7.879,7.879,0,0,0,.165-1,6.838,6.838,0,0,0,.095-1.029,23.61,23.61,0,0,0-.128-3.358,3.435,3.435,0,0,0,1.049-1.651,4.653,4.653,0,0,0,.152-.865c.02-.152.019-.3.026-.465l0-.121.042.11.088.232a5.647,5.647,0,0,0,.743,1.41,3.426,3.426,0,0,0,2.068,1.25,7.088,7.088,0,0,0,1.371,2.268l.344.32c.107.077.211.137.317.206a3.723,3.723,0,0,0,.484.257,4.024,4.024,0,0,0,1.874.363,2.748,2.748,0,0,0,.823-.189,1.469,1.469,0,0,0,.654-.477,3.155,3.155,0,0,0,.224-.35l.238-.491c.155-.352.3-.718.436-1.09a70.724,70.724,0,0,0,2.358-9.017c.575-2.855.988-5.451,1.205-7.568a24.366,24.366,0,0,0,.152-2.789A2.565,2.565,0,0,0,131.683,410.112Z"/><g class="cls-4"><path d="M83.441,433.494c-2.343,1.6.933,8.441,3.02,9.117a7.377,7.377,0,0,0,6.664-1.6,21.773,21.773,0,0,0,4.457-5.536l6.035-9.449a34.214,34.214,0,0,0,7.072,9.221,3.8,3.8,0,0,0,2.351,1.255,3.148,3.148,0,0,0,1.571-.488,10.062,10.062,0,0,0,4.494-6.761,29.848,29.848,0,0,0,.209-8.335,12.126,12.126,0,0,0,3.55,5.339,2.4,2.4,0,0,0,1.808.766c.753-.111,1.247-.83,1.6-1.5,8.818-16.6-12.171-6.546-18.431-3.829C99.745,425.205,90.791,428.5,83.441,433.494Z"/><path d="M83.415,433.456a10.689,10.689,0,0,1,3.016-2.537,66.352,66.352,0,0,1,7.047-4.025c5.5-2.752,11.906-5.4,15.273-7.231,2.358-1.245,4.84-2.486,7.494-3.572a39.865,39.865,0,0,1,4.159-1.461,17.03,17.03,0,0,1,4.827-.743,6.211,6.211,0,0,1,.723.052,4.381,4.381,0,0,1,.809.133,6.3,6.3,0,0,1,1.761.7,4.8,4.8,0,0,1,2.154,3.022,6.792,6.792,0,0,1,.194,1.831c-.033.513-.088.981-.164,1.444-.1.427-.191.868-.3,1.281l-.386,1.181c-.293.741-.576,1.5-.916,2.18l-.5,1.042a7.11,7.11,0,0,1-.912,1.4,4.409,4.409,0,0,1-2.171,1.425,4.259,4.259,0,0,1-2.818-.225l-.5-.239-.072-.043a.6.6,0,0,1-.152-.13c-.018-.055.008.068.022.136l.039.178.009.034.02.072.008.024,0,.009-.08.431a15.106,15.106,0,0,1-1.5,4.163,12.013,12.013,0,0,1-2.952,3.627,9.927,9.927,0,0,1-.994.722l-.559.336a7.676,7.676,0,0,1-.791.383,5.289,5.289,0,0,1-3.391.284,5.816,5.816,0,0,1-1.588-.674,8.032,8.032,0,0,1-.717-.491c-.2-.154-.337-.269-.485-.4-.3-.258-.511-.469-.739-.686l-.672-.662a35.1,35.1,0,0,1-2.483-2.8c-.388-.482-.756-.976-1.116-1.473l-.264-.376-.121-.173c.01.012.006,0,.006,0l-.006-.034-.058-.221c-.025-.028-.06.013-.1.036l-.077.056-.044.037-.024.021-.006,0-.043.063-.09.133-2.851,4.155c-.935,1.339-1.86,2.736-3,4.1a14.58,14.58,0,0,1-4.165,3.559,9.451,9.451,0,0,1-5.446,1.176,7.2,7.2,0,0,1-1.444-.306,3.369,3.369,0,0,1-.775-.337,2.868,2.868,0,0,1-.688-.469,3.276,3.276,0,0,1-.567-.54,4.656,4.656,0,0,1-.421-.519,9.41,9.41,0,0,1-.666-1.032,13.286,13.286,0,0,1-1.5-4.216A7.134,7.134,0,0,1,81.625,435a3.1,3.1,0,0,1,1.334-2.214,2.488,2.488,0,0,0-.627,1.8,4.764,4.764,0,0,0,.4,1.63,12.286,12.286,0,0,0,1.8,2.858,10.991,10.991,0,0,0,1.162,1.232,3.06,3.06,0,0,0,1.13.734,1.387,1.387,0,0,0,.456.02c.179-.011.429-.022.636-.055a5.2,5.2,0,0,0,1.274-.382,9.4,9.4,0,0,0,3.87-3.639c.994-1.5,1.886-3.059,2.661-4.043l3.171-4.167c1.722-2.416,3.436-4.992,4.91-6.94,1.06,2.088,2.078,4.273,3.122,5.994l.4.646.331.517.474.722q.483.714,1,1.395a30.077,30.077,0,0,0,2.216,2.586c.917.921,1.192,1.275,1.846,1.305a1.392,1.392,0,0,0,.445-.084,2.383,2.383,0,0,0,.478-.23,6.046,6.046,0,0,0,1.148-.834,8.263,8.263,0,0,0,1.75-2.347,11.038,11.038,0,0,0,.983-2.838,21.3,21.3,0,0,0,.267-4.79,4.438,4.438,0,0,0,.847-1.93c.065-.309.1-.612.137-.913l.022-.224c0-.07.018.012.028.035l.037.1a3.891,3.891,0,0,0,.173.4,3.839,3.839,0,0,0,2.649,2.045,6.429,6.429,0,0,0,1.719,2.137c.378.3.421.265.521.3a.179.179,0,0,0,.132-.006,1.371,1.371,0,0,0,.5-.562c.2-.335.435-.871.652-1.3a20.322,20.322,0,0,0,1.076-2.729,6.064,6.064,0,0,0,.288-2.35A1.406,1.406,0,0,0,126,417.741a4.421,4.421,0,0,0-1.008-.12,10.313,10.313,0,0,0-1.26.069,27.04,27.04,0,0,0-5.238,1.363c-3.45,1.211-6.673,2.712-9.881,4.128-3.22,1.4-6.332,2.629-9.321,3.8-2.58,1.055-6.164,2.3-9.269,3.555C86.9,431.756,84.288,433.041,83.415,433.456Z"/></g><g class="cls-5"><g class="cls-2"><path d="M83.116,434.548c-.711.829-10.508-.973-14.381-1.122a211.3,211.3,0,0,1-21.467-2.435c-12.151-1.78-23.832-4.7-31.413-7.734,3.966-1.805,11.085-2.3,13.432-1.428,18.9,6.978,34.246,6.779,45.671,9.653A48.582,48.582,0,0,1,83.116,434.548Zm-29.007-3.217h0"/></g></g></g></g></svg>