<svg width="20" height="20" viewBox="0 0 20 20" fill="none" xmlns="http://www.w3.org/2000/svg">
<path d="M6.21502 7.35718L2.43802 5.14118C2.35699 5.09388 2.28991 5.02598 2.24359 4.94439C2.19727 4.86279 2.17336 4.77039 2.17427 4.67657C2.17518 4.58275 2.2009 4.49084 2.2488 4.41016C2.2967 4.32948 2.36508 4.2629 2.44702 4.21718L9.74602 0.132185C9.83959 0.0800816 9.94492 0.0527344 10.052 0.0527344C10.1591 0.0527344 10.2644 0.0800816 10.358 0.132185L17.658 4.21818C17.7398 4.26389 17.808 4.33036 17.8558 4.41088C17.9037 4.49141 17.9294 4.58314 17.9304 4.67679C17.9314 4.77044 17.9077 4.8627 17.8616 4.94424C17.8155 5.02579 17.7488 5.09372 17.668 5.14118L13.89 7.35718L10.326 5.29418C10.2427 5.24599 10.1482 5.22061 10.052 5.22061C9.9558 5.22061 9.86129 5.24599 9.77802 5.29418L6.21502 7.35718ZM5.80002 12.8432C5.67734 12.7724 5.57567 12.6702 5.50539 12.5473C5.43511 12.4243 5.39875 12.2848 5.40002 12.1432V8.61919L1.85402 6.53718C1.77309 6.49035 1.68127 6.46562 1.58777 6.46549C1.49427 6.46535 1.40238 6.48982 1.32133 6.53643C1.24027 6.58303 1.1729 6.65014 1.12598 6.73102C1.07906 6.81189 1.05424 6.90369 1.05402 6.99718V14.7352C1.05411 14.8461 1.0837 14.9551 1.13976 15.0509C1.19581 15.1466 1.27631 15.2258 1.37302 15.2802L8.51002 19.2752C8.59097 19.3205 8.68237 19.3439 8.77516 19.343C8.86794 19.3421 8.95888 19.317 9.03894 19.2701C9.119 19.2232 9.1854 19.1561 9.23155 19.0756C9.2777 18.9951 9.30199 18.904 9.30202 18.8112V14.8682L5.80002 12.8432ZM14.65 12.1002C14.6513 12.2418 14.6149 12.3813 14.5446 12.5043C14.4744 12.6272 14.3727 12.7294 14.25 12.8002L10.75 14.8252V18.7682C10.75 18.861 10.7743 18.9521 10.8205 19.0326C10.8666 19.1131 10.933 19.1802 11.0131 19.2271C11.0932 19.274 11.1841 19.2991 11.2769 19.3C11.3697 19.3009 11.4611 19.2775 11.542 19.2322L18.681 15.2372C18.7792 15.1822 18.8607 15.1017 18.9168 15.0041C18.973 14.9066 19.0017 14.7957 19 14.6832V6.94518C18.9999 6.85165 18.9752 6.7598 18.9282 6.67888C18.8813 6.59797 18.8139 6.53085 18.7328 6.48431C18.6516 6.43776 18.5597 6.41342 18.4661 6.41375C18.3726 6.41408 18.2808 6.43907 18.2 6.48618L14.65 8.56818V12.1002Z" fill="#FF4500"/>
</svg>
