<svg width="174" height="133" viewBox="0 0 174 133" fill="none" xmlns="http://www.w3.org/2000/svg">
<path d="M24.2069 27.8992C34.1069 24.8332 44.4569 23.2642 54.0959 19.4692C64.0409 15.5482 73.0739 9.32019 82.5749 4.46919C72.5819 2.09019 62.9999 0.524186 54.0149 0.233186C43.4999 -0.0998139 33.7649 1.28919 25.0439 5.15019C9.08987 12.2002 4.94987 23.5792 2.28887 34.7002C1.76504 36.8991 1.36442 39.1256 1.08887 41.3692C6.97487 34.6702 15.5819 30.5692 24.2069 27.8992Z" fill="#7AF5E5"/>
<path d="M173.508 64.7871C173.433 62.4741 173.286 60.1221 173.082 57.7191C171.252 36.2721 169.389 19.1001 150.3 9.43411C139.062 3.73411 126.408 8.73211 112.41 9.60811C101.19 15.0081 92.4212 25.2501 80.7362 29.8401C67.1702 35.1681 51.2671 32.2401 38.0581 38.4081C31.0771 41.6661 25.4582 47.1891 19.4582 52.0191C14.1512 56.3001 8.10015 60.2001 1.43115 61.1511C2.45715 73.5201 5.10015 92.3841 18.3482 106.7C30.5162 119.87 48.5221 124.454 54.2731 126.455C63.5252 128.873 75.6931 131.039 85.4131 131.855L86.4062 131.93C88.1611 130.1 90.5461 128.9 92.9491 128C95.7001 126.986 98.5772 126.293 101.226 125.036C109.833 120.956 114.873 111.569 123.273 107.078C128.568 104.249 134.772 103.601 140.229 101.105C148.05 97.5291 153.645 90.5421 159.663 84.4011C163.614 80.3721 168.204 76.4961 173.322 74.3331C173.558 71.1569 173.62 67.9701 173.508 64.7871Z" fill="#7AF5E5"/>
<path d="M38.052 38.4082C51.252 32.2492 67.152 35.1682 80.73 29.8402C92.415 25.2502 101.184 15.0052 112.404 9.60817C107.103 9.93817 101.604 9.68017 95.925 8.02717C93.127 7.20917 90.352 6.44217 87.6 5.72617C85.912 5.28417 84.234 4.86617 82.566 4.47217C73.065 9.32017 64.032 15.5482 54.087 19.4722C44.448 23.2672 34.092 24.8362 24.198 27.9022C15.573 30.5722 6.96604 34.6732 1.07404 41.3752C0.928037 42.5592 0.817037 43.7372 0.741037 44.9092C0.558206 47.8077 0.593305 50.7159 0.846037 53.6092C1.02604 55.6612 1.17904 58.2232 1.42204 61.1452C8.10004 60.2002 14.151 56.3002 19.461 52.0192C25.461 47.1892 31.071 41.6662 38.052 38.4082Z" fill="#FFF2B3"/>
<path d="M153.204 112.646C164.079 103.49 169.605 93.7913 172.011 83.1983C172.661 80.2819 173.1 77.3221 173.322 74.3423C168.204 76.5053 163.614 80.3813 159.663 84.4103C153.645 90.5513 148.05 97.5383 140.229 101.114C134.772 103.61 128.568 104.258 123.273 107.087C114.873 111.587 109.833 120.965 101.226 125.045C98.5768 126.302 95.6998 126.995 92.9488 128.009C90.5488 128.909 88.1488 130.091 86.4058 131.93C108.447 133.46 138.519 125.015 153.204 112.646Z" fill="#FFF2B3"/>
<path d="M97.8598 85.3496C100.287 88.5386 127.47 86.0156 124.002 88.0286C102.534 100.479 85.1428 108.429 64.9618 117.87C67.6618 114.423 77.7328 107.574 80.4208 104.13C56.2498 115.488 44.8288 122.871 20.7208 130.83C12.7648 128.805 4.95876 121.374 2.78076 112.23C17.4298 106.752 26.6128 100.719 44.8108 91.4006C32.6818 94.2806 25.8418 96.4016 17.8978 98.2316C29.2498 91.4516 51.2908 80.0246 64.0978 73.3466C72.9178 68.7506 82.2208 70.4276 86.0638 73.1726C89.9068 75.9176 92.9638 79.5896 95.9908 83.2196" fill="white"/>
<path d="M119.07 68.4891C116.385 63.5091 116.67 57.5391 115.854 51.9411C115.521 49.6641 114.654 47.0361 112.455 46.3671C110.556 45.7911 109.134 47.6121 108.459 49.4811C106.659 54.4641 106.722 60.2121 107.451 64.8981C108.507 71.7171 108.051 71.5221 106.92 76.1271C106.92 76.1271 105.483 82.5051 97.4341 91.6611" fill="white"/>
<path d="M97.5959 91.8053C97.5239 91.7393 97.7069 91.3793 98.1059 90.7703C98.3009 90.4703 98.5619 90.1043 98.8529 89.6753C99.1439 89.2463 99.4799 88.7513 99.8579 88.2113L101.058 86.3963C101.475 85.7273 101.937 85.0163 102.384 84.2393C103.402 82.5402 104.304 80.7741 105.084 78.9533C105.291 78.4613 105.489 77.9573 105.669 77.4533C105.851 76.9462 106.006 76.4294 106.131 75.9053C106.26 75.3233 106.398 74.7413 106.539 74.1593C106.68 73.5773 106.839 73.0013 106.932 72.4373C107.04 71.8845 107.102 71.3235 107.115 70.7603C107.116 70.1701 107.085 69.5803 107.025 68.9933C106.896 67.7933 106.701 66.5273 106.494 65.2613C106.041 62.6249 105.864 59.9484 105.966 57.2753C106.05 54.5936 106.533 51.9395 107.4 49.4003C107.475 49.1723 107.571 48.9263 107.67 48.6863C107.769 48.4463 107.886 48.2123 108.009 47.9813C108.26 47.518 108.562 47.0843 108.909 46.6883C109.274 46.2632 109.716 45.9102 110.211 45.6473C110.746 45.3684 111.346 45.2399 111.948 45.2753C112.234 45.2959 112.517 45.3503 112.791 45.4373C113.037 45.5164 113.276 45.6168 113.505 45.7373C113.73 45.8573 113.946 45.9947 114.15 46.1483C114.34 46.3028 114.52 46.4702 114.687 46.6493C115.282 47.3038 115.74 48.0709 116.034 48.9053C116.604 50.4353 116.721 51.9053 116.844 53.2133C116.967 54.5213 117.018 55.7783 117.069 56.9483C117.168 59.2913 117.252 61.3613 117.48 63.2843C117.678 65.1233 118.08 66.9346 118.68 68.6843C117.906 67.1864 117.32 65.5983 116.937 63.9563C116.542 62.248 116.256 60.5166 116.079 58.7723C115.875 57.0113 115.719 55.2293 115.479 53.4593C115.425 53.0183 115.353 52.5803 115.287 52.1393C115.221 51.6983 115.14 51.2783 115.032 50.8613C114.842 50.0459 114.529 49.264 114.105 48.5423C113.902 48.2103 113.655 47.9075 113.37 47.6423C113.101 47.3999 112.787 47.2124 112.446 47.0903C112.151 46.9651 111.826 46.9286 111.511 46.985C111.195 47.0415 110.903 47.1886 110.67 47.4083C110.11 47.9154 109.679 48.549 109.413 49.2563C109.332 49.4363 109.272 49.6133 109.206 49.8083L109.02 50.4083C108.891 50.8013 108.798 51.2063 108.69 51.6083C108.325 53.1729 108.095 54.7656 108 56.3693C107.919 57.8685 107.928 59.3712 108.027 60.8693C108.105 62.0693 108.237 63.2303 108.411 64.3673C108.585 65.5043 108.783 66.6833 108.918 67.8293C109.081 68.9928 109.129 70.1694 109.062 71.3423C109.01 71.9206 108.919 72.4948 108.792 73.0613C108.666 73.5983 108.531 74.1113 108.402 74.6003L108.027 76.0403L107.934 76.4033C107.898 76.5443 107.862 76.6763 107.823 76.7993C107.748 77.0543 107.664 77.2943 107.58 77.5373C107.256 78.4425 106.881 79.3289 106.458 80.1923C105.719 81.704 104.887 83.1678 103.965 84.5753C102.67 86.5633 101.209 88.4389 99.5999 90.1823C98.4389 91.3703 97.7369 91.9313 97.5959 91.8053Z" fill="black"/>
<path d="M126.456 74.8645C125.193 79.9195 121.5 81.4105 118.2 85.6435C115.929 88.5475 112.935 90.8006 109.434 91.8176C108.162 92.1866 105.786 92.3186 104.496 92.3125C96.4829 92.2705 93.7769 92.9755 90.5969 90.0025C87.4649 87.0805 82.7039 83.0065 84.6899 78.8365C85.7819 76.5475 88.7189 75.6145 96.3689 69.6565C101.31 65.8075 100.482 65.5585 106.569 59.3845C108.522 57.4015 111.369 56.3515 114.069 56.0845C118.647 55.6375 122.592 58.8565 124.35 62.8285C126.108 66.8005 126.132 71.4115 126.129 75.8875" fill="white"/>
<path d="M126.324 75.8931C126.225 75.8931 126.135 75.2541 126.024 74.0781C125.913 72.9021 125.826 71.1891 125.523 69.0681C125.362 67.9097 125.12 66.7639 124.8 65.6391C124.447 64.3426 123.919 63.1002 123.231 61.9461C123.06 61.6461 122.838 61.3461 122.631 61.0461C122.424 60.7461 122.193 60.4461 121.935 60.1941C121.434 59.6245 120.874 59.1097 120.264 58.6581C119.639 58.1835 118.957 57.7904 118.233 57.4881C117.865 57.3319 117.487 57.1987 117.102 57.0891L116.502 56.9601C116.304 56.9121 116.1 56.9031 115.902 56.8731C115.803 56.8731 115.701 56.8431 115.602 56.8371H115.302C115.096 56.8236 114.89 56.8236 114.684 56.8371C114.477 56.8521 114.273 56.8611 114.063 56.8791C113.853 56.8971 113.634 56.9331 113.421 56.9721C112.551 57.1146 111.698 57.3437 110.874 57.6561C110.037 57.9696 109.242 58.3847 108.507 58.8921C108.14 59.145 107.792 59.4247 107.466 59.7291C107.166 60.0291 106.806 60.4071 106.467 60.7581C105.102 62.1891 103.767 63.6771 102.432 65.2401C101.76 66.0171 101.064 66.8331 100.287 67.5951C99.5101 68.3571 98.6941 69.0621 97.8661 69.7401C96.2011 71.0811 94.5091 72.3681 92.7661 73.6221C91.8961 74.2491 91.017 74.8611 90.138 75.4671C89.259 76.0731 88.377 76.6671 87.561 77.2671C87.354 77.4171 87.165 77.5671 86.961 77.7231C86.757 77.8791 86.5891 78.0231 86.4391 78.1941C86.2823 78.3458 86.1341 78.506 85.995 78.6741C85.8748 78.8353 85.7674 79.0059 85.674 79.1841C85.2818 79.9189 85.1527 80.7658 85.308 81.5841C85.4969 82.4679 85.8599 83.3052 86.3761 84.0471C86.9211 84.8524 87.5332 85.6101 88.206 86.3121C89.211 87.3801 90.3061 88.3791 91.3411 89.3541C91.797 89.7811 92.3002 90.1545 92.8411 90.4671C93.3694 90.7456 93.9309 90.9563 94.5121 91.0941C95.7436 91.3213 96.9949 91.4238 98.247 91.4001C99.501 91.4151 100.743 91.4001 101.946 91.4001H103.731H104.598C104.871 91.4001 105.147 91.4001 105.423 91.4001C106.486 91.4025 107.547 91.3323 108.6 91.1901C108.836 91.1534 109.069 91.1034 109.299 91.0401C109.536 90.9651 109.779 90.9081 110.01 90.8241C110.241 90.7401 110.478 90.6711 110.703 90.5781C110.928 90.4851 111.156 90.4011 111.375 90.3021C112.235 89.9199 113.062 89.4663 113.847 88.9461C115.313 87.9598 116.637 86.7779 117.783 85.4331C118.885 84.1752 120.089 83.0103 121.383 81.9501C122.579 80.9947 123.697 79.9464 124.728 78.8151C125.687 77.6801 126.43 76.3785 126.918 74.9751C126.587 76.3104 126.019 77.5754 125.241 78.7101C124.433 79.8436 123.507 80.8893 122.481 81.8301C121.482 82.7961 120.477 83.7411 119.562 84.7851L119.217 85.1751L118.89 85.5771C118.668 85.8561 118.443 86.1321 118.218 86.4111C117.754 86.9786 117.26 87.5213 116.739 88.0371C114.611 90.191 111.944 91.7355 109.017 92.5101C108.273 92.6548 107.52 92.755 106.764 92.8101C106.017 92.8731 105.264 92.9121 104.514 92.9181C103.05 92.9181 101.586 92.9631 100.116 92.9961C98.6263 93.0574 97.1343 93.0423 95.6461 92.9511C94.8684 92.8854 94.0994 92.7407 93.3511 92.5191C92.5916 92.274 91.8719 91.9193 91.215 91.4661L90.738 91.1211L90.297 90.7461L90.0751 90.5601L89.877 90.3801L89.481 90.0171C88.95 89.5371 88.4191 89.0511 87.8941 88.5531C86.8238 87.5598 85.8495 86.468 84.9841 85.2921C84.5466 84.6786 84.1746 84.021 83.874 83.3301C83.5609 82.6063 83.381 81.8318 83.343 81.0441C83.3266 80.6423 83.3537 80.24 83.424 79.8441C83.4964 79.4522 83.61 79.0691 83.763 78.7011L83.877 78.4281L84.018 78.1611C84.1054 77.9839 84.2056 77.8135 84.318 77.6511C84.4282 77.4896 84.5484 77.3353 84.6781 77.1891C84.7983 77.0451 84.9265 76.9078 85.0621 76.7781C85.5613 76.2942 86.0958 75.848 86.661 75.4431C87.195 75.0501 87.7201 74.6841 88.2391 74.3241C89.2771 73.6071 90.2791 72.9081 91.2391 72.2241C92.8391 71.0681 94.3921 69.8991 95.8981 68.7171C96.6421 68.1171 97.362 67.5351 98.04 66.9171C98.7094 66.3227 99.3445 65.6906 99.9421 65.0241C100.542 64.3611 101.142 63.6621 101.742 62.9811C102.342 62.3001 102.942 61.6311 103.542 60.9831C104.142 60.3351 104.742 59.7021 105.342 59.0871C105.495 58.9341 105.642 58.7871 105.792 58.6251C105.942 58.4631 106.131 58.2951 106.308 58.1421C106.655 57.835 107.022 57.5514 107.406 57.2931C108.862 56.3253 110.492 55.6488 112.206 55.3011C113.021 55.121 113.852 55.0206 114.687 55.0011C114.897 54.9926 115.108 54.9976 115.317 55.0161C115.525 55.0205 115.732 55.0355 115.938 55.0611C116.342 55.1089 116.743 55.183 117.138 55.2831C118.638 55.6558 120.039 56.3487 121.245 57.3141C122.334 58.1715 123.275 59.2023 124.029 60.3651C124.701 61.4012 125.234 62.5206 125.616 63.6951C125.951 64.7099 126.201 65.7503 126.366 66.8061C126.516 67.6998 126.616 68.6012 126.666 69.5061C126.717 70.3371 126.726 71.0871 126.723 71.7591C126.705 74.4681 126.507 75.8931 126.324 75.8931Z" fill="black"/>
<path d="M90.369 85.2171C88.488 84.6441 84.969 84.5661 82.959 84.6621C82.263 85.8621 81.111 87.1521 80.061 87.5481C79.365 87.8076 78.6206 87.911 77.8803 87.8508C77.1399 87.7907 76.4219 87.5686 75.777 87.2001C74.9612 86.6912 74.2693 86.0066 73.752 85.1961C72.639 83.5431 72.045 81.4701 72.51 79.5171C73.08 77.1171 75.21 75.2751 77.637 74.6301C81.453 72.6621 89.637 72.0561 93.792 70.9131" fill="white"/>
<path d="M93.7348 70.7001C93.7678 70.8201 93.3478 71.0811 92.5348 71.3811C91.3918 71.7789 90.2269 72.1105 89.0458 72.3741L83.9038 73.5591C82.9528 73.7871 81.9628 74.0361 80.9698 74.3451C79.9721 74.6281 79.0045 75.0079 78.0807 75.4791C78.0369 75.5006 77.9918 75.5196 77.9458 75.5361L77.8888 75.5511C76.9967 75.8173 76.1659 76.2567 75.4438 76.8441C74.7286 77.4192 74.1609 78.1566 73.7877 78.9951C73.4468 79.8242 73.3329 80.7293 73.4577 81.6171C73.5885 82.5318 73.894 83.4128 74.3577 84.2121C74.8296 85.1126 75.5314 85.8723 76.3918 86.4141C77.1452 86.8298 78.0077 87.0056 78.8638 86.9181C79.0655 86.8955 79.2659 86.8615 79.4638 86.8161C79.5598 86.7951 79.6528 86.7621 79.7458 86.7381C79.8234 86.7125 79.8996 86.6825 79.9737 86.6481C80.3111 86.4837 80.6249 86.2748 80.9068 86.0271C81.4748 85.5284 81.9787 84.9611 82.4068 84.3381L82.4698 84.2511C82.5206 84.1789 82.5886 84.1205 82.6677 84.0812C82.7468 84.0419 82.8345 84.023 82.9228 84.0261C84.2841 84.0648 85.6393 84.2234 86.9728 84.5001C88.1111 84.7097 89.2101 85.0943 90.2308 85.6401C89.117 85.3478 87.9737 85.1828 86.8228 85.1481C85.5414 85.0823 84.2574 85.0883 82.9768 85.1661L83.3968 84.9081C82.9689 85.6767 82.438 86.3832 81.8188 87.0081C81.4877 87.3421 81.117 87.6343 80.7147 87.8781C80.2878 88.1134 79.8276 88.2824 79.3498 88.3791C78.4095 88.5783 77.4347 88.5423 76.5118 88.2741C76.0456 88.1323 75.5999 87.9306 75.1857 87.6741C74.783 87.4224 74.4088 87.1277 74.0697 86.7951C73.4274 86.1529 72.8826 85.4201 72.4527 84.6201C72.0251 83.8376 71.7215 82.9936 71.5527 82.1181C71.3824 81.251 71.3752 80.3598 71.5317 79.4901C71.6855 78.6539 72.0015 77.8559 72.4617 77.1411C73.0338 76.2436 73.7794 75.4695 74.6547 74.8641C75.4758 74.2896 76.3889 73.8594 77.3548 73.5921L77.1447 73.6731C78.2815 73.116 79.4755 72.6844 80.7057 72.3861C81.8368 72.0861 82.9108 71.8701 83.9188 71.6901C85.9378 71.3241 87.6928 71.0901 89.1358 70.9161C90.5788 70.7421 91.7038 70.6161 92.4748 70.5531C93.2458 70.4901 93.6868 70.5441 93.7348 70.7001Z" fill="black"/>
<path d="M105.753 36.0444C104.553 32.9664 105.294 30.5754 106.137 28.6104C107.598 25.2024 111.483 22.0104 114.93 21.7404C118.377 21.4704 122.73 21.8034 123.666 26.1234" fill="white"/>
<path d="M123.876 26.0782C123.783 26.0962 123.645 25.9612 123.483 25.7092C123.272 25.3589 123.041 25.0204 122.793 24.6952L122.541 24.3952C122.447 24.2893 122.347 24.1891 122.241 24.0952C122.137 23.9843 122.023 23.8838 121.899 23.7952C121.77 23.7082 121.653 23.6032 121.512 23.5192C120.89 23.1415 120.204 22.8822 119.487 22.7542C118.633 22.5972 117.763 22.5358 116.895 22.5712C116.427 22.5892 115.953 22.6162 115.467 22.6642C115.224 22.6912 114.969 22.7122 114.765 22.7542L114.441 22.8082L114.114 22.8922C112.356 23.3602 110.652 24.5122 109.314 25.8082C108.847 26.2677 108.412 26.7589 108.012 27.2782C107.665 27.7365 107.354 28.2209 107.082 28.7272C106.606 29.6019 106.211 30.5188 105.903 31.4662C105.454 33.0021 105.26 34.6015 105.33 36.2002C104.81 34.8643 104.584 33.4314 104.67 32.0002C104.726 31.2436 104.864 30.4952 105.081 29.7682C105.292 29.0352 105.558 28.3192 105.876 27.6262C106.212 26.9376 106.606 26.2792 107.055 25.6582C107.499 25.06 107.987 24.4964 108.516 23.9722C109.501 22.9942 110.639 22.1835 111.885 21.5722C112.848 21.1028 113.888 20.8111 114.954 20.7112C115.869 20.6262 116.788 20.6112 117.705 20.6662C118.556 20.7176 119.398 20.8748 120.21 21.1342C120.587 21.2584 120.954 21.4098 121.308 21.5872C121.637 21.7596 121.95 21.9603 122.244 22.1872C122.518 22.3934 122.771 22.6255 123 22.8802C123.185 23.1102 123.356 23.3506 123.513 23.6002C123.639 23.8492 123.747 24.0802 123.84 24.2932C123.933 24.5062 123.966 24.7162 124.011 24.8932C124.032 24.9832 124.053 25.0672 124.065 25.1482C124.077 25.2292 124.065 25.3072 124.065 25.3792C124.069 25.4995 124.063 25.6199 124.047 25.7392C124.032 25.9492 123.972 26.0572 123.876 26.0782Z" fill="black"/>
<path d="M153.435 40.2653C144.924 30.0653 125.937 21.5123 113.556 28.3103C104.97 33.0233 98.6818 40.2263 99.7558 49.7783C103.236 71.6213 148.089 89.6303 156 62.4983" fill="white"/>
<path d="M155.802 62.4384C155.85 62.4384 155.838 62.6454 155.769 63.0084C155.736 63.1884 155.688 63.4134 155.628 63.6774C155.568 63.9414 155.466 64.2354 155.361 64.5774C154.732 66.524 153.768 68.3455 152.511 69.9594C151.61 71.1037 150.564 72.1262 149.4 73.0014C148.023 74.0203 146.508 74.8384 144.9 75.4314C143.096 76.0974 141.215 76.5318 139.302 76.7244C137.207 76.9364 135.096 76.9304 133.002 76.7064C128.398 76.186 123.909 74.9236 119.709 72.9684C115.118 70.8929 110.902 68.074 107.229 64.6254C105.325 62.8279 103.638 60.8143 102.201 58.6254C100.725 56.4031 99.6418 53.9432 99.0001 51.3534C98.9131 51.0324 98.8561 50.6904 98.7901 50.3544C98.7631 50.1864 98.7181 50.0154 98.7031 49.8474L98.6671 49.3404C98.6019 48.6685 98.5798 47.9931 98.6011 47.3184L98.6311 46.3134C98.6551 45.9804 98.7061 45.6504 98.7451 45.3174C98.7841 44.9844 98.8141 44.6514 98.8831 44.3274L99.1021 43.3494L99.2131 42.8634C99.2491 42.7014 99.3091 42.5454 99.3571 42.3864L99.6571 41.4414C99.7599 41.1275 99.8811 40.82 100.02 40.5204L100.41 39.6204C100.56 39.3204 100.71 39.0414 100.872 38.7534C101.034 38.4654 101.172 38.1714 101.349 37.9014L101.877 37.0854L102.141 36.6804C102.231 36.5484 102.333 36.4254 102.441 36.2964C103.541 34.8056 104.802 33.4404 106.2 32.2254C107.488 31.0853 108.864 30.0472 110.313 29.1204L111.36 28.4604C111.711 28.2474 112.068 28.0554 112.416 27.8604C112.764 27.6654 113.103 27.4584 113.478 27.2844C113.853 27.1104 114.201 26.9094 114.573 26.7654C115.998 26.1476 117.49 25.6985 119.019 25.4274C120.443 25.1626 121.888 25.0321 123.336 25.0374C124.691 25.0311 126.045 25.1244 127.386 25.3164C129.832 25.6639 132.236 26.2672 134.556 27.1164C138.51 28.5392 142.231 30.5421 145.596 33.0594C148.469 35.1569 150.999 37.6869 153.096 40.5594C151.034 38.1479 148.671 36.0096 146.067 34.1964C143.332 32.2695 140.392 30.6507 137.301 29.3694C134.137 28.0355 130.807 27.1383 127.401 26.7024C123.984 26.2914 120.462 26.4504 117.222 27.4944C116.823 27.6384 116.415 27.7614 116.022 27.9234C115.629 28.0854 115.239 28.2444 114.861 28.4334C114.483 28.6224 114.111 28.8084 113.739 29.0334L112.629 29.6874C112.254 29.8974 111.906 30.1494 111.546 30.3774C111.186 30.6054 110.826 30.8394 110.487 31.0944L109.455 31.8414L108.468 32.6364C105.87 34.7784 103.683 37.3374 102.288 40.1964C101.609 41.6033 101.121 43.0944 100.836 44.6304C100.796 44.8185 100.768 45.0089 100.752 45.2004L100.689 45.7674L100.623 46.3344C100.608 46.5234 100.623 46.7124 100.605 46.9014C100.605 47.2794 100.605 47.6574 100.584 48.0324C100.563 48.4074 100.641 48.7704 100.668 49.1364L100.71 49.6854L100.815 50.2164C100.875 50.5674 100.974 50.9244 101.064 51.2784C101.253 51.9782 101.479 52.6672 101.742 53.3424C102.263 54.6554 102.904 55.9177 103.656 57.1134C104.269 58.0799 104.934 59.0122 105.648 59.9064C106.365 60.7884 107.124 61.6254 107.904 62.4264C109.457 63.9836 111.132 65.4132 112.914 66.7014C116.242 69.113 119.873 71.0759 123.714 72.5394C127.108 73.8598 130.667 74.7058 134.292 75.0534C137.363 75.3618 140.463 75.1066 143.442 74.3004C145.836 73.6469 148.06 72.4822 149.961 70.8864C151.37 69.6762 152.579 68.2505 153.543 66.6624C154.146 65.6481 154.691 64.6005 155.175 63.5244C155.496 62.7864 155.7 62.4084 155.802 62.4384Z" fill="black"/>
<path d="M122.016 78.3594C119.184 88.9014 105.444 98.3754 93.93 98.4594C93.45 98.4594 92.958 98.4594 92.46 98.4174C92.3908 99.4665 92.1252 100.493 91.677 101.444C91.3999 102.017 90.9936 102.517 90.4901 102.905C89.9867 103.293 89.3999 103.56 88.776 103.682C86.619 104.021 84.744 102.203 83.919 100.232C82.9721 97.9114 82.9303 95.3196 83.802 92.9694C84.4925 91.1409 85.6776 89.5404 87.225 88.3464C87.6885 87.8964 88.1904 87.4879 88.725 87.1254" fill="white"/>
<path d="M88.611 86.9394C88.695 87.0624 88.149 87.5393 87.351 88.4633H87.336C86.3002 89.4328 85.4494 90.5825 84.825 91.8563C83.9654 93.6418 83.6713 95.6472 83.982 97.6043C84.0695 98.1505 84.206 98.6877 84.39 99.2093C84.483 99.4733 84.591 99.7404 84.708 99.9924C84.827 100.243 84.9633 100.484 85.116 100.715C85.4166 101.187 85.7891 101.609 86.22 101.966C86.6226 102.311 87.0988 102.56 87.612 102.692C87.8526 102.75 88.1 102.773 88.347 102.761C88.592 102.742 88.8332 102.69 89.064 102.605C89.5555 102.409 89.989 102.091 90.324 101.681C90.4983 101.472 90.6483 101.244 90.771 101C90.9013 100.733 91.0097 100.455 91.095 100.169C91.2793 99.5718 91.3921 98.9545 91.431 98.3304C91.4473 98.0592 91.5704 97.8055 91.7734 97.6249C91.9765 97.4444 92.2428 97.3518 92.514 97.3674C94.3748 97.4523 96.239 97.3143 98.067 96.9563C99.8814 96.5949 101.661 96.077 103.386 95.4083C106.076 94.353 108.635 92.99 111.012 91.3464C112.071 90.6234 113.025 89.8854 113.898 89.1534C114.771 88.4214 115.569 87.6954 116.298 86.9754C117.63 85.6623 118.848 84.2393 119.94 82.7214C120.906 81.3838 121.745 79.9585 122.445 78.4644C121.677 81.2784 120.156 84.0564 118.17 86.5644C116.131 89.1057 113.743 91.3468 111.078 93.2214C108.46 95.0923 105.604 96.6056 102.585 97.7214C99.8149 98.7649 96.8917 99.3447 93.933 99.4374L92.391 99.4104L93.453 98.4714C93.4007 99.3475 93.2291 100.213 92.943 101.042C92.7998 101.474 92.6097 101.888 92.376 102.278C92.1378 102.677 91.8484 103.044 91.515 103.367C90.8468 104.033 89.9994 104.489 89.076 104.681C88.1643 104.851 87.2226 104.739 86.376 104.36C85.6243 104.016 84.9506 103.522 84.396 102.908C83.8885 102.351 83.4632 101.723 83.133 101.045C82.5634 99.8197 82.2364 98.4953 82.17 97.1453C82.0486 94.945 82.6114 92.761 83.781 90.8933C84.5595 89.6556 85.5962 88.6005 86.82 87.8004L86.763 87.8514C87.156 87.5207 87.5895 87.2415 88.053 87.0203C88.371 86.9003 88.56 86.8644 88.611 86.9394Z" fill="black"/>
<path d="M116.013 28.2866C123.678 26.8586 134.913 30.3866 140.802 35.5136C146.691 40.6406 148.326 47.4746 147.972 55.2626C147.618 63.0506 142.293 70.3406 135.972 74.9006C141.216 75.3746 148.782 71.8796 151.851 67.6016C154.92 63.3236 157.425 56.2556 156.951 51.0116C156.279 43.6856 152.028 39.4346 146.436 34.6526C140.844 29.8706 130.206 26.8046 122.862 27.2726" fill="#D0DDDF"/>
<path d="M91.1699 77.3511C91.5689 77.3991 91.7159 78.6831 92.2379 80.2671C92.5147 81.1289 92.8702 81.9634 93.2999 82.7601C93.5219 83.1861 93.7679 83.5491 94.0709 84.0621C94.2312 84.3354 94.3668 84.6226 94.4759 84.9201C94.601 85.26 94.6729 85.6172 94.6889 85.9791C94.7 86.2643 94.6677 86.5496 94.5929 86.8251C94.5185 87.1049 94.3946 87.3691 94.2269 87.6051C93.9537 87.9731 93.5955 88.2695 93.1829 88.4691C92.9053 88.607 92.6162 88.7204 92.3189 88.8081C92.0629 88.8881 91.8169 88.9571 91.5809 89.0151C90.7179 89.2367 89.817 89.2674 88.9409 89.1051C89.5199 88.8261 90.1409 88.5051 90.7409 88.1391L91.6769 87.5901C91.9689 87.4279 92.246 87.2402 92.5049 87.0291C92.6784 86.8947 92.7968 86.7016 92.8379 86.4861C92.8625 86.2761 92.8368 86.0632 92.7629 85.8651C92.5288 85.3601 92.2433 84.8806 91.9109 84.4341C90.9296 82.9243 90.4017 81.1648 90.3899 79.3641C90.4289 78.0351 90.8009 77.3001 91.1699 77.3511Z" fill="black"/>
<path d="M118.605 71.8193C124.857 76.7393 135.6 74.6183 142.662 73.1993C144.411 72.8453 146.685 73.7453 147.708 75.2093C148.126 75.8375 148.336 76.5818 148.306 77.3361C148.277 78.0903 148.009 78.8159 147.543 79.4093C144.96 82.9163 140.613 84.7073 136.323 85.4663C132.033 86.2253 127.641 86.1113 123.321 86.6813C119.001 87.2513 116.511 90.1583 107.694 93.6833" fill="white"/>
<path d="M107.775 93.8693C107.7 93.6773 109.167 92.9303 111.597 91.6073C112.812 90.9413 114.255 90.1073 115.881 89.1413C116.697 88.6553 117.558 88.1333 118.503 87.6143C119.503 87.0443 120.561 86.5826 121.659 86.2373C121.959 86.1623 122.259 86.0663 122.559 86.0093C122.859 85.9523 123.183 85.8803 123.474 85.8443C124.074 85.7573 124.674 85.6763 125.292 85.6103C126.519 85.4723 127.779 85.3703 129.054 85.2683C131.601 85.0673 134.226 84.8693 136.782 84.3353C139.338 83.8013 141.834 82.8833 143.916 81.4313C144.943 80.7219 145.854 79.8576 146.616 78.8693C146.931 78.5032 147.139 78.058 147.218 77.5821C147.297 77.1061 147.245 76.6175 147.066 76.1693C146.732 75.5169 146.195 74.9905 145.536 74.6693C144.891 74.3157 144.171 74.1213 143.436 74.1023C143.272 74.1008 143.107 74.1118 142.944 74.1353L142.644 74.1863L142.344 74.2433L141.111 74.4683C140.301 74.6153 139.512 74.7503 138.741 74.8673C135.984 75.3328 133.191 75.5546 130.395 75.5303C128.12 75.5179 125.86 75.1525 123.696 74.4473C121.878 73.8493 120.231 72.82 118.896 71.4473C120.221 72.4623 121.733 73.2073 123.345 73.6403C125.062 74.0962 126.828 74.3371 128.604 74.3573C132.24 74.4293 135.987 73.8443 139.659 73.0943C140.58 72.9053 141.495 72.7073 142.41 72.4943C142.515 72.4703 142.662 72.4463 142.797 72.4223C142.933 72.4 143.071 72.385 143.208 72.3773C143.478 72.3562 143.749 72.3562 144.018 72.3773C144.544 72.424 145.062 72.5349 145.56 72.7073C146.574 73.0429 147.479 73.6437 148.182 74.4473C148.546 74.881 148.819 75.3828 148.986 75.9233C149.145 76.4609 149.198 77.0244 149.142 77.5823C149.089 78.1249 148.941 78.654 148.704 79.1453C148.588 79.3868 148.453 79.6185 148.299 79.8383C148.152 80.0393 147.999 80.2163 147.87 80.4023C147.295 81.1184 146.65 81.7757 145.944 82.3643C145.265 82.9195 144.544 83.421 143.787 83.8643C143.064 84.2774 142.315 84.6451 141.546 84.9653C139.162 85.9258 136.656 86.5508 134.1 86.8223C131.7 87.1043 129.423 87.2003 127.311 87.3503C126.255 87.4223 125.238 87.5033 124.26 87.6083L123.537 87.6923C123.306 87.7253 123.096 87.7643 122.877 87.7973C122.453 87.8788 122.034 87.986 121.623 88.1183C119.994 88.6433 118.506 89.4863 117.123 90.2033C115.74 90.9203 114.462 91.5683 113.334 92.0783C112.767 92.3333 112.239 92.5643 111.75 92.7593C111.261 92.9543 110.811 93.1343 110.403 93.2783C109.786 93.5102 109.155 93.7026 108.513 93.8543C108.054 93.9533 107.808 93.9593 107.775 93.8693Z" fill="black"/>
<path d="M105.222 3.58152C117.675 1.18152 117.345 20.5165 106.182 19.2685C96.4678 18.1795 96.2998 5.94552 104.283 3.50052" fill="white"/>
<path d="M104.22 3.29627C104.295 3.51227 103.26 3.88127 101.982 5.02127C101.237 5.68658 100.627 6.48792 100.182 7.38227C99.6264 8.49004 99.3387 9.7129 99.3422 10.9523C99.3421 11.6349 99.4309 12.3146 99.6062 12.9743C99.7971 13.6541 100.085 14.3027 100.461 14.9003C101.261 16.1551 102.446 17.1163 103.839 17.6393C104.564 17.9233 105.322 18.1119 106.095 18.2003C106.288 18.2284 106.482 18.2435 106.677 18.2453C106.869 18.2453 107.061 18.2723 107.253 18.2693C107.63 18.2603 108.005 18.2222 108.375 18.1553L108.648 18.1073L108.786 18.0803L108.915 18.0383L109.44 17.8763C109.774 17.7433 110.095 17.5817 110.4 17.3933C111.019 17.0202 111.56 16.5313 111.993 15.9533C112.626 15.1282 113.083 14.1815 113.334 13.1723C113.569 12.2579 113.66 11.3126 113.604 10.3703C113.54 8.77747 112.989 7.24258 112.026 5.97227C111.195 4.9253 110.072 4.14935 108.798 3.74327C107.61 3.37008 106.375 3.16805 105.129 3.14327C106.258 2.9337 107.411 2.89024 108.552 3.01427C109.785 3.1636 110.96 3.62631 111.963 4.35827C112.99 5.13181 113.806 6.15103 114.336 7.32227C114.874 8.49442 115.172 9.76229 115.212 11.0513C115.257 12.3359 115.063 13.6177 114.639 14.8313C114.221 16.0463 113.537 17.1531 112.638 18.0713C111.749 18.9648 110.648 19.6173 109.437 19.9673C108.324 20.2708 107.165 20.3674 106.017 20.2523C105.141 20.1586 104.277 19.9675 103.443 19.6823C102.631 19.3908 101.86 18.9934 101.151 18.5003C100.475 18.0059 99.8694 17.4215 99.3512 16.7633C98.869 16.1302 98.4745 15.4349 98.1782 14.6963C97.6862 13.4518 97.4755 12.1139 97.5611 10.7784C97.6466 9.44287 98.0264 8.14282 98.6732 6.97127C99.1602 6.10153 99.7993 5.32624 100.56 4.68227C101.123 4.21452 101.752 3.8324 102.426 3.54827C102.837 3.3681 103.273 3.25078 103.719 3.20027C104.025 3.17027 104.193 3.20027 104.22 3.29627Z" fill="black"/>
<path d="M111.546 12.6804C111.615 12.6114 111.879 12.7224 112.287 12.9804C112.491 13.1034 112.764 13.2234 113.055 13.3884C113.202 13.4664 113.376 13.5294 113.547 13.6074L113.817 13.7274C113.91 13.7664 114.009 13.7934 114.117 13.8294C115.063 14.1675 116.052 14.3744 117.054 14.4444C118.33 14.5252 119.61 14.477 120.876 14.3004C122.365 14.0927 123.84 13.7992 125.295 13.4214C126.939 12.9985 128.603 12.659 130.281 12.4044C131.176 12.2771 132.078 12.2109 132.981 12.2064C133.913 12.193 134.843 12.2795 135.756 12.4644C137.619 12.8215 139.345 13.6899 140.742 14.9724C141.226 15.4226 141.671 15.9134 142.071 16.4394C142.437 16.9337 142.768 17.453 143.061 17.9934C143.583 18.971 143.985 20.0073 144.261 21.0804C144.702 22.8547 144.828 24.6926 144.633 26.5104C144.486 27.9389 144.184 29.3471 143.733 30.7104C143.356 31.8739 142.892 33.0072 142.344 34.1004C142.899 31.964 143.261 29.7824 143.427 27.5814C143.5 26.4341 143.471 25.2826 143.34 24.1404C143.207 23.0042 142.937 21.8881 142.536 20.8164C141.732 18.6984 140.37 16.8234 138.654 15.7164C137.821 15.1744 136.9 14.7797 135.933 14.5494C135.016 14.3402 134.078 14.2395 133.137 14.2494C132.383 14.2525 131.63 14.2996 130.881 14.3904C130.137 14.4864 129.408 14.5944 128.691 14.7354C127.251 15.0024 125.88 15.3354 124.53 15.5964C121.83 16.1454 119.304 16.3104 117.21 15.9984C116.263 15.8754 115.336 15.6251 114.456 15.2544L114.171 15.1344L113.904 14.9964L113.409 14.7264C113.109 14.5314 112.836 14.3394 112.605 14.1654C112.374 13.9914 112.194 13.7904 112.038 13.6314C111.909 13.4932 111.793 13.3424 111.693 13.1814C111.525 12.9084 111.477 12.7464 111.546 12.6804Z" fill="black"/>
<path d="M145.884 43.1003C150.312 37.1003 158.844 41.0003 162.486 47.8793C167.646 57.6233 154.086 73.3223 145.596 62.2223" fill="white"/>
<path d="M145.428 62.3391C145.503 62.2791 145.758 62.4381 146.154 62.7651C146.253 62.8461 146.361 62.9391 146.475 63.0441C146.589 63.1491 146.736 63.2391 146.88 63.3441L147.336 63.6981C147.495 63.8271 147.69 63.9291 147.879 64.0581L148.179 64.2471C148.278 64.316 148.383 64.3753 148.494 64.4241L149.178 64.7691L149.949 65.0511C150.213 65.1411 150.501 65.1861 150.786 65.2611C152.071 65.4896 153.394 65.3556 154.608 64.8741C156.025 64.3122 157.306 63.4529 158.364 62.3541C159.535 61.1621 160.501 59.7845 161.223 58.2771C161.591 57.5045 161.892 56.7015 162.123 55.8771C162.258 55.4691 162.315 55.0461 162.423 54.6321C162.456 54.4221 162.477 54.2121 162.507 54.0021L162.549 53.6871C162.549 53.5851 162.549 53.4801 162.567 53.3871L162.6 52.7571L162.579 52.1361V51.8361L162.54 51.5361L162.462 50.9361L162.33 50.3361C162.306 50.2371 162.291 50.1351 162.264 50.0361L162.168 49.7511L161.979 49.1811C161.895 49.0011 161.814 48.8211 161.733 48.6411C161.481 48.0995 161.191 47.5771 160.863 47.0781C160.556 46.6011 160.225 46.1404 159.87 45.6981C159.219 44.8856 158.49 44.14 157.692 43.4721C156.374 42.3308 154.832 41.4775 153.165 40.9671C151.799 40.5494 150.344 40.5234 148.965 40.8921C148.328 41.0741 147.717 41.3362 147.147 41.6721C146.583 42.011 146.052 42.4028 145.563 42.8421C145.924 42.3586 146.333 41.9124 146.784 41.5101C147.015 41.3016 147.258 41.1073 147.513 40.9281C147.776 40.7508 148.049 40.5896 148.332 40.4451C149.505 39.8557 150.813 39.5857 152.124 39.6621C152.786 39.6993 153.443 39.7997 154.086 39.9621C154.727 40.1366 155.354 40.3613 155.961 40.6341C156.565 40.9129 157.151 41.2316 157.713 41.5881C158.271 41.9481 158.806 42.3429 159.315 42.7701C160.326 43.6171 161.237 44.5774 162.03 45.6321C162.417 46.154 162.776 46.6968 163.104 47.2581C163.278 47.5281 163.404 47.8431 163.56 48.1341C163.629 48.2841 163.713 48.4341 163.77 48.5841L163.938 49.0461C164.362 50.2462 164.585 51.5082 164.598 52.7811C164.593 53.9528 164.445 55.1195 164.157 56.2551C163.705 57.9752 162.976 59.6105 162 61.0971C161.1 62.4667 159.986 63.6824 158.7 64.6971C157.537 65.6316 156.199 66.3233 154.764 66.7311C153.493 67.0862 152.154 67.1274 150.864 66.8511C150.579 66.7966 150.299 66.7183 150.027 66.6171L149.631 66.4821C149.502 66.4371 149.385 66.3681 149.265 66.3141C149.028 66.2001 148.797 66.0861 148.578 65.9721L147.978 65.5791C147.633 65.3445 147.308 65.0805 147.009 64.7901C146.755 64.5595 146.52 64.3087 146.307 64.0401C145.999 63.6892 145.74 63.2987 145.536 62.8791C145.38 62.5701 145.35 62.3961 145.428 62.3391Z" fill="black"/>
<path d="M150.762 40.7843C155.484 40.5953 161.682 47.1323 161.472 53.3843C161.262 59.6363 157.023 66.0113 150.672 64.5443C153.744 62.4683 155.85 60.9773 157.107 57.4883C158.364 53.9993 157.323 49.4633 155.052 46.4273C152.829 43.4573 150.501 42.1133 146.793 42.0143" fill="#D0DDDF"/>
<path d="M108.315 49.583L108.414 49.7C109.316 50.7597 109.761 52.1336 109.652 53.5207C109.543 54.9079 108.888 56.1953 107.832 57.101L88.6498 73.571C87.7244 74.3648 86.5521 74.8128 85.3331 74.8385C84.1141 74.8642 82.9239 74.4661 81.9658 73.712L80.3218 72.416C79.6854 71.9147 79.1733 71.2732 78.8255 70.5415C78.4777 69.8098 78.3035 69.0076 78.3166 68.1976C78.3297 67.3875 78.5296 66.5914 78.9008 65.8713C79.2721 65.1512 79.8046 64.5266 80.4568 64.046L101.193 48.767C102.263 47.9764 103.593 47.621 104.915 47.7725C106.236 47.9239 107.451 48.5709 108.315 49.583Z" fill="#FF4500"/>
<path d="M108.426 49.4932C108.366 49.5442 108.045 49.1932 107.343 48.7582C106.917 48.4943 106.455 48.2923 105.972 48.1582C105.335 47.9764 104.67 47.9143 104.01 47.9752C103.21 48.0561 102.44 48.3221 101.76 48.7522C101.412 48.9892 101.034 49.2922 100.647 49.5922L99.4473 50.5252L93.9213 54.7612L80.5683 64.8412C79.8302 65.4956 79.322 66.3701 79.1189 67.3354C78.9158 68.3007 79.0285 69.3058 79.4403 70.2022C79.7176 70.795 80.121 71.3202 80.6223 71.7412C80.7545 71.862 80.8926 71.9762 81.0363 72.0832L81.4803 72.4312L82.3623 73.1272C82.8704 73.5334 83.458 73.8288 84.0873 73.9942C84.7063 74.1559 85.3524 74.1861 85.9839 74.0827C86.6153 73.9794 87.2181 73.7448 87.7533 73.3942C87.8532 73.3334 87.9485 73.2652 88.0383 73.1902C88.1283 73.1182 88.2183 73.0522 88.3383 72.9592C88.5383 72.7852 88.7383 72.6142 88.9383 72.4462L90.1203 71.4412L92.3823 69.5242L96.5283 66.0322C99.1383 63.8452 101.448 61.9342 103.551 60.2272C104.601 59.3752 105.601 58.5702 106.551 57.8122L107.262 57.2482C107.499 57.0652 107.733 56.8822 107.937 56.6992C108.548 56.1561 109.023 55.4769 109.322 54.7166C109.622 53.9562 109.738 53.1359 109.662 52.3222C109.574 51.2618 109.188 50.2478 108.549 49.3972C109.205 50.1397 109.656 51.0403 109.857 52.0102C109.954 52.5039 109.987 53.008 109.956 53.5102C109.9 54.289 109.683 55.0476 109.319 55.7381C108.954 56.4286 108.45 57.0357 107.838 57.5212L105.552 59.5072L96.1923 67.6822L91.5303 71.7652L89.2413 73.7722C89.1453 73.8562 89.0613 73.9372 88.9413 74.0212L88.6173 74.2822C88.3945 74.4439 88.161 74.5902 87.9183 74.7202C87.4362 74.9821 86.9189 75.1731 86.3823 75.2872C85.3201 75.5139 84.2158 75.4401 83.1933 75.0742C82.6917 74.8987 82.2178 74.6522 81.7863 74.3422C81.5613 74.1862 81.3903 74.0422 81.1863 73.9042L80.6343 73.4752C80.2653 73.1752 79.9143 72.9352 79.5213 72.5752C79.1495 72.233 78.8229 71.8449 78.5493 71.4202C78.0185 70.591 77.7087 69.6399 77.6493 68.6572C77.5932 67.8738 77.6947 67.0871 77.9477 66.3436C78.2007 65.6001 78.6001 64.9148 79.1223 64.3282C79.2543 64.1902 79.3803 64.0432 79.5213 63.9142L79.9593 63.5482C80.2413 63.3292 80.5023 63.1402 80.7723 62.9482L82.3623 61.7662L88.3623 57.3352C92.1543 54.5452 95.5143 52.0972 98.3133 50.0812L100.308 48.6562C100.464 48.5422 100.608 48.4342 100.773 48.3262C100.938 48.2182 101.115 48.1012 101.283 47.9962C101.451 47.8912 101.634 47.8102 101.811 47.7262C101.988 47.6422 102.168 47.5792 102.342 47.5192C103.551 47.1132 104.863 47.1323 106.059 47.5732C106.79 47.836 107.448 48.2665 107.982 48.8302C108.119 48.9716 108.239 49.1286 108.339 49.2982C108.429 49.4002 108.45 49.4722 108.426 49.4932Z" fill="black"/>
<path d="M117.804 58.2324C127.002 62.9094 129.66 68.8044 128.919 74.1024C125.538 74.4234 122.001 72.9024 119.118 71.8254C120.996 70.2624 122.253 67.3914 121.281 65.1504" fill="#FF4500"/>
<path d="M121.152 65.2073C121.206 65.1833 121.341 65.3303 121.503 65.6633C121.713 66.1551 121.815 66.6859 121.803 67.2203C121.797 68.0481 121.618 68.8656 121.278 69.6203C120.852 70.6026 120.221 71.4823 119.427 72.2003L119.283 71.3573C120.708 71.8313 122.235 72.4013 123.852 72.8363C125.469 73.2713 127.182 73.5683 128.844 73.4033L128.22 74.0033C128.447 72.2889 128.283 70.5453 127.74 68.9033C127.217 67.362 126.425 65.9257 125.4 64.6613C124.577 63.6355 123.665 62.6839 122.676 61.8173C120.906 60.2393 119.376 59.1173 117.948 57.9653C119.478 58.7525 120.956 59.6362 122.373 60.6113C123.887 61.6683 125.262 62.9121 126.465 64.3133C127.675 65.7144 128.585 67.3478 129.141 69.1133C129.638 70.7524 129.786 72.4775 129.576 74.1773L129.51 74.7023L128.988 74.7413L128.634 74.7683C126.788 74.8459 124.944 74.5898 123.189 74.0123C121.572 73.5233 120.15 72.9413 118.887 72.4553L117.786 72.0323L118.686 71.2823C119.413 70.6754 120.011 69.9286 120.444 69.0863C120.777 68.4563 120.997 67.773 121.095 67.0673C121.236 65.9243 120.975 65.2793 121.152 65.2073Z" fill="black"/>
<path d="M120.471 61.4869L95.5319 82.4149C93.4949 83.8879 87.4619 78.4009 85.6319 76.6849L84.1019 75.2569C81.5609 72.8869 80.1149 70.8229 83.0759 69.0019L105.276 53.2069C105.706 52.9021 106.213 52.7249 106.739 52.6957C107.265 52.6665 107.788 52.7865 108.249 53.0419C113.154 55.7539 122.574 59.9659 120.471 61.4869Z" fill="#FF4500"/>
<path d="M120.558 61.6012C120.558 61.6012 120.558 61.5532 120.609 61.4962C120.676 61.414 120.728 61.3205 120.762 61.2202C120.814 61.0636 120.804 60.8931 120.735 60.7432C120.646 60.5501 120.523 60.3744 120.372 60.2242C119.703 59.5342 118.494 58.7932 116.943 57.9412C115.392 57.0892 113.463 56.1412 111.276 55.0672L109.59 54.2302L107.847 53.3302C107.309 53.1007 106.705 53.0793 106.152 53.2702C106.013 53.3187 105.879 53.381 105.753 53.4562C105.687 53.4922 105.627 53.5372 105.567 53.5762L105.351 53.7322L104.472 54.3772C99.7261 57.8482 94.2721 61.7962 88.6411 65.8492L84.3841 68.9032L83.3221 69.6592C83.1563 69.7628 82.9988 69.8792 82.8511 70.0072L82.6441 70.1872L82.4761 70.3792C82.2807 70.6025 82.1573 70.8796 82.1221 71.1742C82.1246 71.4875 82.2007 71.7957 82.3441 72.0742C82.7275 72.7737 83.2173 73.4093 83.7961 73.9582C84.3781 74.5582 85.0291 75.1372 85.6591 75.7312C86.9131 76.9162 88.1671 78.0442 89.4661 79.0792C90.4606 79.8926 91.5201 80.6231 92.6341 81.2632C93.1075 81.5323 93.611 81.7448 94.1341 81.8962C94.3372 81.9519 94.5475 81.9772 94.7581 81.9712C94.8985 81.9672 95.0357 81.928 95.1571 81.8572L95.1181 81.8872C107.148 71.9242 114.12 66.3862 120.663 61.6972C113.025 68.0842 104.115 75.6922 95.8501 82.7572H95.8351C95.5447 82.9546 95.2073 83.0715 94.8571 83.0962C94.5549 83.1112 94.2521 83.0849 93.9571 83.0182C93.4205 82.8867 92.9011 82.6934 92.4091 82.4422C91.4857 81.9689 90.6019 81.4221 89.7661 80.8072C88.1744 79.6552 86.65 78.4132 85.2001 77.0872C84.4981 76.4392 83.8141 75.8302 83.1301 75.1702C82.4191 74.5153 81.7995 73.7676 81.2881 72.9472C81.0123 72.4837 80.8451 71.9637 80.7991 71.4262C80.7591 70.8511 80.9168 70.2795 81.2461 69.8062C81.3126 69.6924 81.3921 69.5867 81.4831 69.4912C81.5701 69.3952 81.6511 69.2902 81.7411 69.1912L82.0171 68.9512C82.1033 68.87 82.1967 68.7967 82.2961 68.7322C82.6801 68.4682 83.0101 68.2282 83.3431 67.9882L98.1001 57.4342L104.4 52.9792L104.766 52.7212C104.906 52.6195 105.053 52.5264 105.204 52.4422C105.522 52.2671 105.865 52.1435 106.221 52.0762C106.914 51.9486 107.629 52.0322 108.273 52.3162L111.096 53.8342C114.639 55.7062 117.468 57.2422 119.256 58.6072C119.662 58.9088 120.042 59.2429 120.393 59.6062C120.687 59.8935 120.907 60.2476 121.035 60.6382C121.088 60.8123 121.088 60.9981 121.035 61.1722C120.993 61.2956 120.919 61.4061 120.822 61.4932C120.66 61.6162 120.579 61.6192 120.558 61.6012Z" fill="black"/>
<path d="M111.114 59.3455L95.4752 71.7055C94.0892 72.7045 91.7102 71.0575 91.7102 71.0575C89.9852 69.4465 89.0102 68.0425 91.0142 66.8065L106.098 56.0725C106.391 55.8654 106.735 55.7452 107.093 55.7255C107.451 55.7059 107.807 55.7877 108.12 55.9615C111.459 57.8005 112.545 58.3105 111.114 59.3455Z" fill="#FFF1B6"/>
<path d="M111.201 59.459C111.183 59.432 111.219 59.369 111.303 59.267C111.429 59.124 111.535 58.9645 111.618 58.793C111.671 58.6809 111.677 58.5528 111.636 58.436C111.576 58.2994 111.482 58.1806 111.363 58.091C111.053 57.8463 110.719 57.6352 110.364 57.461C109.965 57.248 109.518 57.026 109.029 56.783L108.267 56.408L108.069 56.306C108 56.273 107.934 56.24 107.88 56.219C107.764 56.1678 107.642 56.1315 107.517 56.111C107.126 56.0458 106.725 56.1351 106.398 56.36L106.209 56.501L106.002 56.66L104.253 57.98C101.823 59.804 99.0093 61.88 96.0603 64.025L91.5603 67.271L91.2903 67.463C91.2056 67.5156 91.1245 67.5738 91.0473 67.637C90.9222 67.7355 90.812 67.8517 90.7203 67.982C90.649 68.0822 90.6064 68.1999 90.5968 68.3225C90.5873 68.4451 90.6113 68.568 90.6663 68.678C90.8132 69.0219 91.0159 69.3392 91.2663 69.617C91.5501 69.9413 91.8505 70.2507 92.1663 70.544L92.0853 70.481C92.3194 70.635 92.5629 70.7743 92.8143 70.898C93.0624 71.0172 93.3191 71.1175 93.5823 71.198C94.1433 71.372 94.6983 71.387 94.9863 71.198L95.0463 71.168L95.1423 71.093L95.3343 70.946L95.7123 70.646L96.4563 70.07L99.2223 67.949C100.965 66.623 102.522 65.471 103.923 64.451C106.746 62.411 109.023 60.896 111.273 59.582C108.369 61.862 105.153 64.457 101.943 67.082L97.1673 70.982L96.0033 71.936L95.8593 72.053C95.808 72.1001 95.7517 72.1413 95.6913 72.176C95.5555 72.271 95.4084 72.3486 95.2533 72.407L95.0253 72.488L94.7973 72.533C94.648 72.5615 94.4963 72.5756 94.3443 72.575C93.7917 72.5666 93.2455 72.4557 92.7333 72.248C92.2508 72.0657 91.7892 71.8324 91.3563 71.552L91.3293 71.534L91.2903 71.498C90.8037 71.0715 90.3559 70.6027 89.9523 70.097C89.7437 69.8303 89.5702 69.5379 89.4363 69.227C89.3136 68.9633 89.2488 68.6764 89.2462 68.3856C89.2436 68.0948 89.3033 67.8068 89.4213 67.541C89.4621 67.4587 89.5071 67.3785 89.5563 67.301C89.5999 67.2231 89.6512 67.1497 89.7093 67.082C89.8099 66.9517 89.9235 66.8321 90.0483 66.725C90.1559 66.6219 90.2723 66.5285 90.3963 66.446C90.6333 66.281 90.8223 66.146 91.0233 65.996L91.6083 65.57C94.5513 63.437 97.3083 61.466 99.7653 59.714C100.998 58.841 102.165 58.022 103.245 57.26L104.808 56.168L105.543 55.661L105.732 55.532C106.274 55.1669 106.937 55.028 107.58 55.145C107.75 55.176 107.916 55.2243 108.075 55.289C108.217 55.3484 108.355 55.4186 108.486 55.499L109.686 56.21C110.361 56.5885 110.996 57.0337 111.582 57.539C111.713 57.6637 111.827 57.8037 111.924 57.956C112.037 58.128 112.095 58.3296 112.092 58.535C112.084 58.7125 112.024 58.8837 111.918 59.027C111.851 59.1203 111.77 59.2032 111.678 59.273C111.408 59.48 111.24 59.504 111.201 59.459Z" fill="black"/>
<path d="M105.216 58.0764C105.171 57.8334 105.591 57.5004 106.293 57.4014C107.101 57.2952 107.921 57.47 108.615 57.8964C109.041 58.1333 109.387 58.4901 109.611 58.9224C109.692 59.0977 109.736 59.2876 109.741 59.4806C109.745 59.6736 109.711 59.8655 109.638 60.0444C109.357 59.6747 108.986 59.3825 108.561 59.1954C108.167 59.0198 107.754 58.887 107.331 58.7994C106.149 58.5114 105.318 58.6044 105.216 58.0764Z" fill="black"/>
<path d="M101.733 60.6623C101.709 60.4133 102.147 60.1163 102.849 60.0623C103.235 60.0331 103.624 60.0707 103.998 60.1733C104.401 60.2819 104.782 60.4606 105.123 60.7013C105.544 60.9703 105.869 61.3664 106.05 61.8323C106.119 62.0174 106.13 62.2192 106.081 62.4106C106.032 62.602 105.926 62.7739 105.777 62.9033C105.718 62.7016 105.616 62.5152 105.478 62.3571C105.339 62.1991 105.168 62.0732 104.976 61.9883C104.594 61.7902 104.192 61.6343 103.776 61.5233C102.636 61.1633 101.793 61.1903 101.733 60.6623Z" fill="black"/>
<path d="M98.0281 63.3202C98.0281 63.0652 98.4871 62.8372 99.1471 62.8252C99.8685 62.8299 100.579 63.0013 101.223 63.3262C101.43 63.4303 101.63 63.5465 101.823 63.6742C102.003 63.7957 102.161 63.948 102.288 64.1242C102.41 64.289 102.473 64.4895 102.468 64.6942C102.466 64.7887 102.441 64.8812 102.394 64.9634C102.347 65.0456 102.281 65.115 102.201 65.1652C102.185 65.0894 102.152 65.0183 102.104 64.9575C102.056 64.8966 101.995 64.8476 101.925 64.8142C101.737 64.7138 101.535 64.642 101.325 64.6012C100.848 64.4902 100.374 64.3972 100.008 64.3012C99.5181 64.1842 99.0345 64.0421 98.5591 63.8752C98.2261 63.7432 98.0191 63.5782 98.0281 63.3202Z" fill="black"/>
<path d="M94.6378 65.702C94.6198 65.453 95.0038 65.174 95.6128 65.102C96.3101 65.027 97.0123 65.1875 97.6078 65.558C97.9772 65.7657 98.276 66.0791 98.4658 66.458C98.5343 66.6219 98.5696 66.7978 98.5696 66.9755C98.5696 67.1531 98.5343 67.3291 98.4658 67.493C98.2053 67.1865 97.8736 66.9485 97.4998 66.8C97.1503 66.6716 96.7912 66.5713 96.4258 66.5C95.3998 66.248 94.6888 66.23 94.6378 65.702Z" fill="black"/>
<path d="M90.9718 67.8533C91.0618 67.6103 91.5118 67.5173 92.1148 67.5143C92.8514 67.5017 93.5775 67.6905 94.2148 68.0603C95.2078 68.6753 95.4808 69.5603 94.9678 70.1843C94.8037 69.8028 94.4984 69.4997 94.1158 69.3383C93.7455 69.178 93.3594 69.0574 92.9638 68.9783C92.4495 68.8768 91.9469 68.723 91.4638 68.5193C91.0768 68.3303 90.8998 68.0963 90.9718 67.8533Z" fill="black"/>
<path d="M125.493 58.2291C125.524 58.2717 125.558 58.3119 125.595 58.3491C128.259 60.9441 126.885 65.4681 124.62 67.4451L105.273 83.3001C103.305 85.0161 99.5729 85.7931 97.5269 84.2001L95.8079 82.8711C92.9579 80.6601 93.8039 75.6501 96.6899 73.4871L118.092 57.4581C119.195 56.6284 120.571 56.2468 121.944 56.3898C123.317 56.5328 124.585 57.1899 125.493 58.2291Z" fill="#FF4500"/>
<path d="M125.604 58.1331C125.541 58.1901 125.202 57.8331 124.452 57.3651C123.386 56.7206 122.136 56.4512 120.9 56.6001C120.054 56.7047 119.247 57.0136 118.548 57.5001L118.266 57.7041L117.966 57.9351L117.366 58.4121L116.1 59.4081L110.277 63.9381L103.509 69.1371L99.8998 71.9001L98.0398 73.3131L97.1038 74.0241L96.7108 74.3631C96.5818 74.4801 96.4708 74.6181 96.3508 74.7441C95.4115 75.834 94.8644 77.207 94.7968 78.6441C94.7594 79.3418 94.8677 80.0396 95.1148 80.6931C95.3581 81.3184 95.7653 81.8666 96.2938 82.2801L97.2388 83.0121L97.7098 83.3781L97.9468 83.5611C98.0248 83.6211 98.0818 83.6511 98.1508 83.6991C98.712 84.0632 99.3604 84.2703 100.029 84.2991C101.439 84.3693 102.838 84.0218 104.052 83.3001C104.269 83.1662 104.477 83.0189 104.676 82.8591L105.315 82.3431L106.593 81.3081L109.035 79.3341L113.517 75.7341C116.334 73.4811 118.827 71.5101 121.098 69.7521C122.235 68.8731 123.315 68.0451 124.35 67.2621C124.821 66.8798 125.239 66.437 125.595 65.9451C125.935 65.4608 126.226 64.9432 126.462 64.4001C126.687 63.8692 126.852 63.3148 126.954 62.7471C127.004 62.4674 127.038 62.1849 127.056 61.9011C127.056 61.7601 127.056 61.6191 127.056 61.4781C127.061 61.3378 127.054 61.1973 127.035 61.0581L126.984 60.6411C126.966 60.5001 126.921 60.3681 126.891 60.2301C126.824 59.9565 126.732 59.6895 126.618 59.4321C126.566 59.3003 126.502 59.1738 126.426 59.0541C126.357 58.9341 126.294 58.8051 126.216 58.6881L125.961 58.3491C125.874 58.2351 125.781 58.1181 125.727 58.0341L125.829 58.1541L125.961 58.3011L126.219 58.6011C126.38 58.8091 126.53 59.0254 126.669 59.2491C126.783 59.4861 126.909 59.7201 127.005 59.9691L127.128 60.3471L127.188 60.5391L127.227 60.7341C127.438 61.7898 127.396 62.8803 127.107 63.9171C126.817 64.9727 126.327 65.9627 125.664 66.8331C125.489 67.0527 125.302 67.262 125.103 67.4601C125.001 67.5561 124.899 67.6611 124.803 67.7601L124.503 68.0151L123.261 69.0441L113.145 77.4741L108.108 81.6741L105.633 83.7441C105.197 84.1174 104.721 84.4405 104.214 84.7071C103.713 84.9645 103.19 85.1753 102.651 85.3371C102.113 85.4877 101.563 85.5881 101.007 85.6371C100.447 85.6851 99.8827 85.6669 99.3268 85.5831C98.7585 85.4929 98.2092 85.3094 97.7008 85.0401C97.5722 84.9696 97.448 84.8914 97.3288 84.8061L97.1458 84.6861L96.9988 84.5721L96.3988 84.1251L95.8138 83.6781C95.6188 83.5251 95.4388 83.4051 95.2138 83.2041C94.9969 83.0267 94.8006 82.8254 94.6288 82.6041L94.3678 82.2861C94.2928 82.1721 94.2268 82.0521 94.1548 81.9381C93.6343 81.0296 93.3622 80.0001 93.3658 78.9531C93.3675 78.1391 93.4919 77.33 93.7348 76.5531C93.9861 75.7919 94.3469 75.0714 94.8058 74.4141L95.1658 73.9401L95.5738 73.5021C95.7123 73.358 95.8607 73.2237 96.0178 73.1001L96.2458 72.9051L96.4588 72.7461L98.1358 71.4831L104.454 66.7371C108.45 63.7371 111.99 61.1241 114.939 58.9641L117.039 57.4341C117.378 57.1941 117.666 56.9691 118.044 56.7291C118.393 56.5108 118.762 56.3279 119.148 56.1831C119.836 55.9279 120.565 55.8048 121.299 55.8201C121.905 55.8306 122.507 55.9317 123.084 56.1201C123.862 56.3867 124.566 56.8339 125.139 57.4251C125.287 57.5716 125.417 57.7358 125.526 57.9141C125.607 58.0401 125.631 58.1001 125.604 58.1331Z" fill="black"/>
<path d="M105.771 83.7108C108.582 85.6758 117.957 88.1748 126.243 86.4468C125.268 88.8888 120.825 90.7998 114.987 90.3468C105.789 89.6568 98.907 85.7688 96.939 84.0648C100.686 85.8018 104.238 84.1908 105.372 83.4648" fill="#FF4500"/>
<path d="M105.3 83.351C105.357 83.423 104.7 84.053 103.221 84.602C102.327 84.9266 101.388 85.1098 100.437 85.145C99.1782 85.1829 97.9262 84.9465 96.768 84.452L97.215 83.762C98.637 84.86 100.515 85.826 102.549 86.69C104.707 87.5917 106.941 88.2995 109.224 88.805L110.124 89C110.424 89.06 110.724 89.108 111.024 89.162C111.624 89.279 112.242 89.36 112.854 89.441C114.078 89.6071 115.312 89.6992 116.547 89.717C117.761 89.7256 118.973 89.6151 120.165 89.387C121.312 89.171 122.423 88.7943 123.465 88.268C123.966 87.9974 124.432 87.6669 124.854 87.284C125.175 86.972 125.438 86.6053 125.631 86.201L126.381 87.101C124.081 87.5322 121.737 87.6893 119.4 87.569C117.525 87.4795 115.662 87.2317 113.829 86.828C112.317 86.4957 110.837 86.034 109.404 85.448C108.161 84.9678 106.999 84.299 105.96 83.465C107.25 84.311 108.852 84.887 110.493 85.349C112.182 85.8135 113.904 86.1504 115.644 86.357C119.142 86.8025 122.69 86.6676 126.144 85.958L127.044 85.76L126.696 86.633C126.436 87.2476 126.049 87.7999 125.559 88.253C125.105 88.6768 124.601 89.0445 124.059 89.348C123.037 89.9024 121.944 90.3152 120.81 90.575C119.758 90.8241 118.686 90.9757 117.606 91.028C117.084 91.07 116.571 91.058 116.07 91.064C115.569 91.07 115.068 91.037 114.594 90.986C111.026 90.7081 107.513 89.9409 104.154 88.706C102.706 88.1726 101.294 87.5432 99.93 86.822C98.7101 86.1962 97.5606 85.4419 96.501 84.572L92.835 81.458L97.206 83.48C98.2374 83.974 99.3625 84.242 100.506 84.266C101.378 84.2829 102.247 84.1819 103.092 83.966C104.517 83.615 105.216 83.222 105.3 83.351Z" fill="black"/>
<path d="M83.4508 79.511C86.8138 76.355 86.1508 71.933 83.2588 68.645C80.3668 65.357 76.9588 64.805 72.9388 67.592C71.3308 68.705 72.6388 72.602 75.5428 75.893C78.4468 79.184 82.0258 80.846 83.4508 79.511Z" fill="#FF4500"/>
<path d="M83.355 79.4004C83.391 79.4334 83.307 79.6674 82.932 79.8744C82.3686 80.1331 81.7345 80.1944 81.132 80.0484C79.569 79.7664 77.598 78.6354 75.762 76.8564C74.7792 75.9055 73.9131 74.8411 73.182 73.6854C72.7855 73.0572 72.4423 72.3969 72.156 71.7114C71.8378 70.9743 71.6432 70.1898 71.58 69.3894C71.5507 68.9249 71.617 68.4592 71.775 68.0214C71.8714 67.7731 72.0105 67.5437 72.186 67.3434C72.2772 67.2414 72.3777 67.148 72.486 67.0644C72.5299 67.0295 72.576 66.9975 72.624 66.9684L72.747 66.8874C73.0687 66.6646 73.4022 66.4593 73.746 66.2724C74.0912 66.0773 74.4467 65.901 74.811 65.7444C75.555 65.4327 76.3384 65.2248 77.139 65.1264C77.9451 65.0517 78.7581 65.1229 79.539 65.3364C80.5984 65.6467 81.5779 66.183 82.41 66.9084C83.1247 67.5229 83.7641 68.2197 84.315 68.9844C84.8015 69.6647 85.2043 70.401 85.515 71.1774C85.7865 71.8745 85.968 72.6034 86.055 73.3464C86.1917 74.6172 85.9495 75.8999 85.359 77.0334C84.8519 77.9484 84.1238 78.7219 83.241 79.2834C83.8989 78.6697 84.4344 77.9368 84.819 77.1234C85.2094 76.2689 85.3963 75.3354 85.365 74.3964C85.314 72.4734 84.384 70.5894 83.079 69.1224C82.4466 68.386 81.7062 67.7498 80.883 67.2354C80.1139 66.7495 79.2372 66.46 78.33 66.3924C77.4688 66.3457 76.6074 66.4795 75.801 66.7854C75.0276 67.0758 74.293 67.4607 73.614 67.9314L73.407 68.0694L73.308 68.1354L73.254 68.1804C73.1844 68.2426 73.1265 68.3168 73.083 68.3994C72.9776 68.6098 72.9231 68.8421 72.924 69.0774C72.9249 69.6526 73.0265 70.2232 73.224 70.7634C73.6147 71.8554 74.1527 72.889 74.823 73.8354C75.9228 75.4386 77.2825 76.8469 78.846 78.0024C80.154 78.9534 81.351 79.4394 82.146 79.5024C82.941 79.5654 83.253 79.2984 83.355 79.4004Z" fill="black"/>
<path d="M79.0982 71.8999C76.2842 68.6269 72.9332 66.8299 71.6792 67.9669C66.1382 73.0039 47.0792 90.4279 17.6792 112.001C49.2962 97.3009 81.6782 79.9939 81.8792 79.8199C83.1512 78.7219 81.9002 75.1759 79.0982 71.8999Z" fill="#FFF1B6"/>
<path d="M78.99 71.9966C79.026 71.9636 79.515 72.4016 80.265 73.3586C80.7235 73.9489 81.1357 74.5738 81.498 75.2276C81.7268 75.6436 81.9273 76.0746 82.098 76.5176C82.3066 77.0243 82.4497 77.5556 82.524 78.0986C82.5623 78.4038 82.5573 78.7128 82.509 79.0166C82.4521 79.356 82.293 79.6699 82.053 79.9166C81.9909 79.9781 81.9189 80.0288 81.84 80.0666L81.618 80.2016L81.192 80.4416L80.322 80.9306L76.5 83.0606C73.755 84.5606 70.662 86.2256 67.281 88.0136C53.781 95.1746 35.781 104.343 17.967 112.644L11.667 115.581L17.25 111.438L23.436 106.848C25.467 105.312 27.498 103.809 29.469 102.285C42.159 92.5916 51.534 84.8846 59.205 78.4646C63.036 75.2576 66.438 72.3656 69.588 69.6746L70.758 68.6756L71.337 68.1836L71.637 67.9406C71.7359 67.8545 71.8471 67.7837 71.967 67.7306C72.4436 67.5625 72.9634 67.5625 73.44 67.7306C73.905 67.8778 74.3511 68.0792 74.769 68.3306C75.5816 68.8203 76.3372 69.3989 77.022 70.0556C77.6926 70.6919 78.3144 71.3779 78.882 72.1076C77.9016 70.9473 76.7706 69.9233 75.519 69.0626C74.8945 68.6302 74.209 68.2935 73.485 68.0636C73.1465 67.9541 72.7883 67.9193 72.435 67.9616C72.278 67.9812 72.1279 68.0378 71.997 68.1266L71.91 68.1956C71.877 68.2196 71.838 68.2586 71.802 68.2916L71.577 68.4926C69.201 70.6646 66.756 72.8756 64.251 75.0926C59.238 79.5266 54 84.0056 48.744 88.4006C43.488 92.7956 38.16 97.0706 32.982 101.136C27.804 105.201 22.746 109.017 18.039 112.521L17.4 111.432C20.655 109.89 23.1 108.732 25.452 107.604C44.277 98.5556 60.252 90.3596 71.592 84.5456L79.179 80.6456L80.778 79.8146L81.156 79.6196C81.273 79.5566 81.351 79.5146 81.456 79.4666L81.528 79.4336L81.57 79.3916C81.5985 79.364 81.6256 79.335 81.651 79.3046C81.701 79.2332 81.7414 79.1555 81.771 79.0736C81.8894 78.668 81.9079 78.2398 81.825 77.8256C81.7513 77.4038 81.6408 76.9892 81.495 76.5866C81.0282 75.3832 80.4242 74.2377 79.695 73.1726C79.2 72.4196 78.933 72.0386 78.99 71.9966Z" fill="#FF4500"/>
<path d="M79.593 74.3004C79.854 79.1424 63.093 83.8284 50.688 90.8814C64.35 80.6214 72.516 71.0334 76.365 70.6914" fill="white"/>
<path d="M76.3503 70.5561C76.3503 70.5831 76.2873 70.6221 76.1643 70.6701C76.0413 70.7181 75.8643 70.7841 75.6393 70.8771C75.0066 71.1762 74.4039 71.5348 73.8393 71.9481C72.3753 72.9951 70.4493 74.7111 68.1753 76.8021C65.9013 78.8931 63.2703 81.3471 60.3753 83.8791C57.4803 86.4111 54.3393 89.0151 51.1023 91.4511L50.3343 90.2781C52.5333 89.0241 54.7803 87.8961 56.9763 86.8641C60.0213 85.4361 62.7333 84.2751 65.1543 83.2431C67.5753 82.2111 69.7053 81.3141 71.6103 80.4621C73.347 79.7175 75.0407 78.8762 76.6833 77.9421C77.4117 77.5274 78.0928 77.0345 78.7143 76.4721C79.0177 76.1909 79.2829 75.8712 79.5033 75.5211C79.7282 75.149 79.86 74.7281 79.8873 74.2941C79.8904 75.0396 79.6276 75.7618 79.1463 76.3311C78.6995 76.8928 78.1845 77.3966 77.6133 77.8311C76.461 78.6957 75.2411 79.4662 73.9653 80.1351C71.4003 81.5001 68.7003 82.7511 66.0003 83.9961C60.6003 86.4621 55.2933 88.9371 51.0003 91.4451L50.3013 90.3771C51.1743 89.7081 51.8013 89.2071 52.4373 88.7181C59.2893 83.3181 64.7673 78.1821 68.8923 74.7561C70.9533 73.0401 72.6963 71.7561 74.0523 71.0811C74.5726 70.8 75.1348 70.6044 75.7173 70.5021C75.8717 70.4742 76.0294 70.4691 76.1853 70.4871C76.2963 70.5021 76.3503 70.5231 76.3503 70.5561Z" fill="#FFD635"/>
<path d="M96.1737 90.8186C99.5337 87.6626 98.8737 83.2436 95.9817 79.9526C93.0897 76.6616 89.6817 76.1126 85.6587 78.8996C84.0537 80.0126 85.3587 83.9096 88.2627 87.2006C91.1667 90.4916 94.7487 92.1566 96.1737 90.8186Z" fill="#FF4500"/>
<path d="M96.0747 90.7132C96.1137 90.7462 96.0297 90.9802 95.6517 91.1872C95.0884 91.4461 94.4542 91.5074 93.8517 91.3612C92.2887 91.0822 90.3177 89.9482 88.4817 88.1722C87.5005 87.2188 86.6345 86.1535 85.9017 84.9982C85.5052 84.37 85.1621 83.7096 84.8757 83.0242C84.5572 82.2872 84.3626 81.5026 84.2997 80.7022C84.2704 80.2376 84.3367 79.772 84.4947 79.3342C84.5912 79.0868 84.7303 78.8584 84.9057 78.6592C84.9954 78.5556 85.096 78.4621 85.2057 78.3802C85.2687 78.3292 85.3047 78.3082 85.3437 78.2812L85.4667 78.2002C85.7884 77.9773 86.1219 77.772 86.4657 77.5852C86.8109 77.3901 87.1665 77.2138 87.5307 77.0572C88.2758 76.7461 89.0602 76.5391 89.8617 76.4422C90.6677 76.3647 91.481 76.4349 92.2617 76.6492C93.3218 76.96 94.3021 77.4963 95.1357 78.2212C95.8495 78.8356 96.4879 79.5325 97.0377 80.2972C97.5242 80.9774 97.9271 81.7137 98.2377 82.4902C98.5102 83.1869 98.6917 83.916 98.7777 84.6592C98.9199 85.9281 98.6841 87.2108 98.0997 88.3462C97.5919 89.2615 96.8639 90.0358 95.9817 90.5992C96.638 89.9841 97.1733 89.2514 97.5597 88.4392C97.9491 87.5802 98.1339 86.6426 98.0997 85.7002C98.0457 83.7772 97.1157 81.8932 95.8137 80.4262C95.1796 79.6903 94.4383 79.0542 93.6147 78.5392C92.846 78.0524 91.9691 77.7628 91.0617 77.6962C90.2006 77.6494 89.3391 77.7833 88.5327 78.0892C87.7593 78.3796 87.0247 78.7645 86.3457 79.2352L86.1387 79.3732L86.0397 79.4392L85.9857 79.4842C85.9161 79.5464 85.8582 79.6206 85.8147 79.7032C85.7109 79.9142 85.6565 80.146 85.6557 80.3812C85.6567 80.9564 85.7582 81.527 85.9557 82.0672C86.3477 83.1586 86.8855 84.192 87.5547 85.1392C88.6545 86.7424 90.0142 88.1507 91.5777 89.3062C92.8857 90.2602 94.0827 90.7432 94.8627 90.8062C95.6427 90.8692 95.9727 90.6052 96.0747 90.7132Z" fill="black"/>
<path d="M91.8179 83.2105C89.0039 79.9375 85.6529 78.1405 84.4019 79.2775C78.8579 84.3145 59.8169 101.741 30.4019 123.311C62.0189 108.611 94.4009 91.3045 94.6019 91.1305C95.8709 90.0295 94.6319 86.4835 91.8179 83.2105Z" fill="#FFF1B6"/>
<path d="M91.7102 83.3001C91.7492 83.2671 92.2352 83.7051 92.9852 84.6621C93.4438 85.253 93.857 85.8778 94.2212 86.5311C94.4476 86.9483 94.648 87.3792 94.8212 87.8211C95.0273 88.3285 95.1694 88.8596 95.2442 89.4021C95.289 89.7075 95.289 90.0178 95.2442 90.3231C95.1878 90.662 95.0298 90.9759 94.7912 91.2231C94.7285 91.284 94.6566 91.3346 94.5782 91.3731L94.3532 91.5081L93.9272 91.7481L93.0572 92.2371L89.2202 94.3521C86.4782 95.8521 83.3822 97.5171 80.0042 99.3051C66.5042 106.466 48.5042 115.634 30.6872 123.935L24.3872 126.872L29.9702 122.729L36.1562 118.142C38.1872 116.603 40.2182 115.1 42.1922 113.576C54.8792 103.883 64.2542 96.1761 71.9252 89.7591C75.7562 86.5491 79.1582 83.6571 82.3082 80.9661L83.4812 79.9671L84.0572 79.4751L84.3572 79.2321C84.4554 79.1459 84.5668 79.076 84.6872 79.0251C85.1646 78.8556 85.6858 78.8556 86.1632 79.0251C86.6275 79.1717 87.0726 79.3731 87.4892 79.6251C88.3029 80.1121 89.0588 80.6898 89.7422 81.3471C90.4129 81.9834 91.0346 82.6694 91.6022 83.3991C90.6218 82.2389 89.4908 81.2148 88.2392 80.3541C87.615 79.9212 86.9294 79.5844 86.2052 79.3551C85.8667 79.2455 85.5085 79.2107 85.1552 79.2531C84.9984 79.2733 84.8484 79.3298 84.7172 79.4181L84.6302 79.4871L84.5222 79.5831L84.3002 79.7871C81.9212 81.9561 79.4762 84.1671 76.9742 86.3871C71.9732 90.8301 66.7472 95.3091 61.4762 99.6951C56.2052 104.081 50.8922 108.368 45.7142 112.43C40.5362 116.492 35.4782 120.311 30.7712 123.83L30.1322 122.747C33.3872 121.205 35.8322 120.047 38.1842 118.919C57.0092 109.871 72.9842 101.675 84.3272 95.8611L91.9142 91.9611L93.5102 91.1331L93.8882 90.9351C94.0082 90.8721 94.0862 90.8301 94.1882 90.7821L94.2572 90.7491L94.3022 90.7071C94.3305 90.6803 94.3566 90.6512 94.3802 90.6201C94.4302 90.5487 94.4706 90.4711 94.5002 90.3891C94.6186 89.9846 94.6371 89.5574 94.5542 89.1441C94.4823 88.7209 94.3718 88.3052 94.2242 87.9021C93.7585 86.6982 93.1544 85.5525 92.4242 84.4881C91.9292 83.7261 91.6562 83.3451 91.7102 83.3001Z" fill="#FF4500"/>
<path d="M92.3127 85.6163C92.5737 90.4583 75.8127 95.1443 63.4077 102.197C77.0727 91.9373 85.2357 82.3493 89.0847 82.0073" fill="white"/>
<path d="M89.0729 81.8633C89.0729 81.8903 89.0099 81.9293 88.8869 81.9773C88.7639 82.0253 88.5869 82.0913 88.3589 82.1843C87.7259 82.4827 87.1231 82.8413 86.5589 83.2553C85.0919 84.3023 83.1659 86.0183 80.8949 88.1093C78.6239 90.2003 75.9869 92.6573 73.0949 95.1864C70.2029 97.7154 67.0589 100.322 63.8249 102.758L63.0599 101.6C65.2619 100.343 67.5059 99.2184 69.7049 98.1834C72.7469 96.7554 75.4589 95.5974 77.8799 94.5624C80.3009 93.5274 82.4339 92.6333 84.3389 91.7813C86.0744 91.0361 87.767 90.1948 89.4089 89.2613C90.1379 88.8474 90.819 88.3544 91.4399 87.7913C91.744 87.5108 92.0094 87.191 92.2289 86.8403C92.4549 86.4685 92.5877 86.0476 92.6159 85.6133C92.6163 86.3589 92.3528 87.0805 91.8719 87.6503C91.4251 88.212 90.9102 88.7159 90.3389 89.1503C89.1887 90.0053 87.9718 90.7668 86.6999 91.4273C84.1349 92.8133 81.4199 94.0584 78.7259 95.3034C73.3259 97.7724 68.0219 100.244 63.7259 102.755L63.0239 101.684C63.8969 101.015 64.5419 100.514 65.1599 100.025C72.0119 94.6254 77.4899 89.4893 81.6179 86.0633C83.6759 84.3503 85.4189 83.0633 86.7779 82.3883C87.2965 82.1037 87.8578 81.9051 88.4399 81.8003C88.596 81.7755 88.7549 81.7755 88.9109 81.8003C89.0159 81.8003 89.0699 81.8303 89.0729 81.8633Z" fill="#FFD635"/>
</svg>
