<svg width="175" height="129" viewBox="0 0 175 129" fill="none" xmlns="http://www.w3.org/2000/svg">
<path d="M160.387 16.5681C145.387 0.227085 130.987 9.56609 118.387 8.31509C103.255 6.81509 99.1331 -2.43691 76.6271 1.06409C58.1261 3.94109 51.1271 15.3171 35.8691 23.3181C23.5151 29.7951 6.29206 33.2001 1.84906 57.3261C-3.40094 85.8351 5.60206 106.1 19.6001 118.841C29.9501 128.267 47.6621 132.125 75.9251 123.509C100.108 116.138 124.864 123.755 146.503 117.716C168.013 111.716 172.759 101.963 174.637 84.3351C175.87 72.7461 169.615 63.9681 167.635 52.5771C165.64 41.0721 171.64 28.8201 160.387 16.5681Z" fill="#7AF5E5"/>
<path d="M84.4128 77.8028C110.149 65.7418 126.896 47.1834 121.82 36.3515C116.743 25.5195 91.7654 26.5158 66.0297 38.5768C40.294 50.6377 23.5463 69.1961 28.6227 80.0281C33.6991 90.86 58.6772 89.8637 84.4128 77.8028Z" fill="#80FFED"/>
<path d="M122.227 36.1613C122.134 36.2033 121.888 35.9573 121.51 35.4713C121.407 35.3336 121.295 35.2033 121.174 35.0813C121.048 34.9403 120.907 34.7813 120.76 34.6223C120.598 34.4467 120.425 34.2804 120.244 34.1243L119.944 33.8573C119.846 33.7581 119.74 33.6677 119.626 33.5873C118.544 32.7181 117.336 32.0181 116.044 31.5113C114.321 30.8321 112.522 30.3646 110.686 30.1193C106.576 29.5193 101.497 29.6603 95.857 30.5693C89.5994 31.6355 83.4605 33.3084 77.527 35.5643C70.6619 38.1401 64.0364 41.3143 57.727 45.0503C54.3682 47.0476 51.1176 49.2217 47.989 51.5633C44.7957 53.9544 41.7872 56.5829 38.989 59.4263C37.6009 60.8536 36.292 62.3559 35.068 63.9263C33.872 65.4739 32.8121 67.122 31.9 68.8523C31.675 69.2783 31.489 69.7133 31.279 70.1453C31.069 70.5773 30.925 71.0153 30.751 71.4503L30.541 72.1103C30.4633 72.3263 30.3982 72.5467 30.346 72.7703C30.229 73.2028 30.1359 73.6415 30.067 74.0843C30.037 74.3033 29.995 74.5223 29.971 74.7383L29.935 75.3833C29.935 75.4883 29.914 75.5993 29.917 75.7043V76.0043C29.917 76.2143 29.917 76.4243 29.944 76.6313C29.9891 77.0363 30.0643 77.4374 30.169 77.8313L30.244 78.1313C30.263 78.2346 30.2942 78.3353 30.337 78.4313L30.559 78.9863C30.8935 79.7141 31.3467 80.3812 31.9 80.9603L32.101 81.1883C32.176 81.2603 32.257 81.3263 32.335 81.3983L32.797 81.8153L33.316 82.1933L33.574 82.3823C33.664 82.4423 33.76 82.4963 33.853 82.5533C35.428 83.4844 37.1416 84.1579 38.929 84.5483C40.8025 84.9703 42.7102 85.2223 44.629 85.3013C46.5667 85.3898 48.5078 85.3687 50.443 85.2383C53.2621 85.0387 56.067 84.673 58.843 84.1433C61.543 83.6393 64.159 83.0153 66.67 82.3133C69.181 81.6113 71.593 80.8463 73.915 80.0273C76.237 79.2083 78.466 78.3503 80.602 77.4383C88.2678 74.2444 95.5919 70.2853 102.463 65.6213C105.373 63.6419 108.164 61.4932 110.821 59.1863C113.251 57.093 115.506 54.8044 117.562 52.3433C119.503 49.9433 121.162 47.4593 122.248 44.7173C122.792 43.343 123.132 41.8968 123.259 40.4243C123.382 38.9089 123.184 37.3847 122.677 35.9513C123.256 37.2381 123.583 38.6242 123.64 40.0343C123.671 40.735 123.648 41.4371 123.571 42.1343L123.409 43.1663C123.358 43.5143 123.256 43.8443 123.178 44.1863L123.055 44.6933L122.89 45.2003C122.779 45.5273 122.686 45.8663 122.56 46.1873C122.302 46.8323 122.053 47.4833 121.741 48.1013C121.142 49.3553 120.461 50.5679 119.701 51.7313C118.148 54.0631 116.399 56.2589 114.475 58.2953C112.53 60.364 110.464 62.3164 108.289 64.1423C99.529 71.5043 89.242 77.4173 78.478 81.8963C73.1175 84.1391 67.5845 85.945 61.933 87.2963C56.32 88.6013 50.629 89.4293 44.95 89.3093C42.0987 89.2644 39.2636 88.8705 36.508 88.1363C35.1098 87.7378 33.755 87.2001 32.464 86.5313C31.1359 85.8233 29.9263 84.9123 28.879 83.8313L28.495 83.4083C28.3617 83.2701 28.2393 83.1216 28.129 82.9643C27.904 82.6643 27.673 82.3433 27.46 82.0223L26.899 81.0113C26.725 80.6723 26.599 80.3063 26.449 79.9553C25.9429 78.5468 25.69 77.0599 25.702 75.5633C25.7446 74.1648 25.952 72.7762 26.32 71.4263C26.422 71.1083 26.521 70.7903 26.62 70.4723L26.773 69.9953L26.953 69.5393L27.313 68.6393C27.442 68.3393 27.583 68.0573 27.715 67.7663C28.6173 65.903 29.6824 64.1231 30.898 62.4473C32.0655 60.8236 33.3298 59.2718 34.684 57.8003C37.2731 55.003 40.0767 52.4122 43.069 50.0513C45.8946 47.7978 48.8442 45.7046 51.904 43.7813C54.877 41.9003 57.856 40.2113 60.811 38.6813C66.3558 35.8166 72.1176 33.3931 78.043 31.4333C83.1442 29.7338 88.3827 28.4781 93.7 27.6803C96.0077 27.3393 98.3321 27.123 100.663 27.0323C102.745 26.9418 104.83 26.9879 106.906 27.1703C108.727 27.3342 110.533 27.6411 112.306 28.0883C113.812 28.4818 115.273 29.0318 116.665 29.7293L117.565 30.2273C117.865 30.3953 118.123 30.5903 118.384 30.7643L118.768 31.0253C118.891 31.1153 119.005 31.2173 119.122 31.3253L119.779 31.8743C119.977 32.0633 120.16 32.2613 120.337 32.4413C120.512 32.611 120.675 32.7924 120.826 32.9843L121.225 33.5183C121.348 33.674 121.459 33.8396 121.555 34.0133C121.741 34.3433 121.894 34.6343 122.017 34.8863C122.107 35.1072 122.182 35.3337 122.242 35.5643C122.317 35.9183 122.317 36.1223 122.227 36.1613Z" fill="#2D77BD"/>
<path d="M84.4128 77.8028C110.149 65.7418 126.896 47.1834 121.82 36.3515C116.743 25.5195 91.7654 26.5158 66.0297 38.5768C40.294 50.6377 23.5463 69.1961 28.6227 80.0281C33.6991 90.86 58.6772 89.8637 84.4128 77.8028Z" fill="#7396FC"/>
<path d="M122.5 36.035C122.347 36.104 122.035 35.879 121.6 35.435C121.479 35.3064 121.352 35.1843 121.219 35.069C121.075 34.937 120.919 34.793 120.763 34.637C120.59 34.47 120.406 34.3137 120.214 34.169C120.115 34.088 120.013 34.007 119.914 33.92C119.81 33.8282 119.698 33.745 119.581 33.671C118.465 32.8686 117.24 32.231 115.942 31.778C114.219 31.1729 112.432 30.7702 110.617 30.578C106.555 30.104 101.545 30.353 95.9769 31.355C89.7989 32.5174 83.7449 34.2622 77.8959 36.566C71.1217 39.2 64.5866 42.4118 58.3629 46.166C55.0624 48.1657 51.8681 50.3356 48.7929 52.667C45.6731 55.0264 42.7339 57.6156 39.9999 60.413C38.6563 61.8063 37.3903 63.2725 36.2079 64.805C35.0648 66.2872 34.053 67.8662 33.1839 69.524C31.4919 72.737 30.8319 76.148 31.9149 78.371C32.1804 78.9572 32.5425 79.4947 32.9859 79.961L33.1479 80.15L33.3429 80.321C33.4749 80.435 33.6039 80.552 33.7299 80.672L34.1739 80.993L34.3929 81.158C34.4709 81.209 34.5579 81.254 34.6389 81.305C36.0777 82.1446 37.6399 82.752 39.2679 83.105C41.0526 83.5089 42.8698 83.7518 44.6979 83.831C46.5783 83.9194 48.4622 83.9044 50.3409 83.786C53.1027 83.5981 55.8513 83.2505 58.5729 82.745C61.2339 82.259 63.8079 81.659 66.2889 80.978C68.7699 80.297 71.1579 79.562 73.4559 78.77C75.7539 77.978 77.9559 77.144 80.0949 76.265C87.7146 73.1629 95.0233 69.3458 101.923 64.865C104.85 62.9636 107.671 60.9046 110.374 58.697C112.853 56.6932 115.173 54.5017 117.316 52.142C119.344 49.847 121.126 47.441 122.359 44.726C122.987 43.3507 123.411 41.8914 123.619 40.394C123.83 38.8072 123.702 37.1937 123.244 35.66C123.856 37.022 124.202 38.4882 124.264 39.98C124.295 40.7148 124.269 41.4509 124.189 42.182C124.135 42.539 124.078 42.899 124.021 43.259C123.964 43.619 123.862 43.961 123.784 44.315L123.652 44.84L123.49 45.353C123.376 45.692 123.277 46.04 123.148 46.37C122.884 47.033 122.629 47.702 122.311 48.335C121.703 49.6162 121.009 50.855 120.235 52.043C118.667 54.4116 116.902 56.6435 114.958 58.715C113 60.8097 110.923 62.789 108.736 64.643C99.9399 72.107 89.6349 78.122 78.8229 82.718C73.4285 85.0201 67.8575 86.8841 62.1639 88.292C59.3376 88.9842 56.4766 89.5259 53.5929 89.915C50.7153 90.3104 47.8124 90.4919 44.9079 90.458C41.9532 90.4313 39.013 90.0404 36.1539 89.294C34.6658 88.8797 33.2234 88.3158 31.8489 87.611C30.3954 86.8446 29.0721 85.8534 27.9279 84.674L27.4989 84.206C27.355 84.0607 27.2217 83.9053 27.0999 83.741C26.8449 83.393 26.5899 83.051 26.3529 82.694C26.1159 82.337 25.9269 81.947 25.7229 81.569C25.5189 81.191 25.3809 80.783 25.2159 80.39C24.6449 78.8306 24.3574 77.1816 24.3669 75.521C24.3982 74.0061 24.6107 72.5004 24.9999 71.036C25.1049 70.694 25.2129 70.355 25.3179 70.016L25.4799 69.509L25.6659 69.026L26.0439 68.063C26.1789 67.748 26.3259 67.448 26.4669 67.142C27.4003 65.1988 28.5046 63.3425 29.7669 61.595C30.9609 59.9334 32.2543 58.3455 33.6399 56.84C36.2708 53.9815 39.1215 51.3334 42.1659 48.92C45.0287 46.6283 48.0184 44.5 51.1209 42.545C54.1209 40.637 57.1479 38.927 60.1359 37.388C65.7474 34.4893 71.5833 32.0474 77.5869 30.086C82.766 28.3744 88.0869 27.1265 93.4869 26.357C95.841 26.0259 98.2116 25.8256 100.588 25.757C102.722 25.6889 104.857 25.7651 106.981 25.985C108.857 26.182 110.715 26.5322 112.534 27.032C114.101 27.4736 115.616 28.0842 117.052 28.853L117.988 29.405C118.288 29.591 118.567 29.804 118.84 30.005L119.236 30.305C119.365 30.407 119.485 30.518 119.602 30.605L120.28 31.205C120.487 31.418 120.676 31.634 120.856 31.835C121.032 32.0247 121.196 32.2251 121.348 32.435C121.492 32.642 121.624 32.84 121.747 33.035C121.87 33.2095 121.979 33.3942 122.071 33.587C122.248 33.95 122.389 34.274 122.497 34.553C122.574 34.7999 122.63 35.0528 122.665 35.309C122.707 35.729 122.65 35.966 122.5 36.035Z" fill="#24A0ED"/>
<path d="M75.5576 69.8136C90.7659 62.6863 100.909 52.2443 98.2124 46.4908C95.516 40.7372 81.0014 41.8509 65.7932 48.9782C50.5849 56.1055 40.442 66.5475 43.1384 72.301C45.8348 78.0546 60.3494 76.9409 75.5576 69.8136Z" fill="#7AF5E5"/>
<path d="M55.5732 68.7171C55.6542 68.6721 55.9062 69.2991 56.8242 70.0251C57.3909 70.4513 58.026 70.778 58.7022 70.9911C59.6164 71.2827 60.5641 71.4562 61.5222 71.5071C65.8362 71.7771 72.2232 70.3551 79.1112 66.4281C80.9177 65.4033 82.6491 64.2514 84.2922 62.9811C86.0774 61.6105 87.6991 60.0392 89.1252 58.2981C89.8627 57.3901 90.4938 56.4006 91.0062 55.3491C91.531 54.3229 91.7958 53.1835 91.7772 52.0311C91.7489 51.4806 91.6058 50.9421 91.3572 50.4501C91.1002 49.9408 90.7478 49.4856 90.3192 49.1091C89.377 48.3166 88.2606 47.7583 87.0612 47.4801C85.7758 47.1576 84.4565 46.9894 83.1312 46.9791C81.7457 46.9601 80.3607 47.0463 78.9882 47.2371C76.1094 47.6422 73.2789 48.3377 70.5402 49.3131C64.6603 51.4123 59.1516 54.433 54.2202 58.2621C52.9443 59.2629 51.7282 60.3378 50.5782 61.4811C49.4162 62.623 48.3543 63.8625 47.4042 65.1861C46.9352 65.8456 46.5064 66.5329 46.1202 67.2441C45.7497 67.9448 45.4386 68.6754 45.1902 69.4281C44.7222 70.9101 44.6322 72.4611 45.1902 73.7631C45.4772 74.4312 45.8839 75.0412 46.3902 75.5631C46.9398 76.1019 47.5642 76.5586 48.2442 76.9191C49.7194 77.6662 51.3113 78.1562 52.9512 78.3681C56.3322 78.8421 59.9082 78.6051 63.4512 78.0051C67.0302 77.3635 70.5444 76.4016 73.9512 75.1311C75.6792 74.4981 77.3862 73.7781 79.0752 73.0041C80.7642 72.2301 82.4382 71.3931 84.0792 70.4901C87.388 68.7016 90.5571 66.6659 93.5592 64.4001C96.5773 62.1335 99.3351 59.5397 101.782 56.6661C102.979 55.2448 104.035 53.7117 104.938 52.0881C105.37 51.2924 105.74 50.465 106.045 49.6131C106.213 49.1961 106.309 48.7701 106.438 48.3471C106.539 47.9268 106.615 47.5011 106.666 47.0721C106.784 46.2476 106.765 45.4093 106.609 44.5911C106.449 43.7964 106.152 43.0353 105.733 42.3411C105.285 41.6346 104.738 40.9952 104.11 40.4421C103.45 39.8766 102.725 39.3922 101.95 38.9991C101.151 38.5858 100.318 38.2406 99.4602 37.9671C99.0162 37.8471 98.5842 37.7001 98.1312 37.5981C97.6782 37.4961 97.2312 37.3761 96.7722 37.2981C94.9169 36.9717 93.037 36.8051 91.1532 36.8001C87.3222 36.809 83.5022 37.2112 79.7532 38.0001C72.2022 39.5391 64.9182 42.2601 58.0602 45.6501C51.2022 49.0401 44.7312 53.1141 39.0102 57.8811C36.9114 59.6179 34.9197 61.4803 33.0462 63.4581C31.237 65.3527 29.5977 67.4026 28.1472 69.5841C26.7552 71.7231 25.5792 73.9581 24.9222 76.2591C24.7521 76.8261 24.6129 77.402 24.5052 77.9841C24.4096 78.5517 24.3505 79.1249 24.3282 79.7001C24.3035 80.2615 24.3195 80.824 24.3762 81.3831C24.4212 81.6561 24.4632 81.9291 24.5082 82.1991C24.5532 82.4691 24.6492 82.7271 24.7122 82.9941C24.781 83.2561 24.8713 83.5119 24.9822 83.7591L25.1292 84.1371C25.1798 84.261 25.2369 84.3822 25.3002 84.5001L25.6872 85.2261L26.1522 85.9041C26.2302 86.0151 26.3052 86.1321 26.3862 86.2401L26.6562 86.5401C26.8362 86.7471 27.0072 86.9601 27.1962 87.1611L27.7962 87.7281C27.8982 87.8181 27.9912 87.9201 28.0962 88.0071L28.4232 88.2621C30.1979 89.6234 32.2056 90.6502 34.3482 91.2921C36.4855 91.9532 38.6834 92.3994 40.9092 92.6241C43.1019 92.8442 45.3061 92.9284 47.5092 92.8761C51.7547 92.7543 55.9829 92.2838 60.1512 91.4691C64.105 90.7072 68.0115 89.7175 71.8512 88.5051C78.9251 86.263 85.7982 83.4311 92.3982 80.0391C98.3596 77.019 104.094 73.57 109.555 69.7191C114.541 66.231 119.2 62.2979 123.475 57.9681C125.482 55.9215 127.354 53.7469 129.079 51.4581C130.758 49.2401 132.221 46.8662 133.447 44.3691C134.664 41.9215 135.475 39.2921 135.847 36.5841C136.016 35.2306 136.021 33.8618 135.862 32.5071C135.693 31.1482 135.336 29.8194 134.8 28.5591C135.851 30.864 136.315 33.3933 136.15 35.9211C135.978 38.4486 135.402 40.9322 134.443 43.2771C132.562 47.9931 129.643 52.2531 126.316 56.1771C122.914 60.1217 119.169 63.7579 115.126 67.0431C111.021 70.4 106.703 73.4885 102.199 76.2891C97.6335 79.1349 92.9133 81.7249 88.0602 84.0471C87.4602 84.3471 86.8362 84.6261 86.2212 84.9051C85.6062 85.1841 84.9912 85.4751 84.3702 85.7511C83.1222 86.2851 81.8802 86.8401 80.6142 87.3381C78.1002 88.3701 75.5352 89.3031 72.9432 90.1611C70.3512 91.0191 67.7202 91.7781 65.0622 92.4501C62.4042 93.1221 59.7162 93.6801 57.0012 94.1091C51.5802 94.9641 46.0392 95.3781 40.5012 94.8141C37.7184 94.5527 34.9786 93.9481 32.3442 93.0141C32.1792 92.9541 32.0112 92.9031 31.8492 92.8371L31.3602 92.6271L30.4002 92.2071L29.4642 91.7001C29.3082 91.6161 29.1642 91.5381 28.9932 91.4511L28.5402 91.1511C27.3042 90.4066 26.1808 89.4893 25.2042 88.4271C24.9672 88.1541 24.7242 87.8841 24.4932 87.6021L23.8632 86.7021L23.7072 86.4771C23.6592 86.4021 23.6202 86.3181 23.5752 86.2401L23.3112 85.7571L23.0502 85.2771C22.9632 85.1151 22.9062 84.9381 22.8312 84.7701C22.2515 83.4144 21.9368 81.9602 21.9042 80.4861C21.8783 79.0496 22.0376 77.6158 22.3782 76.2201C22.7399 74.8731 23.2156 73.5593 23.8002 72.2931C24.9742 69.8122 26.4254 67.4723 28.1262 65.3181C29.7815 63.1924 31.5861 61.1873 33.5262 59.3181C37.342 55.6768 41.4844 52.394 45.9012 49.5111C48.0772 48.0871 50.2862 46.7491 52.5282 45.4971C54.7722 44.2461 57.0462 43.0971 59.3292 42.0051C63.8401 39.8762 68.5115 38.1057 73.3002 36.7101C77.9563 35.3451 82.7423 34.4703 87.5802 34.1001C89.952 33.929 92.3338 33.95 94.7022 34.1631C97.0723 34.3736 99.4033 34.9024 101.632 35.7351C103.544 36.4666 105.282 37.5908 106.732 39.0351L107.248 39.6351C107.332 39.7341 107.422 39.8301 107.5 39.9351L107.728 40.2591C107.875 40.4751 108.028 40.6851 108.169 40.9101L108.547 41.6061C109.028 42.5437 109.345 43.5561 109.486 44.6001C109.705 46.6282 109.435 48.6793 108.7 50.5821C108.038 52.37 107.158 54.0697 106.081 55.6431C103.981 58.7391 101.452 61.3701 98.7822 63.7431C97.4472 64.9431 96.0642 66.0411 94.6482 67.0881C93.9492 67.6221 93.2232 68.1171 92.5122 68.6241C91.8012 69.1311 91.0662 69.6051 90.3282 70.0641C87.4339 71.9055 84.4281 73.5657 81.3282 75.0351C78.2992 76.4853 75.1726 77.7223 71.9712 78.7371C68.8395 79.7428 65.6279 80.4805 62.3712 80.9421C59.146 81.4289 55.8688 81.4663 52.6332 81.0531C50.9881 80.8211 49.3823 80.3659 47.8602 79.7001C47.4702 79.5441 47.0952 79.3161 46.7172 79.1241C46.5312 79.0131 46.3512 78.8931 46.1682 78.7761L45.8952 78.5991L45.6312 78.4011C44.9137 77.872 44.2778 77.2403 43.7442 76.5261L43.3602 75.9711C43.2432 75.7791 43.1412 75.5751 43.0332 75.3711C42.9792 75.2721 42.9252 75.1731 42.8742 75.0711L42.7452 74.7501C42.6509 74.5386 42.5737 74.3199 42.5142 74.0961C42.2504 73.2331 42.1417 72.3301 42.1932 71.4291C42.2303 70.5801 42.3755 69.7393 42.6252 68.9271C42.7302 68.5251 42.8802 68.1501 43.0182 67.7691C43.1562 67.3881 43.3182 67.0311 43.5042 66.6771C44.1905 65.3032 45.019 64.0051 45.9762 62.8041C46.888 61.6482 47.8762 60.5547 48.9342 59.5311C50.9724 57.5698 53.1811 55.7938 55.5342 54.2241C57.7743 52.7166 60.1103 51.3568 62.5272 50.1531C64.8453 48.9914 67.2399 47.9891 69.6942 47.1531C72.0549 46.3406 74.4766 45.7177 76.9362 45.2901C79.3183 44.8667 81.7419 44.7237 84.1572 44.8641C85.3577 44.9415 86.547 45.1426 87.7062 45.4641C88.9053 45.7868 90.0371 46.3212 91.0482 47.0421C91.3074 47.2317 91.553 47.4392 91.7832 47.6631C92.0193 47.8868 92.2398 48.1263 92.4432 48.3801C92.8499 48.8974 93.1746 49.4742 93.4062 50.0901C93.8285 51.292 93.8921 52.5907 93.5892 53.8281C93.3338 54.9196 92.9129 55.9657 92.3412 56.9301C91.8217 57.822 91.2287 58.6689 90.5682 59.4621C89.9475 60.2152 89.2813 60.9295 88.5732 61.6011C87.8852 62.2611 87.1852 62.8771 86.4732 63.4491C83.8455 65.5412 80.9857 67.324 77.9502 68.7621C75.4301 69.9864 72.7901 70.9465 70.0722 71.6271C67.8985 72.1901 65.6637 72.4833 63.4182 72.5001C61.7419 72.5299 60.0756 72.2365 58.5102 71.6361C57.9392 71.4023 57.4024 71.0925 56.9142 70.7151C56.559 70.4339 56.2467 70.1024 55.9872 69.7311C55.8272 69.5089 55.7008 69.2642 55.6122 69.0051C55.5552 68.8221 55.5432 68.7321 55.5732 68.7171Z" fill="#FFF1B6"/>
<path d="M71.1759 63.4999C71.1189 63.3709 71.7759 62.9419 72.9759 62.1469C73.5759 61.7449 74.302 61.2469 75.076 60.6049C75.492 60.2677 75.8803 59.8975 76.2369 59.4979C76.4205 59.2906 76.5814 59.0643 76.717 58.8229C76.8449 58.613 76.9143 58.3727 76.9179 58.1269C76.9151 58.0223 76.8885 57.9197 76.8399 57.8269C76.8159 57.7819 76.7709 57.7279 76.7409 57.6769L76.6899 57.5989C76.6684 57.5764 76.6454 57.5553 76.621 57.5359C76.4363 57.3473 76.2025 57.2142 75.9459 57.1519C75.2893 57.0156 74.611 57.0218 73.9569 57.1699C73.1923 57.3247 72.4417 57.5425 71.7129 57.8209C70.9149 58.1192 70.1328 58.4586 69.3699 58.8379C67.7013 59.6351 66.1148 60.5936 64.6329 61.6999C63.8861 62.2408 63.2291 62.8958 62.6859 63.6409C62.4713 63.9336 62.3322 64.2746 62.2809 64.6339C62.2686 64.76 62.285 64.8872 62.3289 65.0059C62.3812 65.1392 62.4552 65.2629 62.5479 65.3719C62.9349 65.8459 63.8169 66.1309 64.7799 66.1729C65.8174 66.2035 66.854 66.0915 67.8609 65.8399C70.0619 65.2812 72.18 64.436 74.1609 63.3259C76.2469 62.2261 78.1769 60.853 79.8999 59.2429C80.7211 58.4882 81.415 57.6058 81.955 56.6299C82.1607 56.261 82.2826 55.8513 82.312 55.4299C82.3189 55.298 82.2942 55.1664 82.2399 55.0459C82.1818 54.9114 82.0971 54.79 81.9909 54.6889C81.6809 54.4084 81.3103 54.2031 80.9079 54.0889C80.3972 53.9288 79.8697 53.8281 79.3359 53.7889C78.1543 53.7034 76.9668 53.7517 75.7959 53.9329C73.3476 54.3195 70.9552 55.0015 68.6709 55.9639C66.3714 56.9196 64.1624 58.0802 62.0709 59.4319C60.0329 60.7182 58.1661 62.2574 56.5149 64.0129C55.9562 64.6241 55.4541 65.2848 55.0149 65.9869C54.6234 66.587 54.3429 67.2526 54.1869 67.9519C54.1295 68.2202 54.1204 68.4965 54.1599 68.7679C54.2016 68.9991 54.2893 69.2194 54.4179 69.4159C54.5677 69.6379 54.7532 69.8336 54.9669 69.9949C55.2147 70.1792 55.4836 70.3333 55.7679 70.4539C56.4051 70.7244 57.0764 70.9061 57.7629 70.9939C58.4806 71.0936 59.2045 71.1407 59.9289 71.1349C61.3655 71.1087 62.7974 70.9632 64.2099 70.6999C66.8605 70.2244 69.463 69.5115 71.9859 68.5699C74.2595 67.7242 76.4822 66.7475 78.6429 65.6449C82.7379 63.5449 86.2149 61.2919 89.0949 58.7449C90.5127 57.5389 91.7592 56.1451 92.7999 54.6019C93.3081 53.8303 93.6927 52.9841 93.9399 52.0939C94.198 51.1458 94.1688 50.1424 93.8559 49.2109C94.2252 50.0534 94.356 50.9812 94.2339 51.8929C94.1173 52.7673 93.8578 53.6166 93.466 54.4069C93.0897 55.1833 92.646 55.9252 92.1399 56.6239C91.637 57.3253 91.092 57.9955 90.5079 58.6309C88.1739 61.1839 85.3839 63.3499 82.4079 65.2819C80.9079 66.2479 79.3629 67.1479 77.7699 67.9819C76.1769 68.8159 74.5389 69.5899 72.8559 70.2829C69.4716 71.7104 65.9157 72.6906 62.2779 73.1989C60.405 73.4657 58.5025 73.4475 56.6349 73.1449C55.6295 72.973 54.6656 72.6126 53.7939 72.0829C52.8019 71.483 52.0798 70.5233 51.7779 69.4039C51.6484 68.8454 51.622 68.2679 51.6999 67.6999C51.7759 67.1816 51.9066 66.6727 52.0899 66.1819C52.4478 65.2841 52.9164 64.4345 53.4849 63.6529C54.5601 62.1937 55.806 60.8683 57.1959 59.7049C59.8069 57.5154 62.6848 55.6656 65.7609 54.1999C68.6316 52.7826 71.6861 51.7728 74.8359 51.1999C76.1166 50.9775 77.4154 50.8771 78.7149 50.8999C79.3877 50.913 80.0581 50.9833 80.719 51.1099C81.4361 51.239 82.1305 51.4725 82.7799 51.8029C83.5442 52.1855 84.1848 52.7762 84.628 53.5069L84.7929 53.8069C84.8409 53.9149 84.8829 54.0289 84.928 54.1399C84.9678 54.2521 85.0019 54.3662 85.0299 54.4819C85.0613 54.5941 85.0843 54.7084 85.0989 54.8239C85.1683 55.2572 85.1683 55.6987 85.0989 56.1319C84.9671 56.8615 84.7104 57.5628 84.3399 58.2049C84.0176 58.7723 83.6462 59.3103 83.2299 59.8129C82.4538 60.7372 81.5919 61.5859 80.6559 62.3479C79.7707 63.0753 78.8409 63.7466 77.8719 64.3579C76.0286 65.5306 74.0778 66.5251 72.0459 67.3279C71.0566 67.7189 70.0424 68.0437 69.0099 68.2999C67.9752 68.5613 66.917 68.7191 65.8509 68.7709C64.7102 68.8474 63.566 68.686 62.4909 68.2969C61.8663 68.0574 61.3012 67.6848 60.8349 67.2049C60.5879 66.9435 60.3788 66.6486 60.2139 66.3289C60.0325 65.9857 59.9136 65.6129 59.8629 65.2279C59.8143 64.8544 59.8264 64.4755 59.8989 64.1059C59.9627 63.7806 60.0634 63.4635 60.1989 63.1609C60.4417 62.654 60.7526 62.1826 61.1229 61.7599C61.7473 61.0524 62.4521 60.4201 63.2229 59.8759C64.57 58.9315 65.9998 58.1112 67.4949 57.4249C68.8277 56.7841 70.209 56.2494 71.6259 55.8259C72.305 55.6274 72.9979 55.48 73.6989 55.3849C74.4237 55.2773 75.1611 55.2864 75.8829 55.4119C76.2881 55.4856 76.679 55.6234 77.0409 55.8199C77.233 55.9342 77.4155 56.0636 77.587 56.2069C77.7493 56.3639 77.8978 56.5345 78.0309 56.7169C78.0909 56.8099 78.1449 56.9059 78.1989 57.0169C78.2589 57.118 78.3091 57.2244 78.3489 57.3349C78.437 57.5765 78.4846 57.8309 78.4899 58.0879C78.4893 58.5169 78.3865 58.9396 78.1899 59.3209C77.9017 59.8462 77.5206 60.3148 77.0649 60.7039C76.7126 61.0169 76.3387 61.3046 75.9459 61.5649C74.8694 62.2757 73.7149 62.8606 72.5049 63.3079C71.6859 63.5629 71.2329 63.6319 71.1759 63.4999Z" fill="#FFF1B6"/>
<path d="M29.6862 20.6543L29.6742 24.3953L32.8932 26.3033L29.1522 26.2943L27.2442 29.5103L27.2532 25.7693L24.0372 23.8613L27.7752 23.8703L29.6862 20.6543Z" fill="white"/>
<path d="M29.7252 20.5103C29.6982 20.6093 29.4672 21.0233 29.1732 21.6773C29.0232 22.0043 28.8732 22.3853 28.7022 22.7873C28.5312 23.1893 28.3482 23.6183 28.1202 24.0743L28.0302 24.2543L27.7752 24.2723C26.6892 24.3413 25.4172 24.4013 24.0342 24.4493L24.3342 23.3573C25.3722 23.9213 26.4762 24.5363 27.6042 25.1753L27.9372 25.3613V25.7723C27.9582 27.0023 27.9702 28.2623 27.9702 29.5103L26.6022 29.1353C27.1302 28.2353 27.6582 27.3593 28.1772 26.5073L28.5312 25.9313L28.7472 25.5743H29.1462C30.5562 25.6013 31.7922 25.6343 32.8842 25.6823L32.5842 26.8253C31.3602 26.0333 30.3552 25.3253 29.5032 24.6923L29.3112 24.5453L29.3292 24.3863C29.4042 23.7293 29.5302 23.1143 29.6292 22.4423C29.7324 21.7472 29.7806 21.045 29.7732 20.3423C29.8242 20.9423 29.8782 21.5663 29.9322 22.2203C29.9862 22.8743 30.0162 23.6333 30.0222 24.3863L29.8572 24.0863L33.1002 25.9283L34.4592 26.6903L32.8782 26.7353L29.1402 26.8463L29.6142 26.5763C28.9782 27.7253 28.3602 28.8383 27.8142 29.8463L26.6142 31.9853L26.5722 29.5073C26.5722 28.9763 26.5542 28.4933 26.5452 28.0313C26.5452 27.2543 26.5452 26.4983 26.5212 25.7693L26.8752 26.3903C25.7172 25.7183 24.6342 25.0823 23.6502 24.4913L21.3432 23.1083L24.0432 23.1293C25.4592 23.1293 26.7192 23.1623 27.7812 23.2043L27.2052 23.5313C27.5376 22.9978 27.9033 22.4858 28.3002 21.9983C28.6482 21.5753 28.9452 21.2603 29.1642 21.0263C29.6052 20.5613 29.7582 20.3843 29.7252 20.5103Z" fill="#7AF5E5"/>
<path d="M110.131 114.098L113.047 116.441L116.545 115.121L114.202 118.034L115.522 121.535L112.606 119.192L109.108 120.512L111.451 117.596L110.131 114.098Z" fill="white"/>
<path d="M110.041 113.978C110.104 114.059 110.281 114.5 110.608 115.139C110.77 115.457 110.971 115.817 111.184 116.201C111.397 116.585 111.61 116.993 111.826 117.455L111.91 117.638L111.763 117.848C111.139 118.748 110.392 119.771 109.567 120.881L108.901 119.963C109.993 119.504 111.16 119.024 112.363 118.544L112.717 118.403L113.041 118.652C114.016 119.405 115.006 120.182 115.984 120.962L114.835 121.793C114.466 120.827 114.109 119.861 113.767 118.922L113.536 118.286L113.395 117.896L113.647 117.596C114.547 116.507 115.345 115.562 116.065 114.74L116.761 115.703C115.378 116.162 114.208 116.513 113.161 116.777L112.93 116.834L112.816 116.72C112.348 116.252 111.949 115.769 111.484 115.271C111.005 114.759 110.487 114.283 109.936 113.849L111.502 114.902C112.066 115.28 112.657 115.718 113.251 116.18L112.915 116.126L116.383 114.719L117.826 114.134L116.881 115.4L114.631 118.4L114.718 117.857L116.14 121.319L117.07 123.578L115.108 122.078L113.938 121.178L112.156 119.786L112.861 119.897C111.616 120.383 110.443 120.83 109.369 121.232L106.846 122.171L108.538 120.086C109.438 118.985 110.236 118.016 110.938 117.212L110.833 117.866C110.625 117.277 110.454 116.676 110.32 116.066C110.206 115.529 110.149 115.1 110.101 114.782C110.005 114.104 109.966 113.87 110.041 113.978Z" fill="#7AF5E5"/>
<path d="M139.015 75.518L141.001 71.795L138.799 68.192L142.525 70.178L146.128 67.979L144.142 71.702L146.341 75.305L142.618 73.319L139.015 75.518Z" fill="white"/>
<path d="M138.91 75.6289C138.982 75.5539 139.42 75.2719 140.059 74.7859C140.377 74.5459 140.737 74.2579 141.124 73.9459C141.511 73.6339 141.931 73.3129 142.408 72.9799L142.576 72.8599L142.804 72.9679C143.923 73.4809 145.219 74.0989 146.617 74.7859L145.84 75.6109C145.108 74.4949 144.34 73.2979 143.551 72.0649L143.344 71.7409L143.53 71.3779C144.163 70.1419 144.82 68.8789 145.48 67.6309L146.5 68.5999C145.504 69.1999 144.511 69.7999 143.542 70.3999L142.885 70.7899L142.528 71.0029L142.18 70.8109C140.785 70.0429 139.567 69.3619 138.502 68.7409L139.315 67.8769C140.122 69.3109 140.767 70.5289 141.292 71.6179L141.394 71.8279L141.301 71.9659C140.884 72.5929 140.443 73.1659 140.002 73.7659C139.557 74.3988 139.157 75.0614 138.802 75.7489C139.072 75.1279 139.354 74.4859 139.648 73.8139C139.942 73.1419 140.314 72.3799 140.701 71.6329V71.9719L138.424 68.4169L137.587 67.0999L139.003 67.8049L142.783 69.6859L142.237 69.7039L145.783 67.4119L147.832 66.0859L146.71 68.2999C146.437 68.8339 146.191 69.3199 145.951 69.7849L144.778 72.0529L144.757 71.3389C145.555 72.6199 146.296 73.8259 146.968 74.9389L148.36 77.2399L145.996 75.9679C144.586 75.2089 143.341 74.5219 142.303 73.9249L142.963 73.9039C142.363 74.255 141.743 74.5716 141.106 74.8519C140.548 75.0919 140.095 75.2569 139.756 75.3829C139.081 75.6169 138.82 75.7249 138.91 75.6289Z" fill="#FFD635"/>
<path d="M148.735 30.6108L146.824 22.0848L141.715 20.8908L146.722 19.3248L147.916 14.2158L149.482 19.2228L154.591 20.4168L149.584 21.9828L148.735 30.6108Z" fill="white"/>
<path d="M148.744 30.7611C148.744 30.6351 148.834 29.6211 148.891 28.0191C148.921 27.2181 148.933 26.2821 148.954 25.2651C148.975 24.2481 149.017 23.1411 149.095 21.9351L149.116 21.6351L149.437 21.5241C150.961 20.9931 152.638 20.4231 154.405 19.8291L154.45 21.0291L149.323 19.9131L148.939 19.8291L148.813 19.4391L147.214 14.4411L148.63 14.3901C148.24 16.0461 147.85 17.6901 147.472 19.2921L147.424 19.4961L147.325 19.9011L146.938 20.0181C145.088 20.5821 143.412 21.0821 141.91 21.5181L141.865 20.2581C143.797 20.7471 145.465 21.1911 146.938 21.6051L147.259 21.6951L147.31 21.9951C147.61 23.6631 147.775 25.1331 147.97 26.6121C148.158 28.0682 148.42 29.5141 148.753 30.9441C148.417 29.6421 148.039 28.2831 147.634 26.8161C147.229 25.3491 146.836 23.7861 146.458 22.1871L146.74 22.4691L141.61 21.3651L139.951 21.0081L141.577 20.4651L146.551 18.8001L146.167 19.2141C146.554 17.4141 146.929 15.6741 147.271 14.0841L147.784 11.7051L148.546 14.0361C148.81 14.8431 149.053 15.5871 149.284 16.3011C149.584 17.2311 149.884 18.1431 150.166 19.0281L149.647 18.5451L154.747 19.7181L157.39 20.3181L154.798 21.1311C152.977 21.7011 151.297 22.2201 149.785 22.6731L150.28 22.0731C150.124 23.5191 149.935 24.8631 149.722 26.0091C149.509 27.1551 149.299 28.0911 149.149 28.8171C148.855 30.2421 148.753 30.9171 148.744 30.7611Z" fill="#FF4500"/>
<path d="M39.5472 119.825L40.0992 114.839L36.0882 111.833L41.0712 112.385L44.0802 108.371L43.5282 113.357L47.5422 116.366L42.5562 115.814L39.5472 119.825Z" fill="white"/>
<path d="M39.4931 119.966C39.5291 119.87 39.8801 119.366 40.3781 118.586C40.6241 118.19 40.9031 117.719 41.2061 117.209C41.5091 116.699 41.8451 116.156 42.2351 115.574L42.3521 115.4L42.6011 115.415C44.0591 115.502 45.7601 115.628 47.6051 115.781L47.2001 116.834C45.9041 115.934 44.5301 114.932 43.1231 113.912L42.8231 113.684L42.8591 113.279C43.0181 111.638 43.1891 109.958 43.3721 108.29L44.6891 108.812C43.8581 109.925 43.0271 111.026 42.2141 112.091L41.6621 112.811L41.4101 113.141L41.0141 113.093C39.1331 112.862 37.4921 112.649 36.0401 112.445L36.4781 111.341C38.0051 112.559 39.2621 113.606 40.3331 114.56L40.5041 114.713L40.4711 114.878C40.2971 115.778 40.0811 116.591 39.8861 117.458C39.6897 118.336 39.5454 119.224 39.4541 120.119C39.4901 119.321 39.5261 118.496 39.5651 117.629C39.6041 116.762 39.6821 115.787 39.7811 114.803L39.9161 115.103L35.8481 112.169L34.5791 111.251L36.1571 111.389L41.1551 111.824L40.6511 112.043C41.6771 110.609 42.6701 109.22 43.5731 107.963L44.9921 105.983L44.7581 108.431C44.6891 109.142 44.6291 109.787 44.5691 110.405C44.4641 111.443 44.3621 112.451 44.2691 113.423L43.9691 112.769C45.4121 113.834 46.7621 114.839 47.9891 115.769L50.1371 117.389L47.4701 117.089C45.5801 116.873 43.9031 116.666 42.4901 116.471L43.0901 116.207C42.5411 116.909 41.9981 117.536 41.5121 118.043C41.0261 118.55 40.6121 118.943 40.3121 119.243C39.7001 119.834 39.4451 120.086 39.4931 119.966Z" fill="#FF4500"/>
<path d="M75.2561 17.5039C76.8616 17.5039 78.1632 16.2024 78.1632 14.5969C78.1632 12.9914 76.8616 11.6899 75.2561 11.6899C73.6506 11.6899 72.3491 12.9914 72.3491 14.5969C72.3491 16.2024 73.6506 17.5039 75.2561 17.5039Z" fill="white"/>
<path d="M78.313 14.5999C78.163 14.5999 78.088 14.1919 77.767 13.6699C77.5886 13.3713 77.3614 13.1046 77.095 12.8809C76.7781 12.6139 76.4031 12.4248 76 12.3289C75.5522 12.2321 75.0866 12.2591 74.653 12.4069C74.2021 12.5644 73.8104 12.8566 73.531 13.2439C73.2511 13.6311 73.1004 14.0967 73.1004 14.5744C73.1004 15.0522 73.2511 15.5177 73.531 15.9049C73.7115 16.1596 73.9412 16.3756 74.2065 16.54C74.4719 16.7043 74.7676 16.8138 75.076 16.8619C75.5973 16.9421 76.1306 16.8702 76.612 16.6549C77.0452 16.4596 77.4317 16.1743 77.746 15.8179C78.0597 15.4581 78.3075 15.0458 78.478 14.5999C78.4744 15.0796 78.3681 15.5529 78.1663 15.988C77.9645 16.4232 77.6718 16.8101 77.308 17.1227C76.9442 17.4353 76.5178 17.6664 76.0572 17.8005C75.5967 17.9345 75.1127 17.9685 74.638 17.8999C74.1319 17.8249 73.6487 17.6385 73.2234 17.3542C72.798 17.0699 72.4409 16.6948 72.178 16.2559C71.9335 15.8433 71.7764 15.3849 71.7166 14.9091C71.6567 14.4332 71.6953 13.9502 71.83 13.4899C72.0371 12.8034 72.4445 12.1944 73 11.7409C73.4866 11.348 74.0687 11.0913 74.687 10.997C75.3052 10.9026 75.9374 10.9741 76.519 11.2039C76.9832 11.3875 77.4011 11.6713 77.743 12.0349C78.226 12.5364 78.5143 13.1938 78.556 13.8889C78.574 14.3629 78.439 14.5999 78.313 14.5999Z" fill="#7AF5E5"/>
<path d="M162.046 53.4501C163.443 53.4501 164.575 52.3178 164.575 50.9211C164.575 49.5244 163.443 48.3921 162.046 48.3921C160.649 48.3921 159.517 49.5244 159.517 50.9211C159.517 52.3178 160.649 53.4501 162.046 53.4501Z" fill="#FFF1B6"/>
<path d="M164.725 50.9212C164.578 50.9212 164.491 50.5671 164.203 50.1261C164.032 49.8484 163.808 49.6072 163.543 49.4167C163.279 49.2261 162.979 49.09 162.661 49.0162C162.279 48.9343 161.881 48.9653 161.516 49.1054C161.151 49.2455 160.835 49.4886 160.606 49.8052C160.378 50.1264 160.255 50.5106 160.255 50.9046C160.255 51.2987 160.378 51.6829 160.606 52.0041C160.909 52.4316 161.368 52.7217 161.884 52.8111C162.322 52.884 162.771 52.832 163.18 52.6611C163.952 52.3203 164.566 51.6982 164.896 50.9212C164.891 51.3454 164.796 51.7638 164.618 52.1488C164.44 52.5337 164.181 52.8764 163.861 53.1543C163.54 53.4321 163.164 53.6388 162.758 53.7607C162.351 53.8825 161.924 53.9168 161.503 53.8611C161.052 53.7977 160.621 53.6348 160.24 53.3842C159.86 53.1336 159.54 52.8016 159.304 52.4121C159.085 52.0438 158.943 51.6344 158.889 51.2091C158.834 50.7839 158.867 50.352 158.986 49.9402C159.171 49.3207 159.539 48.7717 160.042 48.3652C160.505 47.9916 161.063 47.7556 161.653 47.6841C162.175 47.6195 162.704 47.6887 163.192 47.8851C163.607 48.0507 163.98 48.3069 164.284 48.6351C164.716 49.0822 164.968 49.6729 164.992 50.2941C164.983 50.7171 164.851 50.9242 164.725 50.9212Z" fill="#FEB331"/>
<path d="M14.0321 102.056C15.7768 102.056 17.1911 100.642 17.1911 98.8973C17.1911 97.1526 15.7768 95.7383 14.0321 95.7383C12.2874 95.7383 10.8731 97.1526 10.8731 98.8973C10.8731 100.642 12.2874 102.056 14.0321 102.056Z" fill="#FFF1B6"/>
<path d="M17.3412 98.9003C17.1882 98.9003 17.1162 98.4593 16.7772 97.8862C16.5875 97.5546 16.3418 97.2583 16.0512 97.0103C15.7051 96.7138 15.294 96.5031 14.8512 96.3952C14.3539 96.281 13.8346 96.3069 13.3512 96.4702C12.8479 96.6431 12.4108 96.9681 12.1002 97.4002C11.7822 97.8357 11.6109 98.361 11.6112 98.9003C11.6214 99.4248 11.7921 99.9336 12.1002 100.358C12.3028 100.64 12.5598 100.879 12.8561 101.059C13.1524 101.24 13.4819 101.36 13.8252 101.411C14.4011 101.497 14.9894 101.411 15.5172 101.165C15.988 100.945 16.4055 100.626 16.7412 100.229C17.0707 99.8346 17.3277 99.3846 17.5002 98.9003C17.497 99.4173 17.383 99.9277 17.1658 100.397C16.9487 100.866 16.6335 101.284 16.2414 101.621C15.8494 101.958 15.3896 102.207 14.8931 102.352C14.3966 102.496 13.8749 102.532 13.3632 102.458C12.8201 102.377 12.3018 102.176 11.8458 101.87C11.3898 101.564 11.0074 101.16 10.7262 100.688C10.4661 100.245 10.2997 99.7538 10.2372 99.2439C10.1748 98.7341 10.2177 98.2168 10.3632 97.7242C10.5865 96.9859 11.0278 96.3323 11.6292 95.8492C12.1803 95.4041 12.8458 95.1234 13.5492 95.0392C14.1724 94.9616 14.8051 95.0432 15.3882 95.2762C15.8857 95.4699 16.3336 95.7722 16.6992 96.1612C17.2169 96.6973 17.5301 97.398 17.5842 98.1413C17.5992 98.6453 17.4642 98.9003 17.3412 98.9003Z" fill="#7AF5E5"/>
<path d="M95.374 108.374C97.1187 108.374 98.533 106.96 98.533 105.215C98.533 103.47 97.1187 102.056 95.374 102.056C93.6293 102.056 92.215 103.47 92.215 105.215C92.215 106.96 93.6293 108.374 95.374 108.374Z" fill="white"/>
<path d="M98.6829 105.215C98.5299 105.215 98.4579 104.774 98.1189 104.198C97.9298 103.867 97.6841 103.571 97.3929 103.325C97.0463 103.029 96.6354 102.817 96.1929 102.707C95.6955 102.592 95.1758 102.619 94.6929 102.785C94.1908 102.957 93.754 103.28 93.4419 103.709C93.1279 104.139 92.9587 104.658 92.9587 105.191C92.9587 105.724 93.1279 106.243 93.4419 106.673C93.6444 106.955 93.9013 107.194 94.1976 107.376C94.4939 107.557 94.8235 107.677 95.1669 107.729C95.7431 107.814 96.3314 107.727 96.8589 107.48C97.3291 107.26 97.7465 106.942 98.0829 106.547C98.4196 106.153 98.6837 105.702 98.8629 105.215C98.8593 105.732 98.7449 106.242 98.5276 106.711C98.3103 107.18 97.995 107.597 97.603 107.934C97.211 108.27 96.7514 108.519 96.2551 108.664C95.7589 108.808 95.2374 108.844 94.7259 108.77C94.1832 108.689 93.6653 108.488 93.2093 108.182C92.7534 107.877 92.3708 107.474 92.0889 107.003C91.8288 106.56 91.6624 106.069 91.5999 105.559C91.5375 105.049 91.5804 104.532 91.7259 104.039C91.9368 103.328 92.3505 102.694 92.9164 102.214C93.4823 101.735 94.1758 101.431 94.9119 101.339C95.5351 101.263 96.1674 101.345 96.7509 101.576C97.2496 101.775 97.6975 102.082 98.0619 102.476C98.5798 103.011 98.8931 103.711 98.9469 104.453C98.9409 104.963 98.7999 105.215 98.6829 105.215Z" fill="#7396FC"/>
<path d="M169.097 115.245C171.594 109.201 161.43 99.2653 146.394 93.0527C131.358 86.84 117.145 86.7033 114.648 92.7473C112.15 98.7913 122.315 108.727 137.35 114.94C152.386 121.152 166.599 121.289 169.097 115.245Z" fill="#14D8C3"/>
<path d="M159.515 111.286C161.133 107.369 154.546 100.93 144.803 96.9037C135.059 92.8777 125.848 92.7894 124.23 96.7064C122.611 100.623 129.198 107.063 138.942 111.088C148.685 115.114 157.896 115.203 159.515 111.286Z" fill="#7AF5E5"/>
<path d="M150.522 106.846C151.5 104.48 148.373 100.943 143.539 98.9453C138.705 96.9478 133.993 97.2464 133.016 99.6123C132.038 101.978 135.165 105.515 139.999 107.513C144.833 109.51 149.545 109.212 150.522 106.846Z" fill="white"/>
<path d="M140.167 104.819C140.236 104.684 141.049 105.023 142.585 105.368C143.51 105.579 144.456 105.68 145.405 105.668C145.974 105.662 146.537 105.553 147.067 105.347C147.319 105.245 147.543 105.086 147.721 104.882C147.883 104.677 147.976 104.426 147.988 104.165C147.981 103.868 147.911 103.576 147.784 103.307C147.631 102.997 147.44 102.707 147.217 102.443C146.71 101.852 146.125 101.331 145.48 100.895C143.99 99.904 142.357 99.1462 140.638 98.648C139.707 98.365 138.754 98.1643 137.788 98.048C136.812 97.9087 135.821 97.9198 134.848 98.081C134.408 98.1475 133.985 98.2961 133.6 98.519C133.444 98.6111 133.302 98.7264 133.18 98.861C133.067 98.9879 132.981 99.1357 132.925 99.296C132.809 99.6498 132.809 100.031 132.925 100.385C133.073 100.84 133.292 101.27 133.573 101.657C134.229 102.547 135.016 103.333 135.907 103.988C136.848 104.701 137.852 105.328 138.907 105.86C141.138 106.994 143.511 107.823 145.963 108.326C147.2 108.585 148.459 108.719 149.722 108.728C150.335 108.732 150.947 108.687 151.552 108.593C152.113 108.513 152.66 108.355 153.178 108.125C153.403 108.025 153.615 107.899 153.811 107.75C153.996 107.614 154.161 107.453 154.3 107.27C154.549 106.926 154.686 106.513 154.69 106.088C154.717 105.188 154.222 104.054 153.49 103.055C152.716 102.014 151.817 101.072 150.814 100.25C149.776 99.3893 148.672 98.61 147.514 97.919C146.337 97.2177 145.121 96.5847 143.872 96.023C142.616 95.449 141.336 94.938 140.032 94.49C137.463 93.5918 134.8 92.988 132.094 92.69C130.79 92.5505 129.475 92.5274 128.167 92.621C126.952 92.6935 125.758 92.9714 124.636 93.443C124.271 93.601 123.927 93.8025 123.61 94.043C123.466 94.1535 123.33 94.2738 123.202 94.403C123.076 94.537 122.958 94.6782 122.848 94.826C122.64 95.1098 122.473 95.4219 122.353 95.753C122.241 96.0874 122.177 96.4357 122.161 96.788C122.137 97.5544 122.269 98.3178 122.548 99.032C122.833 99.7991 123.203 100.532 123.652 101.216C124.102 101.916 124.603 102.58 125.152 103.205C125.688 103.83 126.257 104.425 126.856 104.99C128.017 106.089 129.254 107.105 130.558 108.029C132.985 109.739 135.556 111.236 138.241 112.502C140.644 113.66 143.114 114.672 145.639 115.532C150.421 117.158 154.879 118.112 159.085 118.382C160.119 118.453 161.157 118.467 162.193 118.424C163.2 118.392 164.202 118.286 165.193 118.106C166.179 117.932 167.144 117.655 168.073 117.281C169.021 116.903 169.899 116.368 170.668 115.697C170.01 116.375 169.251 116.946 168.418 117.392C167.595 117.84 166.726 118.196 165.826 118.454C164.927 118.723 164.01 118.923 163.081 119.054C162.616 119.135 162.148 119.168 161.68 119.222C161.212 119.276 160.741 119.3 160.267 119.309C156.484 119.453 152.638 118.943 148.834 118.079C144.985 117.187 141.23 115.933 137.617 114.335C133.921 112.756 130.433 110.729 127.231 108.299C126.436 107.672 125.665 107.018 124.924 106.322C124.18 105.623 123.479 104.88 122.824 104.096C122.156 103.304 121.561 102.454 121.045 101.555C120.502 100.626 120.098 99.6221 119.845 98.576C119.721 98.0284 119.655 97.4694 119.647 96.908C119.65 96.6199 119.671 96.3324 119.71 96.047L119.776 95.615L119.887 95.189C119.92 95.0455 119.965 94.905 120.022 94.769L120.184 94.358L120.385 93.968L120.487 93.773L120.607 93.593L120.85 93.23C120.937 93.116 121.03 93.008 121.12 92.897C121.306 92.6749 121.506 92.4655 121.72 92.27C122.558 91.5523 123.53 91.0078 124.579 90.668C125.553 90.3451 126.559 90.1279 127.579 90.02C129.506 89.8236 131.449 89.8518 133.369 90.104C135.205 90.3349 137.02 90.7009 138.802 91.199C142.162 92.1315 145.397 93.4683 148.435 95.18C149.645 95.8676 150.805 96.6395 151.906 97.49C153.016 98.3407 154.039 99.2994 154.96 100.352C155.945 101.446 156.703 102.725 157.189 104.114C157.452 104.901 157.554 105.732 157.489 106.559C157.391 107.442 157.057 108.282 156.523 108.992C156.385 109.157 156.259 109.322 156.103 109.478C155.952 109.633 155.791 109.777 155.62 109.91C155.3 110.162 154.955 110.38 154.591 110.561C153.923 110.879 153.218 111.11 152.491 111.248C151.187 111.488 149.858 111.551 148.537 111.437C146.114 111.231 143.731 110.693 141.454 109.838C140.372 109.441 139.314 108.984 138.283 108.47C137.265 107.969 136.286 107.393 135.352 106.748C134.423 106.112 133.559 105.387 132.772 104.582C131.936 103.748 131.266 102.764 130.795 101.681C130.532 101.052 130.403 100.374 130.417 99.692C130.425 99.3211 130.487 98.9533 130.6 98.6C130.724 98.2416 130.901 97.9039 131.125 97.598C131.231 97.451 131.347 97.3117 131.473 97.181C131.605 97.058 131.743 96.935 131.884 96.818C132.017 96.7053 132.159 96.6049 132.31 96.518C132.448 96.4291 132.592 96.3509 132.742 96.284C133.016 96.161 133.3 96.0606 133.591 95.984L134.008 95.87L134.41 95.801C135.404 95.6568 136.413 95.6457 137.41 95.768C138.312 95.8676 139.204 96.0422 140.077 96.29C140.893 96.5149 141.694 96.7895 142.477 97.112C143.217 97.4205 143.939 97.77 144.64 98.159C145.316 98.5278 145.962 98.9512 146.569 99.425C147.166 99.8732 147.711 100.386 148.195 100.955C148.705 101.528 149.098 102.196 149.353 102.92L149.443 103.22C149.467 103.322 149.482 103.433 149.5 103.538C149.518 103.645 149.53 103.753 149.536 103.862C149.536 103.976 149.536 104.09 149.536 104.204V104.372C149.536 104.429 149.515 104.489 149.503 104.546C149.476 104.66 149.449 104.777 149.419 104.888C149.339 105.105 149.239 105.314 149.119 105.512C148.994 105.692 148.852 105.859 148.696 106.013C148.545 106.155 148.378 106.279 148.198 106.382L147.946 106.523L147.7 106.622L147.454 106.715L147.223 106.772C146.676 106.904 146.111 106.955 145.549 106.922C144.689 106.879 143.839 106.723 143.02 106.457C142.442 106.271 141.88 106.038 141.34 105.761C140.482 105.284 140.107 104.93 140.167 104.819Z" fill="#7396FC"/>
<path style="mix-blend-mode:overlay" d="M141.664 122.342C151.642 122.342 159.73 114.254 159.73 104.276C159.73 94.2984 151.642 86.21 141.664 86.21C131.687 86.21 123.598 94.2984 123.598 104.276C123.598 114.254 131.687 122.342 141.664 122.342Z" fill="url(#paint0_radial_1939_2383)"/>
<path style="mix-blend-mode:overlay" d="M72.655 97.6703C93.0774 97.6703 109.633 81.1147 109.633 60.6924C109.633 40.27 93.0774 23.7144 72.655 23.7144C52.2326 23.7144 35.677 40.27 35.677 60.6924C35.677 81.1147 52.2326 97.6703 72.655 97.6703Z" fill="url(#paint1_radial_1939_2383)"/>
<path d="M109.273 14.5133C109.947 14.5133 110.494 13.9666 110.494 13.2923C110.494 12.6179 109.947 12.0713 109.273 12.0713C108.599 12.0713 108.052 12.6179 108.052 13.2923C108.052 13.9666 108.599 14.5133 109.273 14.5133Z" fill="#FF4500"/>
<path d="M124.498 69.4132C125.172 69.4132 125.719 68.8665 125.719 68.1922C125.719 67.5178 125.172 66.9712 124.498 66.9712C123.824 66.9712 123.277 67.5178 123.277 68.1922C123.277 68.8665 123.824 69.4132 124.498 69.4132Z" fill="#14D8C3"/>
<path d="M48.7029 10.067C49.3772 10.067 49.9239 9.52034 49.9239 8.846C49.9239 8.17166 49.3772 7.625 48.7029 7.625C48.0286 7.625 47.4819 8.17166 47.4819 8.846C47.4819 9.52034 48.0286 10.067 48.7029 10.067Z" fill="#14D8C3"/>
<path d="M70.618 111.578C71.2924 111.578 71.839 111.032 71.839 110.357C71.839 109.683 71.2924 109.136 70.618 109.136C69.9437 109.136 69.397 109.683 69.397 110.357C69.397 111.032 69.9437 111.578 70.618 111.578Z" fill="#FF4500"/>
<path d="M23.5152 114.638C24.1896 114.638 24.7362 114.092 24.7362 113.417C24.7362 112.743 24.1896 112.196 23.5152 112.196C22.8409 112.196 22.2942 112.743 22.2942 113.417C22.2942 114.092 22.8409 114.638 23.5152 114.638Z" fill="#FF4500"/>
<path d="M17.6832 110.57C18.3575 110.57 18.9042 110.023 18.9042 109.349C18.9042 108.675 18.3575 108.128 17.6832 108.128C17.0088 108.128 16.4622 108.675 16.4622 109.349C16.4622 110.023 17.0088 110.57 17.6832 110.57Z" fill="#FF4500"/>
<path d="M40.1022 16.1119C40.7765 16.1119 41.3232 15.5653 41.3232 14.8909C41.3232 14.2166 40.7765 13.6699 40.1022 13.6699C39.4279 13.6699 38.8812 14.2166 38.8812 14.8909C38.8812 15.5653 39.4279 16.1119 40.1022 16.1119Z" fill="#FF4500"/>
<defs>
<radialGradient id="paint0_radial_1939_2383" cx="0" cy="0" r="1" gradientUnits="userSpaceOnUse" gradientTransform="translate(141.664 104.276) scale(18.066 18.066)">
<stop stop-color="white"/>
<stop offset="0.96" stop-color="white" stop-opacity="0"/>
</radialGradient>
<radialGradient id="paint1_radial_1939_2383" cx="0" cy="0" r="1" gradientUnits="userSpaceOnUse" gradientTransform="translate(18439.6 15971.6) scale(9115.82 9115.82)">
<stop stop-color="white"/>
<stop offset="0.96" stop-color="white" stop-opacity="0"/>
</radialGradient>
</defs>
</svg>
