<?xml version="1.0" encoding="UTF-8"?>
<svg id="Layer_1" data-name="Layer 1" xmlns="http://www.w3.org/2000/svg" xmlns:xlink="http://www.w3.org/1999/xlink" viewBox="0 0 1199 216">
  <defs>
    <style>
      .cls-1 {
        fill: url(#radial-gradient);
      }

      .cls-1, .cls-2, .cls-3, .cls-4, .cls-5, .cls-6, .cls-7, .cls-8, .cls-9, .cls-10, .cls-11, .cls-12, .cls-13, .cls-14 {
        stroke-width: 0px;
      }

      .cls-2 {
        fill: url(#radial-gradient-2);
      }

      .cls-3 {
        fill: url(#radial-gradient-3);
      }

      .cls-4 {
        fill: url(#radial-gradient-4);
      }

      .cls-5 {
        fill: url(#radial-gradient-6);
      }

      .cls-6 {
        fill: url(#radial-gradient-8);
      }

      .cls-7 {
        fill: url(#radial-gradient-5);
      }

      .cls-8 {
        fill: url(#radial-gradient-7);
      }

      .cls-9 {
        fill: #842123;
      }

      .cls-10 {
        fill: #bbcfda;
      }

      .cls-11 {
        fill: #ff6101;
      }

      .cls-12 {
        fill: #fff;
      }

      .cls-13 {
        fill: #ff4500;
      }

      .cls-14 {
        fill: #ffc49c;
      }
    </style>
    <radialGradient id="radial-gradient" cx="370.49" cy="151.59" fx="370.49" fy="142.47" r="127.45" gradientTransform="translate(0 19.13) scale(1 .87)" gradientUnits="userSpaceOnUse">
      <stop offset="0" stop-color="#feffff"/>
      <stop offset=".4" stop-color="#feffff"/>
      <stop offset=".51" stop-color="#f9fcfc"/>
      <stop offset=".62" stop-color="#edf3f5"/>
      <stop offset=".7" stop-color="#dee9ec"/>
      <stop offset=".72" stop-color="#d8e4e8"/>
      <stop offset=".76" stop-color="#ccd8df"/>
      <stop offset=".8" stop-color="#c8d5dd"/>
      <stop offset=".83" stop-color="#ccd6de"/>
      <stop offset=".85" stop-color="#d8dbe2"/>
      <stop offset=".88" stop-color="#ede3e9"/>
      <stop offset=".9" stop-color="#ffebef"/>
    </radialGradient>
    <radialGradient id="radial-gradient-2" cx="64.38" fx="64.38" fy="142.47" r="127.45" xlink:href="#radial-gradient"/>
    <radialGradient id="radial-gradient-3" cx="220.14" cy="135.08" fx="220.14" fy="135.08" r="384.44" gradientTransform="translate(0 40.35) scale(1 .7)" xlink:href="#radial-gradient"/>
    <radialGradient id="radial-gradient-4" cx="134.7" cy="240.48" fx="134.7" fy="240.48" r="32.12" gradientTransform="translate(0 -110.04) scale(1 1.46)" gradientUnits="userSpaceOnUse">
      <stop offset="0" stop-color="#f60"/>
      <stop offset=".5" stop-color="#ff4500"/>
      <stop offset=".7" stop-color="#fc4301"/>
      <stop offset=".82" stop-color="#f43f07"/>
      <stop offset=".92" stop-color="#e53812"/>
      <stop offset="1" stop-color="#d4301f"/>
    </radialGradient>
    <radialGradient id="radial-gradient-5" cx="6191.5" cy="240.48" fx="6191.5" fy="240.48" r="32.12" gradientTransform="translate(6489.32 -110.04) rotate(-180) scale(1 -1.46)" xlink:href="#radial-gradient-4"/>
    <radialGradient id="radial-gradient-6" cx="215.93" cy="338.52" fx="215.93" fy="338.52" r="113.26" gradientTransform="translate(0 116.39) scale(1 .66)" gradientUnits="userSpaceOnUse">
      <stop offset="0" stop-color="#172e35"/>
      <stop offset=".29" stop-color="#0e1c21"/>
      <stop offset=".73" stop-color="#030708"/>
      <stop offset="1" stop-color="#000"/>
    </radialGradient>
    <radialGradient id="radial-gradient-7" cx="315.81" cy="3.47" fx="315.81" fy="3.47" r="99.42" gradientTransform="translate(0 .06) scale(1 .98)" xlink:href="#radial-gradient"/>
    <radialGradient id="radial-gradient-8" cx="274.38" cy="103.82" fx="274.38" fy="103.82" r="81.49" gradientUnits="userSpaceOnUse">
      <stop offset=".48" stop-color="#7a9299"/>
      <stop offset=".67" stop-color="#172e35"/>
      <stop offset=".75" stop-color="#000"/>
      <stop offset=".82" stop-color="#172e35"/>
    </radialGradient>
    <symbol id="Snoo" viewBox="0 0 432.21 377.72">
      <g>
        <circle class="cls-1" cx="369.16" cy="188.55" r="63.05"/>
        <circle class="cls-2" cx="63.05" cy="188.55" r="63.05"/>
        <ellipse class="cls-3" cx="216.26" cy="242.72" rx="180" ry="135"/>
        <g>
          <path class="cls-9" d="m163.04,229.59c-1.05,22.87-16.23,31.17-33.91,31.17s-31.15-11.71-30.09-34.58c1.05-22.87,16.23-38.01,33.91-38.01s31.15,18.54,30.09,41.42Z"/>
          <path class="cls-9" d="m333.48,226.18c1.05,22.87-12.42,34.58-30.09,34.58s-32.85-8.3-33.91-31.17c-1.05-22.87,12.42-41.42,30.09-41.42s32.85,15.13,33.91,38.01Z"/>
        </g>
        <path class="cls-4" d="m163.05,231.59c-.99,21.41-15.19,29.17-31.73,29.17s-29.15-11.63-28.16-33.03c.99-21.41,15.19-35.41,31.73-35.41s29.15,17.86,28.16,39.27Z"/>
        <path class="cls-7" d="m269.47,231.59c.99,21.41,15.19,29.17,31.73,29.17,16.54,0,29.15-11.63,28.16-33.03-.99-21.41-15.19-35.41-31.73-35.41s-29.15,17.86-28.16,39.27Z"/>
        <ellipse class="cls-14" cx="145.19" cy="212.04" rx="7" ry="7.64"/>
        <ellipse class="cls-14" cx="311.64" cy="212.04" rx="7" ry="7.64"/>
        <path class="cls-10" d="m216.26,276.02c-22.32,0-43.71,1.08-63.49,3.04-3.38.34-5.52,3.78-4.21,6.86,11.08,25.97,37.22,44.21,67.7,44.21s56.62-18.24,67.7-44.21c1.31-3.08-.83-6.52-4.21-6.86-19.78-1.97-41.17-3.04-63.49-3.04Z"/>
        <path class="cls-12" d="m216.26,280.98c-22.25,0-43.57,1.09-63.29,3.09-3.37.34-5.51,3.84-4.2,6.97,11.05,26.38,37.1,44.91,67.49,44.91s56.44-18.53,67.49-44.91c1.31-3.12-.83-6.62-4.2-6.97-19.72-2-41.04-3.09-63.29-3.09Z"/>
        <path class="cls-5" d="m216.26,278.4c-21.9,0-42.89,1.08-62.3,3.04-3.32.34-5.42,3.78-4.13,6.86,10.87,25.97,36.52,44.21,66.44,44.21s55.56-18.24,66.44-44.21c1.29-3.08-.81-6.52-4.13-6.86-19.41-1.97-40.4-3.04-62.31-3.04Z"/>
        <circle class="cls-8" cx="314.84" cy="44.68" r="44.68"/>
        <path class="cls-6" d="m215.62,113.41c-5.35,0-9.69-2.24-9.69-5.69,0-40.03,32.56-72.59,72.59-72.59,5.35,0,9.69,4.34,9.69,9.69s-4.34,9.69-9.69,9.69c-29.34,0-53.22,23.87-53.22,53.22,0,3.45-4.34,5.69-9.69,5.69Z"/>
        <path class="cls-11" d="m151.29,242.18c0,8.28-8.81,12-19.69,12s-19.69-3.72-19.69-12,8.81-15,19.69-15,19.69,6.72,19.69,15Z"/>
        <path class="cls-11" d="m320.6,242.18c0,8.28-8.81,12-19.69,12s-19.69-3.72-19.69-12,8.81-15,19.69-15,19.69,6.72,19.69,15Z"/>
      </g>
    </symbol>
  </defs>
  <path class="cls-13" d="m108,0h0C48.35,0,0,48.35,0,108H0C0,137.82,12.09,164.82,31.63,184.37l-20.57,20.57c-4.08,4.08-1.19,11.06,4.58,11.06h92.36s0,0,0,0c59.65,0,108-48.35,108-108h0C216,48.35,167.65,0,108,0Z"/>
  <use width="432.21" height="377.72" transform="translate(21.56 31.55) scale(.4)" xlink:href="#Snoo"/>
  <g>
    <path class="cls-13" d="m331.8,178.73v-12.19h-.38c-3.81,4.38-8.28,7.75-13.41,10.12-5.12,2.38-10.84,3.56-17.16,3.56-8.75,0-16.7-2.23-23.86-6.7-7.16-4.47-12.78-10.66-16.88-18.56-4.09-7.91-6.14-16.76-6.14-26.58s2.08-18.78,6.23-26.72c4.16-7.94,9.84-14.14,17.06-18.61,7.22-4.47,15.27-6.7,24.14-6.7,5.75,0,11,.95,15.75,2.86,4.75,1.91,8.94,4.64,12.56,8.2h.66v-49.69h29.62v141h-28.22Zm-9.09-29.44l8.53,7.5h.56l-.09-28.41c0-5.06-1-9.61-3-13.64-2-4.03-4.83-7.19-8.48-9.47-3.66-2.28-7.86-3.42-12.61-3.42s-9.11,1.14-12.89,3.42c-3.78,2.28-6.74,5.45-8.86,9.52-2.12,4.06-3.19,8.66-3.19,13.78s1.12,9.77,3.38,13.73c2.25,3.97,5.28,7.03,9.09,9.19,3.81,2.16,7.97,3.23,12.47,3.23,6.12,0,11.16-1.81,15.09-5.44Z"/>
    <path class="cls-13" d="m393.82,173.67c-8.09-4.37-14.33-10.48-18.7-18.33-4.38-7.84-6.56-16.76-6.56-26.77s2.26-19.51,6.8-27.42c4.53-7.91,10.59-14,18.19-18.28,7.59-4.28,15.92-6.42,24.98-6.42s16.48,1.99,23.58,5.95c7.09,3.97,12.67,9.55,16.73,16.73,4.06,7.19,6.09,15.38,6.09,24.56,0,4.94-.5,9.66-1.5,14.16h-67.88c1.81,5.81,5.03,10.39,9.66,13.73,4.62,3.34,10.12,5.02,16.5,5.02,4.5,0,9.05-.7,13.64-2.11s8.08-3.08,10.45-5.02l9.28,22.03c-3.88,2.62-8.73,4.73-14.58,6.33-5.84,1.59-12.02,2.39-18.52,2.39-10.69,0-20.08-2.19-28.17-6.56Zm43.92-54.38c0-4-.84-7.48-2.53-10.45-1.69-2.97-4.02-5.25-6.98-6.84-2.97-1.59-6.36-2.39-10.17-2.39-6,0-11,1.8-15,5.39-4,3.59-6.69,8.36-8.06,14.3h42.75Z"/>
    <path class="cls-13" d="m464.93,77.86h31.5l13.97,43.97,7.03,25.59h.75l6.94-25.59,14.16-43.97h31.31l-38.91,100.88h-28.03l-38.72-100.88Z"/>
    <path class="cls-13" d="m593.88,173.67c-8.09-4.37-14.33-10.48-18.7-18.33-4.38-7.84-6.56-16.76-6.56-26.77s2.26-19.51,6.8-27.42c4.53-7.91,10.59-14,18.19-18.28,7.59-4.28,15.92-6.42,24.98-6.42s16.48,1.99,23.58,5.95c7.09,3.97,12.67,9.55,16.73,16.73,4.06,7.19,6.09,15.38,6.09,24.56,0,4.94-.5,9.66-1.5,14.16h-67.88c1.81,5.81,5.03,10.39,9.66,13.73,4.62,3.34,10.12,5.02,16.5,5.02,4.5,0,9.05-.7,13.64-2.11s8.08-3.08,10.45-5.02l9.28,22.03c-3.88,2.62-8.73,4.73-14.58,6.33-5.84,1.59-12.02,2.39-18.52,2.39-10.69,0-20.08-2.19-28.17-6.56Zm43.92-54.38c0-4-.84-7.48-2.53-10.45-1.69-2.97-4.02-5.25-6.98-6.84-2.97-1.59-6.36-2.39-10.17-2.39-6,0-11,1.8-15,5.39-4,3.59-6.69,8.36-8.06,14.3h42.75Z"/>
    <path class="cls-13" d="m677.36,37.73h29.62v141h-29.62V37.73Z"/>
    <path class="cls-13" d="m743.69,173.29c-8.16-4.62-14.58-10.91-19.27-18.84-4.69-7.94-7.03-16.69-7.03-26.25s2.36-18.39,7.08-26.3c4.72-7.91,11.14-14.14,19.27-18.7,8.12-4.56,17.09-6.84,26.91-6.84s18.88,2.28,27,6.84c8.12,4.56,14.53,10.8,19.22,18.7,4.69,7.91,7.03,16.67,7.03,26.3s-2.34,18.31-7.03,26.25c-4.69,7.94-11.11,14.22-19.27,18.84-8.16,4.63-17.14,6.94-26.95,6.94s-18.8-2.31-26.95-6.94Zm39.61-21.94c3.81-2.37,6.83-5.61,9.05-9.7,2.22-4.09,3.33-8.61,3.33-13.55s-1.09-9.33-3.28-13.36c-2.19-4.03-5.2-7.22-9.05-9.56s-8.08-3.52-12.7-3.52-8.84,1.16-12.66,3.47c-3.81,2.31-6.81,5.48-9,9.52-2.19,4.03-3.28,8.48-3.28,13.36s1.09,9.47,3.28,13.59c2.19,4.12,5.19,7.38,9,9.75,3.81,2.38,8.03,3.56,12.66,3.56s8.84-1.19,12.66-3.56Z"/>
    <path class="cls-13" d="m834.11,77.86h28.22v11.81h.38c3.75-4.31,8.19-7.61,13.31-9.89,5.12-2.28,10.84-3.42,17.16-3.42,8.87,0,16.92,2.24,24.14,6.7,7.22,4.47,12.91,10.67,17.06,18.61,4.16,7.94,6.23,16.84,6.23,26.72s-2.05,18.67-6.14,26.58c-4.09,7.91-9.72,14.09-16.88,18.56-7.16,4.47-15.11,6.7-23.86,6.7-5.94,0-11.38-1.06-16.31-3.19-4.94-2.12-9.28-5.16-13.03-9.09h-.66v46.41h-29.62V77.86Zm65.34,73.64c3.81-2.16,6.84-5.22,9.09-9.19,2.25-3.97,3.38-8.55,3.38-13.73s-1.06-9.72-3.19-13.78c-2.12-4.06-5.08-7.23-8.86-9.52-3.78-2.28-8.08-3.42-12.89-3.42s-8.95,1.14-12.61,3.42c-3.66,2.28-6.48,5.44-8.48,9.47-2,4.03-3,8.58-3,13.64l-.09,28.41h.56l8.53-7.5c3.94,3.63,8.97,5.44,15.09,5.44,4.5,0,8.66-1.08,12.47-3.23Z"/>
    <path class="cls-13" d="m971.13,173.67c-8.09-4.37-14.33-10.48-18.7-18.33-4.38-7.84-6.56-16.76-6.56-26.77s2.26-19.51,6.8-27.42c4.53-7.91,10.59-14,18.19-18.28,7.59-4.28,15.92-6.42,24.98-6.42s16.48,1.99,23.58,5.95c7.09,3.97,12.67,9.55,16.73,16.73,4.06,7.19,6.09,15.38,6.09,24.56,0,4.94-.5,9.66-1.5,14.16h-67.88c1.81,5.81,5.03,10.39,9.66,13.73,4.62,3.34,10.12,5.02,16.5,5.02,4.5,0,9.05-.7,13.64-2.11s8.08-3.08,10.45-5.02l9.28,22.03c-3.88,2.62-8.73,4.73-14.58,6.33-5.84,1.59-12.02,2.39-18.52,2.39-10.69,0-20.08-2.19-28.17-6.56Zm43.92-54.38c0-4-.84-7.48-2.53-10.45-1.69-2.97-4.02-5.25-6.98-6.84-2.97-1.59-6.36-2.39-10.17-2.39-6,0-11,1.8-15,5.39-4,3.59-6.69,8.36-8.06,14.3h42.75Z"/>
    <path class="cls-13" d="m1052.74,77.86h28.78v14.16h.47c3.38-4.5,7.62-8.23,12.75-11.2,5.12-2.97,11.03-4.45,17.72-4.45,2.5,0,4.81.19,6.94.56,2.12.38,3.66.84,4.59,1.41l-11.81,28.41c-.81-.38-2.05-.73-3.7-1.08-1.66-.34-3.39-.52-5.2-.52-3.31,0-6.58.81-9.8,2.44-3.22,1.63-5.88,4.08-7.97,7.36-2.09,3.28-3.14,7.27-3.14,11.95v51.84h-29.62v-100.88Z"/>
    <path class="cls-13" d="m1143.91,177.14c-5.53-2.06-10.39-5-14.58-8.81-4.19-3.81-7.28-8.22-9.28-13.22l23.25-10.22c1.75,3.31,4.22,6.19,7.41,8.62s6.72,3.66,10.59,3.66c2.12,0,4.05-.39,5.77-1.17,1.72-.78,3.08-1.81,4.08-3.09,1-1.28,1.5-2.61,1.5-3.98,0-2-.91-3.72-2.72-5.16-1.81-1.44-3.95-2.59-6.42-3.47-2.47-.87-5.55-1.81-9.23-2.81l-3.19-.94c-8.06-2.44-14.67-6.11-19.83-11.02-5.16-4.91-7.73-11.26-7.73-19.08,0-5.81,1.53-11,4.59-15.56,3.06-4.56,7.3-8.12,12.7-10.69,5.41-2.56,11.48-3.84,18.23-3.84,5.69,0,11.05.89,16.08,2.67,5.03,1.78,9.41,4.3,13.12,7.55,3.72,3.25,6.52,7.03,8.39,11.34l-22.78,9.75c-1.56-2.44-3.47-4.48-5.72-6.14-2.25-1.66-4.91-2.48-7.97-2.48s-5.48.77-7.45,2.3c-1.97,1.53-2.95,3.42-2.95,5.67,0,1.88.76,3.49,2.3,4.83,1.53,1.34,3.41,2.44,5.62,3.28,2.22.84,5.3,1.86,9.23,3.05.88.25,1.75.5,2.62.75,4.81,1.38,9.3,3.06,13.45,5.06,4.16,2,7.86,5,11.11,9,3.25,4,4.88,9.06,4.88,15.19s-1.7,11.62-5.11,16.5c-3.41,4.88-8,8.69-13.78,11.44-5.78,2.75-12.08,4.12-18.89,4.12-6,0-11.77-1.03-17.3-3.09Z"/>
  </g>
</svg>