<svg width="174" height="134" viewBox="0 0 174 134" fill="none" xmlns="http://www.w3.org/2000/svg">
<path d="M53.304 19.6661C67.854 14.9291 84.504 17.5661 98.025 10.4111C102.675 7.9451 106.872 4.3661 111.225 1.3301C95.202 -1.9519 78.66 5.8421 62.796 8.0921C48.816 10.0421 33.696 8.0921 21.36 14.9501C12.483 19.9511 6.94505 28.0391 3.87305 37.2551C10.773 36.4091 17.673 35.5931 24.195 33.3311C34.338 29.8211 43.098 22.9901 53.304 19.6661Z" fill="#C7E8F9"/>
<path d="M154.407 18.079C148.644 15.361 142.146 14.656 136.107 12.679C128.7 21.502 118.122 27.715 106.734 29.632C93.6122 31.846 79.3142 28.783 67.4342 34.792C57.0272 40.063 49.8302 51.76 38.2862 53.452C34.8302 53.959 31.3112 53.476 27.8192 53.479C17.8652 53.479 8.07616 57.754 1.01416 64.732C1.11916 65.998 1.25416 67.255 1.41316 68.491C3.81316 84.412 6.51316 102.412 17.6132 114.754C24.7772 121.669 34.0532 120.922 43.1672 120.511C54.5659 119.989 65.9589 121.659 76.7282 125.431C88.2692 130.456 99.1232 131.473 111.714 128.848C126.834 125.92 145.437 123.34 155.466 110.905C169.65 83.815 188.436 37.411 154.407 18.079Z" fill="#C7E8F9"/>
<path d="M27.8247 53.479C31.3167 53.479 34.8357 53.959 38.2917 53.452C49.8357 51.76 57.0327 40.063 67.4397 34.792C79.3137 28.792 93.6117 31.846 106.74 29.632C118.14 27.715 128.694 21.502 136.107 12.667C135.225 12.367 134.349 12.067 133.488 11.701C127.734 9.30104 122.751 5.31104 116.964 3.00104C115.105 2.28117 113.189 1.71918 111.237 1.32104C106.878 4.35704 102.681 7.92104 98.0367 10.402C84.5067 17.578 67.8537 14.929 53.3037 19.666C43.1037 22.99 34.3377 29.821 24.2037 33.331C17.6637 35.593 10.7637 36.4 3.87266 37.255C0.968662 45.955 0.272662 55.663 1.01966 64.732C8.08166 57.754 17.8707 53.479 27.8247 53.479Z" fill="#DEF9FF"/>
<path d="M139.845 53.614L152.022 47.491L155.868 52.99L160.128 49.813L160.389 49.816L160.017 42.121L153.105 40.033L141.198 40.201L135.051 41.482L135.186 48.484L139.845 53.614Z" fill="#789FA0"/>
<path d="M139.872 53.47C139.857 53.554 139.401 53.149 138.555 52.336C137.709 51.523 136.455 50.29 134.937 48.709L134.856 48.628V48.49C134.751 46.48 134.646 44.11 134.556 41.491L134.538 41.077L134.961 40.981L141.087 39.598H141.135H141.204C144.978 39.493 149.025 39.4 153.111 39.325H153.219L153.33 39.358L160.245 41.431L160.743 41.581L160.767 42.1C160.836 43.654 160.905 45.193 160.974 46.705C161.019 47.782 161.064 48.805 161.106 49.798L161.136 50.554L160.389 50.533H160.131L160.563 50.395L156.255 53.5L155.7 53.908L155.331 53.362C153.921 51.289 152.685 49.444 151.593 47.785L152.244 47.95C147 50.425 143.205 52 139.902 53.305L151.851 47.149L152.151 47.002L152.346 47.272C153.633 49.072 154.947 50.902 156.246 52.726L155.595 52.621L159.813 49.387L159.951 49.279H160.398L159.855 49.84C159.693 47.188 159.537 44.599 159.387 42.148L159.834 42.721L153.63 40.921L152.904 40.708L153.117 40.738C148.833 40.825 144.831 40.8939 141.207 40.9449L141.348 40.93L135.198 42.193L135.768 41.4789C135.801 44.149 135.819 46.504 135.813 48.481L135.651 48.07C137.013 49.639 138.051 50.932 138.777 51.868C139.503 52.804 139.896 53.356 139.872 53.47Z" fill="black"/>
<path d="M138.633 47.3109L143.448 44.335L152.04 44.2L157.026 47.3109L157.764 99.79L139.17 108.769L138.633 47.3109Z" fill="#DEF9FF"/>
<path d="M138.501 47.2391C138.546 47.2631 138.594 47.7461 138.642 48.6341C138.69 49.5221 138.747 50.8121 138.804 52.4531C138.915 55.7351 139.035 60.4241 139.164 66.1001C139.416 77.4581 139.683 92.7521 139.875 108.763L138.864 108.136L157.446 99.1361L157.029 99.808C156.981 96.0611 156.933 92.3531 156.888 88.708C156.678 70.636 156.588 57.6161 156.657 47.3081L156.831 47.6081L151.917 44.3831L152.043 44.4191C148.935 44.3831 146.133 44.3321 143.445 44.2601H143.427C141.645 45.2711 140.004 46.1921 138.369 47.1341C139.869 46.1891 141.39 45.2231 143.295 44.0441L143.367 43.9991H143.454L152.046 43.8521H152.142L152.223 43.9031L157.2 47.0171L157.359 47.1161V47.3051C157.713 64.6001 158.1 83.854 158.4 99.7811V100.186L158.031 100.366L146.895 105.799L139.467 109.399L138.468 109.9V108.772C138.264 90.5681 138.168 75.0881 138.186 64.2251C138.186 58.7921 138.219 54.5111 138.273 51.6041C138.327 48.6971 138.393 47.1731 138.501 47.2391Z" fill="black"/>
<path d="M149.64 56.8989H145.623V49.8129C145.624 49.2803 145.836 48.7699 146.213 48.3936C146.59 48.0173 147.1 47.8059 147.633 47.8059C148.165 47.8067 148.675 48.0184 149.051 48.3946C149.428 48.7708 149.639 49.2809 149.64 49.8129V56.8989Z" fill="#789FA0"/>
<path d="M149.745 57.0071C149.652 56.9111 149.562 56.3051 149.445 55.3841C149.328 54.4631 149.217 53.2361 149.118 51.8681C149.094 51.5291 149.073 51.1781 149.049 50.8151C149.049 50.6381 149.031 50.4551 149.022 50.2721C149.022 50.1791 149.022 50.0861 149.022 49.9931C149.022 49.9001 149.022 49.7981 149.007 49.7411C148.979 49.4653 148.867 49.2047 148.687 48.9941C148.507 48.7834 148.267 48.6327 147.999 48.5621C147.732 48.4939 147.451 48.5107 147.195 48.6102C146.938 48.7097 146.719 48.8869 146.568 49.1171C146.495 49.2309 146.441 49.3554 146.406 49.4861C146.385 49.5491 146.382 49.6181 146.367 49.6811C146.352 49.7441 146.367 49.8041 146.367 49.9241C146.367 50.3471 146.367 50.7641 146.367 51.1751C146.328 53.5751 146.259 55.3991 146.112 56.8991L145.644 56.4341C147.108 56.5901 148.392 56.9021 149.883 57.1241C148.611 57.1631 147.204 57.2291 145.644 57.2651H145.29V56.8901C145.245 55.2911 145.179 53.6111 145.116 51.9941C145.101 51.5891 145.083 51.1871 145.068 50.7941C145.068 50.5961 145.068 50.4011 145.047 50.1941C145.026 49.9871 145.026 49.8371 145.047 49.5611C145.08 49.0656 145.251 48.5894 145.542 48.1871C145.82 47.803 146.194 47.4996 146.628 47.3081C146.875 47.2025 147.135 47.1328 147.402 47.1011C147.665 47.073 147.93 47.0811 148.191 47.1251C148.69 47.2169 149.153 47.4466 149.528 47.788C149.902 48.1295 150.174 48.5691 150.312 49.0571C150.376 49.2857 150.412 49.5216 150.417 49.7591V50.3141C150.417 51.7511 150.36 53.0291 150.288 54.0581C150.096 56.1401 149.928 57.1991 149.745 57.0071Z" fill="black"/>
<path d="M141.198 41.2599L153.243 41.0919L160.233 45.3489L160.275 46.2399L160.536 46.2459L160.161 36.2409L158.178 35.0439V39.5919L155.67 38.1669V33.5349L153.513 32.2329L149.916 32.2839V36.9699H145.242V32.3499L141.534 32.4009L139.602 33.5799V38.3379L136.671 39.8259L136.521 35.8209L135.069 36.3369L135.186 44.9049L141.198 41.2599Z" fill="#DEF9FF"/>
<path d="M141.12 41.134C141.195 41.263 139.02 42.751 135.324 45.133L134.937 45.385L134.916 44.908C134.817 42.526 134.715 39.622 134.616 36.343V36.025L134.916 35.911L136.362 35.368L136.962 35.143L136.995 35.803C137.061 37.091 137.13 38.426 137.202 39.808L136.422 39.349L139.335 37.822L139.017 38.338C139.003 36.79 138.987 35.204 138.969 33.58V33.232L139.269 33.043L141.192 31.843L141.339 31.753H141.519L145.227 31.672H145.908V32.362C145.908 33.886 145.918 35.426 145.938 36.982L145.233 36.28L149.907 36.259L149.184 36.982C149.184 35.422 149.184 33.86 149.184 32.296V31.576H149.907L153.507 31.522H153.717L153.897 31.63L156.054 32.932L156.411 33.148V33.562C156.411 35.119 156.411 36.667 156.411 38.194L156.045 37.564L156.882 38.044L158.547 38.998L157.482 39.619C157.482 38.031 157.49 36.516 157.506 35.074V33.847L158.544 34.483L160.521 35.683L160.836 35.875V36.235C160.947 39.997 161.034 43.3 161.094 46.243V46.843L160.512 46.822H160.251L159.726 46.801L159.708 46.294C159.708 45.967 159.69 45.694 159.681 45.394L159.939 45.829C157.326 44.176 155.088 42.73 153.057 41.395L153.234 41.443C148.587 41.356 144.801 41.2 141.183 40.966L153.225 40.771H153.321L153.405 40.822L160.425 45.022L160.599 45.127V45.337C160.617 45.637 160.632 45.937 160.65 46.237L160.26 45.859H160.521L160.11 46.276C159.957 42.961 159.81 39.592 159.648 36.274L159.885 36.676L157.911 35.5L158.688 35.062C158.688 36.616 158.718 38.158 158.733 39.607V40.555L157.893 40.09L155.373 38.689L155.073 38.527V38.182C155.058 36.58 155.043 35.011 155.031 33.55L155.331 34.084L153.18 32.8L153.522 32.893L149.922 32.968L150.582 32.299C150.582 33.55 150.582 34.753 150.603 35.92C150.603 36.277 150.603 36.634 150.603 36.985V37.678H149.907L145.233 37.696H144.522V36.97C144.522 35.396 144.522 33.856 144.522 32.35L145.26 33.079L141.552 33.136L141.924 33.028L139.992 34.207L140.343 33.58C140.343 35.218 140.343 36.808 140.343 38.338V38.8L139.944 39.001L137.007 40.501L135.993 41.011L135.957 39.88C135.912 38.488 135.867 37.147 135.828 35.875L136.767 36.511L135.3 37L135.759 36.337C135.78 39.676 135.783 42.559 135.759 44.905L134.874 44.416C138.786 42.154 141.021 40.963 141.12 41.134Z" fill="black"/>
<path d="M22.89 70.6361L34.791 64.6481L38.55 70.0241L42.714 66.9161L42.966 66.9221L42.603 59.4011L35.85 57.3611L24.213 57.5231L18.207 58.7771L18.336 65.6201L22.89 70.6361Z" fill="#789FA0"/>
<path d="M22.92 70.4859C22.902 70.5729 22.455 70.1859 21.627 69.3849C20.799 68.5839 19.587 67.3899 18.087 65.8449L18.009 65.7639V65.6259C17.907 63.6609 17.805 61.3449 17.709 58.7859V58.3719L18.132 58.2759L24.132 56.9199H24.18H24.249C27.936 56.8179 31.89 56.7249 35.886 56.6499H35.994L36.105 56.6829L42.861 58.7079L43.359 58.8579L43.383 59.3769C43.452 60.8949 43.521 62.4009 43.587 63.8769C43.632 64.9299 43.674 65.9439 43.713 66.9009L43.746 67.6569L42.999 67.6359H42.744L43.179 67.4949L38.979 70.5609L38.4 70.9419L38.028 70.3959C36.654 68.3679 35.445 66.5649 34.38 64.9419L35.031 65.1069C29.886 67.5249 26.181 69.0429 22.959 70.3239L34.62 64.2999L34.92 64.1499L35.115 64.4229L38.937 69.7509L38.283 69.6459L42.405 66.4839L42.546 66.3759H42.987L42.444 66.9369C42.285 64.3449 42.144 61.8159 41.985 59.4189L42.432 59.9919L36.366 58.2219L35.658 58.0149L35.868 58.0449C31.686 58.1289 27.768 58.1979 24.231 58.2489L24.372 58.2309L18.372 59.4669L18.945 58.7529C18.975 61.3629 18.99 63.6639 18.987 65.5959L18.801 65.1999C20.13 66.7329 21.144 67.9959 21.852 68.9109C22.56 69.8259 22.941 70.3749 22.92 70.4859Z" fill="black"/>
<path d="M21.7051 64.4741L26.4091 61.5671L34.8091 61.4351L39.6811 64.4741L39.9451 110.422L22.2301 110.026L21.7051 64.4741Z" fill="#DEF9FF"/>
<path d="M21.5732 64.4021C21.6572 64.4501 21.7502 65.8121 21.8552 68.2031C21.9602 70.5941 22.0772 74.0171 22.2002 78.1871C22.4432 86.5301 22.7072 97.8581 22.9082 110.02L22.2452 109.348L39.9452 109.687L39.1952 110.425C39.1712 105.568 39.1502 100.738 39.1262 96.0551C39.0872 82.6661 39.1082 72.6071 39.2312 64.4741L39.4352 64.8431C37.6982 63.7121 36.1352 62.6801 34.6352 61.6871L34.7972 61.7321C31.7822 61.6931 29.0162 61.6301 26.3972 61.5461L21.4262 64.3181C22.8842 63.3941 24.3842 62.4461 26.2262 61.2971L26.3012 61.2491H26.4002L34.8002 61.0991H34.8962L34.9802 61.1531L39.8672 64.1681L40.0352 64.2731V64.4711C40.2272 79.8461 40.4402 96.8081 40.6082 110.416V111.1H39.9182L34.7252 111.007L22.2032 110.764H21.5012V110.059C21.3182 96.3971 21.2402 84.9011 21.2552 76.8791C21.2552 72.8681 21.2912 69.7241 21.3422 67.5971C21.3932 65.4701 21.4712 64.3421 21.5732 64.4021Z" fill="black"/>
<path d="M32.4631 73.846H28.5391V66.919C28.5391 66.3987 28.7458 65.8996 29.1137 65.5317C29.4817 65.1637 29.9807 64.957 30.5011 64.957C31.0214 64.957 31.5205 65.1637 31.8884 65.5317C32.2564 65.8996 32.4631 66.3987 32.4631 66.919V73.846Z" fill="#789FA0"/>
<path d="M32.5682 73.9509C32.4752 73.8549 32.3852 73.2579 32.2682 72.3579C32.1512 71.4579 32.0402 70.2579 31.9412 68.9259C31.9172 68.5929 31.8962 68.2509 31.8722 67.8969L31.8452 67.3659C31.8452 67.2759 31.8452 67.1859 31.8452 67.0929C31.8452 66.9999 31.8452 66.9039 31.8452 66.8469C31.8174 66.5808 31.7092 66.3294 31.535 66.1263C31.3608 65.9232 31.1289 65.778 30.8702 65.7099C30.7102 65.6679 30.5435 65.6579 30.3797 65.6804C30.2158 65.7029 30.0581 65.7575 29.9154 65.8411C29.7727 65.9248 29.6479 66.0357 29.5482 66.1676C29.4484 66.2995 29.3757 66.4498 29.3342 66.6099C29.3162 66.6729 29.3102 66.7389 29.2982 66.8019C29.2862 66.8649 29.2982 66.9159 29.2982 67.0359C29.2982 67.4499 29.2982 67.8579 29.2982 68.2599C29.2622 70.5969 29.1902 72.3879 29.0432 73.8519L28.5782 73.3869C30.0032 73.5429 31.2572 73.8549 32.7242 74.0769C31.4792 74.1159 30.1022 74.1819 28.5782 74.2179H28.2212V73.8429C28.1762 72.2799 28.1072 70.6389 28.0442 69.0579C28.0442 68.6619 28.0142 68.2689 27.9992 67.8819C27.9992 67.6899 27.9992 67.4979 27.9782 67.3089C27.9572 67.1199 27.9572 66.9609 27.9782 66.6879C28.0076 66.2007 28.1763 65.7321 28.4642 65.3379C28.7353 64.9596 29.1031 64.6612 29.5292 64.4739C30.0039 64.2662 30.5291 64.2021 31.0398 64.2895C31.5506 64.3769 32.0246 64.6121 32.4032 64.9659C32.762 65.2975 33.0217 65.7223 33.1532 66.1929C33.2181 66.4173 33.2524 66.6494 33.2552 66.8829V67.4259C33.2552 68.8329 33.1982 70.0839 33.1262 71.0919C32.9192 73.1109 32.7512 74.1459 32.5682 73.9509Z" fill="black"/>
<path d="M42.7467 53.656L40.8057 52.486V56.929L38.3547 55.537V51.01L36.2457 49.738L32.7327 49.789V54.367H28.1667V49.852L24.5427 49.903L22.6527 51.052V55.702L20.2017 57.097V52.543L18.2217 53.749L18.3357 62.122L24.2127 58.561L35.9817 58.396L42.8127 62.557L42.8547 63.427L43.1097 63.43L42.7467 53.656Z" fill="#DEF9FF"/>
<path d="M42.618 53.7309C42.693 53.6859 42.804 54.5769 42.948 56.2479C43.092 57.9189 43.269 60.3639 43.452 63.4179L43.473 63.7719H42.534L42.51 63.4389C42.489 63.1539 42.468 62.8659 42.447 62.5719L42.624 62.8719L35.724 58.8339L35.997 58.9089L24.228 59.2089L24.552 59.1159L18.702 62.7159L17.67 63.3519L17.649 62.1339C17.601 59.3739 17.55 56.5689 17.502 53.7609V53.3499L17.859 53.1309L19.836 51.9309L20.949 51.2499V52.5549C20.949 54.0789 20.949 55.5969 20.949 57.1089L19.848 56.4669L22.299 55.0779L21.93 55.7139C21.93 54.2139 21.93 52.6989 21.93 51.2139V50.6529L22.275 50.4459L24.171 49.3059L24.339 49.2039H24.528L28.152 49.1709H28.86V49.8699C28.86 51.4539 28.849 52.9539 28.827 54.3699L28.17 53.7099L32.736 53.7579L32.136 54.3579C32.16 52.7289 32.184 51.2109 32.205 49.7799V49.2339H32.73L36.246 49.2579H36.39L36.495 49.3239L38.568 50.6499L38.769 50.7789V50.9949C38.721 52.6419 38.67 54.1209 38.61 55.5219L38.487 55.3119C39.387 55.8609 40.137 56.3439 40.887 56.8119L40.716 56.9109C40.794 55.2969 40.881 53.8629 40.98 52.4679L40.752 52.5969C41.406 53.0529 41.952 53.4369 42.498 53.7969C41.931 53.4789 41.37 53.1579 40.668 52.7349L41.142 52.4679C41.142 53.8359 41.142 55.2339 41.142 56.9109V57.4569L40.665 57.1869L38.211 55.8039L38.046 55.7109V55.5189C38.046 54.0819 38.046 52.6179 38.022 50.9919L38.193 51.2919L36.075 50.0349L36.27 50.0859L32.754 50.1609L33.141 49.7709C33.153 51.2809 33.166 52.8069 33.18 54.3489V54.7749H32.748L28.182 54.8169H27.714V54.3399C27.714 52.8099 27.684 51.2829 27.669 49.8399L28.194 50.3559L24.57 50.4429L24.849 50.3619L22.971 51.5289L23.247 51.0399C23.247 52.6479 23.277 54.2229 23.289 55.6899V56.0439L22.989 56.2269C22.146 56.7159 21.318 57.1929 20.553 57.6399L19.605 58.1859V57.0849C19.593 55.4969 19.582 53.9789 19.572 52.5309L20.592 53.1069L18.618 54.3219L18.948 53.7219C18.948 54.0609 18.948 54.3729 18.966 54.6819C19.01 57.2259 19.053 59.6969 19.095 62.0949L18.003 61.4949L23.871 57.9219L24.042 57.8169H24.243L36.012 57.6699H36.222L36.396 57.7749C38.925 59.3319 41.196 60.7479 43.191 61.9929L43.491 62.1789V62.5149C43.491 62.8149 43.509 63.1149 43.521 63.3849L42.897 62.7849H43.152L42.504 63.4419C42.438 60.4419 42.432 58.0419 42.459 56.3769C42.486 54.7119 42.516 53.7999 42.618 53.7309Z" fill="black"/>
<path d="M87.411 50.521L83.148 52.645V57.094L77.955 59.653V55.234L73.029 57.691V61.873L67.833 64.432V60.277L61.92 62.983V67.699L56.727 70.258V65.572L51.798 68.026V72.475L46.605 75.037V70.615L41.676 73.072V77.254L36.483 79.813V75.658L31.842 77.971L31.458 114.802L54.756 111.268L86.106 95.887L87.411 95.14V50.521Z" fill="#DEF9FF"/>
<path d="M87.3329 50.6499C87.3756 50.9005 87.3917 51.1549 87.3809 51.4089C87.3809 51.9459 87.4109 52.7379 87.4319 53.7699C87.4619 55.8699 87.5069 58.9449 87.5639 62.8299C87.6689 70.6299 87.8309 81.8559 87.9089 95.1399V95.4249L87.6569 95.5719L86.7569 96.0969C86.6039 96.1809 86.4569 96.2739 86.3009 96.3549L85.8329 96.5889L83.9429 97.5279L80.0849 99.4479L72.0659 103.432L55.0499 111.859L54.9599 111.904L54.8579 111.919L31.5659 115.519L30.7349 115.648V114.805C30.8579 102.505 30.9839 90.0459 31.1069 77.9739V77.5269L31.5089 77.3289L36.1499 75.0189L37.1999 74.4999V75.6669C37.1999 76.4249 37.1999 77.1809 37.1999 77.9349C37.1999 78.5919 37.1999 79.2459 37.1999 79.8219L36.1619 79.1799L41.3609 76.6299L40.9679 77.2629C40.9679 75.7629 40.9679 74.4099 40.9679 73.0809V72.6459L41.3519 72.4539L46.2989 69.9999L47.2949 69.5079V70.6149C47.2949 72.1149 47.2949 73.5969 47.2949 75.0339L46.3259 74.4339L51.5279 71.8929L51.1649 72.4779C51.1649 70.9179 51.1649 69.4539 51.1829 68.0289V67.6299L51.5339 67.4589L56.4719 65.0259L57.3569 64.5909V65.5719C57.3569 67.2519 57.3389 68.7759 57.3299 70.2579L56.4899 69.7359L61.7009 67.2099L61.4009 67.6989C61.4009 65.9709 61.4249 64.4559 61.4369 62.9829V62.6529L61.7369 62.5239L67.6769 59.8749L68.3129 59.5899V60.2769C68.2949 61.8309 68.2799 63.1479 68.2649 64.4319L67.6919 64.0749L72.8999 61.5999L72.7199 61.8999C72.7439 60.3279 72.7649 59.0079 72.7829 57.7179V57.5499L72.9239 57.4839L77.8949 55.1139L78.1379 54.9969V55.2609C78.1049 56.9169 78.0779 58.3119 78.0509 59.6799L77.9399 59.6139L83.1929 57.1749H83.2229V57.0999C83.2649 55.4649 83.3009 54.0489 83.3399 52.6509L83.2409 52.8069C84.7619 52.1079 86.0039 51.4779 87.2609 50.7939C86.0279 51.4869 84.8609 52.1619 83.3039 52.9329L83.4779 52.6509V57.2949L83.3039 57.3819L78.1109 59.9439L77.6549 60.1689V59.6589C77.6549 58.2759 77.6549 56.8839 77.6549 55.2399L78.1199 55.5399L73.1759 57.9999L73.3589 57.6999C73.3589 59.0289 73.3589 60.3699 73.3589 61.8819V62.0919L73.1699 62.1849L67.9829 64.7559L67.4789 65.0049V64.4409C67.4789 63.0999 67.4789 61.7409 67.4789 60.2859L67.9889 60.6159L62.0849 63.3369L62.3039 62.9919C62.3039 64.5399 62.3039 66.0909 62.3189 67.7079V67.9509L62.0969 68.0619L56.9129 70.6359L56.3129 70.9359V70.2699L56.2949 65.5839L56.9189 65.9679L51.9989 68.4429L52.2479 68.0379C52.2479 69.5379 52.2479 71.0379 52.2659 72.4869V72.7869L52.0049 72.9159L46.8209 75.4959L46.1189 75.8439V75.0549C46.1189 73.5549 46.1189 72.0549 46.1009 70.6359L46.8329 71.0889L41.9159 73.5639L42.2159 73.0929C42.2159 74.5269 42.2159 75.9579 42.2309 77.2749V77.6109L41.9309 77.7639L36.7469 80.3439L35.9309 80.7489V79.8339C35.9309 78.3999 35.9309 76.9719 35.9159 75.6789L36.7589 76.2009L32.0999 78.5109L32.4329 77.9769C32.3489 88.8529 32.2729 98.8739 32.2049 108.04C32.1869 110.32 32.1679 112.576 32.1479 114.808L31.3529 114.1L54.6449 110.539L54.4319 110.605L71.7269 102.118L79.6769 98.2179L83.4629 96.3669L85.3079 95.4669L85.7669 95.2449L86.1989 94.9989L87.0599 94.5099L86.6999 95.1399C86.7239 81.4959 86.8949 70.5129 87.0269 62.8089C87.1019 58.9329 87.1619 55.9269 87.2009 53.8929C87.2399 51.8589 87.2999 50.7129 87.3329 50.6499Z" fill="black"/>
<path d="M147.192 62.548L142.047 61.105V65.596L136.287 64.015V59.494L130.824 57.964V62.74L125.064 61.159V56.35L119.601 54.823V59.884L113.841 58.303V53.209L104.724 50.656L108.489 97.873L121.785 103.753L147.618 102.259L147.192 62.548Z" fill="#789FA0"/>
<path d="M147.075 62.6379C147.126 62.5989 147.189 63.5919 147.261 65.4669C147.333 67.3419 147.417 70.1019 147.513 73.5999C147.702 80.5929 147.936 90.5559 148.143 102.253V102.751L147.639 102.781L121.815 104.413H121.659L121.509 104.35L108.195 98.5089L107.811 98.3409L107.778 97.9209C106.671 84.4539 105.558 70.5999 104.541 57.5079C104.358 55.1679 104.181 52.8939 104.013 50.7039L103.932 49.6929L104.907 49.9689L114.015 52.5459L114.513 52.6869V53.1999C114.513 54.9499 114.506 56.6499 114.492 58.2999L114.009 57.6669L119.76 59.2779L118.965 59.8779C118.965 58.0779 118.989 56.4249 118.998 54.8139V54.0249L119.748 54.2409L125.199 55.8129L125.607 55.9329V56.3439C125.589 58.0929 125.574 59.6439 125.559 61.1439L125.19 60.6579L130.929 62.3079L130.38 62.7249C130.407 60.9549 130.428 59.4249 130.449 57.9489V57.4599L130.905 57.5979L136.344 59.2239L136.539 59.2839V59.4999C136.503 61.1889 136.47 62.6229 136.443 64.0209L136.32 63.8589L142.038 65.5899H142.02C142.071 63.9369 142.116 62.5059 142.158 61.0899L141.999 61.2099C143.817 61.7829 145.386 62.2719 146.931 62.7099C145.398 62.3169 143.868 61.9179 141.948 61.3809L142.347 61.0809V65.9829L141.948 65.8749L136.2 64.3239L135.963 64.2609V64.0149C135.963 62.5899 135.963 61.1499 135.963 59.4939L136.2 59.7999L130.731 58.2999L131.166 57.9699C131.166 59.5059 131.166 61.0539 131.166 62.7459V63.2139L130.713 63.0909L124.95 61.5309L124.671 61.4559V61.1559C124.671 59.5779 124.671 57.9939 124.65 56.3559L124.95 56.7399L119.481 55.2399L120.015 54.8319C120.015 56.5209 120.03 58.2159 120.036 59.8959V60.4779L119.472 60.3249L113.706 58.7709L113.361 58.6779V58.2999C113.361 56.5749 113.343 54.8499 113.337 53.1999L113.697 53.6769L104.571 51.1689L105.255 50.6049C106.371 63.9369 107.433 76.6149 108.363 87.7029C108.645 91.1389 108.921 94.5069 109.191 97.8069L108.768 97.2069L122.073 103.069L121.734 103.009L147.57 101.527L146.892 102.253C146.784 90.1239 146.781 80.2929 146.817 73.4379C146.835 70.0119 146.865 67.3329 146.904 65.4969C146.943 63.6609 147 62.6859 147.075 62.6379Z" fill="black"/>
<path d="M84.39 46.4799L101.199 38.0289L106.506 45.6189L112.389 41.2299L112.746 41.2389L112.233 30.6159L102.693 27.7329L86.256 27.9639L77.772 29.7339L77.955 39.3999L84.39 46.4799Z" fill="#789FA0"/>
<path d="M84.4171 46.3329C84.3991 46.4199 83.7751 45.8289 82.6171 44.6739C81.4591 43.5189 79.8001 41.7999 77.7001 39.6249L77.6191 39.5379V39.4059C77.4991 36.6279 77.3791 33.3579 77.2591 29.7429L77.2441 29.3259L77.6641 29.2329L86.1271 27.3609H86.1781H86.2441C91.4521 27.2349 97.0441 27.1209 102.681 27.0249H102.792L102.9 27.0579L112.443 29.9259L112.941 30.0759L112.965 30.5949C113.064 32.7399 113.16 34.8639 113.265 36.9489C113.331 38.4489 113.394 39.8679 113.454 41.2179L113.487 41.9739L112.737 41.9559H112.38L112.8 41.7999L106.89 46.1469L106.347 46.5459L105.978 45.9999C104.022 43.1469 102.3 40.5999 100.779 38.3319L101.43 38.4939C94.2301 41.9379 89.0551 44.1939 84.4471 46.1799L101.028 37.6959L101.328 37.5459L101.52 37.8189L106.893 45.3639L106.242 45.2589L112.08 40.8159L112.221 40.7079H112.407H112.767L112.2 41.2629C111.99 37.6029 111.786 34.0299 111.6 30.6459L112.047 31.2159L103.5 28.6959L102.501 28.3959L102.711 28.4259L86.2771 28.6959H86.4151L77.9281 30.4479L78.4981 29.7309C78.5521 33.4209 78.5851 36.6699 78.5941 39.3999L78.4321 38.9859C80.3581 41.1759 81.8401 42.9579 82.8691 44.2269C83.8981 45.4959 84.4411 46.2219 84.4171 46.3329Z" fill="black"/>
<path d="M82.7158 37.7771L89.3608 33.6731L101.223 33.4871L108.105 37.7771L108.477 93.9761L83.4568 95.7701L82.7158 37.7771Z" fill="#DEF9FF"/>
<path d="M82.584 37.7049C82.6773 38.1244 82.7226 38.5531 82.719 38.9829C82.77 39.7959 82.824 40.9809 82.881 42.4929C82.995 45.5199 83.127 49.8579 83.268 55.1589C83.55 65.7609 83.868 80.1999 84.132 95.7609L83.4 95.0979L108.414 93.2439L107.733 93.9819C107.697 88.0449 107.664 82.1469 107.631 76.4259C107.559 60.3009 107.547 47.9019 107.631 37.7799L107.853 38.1789L101.043 33.7689L101.223 33.8169C96.897 33.7959 93.018 33.7509 89.358 33.6759L82.44 37.6269C84.486 36.3369 86.598 35.0139 89.196 33.4059L89.268 33.3609H89.355L101.217 33.1509H101.316L101.4 33.2019L108.3 37.4709L108.471 37.5759V37.7799C108.696 56.6799 108.942 77.2509 109.14 93.9759V94.5939L108.516 94.6419L100.737 95.2239L83.499 96.4989L82.731 96.5559V95.7819C82.485 78.3819 82.356 63.7869 82.332 53.5869C82.332 48.4869 82.332 44.4849 82.377 41.7759C82.422 39.0669 82.482 37.6449 82.584 37.7049Z" fill="black"/>
<path d="M90.9 34.969C93.645 35.056 95.166 35.407 97.914 35.497C99.198 35.536 100.509 35.584 101.715 36.025C103.731 36.763 106.281 38.629 106.281 38.629C106.281 38.629 106.329 45.295 106.407 47.44C106.863 60.007 106.281 73.24 106.356 84.418C101.53 86.0248 96.5081 86.9694 91.428 87.226C91.428 87.226 90.285 67.096 90.528 60.388C91.02 46.207 90.9 34.969 90.9 34.969Z" fill="#789FA0"/>
<path d="M90.7858 34.8611C90.7912 34.9089 90.7912 34.9572 90.7858 35.0051C90.7907 35.0898 90.8017 35.174 90.8188 35.2571C90.8458 35.4461 90.8728 35.7281 90.8998 36.0971C90.9508 36.8351 91.0018 37.9181 91.0468 39.3041C91.1338 42.0761 91.1938 46.0541 91.1728 50.8871C91.1728 53.3051 91.1278 55.9331 91.0708 58.7321C91.0408 60.1391 91.0018 61.5581 91.0318 63.0281C91.0618 64.4981 91.0978 66.0101 91.1488 67.5491C91.3738 73.7141 91.7278 80.3831 92.1268 87.1841L91.3858 86.5181C96.3979 86.2481 101.351 85.3067 106.113 83.7191L105.6 84.4241C105.582 80.8751 105.624 77.3621 105.681 73.9241C105.816 66.1541 105.951 59.5241 105.93 53.7221C105.93 52.2761 105.912 50.8841 105.897 49.5371C105.897 48.8651 105.873 48.2081 105.861 47.5601C105.849 46.9121 105.861 46.2701 105.861 45.6401C105.861 43.1291 105.882 40.8011 105.909 38.6201L106.053 38.9021C104.88 38.0015 103.631 37.2035 102.321 36.5171C101.079 35.8481 99.7138 35.6741 98.3938 35.5751C97.0738 35.4761 95.7928 35.3291 94.5568 35.1311C93.9388 35.0351 93.3268 34.9361 92.7148 34.8521L91.8148 34.7381L91.5868 34.7111H91.4728H91.3378C91.1148 34.6987 90.8911 34.7139 90.6718 34.7561C90.894 34.704 91.1217 34.6798 91.3498 34.6841L91.8358 34.7081C92.1358 34.7261 92.4628 34.7501 92.7748 34.7741C93.4048 34.8251 94.0348 34.8911 94.6708 34.9571C95.9428 35.0951 97.2178 35.1821 98.5708 35.2151C99.2637 35.2329 99.9545 35.3001 100.638 35.4161C101.35 35.5477 102.042 35.7758 102.693 36.0941C104.018 36.742 105.286 37.5017 106.482 38.3651L106.617 38.4611V38.6381C106.653 40.5261 106.689 42.4381 106.725 44.3741C106.746 45.3401 106.764 46.3091 106.785 47.2841C106.806 48.2591 106.854 49.2401 106.887 50.2211C107.007 54.1481 107.049 58.1141 107.049 62.0321C107.049 69.8741 106.911 77.5421 106.995 84.4241V84.8921L106.548 85.0421C101.672 86.6935 96.5926 87.6706 91.4518 87.9461L90.7498 87.9851L90.7078 87.2771C90.2668 79.5971 89.9278 72.4901 89.7898 66.1301C89.7568 64.5401 89.7448 62.9951 89.7658 61.4951C89.7658 61.1171 89.7838 60.7451 89.7928 60.3731C89.8018 60.0011 89.8198 59.6471 89.8318 59.2901C89.8588 58.5731 89.8828 57.8711 89.9098 57.1901C89.9938 54.4301 90.0718 51.8861 90.1438 49.5821C90.2698 44.9741 90.3688 41.3261 90.4438 38.8271C90.4858 37.5791 90.5278 36.6191 90.5758 35.9711C90.6028 35.6471 90.6268 35.4041 90.6538 35.2391C90.6538 35.1971 90.6688 35.1611 90.6748 35.1311C90.6807 35.0766 90.6938 35.0231 90.7138 34.9721C90.7468 34.8671 90.7738 34.8491 90.7858 34.8611Z" fill="#A3C3CC"/>
<path d="M97.9112 51.0159H92.3643V41.2329C92.3651 40.4975 92.6578 39.7924 93.1781 39.2727C93.6984 38.7529 94.4038 38.4609 95.1393 38.4609C95.8744 38.4609 96.5795 38.753 97.0993 39.2728C97.6192 39.7927 97.9112 40.4978 97.9112 41.2329V51.0159Z" fill="#789FA0"/>
<path d="M98.0159 51.1209C97.9199 51.0249 97.8329 50.2209 97.7159 48.9729C97.5989 47.7249 97.4879 46.0269 97.3859 44.1159C97.3649 43.6419 97.3409 43.1469 97.3199 42.6429C97.3199 42.3909 97.2989 42.1329 97.2899 41.8749C97.2899 41.7459 97.2899 41.6169 97.2899 41.4849C97.2899 41.3529 97.2899 41.2149 97.2719 41.1189C97.2344 40.6853 97.0651 40.2736 96.7868 39.9389C96.5085 39.6043 96.1345 39.3629 95.7149 39.2469C95.2906 39.1342 94.8415 39.1572 94.4309 39.3129C94.021 39.4696 93.6713 39.7521 93.4319 40.1199C93.3139 40.3046 93.2268 40.5073 93.1739 40.7199C93.1461 40.8184 93.1251 40.9186 93.1109 41.0199C93.1109 41.1309 93.0959 41.2209 93.1109 41.3829C93.1109 41.9649 93.1109 42.5439 93.1109 43.1109C93.0749 46.4109 93.0029 48.9429 92.8559 51.0129L92.3879 50.5449C94.4639 50.7009 96.2189 51.0159 98.1569 51.2349C96.4169 51.2769 94.5059 51.3399 92.3879 51.3789H92.0339V51.0069C91.9739 48.7959 91.9139 46.4799 91.8569 44.2449C91.8419 43.6869 91.8269 43.1319 91.8119 42.5859C91.8119 42.3129 91.7969 42.0429 91.7909 41.7729C91.7849 41.5029 91.7669 41.2719 91.7909 40.9209C91.834 40.2836 92.0578 39.6718 92.4359 39.1569C92.7955 38.6649 93.2788 38.2767 93.8369 38.0319C94.1541 37.8983 94.4883 37.8095 94.8299 37.7679C95.1661 37.7343 95.5054 37.7474 95.8379 37.8069C96.4738 37.9262 97.0636 38.2208 97.5407 38.6577C98.0178 39.0945 98.3632 39.6561 98.5379 40.2789C98.6216 40.5718 98.666 40.8744 98.6699 41.1789C98.6699 41.4309 98.6699 41.6799 98.6699 41.9259C98.6699 43.8729 98.6099 45.5979 98.5379 46.9989C98.3639 49.8189 98.1989 51.3159 98.0159 51.1209Z" fill="black"/>
<path d="M102.882 29.194L112.53 35.071L112.59 36.301L112.95 36.307L112.434 22.501L109.692 20.848V27.124L106.233 25.156V18.763L103.254 16.969L98.2889 17.038V23.506H91.8389V17.128L86.7209 17.2L84.0539 18.823V25.393L80.5919 27.358V20.929L77.7959 22.633L77.9579 34.459L86.2559 29.428L92.6189 29.338L102.882 29.194Z" fill="#DEF9FF"/>
<path d="M102.879 29.0469C102.879 29.1459 101.253 29.2659 98.364 29.3949C95.475 29.5239 91.32 29.6679 86.262 29.8149L86.457 29.7579L78.219 34.8999L77.472 35.3649L77.451 34.4649C77.367 30.7599 77.28 26.7909 77.187 22.6419V22.2969L77.487 22.1109L80.271 20.3889L81.225 19.7889V20.9169C81.237 23.0249 81.25 25.1679 81.264 27.3459L80.262 26.7639L83.715 24.7809L83.367 25.3809C83.367 23.2089 83.359 21.0189 83.343 18.811V18.4269L83.688 18.2169L86.349 16.5999L86.514 16.4979H86.7L91.818 16.4169H92.559V17.1579C92.559 19.2879 92.559 21.4139 92.559 23.5359L91.821 22.7979H98.271L97.557 23.4999C97.557 21.6759 97.557 19.8689 97.557 18.0789C97.557 17.7159 97.557 17.3559 97.557 17.0319V16.3269H98.265L103.23 16.2729H103.434L103.602 16.3749L106.572 18.1749L106.908 18.3789V18.7629C106.908 21.0099 106.884 23.1339 106.872 25.1559L106.542 24.5889L109.989 26.5809L109.059 27.1239C109.08 24.8919 109.101 22.813 109.122 20.8479V19.8489L109.962 20.3679L112.68 22.0539L112.923 22.2069V22.4799C113.049 27.7749 113.121 32.2419 113.148 36.2979V36.5469H112.911L112.551 36.5289H112.341V36.3309C112.341 35.8719 112.326 35.4849 112.32 35.1009L112.407 35.2479C108.978 33.007 105.936 30.9639 103.017 28.9479L112.668 34.8189L112.812 34.9059V35.0769C112.833 35.4639 112.851 35.8539 112.875 36.3039L112.557 36.004H112.917L112.584 36.3429C112.404 31.9659 112.215 27.4209 112.011 22.5429L112.197 22.8579L109.5 21.1929L110.1 20.8479C110.112 22.9279 110.125 25.0199 110.139 27.1239V27.8739L109.479 27.5049L106.005 25.5609L105.771 25.4319V25.1559C105.756 22.9929 105.741 20.8329 105.726 18.7629L105.972 19.2009C104.952 18.6009 103.932 18.0009 102.972 17.4249L103.257 17.5029L98.292 17.6049L98.85 17.0379C98.865 19.2699 98.88 21.4659 98.892 23.5059V24.1059H98.292L91.842 24.1419H91.2V23.4999C91.2 21.2739 91.179 19.1439 91.167 17.1219L91.857 17.7999L88.713 17.8569L86.739 17.89L87.09 17.7879L84.426 19.4199L84.765 18.8199C84.765 21.0559 84.771 23.2459 84.783 25.3899V25.8099L84.417 26.0199L80.955 27.9999L79.866 28.6209V27.3579C79.866 25.1579 79.866 23.0149 79.866 20.9289L80.985 21.5589L78.18 23.2599L78.531 22.6209C78.582 26.8509 78.63 30.8079 78.672 34.4469L77.586 33.8469L85.914 28.8639L86.073 28.7679H86.247C91.494 28.7379 95.655 28.7439 98.499 28.7859C101.343 28.8279 102.882 28.9149 102.879 29.0469Z" fill="black"/>
<path d="M118.146 73.2521L114.828 72.9101V66.4001C114.828 65.3801 115.569 64.6301 116.487 64.7261C117.387 64.8191 118.146 65.7221 118.146 66.7421V73.2521Z" fill="#789FA0"/>
<path d="M118.245 73.363C118.155 73.264 118.074 72.706 117.969 71.863C117.864 71.02 117.741 69.928 117.639 68.716C117.588 68.116 117.543 67.471 117.513 66.808C117.513 66.715 117.513 66.664 117.513 66.601C117.502 66.5383 117.488 66.4762 117.471 66.415C117.44 66.2919 117.391 66.1738 117.327 66.064C117.209 65.846 117.032 65.6652 116.817 65.542C116.637 65.435 116.423 65.3977 116.217 65.437C116.123 65.4576 116.034 65.4965 115.956 65.5516C115.877 65.6067 115.81 65.6769 115.758 65.758C115.633 65.9529 115.57 66.1806 115.575 66.412C115.575 66.79 115.575 67.165 115.575 67.531C115.566 69.3239 115.466 71.1152 115.275 72.898L114.885 72.463C115.467 72.601 116.007 72.763 116.577 72.955C117.147 73.147 117.735 73.315 118.377 73.474C117.312 73.411 116.13 73.36 114.81 73.255L114.51 73.231V72.898C114.468 71.434 114.399 69.898 114.333 68.398C114.318 68.026 114.3 67.657 114.285 67.291C114.285 67.111 114.27 66.928 114.264 66.748C114.258 66.568 114.243 66.418 114.264 66.166C114.286 65.694 114.447 65.239 114.726 64.858C114.87 64.6673 115.044 64.5003 115.239 64.363C115.436 64.2279 115.654 64.1265 115.884 64.063C116.387 63.9389 116.917 63.993 117.384 64.216C117.806 64.4179 118.166 64.7285 118.428 65.116C118.676 65.4747 118.838 65.8851 118.902 66.316C118.936 66.6749 118.946 67.0357 118.932 67.396C118.932 68.695 118.866 69.853 118.791 70.777C118.581 72.64 118.419 73.567 118.245 73.363Z" fill="black"/>
<path d="M129.801 75.022L126.483 74.6801V68.164C126.483 67.144 127.224 66.394 128.142 66.487C129.057 66.583 129.801 67.486 129.801 68.506V75.022Z" fill="#789FA0"/>
<path d="M129.9 75.1329C129.81 75.0309 129.729 74.4759 129.624 73.6329C129.519 72.7899 129.396 71.6979 129.294 70.4859C129.243 69.8859 129.198 69.2409 129.168 68.5779C129.168 68.4849 129.168 68.4339 129.15 68.3679C129.141 68.3061 129.128 68.2449 129.111 68.1849C129.079 68.0609 129.031 67.9418 128.967 67.8309C128.848 67.6144 128.671 67.4349 128.457 67.3119C128.276 67.2055 128.063 67.1682 127.857 67.2069C127.763 67.2268 127.674 67.2652 127.596 67.3198C127.517 67.3744 127.45 67.4441 127.398 67.5249C127.271 67.7199 127.207 67.9493 127.215 68.1819C127.215 68.5599 127.215 68.9319 127.215 69.3009C127.176 71.5719 127.098 73.2789 126.93 74.6679L126.54 74.2329C127.122 74.3709 127.662 74.5329 128.232 74.7219C128.802 74.9109 129.39 75.0849 130.032 75.2439C128.967 75.1809 127.785 75.1269 126.465 75.0219L126.165 74.9979V74.6679C126.123 73.2039 126.054 71.6679 125.988 70.1679C125.973 69.7959 125.955 69.4239 125.94 69.0609C125.94 68.8779 125.925 68.6979 125.919 68.5179C125.913 68.3379 125.898 68.1879 125.919 67.9179C125.941 67.447 126.102 66.9931 126.381 66.6129C126.664 66.2248 127.074 65.947 127.539 65.8269C128.041 65.7034 128.571 65.7564 129.039 65.9769C129.459 66.1808 129.819 66.4911 130.083 66.8769C130.33 67.2356 130.492 67.646 130.557 68.0769C130.591 68.4358 130.601 68.7966 130.587 69.1569C130.587 70.4559 130.521 71.6109 130.446 72.5349C130.236 74.4099 130.071 75.3369 129.9 75.1329Z" fill="black"/>
<path d="M140.421 76.741L137.1 76.399V69.883C137.1 68.863 137.844 68.113 138.759 68.209C139.677 68.302 140.418 69.205 140.418 70.225L140.421 76.741Z" fill="#789FA0"/>
<path d="M140.523 76.852C140.433 76.753 140.349 76.195 140.244 75.352C140.139 74.509 140.019 73.42 139.914 72.208C139.863 71.608 139.821 70.96 139.791 70.297C139.791 70.204 139.791 70.153 139.773 70.09C139.763 70.0273 139.75 69.9653 139.734 69.904C139.7 69.7812 139.651 69.6632 139.587 69.553C139.468 69.3356 139.292 69.1551 139.077 69.031C138.897 68.9235 138.683 68.8861 138.477 68.926C138.383 68.9461 138.294 68.9849 138.215 69.04C138.136 69.0951 138.069 69.1655 138.018 69.247C137.89 69.4418 137.827 69.6713 137.835 69.904C137.835 70.279 137.835 70.654 137.835 71.02C137.796 73.294 137.721 75.001 137.553 76.387L137.16 75.952C137.742 76.09 138.285 76.252 138.852 76.444C139.419 76.636 140.01 76.804 140.652 76.963C139.59 76.903 138.405 76.849 137.088 76.744L136.788 76.72V76.387C136.743 74.923 136.674 73.387 136.608 71.887C136.593 71.512 136.578 71.143 136.563 70.777C136.563 70.597 136.548 70.414 136.539 70.237C136.53 70.06 136.518 69.907 136.539 69.637C136.562 69.1653 136.723 68.7106 137.001 68.329C137.145 68.1392 137.318 67.9731 137.514 67.837C137.827 67.6254 138.19 67.5008 138.567 67.476C138.944 67.4512 139.321 67.5272 139.659 67.696C140.081 67.8986 140.442 68.2091 140.706 68.596C140.952 68.955 141.113 69.3654 141.177 69.796C141.21 70.1539 141.221 70.5136 141.21 70.873C141.21 72.175 141.144 73.33 141.069 74.254C140.856 76.129 140.7 77.056 140.523 76.852Z" fill="black"/>
<path d="M66.8999 92.149L49.0049 99.982V88.561C49.0054 85.6889 49.8427 82.8792 51.4144 80.4753C52.9861 78.0714 55.2241 76.1775 57.8549 75.025C58.8376 74.5948 59.912 74.4163 60.981 74.5055C62.05 74.5948 63.08 74.949 63.9777 75.5362C64.8755 76.1234 65.6128 76.9251 66.123 77.8687C66.6332 78.8124 66.9002 79.8683 66.8999 80.941V92.149Z" fill="#C08D41"/>
<path d="M67.038 92.2299C66.927 92.1549 66.822 90.5739 66.702 88.0029C66.642 86.7189 66.582 85.1889 66.528 83.4669C66.495 82.6119 66.486 81.6909 66.441 80.7669C66.4027 79.827 66.136 78.9106 65.664 78.0969C65.1508 77.21 64.4171 76.4708 63.534 75.9509C62.651 75.4311 61.6486 75.1483 60.624 75.1299C60.4912 75.1209 60.3579 75.1209 60.225 75.1299L59.829 75.1719C59.5622 75.2006 59.2983 75.2518 59.04 75.3249L58.842 75.3729L58.653 75.4449L58.272 75.5889C58.1389 75.6385 58.0096 75.6976 57.885 75.7659L57.495 75.9579C56.4497 76.4962 55.4727 77.1579 54.585 77.9289C52.7855 79.5165 51.4144 81.5313 50.598 83.7879C50.505 84.0699 50.397 84.3489 50.319 84.6369L50.091 85.4979L49.929 86.3739C49.875 86.6739 49.857 86.9739 49.821 87.2529C49.785 87.5319 49.782 87.8529 49.764 88.1319L49.746 88.5729V89.0349C49.746 89.6349 49.746 90.2589 49.746 90.8649C49.728 94.2849 49.704 97.3179 49.665 99.9879L48.765 99.4029C56.76 96.0399 61.995 94.1049 67.179 92.3259C61.692 94.7439 55.449 97.5759 49.203 100.405L48.576 100.69V99.9879C48.528 96.4179 48.483 92.8659 48.438 89.4729C48.438 89.0439 48.417 88.6389 48.438 88.1949L48.456 87.5409C48.456 87.3249 48.492 87.1119 48.51 86.8989C48.528 86.6859 48.549 86.4699 48.579 86.2569L48.687 85.6299C48.747 85.2099 48.864 84.8049 48.963 84.3999C49.3772 82.8482 50.0365 81.3726 50.916 80.0289C51.584 79.0122 52.3694 78.0778 53.256 77.2449C53.478 77.0469 53.682 76.8309 53.916 76.6449L54.606 76.0959C55.5302 75.4225 56.5203 74.8446 57.561 74.3709C57.834 74.2629 58.113 74.1639 58.386 74.0709C58.659 73.9779 58.953 73.9329 59.235 73.8669C60.3488 73.6683 61.494 73.7404 62.574 74.0769C63.558 74.3798 64.4652 74.8908 65.2344 75.575C66.0036 76.2593 66.6166 77.101 67.032 78.0429C67.1299 78.2587 67.2121 78.4813 67.278 78.7089C67.314 78.8199 67.35 78.9309 67.383 79.0419C67.4131 79.1536 67.4371 79.2667 67.455 79.3809C67.497 79.6059 67.545 79.8279 67.575 80.0499L67.611 80.7129C67.629 80.9379 67.611 81.1329 67.611 81.3339C67.611 81.5349 67.611 81.7329 67.611 81.9339C67.611 82.3239 67.611 82.7049 67.611 83.0769C67.557 86.0529 67.467 88.3929 67.374 89.9589C67.281 91.5249 67.152 92.3079 67.038 92.2299Z" fill="black"/>
<path d="M58.3201 94.684C57.7801 94.684 57.3481 87.976 57.4501 82.567C57.5251 78.538 57.7501 76.441 58.4851 74.572C58.4551 77.992 58.7851 82.45 58.8601 85.621C58.9891 90.892 58.8601 94.684 58.3201 94.684Z" fill="black"/>
<path d="M145.2 57.925L150.723 58.105L150.993 45.262L155.862 47.962L156.336 82.342C154.368 82.15 150.936 80.962 148.965 80.767C148.296 80.701 148.938 75.148 148.965 74.272C149.145 68.464 148.917 65.272 149.1 59.467" fill="#789FA0"/>
<path d="M148.944 59.4669C149.037 59.4669 149.094 60.2979 149.151 61.7799C149.208 63.2619 149.28 65.4009 149.373 68.0319C149.412 69.3489 149.445 70.7919 149.448 72.3369C149.448 72.7239 149.448 73.1169 149.448 73.5159C149.448 73.7169 149.448 73.9179 149.448 74.1159C149.448 74.2149 149.448 74.3229 149.448 74.4339L149.43 74.7489C149.379 75.5739 149.319 76.4079 149.277 77.2629C149.222 78.1198 149.215 78.9792 149.256 79.8369C149.265 80.0124 149.293 80.1865 149.34 80.3559C149.34 80.3559 149.34 80.3829 149.34 80.3769C149.335 80.3647 149.328 80.3536 149.319 80.3439C149.306 80.3224 149.289 80.304 149.268 80.2899L149.238 80.2659C149.238 80.2659 149.199 80.2389 149.178 80.2299C149.132 80.2055 149.081 80.1912 149.028 80.1879H149.064L149.43 80.2269C149.91 80.2929 150.378 80.3829 150.843 80.4819C151.773 80.6829 152.7 80.9169 153.627 81.1419C154.54 81.3794 155.467 81.5578 156.402 81.6759L155.673 82.3449C155.502 74.6799 155.373 66.4029 155.292 58.7229C155.253 54.7029 155.229 51.1269 155.22 47.9649L155.553 48.5169L150.72 45.7419L151.551 45.2649C151.347 50.3649 151.119 54.4659 150.822 58.0959V58.2009H150.729C148.764 58.0239 146.967 57.8289 145.218 57.6009L150.744 57.7779L150.417 58.0779C150.475 54.0539 150.536 49.7729 150.6 45.2349V44.5779L151.185 44.8959L156.084 47.5479L156.312 47.6709V47.9409C156.519 56.4009 156.741 64.8999 156.879 71.9409C156.942 75.5769 157.005 79.0509 157.062 82.3209L157.077 83.1399L156.261 83.0589C155.7 82.9954 155.143 82.9003 154.593 82.7739C154.062 82.6569 153.546 82.5309 153.042 82.4019C152.031 82.1469 151.059 81.8889 150.12 81.6909C149.889 81.6429 149.655 81.5949 149.43 81.5619C149.316 81.5409 149.205 81.5229 149.097 81.5109L148.932 81.4899H148.89H148.836L148.761 81.4719C148.712 81.4594 148.664 81.4423 148.617 81.4209C148.571 81.4006 148.527 81.3765 148.485 81.3489C148.457 81.3305 148.431 81.3094 148.407 81.2859C148.357 81.2406 148.309 81.1915 148.266 81.1389C148.218 81.0705 148.176 80.9983 148.14 80.9229C148.117 80.871 148.097 80.8179 148.08 80.7639C148.052 80.6776 148.03 80.5894 148.014 80.4999C147.988 80.358 147.969 80.2148 147.957 80.0709C147.933 79.8039 147.927 79.5519 147.927 79.3059C147.927 78.3249 147.993 77.4129 148.062 76.5249C148.101 76.0839 148.137 75.6489 148.173 75.2199C148.194 75.0099 148.212 74.8029 148.23 74.5959C148.248 74.3889 148.257 74.2239 148.263 73.9959C148.287 73.1769 148.311 72.3849 148.335 71.6259C148.371 70.1049 148.389 68.7069 148.404 67.4259C148.449 62.3739 148.719 59.4489 148.944 59.4669Z" fill="#A3C3CC"/>
<path d="M29.8379 62.0559L34.2479 62.4099L38.7479 65.3199L38.5709 74.2299L34.3079 73.3989L33.9689 64.4859L29.8379 62.0559Z" fill="#789FA0"/>
<path d="M29.7002 62.0109C29.8022 62.0439 30.3002 62.3319 31.1252 62.7189C31.5332 62.9109 32.0252 63.1209 32.5292 63.3459C33.0332 63.5709 33.5912 63.8289 34.1822 64.1319L34.3622 64.2249L34.3862 64.4709C34.6082 66.9009 34.8272 70.0449 35.0072 73.3719L34.4492 72.7179C35.8532 72.9699 37.2902 73.2369 38.7182 73.5099L37.8451 74.2149C37.8661 72.8349 37.8962 71.4639 37.9382 70.1349C37.9922 68.3049 38.0532 66.6959 38.1212 65.3079L38.4212 65.8539C36.6512 64.6329 35.2532 63.6189 34.0832 62.6919L34.2392 62.7459C33.4592 62.6079 32.7392 62.4279 31.9562 62.2719C31.1638 62.1183 30.362 62.0181 29.5562 61.9719C30.2432 61.9719 30.9662 61.9719 31.7642 61.9719C32.5622 61.9719 33.4142 62.0139 34.2932 62.0739H34.3742L34.4522 62.1219C35.9102 63.0369 37.4522 63.9819 39.0092 64.9419L39.2132 65.0649V65.3259C39.2132 68.4369 39.2432 71.5749 39.2582 74.2419V75.0249L38.4572 74.8839L36.9872 74.6169L34.1852 74.1009L33.6302 73.9989L33.6032 73.4229C33.4412 69.8889 33.3362 66.8229 33.3032 64.5099L33.6332 65.0649C32.9686 64.6581 32.3267 64.2154 31.7102 63.7389C31.1732 63.3219 30.7622 62.9619 30.4532 62.6979C29.8292 62.1699 29.5682 61.9719 29.7002 62.0109Z" fill="#A3C3CC"/>
<path d="M6.99894 100.372C40.1519 87.6101 105.879 72.1331 165.309 86.7611C165.309 93.5501 154.74 101.674 154.566 107.56C154.167 120.994 127.995 117.55 114.564 118.075L37.2509 125.446C26.2259 125.524 10.1849 111.346 5.93994 100.726L6.99894 100.372Z" fill="#96DE50"/>
<path d="M166.2 88.375C133.008 83.5361 96.4291 81.4511 66.9841 100.237C62.6701 102.637 57.8911 107.872 60.6661 112.996C62.0221 115.3 65.8861 115.855 68.4121 116.521C89.4991 121.069 77.8951 131.428 101.262 130.621C131.862 129.562 157.986 117.394 165.531 89.281" fill="#46A508"/>
<path d="M13.1999 108.451C56.0759 109.327 150.504 119.551 118.539 128.284C88.2989 136.531 56.9489 134.884 37.9919 127.741C23.5799 122.314 16.0199 115.936 10.7129 107.8L13.1999 108.451Z" fill="#46A508"/>
<path d="M49.4487 130.087C54.4617 122.644 58.6137 116.059 67.6107 114.559L55.1157 112.567C44.3367 112.771 26.8707 122.653 32.1777 124.6C40.1067 127.507 49.4487 130.087 49.4487 130.087Z" fill="#C3A785"/>
<path d="M49.4039 129.964C49.5059 130.003 49.0649 129.964 48.3599 129.811C47.6549 129.658 46.6109 129.415 45.3089 129.079C42.7049 128.401 39.0299 127.375 34.7489 125.971C34.2149 125.794 33.6689 125.617 33.1169 125.425L32.2829 125.125C31.9523 125.028 31.6378 124.882 31.3499 124.693C31.1748 124.569 31.0259 124.412 30.9119 124.231C30.7914 124.031 30.7214 123.804 30.7079 123.571C30.7 123.17 30.8039 122.776 31.0079 122.431C31.3572 121.846 31.7943 121.317 32.3039 120.865C33.2925 119.978 34.3599 119.182 35.4929 118.489C36.6299 117.778 37.8179 117.124 39.0449 116.512C41.5413 115.273 44.135 114.24 46.7999 113.425C49.4999 112.612 52.2749 111.997 55.1039 111.925H55.1609H55.2149L59.0309 112.543L67.7009 113.98L71.0999 114.562L67.6919 115.123C65.1818 115.518 62.7765 116.413 60.6179 117.754C58.8461 118.922 57.2275 120.308 55.7999 121.879C54.4619 123.313 53.3279 124.726 52.2599 126.079L50.6999 128.044C50.1809 128.71 49.7279 129.262 49.3409 129.829C49.5629 129.454 49.7819 129.091 50.0219 128.731L50.8199 127.546C51.3719 126.739 51.9299 125.917 52.5209 125.098C53.7052 123.401 55.0084 121.791 56.4209 120.28C57.8879 118.713 59.5781 117.372 61.4369 116.299C63.332 115.244 65.3922 114.518 67.5299 114.151V114.967L55.0169 113.095H55.1099C53.6006 113.155 52.0996 113.35 50.6249 113.677C49.247 113.975 47.8852 114.344 46.5449 114.781C44.0468 115.596 41.6138 116.599 39.2669 117.781C38.1449 118.345 37.0709 118.939 36.0569 119.563C35.0774 120.159 34.1456 120.83 33.2699 121.57C32.8739 121.907 32.514 122.284 32.1959 122.695C32.0639 122.866 31.9559 123.055 31.8749 123.256C31.8229 123.37 31.8082 123.498 31.8329 123.622C31.886 123.734 31.9761 123.824 32.0879 123.877L32.2079 123.943L32.3489 124C32.4509 124.042 32.5889 124.09 32.7059 124.132L34.1429 124.654C36.0269 125.329 37.7789 125.923 39.3719 126.454L46.8359 128.917C47.7029 129.217 48.3689 129.442 48.8159 129.619C48.9862 129.682 49.1525 129.755 49.3139 129.838C49.3379 129.838 49.3739 129.868 49.3769 129.877C49.3749 129.887 49.3749 129.897 49.3769 129.907C49.3816 129.928 49.3908 129.947 49.4039 129.964Z" fill="black"/>
<path d="M95.454 121.546C109.254 108.967 124.296 108.082 142.071 104.227C156.69 101.248 147.432 86.3199 135.495 82.1559L129.867 81.8049C132.516 83.0229 136.62 84.9549 138.693 87.0039C140.766 89.0529 142.113 92.0889 141.378 94.9089C140.328 98.9229 135.789 100.828 131.742 101.74C122.379 103.84 112.65 103.735 103.212 105.475C93.774 107.215 85.116 109.66 79.938 117.742L95.454 121.546Z" fill="#C3A785"/>
<path d="M95.4181 121.402C95.4181 121.441 95.0701 121.402 94.3741 121.258C93.6781 121.114 92.6491 120.907 91.3111 120.619C88.6381 120.037 84.7351 119.164 79.8661 118.036L79.4551 117.943L79.6831 117.577C81.1407 115.255 83.0129 113.222 85.2061 111.577C85.5061 111.34 85.8061 111.145 86.1061 110.932C86.4061 110.719 86.7241 110.494 87.0571 110.308L88.0561 109.723C88.3891 109.519 88.7461 109.363 89.0941 109.18C89.7901 108.805 90.5311 108.508 91.2721 108.175C92.0281 107.89 92.7871 107.575 93.5791 107.32C95.1481 106.777 96.7891 106.333 98.4751 105.925C100.161 105.517 101.892 105.169 103.668 104.839C107.223 104.185 110.943 103.771 114.75 103.393C118.557 103.015 122.457 102.652 126.375 102.058C128.328 101.758 130.299 101.38 132.231 100.921C134.143 100.482 135.968 99.7264 137.631 98.6859C138.424 98.1731 139.121 97.5265 139.692 96.7749C140.238 96.0373 140.609 95.1846 140.775 94.2819C141.075 92.4819 140.475 90.5529 139.383 88.9839C138.841 88.1918 138.185 87.4841 137.436 86.8839C136.654 86.2732 135.83 85.7188 134.97 85.2249C133.239 84.2079 131.403 83.3379 129.57 82.4889L125.985 80.8359L129.924 81.0849L135.552 81.4419H135.657L135.747 81.4749C136.863 81.8747 137.951 82.3508 139.002 82.8999C140.041 83.452 141.044 84.0713 142.002 84.7539C142.994 85.4647 143.936 86.2425 144.822 87.0819C145.685 87.904 146.487 88.7873 147.222 89.7249C147.93 90.6493 148.549 91.6387 149.07 92.6799C149.596 93.7098 149.959 94.8149 150.147 95.9559C150.342 97.1065 150.261 98.2869 149.91 99.3999C149.55 100.481 148.914 101.45 148.065 102.211C147.663 102.574 147.231 102.901 146.772 103.189C146.322 103.455 145.854 103.69 145.371 103.891C145.134 103.987 144.9 104.101 144.66 104.191L143.94 104.422L143.583 104.536C143.463 104.569 143.343 104.593 143.223 104.623L142.506 104.791C135.057 106.369 128.463 107.38 122.595 108.691C119.655 109.327 116.919 110.095 114.327 110.899C113.049 111.352 111.777 111.736 110.583 112.243C109.983 112.486 109.383 112.714 108.798 112.96L107.1 113.746L106.254 114.133C105.975 114.265 105.708 114.418 105.435 114.559L103.8 115.411L103.401 115.621C103.272 115.696 103.146 115.777 103.02 115.852L102.258 116.317L100.758 117.235C99.7921 117.892 98.8471 118.558 97.9111 119.209C97.0381 119.899 96.1921 120.571 95.3731 121.243L97.1311 119.704C97.4311 119.452 97.7101 119.188 98.0311 118.942L99.0241 118.198L100.026 117.448L100.53 117.073L101.055 116.728L103.179 115.342C106.154 113.562 109.285 112.055 112.533 110.842C119.133 108.343 126.249 106.981 133.299 105.571L138.6 104.5L141.234 103.936C141.672 103.846 142.11 103.75 142.53 103.636L143.169 103.48C143.379 103.423 143.58 103.345 143.787 103.279C143.994 103.213 144.201 103.147 144.405 103.075L145.005 102.817C145.395 102.645 145.773 102.45 146.139 102.232C146.325 102.13 146.484 101.992 146.658 101.875C146.833 101.761 146.996 101.632 147.147 101.488C147.297 101.344 147.447 101.209 147.6 101.065L147.993 100.591C148.479 99.9406 148.813 99.1889 148.968 98.3919C149.112 97.5841 149.1 96.7562 148.932 95.9529C148.632 94.3179 147.84 92.7909 146.913 91.4019C145.958 90.0292 144.844 88.7735 143.595 87.6609C141.184 85.4857 138.364 83.8113 135.3 82.7349L135.462 82.7679L129.834 82.4379L130.134 81.2379C131.589 81.8979 132.984 82.5579 134.304 83.2539C135.594 83.919 136.83 84.6844 138 85.5429C138.574 85.9725 139.106 86.4545 139.59 86.9829C140.063 87.5001 140.485 88.0617 140.85 88.6599C141.582 89.8235 142.048 91.135 142.212 92.4999C142.333 93.5377 142.22 94.5894 141.882 95.5779C141.548 96.5497 141.02 97.4436 140.331 98.2059C139.665 98.9354 138.899 99.5676 138.057 100.084C137.243 100.577 136.388 100.999 135.501 101.344C133.79 101.989 132.022 102.475 130.221 102.796C128.475 103.132 126.744 103.42 125.034 103.648C118.197 104.548 111.738 104.848 105.861 105.775C102.933 106.222 100.107 106.777 97.4611 107.431C94.959 108.027 92.5175 108.853 90.1681 109.9C88.0817 110.844 86.1387 112.077 84.3961 113.563C82.884 114.878 81.557 116.392 80.4511 118.063L80.1001 117.148C84.9451 118.387 88.7551 119.404 91.3741 120.133C93.9931 120.862 95.4001 121.3 95.4181 121.402Z" fill="black"/>
<path d="M117.372 128.389C117.327 128.506 115.167 127.789 111.492 126.589C107.817 125.389 102.612 123.76 96.4678 122.089C90.3238 120.418 83.2438 118.717 75.8998 117.079C72.2278 116.254 68.4928 115.459 64.7758 114.709C61.0588 113.959 57.3508 113.278 53.7448 112.651C48.3718 111.724 43.6198 111.031 39.3688 110.473C35.1178 109.915 31.3588 109.474 27.9688 109.132C21.1738 108.424 15.8188 107.974 10.7578 107.53C15.3958 107.647 20.3848 107.869 25.5208 108.235C30.6568 108.601 35.9338 109.102 41.1568 109.735C51.5998 110.992 61.7998 112.798 70.2238 114.58C77.2198 116.08 83.6968 117.58 89.4658 119.062C95.2348 120.544 100.266 122.044 104.433 123.397C108.6 124.75 111.837 125.962 114.033 126.85C116.229 127.738 117.417 128.284 117.372 128.389Z" fill="black"/>
<path d="M5.45988 100.69C5.43888 100.624 6.23388 100.261 7.72788 99.6429L10.4729 98.5299C11.5499 98.0919 12.7949 97.6299 14.1839 97.0989C19.7309 94.9989 27.6449 92.1909 37.0559 89.4519C47.4999 86.4282 58.136 84.1129 68.8919 82.5219C71.7659 82.1469 74.6579 81.7239 77.5709 81.4569L79.7579 81.2319C80.4839 81.1539 81.2129 81.0789 81.9449 81.0339L86.3219 80.7069C87.7799 80.5779 89.2409 80.5419 90.6929 80.4669L92.8679 80.3649C93.5939 80.3319 94.3169 80.2899 95.0369 80.2839L99.3449 80.1999C100.059 80.1999 100.773 80.1669 101.481 80.1699H103.605C107.805 80.1699 111.75 80.2659 115.47 80.4099C119.19 80.5539 122.67 80.7099 125.97 80.9289C132.57 81.3459 138.354 81.9339 143.568 82.6029C152.343 83.7302 161.048 85.3518 169.641 87.4599C162.663 86.1099 155.124 84.8109 147.3 83.8599C139.476 82.9089 131.4 82.2459 123.342 81.8799C115.284 81.5139 107.307 81.3879 99.6959 81.5019C92.0849 81.6159 84.8549 82.1229 78.3149 82.7889C76.9589 82.9359 75.6149 83.0589 74.2799 83.2239L70.3259 83.7459L68.3819 84.0039L66.4619 84.3039L62.6849 84.9039C61.4429 85.1139 60.2219 85.3629 59.0099 85.5819C57.7979 85.8009 56.6099 86.0169 55.4249 86.2719L51.9479 87.0189C50.8049 87.2619 49.6769 87.4989 48.5729 87.7749C39.7169 89.8509 32.0009 92.1159 25.6409 94.1199C19.2809 96.1239 14.2739 97.8999 10.8299 99.0579C7.38588 100.216 5.50488 100.816 5.45988 100.69Z" fill="black"/>
</svg>
