<svg width="171" height="133" viewBox="0 0 171 133" fill="none" xmlns="http://www.w3.org/2000/svg">
<path d="M43.1 0.339027C59.423 -1.98297 79.055 10.131 95.354 12.6C114.458 15.039 146.3 4.64703 157.511 18.564C161.336 23.307 165.08 31.41 162.098 46.548C160.103 56.676 162.593 62.004 166.685 71.547C170.615 86.625 175.817 106.827 157.001 114.642C143.474 120.585 125.741 120.342 109.574 123.156C91.907 126.24 62.447 141.363 36.566 126.27C33.674 124.602 30.665 123.177 27.386 122.463C0.200032 117.084 -1.19797 102.042 4.34603 78.165C17.255 50.1 -15.784 43.119 12.113 24.3C20.933 16.287 28.022 2.48403 43.1 0.339027Z" fill="#91AFF9"/>
<path d="M137.972 31.4819L137.984 27.5309L134.585 25.5149L138.536 25.5239L140.552 22.1279L140.543 26.0789L143.939 28.0949L139.988 28.0829L137.972 31.4819Z" fill="white"/>
<path d="M137.933 31.6263C137.96 31.5273 138.203 31.0953 138.515 30.4083C138.671 30.0693 138.839 29.6673 139.019 29.2413C139.199 28.8153 139.4 28.3623 139.646 27.8793L139.736 27.6993H139.991C141.14 27.6303 142.484 27.5703 143.942 27.5223L143.642 28.6143C142.547 28.0143 141.38 27.3663 140.192 26.6883L139.859 26.4993V26.0913C139.838 24.7923 139.826 23.4603 139.826 22.1403L141.182 22.5003C140.627 23.4423 140.069 24.3753 139.52 25.2753L139.148 25.8753L138.932 26.2323H138.533C137.033 26.2053 135.737 26.1723 134.582 26.1243L134.9 24.9873C136.193 25.8213 137.258 26.5503 138.164 27.2283L138.353 27.3693L138.335 27.5313C138.26 28.2303 138.134 28.8813 138.035 29.5923C137.936 30.3239 137.891 31.0619 137.9 31.8003C137.852 31.1673 137.798 30.5103 137.744 29.8203C137.69 29.1303 137.66 28.3383 137.654 27.5463L137.822 27.8463L134.375 25.9083L133.016 25.1463L134.6 25.0803L138.551 24.9723L138.077 25.2453L140 21.7893L141.2 19.6562L141.239 22.1283C141.239 22.6893 141.257 23.1993 141.266 23.6913C141.266 24.5103 141.281 25.3083 141.29 26.0913L140.9 25.4583C142.124 26.1693 143.264 26.8413 144.305 27.4623L146.612 28.8453L143.93 28.8273C142.43 28.8273 141.101 28.7943 139.979 28.7523L140.555 28.4253C140.207 28.9839 139.825 29.5209 139.412 30.0333C139.052 30.4803 138.74 30.8133 138.512 31.0623C138.065 31.5573 137.9 31.7523 137.933 31.6263Z" fill="#7AF5E5"/>
<path d="M58.8562 11.7962L56.1952 9.66018L53.0032 10.8662L55.1422 8.20518L53.9362 5.01318L56.5972 7.14918L59.7892 5.94618L57.6502 8.60418L58.8562 11.7962Z" fill="white"/>
<path d="M58.9431 11.919C58.8831 11.835 58.7151 11.427 58.4091 10.842C58.2561 10.542 58.0701 10.221 57.8721 9.876C57.6741 9.531 57.4731 9.162 57.2721 8.745L57.1881 8.568L57.3351 8.355C57.9021 7.536 58.5771 6.591 59.3271 5.577L59.9931 6.495C59.0001 6.918 57.9381 7.356 56.8401 7.8L56.4861 7.944L56.1621 7.692C55.2621 7.008 54.3621 6.3 53.4621 5.592L54.6111 4.758C54.9471 5.643 55.2741 6.522 55.5861 7.38C55.6581 7.578 55.7271 7.776 55.7961 7.959L55.9371 8.352L55.6851 8.652C54.8601 9.642 54.1311 10.503 53.4711 11.25L52.7751 10.29C54.0381 9.876 55.1091 9.561 56.0751 9.33L56.3121 9.273L56.4201 9.387C56.8371 9.816 57.1941 10.263 57.6201 10.728C58.059 11.2074 58.5366 11.6499 59.0481 12.051L57.5961 11.1C57.0741 10.752 56.5281 10.353 55.9821 9.927L56.3181 9.981L53.1561 11.271L51.7191 11.871L52.6641 10.605L54.7101 7.872L54.6231 8.412L53.3181 5.259L52.3821 3L54.3501 4.5L55.4181 5.322L57.0471 6.6L56.3421 6.489C57.4791 6.045 58.5471 5.637 59.5281 5.271L62.0511 4.332L60.3591 6.432C59.5431 7.437 58.8081 8.319 58.1721 9.051L58.2741 8.397C58.4681 8.94648 58.6235 9.50885 58.7391 10.08C58.8381 10.578 58.8861 10.98 58.9221 11.28C59.0001 11.82 59.0211 12.024 58.9431 11.919Z" fill="#7AF5E5"/>
<path d="M12.743 54.8369L10.643 58.7729L12.968 62.5799L9.03199 60.4829L5.22799 62.8049L7.32499 58.8719L4.99999 55.0649L8.93599 57.1619L12.743 54.8369Z" fill="white"/>
<path d="M12.8451 54.7289C12.7731 54.8039 12.3141 55.0979 11.6451 55.6049C11.3091 55.8569 10.9251 56.1599 10.5141 56.4839C10.1031 56.8079 9.65614 57.1499 9.14614 57.5039L8.97814 57.6209L8.75014 57.5159C7.57114 56.9699 6.20314 56.3159 4.72714 55.5839L5.50414 54.7589C6.27814 55.9379 7.09114 57.2039 7.90414 58.5089L8.10814 58.8329L7.92214 59.1959C7.25614 60.5009 6.56014 61.8329 5.86414 63.1499L4.83214 62.1779C5.88514 61.5329 6.93214 60.8969 7.95514 60.2879L8.65114 59.8739L9.00814 59.6609L9.35614 59.8529C10.8321 60.6629 12.1191 61.3829 13.2561 62.0369L12.4431 62.9009C11.5881 61.4009 10.9011 60.1049 10.3431 58.9559L10.2411 58.7489L10.3341 58.6079C10.7721 57.9389 11.2341 57.3449 11.6901 56.6909C12.1589 56.0233 12.5819 55.3247 12.9561 54.5999L12.0561 56.6369C11.7291 57.3659 11.3541 58.1369 10.9461 58.9259V58.5869L13.3461 62.3429L14.1891 63.6599L12.7731 62.9519L8.78314 60.9599H9.32914L5.57914 63.3599L3.53014 64.6829L4.65214 62.4869L5.45614 60.9179C5.88214 60.0959 6.29614 59.2949 6.69814 58.5179L6.71914 59.2319C5.87614 57.8759 5.09314 56.6039 4.38214 55.4309L2.99014 53.1299L5.35414 54.4019C6.85414 55.2029 8.15914 55.9289 9.25414 56.5589L8.59114 56.5769C9.22096 56.2096 9.86988 55.8762 10.5351 55.5779C11.1171 55.3199 11.5941 55.1429 11.9481 55.0049C12.6561 54.7529 12.9351 54.6329 12.8451 54.7289Z" fill="#FFD635"/>
<path d="M13.34 105.507L15.359 114.513L20.756 115.773L15.467 117.429L14.204 122.826L12.551 117.537L7.15398 116.277L12.443 114.621L13.34 105.507Z" fill="white"/>
<path d="M13.3309 105.357C13.3309 105.483 13.2379 106.557 13.1719 108.237C13.1359 109.077 13.1179 110.067 13.0939 111.144C13.0699 112.221 13.0189 113.391 12.9319 114.669L12.9109 114.969L12.5869 115.08C10.9789 115.65 9.19995 116.25 7.33995 116.871L7.29495 115.671L12.7099 116.856L13.0939 116.94L13.2199 117.327C13.7749 119.073 14.3419 120.846 14.9059 122.607L13.4899 122.658L14.7139 117.48L14.7649 117.267L14.8639 116.862L15.2509 116.742C17.2069 116.142 18.9759 115.611 20.5579 115.149L20.5999 116.4C18.5569 115.884 16.7929 115.419 15.2389 114.987L14.9179 114.897L14.8669 114.597C14.5429 112.83 14.3599 111.276 14.1469 109.719C13.9339 108.162 13.6609 106.65 13.3159 105.171C13.6669 106.542 14.0629 107.979 14.4859 109.527C14.9089 111.075 15.3199 112.719 15.7189 114.408L15.4369 114.123L20.8549 115.296L22.5139 115.653L20.8999 116.22L15.6409 117.975L16.0249 117.561L14.8549 122.976L14.3389 125.355L13.5799 123.024C13.3039 122.172 13.0459 121.386 12.7999 120.624C12.4839 119.64 12.1749 118.679 11.8729 117.741L12.3919 118.224L6.99195 116.985L4.34895 116.385L6.93795 115.572C8.86395 114.972 10.6399 114.423 12.2359 113.94L11.7409 114.54C11.9059 113.019 12.1009 111.606 12.3199 110.4C12.5389 109.194 12.7519 108.207 12.9199 107.442C13.2139 105.924 13.3219 105.201 13.3309 105.357Z" fill="#FF4500"/>
<path d="M159.293 63.2612L158.708 68.5262L162.947 71.7032L157.682 71.1212L154.505 75.3602L155.087 70.0952L150.848 66.9152L156.113 67.5002L159.293 63.2612Z" fill="white"/>
<path d="M159.347 63.1198C159.311 63.2158 158.942 63.7198 158.417 64.5628C158.153 64.9768 157.859 65.4628 157.535 66.0088C157.211 66.5548 156.851 67.1218 156.434 67.7398L156.317 67.9138L156.071 67.8958C154.529 67.7998 152.732 67.6648 150.782 67.4998L151.202 66.4468C152.567 67.4158 154.019 68.4598 155.504 69.5398L155.804 69.7678L155.765 70.1698C155.597 71.9038 155.414 73.6798 155.222 75.4408L153.905 74.9188C154.781 73.7428 155.66 72.5788 156.518 71.4538L157.1 70.6948L157.352 70.3648L157.748 70.4128C159.734 70.6528 161.471 70.8778 163.004 71.0908L162.566 72.1978C160.949 70.9108 159.62 69.7978 158.486 68.8078L158.315 68.6578L158.348 68.4868C158.525 67.5418 158.747 66.6868 158.948 65.7568C159.149 64.8359 159.298 63.9044 159.395 62.9668C159.356 63.8068 159.314 64.6738 159.269 65.5888C159.224 66.5038 159.14 67.5268 159.035 68.5648L158.903 68.2648L163.196 71.3698L164.465 72.2878L162.887 72.1468L157.61 71.6818L158.111 71.4628L155.021 75.7678L153.599 77.7478L153.836 75.2998C153.908 74.5498 153.974 73.8688 154.037 73.2148C154.148 72.1198 154.256 71.0548 154.361 70.0258L154.643 70.6828C153.119 69.5548 151.694 68.4928 150.395 67.5148L148.25 65.8948L150.917 66.1948C152.912 66.4228 154.685 66.6418 156.176 66.8458L155.576 67.1068C156.152 66.3718 156.719 65.7088 157.226 65.1748C157.733 64.6408 158.162 64.2268 158.486 63.9118C159.134 63.2728 159.395 62.9998 159.347 63.1198Z" fill="#FF4500"/>
<path d="M73.5411 124.878C75.2377 124.878 76.6131 123.503 76.6131 121.806C76.6131 120.109 75.2377 118.734 73.5411 118.734C71.8445 118.734 70.4691 120.109 70.4691 121.806C70.4691 123.503 71.8445 124.878 73.5411 124.878Z" fill="white"/>
<path d="M70.3189 121.8C70.4719 121.8 70.5439 122.229 70.8769 122.784C71.0631 123.104 71.3025 123.391 71.5849 123.63C71.9242 123.92 72.3271 124.126 72.7609 124.23C73.2389 124.337 73.7373 124.31 74.2009 124.152C74.6842 123.983 75.1034 123.669 75.4009 123.252C75.7013 122.836 75.863 122.336 75.863 121.823C75.863 121.309 75.7013 120.809 75.4009 120.393C75.2057 120.12 74.9578 119.889 74.6719 119.713C74.3859 119.538 74.0677 119.421 73.7359 119.37C73.1788 119.287 72.6096 119.369 72.0979 119.604C71.6383 119.815 71.2292 120.122 70.8979 120.504C70.5671 120.888 70.3061 121.326 70.1269 121.8C70.1299 121.296 70.241 120.798 70.4526 120.34C70.6643 119.882 70.9717 119.474 71.354 119.145C71.7364 118.816 72.1848 118.573 72.6692 118.431C73.1535 118.29 73.6625 118.254 74.1619 118.326C74.6921 118.406 75.198 118.602 75.6435 118.9C76.089 119.198 76.4631 119.591 76.7389 120.051C76.9929 120.484 77.1556 120.965 77.217 121.463C77.2784 121.962 77.2372 122.467 77.0959 122.949C76.8907 123.641 76.4888 124.258 75.9391 124.726C75.3895 125.194 74.7157 125.491 73.9999 125.583C73.39 125.658 72.7711 125.579 72.1999 125.352C71.7145 125.161 71.2778 124.864 70.9219 124.482C70.4153 123.959 70.1102 123.274 70.0609 122.547C70.0609 122.049 70.1959 121.8 70.3189 121.8Z" fill="#7AF5E5"/>
<path d="M17.7589 85.7371C19.2352 85.7371 20.4319 84.5404 20.4319 83.0641C20.4319 81.5879 19.2352 80.3911 17.7589 80.3911C16.2827 80.3911 15.0859 81.5879 15.0859 83.0641C15.0859 84.5404 16.2827 85.7371 17.7589 85.7371Z" fill="#FFF1B6"/>
<path d="M14.9361 83.064C15.0861 83.064 15.1671 83.439 15.4671 83.91C15.6454 84.2086 15.8816 84.4687 16.1619 84.6747C16.4421 84.8808 16.7608 85.0288 17.0991 85.11C17.4991 85.1914 17.9136 85.1634 18.2991 85.0289C18.7012 84.8845 19.0497 84.6207 19.2981 84.273C19.546 83.927 19.6793 83.5121 19.6793 83.0864C19.6793 82.6608 19.546 82.2459 19.2981 81.9C19.1372 81.6722 18.9326 81.4788 18.6962 81.331C18.4597 81.1831 18.1962 81.0839 17.9211 81.039C17.4525 80.9621 16.9717 81.0204 16.5351 81.207C15.725 81.5762 15.0873 82.2419 14.7531 83.067C14.756 82.6213 14.8542 82.1815 15.0409 81.7769C15.2277 81.3722 15.4987 81.0122 15.8358 80.7207C16.173 80.4293 16.5685 80.2133 16.9959 80.0871C17.4233 79.9609 17.8727 79.9274 18.3141 79.989C18.7855 80.0576 19.2359 80.2295 19.6332 80.4924C20.0304 80.7554 20.3647 81.1028 20.6121 81.51C20.8405 81.8951 20.9877 82.323 21.0445 82.7673C21.1012 83.2115 21.0664 83.6627 20.9421 84.0929C20.7481 84.7397 20.3633 85.3127 19.8381 85.7369C19.356 86.1271 18.7737 86.3735 18.1581 86.4479C17.6129 86.5145 17.0598 86.4422 16.5501 86.2379C16.1157 86.0663 15.7252 85.7998 15.4071 85.4579C14.9581 84.9894 14.693 84.375 14.66 83.7269C14.678 83.28 14.8101 83.061 14.9361 83.064Z" fill="#FEB331"/>
<path d="M160.91 30.8038C162.752 30.8038 164.246 29.3103 164.246 27.4678C164.246 25.6254 162.752 24.1318 160.91 24.1318C159.068 24.1318 157.574 25.6254 157.574 27.4678C157.574 29.3103 159.068 30.8038 160.91 30.8038Z" fill="#FFF1B6"/>
<path d="M157.424 27.4681C157.577 27.4681 157.643 27.9331 157.997 28.5451C158.197 28.8977 158.456 29.2133 158.762 29.4781C159.132 29.7988 159.574 30.027 160.049 30.1441C160.577 30.2673 161.128 30.2413 161.642 30.0691C161.908 29.9781 162.158 29.8487 162.386 29.6851C162.616 29.5168 162.818 29.3145 162.986 29.0851C163.323 28.6232 163.504 28.0665 163.504 27.4951C163.504 26.9236 163.323 26.3669 162.986 25.9051C162.769 25.6025 162.492 25.3468 162.174 25.1535C161.855 24.9602 161.501 24.8332 161.132 24.7801C160.518 24.6912 159.892 24.7862 159.332 25.0531C158.835 25.2908 158.396 25.6337 158.045 26.0581C157.698 26.4781 157.427 26.9565 157.247 27.4711C157.25 26.9271 157.369 26.3901 157.598 25.8964C157.826 25.4027 158.158 24.9639 158.571 24.6097C158.984 24.2555 159.468 23.9942 159.991 23.8434C160.513 23.6927 161.062 23.6561 161.6 23.7361C162.169 23.823 162.711 24.0345 163.188 24.3555C163.665 24.6766 164.066 25.0992 164.36 25.5931C164.631 26.0576 164.805 26.5726 164.87 27.1065C164.935 27.6405 164.89 28.1821 164.738 28.6981C164.503 29.4702 164.041 30.1538 163.412 30.6601C162.834 31.1241 162.138 31.4171 161.402 31.5061C160.751 31.5872 160.089 31.5026 159.479 31.2601C158.959 31.0568 158.491 30.7401 158.108 30.3331C157.565 29.7739 157.234 29.043 157.172 28.2661C157.163 27.7321 157.301 27.4651 157.424 27.4681Z" fill="#7AF5E5"/>
<path d="M32.3389 12.1739C33.7489 12.1739 34.8919 11.0309 34.8919 9.62087C34.8919 8.21089 33.7489 7.06787 32.3389 7.06787C30.9289 7.06787 29.7859 8.21089 29.7859 9.62087C29.7859 11.0309 30.9289 12.1739 32.3389 12.1739Z" fill="white"/>
<path d="M29.636 9.62081C29.783 9.62081 29.867 9.97781 30.161 10.4248C30.3325 10.7058 30.5582 10.9497 30.825 11.1423C31.0918 11.335 31.3944 11.4725 31.715 11.5468C32.0963 11.6246 32.4916 11.5966 32.858 11.4658C33.2373 11.3291 33.5659 11.08 33.8 10.7518C34.0311 10.4261 34.1553 10.0367 34.1553 9.63731C34.1553 9.23797 34.0311 8.8485 33.8 8.52281C33.6492 8.30832 33.4572 8.12598 33.2352 7.9864C33.0132 7.84683 32.7657 7.7528 32.507 7.70981C32.0656 7.63527 31.6121 7.68728 31.199 7.85981C30.4193 8.20467 29.8011 8.83473 29.471 9.62081C29.4718 9.19103 29.5648 8.76642 29.744 8.37573C29.9231 7.98505 30.184 7.63741 30.5092 7.35636C30.8343 7.0753 31.2161 6.86739 31.6286 6.7467C32.0411 6.626 32.4747 6.59535 32.9 6.65681C33.3543 6.72204 33.7885 6.88717 34.1714 7.14031C34.5542 7.39346 34.8761 7.72832 35.114 8.12081C35.3351 8.49182 35.4773 8.90436 35.5321 9.33273C35.5868 9.76111 35.5527 10.1962 35.432 10.6108C35.2547 11.2091 34.9064 11.7426 34.4299 12.1455C33.9534 12.5485 33.3695 12.8034 32.75 12.8788C32.2244 12.9437 31.6908 12.8745 31.199 12.6778C30.7807 12.5116 30.4046 12.2544 30.098 11.9248C29.6636 11.4739 29.4096 10.8794 29.384 10.2538C29.378 9.82481 29.51 9.61781 29.636 9.62081Z" fill="#7396FC"/>
<path d="M63.8301 18.4921C64.5426 18.4921 65.1201 17.9146 65.1201 17.2021C65.1201 16.4897 64.5426 15.9121 63.8301 15.9121C63.1177 15.9121 62.5401 16.4897 62.5401 17.2021C62.5401 17.9146 63.1177 18.4921 63.8301 18.4921Z" fill="#14D8C3"/>
<path d="M134.495 15.4921C135.207 15.4921 135.785 14.9146 135.785 14.2021C135.785 13.4897 135.207 12.9121 134.495 12.9121C133.783 12.9121 133.205 13.4897 133.205 14.2021C133.205 14.9146 133.783 15.4921 134.495 15.4921Z" fill="#7396FC"/>
<path d="M27.161 111.114C27.8735 111.114 28.451 110.537 28.451 109.824C28.451 109.112 27.8735 108.534 27.161 108.534C26.4486 108.534 25.871 109.112 25.871 109.824C25.871 110.537 26.4486 111.114 27.161 111.114Z" fill="#7396FC"/>
<path d="M43.1629 123.783C43.8753 123.783 44.4529 123.206 44.4529 122.493C44.4529 121.781 43.8753 121.203 43.1629 121.203C42.4504 121.203 41.8729 121.781 41.8729 122.493C41.8729 123.206 42.4504 123.783 43.1629 123.783Z" fill="#FF4500"/>
<path d="M101.471 9.55191C90.587 8.95191 88.931 25.1519 100.814 25.7009C105.731 25.8269 108.833 22.4399 109.262 18.3479C109.7 14.0999 106.949 9.75291 101.471 9.55191Z" fill="white"/>
<path d="M101.465 9.72279C101.465 9.64479 101.738 9.59379 102.251 9.56379C102.989 9.55285 103.724 9.654 104.432 9.86379C105.544 10.1935 106.565 10.7768 107.414 11.5678C107.931 12.0571 108.379 12.6142 108.746 13.2238C108.946 13.5518 109.124 13.8926 109.28 14.2438L109.487 14.8018C109.56 14.9911 109.62 15.1857 109.664 15.3838C109.888 16.2012 109.99 17.0475 109.964 17.8948C109.95 18.7943 109.799 19.6865 109.517 20.5408C109.229 21.4423 108.801 22.2927 108.248 23.0608C107.67 23.8603 106.952 24.5476 106.127 25.0888C105.292 25.6345 104.369 26.0342 103.4 26.2708C102.434 26.5049 101.437 26.5878 100.445 26.5168L99.716 26.4508C99.476 26.4238 99.236 26.3698 98.996 26.3278C98.5159 26.2365 98.042 26.1153 97.577 25.9648C96.6541 25.6424 95.7852 25.1822 95 24.5998C93.9234 23.7502 93.0767 22.6446 92.537 21.3838C92.0686 20.2814 91.8385 19.0924 91.862 17.8948C91.8773 15.9058 92.5692 13.9812 93.824 12.4378C94.8123 11.2203 96.1573 10.3432 97.67 9.92979C98.9113 9.61133 100.212 9.60617 101.456 9.91479C100.354 9.84708 99.2492 9.98545 98.198 10.3228C97.1028 10.6805 96.1105 11.2981 95.306 12.1228C94.4907 12.9767 93.8758 14.0015 93.506 15.1228C93.1488 16.2552 93.0334 17.4499 93.167 18.6298C93.3117 19.7777 93.7226 20.8759 94.367 21.8368C95.0064 22.7467 95.8607 23.4846 96.854 23.9848C97.8112 24.462 98.845 24.7667 99.908 24.8848C100.889 25.0011 101.883 24.9514 102.848 24.7378C104.296 24.4277 105.609 23.6649 106.595 22.5598C107.041 22.0355 107.417 21.4557 107.714 20.8348C107.983 20.2342 108.185 19.6052 108.314 18.9598C108.535 17.7746 108.489 16.5549 108.179 15.3898C107.902 14.3997 107.418 13.4795 106.76 12.6898C106.218 12.0484 105.567 11.5072 104.837 11.0908C104.681 10.9888 104.51 10.9258 104.357 10.8448C104.21 10.7655 104.059 10.6954 103.904 10.6348L103.472 10.4698L103.271 10.3918C103.205 10.3678 103.139 10.3528 103.073 10.3348C102.818 10.2598 102.59 10.1878 102.392 10.1248C102.194 10.0618 102.017 10.0348 101.879 9.98979C101.6 9.89979 101.459 9.80079 101.465 9.72279Z" fill="black"/>
<path d="M61.613 42.4288C67.988 37.6288 71.669 34.4308 72.515 26.6518C72.887 23.2528 72.788 20.0188 74.522 17.1538C75.2 16.0408 76.142 15.5218 77.414 15.2278C78.2501 15.0043 79.1274 14.9837 79.973 15.1678C85.913 16.6678 89.348 16.7248 95.708 15.7258C96.2658 15.6381 96.8358 15.7692 97.2992 16.0918C97.7626 16.4143 98.0835 16.9033 98.195 17.4568V17.5048C98.2516 17.7938 98.2496 18.0912 98.1892 18.3794C98.1288 18.6675 98.0112 18.9407 97.8433 19.1826C97.6755 19.4246 97.4609 19.6304 97.2121 19.7879C96.9633 19.9455 96.6855 20.0515 96.395 20.0998C90.269 21.1498 86.003 21.4468 79.973 19.9348C80.273 30.1768 80.774 33.2188 80.978 42.4348" fill="white"/>
<path d="M81.1581 42.417C80.9841 42.417 80.7981 40.017 80.4681 36.036C80.3001 34.038 80.0961 31.638 79.8681 28.932C79.6401 26.226 79.4661 23.193 79.3281 19.953C79.3216 19.7824 79.383 19.6162 79.4988 19.4908C79.6147 19.3654 79.7755 19.2911 79.9461 19.284C80.0029 19.2766 80.0603 19.2766 80.1171 19.284H80.1381C82.8692 19.9511 85.6766 20.2538 88.4871 20.184C89.969 20.1363 91.4471 20.0082 92.9151 19.8C93.6631 19.696 94.4151 19.58 95.1711 19.452L96.2901 19.257C96.5326 19.2097 96.7583 19.099 96.9441 18.936C97.1266 18.7736 97.2631 18.566 97.3402 18.3342C97.4172 18.1024 97.432 17.8544 97.3831 17.615C97.3342 17.3756 97.2233 17.1533 97.0615 16.9703C96.8997 16.7873 96.6927 16.6499 96.4611 16.572C96.3459 16.5378 96.2271 16.5166 96.1071 16.509C96.0472 16.5045 95.987 16.5045 95.9271 16.509H95.8371L95.6901 16.533L94.5201 16.71C93.7371 16.821 92.9511 16.923 92.1621 17.01C90.5795 17.1849 88.9862 17.2431 87.3951 17.184C85.8296 17.1125 84.2719 16.9199 82.7361 16.608C82.1361 16.485 81.5361 16.35 80.9361 16.212L80.0661 15.996C79.8233 15.9252 79.5756 15.872 79.3251 15.837C78.839 15.7907 78.3488 15.816 77.8701 15.912C77.395 15.9923 76.9321 16.1334 76.4931 16.332C76.1078 16.525 75.769 16.7993 75.5001 17.136C75.3561 17.301 75.2304 17.4811 75.1251 17.673C75.0051 17.88 74.8851 18.084 74.7861 18.297C74.3735 19.1335 74.071 20.0199 73.8861 20.934C73.5021 22.734 73.4121 24.534 73.2021 26.265C73.0205 27.9204 72.6553 29.5505 72.1131 31.125C71.6095 32.5383 70.902 33.8704 70.0131 35.079C69.2066 36.158 68.2808 37.1422 67.2531 38.013C66.3202 38.8151 65.3416 39.5624 64.3221 40.251C63.3441 40.926 62.3661 41.541 61.3971 42.138C63.1235 40.8785 64.7837 39.5307 66.3711 38.1C68.0285 36.6225 69.395 34.848 70.4001 32.868C70.8935 31.8483 71.2747 30.778 71.5371 29.676L71.6421 29.262L71.7201 28.839L71.8791 27.993C71.9481 27.42 72.0381 26.856 72.0891 26.274C72.1971 25.116 72.2541 23.937 72.3711 22.746C72.4722 21.5351 72.6933 20.3373 73.0311 19.17C73.2168 18.5802 73.4475 18.0056 73.7211 17.451C73.8741 17.175 74.0031 16.911 74.1921 16.629C74.377 16.3483 74.5945 16.0905 74.8401 15.861C75.3295 15.4085 75.9107 15.0668 76.5441 14.859C77.1392 14.6527 77.7564 14.5168 78.3831 14.454C78.7055 14.4255 79.0297 14.4255 79.3521 14.454C79.5171 14.4652 79.6813 14.4852 79.8441 14.514L80.0901 14.565L80.3031 14.616C80.8551 14.748 81.4071 14.874 81.9561 14.988C83.0571 15.213 84.1491 15.402 85.2321 15.525C87.3377 15.7577 89.4625 15.7577 91.5681 15.525C92.5941 15.426 93.6051 15.279 94.5921 15.132L95.3301 15.015C95.6266 14.9582 95.9284 14.934 96.2301 14.943C96.7336 14.9754 97.2207 15.1343 97.6465 15.4048C98.0723 15.6754 98.423 16.049 98.6661 16.491C98.8239 16.7751 98.9372 17.0817 99.0021 17.4C99.1262 18.0672 99.0205 18.7567 98.7021 19.356C98.384 19.9521 97.8763 20.4251 97.2591 20.7C97.1089 20.7669 96.9534 20.8211 96.7941 20.862L96.5541 20.916L96.3711 20.949L95.6601 21.069C93.8062 21.3956 91.9367 21.6269 90.0591 21.762C88.2695 21.8822 86.4729 21.848 84.6891 21.66C83.0331 21.4754 81.392 21.1746 79.7781 20.76L80.8251 19.92C80.9811 26.793 81.3651 32.397 81.4251 36.321C81.4851 40.245 81.3651 42.417 81.1581 42.417Z" fill="black"/>
<path d="M50.1351 95.655C36.5361 94.791 28.4721 86.055 29.3781 74.613C30.1431 64.956 36.8001 58.113 44.7561 57.291" fill="white"/>
<path d="M44.741 57.1202C44.741 57.1952 44.441 57.3182 43.904 57.4742C43.634 57.5552 43.304 57.6242 42.917 57.7742L42.317 57.9812C42.0842 58.0486 41.8566 58.1328 41.636 58.2332C41.1135 58.4355 40.6027 58.6668 40.106 58.9262L39.272 59.3642L38.426 59.9042C37.1513 60.7476 35.9942 61.7564 34.985 62.9042C32.5846 65.6842 31.0158 69.0839 30.458 72.7142C30.4104 72.9531 30.3763 73.1945 30.356 73.4372L30.278 74.1662C30.209 74.6522 30.197 75.1412 30.173 75.6302C30.1478 76.6089 30.1889 77.5881 30.296 78.5612C30.4093 79.5235 30.5938 80.4762 30.848 81.4112C31.1082 82.323 31.4351 83.2144 31.826 84.0782C32.8936 86.3368 34.4272 88.3438 36.326 89.9672C37.8511 91.2565 39.5397 92.3388 41.348 93.1862C42.8375 93.8818 44.3756 94.4683 45.95 94.9412C47.399 95.3822 48.77 95.7242 50.126 96.0332C47.4544 95.873 44.8146 95.3688 42.272 94.5332C39.539 93.6341 37.0091 92.2071 34.826 90.3332C32.6559 88.447 30.9671 86.0702 29.9 83.4002C28.944 80.9738 28.479 78.3817 28.532 75.7742C28.532 75.5282 28.553 75.2822 28.559 75.0362C28.565 74.7902 28.577 74.5442 28.61 74.3042C28.664 73.8182 28.718 73.3382 28.769 72.8642C28.82 72.3902 28.943 71.9282 29.027 71.4662C29.078 71.2382 29.105 71.0042 29.174 70.7822C29.243 70.5602 29.297 70.3352 29.36 70.1132C29.6013 69.2476 29.8938 68.3971 30.236 67.5662L30.791 66.3902L30.929 66.0902C30.98 65.9942 31.034 65.9042 31.088 65.8142L31.388 65.2682L31.688 64.7342C31.79 64.5542 31.919 64.3952 32.033 64.2272C32.267 63.9002 32.492 63.5702 32.723 63.2552C33.1906 62.6633 33.6914 62.0984 34.223 61.5632C35.1832 60.6152 36.2492 59.7807 37.4 59.0762C37.94 58.7762 38.438 58.4762 38.933 58.2572C39.428 58.0382 39.902 57.8312 40.355 57.6752L41.621 57.2912C42.017 57.2072 42.383 57.1442 42.707 57.0872L43.166 57.0122C43.313 57.0122 43.448 57.0122 43.574 56.9912C43.829 56.9912 44.042 56.9912 44.213 56.9912C44.552 57.0002 44.732 57.0422 44.741 57.1202Z" fill="black"/>
<path d="M84.369 108.233C108.158 105.88 125.795 87.3204 123.763 66.7796C121.731 46.2387 100.799 31.495 77.0099 33.8485C53.221 36.202 35.5836 54.7615 37.6157 75.3023C39.6479 95.8431 60.58 110.587 84.369 108.233Z" fill="white"/>
<path d="M123.986 66.7561C123.935 66.7561 123.842 66.4321 123.713 65.8051C123.641 65.5051 123.587 65.1001 123.476 64.6411L123.104 63.0631C122.936 62.4631 122.753 61.8181 122.54 61.1041L122.159 60.0001L121.955 59.4001C121.877 59.2051 121.796 59.0041 121.712 58.8001C120.984 56.9425 120.089 55.1551 119.036 53.4601C116.228 48.9493 112.499 45.0829 108.092 42.1141C105.432 40.3218 102.585 38.823 99.6021 37.6441C96.3256 36.367 92.9163 35.4614 89.4381 34.9441L88.0761 34.7611C87.6231 34.6951 87.1581 34.6711 86.6991 34.6231C85.7751 34.5241 84.8391 34.4971 83.8971 34.4491C77.9916 34.2753 72.1018 35.1425 66.4971 37.0111C64.5576 37.678 62.6601 38.4614 60.8151 39.3571C58.9472 40.2806 57.1432 41.328 55.4151 42.4921C53.6664 43.6685 52.0105 44.9773 50.4621 46.4071C48.8888 47.8375 47.4368 49.3958 46.1211 51.0661C43.4546 54.4317 41.4151 58.2495 40.1001 62.3371C38.7903 66.4126 38.3185 70.711 38.7129 74.9736C39.1073 79.2362 40.3598 83.3751 42.3951 87.1411C44.4016 90.8287 47.0443 94.1325 50.2011 96.9001C50.4831 97.1671 50.8011 97.4041 51.0831 97.6471L51.9681 98.3731L52.8831 99.0541C53.1831 99.2791 53.4831 99.5101 53.8011 99.7141C54.4281 100.131 55.0341 100.563 55.6761 100.935L56.6211 101.508L57.5871 102.039C60.081 103.395 62.7002 104.506 65.4081 105.357C72.6924 107.585 80.3947 108.092 87.9081 106.836C90.1285 106.474 92.3217 105.961 94.4721 105.3C96.5006 104.662 98.4875 103.899 100.421 103.014C102.245 102.159 104.015 101.194 105.722 100.125C112.346 95.9251 117.158 90.4831 120.221 84.7051C120.584 83.9701 120.971 83.2531 121.277 82.5091C121.436 82.1401 121.61 81.7771 121.754 81.4051L122.177 80.2891C122.327 79.9201 122.447 79.5451 122.564 79.1701C122.681 78.7951 122.804 78.4201 122.921 78.0481L123.221 76.9171C123.32 76.5421 123.422 76.1671 123.491 75.7861C124.13 72.8171 124.38 69.7776 124.235 66.7441C124.503 69.5193 124.421 72.3172 123.992 75.0721C123.547 77.9148 122.753 80.6918 121.628 83.3401C119.233 88.8125 115.638 93.6764 111.11 97.5721C106.447 101.579 101.046 104.636 95.2101 106.572C89.3084 108.521 83.1013 109.38 76.8921 109.107C70.7076 108.853 64.6313 107.401 59.0001 104.832C53.4591 102.261 48.4581 98.6071 44.6601 94.0471C42.768 91.804 41.1562 89.3389 39.8601 86.7061C36.2067 79.2089 35.4648 70.6229 37.7781 62.6101C38.3678 60.5705 39.1337 58.586 40.0671 56.6791C40.9971 54.8192 42.0693 53.0339 43.2741 51.3391C45.6305 48.0694 48.4408 45.1521 51.6201 42.6751L52.7901 41.7751C53.1831 41.4751 53.5911 41.2141 53.9901 40.9381L54.5901 40.5241L55.1901 40.1371C55.6011 39.8821 56.0061 39.6211 56.4141 39.3721C57.2541 38.9071 58.0671 38.4091 58.9191 37.9951C59.3451 37.7821 59.7591 37.5571 60.1851 37.3591L61.4661 36.7741C61.8891 36.5731 62.3211 36.4021 62.7531 36.2281C63.1851 36.0541 63.6111 35.8771 64.0431 35.7151L65.3421 35.2531L65.9901 35.0251L66.6441 34.8271L67.9461 34.4311C68.3781 34.3051 68.8161 34.2031 69.2511 34.0891C70.1151 33.8491 70.9911 33.6751 71.8551 33.4891C78.383 32.1806 85.1044 32.1683 91.6371 33.4531C97.2465 34.5451 102.6 36.6823 107.42 39.7531C111.338 42.2616 114.783 45.4401 117.599 49.1431C118.723 50.6557 119.731 52.2512 120.614 53.9161L121.175 55.0561C121.262 55.2421 121.358 55.4251 121.439 55.6081C121.52 55.7911 121.595 55.9771 121.67 56.1601L122.114 57.2191C122.249 57.5671 122.36 57.9121 122.48 58.2451C123.197 60.2738 123.687 62.3756 123.941 64.5121C124.1 66.0001 124.079 66.7501 123.986 66.7561Z" fill="black"/>
<path d="M101.969 51.5102C102.347 55.3442 99.5689 57.2913 95.7079 57.6723C91.8469 58.0533 88.3639 56.7273 87.9859 52.8963C87.8183 51.0505 88.3868 49.2132 89.5676 47.7847C90.7484 46.3561 92.4458 45.452 94.2901 45.2691C96.1345 45.0863 97.9763 45.6397 99.4146 46.8086C100.853 47.9776 101.771 49.6675 101.969 51.5102Z" fill="#FF4500"/>
<path d="M102.116 51.495C102.05 51.495 101.951 51.288 101.816 50.895C101.753 50.703 101.648 50.472 101.552 50.202C101.495 50.07 101.423 49.932 101.354 49.785L101.249 49.557C101.204 49.485 101.159 49.407 101.114 49.329C100.693 48.5854 100.14 47.9247 99.482 47.379C98.2051 46.3117 96.5793 45.753 94.916 45.81C94.2997 45.8425 93.6899 45.9524 93.101 46.137C92.4988 46.3431 91.9268 46.6286 91.4 46.986C90.872 47.368 90.4003 47.8225 89.999 48.336C89.5926 48.8544 89.2744 49.4362 89.057 50.058C88.8309 50.6776 88.7103 51.3306 88.7 51.99C88.6729 52.6352 88.7551 53.2803 88.943 53.898C89.1285 54.4784 89.4423 55.0095 89.861 55.452C90.1684 55.769 90.5201 56.0398 90.905 56.256C91.2875 56.4591 91.6895 56.623 92.105 56.745C92.8961 56.9687 93.713 57.0877 94.535 57.099C95.2819 57.1174 96.029 57.0682 96.767 56.952C97.4223 56.8577 98.0658 56.6948 98.687 56.466C99.2397 56.258 99.7622 55.9776 100.241 55.632C100.673 55.298 101.049 54.8981 101.357 54.447C101.908 53.5501 102.228 52.5308 102.29 51.48C102.405 52.458 102.273 53.4491 101.906 54.363L101.753 54.717L101.558 55.05C101.421 55.2717 101.269 55.4832 101.102 55.683C100.756 56.078 100.357 56.4232 99.917 56.709C99.0284 57.2797 98.0401 57.6776 97.004 57.882C95.9737 58.1068 94.9202 58.2075 93.866 58.182C92.7923 58.1691 91.7306 57.9533 90.737 57.546C89.7183 57.1334 88.8482 56.4222 88.241 55.506C87.688 54.6167 87.3729 53.6002 87.326 52.554C87.2666 51.5993 87.3908 50.642 87.692 49.734C88.1603 48.3369 89.0217 47.1046 90.173 46.185C90.7131 45.7569 91.306 45.4 91.937 45.123C92.5394 44.8696 93.1714 44.6932 93.818 44.598C94.9134 44.4259 96.0332 44.498 97.0974 44.8092C98.1616 45.1204 99.1439 45.6629 99.974 46.398C100.831 47.1645 101.491 48.1254 101.9 49.2C102.002 49.5 102.068 49.755 102.134 49.992C102.2 50.229 102.206 50.451 102.23 50.637C102.242 50.7938 102.242 50.9512 102.23 51.108C102.227 51.36 102.2 51.489 102.116 51.495Z" fill="black"/>
<path d="M60.2001 57.81C60.2661 61.434 57.8421 63.33 54.6231 63.768C51.4041 64.206 48.6081 63.015 48.5421 59.391C48.4761 55.767 51.0351 52.476 54.2421 52.041C57.4491 51.606 60.1191 54.186 60.2001 57.81Z" fill="#FF4500"/>
<path d="M60.335 57.8072C60.173 57.8072 60.122 57.0002 59.618 55.8182C59.33 55.1267 58.9113 54.4972 58.385 53.9642C57.7454 53.307 56.9263 52.8531 56.03 52.6592C55.5372 52.5524 55.0295 52.5331 54.53 52.6022C54.4003 52.6112 54.2718 52.6323 54.146 52.6652C54.017 52.6952 53.888 52.7192 53.759 52.7552C53.5021 52.8369 53.2515 52.9372 53.009 53.0552C52.5022 53.2878 52.0338 53.5963 51.62 53.9702C51.1856 54.3516 50.8042 54.7895 50.486 55.2722C49.8251 56.2577 49.418 57.3913 49.301 58.5722C49.172 59.7482 49.352 60.9242 49.934 61.7432C50.1515 62.0404 50.4184 62.2981 50.723 62.5052C51.0258 62.7026 51.3551 62.8562 51.701 62.9612C52.3761 63.1667 53.0808 63.258 53.786 63.2312C55.0176 63.2181 56.2313 62.9344 57.341 62.4002C57.8074 62.1731 58.2379 61.879 58.619 61.5272C58.9779 61.2012 59.2881 60.8254 59.54 60.4112C60.0206 59.6122 60.3463 58.7298 60.5 57.8102C60.52 58.6737 60.3786 59.5335 60.083 60.3452C59.7475 61.2061 59.2044 61.9708 58.502 62.5712C57.7708 63.1676 56.9285 63.6132 56.024 63.8822C55.1232 64.162 54.1863 64.3086 53.243 64.3172C52.268 64.3413 51.301 64.1358 50.42 63.7172C49.9747 63.4955 49.5692 63.2015 49.22 62.8472L48.977 62.5472L48.857 62.4032L48.755 62.2472L48.554 61.9472C48.497 61.8392 48.449 61.7282 48.395 61.6172C48.0292 60.7658 47.86 59.8429 47.9 58.9172C47.9194 58.0794 48.064 57.2492 48.329 56.4542C49.169 53.9312 51.188 52.0082 53.429 51.4352C54.4915 51.1591 55.6103 51.1882 56.657 51.5192C57.5473 51.8127 58.3476 52.3291 58.982 53.0192C59.4885 53.5623 59.8858 54.1979 60.152 54.8912C60.2131 55.0321 60.2632 55.1775 60.302 55.3262C60.344 55.4672 60.386 55.6022 60.419 55.7342C60.464 56.0012 60.512 56.2382 60.533 56.4572C60.554 56.6762 60.551 56.8682 60.554 57.0332C60.5469 57.173 60.5309 57.3123 60.506 57.4502C60.455 57.6932 60.401 57.8072 60.335 57.8072Z" fill="black"/>
<path d="M91.538 63.2821C91.658 63.4501 91.187 63.9991 90.269 64.8181C89.804 65.2201 89.201 65.6401 88.514 66.1291C88.169 66.3661 87.779 66.5791 87.38 66.8221C86.981 67.0651 86.561 67.3201 86.102 67.5301L84.686 68.2171C84.191 68.4361 83.669 68.6311 83.141 68.8411C82.613 69.0511 82.061 69.2311 81.5 69.4081C80.939 69.5851 80.369 69.7711 79.781 69.8971L78.899 70.1071C78.599 70.1761 78.299 70.2511 77.999 70.2931L76.199 70.5931L74.399 70.7641C74.099 70.7971 73.799 70.8091 73.499 70.8121L72.599 70.8331C69.8216 70.904 67.0515 70.5168 64.4 69.6871L63.65 69.4291L63.29 69.3001L62.948 69.1441C62.498 68.9401 62.078 68.7301 61.679 68.5201C61.2932 68.3098 60.9223 68.0733 60.569 67.8121C60.221 67.5661 59.894 67.3111 59.579 67.0501C62.4802 68.1585 65.5443 68.7808 68.648 68.8921C71.6173 69.0062 74.5895 68.7634 77.501 68.1691C80.97 67.4599 84.3391 66.3285 87.533 64.8001C88.133 64.5001 88.646 64.2451 89.12 64.0321L89.462 63.8791L89.762 63.7231C89.962 63.6271 90.145 63.5431 90.311 63.4711C90.992 63.1921 91.418 63.1111 91.538 63.2821Z" fill="black"/>
<path d="M110.9 45.123C122.564 37.527 135.743 51.099 134.9 65.025C134.327 74.529 126.245 81.699 117.944 81.507" fill="white"/>
<path d="M117.944 81.7321C117.944 81.4981 119.327 81.4531 121.469 80.7991C122.731 80.4076 123.945 79.8742 125.087 79.2091C125.772 78.8057 126.431 78.3598 127.061 77.8741C127.743 77.3381 128.387 76.7546 128.987 76.1281C130.304 74.7535 131.39 73.1739 132.2 71.4511C133.078 69.599 133.616 67.6044 133.79 65.5621C133.866 64.5054 133.866 63.4447 133.79 62.3881C133.73 61.8601 133.706 61.3261 133.607 60.7981L133.484 60.0091L133.319 59.2261L133.235 58.8331L133.13 58.4491L132.926 57.6781L132.677 56.9191L132.557 56.5441L132.416 56.1721C132.32 55.9261 132.227 55.6801 132.134 55.4341C132.041 55.1881 131.921 54.9541 131.816 54.7171C131.618 54.2311 131.363 53.7781 131.138 53.3161C129.863 50.8972 128.139 48.7429 126.059 46.9681C125.187 46.248 124.249 45.6121 123.257 45.0691C122.367 44.5906 121.432 44.2036 120.464 43.9141C118.764 43.4239 116.984 43.276 115.226 43.4791C113.642 43.6816 112.093 44.1015 110.624 44.7271C111.857 43.9383 113.198 43.332 114.605 42.9271C116.1 42.505 117.66 42.3616 119.207 42.5041C120.8 42.6571 122.356 43.0791 123.809 43.7521C125.271 44.4295 126.635 45.3024 127.862 46.3471C130.251 48.4063 132.191 50.9346 133.562 53.7751C133.721 54.1201 133.895 54.4561 134.036 54.8041L134.462 55.8421C134.582 56.1931 134.705 56.5411 134.825 56.8861C134.945 57.2311 135.032 57.5851 135.125 57.9271C135.5 59.2618 135.749 60.6288 135.869 62.0101C135.905 62.2831 135.917 62.5591 135.926 62.8321C135.935 63.1051 135.95 63.3781 135.959 63.6481C135.959 64.1911 135.959 64.7281 135.923 65.2621C135.875 66.3115 135.733 67.3547 135.5 68.3791C135.267 69.3603 134.956 70.3214 134.57 71.2531C134.196 72.1346 133.757 72.987 133.256 73.8031C131.556 76.5901 129.137 78.8686 126.254 80.4001C124.386 81.4061 122.319 81.9879 120.2 82.1041C118.7 82.1491 117.935 81.9181 117.944 81.7321Z" fill="black"/>
<path d="M67.2652 36.6002C76.5022 33.7652 83.3782 33.1862 95.7412 36.0782L96.6802 36.8132C84.9652 35.9942 89.1802 42.4082 86.7232 44.5292C83.5492 47.2922 82.0402 44.6492 78.2332 45.4292C74.4262 46.2092 71.7502 50.8892 67.6402 49.9532C65.4712 49.4042 64.3732 47.0492 62.7112 45.5492C60.2452 43.3202 56.1712 43.1492 53.5282 45.1682C55.4212 42.2342 61.5532 38.8892 66.1432 37.0862" fill="#7AF5E5"/>
<path d="M66.0799 36.9002C66.1309 37.0352 64.7359 37.6742 62.4139 38.9492C61.2559 39.5912 59.8669 40.3952 58.3579 41.4182C57.5587 41.9557 56.7896 42.5366 56.0539 43.1582C55.2559 43.8117 54.5549 44.5753 53.9719 45.4262L53.2099 44.7212C54.5508 43.6937 56.1916 43.1342 57.8809 43.1282C59.7311 43.0873 61.5366 43.699 62.9809 44.8562C63.6766 45.4616 64.3143 46.1305 64.8859 46.8542C65.4043 47.5172 66.0006 48.1155 66.6619 48.6362C66.9667 48.8561 67.3051 49.0253 67.6639 49.1372C68.0318 49.24 68.4131 49.2865 68.7949 49.2752C69.6119 49.2268 70.4062 48.9874 71.1139 48.5762C72.6469 47.7482 74.0539 46.4132 75.8689 45.4172C76.3338 45.1619 76.8207 44.949 77.3239 44.7812C77.585 44.6981 77.8504 44.629 78.1189 44.5742C78.3829 44.5352 78.6439 44.4872 78.9109 44.4572C79.9577 44.3778 81.0104 44.4628 82.0309 44.7092C82.4685 44.8097 82.9111 44.8868 83.3569 44.9402C83.7346 44.9839 84.1173 44.9565 84.4849 44.8592L84.7489 44.7782C84.8389 44.7482 84.9229 44.6972 85.0099 44.6582C85.1915 44.5739 85.3652 44.4735 85.5289 44.3582L85.6579 44.2772L85.7809 44.1812L86.0299 43.9832L86.1559 43.8842C86.1834 43.8597 86.2094 43.8337 86.2339 43.8062C86.2869 43.7575 86.3333 43.702 86.3719 43.6412C86.5647 43.3378 86.6924 42.9976 86.7469 42.6422C86.8309 42.2312 86.8849 41.7722 86.9539 41.2952C87.0165 40.7884 87.1168 40.287 87.2539 39.7952C87.4052 39.2589 87.6455 38.7518 87.9649 38.2952C88.2389 37.8973 88.5812 37.5509 88.9759 37.2722C89.3432 37.0073 89.741 36.7877 90.1609 36.6182C90.9194 36.3218 91.7147 36.13 92.5249 36.0482C93.9206 35.9006 95.3274 35.8916 96.7249 36.0212L96.1999 37.4132L95.2699 36.6662L95.5699 36.8072C92.6283 36.0758 89.6488 35.5059 86.6449 35.1002C84.1686 34.7656 81.6703 34.6201 79.1719 34.6652C74.5909 34.7732 70.7719 35.5352 67.1569 36.2582C69.3503 35.5756 71.5772 35.0059 73.8289 34.5512C76.2122 34.086 78.6311 33.827 81.0589 33.7772C86.0089 33.6692 91.0429 34.4852 95.8669 35.5412L95.9779 35.5652L96.0829 35.6462L97.0279 36.3722L98.4709 37.4792L96.6409 37.3832C95.6179 37.3187 94.5919 37.3187 93.5689 37.3832C92.5988 37.4375 91.6428 37.6399 90.7339 37.9832C89.9254 38.2875 89.2698 38.8989 88.9099 39.6842C88.5619 40.4642 88.4929 41.4062 88.3579 42.4142C88.2966 42.9638 88.1613 43.5027 87.9559 44.0162C87.8333 44.3065 87.6674 44.5766 87.4639 44.8172L87.2929 44.9912L87.2089 45.0782L87.1309 45.1412L86.8309 45.3902C86.7259 45.4682 86.6299 45.5582 86.5159 45.6302L86.1769 45.8492C85.946 45.9963 85.7031 46.1237 85.4509 46.2302C84.9344 46.4503 84.3802 46.5685 83.8189 46.5782C83.3058 46.5836 82.7937 46.5322 82.2919 46.4252C81.8239 46.3382 81.3919 46.2422 80.9839 46.1792C80.2064 46.0408 79.4111 46.0358 78.6319 46.1642C77.4139 46.3442 76.3039 47.0222 75.2149 47.7812C74.1259 48.5402 73.0549 49.4102 71.7829 50.0792C71.134 50.4305 70.4348 50.6794 69.7099 50.8172C68.967 50.9504 68.2049 50.933 67.4689 50.7662C66.7394 50.5769 66.0605 50.2297 65.4799 49.7492C64.9702 49.3247 64.5012 48.8537 64.0789 48.3422C63.2719 47.3942 62.5789 46.4822 61.8049 45.8852C61.4114 45.5844 60.9821 45.3335 60.5269 45.1382C60.3041 45.0399 60.0757 44.9548 59.8429 44.8832C59.6059 44.8202 59.3749 44.7512 59.1379 44.7092C58.2563 44.5322 57.3478 44.5373 56.4683 44.724C55.5887 44.9108 54.7565 45.2753 54.0229 45.7952L50.1229 48.7022L52.8559 44.7002C53.5626 43.72 54.4143 42.853 55.3819 42.1292C56.1916 41.4989 57.0392 40.9188 57.9199 40.3922C59.3003 39.5576 60.7322 38.8111 62.2069 38.1572C64.6219 37.1042 66.0229 36.7472 66.0799 36.9002Z" fill="#14D8C3"/>
<path d="M42.257 86.7602C41.4823 85.1194 41.0408 83.3412 40.9578 81.5286C40.8749 79.716 41.1524 77.9049 41.774 76.2002C42.455 74.3612 43.988 72.4472 45.929 72.6992C47.654 72.9242 48.671 74.7152 49.319 76.3262C49.967 77.9372 50.705 79.8002 52.337 80.4002C54.962 81.3812 57.845 78.4262 60.491 79.3532C62.309 79.9922 63.053 82.1402 63.35 84.0452C63.647 85.9502 63.8 88.0562 65.189 89.4002C66.578 90.7442 68.849 90.9002 70.499 91.9862C72.371 93.2282 73.199 95.4992 74.288 97.4582C76.644 101.62 80.5357 104.695 85.1301 106.023C76.8414 107.522 68.2917 106.396 60.6738 102.802C53.0558 99.2088 46.7496 93.3269 42.635 85.9772" fill="#7AF5E5"/>
<path d="M42.482 86.0671C42.605 86.0011 43.382 87.2911 44.993 89.3971C47.2204 92.3226 49.8101 94.9536 52.7 97.2271C57.2053 100.776 62.4146 103.325 67.9814 104.704C73.5481 106.084 79.3448 106.262 84.986 105.228L84.908 106.815C82.8284 106.224 80.8645 105.283 79.1 104.034C77.3361 102.776 75.7948 101.231 74.54 99.4651C73.9348 98.585 73.3934 97.6626 72.92 96.7051C72.4975 95.8196 72.0123 94.9654 71.468 94.1491C71.2101 93.7813 70.9145 93.4415 70.586 93.1351C70.2679 92.8449 69.9116 92.5996 69.527 92.4061C68.735 91.9951 67.784 91.7341 66.8 91.3381C66.403 91.1813 66.018 90.9958 65.648 90.7831C65.2606 90.5536 64.9021 90.2787 64.58 89.9641C63.9776 89.3371 63.5261 88.5809 63.26 87.7531C63.0248 87.0214 62.8541 86.2706 62.75 85.5091C62.639 84.7891 62.564 84.0961 62.435 83.4781C62.177 82.2331 61.688 81.0781 60.902 80.4391C60.7095 80.289 60.4963 80.1677 60.269 80.0791C60.155 80.0371 60.035 80.0161 59.918 79.9771C59.7972 79.9521 59.6749 79.9351 59.552 79.9261C59.0159 79.9071 58.4805 79.9781 57.968 80.1361C56.873 80.4361 55.76 80.9521 54.506 81.1861C53.8524 81.3109 53.18 81.2976 52.532 81.1471C51.8848 80.9863 51.2918 80.6572 50.813 80.1931C49.913 79.2931 49.454 78.2371 49.061 77.2711L48.782 76.5481C48.695 76.3231 48.605 76.0981 48.506 75.8791C48.3234 75.4546 48.1057 75.0462 47.855 74.6581C47.369 73.9081 46.727 73.3321 45.968 73.1791C45.5846 73.1103 45.1906 73.1285 44.8152 73.2324C44.4398 73.3362 44.0925 73.5231 43.799 73.7791C43.1775 74.3047 42.6674 74.9493 42.299 75.6751C41.9392 76.3959 41.6547 77.1519 41.45 77.9311C41.0423 79.43 40.8842 80.9858 40.982 82.5361C41.0688 84.0319 41.3897 85.5048 41.933 86.9011C40.733 84.3495 40.3205 81.4982 40.748 78.7111C40.8605 77.9936 41.027 77.2856 41.246 76.5931C41.4625 75.8767 41.7721 75.1918 42.167 74.5561C42.574 73.8935 43.1107 73.32 43.745 72.8701C44.086 72.6432 44.462 72.474 44.858 72.3691C45.2659 72.2653 45.691 72.248 46.106 72.3181C46.5209 72.3844 46.9179 72.5344 47.273 72.7591C47.6179 72.9767 47.9301 73.2423 48.2 73.5481C48.7078 74.1416 49.1272 74.8055 49.445 75.5191C49.769 76.2241 50.012 76.9081 50.345 77.5531C50.6247 78.189 51.0124 78.7716 51.491 79.2751C51.7202 79.5036 51.9846 79.6941 52.274 79.8391L52.49 79.9291C52.565 79.9591 52.643 79.9711 52.721 79.9951C52.799 80.0191 52.871 80.0401 52.949 80.0551L53.189 80.0821C53.8713 80.118 54.5539 80.016 55.196 79.7821C55.883 79.5631 56.573 79.2721 57.296 79.0321C58.0631 78.7479 58.8784 78.6164 59.696 78.6451C59.912 78.6543 60.1263 78.6875 60.335 78.7441L60.653 78.8251C60.755 78.8611 60.857 78.9061 60.953 78.9481C61.3515 79.1258 61.7168 79.3703 62.033 79.6711C62.6167 80.2587 63.066 80.966 63.35 81.7441C63.6296 82.4757 63.8307 83.235 63.95 84.0091C64.07 84.7471 64.169 85.4701 64.316 86.1541C64.4429 86.8147 64.6653 87.4534 64.976 88.0501C65.2692 88.5985 65.7017 89.06 66.23 89.3881C67.304 90.0751 68.732 90.3211 70.13 90.9811C70.8409 91.3203 71.4835 91.787 72.026 92.3581C72.5349 92.9065 72.9806 93.5103 73.355 94.1581C74.093 95.3971 74.633 96.6331 75.314 97.7011C76.6309 99.7806 78.368 101.562 80.414 102.93C81.9357 103.957 83.6105 104.737 85.376 105.24L88.757 106.212L85.298 106.833C81.7364 107.48 78.1053 107.656 74.498 107.355C72.8184 107.211 71.1487 106.969 69.497 106.632C67.9338 106.299 66.3895 105.883 64.871 105.384C59.7427 103.666 55.0135 100.931 50.966 97.3441C48.3324 95.0274 46.0362 92.3534 44.144 89.4001C43.808 88.8931 43.544 88.4191 43.322 88.0171C43.1 87.6151 42.92 87.2641 42.788 86.9761C42.524 86.4001 42.419 86.1001 42.482 86.0671Z" fill="#14D8C3"/>
<path d="M108.158 97.5929C105.338 99.7919 103.214 101.115 99.6771 101.625C98.7591 101.757 97.8021 101.826 96.9231 101.532C96.0441 101.238 95.2581 100.506 95.1471 99.5849C94.9551 97.9469 96.8541 96.5849 96.6291 94.9649C96.3291 92.7569 92.8251 92.6969 91.7241 90.7649C91.1901 89.8229 91.3671 88.6049 91.8951 87.6569C92.4231 86.7089 93.2601 85.9799 94.0791 85.2569C96.2121 83.3939 96.8931 81.1589 99.0291 79.2959C100.199 78.2759 103.4 77.6009 104.6 78.5819C105.356 79.1999 105.422 80.3129 105.875 81.1769C106.619 82.5959 107.879 83.5379 109.856 83.5979C111.656 83.6549 112.835 81.6989 114.626 81.8279C117.965 82.0649 117.989 84.7919 119.165 83.5559C115.61 90.3809 113.108 93.3899 108.239 97.4909" fill="#7AF5E5"/>
<path d="M108.383 97.6651C108.317 97.5841 108.611 97.2031 109.199 96.5611C109.787 95.9191 110.663 95.0101 111.698 93.8281C112.923 92.4308 114.04 90.9414 115.037 89.3731C116.283 87.3724 117.418 85.3053 118.439 83.1811L119.759 84.1201C119.591 84.3124 119.387 84.4703 119.159 84.5851C118.977 84.6711 118.778 84.7142 118.577 84.7111C118.383 84.7042 118.193 84.6572 118.019 84.5731C117.809 84.4673 117.616 84.3308 117.446 84.1681L117.098 83.8441C116.564 83.2869 115.862 82.9202 115.1 82.8001C114.861 82.7607 114.619 82.7436 114.377 82.7491C114.16 82.7805 113.949 82.8421 113.75 82.9321C113.497 83.0531 113.253 83.1904 113.018 83.3431C112.416 83.773 111.765 84.1276 111.077 84.3991C110.646 84.545 110.191 84.6111 109.736 84.5941C109.338 84.5801 108.943 84.5309 108.554 84.4471C107.724 84.27 106.948 83.8943 106.295 83.3521C105.972 83.0765 105.682 82.7644 105.431 82.4221C105.179 82.0821 104.965 81.716 104.792 81.3301C104.621 80.9371 104.516 80.5861 104.411 80.2861C104.335 80.0438 104.229 79.812 104.096 79.5961C104.054 79.5328 104.003 79.4754 103.946 79.4251C103.893 79.3872 103.836 79.356 103.775 79.3321C103.559 79.2489 103.331 79.2042 103.1 79.2001C102.523 79.1747 101.945 79.2384 101.387 79.3891C100.847 79.5146 100.332 79.7328 99.866 80.0341L99.74 80.1331L99.569 80.2891C99.455 80.3911 99.344 80.4991 99.239 80.6131C99.0187 80.8348 98.8104 81.0681 98.615 81.3121C98.216 81.8011 97.841 82.3381 97.454 82.8991C97.067 83.4601 96.656 84.0511 96.188 84.6181C95.957 84.9001 95.711 85.1791 95.45 85.4431C95.318 85.5751 95.189 85.7071 95.048 85.8301C94.907 85.9531 94.769 86.0851 94.649 86.1871C93.9477 86.7334 93.3398 87.3899 92.849 88.1311C92.6711 88.4072 92.5509 88.7164 92.4957 89.0402C92.4406 89.364 92.4515 89.6956 92.528 90.0151C92.6283 90.2799 92.7896 90.5173 92.999 90.7081C93.2736 90.9505 93.5757 91.1599 93.899 91.3321C94.691 91.7245 95.4575 92.1663 96.194 92.6551C96.6345 92.9771 96.9965 93.3945 97.253 93.8761C97.316 94.0111 97.376 94.1431 97.427 94.2781C97.478 94.4131 97.493 94.5541 97.523 94.6951C97.5521 94.8331 97.5662 94.974 97.565 95.1151C97.5712 95.2533 97.5651 95.3919 97.547 95.5291C97.4798 96.0079 97.3285 96.471 97.1 96.8971C96.908 97.2781 96.701 97.6051 96.521 97.9021C96.161 98.5021 95.903 99.0181 95.921 99.4321C95.936 99.6599 96.0021 99.8814 96.1142 100.08C96.2264 100.279 96.3818 100.45 96.569 100.581C96.7674 100.737 96.9891 100.86 97.226 100.947C97.4775 101.036 97.738 101.098 98.003 101.13C98.5655 101.189 99.1325 101.189 99.695 101.13C100.794 101.046 101.881 100.851 102.941 100.548C104.987 99.9481 106.763 98.9221 108.461 97.9561C107.06 99.0361 105.548 100.164 103.766 100.956C102.867 101.359 101.929 101.669 100.967 101.883C100.484 101.988 99.995 102.078 99.5 102.147C98.9849 102.225 98.4635 102.254 97.943 102.231C97.3792 102.21 96.8254 102.076 96.314 101.838C95.7738 101.582 95.3142 101.182 94.985 100.683C94.8111 100.416 94.689 100.119 94.625 99.8071C94.5726 99.4932 94.5726 99.1729 94.625 98.8591C94.7391 98.3062 94.9417 97.7754 95.225 97.2871C95.717 96.3871 96.197 95.5681 95.99 94.9261C95.8954 94.5784 95.6834 94.2742 95.39 94.0651C95.0277 93.7975 94.6386 93.5683 94.229 93.3811C93.791 93.1681 93.329 92.9551 92.852 92.6911C92.3372 92.4213 91.8741 92.0628 91.484 91.6321C91.3742 91.5142 91.2739 91.3878 91.184 91.2541C91.0906 91.1211 91.0102 90.9795 90.944 90.8311C90.8106 90.5387 90.7207 90.2284 90.677 89.9101C90.6017 89.305 90.659 88.6908 90.845 88.1101C91.2192 87.0593 91.8516 86.1195 92.684 85.3771C92.867 85.1971 93.05 85.0261 93.233 84.8611L93.503 84.6151L93.743 84.3871C94.0584 84.083 94.3521 83.7572 94.622 83.4121C95.174 82.7251 95.654 81.9541 96.188 81.1741C96.7179 80.3629 97.3269 79.6062 98.006 78.9151L98.27 78.6631L98.405 78.5371L98.582 78.3961C98.694 78.3058 98.8123 78.2236 98.936 78.1501C99.049 78.0764 99.1662 78.0092 99.287 77.9491C100.607 77.2724 102.09 76.9783 103.568 77.1001C103.715 77.1241 103.868 77.1451 104.009 77.1751C104.15 77.2051 104.309 77.2531 104.465 77.3071C104.627 77.3689 104.784 77.4421 104.936 77.5261C105.096 77.6205 105.248 77.729 105.389 77.8501C105.64 78.0789 105.852 78.3475 106.016 78.6451C106.152 78.8913 106.269 79.1481 106.364 79.4131C106.535 79.8871 106.664 80.2861 106.79 80.5711C106.823 80.6371 106.862 80.7121 106.91 80.7901C106.958 80.8681 107 80.9401 107.045 81.0121C107.137 81.1518 107.237 81.2861 107.345 81.4141C107.773 81.895 108.34 82.2298 108.968 82.3711C109.13 82.4113 109.294 82.4403 109.46 82.4581C109.541 82.4581 109.625 82.4761 109.712 82.4791H109.841H109.949C110.207 82.4684 110.461 82.404 110.693 82.2901C111.263 82.0411 111.893 81.5191 112.793 81.0901C113.277 80.8558 113.802 80.7192 114.338 80.6881C114.476 80.6881 114.638 80.6881 114.755 80.6881L115.097 80.7211C115.327 80.7504 115.555 80.7915 115.781 80.8441C116.241 80.9533 116.685 81.1228 117.101 81.3481C117.502 81.5661 117.873 81.8332 118.208 82.1431C118.367 82.2841 118.508 82.4431 118.637 82.5511C118.721 82.6392 118.81 82.7224 118.904 82.8001C118.893 82.8129 118.884 82.827 118.877 82.8421C118.833 82.9086 118.793 82.9777 118.757 83.0491C118.729 83.0952 118.705 83.1433 118.685 83.1931C118.685 83.2231 118.667 83.2411 118.664 83.2531C118.657 83.2664 118.652 83.2805 118.649 83.2951C118.616 83.4031 118.649 83.4211 118.613 83.2951V83.2621C118.596 83.2019 118.568 83.1451 118.532 83.0941C118.506 83.0382 118.476 82.984 118.442 82.9321L118.388 82.8571C118.37 82.8361 118.34 82.8001 118.352 82.8091L118.37 82.7911L118.412 82.7551L122.84 78.9601L120.14 84.0601C119.489 85.2871 118.844 86.4451 118.193 87.5281C117.542 88.6111 116.879 89.6071 116.219 90.5281C115.559 91.4491 114.887 92.2501 114.245 92.9731C113.603 93.6961 112.976 94.3171 112.391 94.8511C111.505 95.6758 110.563 96.4376 109.571 97.1311C108.872 97.5811 108.47 97.7701 108.383 97.6651Z" fill="#14D8C3"/>
<g style="mix-blend-mode:multiply">
<path d="M45.179 90.2192C59.708 94.1792 75.884 91.6082 88.469 83.3402C96.164 78.3002 102.2 72.4712 106.223 65.3102C107.756 62.5832 108.965 58.6622 109.736 55.3262C110.249 53.0972 110.312 50.7752 111.083 50.5592C112.454 50.1752 111.878 51.3872 113.939 52.6832C116 53.9792 118.763 53.8052 120.899 52.6412C123.035 51.4772 124.925 50.1272 125.969 47.9282C127.909 49.5512 129.48 51.5701 130.577 53.8498C131.673 56.1295 132.27 58.6172 132.326 61.1462C132.521 66.4322 131.825 71.7842 127.946 75.3782C125.09 78.0242 121.883 79.0952 119.681 79.8782C116.9 80.8592 119.033 84.3002 116.6 87.4292C108.392 98.0282 96.263 104.28 82.877 104.97C69.491 105.66 56.108 101.427 47.702 90.9872" fill="#D0DDDF"/>
</g>
<g style="mix-blend-mode:multiply">
<path d="M108.152 19.5152C107.588 21.7322 105.752 23.5262 103.562 24.2162C102.461 24.536 101.306 24.6286 100.168 24.4883C99.0296 24.3481 97.9318 23.9778 96.9411 23.4002C96.4011 23.1002 95.8251 22.5692 95.9751 21.9662C96.1641 21.2072 97.2051 21.1772 97.9881 21.1712C99.3863 21.1249 100.73 20.6172 101.809 19.7272C102.889 18.8372 103.643 17.615 103.955 16.2512C104.096 15.5672 104.12 14.8502 104.387 14.2022C105.953 10.4102 108.65 17.5532 108.152 19.5152Z" fill="#D0DDDF"/>
</g>
<path d="M112.949 96.9C111.476 98.307 107.177 101.067 106.448 101.247C132.995 112.647 152.876 117.258 156.848 110.796C162.5 101.652 137.375 77.7 95.2551 53.646C53.1351 29.592 8.05414 13.326 2.42014 22.476C-1.53985 28.908 11.4681 44.292 35.1201 61.497C35.0721 60.255 39.6201 58.143 40.3761 56.913C39.3051 55.956 34.6401 52.143 33.6981 51.213C26.4441 44.172 23.0421 38.4 24.8751 35.4C28.8681 28.917 60.8151 40.455 90.6621 57.489C120.509 74.523 138.305 91.506 134.315 97.989C132.287 101.289 124.277 100.557 112.949 96.891" fill="#FFD635"/>
<path d="M112.88 97.1163C112.91 97.0413 114.206 97.4163 116.672 98.0433C117.902 98.3433 119.426 98.7303 121.241 99.0873C123.316 99.5204 125.423 99.7872 127.541 99.8853C128.148 99.9086 128.756 99.9006 129.362 99.8613C129.996 99.8253 130.626 99.738 131.246 99.6003C131.881 99.4607 132.49 99.2174 133.046 98.8803C133.322 98.7075 133.571 98.4941 133.784 98.2473C133.894 98.1256 133.995 97.9951 134.084 97.8573C134.169 97.7138 134.243 97.5644 134.306 97.4103C134.437 97.0975 134.52 96.7668 134.552 96.4293C134.594 96.0805 134.594 95.728 134.552 95.3792C134.455 94.6433 134.252 93.9251 133.952 93.2463C133.304 91.7828 132.479 90.4044 131.495 89.1423C129.485 86.4783 126.959 83.9222 124.151 81.3812C121.343 78.8402 118.211 76.3382 114.851 73.8392C107.502 68.4606 99.845 63.5162 91.919 59.0312C82.936 53.8878 73.697 49.2047 64.238 45.0002C59.273 42.8102 54.14 40.7102 48.824 38.8532C46.169 37.9262 43.463 37.0532 40.724 36.3182C37.9814 35.5442 35.1816 34.9894 32.351 34.6592C30.9756 34.494 29.585 34.5 28.211 34.6772C27.5971 34.7597 27.0022 34.9486 26.453 35.2352C26.2294 35.3657 26.027 35.5296 25.853 35.7212C25.7002 35.9164 25.5824 36.1367 25.505 36.3722C25.3466 36.9302 25.3291 37.5188 25.454 38.0852C25.5862 38.7384 25.7946 39.3737 26.075 39.9782C26.6798 41.269 27.4167 42.4935 28.274 43.6322C30.0548 45.993 32.0231 48.2062 34.16 50.2502C34.292 50.3822 34.427 50.5142 34.547 50.6222L34.952 50.9822L35.801 51.7142L37.538 53.1722L39.29 54.6332C39.89 55.1252 40.457 55.6052 41.06 56.1332L41.729 56.7332L41.255 57.4562C41.0302 57.7977 40.7528 58.1015 40.433 58.3562C40.175 58.5752 39.923 58.7642 39.671 58.9562C39.167 59.3162 38.672 59.6462 38.189 59.9732C37.706 60.3002 37.238 60.6302 36.821 60.9632C36.6302 61.1128 36.4508 61.2763 36.284 61.4522C36.2341 61.5062 36.1889 61.5644 36.149 61.6262C36.128 61.6562 36.149 61.6472 36.149 61.4762L34.487 62.3762C30.902 59.7692 27.356 57.0692 23.891 54.2402C22.159 52.8282 20.45 51.3802 18.764 49.8962C17.078 48.4122 15.428 46.8742 13.814 45.2822C12.197 43.7132 10.622 42.0872 9.10701 40.4012C7.57876 38.7145 6.14459 36.9448 4.81102 35.1002C4.47802 34.6322 4.16302 34.1492 3.83902 33.6722C3.51502 33.1952 3.21502 32.7032 2.93902 32.1722C2.33827 31.157 1.82347 30.0933 1.40002 28.9922C0.938248 27.8446 0.671573 26.6278 0.611016 25.3922C0.538418 24.0169 0.935079 22.6577 1.73602 21.5372C2.16507 20.9814 2.69666 20.513 3.30202 20.1572C3.86178 19.831 4.45917 19.5741 5.08102 19.3922C6.24316 19.0584 7.44243 18.871 8.65101 18.8342C9.81323 18.7819 10.9776 18.804 12.137 18.9002C13.279 18.9882 14.412 19.1172 15.536 19.2872C19.9646 20.0125 24.3379 21.042 28.625 22.3682C32.888 23.6462 37.064 25.0952 41.174 26.6342C45.284 28.1732 49.325 29.7992 53.3 31.5002C64.073 36.1142 74 40.9772 83.231 45.8732C92.462 50.7692 100.994 55.7102 108.899 60.6662C116.804 65.6222 124.07 70.6082 130.712 75.6662C137.354 80.7242 143.387 85.8662 148.574 91.3382C151.151 94.0832 153.533 96.9123 155.438 99.9993C156.41 101.525 157.183 103.17 157.736 104.892C158.008 105.768 158.162 106.676 158.195 107.592C158.232 108.524 158.063 109.452 157.7 110.31C157.331 111.171 156.738 111.918 155.984 112.473C155.622 112.744 155.234 112.978 154.826 113.172C154.426 113.351 154.014 113.502 153.593 113.625C151.965 114.062 150.279 114.247 148.595 114.174C146.979 114.134 145.367 113.985 143.771 113.73C142.197 113.49 140.652 113.19 139.136 112.83C136.1 112.152 133.187 111.3 130.343 110.4C127.499 109.5 124.742 108.507 122.048 107.487C116.648 105.444 111.533 103.245 106.565 100.986L106.517 101.547C106.708 101.488 106.894 101.413 107.072 101.322C107.234 101.241 107.393 101.16 107.549 101.076C107.849 100.908 108.149 100.737 108.449 100.566C109.049 100.221 109.598 99.8703 110.15 99.5193C110.702 99.1683 111.23 98.8083 111.752 98.4393C112.283 98.0687 112.791 97.668 113.276 97.2393C112.818 97.6582 112.337 98.0518 111.836 98.4183C111.341 98.7873 110.828 99.1503 110.294 99.5133C109.76 99.8763 109.199 100.239 108.605 100.608C108.305 100.791 108.005 100.977 107.678 101.16C107.519 101.253 107.351 101.346 107.177 101.436C106.979 101.542 106.772 101.631 106.559 101.7L106.631 100.8C111.347 102.822 116.189 104.784 121.163 106.596C126.191 108.463 131.313 110.065 136.508 111.396C139.145 112.064 141.818 112.578 144.515 112.935C145.866 113.11 147.227 113.21 148.589 113.235C149.936 113.262 151.281 113.136 152.6 112.86C152.924 112.79 153.243 112.701 153.557 112.593C153.712 112.545 153.865 112.487 154.013 112.419C154.163 112.353 154.313 112.299 154.46 112.224C154.746 112.081 155.019 111.913 155.276 111.723C155.407 111.633 155.532 111.532 155.648 111.423L155.978 111.093C156.086 110.978 156.187 110.856 156.278 110.727L156.416 110.541C156.458 110.475 156.491 110.403 156.53 110.334L156.644 110.127L156.734 109.911C156.764 109.839 156.8 109.767 156.827 109.695L156.896 109.467C157.08 108.851 157.156 108.207 157.121 107.565C157.086 106.904 156.979 106.248 156.803 105.609C156.615 104.957 156.385 104.318 156.116 103.695C155.544 102.438 154.87 101.23 154.1 100.083C152.529 97.756 150.775 95.5571 148.856 93.5072C146.945 91.4283 144.911 89.4452 142.814 87.5222C138.614 83.6822 134.15 80.0822 129.557 76.6412C120.359 69.7652 110.657 63.4952 100.757 57.6602C90.857 51.8252 80.756 46.4372 70.613 41.5052C60.47 36.5732 50.264 32.1002 40.1 28.3412C35 26.4662 29.915 24.7652 24.836 23.4002C22.295 22.7162 19.757 22.1162 17.222 21.6572C14.7386 21.1716 12.2163 20.9115 9.68601 20.8802C8.48682 20.8663 7.29027 20.9962 6.12202 21.2672C5.00002 21.5312 4.00402 22.0352 3.42202 22.7672C3.35089 22.8631 3.28576 22.9633 3.22702 23.0672L3.06202 23.3942C3.00397 23.5034 2.95963 23.6192 2.93002 23.7392C2.89702 23.8592 2.84302 23.9702 2.81902 24.0932L2.75602 24.4712C2.75602 24.5342 2.73202 24.5942 2.72602 24.6602V24.8552L2.71102 25.2482C2.71102 25.3832 2.73202 25.5182 2.74102 25.6532C2.86686 26.781 3.17063 27.8816 3.64102 28.9142C3.86002 29.4512 4.13901 29.9732 4.40301 30.4952C4.66702 31.0172 4.97301 31.5272 5.30301 32.0252C5.92101 33.0332 6.61702 33.9962 7.32202 34.9472C8.75694 36.8072 10.2849 38.5935 11.9 40.2992C15.5531 44.1301 19.4289 47.7424 23.507 51.1172C25.507 52.7932 27.534 54.4232 29.588 56.0072C31.634 57.5912 33.692 59.1242 35.75 60.6272L34.043 61.5272C34.0383 61.1725 34.1351 60.8238 34.322 60.5222C34.4379 60.3303 34.5725 60.1505 34.724 59.9852C34.967 59.7293 35.2276 59.4907 35.504 59.2712C36.014 58.8632 36.518 58.5182 37.004 58.1822C37.49 57.8462 37.985 57.5222 38.438 57.1982C38.663 57.0362 38.879 56.8712 39.068 56.7122C39.2054 56.6024 39.3302 56.4777 39.44 56.3402L39.641 57.7082C39.041 57.1772 38.372 56.6283 37.73 56.0882L35.789 54.4652L33.854 52.8272C33.533 52.5482 33.212 52.2722 32.876 51.9452L31.976 51.0452C30.776 49.8452 29.633 48.6212 28.544 47.3372C27.4382 46.0581 26.4237 44.7028 25.508 43.2812C25.0433 42.5562 24.6264 41.8016 24.26 41.0222C23.8696 40.2106 23.5833 39.3528 23.408 38.4692C23.1933 37.4783 23.2619 36.447 23.606 35.4932C23.7056 35.2406 23.8281 34.9976 23.972 34.7672L24.221 34.4222C24.311 34.3172 24.407 34.2152 24.503 34.1222C24.8787 33.7524 25.3137 33.4482 25.79 33.2222C26.6314 32.8535 27.527 32.6235 28.442 32.5412C29.2833 32.4578 30.1296 32.4367 30.974 32.4782C32.586 32.5667 34.1899 32.7671 35.774 33.0782C38.8357 33.6764 41.8598 34.4527 44.831 35.4032C47.756 36.3032 50.6 37.3292 53.378 38.3852C58.934 40.5032 64.229 42.8102 69.299 45.1832C78.7837 49.6385 88.0302 54.5842 97.001 60.0002C105.323 65.0372 112.73 70.1132 119.072 75.1982C122.091 77.597 124.972 80.1651 127.7 82.8902C130.253 85.4912 132.518 88.1103 134.132 90.9753C134.534 91.6881 134.876 92.4338 135.152 93.2042C135.439 93.9747 135.609 94.7836 135.656 95.6042C135.707 96.4556 135.536 97.3056 135.158 98.0703C134.962 98.4504 134.71 98.7992 134.411 99.1053C134.12 99.3883 133.793 99.6324 133.439 99.8313C132.797 100.185 132.102 100.434 131.381 100.569C130.732 100.695 130.074 100.77 129.413 100.791C128.226 100.829 127.037 100.773 125.858 100.626C123.926 100.38 122.011 100.011 120.125 99.5223C118.499 99.1083 117.152 98.7002 116.075 98.3493C113.927 97.6533 112.85 97.2003 112.88 97.1163Z" fill="black"/>
<path d="M111.767 98.4389C109.496 99.6089 109.31 100.362 109.139 100.539C130.208 108.939 147.104 112.497 150.416 107.118C155.579 98.7179 132.563 76.7699 93.9621 54.7409C55.3611 32.7119 14.0481 17.7869 8.9001 26.1689C5.7201 31.3109 14.6241 42.9299 31.3281 56.2799C32.1441 56.9309 33.6321 57.7139 34.4871 58.3799C34.9701 57.7799 35.4051 57.9059 36.6411 56.9789C35.9631 56.4179 32.9031 54.3479 32.2611 53.7929C20.4021 43.5659 14.3721 34.9169 16.8771 30.8489C21.4521 23.4209 58.0581 36.6419 92.2611 56.1599C126.464 75.6779 146.861 95.1389 142.28 102.567C139.667 106.806 127.979 104.271 112.367 98.6249L111.767 98.4389Z" fill="#FF4500"/>
</svg>
