<svg xmlns="http://www.w3.org/2000/svg" viewBox="0 0 20 20" fill="currentColor"><path d="M18.75 14H20v1.375a2.625 2.625 0 0 1-2 2.542v-1.324a1.372 1.372 0 0 0 .75-1.218V14Zm0-6v4H20V8h-1.25ZM16 3.25V2h-4v1.25h4Zm-4 13.5V18h4v-1.25h-4Zm6.75-12.125V6H20V4.625a2.625 2.625 0 0 0-2-2.542v1.324a1.373 1.373 0 0 1 .75 1.218ZM2.625 16.75a1.377 1.377 0 0 1-1.375-1.375V4.625A1.377 1.377 0 0 1 2.625 3.25H10V2H2.625A2.629 2.629 0 0 0 0 4.625v10.75A2.63 2.63 0 0 0 2.625 18H10v-1.25H2.625Zm6.512-2.937 5.319-3.207a.707.707 0 0 0 0-1.212L9.137 6.187a.717.717 0 0 0-.726-.01.79.79 0 0 0-.361.616v6.414a.708.708 0 0 0 .361.616.73.73 0 0 0 .351.081.74.74 0 0 0 .375-.091ZM13.042 10 9.3 12.256V7.744L13.042 10Z"/></svg>