<svg xmlns="http://www.w3.org/2000/svg" viewBox="0 0 20 20" fill="currentColor"><path d="M4.887 13.444a6.885 6.885 0 0 1-1.486-.644l-2.252.563a.626.626 0 0 1-.758-.758l.56-2.25A6.9 6.9 0 0 1 .202 5.2 6.8 6.8 0 0 1 5.34.17a6.91 6.91 0 0 1 6.399 1.847A6.836 6.836 0 0 1 13.45 4.89a8.18 8.18 0 0 0-8.334 6.24 8.532 8.532 0 0 0-.229 2.315Zm13.098-5.178a6.915 6.915 0 0 0-6.4-1.847 6.799 6.799 0 0 0-5.133 5.032A6.9 6.9 0 0 0 7.2 16.6l-.564 2.251a.625.625 0 0 0 .758.758l2.252-.563a6.824 6.824 0 0 0 3.479.953c.563 0 1.125-.068 1.672-.2a6.8 6.8 0 0 0 5.034-5.136 6.922 6.922 0 0 0-1.846-6.398h-.001Z"/></svg>