<svg xmlns="http://www.w3.org/2000/svg" viewBox="0 0 20 20" fill="currentColor"><path d="m10 6.362 3.5.875v3.938c0 2.187-3.5 3.062-3.5 3.062s-3.5-.875-3.5-3.062V7.237l3.5-.875Zm9.989-.918L15 9.757v1.418c0 3.264-4.162 4.4-4.636 4.518-.239.06-.489.06-.728 0C9.162 15.574 5 14.439 5 11.175V9.741l-5-4.35v10.984A1.627 1.627 0 0 0 1.625 18h16.749A1.629 1.629 0 0 0 20 16.373l-.011-10.929Zm-13.853.338 3.5-.875c.24-.059.489-.059.728 0l3.5.875A1.5 1.5 0 0 1 15 7.238v.537l4.971-4.3a1.622 1.622 0 0 0-1.608-1.463L1.626 2a1.621 1.621 0 0 0-1.6 1.421L5 7.754v-.516a1.5 1.5 0 0 1 1.136-1.456Z"/></svg>