<svg xmlns="http://www.w3.org/2000/svg" viewBox="0 0 20 20" fill="currentColor"><path d="M1.348 5.155h.72v-2.31c-.22.101-.458.158-.7.167v-.761c.265.013.526-.077.726-.251h1.054v3.155h.628V6H1.348v-.845Zm-.263 6.631c0-.569.107-1.145 1.153-1.778.6-.37.773-.453.773-.783 0-.222-.14-.346-.387-.346a1.067 1.067 0 0 0-.831.593l-.716-.518A1.758 1.758 0 0 1 2.649 8c.929 0 1.374.469 1.374 1.2 0 .445-.181.882-.988 1.316-.5.282-.666.478-.723.636h1.736V12H1.085v-.214ZM1 17.206l.632-.551a1.052 1.052 0 0 0 .849.5c.429 0 .574-.176.574-.419 0-.332-.226-.461-.76-.461h-.308v-.723h.323c.519 0 .673-.145.673-.38 0-.2-.145-.316-.413-.316a1.243 1.243 0 0 0-.882.39l-.551-.641c.406-.392.95-.61 1.514-.605C3.534 14 4 14.4 4 15.052a.815.815 0 0 1-.575.817.874.874 0 0 1 .7.892C4.125 17.57 3.509 18 2.57 18A1.832 1.832 0 0 1 1 17.206ZM19 9H7v2h12V9Zm0 6H7v2h12v-2Zm0-12H7v2h12V3Z"/></svg>