<svg xmlns="http://www.w3.org/2000/svg" viewBox="0 0 20 20" fill="currentColor"><path d="M8.5 11.625a.624.624 0 0 1-.442-.183l-2-2 .884-.884L8.5 10.116l4.558-4.558.884.884-5 5a.623.623 0 0 1-.442.183Zm.4 7.846L12.331 16h4.046A2.626 2.626 0 0 0 19 13.377V3.623A2.626 2.626 0 0 0 16.377 1H3.623A2.626 2.626 0 0 0 1 3.623v9.8A2.581 2.581 0 0 0 3.578 16h3.434v2.664a1.119 1.119 0 0 0 1.113 1.118c.288-.004.564-.115.775-.311ZM16.377 2.25a1.375 1.375 0 0 1 1.373 1.373v9.754a1.375 1.375 0 0 1-1.373 1.373H11.81l-3.548 3.592V14.75H3.578a1.33 1.33 0 0 1-1.328-1.329v-9.8A1.375 1.375 0 0 1 3.623 2.25h12.754Z"/></svg>