<svg xmlns="http://www.w3.org/2000/svg" viewBox="0 0 20 20" fill="currentColor"><path d="M17.375 18H2.625A2.63 2.63 0 0 1 0 15.375V3.625A1.627 1.627 0 0 1 1.625 2h16.75A1.627 1.627 0 0 1 20 3.625v11.75A2.63 2.63 0 0 1 17.375 18ZM1.625 3.25a.375.375 0 0 0-.375.375v11.75a1.377 1.377 0 0 0 1.375 1.375h14.75a1.377 1.377 0 0 0 1.375-1.375V3.625a.375.375 0 0 0-.375-.375H1.625ZM13 13H7a1 1 0 0 0 0 2h6a1 1 0 0 0 0-2ZM4.5 5a1 1 0 1 0 0 2 1 1 0 0 0 0-2Zm3.666 0a1 1 0 1 0 0 2 1 1 0 0 0 0-2Zm3.667 0a1 1 0 1 0 0 2 1 1 0 0 0 0-2ZM15.5 5a1 1 0 1 0 0 2 1 1 0 0 0 0-2Zm-11 4a1 1 0 1 0 0 2 1 1 0 0 0 0-2Zm3.666 0a1 1 0 1 0 0 2 1 1 0 0 0 0-2Zm3.667 0a1 1 0 1 0 0 2 1 1 0 0 0 0-2ZM15.5 9a1 1 0 1 0 0 2 1 1 0 0 0 0-2Z"/></svg>