<svg xmlns="http://www.w3.org/2000/svg" viewBox="0 0 20 20" fill="currentColor"><path d="M10 2.751A7.249 7.249 0 1 0 17.25 10 7.257 7.257 0 0 0 10 2.751Zm.957 8.217a5.032 5.032 0 0 0 5.03-.721 5.965 5.965 0 0 1-1.527 3.751 3.784 3.784 0 0 1-3.502-3.03h-.001Zm4.889-2.3a3.833 3.833 0 0 1-4.623 1.061 5.058 5.058 0 0 0 2.012-4.775 6.01 6.01 0 0 1 2.612 3.716l-.001-.002Zm-4.055-4.4a3.828 3.828 0 0 1-1.386 4.5A5.675 5.675 0 0 0 6.68 5.007a5.987 5.987 0 0 1 5.112-.735l-.001-.004ZM9.133 8.94a5.672 5.672 0 0 0-5.122.9 5.964 5.964 0 0 1 1.551-3.86 4.486 4.486 0 0 1 3.571 2.96Zm-4.98 2.379a4.486 4.486 0 0 1 4.55-1.2 5.678 5.678 0 0 0-1.937 4.926 6.013 6.013 0 0 1-2.613-3.726Zm3.96 4.371a4.52 4.52 0 0 1 1.541-4.754 5.18 5.18 0 0 0 3.607 4.093 5.949 5.949 0 0 1-5.148.661ZM10 0a10 10 0 1 0 10 10A10.011 10.011 0 0 0 10 0Zm0 18.75A8.75 8.75 0 1 1 18.75 10 8.76 8.76 0 0 1 10 18.75Z"/></svg>