<svg xmlns="http://www.w3.org/2000/svg" viewBox="0 0 20 20" fill="currentColor"><path d="m7.172 19.506.264.15A9.97 9.97 0 0 1 .15 8.29a9.974 9.974 0 0 1 2.002-4.466l4.337 7.601a3.8 3.8 0 0 0 3.513 2.374c.151-.006.303-.021.452-.046l-3.282 5.754Zm6.634-9.501a3.757 3.757 0 0 1-.8 2.3h.007L8.673 19.9c.44.063.884.097 1.329.1a9.96 9.96 0 0 0 9.766-7.828 9.967 9.967 0 0 0-.046-4.473H13.01c.513.657.793 1.466.797 2.299v.007Zm-3.804-3.808h9.24A9.976 9.976 0 0 0 7.387.35a9.972 9.972 0 0 0-4.168 2.32l3.311 5.8a3.8 3.8 0 0 1 3.47-2.274Zm0 1.5a2.281 2.281 0 0 0-2.15 3.1l.007.013a2.3 2.3 0 1 0 2.143-3.113Z"/></svg>