<svg xmlns="http://www.w3.org/2000/svg" viewBox="0 0 20 20" fill="currentColor"><path d="M19.932 7.681a1.132 1.132 0 0 1-.334.807l-.665.665a2.126 2.126 0 0 1-2.432.374l-2.03 2.03-6.029-6.028L10.473 3.5a2.084 2.084 0 0 1 .374-2.432L11.512.4a1.135 1.135 0 0 1 1.24-.248c.139.057.265.142.372.248L19.6 6.876a1.128 1.128 0 0 1 .332.805ZM1.6 2.487 6.275 7.16a2.112 2.112 0 0 0-2.028.506l-.664.664a1.14 1.14 0 0 0 0 1.613l2.53 2.53-5.82 5.82 1.415 1.414 5.819-5.82 2.531 2.53a1.127 1.127 0 0 0 1.6.001l.665-.665a2.067 2.067 0 0 0 .541-1.995l4.649 4.642.884-.884L2.486 1.6l-.886.887Z"/></svg>