<svg xmlns="http://www.w3.org/2000/svg" viewBox="0 0 20 20" fill="currentColor"><path d="M9.375 11.963V5.079h1.25v6.884h-1.25ZM7.25 10.318V6.723H6v3.6l1.25-.005ZM14 6.723h-1.25v3.6H14v-3.6ZM14.36 1H5.64A5.646 5.646 0 0 0 0 6.64v3.76A5.6 5.6 0 0 0 5.6 16h.44v2.663a1.114 1.114 0 0 0 1.106 1.117 1.2 1.2 0 0 0 .8-.334L11.017 16h.483v-1.25h-.764a.622.622 0 0 0-.467.21L7.29 18.315v-2.94a.625.625 0 0 0-.625-.625H5.6a4.351 4.351 0 0 1-4.35-4.35V6.64a4.395 4.395 0 0 1 4.39-4.39h8.72a4.395 4.395 0 0 1 4.39 4.39v4.608H20V6.64A5.646 5.646 0 0 0 14.36 1Zm2.89 11.25H16V15h-2.75v1.25H16V19h1.25v-2.75H20V15h-2.75v-2.75Z"/></svg>