<svg xmlns="http://www.w3.org/2000/svg" viewBox="0 0 20 20" fill="currentColor"><path d="M8.776 3.559A3.735 3.735 0 1 1 12.6 7.474a5.122 5.122 0 0 0-3.824-3.915Zm5.746 4.44h-1.867c.027.174.044.348.053.523a5.074 5.074 0 0 1-1.274 3.343A6.7 6.7 0 0 1 15.357 15h3.614A1.034 1.034 0 0 0 20 13.964v-.41A5.521 5.521 0 0 0 14.522 8Zm-5 5H5.478A5.522 5.522 0 0 0 0 18.555v.41A1.034 1.034 0 0 0 1.03 20h12.94A1.034 1.034 0 0 0 15 18.964v-.41A5.522 5.522 0 0 0 9.522 13ZM3.758 8.523a3.742 3.742 0 1 1 7.484.002 3.742 3.742 0 0 1-7.484-.002Z"/></svg>