<svg xmlns="http://www.w3.org/2000/svg" viewBox="0 0 20 20" fill="currentColor"><path d="M20 7h-1.016V1.271A1.127 1.127 0 0 0 17.833.147c-.198.006-.391.064-.559.17l-3.9 2.458a11.016 11.016 0 0 0-6.7 0L2.771.317a1.107 1.107 0 0 0-1.55.381 1.128 1.128 0 0 0-.156.573v7.013a7.09 7.09 0 0 0-.489 2.591 7.545 7.545 0 0 0 2.804 5.779A10.231 10.231 0 0 0 10.025 19c2.423.03 4.778-.802 6.645-2.346A7.7 7.7 0 0 0 19.375 12H20V7ZM6.518 4.154l.286-.1a9.711 9.711 0 0 1 6.442 0l.286.1 4.2-2.648V7H13v1h-2V7H4v1H2.272l.043-6.493 4.203 2.647ZM15.861 15.7a8.99 8.99 0 0 1-5.836 2.048A8.987 8.987 0 0 1 4.19 15.7a6.32 6.32 0 0 1-2.364-4.827 5.82 5.82 0 0 1 .26-1.623H4V12h7V9.25h2V12h5.107a6.516 6.516 0 0 1-2.246 3.7Zm-4.522-1.125.322 1.208a6.46 6.46 0 0 1-1.66.217 6.127 6.127 0 0 1-4.27-1.678l.873-.893a5.1 5.1 0 0 0 4.735 1.148v-.002Z"/></svg>