<svg xmlns="http://www.w3.org/2000/svg" viewBox="0 0 20 20" fill="currentColor"><path d="m17.032 17.133-.936-.833.417-.466a8.751 8.751 0 1 0-13.042 0l.425.466-.932.834-.417-.466a10 10 0 1 1 14.906 0l-.421.465Zm-1.294-3.3a7.168 7.168 0 0 0 1.258-3.811 6.742 6.742 0 0 0-6.773-7.023 7.29 7.29 0 0 0-7.227 6.979 6.817 6.817 0 0 0 1 3.827l.328.532 1.072-.655-.33-.532a5.572 5.572 0 0 1-.816-3.128 6.028 6.028 0 0 1 5.973-5.773 5.487 5.487 0 0 1 5.527 5.729 5.92 5.92 0 0 1-1.043 3.146l-.354.515 1.031.708.354-.514Zm-2.742-3.788a3 3 0 1 0-6 0 3 3 0 0 0 6 0Zm-1.25 0a1.75 1.75 0 1 1-3.5.01 1.75 1.75 0 0 1 3.5-.01Zm.533 8.886.691-3.368a1.277 1.277 0 0 0-.264-1.063 1.363 1.363 0 0 0-1.062-.5h-3.3a1.364 1.364 0 0 0-1.062.5 1.276 1.276 0 0 0-.264 1.065l.691 3.369A1.367 1.367 0 0 0 9.06 20h1.872a1.367 1.367 0 0 0 1.347-1.07Zm-.635-3.681.1.062-.69 3.367a.123.123 0 0 1-.123.07H9.06a.125.125 0 0 1-.123-.07l-.69-3.367.1-.062h3.297Z"/></svg>