<svg xmlns="http://www.w3.org/2000/svg" viewBox="0 0 20 20" fill="currentColor"><path d="m10.513 5.63 3.929 3.928-.884.884-2.933-2.933V19h-1.25V7.51l-2.933 2.932-.884-.884L9.67 5.446l.589-.029.254.212Zm5.859-1.482A6.876 6.876 0 0 0 10 0a6.876 6.876 0 0 0-6.372 4.148A4.639 4.639 0 0 0 0 8.625a4.716 4.716 0 0 0 4.792 4.625V12A3.465 3.465 0 0 1 1.25 8.625 3.412 3.412 0 0 1 4.189 5.31l.364-.06.123-.35A5.607 5.607 0 0 1 10 1.25a5.607 5.607 0 0 1 5.324 3.65l.123.348.364.06a3.412 3.412 0 0 1 2.939 3.317A3.465 3.465 0 0 1 15.208 12v1.25A4.716 4.716 0 0 0 20 8.625a4.639 4.639 0 0 0-3.628-4.477Z"/></svg>