<svg xmlns="http://www.w3.org/2000/svg" viewBox="0 0 20 20" fill="currentColor"><path d="M19.331 9.392h-2.072a6.006 6.006 0 0 0-4.315-4.209v1.1a.6.6 0 0 1-.985.46L9.036 4.311 9 4a.6.6 0 0 1 .217-.462l2.742-2.286a.6.6 0 0 1 .985.461v1.424a8.017 8.017 0 0 1 6.387 6.255ZM6.959 6.747a.605.605 0 0 0 .893-.138.6.6 0 0 0 .094-.322V1.713a.6.6 0 0 0-.985-.461L4.217 3.538A.6.6 0 0 0 4 4l.036.311 2.923 2.436ZM4.182 13.41l1.64-.726v6.222h1.916V10.27H7.17l-2.988 1.365v1.775ZM12.625 19a3.012 3.012 0 0 0 2.842-1.808 4.86 4.86 0 0 0 .416-2.088v-.979a4.966 4.966 0 0 0-.416-2.112 3.148 3.148 0 0 0-1.155-1.366 3.078 3.078 0 0 0-1.693-.471 3.038 3.038 0 0 0-1.693.469 3.177 3.177 0 0 0-1.166 1.371 4.908 4.908 0 0 0-.422 2.109v.975a4.8 4.8 0 0 0 .419 2.077A3.054 3.054 0 0 0 12.625 19Zm.006-1.658a1.176 1.176 0 0 1-1.04-.525 2.5 2.5 0 0 1-.355-1.421v-1.611a2.422 2.422 0 0 1 .367-1.459 1.212 1.212 0 0 1 1.034-.492 1.155 1.155 0 0 1 1 .486c.26.442.38.953.345 1.465V15.4a2.5 2.5 0 0 1-.351 1.454 1.159 1.159 0 0 1-1 .488Z"/></svg>