<svg xmlns="http://www.w3.org/2000/svg" viewBox="0 0 20 20" fill="currentColor"><path d="M17.377 1H2.623A1.625 1.625 0 0 0 1 2.623v14.754A1.625 1.625 0 0 0 2.623 19h14.754A1.624 1.624 0 0 0 19 17.377V2.623A1.625 1.625 0 0 0 17.377 1Zm.373 1.623V6.75h-7.125v-4.5h6.752a.373.373 0 0 1 .373.373ZM10.625 8h7.125v4h-7.125V8Zm-1.25 4H2.25V8h7.125v4ZM2.623 2.25h6.752v4.5H2.25V2.623a.373.373 0 0 1 .373-.373ZM2.25 17.377V13.25h7.125v4.5H2.623a.373.373 0 0 1-.373-.373Zm15.127.373h-6.752v-4.5h7.125v4.127a.373.373 0 0 1-.373.373Z"/></svg>