<svg xmlns="http://www.w3.org/2000/svg" viewBox="0 0 20 20" fill="currentColor"><path d="M16.945 4.648 15.36 3.063a1.626 1.626 0 0 0-2.3 0L.476 15.64a1.626 1.626 0 0 0 0 2.3l1.585 1.584a1.627 1.627 0 0 0 2.3 0l12.585-12.58a1.626 1.626 0 0 0 0-2.296ZM3.476 18.638a.377.377 0 0 1-.53 0L1.36 17.053a.375.375 0 0 1 0-.53l8.6-8.598 2.116 2.115-8.6 8.598ZM16.062 6.061l-3.1 3.1-2.117-2.115 3.1-3.1a.374.374 0 0 1 .265-.109c.1 0 .195.04.266.11l1.585 1.584a.375.375 0 0 1 .001.53ZM6.875 4.499V5h1.25v-.5A1.377 1.377 0 0 1 9.5 3.122h.5V1.874h-.5A1.376 1.376 0 0 1 8.125.5V0h-1.25v.5A1.376 1.376 0 0 1 5.5 1.874H5v1.248h.5A1.377 1.377 0 0 1 6.875 4.5ZM7.5 2.2c.092.109.192.21.3.3a2.6 2.6 0 0 0-.3.3 2.6 2.6 0 0 0-.3-.3c.109-.09.209-.191.3-.3ZM20 .876v1.249h-.3a.576.576 0 0 0-.575.574V3h-1.25v-.3a.576.576 0 0 0-.575-.574H17V.875h.3A.576.576 0 0 0 17.875.3V0h1.25v.3a.576.576 0 0 0 .575.575h.3Zm-1.3 9.993h.3v1.248h-.3a.576.576 0 0 0-.575.575v.3h-1.25v-.3a.576.576 0 0 0-.575-.575H16v-1.248h.3a.576.576 0 0 0 .575-.575v-.3h1.25v.3a.576.576 0 0 0 .575.575Z"/></svg>