<svg xmlns="http://www.w3.org/2000/svg" viewBox="0 0 20 20" fill="currentColor"><path d="M9.45 13.95a1.033 1.033 0 0 1-.71-.29 1.014 1.014 0 0 1 0-1.42 1.033 1.033 0 0 1 1.409 0 1 1 0 0 1-.699 1.71Zm.689-9.9A4.987 4.987 0 0 0 7.111 5a.853.853 0 0 0-.1 1.313l.065.061a.832.832 0 0 0 1.085.026 2.987 2.987 0 0 1 1.752-.658c.8 0 1.245.371 1.245.9 0 .649-.331.94-1.059 1.351a2.772 2.772 0 0 0-1.333 1.481c-.058.14-.089.288-.093.439 0 .252.099.494.276.673a.89.89 0 0 0 .665.266.913.913 0 0 0 .661-.265.925.925 0 0 0 .227-.422c0-.006.046-.261.046-.267.095-.479.365-.733 1.141-1.134a2.452 2.452 0 0 0 1.562-2.29c-.001-1.405-1.1-2.424-3.112-2.424ZM13.376 16h2A4.626 4.626 0 0 0 20 11.379V5.621A4.626 4.626 0 0 0 15.379 1H4.621A4.626 4.626 0 0 0 0 5.621v5.758A4.626 4.626 0 0 0 4.621 16H7.5v-1.25H4.621a3.375 3.375 0 0 1-3.371-3.371V5.621A3.375 3.375 0 0 1 4.621 2.25h10.758a3.375 3.375 0 0 1 3.371 3.371v5.758a3.376 3.376 0 0 1-3.371 3.371h-2.5l-3.763 3.607.866.9L13.376 16Z"/></svg>