<svg xmlns="http://www.w3.org/2000/svg" viewBox="0 0 20 20" fill="currentColor"><path d="M17.375 1h-3.83v1.25h3.83a.375.375 0 0 1 .375.375v14.75a.371.371 0 0 1-.3.36L7.2 14.079v.611a3.053 3.053 0 0 1-2.7 3.023 2.608 2.608 0 0 1-2.25-2.576V2.625a.375.375 0 0 1 .375-.375h3.6V1h-3.6A1.627 1.627 0 0 0 1 2.625v12.512a3.866 3.866 0 0 0 3.14 3.79s.608.073.723.073h12.512A1.627 1.627 0 0 0 19 17.375V2.625A1.627 1.627 0 0 0 17.375 1ZM8.36 15.667l5.658 2.083H7.151a4 4 0 0 0 1.209-2.083Zm3.684-13.248a2.044 2.044 0 1 1-4.088 0 2.044 2.044 0 0 1 4.088 0Zm-.358 9.831H6V11h5.686v1.25Zm2.314-3H6V8h8v1.25Z"/></svg>