<svg xmlns="http://www.w3.org/2000/svg" viewBox="0 0 20 20" fill="currentColor"><path d="M3.9 8.782.558 5.442a.625.625 0 0 1 0-.884l4-4a.625.625 0 0 1 .884 0L9.354 4.47l-.988.78L5 1.884 1.884 5l3 3-.984.782Zm15.544 5.776-3.93-3.928-.783.985L18.116 15 15 18.116l-3.03-3.03-.784.984 3.372 3.372a.625.625 0 0 0 .884 0l4-4a.623.623 0 0 0 0-.884h.002ZM18.634 4.5 9.011 16.593a4.108 4.108 0 0 1-.51.66 4.472 4.472 0 0 1-3.147 1.373 10.731 10.731 0 0 0-3.572.718.871.871 0 0 1-1.128-1.125c.442-1.141.685-2.35.72-3.573A4.473 4.473 0 0 1 2.746 11.5c.11-.096.226-.187.346-.272a.622.622 0 0 1 .143-.169l12.255-9.687A2.236 2.236 0 0 1 18.633 4.5Zm-10.26 9.9A2.88 2.88 0 0 0 5.6 11.626h-.092c-.71.005-1.39.284-1.9.78a3.217 3.217 0 0 0-.984 2.261 11.738 11.738 0 0 1-.542 3.251 11.801 11.801 0 0 1 3.253-.54A3.214 3.214 0 0 0 7.6 16.39a2.746 2.746 0 0 0 .773-1.99Zm9.184-11.958a.989.989 0 0 0-1.3-.084L6.046 10.431a4.11 4.11 0 0 1 3.516 3.463l8.086-10.162a.984.984 0 0 0-.09-1.29Z"/></svg>