<svg xmlns="http://www.w3.org/2000/svg" viewBox="0 0 20 20" fill="currentColor"><path d="M3.008 9.911a4.17 4.17 0 0 0-1.849.445 8.784 8.784 0 0 1 4.55-7.479c.009.704.196 1.395.543 2.007A6.783 6.783 0 0 0 3.18 9.929c-.058-.003-.113-.018-.172-.018Zm13.674.019c.063 0 .122-.019.186-.019a4.176 4.176 0 0 1 1.835.437 8.788 8.788 0 0 0-4.549-7.472 4.173 4.173 0 0 1-.543 2.008 6.783 6.783 0 0 1 3.071 5.046Zm-3.349 6.5a6.729 6.729 0 0 1-6.793.006A4.242 4.242 0 0 1 5 17.838a8.762 8.762 0 0 0 9.87 0 4.24 4.24 0 0 1-1.537-1.403v-.005ZM9.932 0a2.85 2.85 0 1 0-.002 5.7A2.85 2.85 0 0 0 9.932 0ZM3.008 11.286a2.85 2.85 0 1 0-.002 5.7 2.85 2.85 0 0 0 .002-5.7Zm13.86 0a2.85 2.85 0 1 0 0 5.7 2.85 2.85 0 0 0 0-5.7Z"/></svg>