<svg xmlns="http://www.w3.org/2000/svg" viewBox="0 0 20 20" fill="currentColor"><path d="M19.9 2.75V4a2.752 2.752 0 0 0-2.75 2.75H15.9A2.753 2.753 0 0 0 13.155 4V2.75A2.753 2.753 0 0 0 15.9 0h1.25a2.752 2.752 0 0 0 2.75 2.75ZM18.4 15.5a2.253 2.253 0 0 1-2.25-2.25H14.9a2.253 2.253 0 0 1-2.25 2.25v1.25A2.253 2.253 0 0 1 14.9 19h1.25a2.253 2.253 0 0 1 2.25-2.25V15.5Zm-1.35-4.858V9.358l-.525-.084c-4.541-.727-6.5-2.691-7.225-7.248L9.216 1.5h-1.33l-.085.526C7.077 6.583 5.118 8.547.578 9.274l-.527.084v1.284l.527.084c4.54.727 6.5 2.691 7.224 7.248l.084.526h1.33l.084-.526c.725-4.557 2.684-6.521 7.225-7.248l.526-.084Z"/></svg>