<svg xmlns="http://www.w3.org/2000/svg" viewBox="0 0 20 20" fill="currentColor"><path d="M10.573 18a4.36 4.36 0 0 1-2.684-.891 2.79 2.79 0 0 1-.884-2.2c.004-.398.048-.795.131-1.185l1.385-6.295h3.458l-1.438 6.507c-.017.08-.024.163-.022.245a.777.777 0 0 0 .365.715c.275.161.576.273.889.33L10.573 18ZM9.83 5.829a2.058 2.058 0 0 1-.758-.747 1.982 1.982 0 0 1-.279-1.034A2.006 2.006 0 0 1 9.83 2.264c.328-.179.697-.27 1.07-.264.37-.004.736.09 1.059.272.313.174.574.428.758.736.189.314.287.674.283 1.04.004.364-.093.721-.279 1.034A2.094 2.094 0 0 1 10.9 6.107a2.1 2.1 0 0 1-1.07-.278Z"/></svg>