<svg xmlns="http://www.w3.org/2000/svg" viewBox="0 0 20 20" fill="currentColor"><path d="m6.1 10.352-.13-.117.1-.14a10.45 10.45 0 0 0 2.012-4.62l.025-.16h2.131V4.036H5.762V2.264H4.484v1.772H0v1.279h2.186l.026.161A10.24 10.24 0 0 0 4.168 10.1l.106.14-.13.117A8.081 8.081 0 0 1 0 12.367v1.281a9.076 9.076 0 0 0 4.993-2.361l.13-.12.13.12a9.1 9.1 0 0 0 3.991 2.143l.456-1.206a8.243 8.243 0 0 1-3.6-1.872Zm-.983-1.147-.149-.213A9.46 9.46 0 0 1 3.5 5.546l-.051-.231h3.339l-.038.224A7.95 7.95 0 0 1 5.274 9l-.157.205Zm10.765-3.172h-1.92L9.844 16.945h1.3l1.066-2.717h5.427l1.063 2.717H20L15.882 6.033Zm-3.232 6.979 2.243-6.062 2.3 6.062H12.65Z"/></svg>