<svg xmlns="http://www.w3.org/2000/svg" viewBox="0 0 20 20" fill="currentColor"><path d="M9.463 15.384A1.092 1.092 0 0 1 9.076 15a1.033 1.033 0 0 1-.143-.537c-.002-.186.047-.369.143-.529.093-.16.227-.293.387-.387.16-.097.345-.148.533-.147a1.05 1.05 0 0 1 .537.141 1.076 1.076 0 0 1 .537.921c0 .188-.051.373-.148.535-.096.159-.23.292-.39.386a1.042 1.042 0 0 1-.536.143 1.026 1.026 0 0 1-.533-.142Zm-.141-3.329L9.13 5.342h1.73l-.192 6.713H9.322Zm.667 7.935a4.6 4.6 0 0 1-3.27-1.354l-5.367-5.365a4.634 4.634 0 0 1 0-6.542l5.367-5.365a4.626 4.626 0 0 1 6.54 0l5.366 5.364a4.627 4.627 0 0 1 0 6.542l-5.364 5.365a4.6 4.6 0 0 1-3.272 1.355Zm0-18.73a3.353 3.353 0 0 0-2.386.988L2.237 7.614a3.375 3.375 0 0 0 0 4.772l5.366 5.366a3.46 3.46 0 0 0 4.771 0l5.365-5.366a3.374 3.374 0 0 0 0-4.772L12.374 2.25A3.349 3.349 0 0 0 9.99 1.26Z"/></svg>