<svg xmlns="http://www.w3.org/2000/svg" viewBox="0 0 20 20" fill="currentColor"><path d="M10.01 1.027a10 10 0 0 1 7.061 2.898 10.011 10.011 0 0 1 .002 14.142l-.442.442-.49-.492-.016.015-1.985-1.985.884-.884 1.571 1.57a8.7 8.7 0 0 0 2.122-5.092H16.5v-1.25h2.214a8.7 8.7 0 0 0-8.07-8.11V4.5h-1.25V2.275a8.7 8.7 0 0 0-5.1 2.1l1.568 1.57-.884.883-1.57-1.57a8.7 8.7 0 0 0-2.123 5.092H3.5v1.25H1.28a8.7 8.7 0 0 0 2.1 5.1l1.568-1.566.885.883L4.24 17.61l.015.015-.884.884-.442-.442a10 10 0 0 1 7.08-17.04Z"/><path fill-rule="evenodd" d="M15.05 6.375a.626.626 0 0 1 .479.601.626.626 0 0 1-.129.386l-3.995 5.243a.653.653 0 0 1-.107.109 2.36 2.36 0 0 1-1.656.517 2.15 2.15 0 0 1-1.526-.807 2.176 2.176 0 0 1-.454-1.67 2.335 2.335 0 0 1 .867-1.515.63.63 0 0 1 .2-.107l5.915-2.717a.626.626 0 0 1 .405-.04Zm-5.307 5.61a1.13 1.13 0 0 0 .721-.206L12.89 8.6l-3.643 1.67a1.1 1.1 0 0 0-.345.653.944.944 0 0 0 .193.722.913.913 0 0 0 .65.34Z" clip-rule="evenodd"/></svg>