<svg xmlns="http://www.w3.org/2000/svg" viewBox="0 0 20 20" fill="currentColor"><g clip-path="url(#a)"><path d="m7.115 7.822-.281.188-.316-.123a1.377 1.377 0 0 0-.5-.095A1.455 1.455 0 0 0 4.579 9.2a1.359 1.359 0 0 0 .6 1.142l.264.17.031.312c.184 1.846 2.172 3.29 4.526 3.29 2.354 0 4.332-1.437 4.523-3.272l.032-.3.248-.17a1.407 1.407 0 0 0-.016-2.337 1.311 1.311 0 0 0-1.26-.15l-.32.134-.29-.19a5.676 5.676 0 0 0-5.802-.007Zm-.194 2.187C6.633 8.5 9.164 8.261 9.058 9.8a.033.033 0 0 1-.052.021 1.9 1.9 0 0 0-2.015.25c-.043.03-.067-.027-.07-.062Zm6.526.052a.033.033 0 0 1-.025.02.033.033 0 0 1-.031-.01 1.9 1.9 0 0 0-2.017-.238c-.05.023-.059-.04-.053-.076.079-1.534 2.594-1.157 2.126.304Zm-1.715 1.044c.686.158.777.357.327.5a1.906 1.906 0 0 1-1.812 1.62c-1.154 0-2.349-1.5-1.8-1.78a5.827 5.827 0 0 1 3.285-.34Zm1.862-7.8a.913.913 0 1 1 .069.346.915.915 0 0 1-.069-.35v.004ZM20 6.941v6.118a3.612 3.612 0 0 1-1.952 3.214l-6.374 3.317a3.624 3.624 0 0 1-3.349 0L1.95 16.273A3.61 3.61 0 0 1 0 13.059V6.941a3.608 3.608 0 0 1 1.951-3.214L8.325.41a3.631 3.631 0 0 1 3.349 0l1.9.988c-.502.24-.89.667-1.084 1.188a3.8 3.8 0 0 0-2.8.993 2.159 2.159 0 0 0-.431 2.2 6.47 6.47 0 0 0-2.595.8A2.747 2.747 0 0 0 3.278 9.2a2.69 2.69 0 0 0 .944 2.047c.411 2.357 2.883 4.162 5.779 4.162s5.359-1.8 5.776-4.151a2.7 2.7 0 0 0-.258-4.3 2.638 2.638 0 0 0-2.161-.387 6.6 6.6 0 0 0-2.707-.8l-.129-.27a.883.883 0 0 1 .153-1.072 2.5 2.5 0 0 1 1.773-.538 2.145 2.145 0 0 0 4.209-.59 2.043 2.043 0 0 0-.032-.316l1.424.741A3.61 3.61 0 0 1 20 6.941Z"/></g><defs><clipPath id="a"><path d="M0 0H20V20H0z"/></clipPath></defs></svg>