<svg xmlns="http://www.w3.org/2000/svg" viewBox="0 0 20 20" fill="currentColor"><path d="M15.4 10.733h-.967l-3.5 8.45h1.216l.917-2.166h3.617l.917 2.166h1.3l-3.5-8.45Zm.87 5.25h-2.784l1.431-3.465 1.352 3.465ZM4.493 7.861H9.02v1.085H2.487v-.378l.02-.027 4.411-6.409H2.771V1.048h6.154v.377l-.019.027-4.412 6.409Zm12.422-3.273-2.03-2.234-1.954 2.225-.94-.824L14.41 1a.625.625 0 0 1 .464-.213.534.534 0 0 1 .468.2l2.5 2.75-.925.851ZM5.712 19.125a.629.629 0 0 1-.47-.22l-2.423-2.833.952-.81 1.95 2.284 2.022-2.292.938.826-2.5 2.833a.626.626 0 0 1-.469.212Z"/></svg>