<svg xmlns="http://www.w3.org/2000/svg" viewBox="0 0 20 20" fill="currentColor"><path d="M20 6.036a1.092 1.092 0 0 1-.332.775l-1.894 1.853a1.117 1.117 0 0 1-1.436.109L16 8.509v6.854a4.328 4.328 0 0 0-1.892-1.647l-6.843-3.591A2 2 0 0 0 5 10.411V8.475l-.32.24a1.121 1.121 0 0 1-1.48-.076L1.331 6.81a1.1 1.1 0 0 1-.014-1.557l3.869-3.921c.211-.212.498-.331.797-.332h1.55a1.094 1.094 0 0 1 1.095.909 1.9 1.9 0 0 0 3.744 0 1.092 1.092 0 0 1 1.1-.91h1.55a1.127 1.127 0 0 1 .8.332l3.87 3.92a1.1 1.1 0 0 1 .308.785Zm-5 11.548v1.079A1.324 1.324 0 0 1 13.691 20H1.31A1.325 1.325 0 0 1 0 18.663v-4.916a1.03 1.03 0 0 1 .5-.884.988.988 0 0 1 .98-.014 3 3 0 0 0 3.3-.266c.334-.342.649-.702.944-1.078a.624.624 0 0 1 .775-.163l6.75 3.5A2.945 2.945 0 0 1 15 17.584Zm-9.722.762 3.31-3.478L7.5 13.834l-3.31 3.478 1.088 1.034Zm5.6-2.4-1.094-1.03-2.26 2.4 1.093 1.029 2.261-2.399Z"/></svg>