<svg xmlns="http://www.w3.org/2000/svg" viewBox="0 0 20 20" fill="currentColor"><path d="M2.625 15.374V16A1.627 1.627 0 0 1 1 14.375V2.625A1.627 1.627 0 0 1 2.625 1h11.75A1.627 1.627 0 0 1 16 2.625H5.629a3.008 3.008 0 0 0-3 3l-.004 9.749ZM7.562 13.3 4 16.865v.513A1.624 1.624 0 0 0 5.622 19h10l-5.7-5.7a1.708 1.708 0 0 0-2.36 0ZM19 5.622v11.756a1.618 1.618 0 0 1-1.184 1.554l-6.761-6.76a3.275 3.275 0 0 0-4.624 0L4 14.6V5.622A1.624 1.624 0 0 1 5.622 4h11.756A1.624 1.624 0 0 1 19 5.622Zm-2.331 3.31a2.574 2.574 0 1 0-5.149 0 2.574 2.574 0 0 0 5.149 0Z"/></svg>