<svg xmlns="http://www.w3.org/2000/svg" viewBox="0 0 20 20" fill="currentColor"><path d="M1.835 10c-.312.464-.58.956-.8 1.469a5.542 5.542 0 0 1-.934-1.18.614.614 0 0 1 0-.63c.254-.425.564-.815.922-1.158.222.524.494 1.027.812 1.5Zm6.71 8.96c.34.346.724.647 1.142.895a.616.616 0 0 0 .628 0 5.608 5.608 0 0 0 1.142-.895A8.875 8.875 0 0 1 10 18.178c-.46.305-.947.567-1.455.782Zm11.356-8.67a.614.614 0 0 0 0-.63 5.563 5.563 0 0 0-.921-1.16 9.046 9.046 0 0 1-.812 1.5c.31.464.576.956.795 1.469.364-.349.68-.745.938-1.18ZM11.49 1.029A5.598 5.598 0 0 0 10.314.1a.608.608 0 0 0-.627 0 5.59 5.59 0 0 0-1.175.932c.52.218 1.019.486 1.489.8a8.87 8.87 0 0 1 1.489-.804ZM15.922 10a7.25 7.25 0 0 1 1.816 6.833 1.251 1.251 0 0 1-.9.9 7.42 7.42 0 0 1-1.824.23A7.169 7.169 0 0 1 10 15.928a7.165 7.165 0 0 1-5.01 2.042 7.412 7.412 0 0 1-1.823-.231 1.249 1.249 0 0 1-.9-.9A7.253 7.253 0 0 1 4.08 10a7.253 7.253 0 0 1-1.815-6.833 1.249 1.249 0 0 1 .9-.9 7.415 7.415 0 0 1 1.824-.231A7.165 7.165 0 0 1 10 4.075a7.169 7.169 0 0 1 5.01-2.042 7.42 7.42 0 0 1 1.824.23 1.252 1.252 0 0 1 .9.9 7.25 7.25 0 0 1-1.813 6.838Zm-3.8-2.121a3 3 0 1 0-4.245 4.241 3 3 0 0 0 4.246-4.241h-.001Z"/></svg>