<svg xmlns="http://www.w3.org/2000/svg" viewBox="0 0 20 20" fill="currentColor"><path d="M9 5.2v2.5C9 8.5 8.5 9 7.8 9H5.2C4.5 9 4 8.5 4 7.8V5.2C4 4.5 4.5 4 5.2 4h2.5C8.5 4 9 4.5 9 5.2ZM12.2 9h2.5c.8 0 1.3-.5 1.3-1.2V5.2c0-.7-.5-1.2-1.2-1.2h-2.5c-.8 0-1.3.5-1.3 1.2v2.5c0 .8.5 1.3 1.2 1.3Zm-4.4 2H5.2c-.7 0-1.2.5-1.2 1.2v2.5c0 .8.5 1.3 1.2 1.3h2.5c.8 0 1.3-.5 1.3-1.2v-2.5c0-.8-.5-1.3-1.2-1.3Zm8.2 3.4V11h-2v3h-3v2h3.4c.9 0 1.6-.7 1.6-1.6ZM3 13H1v4c0 1.1.9 2 2 2h4v-2H3v-4Zm14 4h-4v2h4c1.1 0 2-.9 2-2v-4h-2v4Zm0-16h-4v2h4v3.9h2V3c0-1.1-.9-2-2-2ZM3 3h4V1H3c-1.1 0-2 .9-2 2v4h2V3Z"/></svg>