<svg xmlns="http://www.w3.org/2000/svg" viewBox="0 0 20 20" fill="currentColor"><path d="M16.807 7.592c.092-.314.138-.64.139-.967a3.683 3.683 0 0 0-3.21-3.583A3.747 3.747 0 0 0 10 0a3.747 3.747 0 0 0-3.737 3.042 3.683 3.683 0 0 0-3.209 3.583c0 .328.047.653.139.967a4.462 4.462 0 0 0-1.16 3.58 4.712 4.712 0 0 0 2.886 3.667 4.112 4.112 0 0 0 2.775.281v3.324a.625.625 0 0 0 .625.625h3.362a.625.625 0 0 0 .625-.625V15.15a4.358 4.358 0 0 0 2.762-.3 4.711 4.711 0 0 0 2.9-3.665 4.462 4.462 0 0 0-1.161-3.593Z"/></svg>