<svg xmlns="http://www.w3.org/2000/svg" viewBox="0 0 20 20" fill="currentColor"><path d="M10 4a3.5 3.5 0 1 0 0 7 3.5 3.5 0 0 0 0-7Zm0 5.75a2.25 2.25 0 1 1 0-4.5 2.25 2.25 0 0 1 0 4.5Zm5.93-5.83a.979.979 0 0 1 0 1.41.931.931 0 0 1-.15.13c-.05.03-.11.06-.17.09-.06.03-.13.04-.19.06a1.21 1.21 0 0 1-.19.01.99.99 0 0 1-1-.99 1.036 1.036 0 0 1 .07-.39c.052-.12.127-.228.22-.32a.875.875 0 0 1 .32-.22 1.021 1.021 0 0 1 1.09.22ZM16.378 1H3.622A2.629 2.629 0 0 0 1 3.631v9.744a.625.625 0 0 0 .625.625H17.75v2.369a1.38 1.38 0 0 1-1.372 1.381H3.622a1.379 1.379 0 0 1-1.372-1.381v-.625H1v.625A2.63 2.63 0 0 0 3.622 19h12.756A2.63 2.63 0 0 0 19 16.369V3.631A2.63 2.63 0 0 0 16.378 1Zm1.372 11.75H2.25V3.631A1.379 1.379 0 0 1 3.622 2.25h12.756a1.38 1.38 0 0 1 1.372 1.381v9.119Z"/></svg>