<svg xmlns="http://www.w3.org/2000/svg" viewBox="0 0 20 20" fill="currentColor"><path d="m6.758 11.034.585 1.43a4.53 4.53 0 1 1 5.13-5.052l-1.419-.594a3.276 3.276 0 1 0-4.3 4.216h.004Zm-3.53 1.738a6.75 6.75 0 1 1 9.545-9.544A6.7 6.7 0 0 1 14.75 8c0 .121-.01.24-.018.36l1.218.51a8 8 0 1 0-7.177 7.093l-.5-1.225a6.722 6.722 0 0 1-5.046-1.966Zm9.623 7.141 1.2-2.874 2.021 2.011a.7.7 0 0 0 .99 0l1.885-1.87a.7.7 0 0 0 .007-.989l-1.994-2.038 2.5-1.024a.7.7 0 0 0 .431-.647L19.852 12 8.712 7.262a1.1 1.1 0 0 0-1.443 1.424l4.448 10.84a.7.7 0 0 0 .646.433l.488-.046Zm4.913-7.436L14.772 13.7l2.912 2.977-1.112 1.1-2.95-2.938-1.25 2.981-3.759-9.178 9.151 3.835Z"/></svg>