<svg xmlns="http://www.w3.org/2000/svg" viewBox="0 0 24 24" fill="currentColor"><path d="M22.91 2.215a1.776 1.776 0 0 0-3.21-.354l-8.787 14.655a1.02 1.02 0 0 1-.868.492H3.032a1.835 1.835 0 0 0-1.813 2.12l.337 2.143A2.039 2.039 0 0 0 3.58 23h7.441a2.265 2.265 0 0 0 1.992-1.186l9.772-18.2a1.775 1.775 0 0 0 .125-1.399ZM3.58 21.75a.793.793 0 0 1-.789-.673l-.337-2.142a.585.585 0 0 1 .578-.677H5.75v3.492H3.58Zm18.1-18.728-9.773 18.2a1.014 1.014 0 0 1-.892.53H7v-3.494h3.046a2.274 2.274 0 0 0 1.94-1.1l8.788-14.653a.525.525 0 0 1 .911.517h-.005ZM6.5 14c2.564 0 4.5-1.058 4.5-2.461V9.461C11 8.058 9.063 7 6.5 7 3.933 7 2 8.058 2 9.461v2.078C2 12.942 3.933 14 6.5 14Zm0-1.25c-1.955 0-3.25-.729-3.25-1.211v-.346a6.754 6.754 0 0 0 3.25.73 6.754 6.754 0 0 0 3.25-.73v.346c0 .482-1.297 1.211-3.25 1.211Zm0-4.5c1.953 0 3.25.729 3.25 1.211 0 .482-1.3 1.212-3.25 1.212s-3.25-.73-3.25-1.212S4.544 8.25 6.5 8.25Z"/></svg>