<svg xmlns="http://www.w3.org/2000/svg" viewBox="0 0 20 20" fill="currentColor"><path d="M11.266 5.162a.627.627 0 0 1 .03-.674l1.857-2.632a.625.625 0 0 1 .727-.227c.087.031.165.08.23.145a5.777 5.777 0 0 1 1.7 4.113 6.937 6.937 0 0 1-1.644 4.045l-.183.23-3.032-3.178a1.467 1.467 0 0 0 .508-1.1c0-.253-.067-.502-.193-.722ZM8.71 15.78l.013-.016-2.8-3.513-3.273 3.434a1.145 1.145 0 0 0 .05 1.626L5 19.46c.213.197.491.307.78.307h.086a1.15 1.15 0 0 0 .81-.429l2.443-3.068-.341-.429-.068-.06Zm8.64-.1L9.017 6.948a3.274 3.274 0 0 1 .415-3.734L9.625 3c.942-1.067 1.564-1.77 1.268-2.429a.885.885 0 0 0-.884-.495 5.816 5.816 0 0 0-5.817 5.811c.1 1.497.68 2.92 1.657 4.06l7.474 9.387a1.147 1.147 0 0 0 .81.43h.085c.29 0 .57-.109.783-.306l2.3-2.147a1.148 1.148 0 0 0 .048-1.627l.002-.004Z"/></svg>