<svg xmlns="http://www.w3.org/2000/svg" viewBox="0 0 20 20" fill="currentColor"><path d="M19.938 9.211a3.25 3.25 0 0 0-3.177-2.642c-.45 0-.895.102-1.3.3a10.812 10.812 0 0 0-4.838-1.379l.81-3.741 2.444.519a1.492 1.492 0 1 0 .2-1.235L11.572.5a1.13 1.13 0 0 0-1.333.862L9.343 5.5a10.77 10.77 0 0 0-4.791 1.357 3.214 3.214 0 0 0-1.315-.289A3.248 3.248 0 0 0 .064 9.2c-.079.4-.085.812-.018 1.214a3.23 3.23 0 0 0 .912 1.754l.066.071v.127c.076 3.69 4.013 6.582 8.975 6.582 4.961 0 8.89-2.889 8.965-6.567l.006-.138.044-.046a3.252 3.252 0 0 0 .939-1.778c.067-.4.062-.81-.015-1.208Zm-1.221 1c-.075.42-.282.805-.59 1.1l-.392.407-.024.625c-.061 3-3.45 5.354-7.716 5.354-4.267 0-7.66-2.353-7.717-5.371l-.024-.6-.4-.433c-.3-.293-.5-.674-.571-1.087a2.138 2.138 0 0 1 .012-.765 2 2 0 0 1 1.942-1.623c.353.003.698.102 1 .286l.337.216.334-.22a9.435 9.435 0 0 1 4.758-1.381h.719a9.427 9.427 0 0 1 4.726 1.4l.347.225.343-.232a1.7 1.7 0 0 1 .96-.3 2 2 0 0 1 1.949 1.629c.049.253.051.512.007.766v.004Z"/></svg>