<svg xmlns="http://www.w3.org/2000/svg" viewBox="0 0 20 20" fill="currentColor"><path d="m10.33 19.947-.032.009A1.121 1.121 0 0 1 10 20c-.101 0-.202-.014-.3-.04C8.249 19.553 1 17.273 1 12V3.182A1.12 1.12 0 0 1 1.847 2.1L9.73.108c.178-.044.363-.044.541 0L18.153 2.1A1.12 1.12 0 0 1 19 3.182v7.237h-.683a3.737 3.737 0 0 1-3.737-3.737V4.343a.627.627 0 0 0-.627-.626h-3a.627.627 0 0 0-.627.626v2.339a3.737 3.737 0 0 1-3.737 3.737H4.255a.627.627 0 0 0-.627.627v3a.627.627 0 0 0 .627.627h2.338a3.737 3.737 0 0 1 3.737 3.737v1.537Zm7.987-8.028a5.243 5.243 0 0 1-5.237-5.237V5.217h-1.25v1.465a5.243 5.243 0 0 1-5.237 5.237H5.128v1.25h1.465a5.244 5.244 0 0 1 5.237 5.238v1.465h1.25v-1.465a5.244 5.244 0 0 1 5.237-5.238h1.466v-1.25h-1.466Z"/></svg>