<svg xmlns="http://www.w3.org/2000/svg" viewBox="0 0 20 20" fill="currentColor"><g clip-path="url(#a)"><path d="M20 10a9.99 9.99 0 0 1-17.564 6.522h1.751a8.745 8.745 0 1 0-1.764-10.88h-1.41A9.992 9.992 0 0 1 20 10ZM5.927 14.915h-4.58l-.178-.35A10.052 10.052 0 0 1 0 9.856c.002-.761.082-1.52.241-2.264l.108-.507h5.578a1.269 1.269 0 0 1 1.035.568l2.909-3.795a1.073 1.073 0 0 1 1.485-.217l.142.1a2.174 2.174 0 0 1 .551 2.89l-.683 1h2.352a1.587 1.587 0 0 1 1.241.6 1.606 1.606 0 0 1 .317 1.364l-.922 3.962a1.61 1.61 0 0 1-1.554 1.256H8.753a3.754 3.754 0 0 1-1.79-.467 1.268 1.268 0 0 1-1.036.569Zm1.3-5.537v3.639c.436.342.972.53 1.526.537H12.8a.344.344 0 0 0 .329-.272l.923-3.962a.364.364 0 0 0-.07-.3.334.334 0 0 0-.26-.126H9.938l-.244-.374a.708.708 0 0 1 .037-.728L11 5.947a.9.9 0 0 0-.234-1.18L7.227 9.378Zm-5.086 4.257h3.786l.02-.052V8.371H1.4a9.5 9.5 0 0 0-.119 1.485c0 1.308.293 2.6.86 3.779Z"/></g><defs><clipPath id="a"><path d="M0 0H20V20H0z"/></clipPath></defs></svg>