<svg xmlns="http://www.w3.org/2000/svg" viewBox="0 0 20 20" fill="currentColor"><path d="M17.806 16.25a10 10 0 1 0-1.403 1.43l2.187 2.15 1.403-1.429-2.187-2.151ZM13.133 6.04a2.453 2.453 0 1 1 0 4.905 2.453 2.453 0 0 1 0-4.905Zm-6.056 0a2.453 2.453 0 1 1 0 4.905 2.453 2.453 0 0 1 0-4.905ZM11.733 17.8a7.982 7.982 0 0 1-9.018-4.504 3.507 3.507 0 0 1 2.898-1.49h2.495a3.574 3.574 0 0 1 3.623 3.515l.002 2.48Zm1.503-.493v-1.986a4.946 4.946 0 0 0-1.477-3.515h2.247a3.628 3.628 0 0 1 3.139 1.796 8.065 8.065 0 0 1-3.909 3.705Z"/></svg>