<svg xmlns="http://www.w3.org/2000/svg" viewBox="0 0 20 20" fill="currentColor"><path d="m19.255 6.962-.661 1.578-.216-.081a1.761 1.761 0 0 1-1.1-.877h-.027c-.246.304-.565.54-.928.685a3.283 3.283 0 0 1-1.338.273c-.445.01-.887-.09-1.285-.29a2.174 2.174 0 0 1-.869-.792 2.084 2.084 0 0 1-.311-1.124 1.9 1.9 0 0 1 .354-1.159 2.307 2.307 0 0 1 1.08-.775 4.845 4.845 0 0 1 1.74-.276h1.221v-.332a1.135 1.135 0 0 0-.317-.846 1.355 1.355 0 0 0-.985-.314 3.76 3.76 0 0 0-1.072.172c-.33.092-.646.23-.938.408L13 1.769c.393-.22.815-.382 1.254-.482a6.525 6.525 0 0 1 1.638-.206 3.114 3.114 0 0 1 1.886.469c.363.245.631.607.761 1.025.1.389.148.789.146 1.19v2.24a1.69 1.69 0 0 0 .084.623.5.5 0 0 0 .327.28l.159.054Zm-3.173.013c.255-.087.484-.235.667-.432a1.035 1.035 0 0 0 .28-.741v-.438H15.64a1.87 1.87 0 0 0-1 .222.721.721 0 0 0-.351.647.754.754 0 0 0 .317.652c.22.152.482.231.749.225.248-.004.494-.05.727-.135ZM9.667 2H6.656L0 18h3.8l1.244-3.2h6.252l1.241 3.2h3.787L9.667 2Zm.721 9.856H5.947l2.171-5.688h.088l2.182 5.688Z"/></svg>