<svg xmlns="http://www.w3.org/2000/svg" viewBox="0 0 20 20" fill="currentColor"><path d="M3 10.625H0v-1.25h3v1.25Zm17-1.25h-3v1.25h3v-1.25ZM10.625 0h-1.25v3h1.25V0Zm0 17h-1.25v3h1.25v-3ZM5.492 4.608 3.37 2.487l-.883.884 2.122 2.121.883-.884Zm12.022 12.021-2.121-2.121-.885.884 2.121 2.121.885-.884Zm0-13.258-.883-.884-2.123 2.121.883.884 2.123-2.121ZM5.492 15.392l-.885-.884-2.121 2.121.885.884 2.121-2.121ZM15 10a5 5 0 1 0-9.999 0A5 5 0 0 0 15 10Zm-1.25 0a3.75 3.75 0 1 1-7.5 0 3.75 3.75 0 0 1 7.5 0Z"/></svg>