<svg xmlns="http://www.w3.org/2000/svg" viewBox="0 0 20 20" fill="currentColor"><path d="M4.741 10.094h-.124A1.587 1.587 0 0 0 3 11.645v4.708a1.582 1.582 0 0 0 1.617 1.541h.124a2.543 2.543 0 0 0 2.609-2.467v-2.866a2.544 2.544 0 0 0-2.609-2.467ZM6.1 15.427a1.3 1.3 0 0 1-1.359 1.217h-.124a.336.336 0 0 1-.367-.291v-4.708a.344.344 0 0 1 .367-.3h.124A1.3 1.3 0 0 1 6.1 12.561v2.866ZM0 10.941h1.25v5.874H0v-5.874Zm17.75-.841v-.623A7.51 7.51 0 0 0 10 2.25a7.511 7.511 0 0 0-7.75 7.227v.623H1v-.623A8.76 8.76 0 0 1 10 1a8.76 8.76 0 0 1 9 8.477v.623h-1.25Zm-2.367-.008h-.124a2.544 2.544 0 0 0-2.609 2.467v2.866a2.543 2.543 0 0 0 2.609 2.467h.124A1.582 1.582 0 0 0 17 16.353v-4.708a1.587 1.587 0 0 0-1.617-1.551v-.002Zm.367 6.259a.336.336 0 0 1-.367.291h-.124a1.3 1.3 0 0 1-1.359-1.215v-2.866a1.3 1.3 0 0 1 1.359-1.217h.124a.344.344 0 0 1 .367.3v4.707Zm4.25-5.41v5.874h-1.25v-5.874H20Z"/></svg>