<svg xmlns="http://www.w3.org/2000/svg" viewBox="0 0 20 20" fill="currentColor"><path d="M11 18h1a2 2 0 1 1-4 0h3ZM10 2.25a4.832 4.832 0 0 1 4.819 4.837v1.612a3.956 3.956 0 0 0 1.738 3.266 2.7 2.7 0 0 1 1.192 2.235l1.143 1.143A1.1 1.1 0 0 0 19 14.88v-.672a3.95 3.95 0 0 0-1.737-3.278 2.7 2.7 0 0 1-1.189-2.23l-.005-1.61a6.057 6.057 0 0 0-10.034-4.6l.9.9A4.763 4.763 0 0 1 10 2.25Zm8.558 17.192L15.115 16h-13A1.119 1.119 0 0 1 1 14.88v-.672a3.95 3.95 0 0 1 1.738-3.278A2.7 2.7 0 0 0 3.926 8.7V7.087a6 6 0 0 1 .332-1.936l-3.7-3.7.884-.893 18 18-.884.884Zm-4.693-4.692L5.282 6.166c-.064.302-.098.61-.1.919v1.614a3.956 3.956 0 0 1-1.738 3.266 2.7 2.7 0 0 0-1.194 2.243v.542h11.615Z"/></svg>