<svg xmlns="http://www.w3.org/2000/svg" viewBox="0 0 20 20" fill="currentColor"><path d="M20 13.554v.41A1.034 1.034 0 0 1 18.97 15h-3.614a6.688 6.688 0 0 0-.913-1.25h4.306v-.2a4.27 4.27 0 0 0-4.228-4.3h-1.888a4.98 4.98 0 0 0 .075-.727A4.992 4.992 0 0 0 12.654 8h1.866A5.522 5.522 0 0 1 20 13.554Zm-9.992-9.811A2.56 2.56 0 1 1 12.122 6.2c.216.4.376.83.478 1.274A3.738 3.738 0 1 0 8.776 3.56c.442.109.867.277 1.264.5a2.39 2.39 0 0 1-.032-.317Zm4.991 15.221v-.41A5.522 5.522 0 0 0 9.522 13H5.478A5.522 5.522 0 0 0 0 18.554v.41A1.034 1.034 0 0 0 1.03 20H13.97A1.033 1.033 0 0 0 15 18.964Zm-13.749-.41a4.271 4.271 0 0 1 4.228-4.3h4.044a4.271 4.271 0 0 1 4.227 4.3v.2H1.25v-.2Zm9.992-10.031a3.742 3.742 0 1 0-7.484.001 3.742 3.742 0 0 0 7.484-.001Zm-1.25 0A2.492 2.492 0 1 1 7.5 6.032a2.5 2.5 0 0 1 2.492 2.49Z"/></svg>