<svg xmlns="http://www.w3.org/2000/svg" viewBox="0 0 20 20" fill="currentColor"><path d="M17 9.93v-.078A6.936 6.936 0 0 0 10 3a6.936 6.936 0 0 0-7 6.852v.077H1v-.077A8.937 8.937 0 0 1 10 1a8.937 8.937 0 0 1 9 8.852v.077h-2ZM0 16.755h2V11H0v5.756ZM18 11v5.756h2V11h-2Zm-13.385-.906h-.11A1.447 1.447 0 0 0 3 11.544v4.91a1.525 1.525 0 0 0 1.505 1.54h.11A2.429 2.429 0 0 0 7 15.527v-3.066a2.343 2.343 0 0 0-2.385-2.367Zm10.77 0A2.342 2.342 0 0 0 13 12.461v3.066a2.429 2.429 0 0 0 2.385 2.467h.11A1.524 1.524 0 0 0 17 16.454v-4.91a1.446 1.446 0 0 0-1.5-1.45h-.115Z"/></svg>