<svg xmlns="http://www.w3.org/2000/svg" viewBox="0 0 20 20" fill="currentColor"><path d="M16.89 8.1c-.367 0-.727.096-1.044.279a2.113 2.113 0 0 0-1.926-1.258c-.358 0-.71.09-1.021.265a2.111 2.111 0 0 0-1.948-1.31 1.943 1.943 0 0 0-.7.127V2.245A2.258 2.258 0 0 0 7.98.121a1.906 1.906 0 0 0-1.457.653A2.235 2.235 0 0 0 6 2.246v8.77L4.848 9.471a2.124 2.124 0 0 0-2.812-.552 2.163 2.163 0 0 0-.725 2.965L4.219 16.7A6.659 6.659 0 0 0 9.825 20h2.63A6.674 6.674 0 0 0 19 13.246v-3.023A2.119 2.119 0 0 0 16.89 8.1Zm.86 5.148a5.487 5.487 0 0 1-5.3 5.5H9.827a5.4 5.4 0 0 1-4.537-2.693l-2.91-4.818a.911.911 0 0 1 .3-1.249.876.876 0 0 1 1.163.23l1.972 2.644a.816.816 0 0 0 .914.244.72.72 0 0 0 .518-.677V2.245a.981.981 0 0 1 .22-.645.649.649 0 0 1 .514-.225A1.021 1.021 0 0 1 9 2.246V8.2h1.25a1.02 1.02 0 0 1 .208-.657.616.616 0 0 1 .493-.217.88.88 0 0 1 .86.92v1h1.25a.861.861 0 1 1 1.719 0v.977h1.25a.86.86 0 0 1 1.72 0v3.025ZM3.243 4.7a5.14 5.14 0 0 1 0-4.4l1.129.539a3.892 3.892 0 0 0 0 3.321l-1.13.54Zm8.384-.536a3.883 3.883 0 0 0 0-3.321L12.756.3a5.13 5.13 0 0 1 0 4.393l-1.13-.529Z"/></svg>