<svg xmlns="http://www.w3.org/2000/svg" viewBox="0 0 20 20" fill="currentColor"><path d="M12 10a1 1 0 0 0 1-1V7h3a3 3 0 0 0 0-6h-4a1 1 0 0 0-1 1v7a1 1 0 0 0 1 1Zm1-7h3a1 1 0 1 1 0 2h-3V3ZM7.27 6.708A2.994 2.994 0 0 0 6 1H2a1 1 0 0 0-1 1v7a1 1 0 0 0 2 0V7h2.164l2.267 2.7A.9.9 0 0 0 8.81 8.542L7.27 6.708ZM3 3h3a1 1 0 1 1 0 2H3V3Zm16 11v4a1 1 0 0 1-2 0v-4a2 2 0 0 0-4 0v4a1 1 0 0 1-2 0v-4a4 4 0 1 1 8 0ZM5 10a4 4 0 0 0-4 4v4a1 1 0 1 0 2 0v-2h4v2a1 1 0 1 0 2 0v-4a4 4 0 0 0-4-4Zm-2 4a2 2 0 0 1 4 0H3Z"/></svg>