<svg xmlns="http://www.w3.org/2000/svg" viewBox="0 0 20 20" fill="currentColor"><path d="m17.71 8.549 1.244.832v8.523a1.05 1.05 0 0 1-1.052 1.046H12.73a.707.707 0 0 1-.708-.707v-4.507c0-.76-1.142-1.474-2.026-1.474-.884 0-2.026.714-2.026 1.474v4.507a.71.71 0 0 1-.703.707H2.098a1.046 1.046 0 0 1-1.052-1.043V9.381l1.244-.835v9.158h4.44v-3.968c0-1.533 1.758-2.72 3.27-2.72s3.27 1.187 3.27 2.72v3.968h4.44V8.549Zm2.04-1.784L10.646.655a1.12 1.12 0 0 0-1.28-.008L.25 6.765l.696 1.036L10 1.721l9.054 6.08.696-1.036Z"/></svg>