<svg xmlns="http://www.w3.org/2000/svg" viewBox="0 0 20 20" fill="currentColor"><path d="M.338 2.736.081 1.513A23.813 23.813 0 0 1 5 1v1.25c-1.567 0-3.129.163-4.662.486ZM9.843 20h2.613A6.674 6.674 0 0 0 19 13.246v-3.023A2.12 2.12 0 0 0 16.89 8.1c-.367 0-.727.096-1.044.279a2.113 2.113 0 0 0-1.926-1.258c-.357 0-.709.09-1.02.265a2.112 2.112 0 0 0-1.949-1.31 1.942 1.942 0 0 0-.7.127V2.245A2.258 2.258 0 0 0 7.981.121a1.906 1.906 0 0 0-1.457.653A2.235 2.235 0 0 0 6 2.246v8.77L4.848 9.471a2.124 2.124 0 0 0-2.812-.552 2.163 2.163 0 0 0-.725 2.965L4.22 16.7A6.659 6.659 0 0 0 9.825 20h.018Zm-6-9.782 1.972 2.644a.816.816 0 0 0 .914.244.72.72 0 0 0 .518-.677V2.245a.981.981 0 0 1 .22-.645.65.65 0 0 1 .514-.225A1.021 1.021 0 0 1 9 2.246V8.2h1.25c-.009-.237.065-.469.208-.657a.615.615 0 0 1 .493-.217.88.88 0 0 1 .86.92v1h1.25a.857.857 0 0 1 .86-.89.86.86 0 0 1 .86.89v.977h1.25a.86.86 0 1 1 1.72 0v3.023a5.488 5.488 0 0 1-5.3 5.5H9.84a5.376 5.376 0 0 1-4.55-2.691l-2.91-4.818a.911.911 0 0 1 .3-1.249.876.876 0 0 1 1.162.23Z"/></svg>