<svg xmlns="http://www.w3.org/2000/svg" viewBox="0 0 20 20" fill="currentColor"><path d="M9.998 5.376a4.623 4.623 0 1 0 4.625 4.625 4.63 4.63 0 0 0-4.625-4.625Zm0 7.75A3.123 3.123 0 0 1 7.791 7.79a3.124 3.124 0 1 1 2.207 5.334ZM11.624 10a1.625 1.625 0 1 1-3.25 0 1.625 1.625 0 0 1 3.25 0Zm5.44-7.068a9.99 9.99 0 0 0-16.94 5.51 9.883 9.883 0 0 0 1.194 6.49L.085 19.012a.727.727 0 0 0 .178.721.715.715 0 0 0 .72.19l4.166-1.193A9.848 9.848 0 0 0 9.989 20a9.99 9.99 0 0 0 9.728-12.342 9.992 9.992 0 0 0-2.654-4.724ZM9.997 16.125a6.122 6.122 0 0 1-6.004-7.32A6.124 6.124 0 0 1 15.09 6.598a6.124 6.124 0 0 1 1.032 3.403 6.132 6.132 0 0 1-6.124 6.124Z"/></svg>