<svg xmlns="http://www.w3.org/2000/svg" viewBox="0 0 20 20" fill="currentColor"><path d="M7.973 19.844a1.624 1.624 0 0 1-1.15-.472L.629 13.177A1.632 1.632 0 0 1 .61 10.9l9.107-9.4a1.631 1.631 0 0 1 1.168-.5h6.49A1.627 1.627 0 0 1 19 2.625v6.491a1.633 1.633 0 0 1-.5 1.168l-9.4 9.1c-.301.294-.706.46-1.127.46ZM10.885 2.25a.38.38 0 0 0-.271.114l-9.1 9.4a.375.375 0 0 0 0 .525l6.194 6.195a.377.377 0 0 0 .526 0l9.4-9.106a.374.374 0 0 0 .114-.269V2.625a.375.375 0 0 0-.375-.375h-6.488ZM14.5 4a1.5 1.5 0 1 0 0 3 1.5 1.5 0 0 0 0-3Z"/></svg>