<svg xmlns="http://www.w3.org/2000/svg" viewBox="0 0 20 20" fill="currentColor"><path d="M3.625 6.25c.237-.003.473-.04.7-.107-.212.465-.323.97-.325 1.482v.625h1.25v-.625a2.357 2.357 0 0 1 .7-1.679 2.416 2.416 0 0 1 3.381.022l1.517 1.367.837-.929-1.497-1.344a3.714 3.714 0 0 0-4.052-.713 2.59 2.59 0 0 0 .114-.724A2.625 2.625 0 1 0 3.625 6.25Zm0-4a1.375 1.375 0 1 1 0 2.75 1.375 1.375 0 0 1 0-2.75Zm10.43 3.7a2.36 2.36 0 0 1 .512 2.601 2.385 2.385 0 0 1-.53.778l-1.367 1.516.929.837 1.343-1.493a3.6 3.6 0 0 0 .739-4.045c.227.068.463.104.7.107a2.625 2.625 0 1 0-2.631-2.626c.003.237.04.473.107.7A3.611 3.611 0 0 0 12.375 4h-.625v1.25h.625a2.363 2.363 0 0 1 1.68.696v.004Zm2.32-3.7a1.375 1.375 0 1 1 0 2.75 1.375 1.375 0 0 1 0-2.75Zm0 11.5c-.237.003-.473.04-.7.107.212-.465.323-.97.325-1.482v-.625h-1.25v.625a2.356 2.356 0 0 1-.7 1.679 2.416 2.416 0 0 1-3.381-.022l-1.513-1.367-.837.929 1.493 1.344a3.6 3.6 0 0 0 4.045.737 2.578 2.578 0 0 0-.107.7 2.625 2.625 0 1 0 2.625-2.625Zm0 4a1.375 1.375 0 1 1 0-2.75 1.375 1.375 0 0 1 0 2.75Zm-10.43-3.7a2.36 2.36 0 0 1-.512-2.601c.123-.292.303-.557.53-.778l1.372-1.515-.929-.837-1.344 1.493a3.6 3.6 0 0 0-.738 4.045 2.562 2.562 0 0 0-.7-.107 2.625 2.625 0 1 0 2.626 2.625 2.564 2.564 0 0 0-.107-.7c.465.212.97.323 1.482.325h.625v-1.25h-.625a2.364 2.364 0 0 1-1.68-.696v-.004Zm-2.32 3.7a1.375 1.375 0 1 1 0-2.75 1.375 1.375 0 0 1 0 2.75Z"/></svg>