<svg xmlns="http://www.w3.org/2000/svg" viewBox="0 0 20 20" fill="currentColor"><path d="M17.375 19H5.625A1.627 1.627 0 0 1 4 17.375V5.625A1.627 1.627 0 0 1 5.625 4h11.75A1.627 1.627 0 0 1 19 5.625v11.75A1.627 1.627 0 0 1 17.375 19ZM5.625 5.25a.375.375 0 0 0-.375.375v11.75a.375.375 0 0 0 .375.375h11.75a.375.375 0 0 0 .375-.375V5.625a.375.375 0 0 0-.375-.375H5.625Zm4.512 8.972-.393-1.1H7.785l-.393 1.1H6.13l2.14-5.444h.99l2.14 5.444h-1.263Zm-1.383-4.015-.681 1.928h1.384l-.673-1.928h-.03Zm6.554-1.127c.417.2.767.514 1.01.907.265.445.398.957.382 1.475a2.863 2.863 0 0 1-.375 1.5c-.232.402-.572.73-.983.946-.4.21-.847.32-1.3.317h-1.948V8.778h1.861c.468-.004.93.1 1.353.302Zm-.578 3.895c.231-.133.422-.327.552-.56a1.84 1.84 0 0 0 .223-.945 1.767 1.767 0 0 0-.223-.927 1.39 1.39 0 0 0-1.198-.699H13.3v3.312h.787c.226-.005.447-.067.643-.181ZM2.625 14.75a.375.375 0 0 1-.375-.375V2.625a.375.375 0 0 1 .375-.375h11.75a.375.375 0 0 1 .375.375H16A1.627 1.627 0 0 0 14.375 1H2.625A1.627 1.627 0 0 0 1 2.625v11.75A1.627 1.627 0 0 0 2.625 16v-1.25Z"/></svg>