<svg xmlns="http://www.w3.org/2000/svg" viewBox="0 0 20 20" fill="currentColor"><path d="M18.865 7.42a.62.62 0 0 1-.348-.359 2.046 2.046 0 0 1-.1-.736V3.783a3.13 3.13 0 0 0-.58-1.969 2.312 2.312 0 0 0-1.949-.751 5.423 5.423 0 0 0-1.4.2 5.16 5.16 0 0 0-1.274.515l.45 1.053a3.668 3.668 0 0 1 1.02-.481 3.8 3.8 0 0 1 1.116-.194c.358-.027.713.077 1 .291.199.163.341.384.407.632.053.24.08.486.078.732v.314h-1.249a5.28 5.28 0 0 0-1.815.273c-.441.145-.83.418-1.117.783a1.985 1.985 0 0 0-.376 1.213c-.01.397.094.788.3 1.127.204.326.497.587.844.752.384.183.805.275 1.23.267.474.008.943-.099 1.367-.31.377-.183.698-.463.93-.811h.034c.035.224.14.432.3.592.174.192.387.345.625.447l.192.082.45-1.066-.135-.055Zm-1.544-1.627c.005.336-.109.662-.32.922a2.053 2.053 0 0 1-.8.605 2.428 2.428 0 0 1-.965.208 1.689 1.689 0 0 1-.687-.136 1.133 1.133 0 0 1-.492-.4 1.093 1.093 0 0 1-.18-.629 1.02 1.02 0 0 1 .645-1 3.9 3.9 0 0 1 1.6-.29h1.2v.72ZM8.808 2H7.193L.537 17.9h2.051l1.746-4.09h7.332l1.746 4.09h2.052L8.808 2ZM5.032 12.03l2.924-7.36h.088l2.924 7.36H5.032Z"/></svg>