<svg xmlns="http://www.w3.org/2000/svg" viewBox="0 0 20 20" fill="currentColor"><path d="M7.966 5.557a2.92 2.92 0 0 1-.514-2.341A4.342 4.342 0 0 1 9.38.6a1.131 1.131 0 0 1 1.237 0 4.154 4.154 0 0 1 2.008 3.36 2.634 2.634 0 0 1-.83 1.916 2.6 2.6 0 0 1-1.795.709c-.059 0-.119 0-.179-.006a2.515 2.515 0 0 1-1.854-1.022ZM12.25 8h-4.5A1.693 1.693 0 0 0 6 9.625v6.947c.054 0 .107.013.162.013h7.676c.055 0 .108-.01.162-.013V9.625A1.693 1.693 0 0 0 12.25 8Zm7.07 8.33.328-.945-1.888-.658-.329.943A3.574 3.574 0 0 1 14.017 18H5.981a3.574 3.574 0 0 1-3.413-2.33l-.328-.943-1.888.658.329.945A5.573 5.573 0 0 0 5.98 20h8.036a5.572 5.572 0 0 0 5.301-3.67Z"/></svg>