<svg xmlns="http://www.w3.org/2000/svg" viewBox="0 0 20 20" fill="currentColor"><path d="m4.47 7.123 2.653-1.26h.47V14.5H6.15V7.668l-1.68.8V7.123Zm9.9 3.69a2.288 2.288 0 0 1-.02 2.54 2.7 2.7 0 0 1-1.085.91 3.699 3.699 0 0 1-3.068 0A2.774 2.774 0 0 1 9.1 13.35a2.253 2.253 0 0 1-.019-2.532c.257-.383.61-.69 1.025-.893A2.372 2.372 0 0 1 9.4 9.11a2.21 2.21 0 0 1-.257-1.048 2.1 2.1 0 0 1 .342-1.175c.233-.353.557-.637.938-.82.409-.202.86-.305 1.315-.3.451-.005.897.098 1.3.3.377.185.697.468.926.82.227.352.345.762.34 1.18a2.2 2.2 0 0 1-.255 1.05 2.3 2.3 0 0 1-.706.8c.415.202.77.512 1.026.896ZM12.54 13.2c.235-.11.437-.28.583-.495.142-.207.216-.454.214-.705a1.267 1.267 0 0 0-.205-.7 1.468 1.468 0 0 0-.57-.51 1.776 1.776 0 0 0-.83-.19c-.29-.004-.577.061-.836.19a1.5 1.5 0 0 0-.583.513 1.262 1.262 0 0 0 .003 1.4c.147.216.348.388.583.5.256.124.537.186.821.182a1.86 1.86 0 0 0 .82-.185Zm-1.474-6.083a1.194 1.194 0 0 0-.468.422 1.11 1.11 0 0 0-.173.615c-.002.224.058.444.173.636.113.192.275.35.468.46.201.114.429.173.66.17.23.002.456-.055.656-.167a1.233 1.233 0 0 0 .638-1.099 1.132 1.132 0 0 0-.635-1.037 1.507 1.507 0 0 0-1.319 0ZM10 19.988a4.616 4.616 0 0 1-3.27-1.352l-5.366-5.365a4.627 4.627 0 0 1 0-6.542L6.73 1.364a4.634 4.634 0 0 1 6.542 0l5.366 5.365a4.634 4.634 0 0 1 0 6.542l-5.366 5.365a4.615 4.615 0 0 1-3.27 1.352Zm0-18.726a3.362 3.362 0 0 0-2.386.987L2.25 7.614a3.374 3.374 0 0 0 0 4.772l5.366 5.365a3.38 3.38 0 0 0 4.773 0l5.365-5.365a3.375 3.375 0 0 0 0-4.772L12.387 2.25A3.364 3.364 0 0 0 10 1.262Z"/></svg>