<svg xmlns="http://www.w3.org/2000/svg" viewBox="0 0 20 20" fill="currentColor"><path d="M7.391 12.832a5.465 5.465 0 0 0-1.633.6 6.14 6.14 0 1 1 8.484 0 5.465 5.465 0 0 0-1.633-.6 4.64 4.64 0 1 0-5.218 0ZM4.7 14.192a7.424 7.424 0 1 1 10.594 0c.373.339.702.724.978 1.145a8.924 8.924 0 1 0-12.55 0c.276-.421.605-.806.978-1.145ZM11.581 14H8.419A4.569 4.569 0 0 0 4 18.7v.34a.953.953 0 0 0 .941.96h10.118a.953.953 0 0 0 .941-.963V18.7a4.57 4.57 0 0 0-4.419-4.7ZM10 5.583a3.417 3.417 0 1 0 0 6.834 3.417 3.417 0 0 0 0-6.834Z"/></svg>