<svg xmlns="http://www.w3.org/2000/svg" viewBox="0 0 20 20" fill="currentColor"><path d="M16.375 0h-13.7A1.627 1.627 0 0 0 1.05 1.625v1.5A1.127 1.127 0 0 0 2.175 4.25h.875v14.632A1.123 1.123 0 0 0 4.175 20h12.7A1.123 1.123 0 0 0 18 18.882V1.611A1.62 1.62 0 0 0 16.375 0ZM5.732 6.77h.48V5.23a1.232 1.232 0 0 1-.47.111v-.507c.178.01.353-.05.487-.167h.7v2.1h.419v.563H5.732v-.56Zm.868 1.9c.619 0 .916.312.916.8 0 .3-.121.588-.66.878-.333.188-.443.318-.482.424h1.158v.564H5.557v-.146c0-.379.07-.763.768-1.185.4-.246.516-.3.516-.522 0-.148-.094-.23-.258-.23a.708.708 0 0 0-.554.395L5.55 9.3A1.171 1.171 0 0 1 6.6 8.667v.003Zm-.053 6.666A1.22 1.22 0 0 1 5.5 14.8l.42-.367a.7.7 0 0 0 .567.334c.287 0 .383-.118.383-.28 0-.221-.151-.307-.507-.307h-.205v-.48h.216c.345 0 .448-.1.448-.253 0-.13-.1-.211-.275-.211a.825.825 0 0 0-.588.26l-.368-.427c.27-.26.633-.404 1.009-.4.589 0 .9.263.9.7a.544.544 0 0 1-.383.545.581.581 0 0 1 .464.594c.002.539-.408.825-1.034.825v.003ZM15 15H9v-2h6v2Zm0-4H9V9h6v2Zm0-4H9V5h6v2Z"/></svg>