<svg xmlns="http://www.w3.org/2000/svg" viewBox="0 0 20 20" fill="currentColor"><path d="M10.625 11.963h-1.25V5.079h1.25v6.884ZM7.25 6.723H6v3.6h1.25v-3.6Zm6.75 0h-1.25v3.6H14v-3.6ZM12.332 16h2.028A5.646 5.646 0 0 0 20 10.36V6.64A5.646 5.646 0 0 0 14.36 1H5.64A5.646 5.646 0 0 0 0 6.64v3.76A5.6 5.6 0 0 0 5.6 16h2.037v-1.25H5.6a4.351 4.351 0 0 1-4.35-4.35V6.64a4.395 4.395 0 0 1 4.39-4.39h8.72a4.395 4.395 0 0 1 4.39 4.39v3.72a4.395 4.395 0 0 1-4.39 4.39h-2.289a.624.624 0 0 0-.445.186l-3.614 3.656.889.879L12.332 16Z"/></svg>