<svg xmlns="http://www.w3.org/2000/svg" viewBox="0 0 20 20" fill="currentColor"><path d="M1.837 5.158a1.089 1.089 0 0 1 .554-1.237L9.461.135a1.141 1.141 0 0 1 1.075 0l7.07 3.787a1.09 1.09 0 0 1 .556 1.237A1.107 1.107 0 0 1 17.07 6H2.93a1.107 1.107 0 0 1-1.093-.842ZM5 9h2v5.647h2V9h2v5.647h2V9h2v5.647h2V9h1V7H2v2h1v5.647h2V9Zm15 10.051c0-.41-.13-.81-.371-1.141l-1.146-1.58a1.13 1.13 0 0 0-.8-.33H2.312a1.156 1.156 0 0 0-.859.405L.365 17.918c-.237.33-.365.727-.365 1.133A.949.949 0 0 0 .949 20h18.1a.947.947 0 0 0 .95-.949Z"/></svg>