<svg xmlns="http://www.w3.org/2000/svg" viewBox="0 0 24 24" fill="currentColor"><path d="M14.2 21.6a2.2 2.2 0 0 1-4.4 0h4.4Zm8.8-4.75v.807A1.35 1.35 0 0 1 21.647 19H2.353A1.35 1.35 0 0 1 1 17.657v-.807a4.721 4.721 0 0 1 2.126-3.937A3.8 3.8 0 0 0 5 10.235V8.3a7.006 7.006 0 1 1 14 0v1.934a3.8 3.8 0 0 0 1.875 2.676A4.723 4.723 0 0 1 23 16.85Zm-1.5 0a3.224 3.224 0 0 0-1.455-2.687c-.6-.395-2.539-1.847-2.545-3.924V8.3a5.508 5.508 0 1 0-11 0v1.934c-.006 2.079-1.949 3.531-2.544 3.926A3.223 3.223 0 0 0 2.5 16.85v.65h19v-.65Z"/></svg>