<svg xmlns="http://www.w3.org/2000/svg" viewBox="0 0 20 20" fill="currentColor"><path d="M7.139 11.888a.521.521 0 1 1 .736-.737.521.521 0 0 1-.736.737ZM4.788 6.36a4.105 4.105 0 0 0-.028.464h1.318c0-.156-.01-.311-.028-.466.35-2.037 2.94-2.515 3.054-2.535l-.213-1.232a5.544 5.544 0 0 0-3.472 2.081 5.544 5.544 0 0 0-3.475-2.081l-.209 1.232c.03.005 2.697.484 3.053 2.537Zm15.191-3.783a4.313 4.313 0 0 1-2.115 4.146v1.92a8.93 8.93 0 0 1-4.034 7.478c-.429.279-.882.519-1.354.717a7.355 7.355 0 0 1-.8 2.763.626.626 0 0 1-.51.331h-.048a.622.622 0 0 1-.507-.262l-1.493-2.09a8.973 8.973 0 0 1-6.42-2.565A8.99 8.99 0 0 1 0 8.643.641.641 0 0 1 .624 8h12.997c.442 0 .769-.05.827-1.258a4.298 4.298 0 0 1-2.15-4.165.626.626 0 0 1 .484-.586 3.562 3.562 0 0 1 3.354 1.083 3.58 3.58 0 0 1 3.354-1.083.626.626 0 0 1 .49.586Zm-1.257.58a2.84 2.84 0 0 0-2.06 1.224.65.65 0 0 1-1.043 0 2.822 2.822 0 0 0-2.061-1.225 2.817 2.817 0 0 0 1.657 2.558.651.651 0 0 1 .5.6c0 .817 0 2.987-2.088 2.987l-11.614-.03a6.982 6.982 0 0 0 3.013 2.285l-.339 1.2a7.748 7.748 0 0 1-3.184-2.168 7.7 7.7 0 0 0 2.738 4.135A7.687 7.687 0 0 0 8.93 16.33c.156 0 .31 0 .463-.014h.037a.623.623 0 0 1 .508.262l1.034 1.449a8.659 8.659 0 0 0-.125-4.764l1.177-.417c.272.842.431 1.716.475 2.6.194-.1.4-.22.655-.381a7.664 7.664 0 0 0 3.458-6.424V6.315a.628.628 0 0 1 .432-.594 2.798 2.798 0 0 0 1.674-2.564h.004Z"/></svg>