<svg xmlns="http://www.w3.org/2000/svg" viewBox="0 0 20 20" fill="currentColor"><path d="M17 6.875v-4.75A1.127 1.127 0 0 0 15.875 1H2.125A1.127 1.127 0 0 0 1 2.125v4.75A1.127 1.127 0 0 0 2.125 8h13.75A1.127 1.127 0 0 0 17 6.875Zm-1.25-.125H2.25v-4.5h13.5v4.5ZM18 3.875V7.9a1.4 1.4 0 0 1-1.177 1.34l-6.276 1.3a2.677 2.677 0 0 0-2.165 2.485A1.622 1.622 0 0 0 7 14.625v2.75A1.627 1.627 0 0 0 8.625 19h1a1.627 1.627 0 0 0 1.625-1.625v-2.75A1.626 1.626 0 0 0 9.644 13a1.406 1.406 0 0 1 1.156-1.236l6.276-1.3A2.677 2.677 0 0 0 19.25 7.9V3.875H18Zm-8 10.75v2.75a.375.375 0 0 1-.375.375h-1a.375.375 0 0 1-.375-.375v-2.75a.375.375 0 0 1 .375-.375h1a.375.375 0 0 1 .375.375Z"/></svg>