<svg xmlns="http://www.w3.org/2000/svg" viewBox="0 0 20 20" fill="currentColor"><path d="M10 20a10 10 0 1 1 10-10 10.011 10.011 0 0 1-10 10Zm0-18.75A8.75 8.75 0 1 0 18.75 10 8.76 8.76 0 0 0 10 1.25Zm1.611 4.058a2.4 2.4 0 0 1 .994.861c.241.375.366.812.359 1.258a2.04 2.04 0 0 1-.167.854c-.1.229-.238.439-.407.622-.2.208-.413.404-.636.588-.223.188-.4.348-.533.483a1.754 1.754 0 0 0-.328.464 1.326 1.326 0 0 0-.13.591v.78H9.328v-.759a2.216 2.216 0 0 1 .601-1.572c.204-.21.421-.406.65-.588.209-.173.373-.316.492-.431a1.52 1.52 0 0 0 .3-.4 1.154 1.154 0 0 0-.058-1.128 1.192 1.192 0 0 0-.485-.421 1.525 1.525 0 0 0-.677-.151 1.545 1.545 0 0 0-.721.168 1.3 1.3 0 0 0-.713 1.131H7.256a2.628 2.628 0 0 1 1.381-2.293A3.132 3.132 0 0 1 10.175 5c.496-.008.987.097 1.436.308Zm-2.164 9.843a1.088 1.088 0 0 1-.386-.385 1.034 1.034 0 0 1-.144-.537c-.002-.186.048-.37.144-.53.094-.16.227-.293.386-.387a1.03 1.03 0 0 1 .53-.143 1.062 1.062 0 0 1 .926 1.597c-.096.159-.23.291-.389.385a1.034 1.034 0 0 1-.537.144 1.021 1.021 0 0 1-.53-.144Z"/></svg>