<svg xmlns="http://www.w3.org/2000/svg" viewBox="0 0 20 20" fill="currentColor"><path d="M2.826 19.974a2.8 2.8 0 0 1-1.979-4.78L8.7 7.337a5.7 5.7 0 0 1-.186-2.28A5.827 5.827 0 0 1 12.56.282a5.491 5.491 0 0 1 3.615.105 1.124 1.124 0 0 1 .707.819 1.14 1.14 0 0 1-.307 1.053l-2.934 2.935a.82.82 0 0 0 0 1.164.843.843 0 0 0 1.166 0l2.933-2.933a1.14 1.14 0 0 1 1.052-.308 1.127 1.127 0 0 1 .821.708 5.483 5.483 0 0 1 .105 3.616 5.825 5.825 0 0 1-4.774 4.04 5.687 5.687 0 0 1-2.28-.185l-7.859 7.857a2.778 2.778 0 0 1-1.979.821Zm11.4-18.7c-.44.001-.88.068-1.3.2a4.554 4.554 0 0 0-3.167 3.73A4.5 4.5 0 0 0 10 7.3l.135.373-8.404 8.406a1.547 1.547 0 0 0 0 2.19 1.587 1.587 0 0 0 2.19 0l8.41-8.41.374.135a4.468 4.468 0 0 0 2.088.246 4.561 4.561 0 0 0 3.73-3.167 4.256 4.256 0 0 0-.023-2.642l-2.81 2.812a2.123 2.123 0 0 1-2.933 0 2.07 2.07 0 0 1 0-2.932L15.57 1.5a4.249 4.249 0 0 0-1.344-.223l.001-.003Z"/></svg>