<svg xmlns="http://www.w3.org/2000/svg" viewBox="0 0 20 20" fill="currentColor"><path d="M2.625 5.629V16A1.626 1.626 0 0 1 1 14.375V2.624A1.627 1.627 0 0 1 2.625 1h11.75A1.627 1.627 0 0 1 16 2.624H5.629a3.008 3.008 0 0 0-3.004 3.005Zm5.714 4.578-.681 1.928h1.384l-.673-1.928h-.03Zm6.38-.2a1.417 1.417 0 0 0-.65-.166h-.787v3.312h.787a1.33 1.33 0 0 0 .646-.181 1.47 1.47 0 0 0 .552-.56 1.83 1.83 0 0 0 .223-.945 1.758 1.758 0 0 0-.223-.927 1.39 1.39 0 0 0-.548-.53v-.003ZM19 5.625v11.75A1.627 1.627 0 0 1 17.375 19H5.625A1.626 1.626 0 0 1 4 17.375V5.625A1.627 1.627 0 0 1 5.625 4h11.75A1.627 1.627 0 0 1 19 5.625Zm-8.014 8.6-2.14-5.447h-.991l-2.14 5.444h1.262l.394-1.1h1.958l.393 1.1 1.264.003Zm5.7-2.76a2.707 2.707 0 0 0-.386-1.478 2.413 2.413 0 0 0-1.01-.907 3.068 3.068 0 0 0-1.353-.3h-1.858v5.444h1.952c.453.003.9-.106 1.3-.317a2.46 2.46 0 0 0 .984-.946c.258-.457.386-.975.37-1.499l.001.003Z"/></svg>