<svg xmlns="http://www.w3.org/2000/svg" viewBox="0 0 20 20" fill="currentColor"><path d="M2.336 8.263a7.05 7.05 0 0 0 .955 4.8.625.625 0 0 1 .064.505l-.8 2.64 2.7-.772a.616.616 0 0 1 .491.063 7.102 7.102 0 0 0 2.123.827V17.6a8.317 8.317 0 0 1-2.524-.89l-3.4.973a.8.8 0 0 1-.7-.181.713.713 0 0 1-.177-.706l1.007-3.328a8.277 8.277 0 0 1-.977-5.4A8.378 8.378 0 0 1 17.326 6.74a4.7 4.7 0 0 0-1.7-.752 7.116 7.116 0 0 0-13.29 2.275ZM20 14.218v4.564A1.255 1.255 0 0 1 18.714 20h-8.428A1.255 1.255 0 0 1 9 18.782v-4.564A1.255 1.255 0 0 1 10.286 13H11v-2.307a3.578 3.578 0 0 1 3.5-3.644 3.578 3.578 0 0 1 3.5 3.644V13h.714A1.255 1.255 0 0 1 20 14.218ZM12.25 13h4.5v-2.307A2.328 2.328 0 0 0 14.5 8.3a2.328 2.328 0 0 0-2.25 2.394V13Zm6.515 5.736-.015-4.518-8.464.032-.036 4.532 8.464-.032a.09.09 0 0 0 .051-.014Z"/></svg>