<svg xmlns="http://www.w3.org/2000/svg" viewBox="0 0 20 20" fill="currentColor"><path d="M10 16h2.646v2H10v2H8v-2H5.437v-2H8v-.84a6 6 0 0 1-4.5-8.31l.4-.917 1.833.8-.4.916a4.008 4.008 0 0 0 2.855 5.518H9.82c.269-.056.53-.14.781-.25l.916-.4.8 1.833-.917.4a5.945 5.945 0 0 1-1.4.41L10 16Zm6.48-16h-4.647v2h2.753l-2.26 2.26A5.993 5.993 0 0 0 6.6 3.75l-.917.4.8 1.833.916-.4a4 4 0 0 1 5.267 5.267l-.4.916 1.833.8.4-.917a5.975 5.975 0 0 0-.722-6.014L16 3.414v2.753h2V1.521A1.522 1.522 0 0 0 16.48 0Z"/></svg>