<svg xmlns="http://www.w3.org/2000/svg" viewBox="0 0 20 20" fill="currentColor"><path d="M10.913 4.266v-2.9h-1.25v2.875c-.524.013-1.046.062-1.563.146l-.738-2.7-1.2.33.723 2.646c-.495.14-.978.316-1.448.525L3.9 2.88l-1.041.693 1.457 2.192a9.916 9.916 0 0 0-1.393 1L1.067 4.91l-.884.883 1.858 1.86A7.838 7.838 0 0 0 0 12.852v.624h1.25v-.625a7.023 7.023 0 0 1 3.368-5.8 2.98 2.98 0 0 0 .6 2.77A10.038 10.038 0 0 0 5 11.852c0 3.928 2.243 7.125 5 7.125s5-3.2 5-7.125a8.155 8.155 0 0 0-2.343-6.026c3.529.951 6.093 3.74 6.093 7.026v.625H20v-.625c0-4.49-4-8.186-9.087-8.586ZM10.58 9.88a2.725 2.725 0 0 1 .714 1.973c0 1.312-.682 2.226-1.294 2.226s-1.294-.914-1.294-2.226c.004-.361.04-.722.106-1.078l.009-.037a3.14 3.14 0 0 0 1.349-1.085c.153.04.294.119.41.227ZM5.75 7.852a1.875 1.875 0 1 1 3.75 0 1.875 1.875 0 0 1-3.75 0Zm8 4c0 3.24-1.683 5.875-3.75 5.875s-3.75-2.636-3.75-5.875c.002-.39.03-.778.082-1.164a3.1 3.1 0 0 0 1.186.278c-.037.294-.058.59-.062.886 0 1.95 1.117 3.476 2.544 3.476s2.544-1.527 2.544-3.476a3.937 3.937 0 0 0-1.123-2.9 2.229 2.229 0 0 0-.746-.438 3.046 3.046 0 0 0-.558-2.53c2.013.1 3.633 2.69 3.633 5.868Z"/></svg>