<svg xmlns="http://www.w3.org/2000/svg" viewBox="0 0 20 20" fill="currentColor"><path d="M10 20a10 10 0 1 1 10-10 10.011 10.011 0 0 1-10 10Zm0-18.75A8.75 8.75 0 1 0 18.75 10 8.76 8.76 0 0 0 10 1.25ZM5.538 12.668a3.075 3.075 0 0 1 0-5.336 3.094 3.094 0 0 1 1.558-.4 3.019 3.019 0 0 1 1.555.412 3.106 3.106 0 0 1 1.114 4.211 3.012 3.012 0 0 1-1.117 1.113 3.18 3.18 0 0 1-3.11 0Zm2.447-1.051c.268-.163.488-.394.637-.67a2.008 2.008 0 0 0 0-1.889c-.15-.277-.37-.51-.638-.675a1.652 1.652 0 0 0-.884-.246 1.681 1.681 0 0 0-.883.246c-.27.162-.494.393-.646.67a2.018 2.018 0 0 0 0 1.894 1.738 1.738 0 0 0 2.422.67h-.008Zm4.585 1.059a3.08 3.08 0 0 1-1.184-1.1 3.03 3.03 0 0 1 0-3.152 3.055 3.055 0 0 1 1.184-1.1 3.359 3.359 0 0 1 1.592-.392c.315 0 .63.043.934.125.31.084.608.21.884.375l-.5 1.176a1.33 1.33 0 0 0-.58-.354 2.316 2.316 0 0 0-.7-.113 2.029 2.029 0 0 0-.959.233c-.288.152-.53.378-.7.655a1.768 1.768 0 0 0-.262.955c-.004.335.082.664.25.954.164.284.404.518.692.675.301.166.64.251.984.246.25 0 .5-.04.738-.116.215-.062.409-.18.562-.342L16 12.58a3.31 3.31 0 0 1-.854.363 3.6 3.6 0 0 1-.955.129 3.377 3.377 0 0 1-1.621-.396Z"/></svg>