<svg xmlns="http://www.w3.org/2000/svg" viewBox="0 0 20 20" fill="currentColor"><path d="M10 4.326a4.125 4.125 0 1 0 0 8.25 4.125 4.125 0 0 0 0-8.25ZM7.125 8.451a2.845 2.845 0 0 1 .454-1.536l3.958 3.957a2.865 2.865 0 0 1-4.412-2.421Zm5.3 1.537L8.462 6.031a2.864 2.864 0 0 1 3.959 3.957h.004Zm6.25-7.858a.819.819 0 0 0-.7-.047 8.839 8.839 0 0 1-7.6-.062 10.3 10.3 0 0 0-8.92 0 .626.626 0 0 0-.352.563v17.191h1.25V14.8a9.04 9.04 0 0 1 7.477.162 10.084 10.084 0 0 0 8.821 0A.626.626 0 0 0 19 14.4V2.732a.712.712 0 0 0-.33-.602h.004ZM17.75 14a8.817 8.817 0 0 1-7.38-.162 10.308 10.308 0 0 0-8.022-.382V2.985a9.035 9.035 0 0 1 7.477.161 9.938 9.938 0 0 0 7.925.385V14Z"/></svg>