<svg xmlns="http://www.w3.org/2000/svg" viewBox="0 0 20 20" fill="currentColor"><path d="M15.255 15.712c-.353.23-.72.436-1.1.619l.735 1.978a.424.424 0 0 1-.038.375c-.015.019-.051.066-.09.066H5.142c-.038 0-.075-.047-.09-.066a.418.418 0 0 1-.037-.375l.735-1.978a9.754 9.754 0 0 1-1.1-.619l-.8 2.161a1.656 1.656 0 0 0 .176 1.527 1.352 1.352 0 0 0 1.116.6h9.618a1.351 1.351 0 0 0 1.115-.6 1.657 1.657 0 0 0 .184-1.523l-.803-2.165Z"/><path d="M6.288 8A3.666 3.666 0 0 1 9.95 4.338v-1.25A4.917 4.917 0 0 0 5.038 8h1.25Z"/><path d="M16.562 9.562a6.762 6.762 0 1 1-2.515-6.942l.208-.372c.14-.24.326-.452.546-.623a7.992 7.992 0 1 0 3.162 7.107 2.212 2.212 0 0 1-1.401.83Z"/><path d="m18.646 4.6-1.08-.6-.6-1.075a.864.864 0 0 0-1.508-.002L14.853 4l-1.082.6a.866.866 0 0 0 0 1.509l1.08.6.6 1.078a.867.867 0 0 0 1.191.323.865.865 0 0 0 .317-.324l.6-1.077 1.08-.6a.865.865 0 0 0 0-1.51l.007.001Zm-1.78 1.073a.877.877 0 0 0-.337.335l-.32.571-.316-.567a.876.876 0 0 0-.335-.337l-.574-.321.576-.321a.864.864 0 0 0 .33-.331l.32-.571.323.578c.078.137.192.25.33.326l.573.32-.57.318Z"/></svg>