<svg xmlns="http://www.w3.org/2000/svg" viewBox="0 0 20 20" fill="currentColor"><path d="M17.625 19H2.375v-1.25h15.25V19ZM17 4.684V3.625h-1.25v1.059a4.6 4.6 0 0 1-2.8 4.215l-1.062.442a.626.626 0 0 0 0 1.155l1.055.438a4.609 4.609 0 0 1 2.81 4.219v1.222H17v-1.222a5.853 5.853 0 0 0-3.28-5.235A5.85 5.85 0 0 0 17 4.684Zm-7 9.253 2.475 2.438h1.783l-3.82-3.761a.625.625 0 0 0-.876 0l-3.8 3.761h1.763L10 13.937ZM3 3.625v1.059a5.85 5.85 0 0 0 3.28 5.234A5.852 5.852 0 0 0 3 15.153v1.222h1.25v-1.222a4.6 4.6 0 0 1 2.8-4.215l1.065-.438a.626.626 0 0 0 0-1.155L7.06 8.9a4.609 4.609 0 0 1-2.81-4.216V3.625H3ZM17.625 1H2.375v1.25h15.25V1Z"/></svg>