<svg xmlns="http://www.w3.org/2000/svg" viewBox="0 0 20 20" fill="currentColor"><path d="M19.375 17H16.25a.625.625 0 0 1-.625-.625v-3.187A5.694 5.694 0 0 0 10 7.438a5.694 5.694 0 0 0-5.625 5.75v.624h-1.25v-.624a6.946 6.946 0 0 1 6.875-7 6.946 6.946 0 0 1 6.875 7v2.562h1.875v-2.562A8.854 8.854 0 0 0 10 4.25a8.855 8.855 0 0 0-8.75 8.938v2.562h5v-2.562a3.75 3.75 0 1 1 7.5 0V17H12.5v-3.812a2.5 2.5 0 0 0-5 0v3.187a.625.625 0 0 1-.625.625H.625A.625.625 0 0 1 0 16.375v-3.187A10.107 10.107 0 0 1 10 3a10.107 10.107 0 0 1 10 10.188v3.187a.625.625 0 0 1-.625.625Z"/></svg>