<svg xmlns="http://www.w3.org/2000/svg" viewBox="0 0 20 20" fill="currentColor"><path d="M10 6.75a3.213 3.213 0 0 0-1.7.492l4.458 4.457c.32-.509.49-1.098.492-1.7A3.253 3.253 0 0 0 10 6.75Z"/><path d="m19.856 9.452-4.447-7.885A1.117 1.117 0 0 0 14.437 1H5.562a1.116 1.116 0 0 0-.97.567L.145 9.45a1.11 1.11 0 0 0 0 1.1L4.59 18.43a1.118 1.118 0 0 0 .972.568h8.875a1.117 1.117 0 0 0 .972-.567l4.446-7.882a1.11 1.11 0 0 0 0-1.098ZM10 14.749A4.75 4.75 0 1 1 14.75 10 4.756 4.756 0 0 1 10 14.75Z"/><path d="M6.75 10A3.254 3.254 0 0 0 10 13.25a3.213 3.213 0 0 0 1.7-.493L7.242 8.3c-.32.509-.49 1.098-.492 1.7Z"/></svg>