<svg xmlns="http://www.w3.org/2000/svg" viewBox="0 0 20 20" fill="currentColor"><path d="M7.674 14.693h-2.35V8.66H1.858L6.5 3.247 9.12 6.3l.83-.953-2.595-3.024a1.16 1.16 0 0 0-1.709 0L.38 8.466a.875.875 0 0 0 .664 1.445h3.031v4.907A1.127 1.127 0 0 0 5.2 15.943h2.6a1.128 1.128 0 0 0 1.125-1.125v-1.613h-1.25v1.488ZM14.8 18h-2.6a1.128 1.128 0 0 1-1.125-1.125v-4.907h-3.03a.876.876 0 0 1-.665-1.445l5.266-6.143a1.16 1.16 0 0 1 1.71 0l5.265 6.144a.875.875 0 0 1-.664 1.444h-3.032v4.907A1.127 1.127 0 0 1 14.8 18Zm-2.475-1.25h2.35v-6.032h3.466L13.5 5.3l-4.64 5.418h3.464v6.032Z"/></svg>