<svg xmlns="http://www.w3.org/2000/svg" viewBox="0 0 20 20" fill="currentColor"><path d="M10 13.979a3.003 3.003 0 0 1-2.772-1.85 2.993 2.993 0 0 1 2.187-4.086 3.004 3.004 0 0 1 3.08 1.274 2.994 2.994 0 0 1-.373 3.784A3.003 3.003 0 0 1 10 13.98Zm0-4.745a1.752 1.752 0 0 0-1.617 1.08 1.746 1.746 0 0 0 1.275 2.383 1.752 1.752 0 0 0 2.092-1.715A1.748 1.748 0 0 0 10 9.234ZM15.5 19.497c-.15 0-.3-.03-.438-.09L10 17.235l-5.063 2.172a1.103 1.103 0 0 1-1.447-.555 1.097 1.097 0 0 1-.092-.558l.512-5.456L.274 8.724a1.098 1.098 0 0 1 .588-1.798l5.377-1.199 2.813-4.719a1.14 1.14 0 0 1 1.9 0l2.809 4.713 5.378 1.199a1.1 1.1 0 0 1 .838 1.294c-.038.187-.125.36-.25.504l-3.64 4.114.51 5.455a1.097 1.097 0 0 1-1.1 1.204l.004.006ZM10 15.977c.15 0 .298.03.436.088l4.894 2.097-.494-5.272a1.099 1.099 0 0 1 .27-.829l3.515-3.975-5.194-1.16a1.101 1.101 0 0 1-.71-.515L10 1.858 7.28 6.414a1.1 1.1 0 0 1-.707.512L1.38 8.086l3.515 3.975a1.098 1.098 0 0 1 .27.832l-.494 5.27 4.894-2.098c.138-.059.286-.089.436-.088Z"/></svg>