<svg xmlns="http://www.w3.org/2000/svg" viewBox="0 0 20 20" fill="currentColor"><path d="M18.951 9.392h-1.29a6.383 6.383 0 0 0-4.718-4.581v1.475a.6.6 0 0 1-.983.463L9.036 4.311 9 4a.6.6 0 0 1 .215-.46l2.744-2.288a.6.6 0 0 1 .984.461v1.8a7.646 7.646 0 0 1 6.008 5.879ZM7.6 1.17a.607.607 0 0 0-.64.082L4.215 3.54A.6.6 0 0 0 4 4l.036.311L6.96 6.749a.6.6 0 0 0 .983-.463V1.713A.6.6 0 0 0 7.6 1.17ZM4.363 11.529v1.348l1.682-.8v6.832h1.441V10.27h-.468l-2.655 1.259Zm10.9.495a5.1 5.1 0 0 1 .4 2.1v.967a5.023 5.023 0 0 1-.4 2.086 3.084 3.084 0 0 1-1.122 1.353 3.171 3.171 0 0 1-3.329-.006 3.12 3.12 0 0 1-1.13-1.359 4.942 4.942 0 0 1-.4-2.074v-.967a4.986 4.986 0 0 1 .418-2.117 3.177 3.177 0 0 1 1.143-1.365 3.107 3.107 0 0 1 3.305.008c.495.342.883.82 1.117 1.374h-.002ZM14.236 13.9a3.021 3.021 0 0 0-.463-1.836 1.516 1.516 0 0 0-1.283-.613 1.522 1.522 0 0 0-1.318.648 3.049 3.049 0 0 0-.463 1.8v1.4c-.01.44.063.878.214 1.292.12.335.335.628.618.844.277.201.612.306.955.3.327.008.648-.088.917-.273.278-.206.49-.49.607-.817a3.66 3.66 0 0 0 .216-1.342V13.9Z"/></svg>