<svg xmlns="http://www.w3.org/2000/svg" viewBox="0 0 20 20" fill="currentColor"><path d="m11.5 16.262-.32-.193C11.009 15.968 7 13.536 7 10.48a2.7 2.7 0 0 1 2.664-2.73 2.629 2.629 0 0 1 1.836.761 2.629 2.629 0 0 1 1.836-.761A2.7 2.7 0 0 1 16 10.48c0 3.056-4.009 5.488-4.18 5.589l-.32.193ZM9.664 9a1.45 1.45 0 0 0-1.414 1.48c0 1.769 2.112 3.55 3.249 4.312 1.138-.764 3.251-2.548 3.251-4.312A1.45 1.45 0 0 0 13.336 9a1.4 1.4 0 0 0-1.269.84l-.567 1.228-.567-1.228A1.4 1.4 0 0 0 9.664 9Zm7.711 10H5.625A1.627 1.627 0 0 1 4 17.375V5.625A1.627 1.627 0 0 1 5.625 4h11.75A1.627 1.627 0 0 1 19 5.625v11.75A1.627 1.627 0 0 1 17.375 19ZM5.625 5.25a.375.375 0 0 0-.375.375v11.75a.375.375 0 0 0 .375.375h11.75a.375.375 0 0 0 .375-.375V5.625a.375.375 0 0 0-.375-.375H5.625Zm-3 9.5a.375.375 0 0 1-.375-.375V2.624a.375.375 0 0 1 .375-.374h11.75a.375.375 0 0 1 .375.374H16A1.627 1.627 0 0 0 14.375 1H2.625A1.627 1.627 0 0 0 1 2.624v11.751A1.627 1.627 0 0 0 2.625 16v-1.25Z"/></svg>