<svg xmlns="http://www.w3.org/2000/svg" viewBox="0 0 20 20" fill="currentColor"><path d="M15.757 10.211A4.615 4.615 0 0 0 20 5.625 1.627 1.627 0 0 0 18.375 4H16V2.135A1.126 1.126 0 0 0 14.886 1H5.114A1.126 1.126 0 0 0 4 2.135V4H1.625A1.627 1.627 0 0 0 0 5.625a4.615 4.615 0 0 0 4.243 4.586 6.219 6.219 0 0 0 5.132 4.753v2.786H6V19h8v-1.25h-3.375v-2.786a6.22 6.22 0 0 0 5.132-4.753Zm2.618-4.961a.375.375 0 0 1 .375.375 3.374 3.374 0 0 1-2.777 3.314c.016-.194.027-.389.027-.587V5.25h2.375ZM1.25 5.625a.375.375 0 0 1 .375-.375H4v3.1c0 .2.011.393.027.587A3.374 3.374 0 0 1 1.25 5.625Zm4 2.727V2.25h9.5v6.1c0 2.976-2.131 5.4-4.75 5.4s-4.75-2.422-4.75-5.398Z"/></svg>