<svg xmlns="http://www.w3.org/2000/svg" viewBox="0 0 20 20" fill="currentColor"><path d="M5.613 3.627v-1.25h-.5A1.377 1.377 0 0 1 3.738 1V.5h-1.25V1a1.377 1.377 0 0 1-1.375 1.377h-.5v1.25h.5A1.376 1.376 0 0 1 2.488 5v.5h1.25V5a1.376 1.376 0 0 1 1.375-1.373h.5Zm-2.5-.327a2.6 2.6 0 0 0-.3-.3c.108-.092.208-.192.3-.3.092.108.193.208.3.3a2.68 2.68 0 0 0-.3.3Zm15.748 1.576v1.25h-.3a.576.576 0 0 0-.575.575v.3h-1.25v-.3a.576.576 0 0 0-.575-.576h-.3V4.876h.3a.575.575 0 0 0 .575-.575v-.3h1.25v.3a.575.575 0 0 0 .575.574l.3.001ZM13.374 8H13V1.4A1.391 1.391 0 0 0 12.13.1a1.316 1.316 0 0 0-1.466.327L7.6 3.654a2.176 2.176 0 0 0-.6 1.51V8h-.375A1.627 1.627 0 0 0 5 9.626v8.749A1.627 1.627 0 0 0 6.624 20h6.75A1.627 1.627 0 0 0 15 18.375V9.626A1.627 1.627 0 0 0 13.374 8ZM8.25 5.164a.945.945 0 0 1 .25-.648l3.165-3.257a.14.14 0 0 1 .082.144V8H8.25V5.164Zm5.5 13.211a.375.375 0 0 1-.375.375h-6.75a.375.375 0 0 1-.375-.375V9.626a.375.375 0 0 1 .375-.375h6.75a.375.375 0 0 1 .375.375v8.749ZM10.734 11.1h1.25v5.821h-1.25v-5.82Z"/></svg>