<svg xmlns="http://www.w3.org/2000/svg" viewBox="0 0 20 20" fill="currentColor"><path d="M2.004 3.571H.63A.625.625 0 0 1 .187 2.5l2-2a.625.625 0 0 1 .884 0l2 2a.625.625 0 0 1-.442 1.067H3.254v2.879h-1.25V3.571Zm17 6.652v3.023A6.673 6.673 0 0 1 12.46 20H9.83a6.657 6.657 0 0 1-5.6-3.3l-2.914-4.816a2.163 2.163 0 0 1 .724-2.965 2.126 2.126 0 0 1 2.812.552l1.152 1.545v-8.77A2.012 2.012 0 0 1 7.986.121a2.258 2.258 0 0 1 2.268 2.125V6.2c.224-.084.461-.127.7-.126a2.112 2.112 0 0 1 1.95 1.313 2.079 2.079 0 0 1 1.021-.266 2.112 2.112 0 0 1 1.925 1.255 2.09 2.09 0 0 1 1.044-.276 2.119 2.119 0 0 1 2.11 2.123Z"/></svg>