<svg xmlns="http://www.w3.org/2000/svg" viewBox="0 0 20 20" fill="currentColor"><path d="M16.95 6.984v-1.87A1.121 1.121 0 0 0 15.825 4h-2.7A1.121 1.121 0 0 0 12 5.114V7H8V3h1.5V1h-8A1.5 1.5 0 0 0 0 2.5v5h.025A.589.589 0 0 0 0 7.625v7.75A.625.625 0 0 0 .625 16h.051a4.6 4.6 0 0 1-.051-.5 4.875 4.875 0 1 1 9.75 0 4.605 4.605 0 0 1-.051.5h.3a4.375 4.375 0 0 1 8.749-.01.62.62 0 0 0 .576-.615v-4.886a3.584 3.584 0 0 0-2.999-3.505ZM6 7H2V3h4v4Zm-.375 9.25h3.159a3.375 3.375 0 1 1 0-1.5H5.625a.75.75 0 1 0 0 1.5Zm12.25-.25a2.868 2.868 0 0 1-5.725.25h.175a.75.75 0 0 0 .75-.75.741.741 0 0 0-.662-.732A2.869 2.869 0 0 1 17.875 16Z"/></svg>