<svg xmlns="http://www.w3.org/2000/svg" viewBox="0 0 20 20" fill="currentColor"><path d="M10 0a10 10 0 1 0 10 10A10.011 10.011 0 0 0 10 0Zm8.718 9.375h-4.645c-.075-3.017-.7-6.051-1.819-7.82a8.755 8.755 0 0 1 6.464 7.82ZM10 18.75c-1.138 0-2.7-3.077-2.824-8.125h5.647C12.7 15.673 11.137 18.75 10 18.75ZM7.176 9.375C7.3 4.327 8.862 1.25 10 1.25s2.7 3.077 2.823 8.125H7.176Zm.569-7.82C6.625 3.324 6 6.359 5.926 9.375H1.282a8.756 8.756 0 0 1 6.463-7.82Zm-6.463 9.07h4.644c.075 3.016.7 6.051 1.819 7.82a8.756 8.756 0 0 1-6.463-7.82Zm10.972 7.82c1.12-1.769 1.744-4.8 1.819-7.82h4.645a8.754 8.754 0 0 1-6.464 7.82Z"/></svg>