<svg xmlns="http://www.w3.org/2000/svg" viewBox="0 0 20 20" fill="currentColor"><path d="m18.384 18.81.013-.014L2.486 2.883l-.886.885 7.244 7.241H7.538A6.482 6.482 0 0 0 1 17.42v.482a1.114 1.114 0 0 0 1.119 1.107h14.725l.67.67.761-.762c.052-.02.102-.043.151-.068l-.042-.04ZM2.251 17.76v-.34a5.231 5.231 0 0 1 5.287-5.16h2.556l5.5 5.5H2.251ZM13.5 11.097a6.477 6.477 0 0 1 5.427 5.427l-2.6-2.6a4.795 4.795 0 0 0-.247-.247l-2.58-2.58Zm-7.1-7.1-.98-.983a5 5 0 1 1 6.574 6.574l-.985-.98a3.74 3.74 0 1 0-4.6-4.6L6.4 4Z"/></svg>