<svg xmlns="http://www.w3.org/2000/svg" viewBox="0 0 20 20" fill="currentColor"><path d="M19 2.625A1.627 1.627 0 0 0 17.375 1H2.625A1.627 1.627 0 0 0 1 2.625v2.994c.044.29.137.571.274.831l4.747 6.431v5.4a1.626 1.626 0 0 0 1.625 1.625h4.708a1.627 1.627 0 0 0 1.625-1.625v-5.4l4.747-6.431c.137-.26.23-.54.274-.831V2.625Zm-5.961 9.425H6.961L2.676 6.244h14.648l-4.285 5.806ZM2.25 2.625a.375.375 0 0 1 .375-.375h14.75a.375.375 0 0 1 .375.375v2.369H2.25V2.625Zm10.479 15.656a.376.376 0 0 1-.375.375H7.646a.376.376 0 0 1-.375-.375V13.3h5.458v4.981Z"/></svg>