<svg xmlns="http://www.w3.org/2000/svg" viewBox="0 0 20 20" fill="currentColor"><path d="M3.554 17.826a1.124 1.124 0 0 1-.8-.33L.435 15.175a1.131 1.131 0 0 1 0-1.6l6.008-6.008a1.643 1.643 0 0 1 2.315 0l1.878 1.879 2.8-2.8-1.412-1.406A.726.726 0 0 1 12.54 4h6.736a.727.727 0 0 1 .726.727v6.735a.727.727 0 0 1-1.239.516l-1.41-1.411-5.56 5.56a1.64 1.64 0 0 1-2.313 0L7.6 14.248 4.354 17.5c-.213.21-.5.328-.8.326ZM1.4 14.376l2.151 2.151 4.05-4.047 2.76 2.763a.389.389 0 0 0 .547 0L17.352 8.8l1.4 1.4V5.25h-4.951l1.4 1.4-4.567 4.566-2.76-2.765a.391.391 0 0 0-.547 0L1.4 14.376Z"/></svg>