<svg xmlns="http://www.w3.org/2000/svg" viewBox="0 0 20 20" fill="currentColor"><path d="m.535 8.634 2.114-5.009A2.952 2.952 0 0 1 5.618 1h8.764a2.952 2.952 0 0 1 2.969 2.625l2.114 5.01c-.03 0-.059-.01-.09-.01h-2.084l-.912-2.16-.912 2.16h-2.084c-.031 0-.06.008-.091.01l2.057-4.873A.954.954 0 0 0 14.382 3H5.618a.954.954 0 0 0-.967.762l2.057 4.872c-.031 0-.06-.009-.091-.009H4.533l-.912-2.16-.912 2.16H.625c-.031 0-.06.008-.09.01Zm6.707 1.991A.625.625 0 0 0 6.617 10H.625a.625.625 0 0 0-.625.625 3.62 3.62 0 1 0 7.242 0ZM19.375 10h-5.992a.625.625 0 0 0-.625.625 3.622 3.622 0 0 0 6.966 1.386c.182-.44.276-.91.276-1.386a.624.624 0 0 0-.625-.625ZM11 5H9v12H6.1v2h7.8v-2H11V5Z"/></svg>