<svg xmlns="http://www.w3.org/2000/svg" viewBox="0 0 20 20" fill="currentColor"><path d="M15.23 1H4.77A3.855 3.855 0 0 0 1 4.927v.146A3.855 3.855 0 0 0 4.77 9h10.46A3.855 3.855 0 0 0 19 5.073v-.146A3.855 3.855 0 0 0 15.23 1ZM7 5a2 2 0 1 1-4 0 2 2 0 0 1 4 0Zm10 .073A1.855 1.855 0 0 1 15.23 7H8.444a3.875 3.875 0 0 0 0-4h6.786A1.855 1.855 0 0 1 17 4.927v.146ZM15.067 11H4.933A3.937 3.937 0 0 0 1 14.933v.134A3.937 3.937 0 0 0 4.933 19h10.134A3.937 3.937 0 0 0 19 15.067v-.134A3.937 3.937 0 0 0 15.067 11ZM15 17a2 2 0 1 1 0-4 2 2 0 0 1 0 4Z"/></svg>