<svg xmlns="http://www.w3.org/2000/svg" viewBox="0 0 24 24" fill="currentColor"><path d="M12 0a12 12 0 1 0 12 12A12.013 12.013 0 0 0 12 0Zm10.382 13.491a18.408 18.408 0 0 0-4.16-4.362 6.282 6.282 0 0 1 2.82-2.44A10.425 10.425 0 0 1 22.5 12c-.004.5-.044.997-.118 1.491Zm-2.2-8.059a7.92 7.92 0 0 0-3.2 2.837A21.897 21.897 0 0 0 13.7 6.545a24.57 24.57 0 0 1 3.23-3.554l.174-.159a10.56 10.56 0 0 1 3.075 2.6h.003ZM15.63 2.16a25.685 25.685 0 0 0-3.37 3.827 26.16 26.16 0 0 0-2.624-.767 26.106 26.106 0 0 0 1.738-3.48l.087-.213c.18-.009.357-.027.539-.027 1.24.003 2.469.226 3.63.66ZM3.4 6l.517-.007c1.078.007 2.153.102 3.216.283a15.68 15.68 0 0 1-5.588 4.862c.15-1.847.79-3.62 1.855-5.138Zm1.26-1.489a10.48 10.48 0 0 1 5.067-2.756 23.97 23.97 0 0 1-1.652 3.14 26.71 26.71 0 0 0-3.416-.389l.001.005Zm-3.122 8.243.168-.059c.193-.067 3.787-1.4 7.058-6.116.886.195 1.76.436 2.621.723a19.336 19.336 0 0 0-2.5 14.727 10.516 10.516 0 0 1-7.347-9.275Zm9.043 9.639-.164-.469a17.5 17.5 0 0 1 2.4-14.09 20.745 20.745 0 0 1 3.454 1.794c-1.285 2.981-1.162 6.88.408 11.627l.037.111A10.42 10.42 0 0 1 12 22.5a10.53 10.53 0 0 1-1.419-.107Zm7.462-1.821c-1.332-4.127-1.5-7.5-.517-10.057a16.643 16.643 0 0 1 4.03 4.452l.33.536a10.528 10.528 0 0 1-3.843 5.069Z"/></svg>