<svg xmlns="http://www.w3.org/2000/svg" viewBox="0 0 20 20" fill="currentColor"><path d="M17.5 5.239a5.23 5.23 0 0 1-1.525 3.704c-.44.441-.853.866-1.267 1.29-.435.446-.87.892-1.333 1.358a5.115 5.115 0 0 1-5.944.993l1.56-1.57a3.254 3.254 0 0 0 2.981-.838c.459-.46.895-.9 1.321-1.344.427-.444.835-.857 1.28-1.3a3.236 3.236 0 0 0 .942-2.29 3.253 3.253 0 0 0-.943-2.29 3.216 3.216 0 0 0-2.276-.948 3.2 3.2 0 0 0-2.275.949c-.454.454-.878.89-1.303 1.326-.426.436-.851.865-1.302 1.32-.028.03-.047.064-.075.093l.038-.136L4.541 8.43a5.238 5.238 0 0 1 1.47-4.248c.448-.45.866-.88 1.285-1.31.42-.43.86-.88 1.316-1.34A5.19 5.19 0 0 1 12.293 0a5.19 5.19 0 0 1 3.682 1.534A5.203 5.203 0 0 1 17.5 5.239Zm-4.735 8.941c-.061.074-.114.155-.182.224-.445.447-.863.876-1.28 1.3-.416.424-.862.883-1.32 1.344a3.286 3.286 0 0 1-4.553 0 3.254 3.254 0 0 1 0-4.58c.45-.453.875-.888 1.298-1.322.423-.434.85-.872 1.303-1.326a3.157 3.157 0 0 1 3-.859l1.526-1.555a5.113 5.113 0 0 0-5.931 1c-.456.46-.887.9-1.316 1.34-.43.44-.838.86-1.285 1.31A5.256 5.256 0 0 0 2.5 14.76c0 1.39.55 2.722 1.526 3.705A5.192 5.192 0 0 0 7.709 20a5.192 5.192 0 0 0 3.682-1.535c.463-.466.894-.912 1.334-1.36.413-.422.827-.847 1.266-1.288a5.203 5.203 0 0 0 1.525-3.7 5.306 5.306 0 0 0-.063-.655l-2.688 2.718Z"/></svg>