<svg xmlns="http://www.w3.org/2000/svg" viewBox="0 0 20 20" fill="currentColor"><path d="m16.784 9.5 2.558 2.558-.884.884-2.558-2.558-2.558 2.558-.884-.884L15.016 9.5l-2.558-2.558.884-.884L15.9 8.616l2.558-2.558.884.884L16.784 9.5Zm-6.427 10.248A1.128 1.128 0 0 0 11 18.715V1.286a1.131 1.131 0 0 0-.643-1.034A1.091 1.091 0 0 0 9.19.405L3.815 5.056H2.108A1.124 1.124 0 0 0 1 6.194v7.613a1.124 1.124 0 0 0 1.108 1.138h1.707L9.2 19.608a1.084 1.084 0 0 0 1.157.14ZM2.25 6.306h2.031l5.47-4.733v16.855L4.28 13.7h-2.03V6.306Z"/></svg>