<svg xmlns="http://www.w3.org/2000/svg" viewBox="0 0 20 20" fill="currentColor"><path d="m7.382 4.24-.961-.961A3.988 3.988 0 0 1 10 1a4.031 4.031 0 0 1 4 4.052v4.9c0 .277-.029.554-.085.826l-1.165-1.17V5.052A2.78 2.78 0 0 0 10 2.25a2.75 2.75 0 0 0-2.618 1.99ZM17 10.375h-1.25a5.033 5.033 0 0 1-.365 1.868l.944.945A6.27 6.27 0 0 0 17 10.375ZM4.078 3.048l12.729 12.727-.885.884-1.312-1.312a7.17 7.17 0 0 1-3.985 1.623v1.78h1.8V20H7.58v-1.25h1.8v-1.78A6.787 6.787 0 0 1 3 10.375h1.25A5.578 5.578 0 0 0 10 15.75a5.94 5.94 0 0 0 3.719-1.294l-1.3-1.3A3.893 3.893 0 0 1 10 14a4.031 4.031 0 0 1-4-4.052v-3.21L3.193 3.932l.885-.884Zm7.441 9.209L7.25 7.988v1.96A2.779 2.779 0 0 0 10 12.75a2.646 2.646 0 0 0 1.519-.493Z"/></svg>