<svg xmlns="http://www.w3.org/2000/svg" viewBox="0 0 20 20" fill="currentColor"><path d="m14.439 10.312-1.8 3.126a1.127 1.127 0 0 1-.978.562H8.34a1.126 1.126 0 0 1-.974-.562l-1.8-3.126a.621.621 0 0 1 0-.624l1.8-3.126A1.126 1.126 0 0 1 8.34 6h3.32a1.126 1.126 0 0 1 .974.562l1.8 3.126a.622.622 0 0 1 .004.624ZM1.029 9h2.48a1.126 1.126 0 0 0 .974-.562l1.444-2.5a1.132 1.132 0 0 0 0-1.126l-1.588-2.75a.61.61 0 0 0-.57-.312.627.627 0 0 0-.54.363l-2.767 6A.625.625 0 0 0 1.03 9Zm3.454 2.562A1.125 1.125 0 0 0 3.509 11h-2.48a.625.625 0 0 0-.567.887l2.768 6a.627.627 0 0 0 .54.363h.03a.626.626 0 0 0 .542-.312l1.588-2.75a1.132 1.132 0 0 0 0-1.126l-1.447-2.5Zm11.036-3.124a1.125 1.125 0 0 0 .974.562h2.479a.625.625 0 0 0 .568-.887l-2.768-6a.625.625 0 0 0-1.11-.05l-1.587 2.75a1.131 1.131 0 0 0 0 1.125l1.444 2.5ZM18.972 11h-2.48a1.125 1.125 0 0 0-.973.562l-1.444 2.5a1.131 1.131 0 0 0 0 1.126l1.588 2.75a.624.624 0 0 0 .54.312h.029a.627.627 0 0 0 .54-.363l2.768-6a.626.626 0 0 0-.568-.887Z"/></svg>