<svg xmlns="http://www.w3.org/2000/svg" viewBox="0 0 20 20" fill="currentColor"><path d="M20 4h-2v2h-2V4h-2V2h2V0h2v2h2v2Zm0 6c0 5.5-4.5 10-10 10S0 15.5 0 10 4.5 0 10 0c1.2 0 2.3.2 3.4.6-.5.7-.7 1.5-.7 2.4 0 2.4 1.9 4.4 4.4 4.4.9 0 1.7-.3 2.4-.7.3 1 .5 2.1.5 3.3Zm-14 .5c.8 0 1.5-.7 1.5-1.5S6.8 7.5 6 7.5 4.5 8.2 4.5 9s.7 1.5 1.5 1.5Zm8 2.4-1.2-.9-.4.6c-.5.7-1.4 1.1-2.4 1.1s-1.9-.4-2.4-1.1l-.4-.6-1.2.9.4.6c.8 1.1 2.1 1.8 3.6 1.8s2.8-.7 3.6-1.8l.4-.6ZM15.5 9c0-.8-.7-1.5-1.5-1.5s-1.5.7-1.5 1.5.7 1.5 1.5 1.5 1.5-.7 1.5-1.5Z"/></svg>