<svg xmlns="http://www.w3.org/2000/svg" viewBox="0 0 24 24" fill="currentColor"><path d="M19.77 4.223a10.923 10.923 0 0 0-9.57-3.078 11.046 11.046 0 0 0-9.07 9.143c-.391 2.45.067 4.96 1.3 7.114l-1.34 4.43a.86.86 0 0 0 .213.859.85.85 0 0 0 .85.222l4.53-1.3c1.62.91 3.446 1.387 5.303 1.387a11.01 11.01 0 0 0 10.87-9.209 10.945 10.945 0 0 0-3.086-9.568ZM7.2 13.4a1.4 1.4 0 1 1 0-2.8 1.4 1.4 0 0 1 0 2.8Zm4.8 0a1.4 1.4 0 1 1 0-2.8 1.4 1.4 0 0 1 0 2.8Zm4.8 0a1.4 1.4 0 1 1 0-2.8 1.4 1.4 0 0 1 0 2.8Z"/></svg>