<svg xmlns="http://www.w3.org/2000/svg" viewBox="0 0 20 20" fill="currentColor"><path d="m18.884 14.538-2.784-2.96a.575.575 0 0 0-.919.097.63.63 0 0 0-.098.344v1.98H12a4.288 4.288 0 0 1-4.5-4.024v-.062C7.5 7.756 9.519 6 12 6h3.082v2.025a.63.63 0 0 0 .368.579.577.577 0 0 0 .649-.14L18.89 5.5a.756.756 0 0 0-.011-1.02l-2.785-2.9a.574.574 0 0 0-.646-.133.627.627 0 0 0-.366.577V4H12a6.351 6.351 0 0 0-6.427 5.025H1V11h4.6a6.385 6.385 0 0 0 6.4 5h3.083v2.019a.627.627 0 0 0 .366.577.573.573 0 0 0 .647-.133l2.777-2.894a.841.841 0 0 0 .21-.517.854.854 0 0 0-.199-.514Z"/></svg>