<svg xmlns="http://www.w3.org/2000/svg" viewBox="0 0 20 20" fill="currentColor"><path d="M7.98 8.383a1.652 1.652 0 0 0-.88-.246 1.68 1.68 0 0 0-.883.246c-.27.162-.494.393-.646.67a2.018 2.018 0 0 0 0 1.894 1.738 1.738 0 0 0 3.059 0 2.008 2.008 0 0 0 0-1.889 1.787 1.787 0 0 0-.65-.675Z"/><path d="M10 0a10 10 0 1 0 10 10A10.011 10.011 0 0 0 10 0Zm-.235 11.551a3.012 3.012 0 0 1-1.117 1.113 3.18 3.18 0 0 1-3.11 0 3.075 3.075 0 0 1 0-5.336 3.094 3.094 0 0 1 1.558-.4 3.019 3.019 0 0 1 1.555.412 3.106 3.106 0 0 1 1.114 4.211Zm5.377 1.392a3.6 3.6 0 0 1-.955.129 3.388 3.388 0 0 1-1.617-.395 3.09 3.09 0 0 1-1.184-1.1 3.03 3.03 0 0 1 0-3.152 3.055 3.055 0 0 1 1.184-1.1 3.359 3.359 0 0 1 1.592-.392c.315 0 .63.043.934.125.31.084.608.21.884.375l-.5 1.176a1.33 1.33 0 0 0-.58-.354 2.315 2.315 0 0 0-.7-.113 2.029 2.029 0 0 0-.959.233c-.288.152-.53.378-.7.655a1.768 1.768 0 0 0-.262.955c-.004.335.082.664.25.954.164.284.403.518.692.675.301.166.64.251.984.246.25 0 .5-.04.738-.116.215-.062.409-.18.562-.342L16 12.58a3.31 3.31 0 0 1-.858.363Z"/></svg>