<svg xmlns="http://www.w3.org/2000/svg" viewBox="0 0 20 20" fill="currentColor"><path d="M15.674 10.912c.559.687.844 1.557.8 2.442a4.384 4.384 0 0 1-.677 2.415 4.507 4.507 0 0 1-1.9 1.645 6.33 6.33 0 0 1-2.773.586H4.358V2h5.369a7.488 7.488 0 0 1 2.94.526c.755.296 1.411.799 1.894 1.45.436.61.665 1.345.655 2.095A4.175 4.175 0 0 1 14.746 8 4.542 4.542 0 0 1 13.5 9.522c.84.251 1.593.733 2.174 1.39ZM7.927 5.1v3.467h2.05a1.733 1.733 0 0 0 1.31-.5 1.806 1.806 0 0 0 .48-1.3 1.478 1.478 0 0 0-.54-1.243A2.365 2.365 0 0 0 9.75 5.1H7.927Zm3.01 9.8a2.062 2.062 0 0 0 1.44-.505 1.72 1.72 0 0 0 .558-1.341 1.622 1.622 0 0 0-.59-1.335 2.425 2.425 0 0 0-1.571-.478H7.927V14.9h3.01Z"/></svg>