<svg xmlns="http://www.w3.org/2000/svg" viewBox="0 0 20 20" fill="currentColor"><path d="M3.994 14.88c.423.08.85.145 1.278.2l-1.207 2.7-1.14-.51 1.069-2.39Zm10.53.23L16 17.806l1.1-.6-1.259-2.3a24.25 24.25 0 0 1-1.317.202Zm-5.149.26v3.38h1.25v-3.38c-.22 0-.432.005-.625.005s-.4-.002-.625-.005ZM20 11.02C20 13.376 13.459 14 10 14c-3.459 0-10-.623-10-2.98a4.82 4.82 0 0 1 3.5-3.7l.149-.035v-.04a6.355 6.355 0 0 1 12.708 0v.036l.149.034A4.82 4.82 0 0 1 20 11.02Zm-1.25 0a3.783 3.783 0 0 0-2.53-2.485l-.256-.06H15.1v-1.23a5.105 5.105 0 0 0-10.208 0v.527c.308.32 2.074.891 5.1.891 1.012.006 2.023-.07 3.023-.225l.618-.1.2 1.234-.616.1c-1.064.166-2.14.246-3.217.241-.57 0-5.018-.045-6.111-1.405l-.109.025a3.781 3.781 0 0 0-2.53 2.486c.082.475 2.9 1.731 8.75 1.731s8.668-1.256 8.75-1.733v.002Z"/></svg>