<svg xmlns="http://www.w3.org/2000/svg" viewBox="0 0 20 20" fill="currentColor"><path d="M20 5.621v5.758A4.626 4.626 0 0 1 15.379 16h-2l-3.397 3.259-.866-.9 3.758-3.607h2.5a3.376 3.376 0 0 0 3.371-3.371v-5.76a3.375 3.375 0 0 0-3.366-3.371H4.621A3.375 3.375 0 0 0 1.25 5.621v5.758a3.375 3.375 0 0 0 3.371 3.371H7.5V16H4.621A4.626 4.626 0 0 1 0 11.379V5.621A4.626 4.626 0 0 1 4.621 1h10.758A4.626 4.626 0 0 1 20 5.621Zm-9.955 7.856a.853.853 0 0 1-.445-.127c-1.018-.628-4.348-2.891-4.586-5.729a2.951 2.951 0 0 1 5.031-2.391 2.95 2.95 0 0 1 5.033 2.391c-.237 2.837-3.567 5.1-4.583 5.727a.851.851 0 0 1-.45.129Zm0-1.324c.843-.55 3.611-2.515 3.788-4.636a1.72 1.72 0 0 0-1.421-1.893 1.7 1.7 0 0 0-1.8.952l-.564 1.182-.568-1.182a1.7 1.7 0 0 0-1.8-.952 1.719 1.719 0 0 0-1.423 1.892c.178 2.122 2.943 4.084 3.787 4.637h.001Z"/></svg>