<svg xmlns="http://www.w3.org/2000/svg" viewBox="0 0 20 20" fill="currentColor"><path d="M10.328.454 9.956.311l-.283.143C8.785.9 1 5.056 1 12.225c0 4.243 3.957 7.7 8.849 7.768A.979.979 0 0 0 9.99 20H10c4.962 0 9-3.488 9-7.775C19 5.056 11.215.9 10.328.454ZM12.5 17.789a3.699 3.699 0 0 1-2.854.945 3.48 3.48 0 0 1-2.457-1.37 3.945 3.945 0 0 1-.764-3.052c.441-2.639 2.75-4.38 3.576-4.926.928.611 3.65 2.674 3.65 5.818a3.469 3.469 0 0 1-1.151 2.585Zm1.64-.057c.49-.754.753-1.633.76-2.532 0-4.268-4.069-6.79-4.537-7.066l-.415-.184-.315.187c-.638.377-3.852 2.436-4.442 5.964A5.18 5.18 0 0 0 6 17.8a6.4 6.4 0 0 1-3.75-5.575c0-5.969 6.4-9.788 7.75-10.53 1.352.741 7.75 4.56 7.75 10.53a6.366 6.366 0 0 1-3.611 5.507h.001Z"/></svg>