<svg xmlns="http://www.w3.org/2000/svg" viewBox="0 0 20 20" fill="currentColor"><path d="M0 3h2v14H0V3Zm12.986 9.539a4.756 4.756 0 0 1-5 4.46A4.756 4.756 0 0 1 3 12.54a4.325 4.325 0 0 1 2.074-3.6A3.31 3.31 0 0 1 4 6.539a3.792 3.792 0 0 1 3.991-3.54 3.792 3.792 0 0 1 4 3.54 3.31 3.31 0 0 1-1.075 2.4 4.324 4.324 0 0 1 2.07 3.6Zm-6.992-6a1.838 1.838 0 0 0 2 1.538 1.84 1.84 0 0 0 2-1.538 1.839 1.839 0 0 0-2.003-1.54 1.839 1.839 0 0 0-1.997 1.54Zm4.994 6a2.772 2.772 0 0 0-3-2.462 2.772 2.772 0 0 0-3 2.462 2.772 2.772 0 0 0 3 2.46 2.772 2.772 0 0 0 3-2.46ZM18 7.999V6h-2v2h-2v2h2v2h2v-2h2V8h-2Z"/></svg>