<svg xmlns="http://www.w3.org/2000/svg" viewBox="0 0 20 20" fill="currentColor"><path d="M5.047 14V6.015h1.482L10 10.159h.054l3.474-4.144H15V14h-1.952v-3.109l.041-1.962h-.055l-2.792 3.456h-.437L7.014 8.929h-.055L7 10.891V14H5.047Zm-3.559-3.967v.03c.164.01.327.029.488.057a1.1 1.1 0 0 1 .466.2c.153.117.276.27.357.444.108.252.158.526.146.8v3.752c0 .105.008.21.022.314.014.108.054.21.116.3.072.1.171.178.285.226.167.066.346.096.525.088h.713v1.666h-1.53a2.289 2.289 0 0 1-.736-.116 1.5 1.5 0 0 1-.6-.379 1.844 1.844 0 0 1-.4-.663 2.859 2.859 0 0 1-.146-.97v-3.9a.743.743 0 0 0-.2-.539 1.268 1.268 0 0 0-.459-.306 2.106 2.106 0 0 0-.524-.132H0V9.189h.016c.18-.021.356-.066.524-.132A1.27 1.27 0 0 0 1 8.75a.743.743 0 0 0 .2-.539v-4.02a2.98 2.98 0 0 1 .138-.968 1.7 1.7 0 0 1 .394-.657 1.52 1.52 0 0 1 .6-.371 2.3 2.3 0 0 1 .75-.117h1.53V3.74h-.719a1.267 1.267 0 0 0-.525.087.682.682 0 0 0-.285.226.689.689 0 0 0-.116.306 2.36 2.36 0 0 0-.022.314v3.845c.012.274-.037.548-.146.8a1.194 1.194 0 0 1-.357.445 1.2 1.2 0 0 1-.466.2c-.16.035-.324.058-.488.07Zm18.5-.852a2.11 2.11 0 0 1-.524-.132A1.268 1.268 0 0 1 19 8.743a.742.742 0 0 1-.2-.539v-4a2.858 2.858 0 0 0-.146-.97 1.843 1.843 0 0 0-.4-.663 1.5 1.5 0 0 0-.6-.379 2.29 2.29 0 0 0-.736-.116h-1.53v1.663h.713c.18-.008.358.022.525.088a.674.674 0 0 1 .285.226c.062.09.102.192.116.3.014.104.022.209.022.314v3.857c-.012.274.038.548.146.8.081.175.204.327.357.444a1.1 1.1 0 0 0 .466.2c.162.028.324.047.488.057v.03c-.164.01-.327.032-.488.065a1.13 1.13 0 0 0-.823.649 1.817 1.817 0 0 0-.146.8v3.745c0 .105-.008.21-.022.314a.689.689 0 0 1-.116.306.683.683 0 0 1-.285.226 1.268 1.268 0 0 1-.525.087h-.713v1.663h1.53a2.3 2.3 0 0 0 .75-.117 1.52 1.52 0 0 0 .6-.371 1.7 1.7 0 0 0 .394-.657c.099-.312.145-.638.138-.965v-3.92a.742.742 0 0 1 .2-.539c.129-.135.285-.24.459-.307.168-.066.344-.11.524-.131H20V9.182l-.012-.001Z"/></svg>