<svg xmlns="http://www.w3.org/2000/svg" viewBox="0 0 20 20" fill="currentColor"><path d="M15.751 6.023 17 6.106l-.761 11.368a2.554 2.554 0 0 1-.718 1.741A2.586 2.586 0 0 1 13.8 20H6.2a2.585 2.585 0 0 1-1.718-.783 2.553 2.553 0 0 1-.719-1.737L3 6.106l1.248-.083.761 11.369c-.005.333.114.656.333.908.22.252.525.415.858.458h7.6c.333-.043.64-.207.859-.46.22-.254.338-.578.332-.912l.76-11.363ZM18 2.983v1.243H2V2.983h4v-.372A2.737 2.737 0 0 1 6.896.718 2.772 2.772 0 0 1 8.875.002h2.25c.729-.03 1.44.227 1.979.716.538.488.86 1.169.896 1.893v.372h4Zm-10.75 0h5.5v-.372a1.505 1.505 0 0 0-.531-1.014 1.524 1.524 0 0 0-1.094-.352h-2.25c-.397-.03-.79.097-1.094.352-.304.256-.495.62-.531 1.014v.372Z"/></svg>