<svg xmlns="http://www.w3.org/2000/svg" viewBox="0 0 20 20" fill="currentColor"><path d="M15.708 8.216a2.872 2.872 0 0 0-2.792-.155l-3.13 1.508-2.7-1.508a2.875 2.875 0 0 0-2.792.155A2.717 2.717 0 0 0 3 10.522v2.452A7.057 7.057 0 0 0 9.786 20h.218a7.049 7.049 0 0 0 4.957-1.994A6.61 6.61 0 0 0 17 13.23v-2.71a2.717 2.717 0 0 0-1.292-2.305ZM4.25 10.522a1.454 1.454 0 0 1 .707-1.248c.263-.166.568-.254.879-.254.232 0 .462.05.672.149l1.9 1.063-4.158 2.005v-1.715Zm9.209-1.335a1.631 1.631 0 0 1 1.584.087 1.454 1.454 0 0 1 .707 1.248v.29L5.1 15.929a5.728 5.728 0 0 1-.811-2.321l9.17-4.42Zm.632 7.923a5.818 5.818 0 0 1-4.269 1.638 5.687 5.687 0 0 1-3.954-1.8L15.75 12.2v1.03a5.377 5.377 0 0 1-1.659 3.88ZM5.174 6.453c-.012-.13-.041-.255-.041-.39a4.813 4.813 0 0 1 4.89-4.72c.248.006.495.03.74.073L12.057.174l.865.9-.783.752a4.7 4.7 0 0 1 2.775 4.236c0 .133-.03.259-.041.389a4.257 4.257 0 0 0-1.25-.008c.021-.126.035-.253.041-.381a3.563 3.563 0 0 0-3.641-3.47 3.562 3.562 0 0 0-3.64 3.47c.006.128.02.255.04.382a4.216 4.216 0 0 0-1.249.009ZM8.9 4.9a.588.588 0 0 1 .18.44.672.672 0 0 1-.04.24.9.9 0 0 1-.14.2.62.62 0 0 1-.44.18.588.588 0 0 1-.44-.18.661.661 0 0 1-.14-.2.6.6 0 0 1 .14-.68.628.628 0 0 1 .88 0Zm3.2 0a.586.586 0 0 1 .18.44.672.672 0 0 1-.04.24.902.902 0 0 1-.14.2.62.62 0 0 1-.44.18.637.637 0 0 1-.24-.04.6.6 0 0 1-.2-.14.6.6 0 0 1-.14-.68.483.483 0 0 1 .14-.2.483.483 0 0 1 .2-.14.618.618 0 0 1 .68.14Z"/></svg>