<svg xmlns="http://www.w3.org/2000/svg" viewBox="0 0 20 20" fill="currentColor"><path d="m17.4 10 1.85-1.947a1.146 1.146 0 0 0-.622-1.915l-2.642-.489.352-2.662A1.145 1.145 0 0 0 14.711 1.8l-2.424 1.16L11.008.6a1.19 1.19 0 0 0-2.014 0L7.712 2.96 5.288 1.8a1.145 1.145 0 0 0-1.63 1.187l.353 2.662-2.64.488a1.145 1.145 0 0 0-.623 1.916L2.6 10 .748 11.947a1.144 1.144 0 0 0 .622 1.915l2.64.489-.351 2.662A1.145 1.145 0 0 0 5.288 18.2l2.424-1.16 1.28 2.36a1.145 1.145 0 0 0 2.014 0l1.281-2.36 2.424 1.16a1.146 1.146 0 0 0 1.63-1.184l-.353-2.662 2.64-.488a1.146 1.146 0 0 0 .623-1.916L17.4 10Z"/></svg>