<svg xmlns="http://www.w3.org/2000/svg" viewBox="0 0 20 20" fill="currentColor"><path d="m12.657 19.743 1.205-2.874 2.021 2.01a.7.7 0 0 0 .989 0l1.885-1.869a.7.7 0 0 0 .008-.989l-1.994-2.038 2.5-1.025a.7.7 0 0 0 .431-.646l-.046-.486L8.517 7.092a1.1 1.1 0 0 0-1.442 1.424l4.448 10.839a.7.7 0 0 0 .647.434l.487-.046ZM7.81 13.606l.963 2.353A7.303 7.303 0 0 1 8 16a8 8 0 1 1 8-8 8.08 8.08 0 0 1-.05.87l-2.338-.98a5.627 5.627 0 1 0-5.8 5.716H7.81ZM5.7 8.439l1.582 3.867a4.377 4.377 0 1 1 5.034-4.961l-3.91-1.637-.034-.008A2.09 2.09 0 0 0 5.7 8.439Z"/></svg>