<svg xmlns="http://www.w3.org/2000/svg" viewBox="0 0 24 24" fill="currentColor"><path d="m23.805 3.27-6.55 6.549 1.37 1.37a.628.628 0 0 1 0 .885l-3.417 3.417a5.17 5.17 0 0 0-1.22-.548l3.312-3.311-1.37-1.37a.627.627 0 0 1 0-.885l6.55-6.55-1.308-1.306-6.55 6.55a.626.626 0 0 1-.885 0L12.367 6.7 1.58 17.489a1.344 1.344 0 0 0-.095 1.61A9.359 9.359 0 0 0 4.9 22.517a1.327 1.327 0 0 0 1.608-.091l.908-.908c.13.428.314.839.549 1.22l-.572.573a2.363 2.363 0 0 1-1.689.68 2.89 2.89 0 0 1-1.425-.39A10.64 10.64 0 0 1 .4 19.724 2.562 2.562 0 0 1 .694 16.6L11.925 5.374a.626.626 0 0 1 .885 0l1.37 1.37 6.55-6.55a.626.626 0 0 1 .884 0l2.191 2.19a.628.628 0 0 1 0 .886Zm-8.528 13.824a4.04 4.04 0 1 1-5.713 5.712 4.04 4.04 0 0 1 5.713-5.712Zm-4.827 4.828c.276.276.608.49.973.627a8.248 8.248 0 0 1 .142-5.24c-.42.131-.802.36-1.115.67a2.791 2.791 0 0 0 0 3.943Zm3.943-3.944a2.768 2.768 0 0 0-1.443-.764 7.131 7.131 0 0 0-.139 5.486 2.76 2.76 0 0 0 1.582-.778 2.794 2.794 0 0 0 0-3.944Z"/></svg>