<svg xmlns="http://www.w3.org/2000/svg" viewBox="0 0 20 20" fill="currentColor"><path d="M11 3.9V1.363H9V3.9c-.3.027-.6.07-.9.122l-.663-2.436-1.929.528.664 2.426c-.19.07-.372.154-.555.235l-1.491-2.24-1.664 1.108 1.407 2.114c-.188.132-.37.27-.547.415l-1.9-1.9L.005 5.684l1.9 1.9A8.362 8.362 0 0 0 0 12.852v1h2v-1a6.6 6.6 0 0 1 2.506-5.075c-.017.59.135 1.174.438 1.68.082.13.173.252.272.368-.14.666-.213 1.346-.216 2.027 0 3.928 2.243 7.125 5 7.125s5-3.2 5-7.125a8.619 8.619 0 0 0-1.735-5.384A7.034 7.034 0 0 1 18 12.852v1h2v-1c0-4.66-3.954-8.502-9-8.952ZM8.134 6.052A1.872 1.872 0 1 1 5.807 7.4c.067-.249.185-.48.348-.68a8.66 8.66 0 0 1 1.979-.668Z"/></svg>