<svg xmlns="http://www.w3.org/2000/svg" viewBox="0 0 20 20" fill="currentColor"><path d="M19.182 3.275a12.171 12.171 0 0 1-2.623 3.9c-.709.71-1.985 1.9-2.568 2.443l2.125 5.221a3.264 3.264 0 0 1-.747 3.425l-.442.442L9.6 13.387l-2.122 1.75c.454 1.096.5 2.319.13 3.446a1.123 1.123 0 0 1-1.065.75 1.123 1.123 0 0 1-.8-.332L1 14.255a1.128 1.128 0 0 1 .418-1.86 4.97 4.97 0 0 1 3.448.13l3-3.607a79.122 79.122 0 0 1 4.871-5.342l.171-.17A12.168 12.168 0 0 1 16.65.851L16.7.828a1.876 1.876 0 0 1 2.478 2.447h.004ZM5.16 3.9a3.27 3.27 0 0 0-3.425.778l-.412.442 4.2 4.191L8.6 5.986c.15-.168.292-.34.443-.508L5.16 3.9Z"/></svg>