<svg xmlns="http://www.w3.org/2000/svg" viewBox="0 0 20 20" fill="currentColor"><path d="M19.929 14.17 18.277 6.6a4.631 4.631 0 0 0-4.52-3.6H5.702a4.623 4.623 0 0 0-4.58 3.908L.034 14.387a3.134 3.134 0 0 0 .735 2.5 3.227 3.227 0 0 0 5.553-1.284l.39-1.635h5.794l.39 1.635A3.2 3.2 0 0 0 16.01 18h.782a3.211 3.211 0 0 0 3.123-2.444c.109-.455.114-.929.015-1.386ZM8.026 9.323H6.25V11.1h-1.5V9.323H2.976v-1.5H4.75V6.048h1.5v1.775h1.775v1.5Zm5.275.977c-.1.1-.219.178-.35.23a1.07 1.07 0 0 1-1.04-.098 1.1 1.1 0 0 1-.16-1.692 1.13 1.13 0 0 1 1.55 0 1.089 1.089 0 0 1 0 1.56Zm2.24-2.33a.88.88 0 0 1-.24.36 1.1 1.1 0 0 1-1.55 0 .878.878 0 0 1-.24-.36.982.982 0 0 1-.08-.42.746.746 0 0 1 .02-.21.826.826 0 0 1 .06-.21c.03-.065.063-.129.1-.19a1.13 1.13 0 0 1 1.83 0c.037.061.07.125.1.19.029.067.05.138.06.21.016.069.023.14.02.21a.985.985 0 0 1-.08.42Z"/></svg>