<svg xmlns="http://www.w3.org/2000/svg" viewBox="0 0 20 20" fill="currentColor"><path d="M7.25 8.5A2.752 2.752 0 0 0 10 11.25a2.72 2.72 0 0 0 1.33-.358L7.609 7.169A2.721 2.721 0 0 0 7.25 8.5Z"/><path d="M10 5.75a2.721 2.721 0 0 0-1.331.358l3.723 3.723A2.72 2.72 0 0 0 12.75 8.5 2.752 2.752 0 0 0 10 5.75Z"/><path d="M18.67 2.13a.819.819 0 0 0-.7-.047 8.832 8.832 0 0 1-7.6-.062 10.3 10.3 0 0 0-8.92 0 .626.626 0 0 0-.351.563v17.191h.24V20H3v-5.442a9.033 9.033 0 0 1 6.826.4 10.084 10.084 0 0 0 8.822 0A.626.626 0 0 0 19 14.4V2.732a.712.712 0 0 0-.33-.602ZM10 12.75a4.25 4.25 0 1 1 0-8.5 4.25 4.25 0 0 1 0 8.5Z"/></svg>