<svg xmlns="http://www.w3.org/2000/svg" viewBox="0 0 20 20" fill="currentColor"><path d="m1.735 3.823.209-1.232c1.38.23 2.62.974 3.475 2.081a5.544 5.544 0 0 1 3.472-2.081l.21 1.232c-.118.02-2.706.5-3.055 2.535.018.155.027.31.028.466H4.76c0-.155.01-.31.028-.464-.356-2.053-3.024-2.532-3.053-2.537ZM19.98 2.577a4.313 4.313 0 0 1-2.115 4.146v1.92a8.93 8.93 0 0 1-4.034 7.478l-.112.068a10.228 10.228 0 0 0-.479-2.774l-1.177.417a9.19 9.19 0 0 1 .408 3.04 7.298 7.298 0 0 1-.8 2.729.626.626 0 0 1-.51.331h-.042a.622.622 0 0 1-.507-.262l-1.493-2.09H8.93a8.935 8.935 0 0 1-6.31-2.62A8.954 8.954 0 0 1 0 8.643c0-.078.016-.156.046-.228.123.38.308.738.547 1.059a8.2 8.2 0 0 0 4.096 3.285l.339-1.2a7.169 7.169 0 0 1-3.43-2.824A2.564 2.564 0 0 1 1.232 8h12.387c.442 0 .769-.05.827-1.258a4.298 4.298 0 0 1-2.15-4.165.626.626 0 0 1 .484-.586 3.562 3.562 0 0 1 3.354 1.083 3.58 3.58 0 0 1 3.356-1.083.626.626 0 0 1 .49.586ZM8.092 10.931a.83.83 0 0 0-1.28 1.05.83.83 0 1 0 1.28-1.05Z"/></svg>