<svg xmlns="http://www.w3.org/2000/svg" viewBox="0 0 20 20" fill="currentColor"><path d="M11.41 2.188a4.683 4.683 0 0 1-.457 5.223l-.142.175a5.278 5.278 0 0 1-.923.942v9.05c0 1.37-1.525 2.395-2.887 2.395s-2.887-1.025-2.887-2.395V8.53a5.177 5.177 0 0 1-.92-.942l-.145-.177a4.683 4.683 0 0 1-.456-5.223A5.111 5.111 0 0 1 4.39.18.967.967 0 0 1 5.4.134a1.087 1.087 0 0 1 .583.947v3.377c0 .165.532.555 1.017.555.485 0 1.017-.39 1.017-.555V1.081A1.087 1.087 0 0 1 8.6.135a.967.967 0 0 1 1.012.044 5.088 5.088 0 0 1 1.797 2.009ZM17.374 9H16V.359h-2V9h-1.375a.625.625 0 0 0-.625.625v7.64A2.738 2.738 0 0 0 14.735 20h.53A2.739 2.739 0 0 0 18 17.265v-7.64A.625.625 0 0 0 17.375 9Z"/></svg>