<svg xmlns="http://www.w3.org/2000/svg" viewBox="0 0 20 20" fill="currentColor"><path d="M2.774 6.562.97 5.7c.32-.67.713-1.3 1.172-1.883l1.57 1.238a8.041 8.041 0 0 0-.938 1.507Zm-.579 1.674L.244 7.8C.082 8.522 0 9.26 0 10h2c0-.593.065-1.185.195-1.764Zm1.5-6L4.956 3.79c.46-.374.96-.696 1.491-.959l-.888-1.792c-.664.33-1.29.732-1.865 1.2l.001-.003Zm12.434 2.622 1.531-1.286a10.082 10.082 0 0 0-1.6-1.529l-1.213 1.59c.47.36.9.771 1.282 1.225Zm1.617 3.133 1.936-.5a10.026 10.026 0 0 0-.792-2.07l-1.778.916c.272.526.485 1.08.634 1.654Zm-7.366 10 .094 2a9.974 9.974 0 0 0 2.19-.348l-.531-1.928c-.572.157-1.16.25-1.753.276Zm6.063-3.249 1.608 1.189a9.967 9.967 0 0 0 1.112-1.92l-1.832-.8a7.97 7.97 0 0 1-.888 1.531Zm-2.666 2.312.948 1.762a10.133 10.133 0 0 0 1.824-1.257l-1.311-1.512a7.972 7.972 0 0 1-1.461 1.007ZM20 9.684l-2 .061V10c0 .509-.048 1.016-.144 1.516l1.965.376A10.17 10.17 0 0 0 20 10v-.316ZM7.643.28l.47 1.944A8.088 8.088 0 0 1 9.874 2l-.033-2c-.74.012-1.478.106-2.198.28Zm4.4-.07-.406 1.958a7.9 7.9 0 0 1 1.683.553L14.156.9a9.957 9.957 0 0 0-2.109-.69h-.004ZM1.371 11.112a.723.723 0 0 0-.5.688v4.561a.726.726 0 0 0 .3.587l.35.2 3.038-1.012a.725.725 0 0 0 .465-.471l.081-.4-2.925-3.9a.727.727 0 0 0-.809-.253Z"/></svg>