<svg xmlns="http://www.w3.org/2000/svg" viewBox="0 0 20 20" fill="currentColor"><path d="M19 7.625v-1.25h-2v-1.75A1.627 1.627 0 0 0 15.375 3h-1.75V1h-1.25v2h-1.75V1h-1.25v2h-1.75V1h-1.25v2h-1.75A1.627 1.627 0 0 0 3 4.625v1.75H1v1.25h2v1.75H1v1.25h2v1.75H1v1.25h2v1.75A1.627 1.627 0 0 0 4.625 17h1.75v2h1.25v-2h1.75v2h1.25v-2h1.75v2h1.25v-2h1.75A1.627 1.627 0 0 0 17 15.375v-1.75h2v-1.25h-2v-1.75h2v-1.25h-2v-1.75h2Zm-10.875 5.5a1.252 1.252 0 0 1-1.25-1.25v-3.75a1.252 1.252 0 0 1 1.25-1.25h3.75a1.252 1.252 0 0 1 1.25 1.25v3.75a1.252 1.252 0 0 1-1.25 1.25h-3.75Zm.25-4.75h3.25v3.25h-3.25v-3.25Z"/></svg>