<svg xmlns="http://www.w3.org/2000/svg" viewBox="0 0 20 20" fill="currentColor"><path d="m5.013 13.878 4.9 1.334v1.575a1.123 1.123 0 0 1-1.122 1.122H6.134a1.123 1.123 0 0 1-1.121-1.122v-2.91Zm10.162-.767c-.269.524-.488.639-.55.639-.4 0-1.375-1.84-1.375-5.25s.976-5.25 1.375-5.25c.062 0 .281.115.55.639l.284.556 1.113-.57-.285-.556c-.541-1.056-1.169-1.3-1.618-1.316h-.044a1.4 1.4 0 0 0-.754.23L3.7 5.852c-.913-.552-1.845-.99-2.608-.58C.237 5.735.044 6.98 0 9c.047 2 .24 3.245 1.093 3.7.783.423 1.754-.06 2.7-.637.758.26 2.249.658 5.175 1.439l5.074 1.355c.183.088.384.134.587.135.45 0 1.1-.23 1.661-1.32l.285-.555-1.113-.57-.287.564ZM16 8v1.25h3.25V8H16Zm.389-1.586 2.819-1.594-.615-1.088-2.82 1.594.616 1.088Zm-.616 5.26 2.82 1.594.615-1.088-2.819-1.594-.616 1.088Z"/></svg>