<svg xmlns="http://www.w3.org/2000/svg" fill="none" viewBox="0 0 24 24"><path fill="url(#a)" d="M22.05 7.538c0-.008-.004-.017-.006-.025-.037-.086-.083-.167-.123-.252-.06-.123-.117-.246-.18-.366-.067-.128-.14-.253-.213-.379-.062-.107-.121-.216-.187-.321-.086-.138-.178-.27-.27-.404-.051-.076-.098-.154-.152-.228l.005.011A10.986 10.986 0 0 0 12 1a10.994 10.994 0 0 0-8.924 4.574l.004-.01c-.054.075-.1.15-.152.227-.091.133-.184.265-.269.403-.066.105-.125.214-.188.321-.072.125-.145.25-.212.38-.063.12-.121.243-.18.366-.04.085-.085.166-.124.252 0 .008-.003.016-.004.025a10.986 10.986 0 0 0 4.8 14.13 11.006 11.006 0 0 0 14.474-3.673 10.986 10.986 0 0 0 .824-10.457Z"/><path fill="#35281F" fill-opacity=".6" d="M18.164 9.028a7.2 7.2 0 0 1 3.148-2.878c-.075-.121-.157-.24-.239-.359-.052-.076-.098-.153-.152-.227l.005.011c-.035-.048-.073-.093-.109-.14a8.047 8.047 0 0 0-3.287 3.15 23.217 23.217 0 0 0-4.247-2.201 26.093 26.093 0 0 1 3.7-4.187c-.247-.126-.5-.24-.756-.348a26.582 26.582 0 0 0-3.688 4.25 28.41 28.41 0 0 0-3.561-1.03 27.186 27.186 0 0 0 2.063-4.022c-.301.027-.599.063-.892.114A25.576 25.576 0 0 1 8.162 4.9a32.833 32.833 0 0 0-4.106-.492c-.23.241-.452.492-.66.753l.17.01c1.384.03 2.763.173 4.124.427-2.61 3.712-5.628 5.48-6.679 5.99-.005.132-.011.269-.011.407 0 .147.005.293.011.439.814-.325 4.459-1.971 7.518-6.675 1.212.253 2.406.588 3.574 1a20.675 20.675 0 0 0-2.815 15.89c.282.072.569.13.86.18l-.076-.244c-.03-.09-2.494-7.495 2.77-15.55 1.518.586 2.97 1.335 4.326 2.235-1.464 3.081-1.368 7.202.294 12.264.23-.132.457-.27.677-.417-1.52-4.718-1.63-8.549-.33-11.397a18.09 18.09 0 0 1 4.802 5.148l.005.008c.093-.343.17-.693.23-1.049a18.933 18.933 0 0 0-4.682-4.798Z" style="mix-blend-mode:hard-light"/><path fill="#FFB076" fill-opacity=".8" d="M17.8 9.18a8.395 8.395 0 0 1 3.399-3.198l-.128-.19c-.051-.075-.098-.153-.152-.227l.005.012c-.054-.076-.111-.144-.166-.217a8.388 8.388 0 0 0-3.546 3.407 23.783 23.783 0 0 0-4.294-2.232 28.335 28.335 0 0 1 3.859-4.438c-.228-.11-.459-.213-.694-.308a29.45 29.45 0 0 0-3.907 4.463 28.468 28.468 0 0 0-3.561-1.033 28.608 28.608 0 0 0 2.087-4.142 11.13 11.13 0 0 0-.78.12 28.86 28.86 0 0 1-2.056 3.867 29.668 29.668 0 0 0-3.969-.496c-.22.24-.427.493-.625.751 1.36.036 2.716.179 4.053.427a17.33 17.33 0 0 1-6.307 5.628 10.81 10.81 0 0 0-.018.62c0 .114.005.225.008.338.944-.403 4.186-2.032 7.156-6.422 1.232.242 2.446.566 3.634.97-4.601 7.165-3.401 13.87-2.95 15.646.284.085.572.159.865.22l-.004-.01c-.03-.09-2.49-7.554 2.772-15.608a22.998 22.998 0 0 1 4.4 2.248c-1.445 3.04-1.397 7.164.346 12.292.199-.107.394-.223.586-.343-1.502-4.693-1.593-8.71-.298-11.546a19.015 19.015 0 0 1 5 5.45c.09-.294.168-.593.233-.896A21.559 21.559 0 0 0 17.8 9.18Z" style="mix-blend-mode:soft-light"/><g filter="url(#b)" style="mix-blend-mode:darken"><path fill="#2C1A00" d="M18.027 9.081a7.32 7.32 0 0 1 3.235-3.015c-.142-.22-.289-.437-.445-.647a8.017 8.017 0 0 0-3.426 3.22 23.226 23.226 0 0 0-4.245-2.202 26.146 26.146 0 0 1 3.785-4.268c-.248-.125-.5-.24-.759-.347a26.654 26.654 0 0 0-3.772 4.33 28.396 28.396 0 0 0-3.56-1.03 27.134 27.134 0 0 0 2.084-4.068c-.303.03-.602.073-.898.127a25.654 25.654 0 0 1-2 3.771 28.149 28.149 0 0 0-4.035-.489 11.61 11.61 0 0 0-.652.758h.09a25.59 25.59 0 0 1 4.124.428c-2.709 3.853-5.608 5.409-6.54 5.837-.008.166-.013.337-.013.508 0 .111.005.221.008.332.47-.176 4.097-1.658 7.384-6.515 1.212.254 2.406.588 3.574 1-4.77 7.427-3.247 14.332-2.845 15.793.286.077.577.143.872.196l-.057-.163c-.03-.09-2.494-7.495 2.77-15.55 1.518.587 2.97 1.337 4.326 2.237-1.467 3.085-1.369 7.214.3 12.286.232-.13.46-.266.68-.411-1.53-4.733-1.643-8.573-.339-11.427a18.09 18.09 0 0 1 4.8 5.148l.09.144c.098-.34.18-.687.247-1.039a18.915 18.915 0 0 0-4.783-4.944Z"/></g><defs><filter id="b" x="1" y="1.054" color-interpolation-filters="sRGB" filterUnits="userSpaceOnUse"><feFlood flood-opacity="0" result="BackgroundImageFix"/><feBlend in="SourceGraphic" in2="BackgroundImageFix" result="shape"/><feColorMatrix in="SourceAlpha" result="hardAlpha" values="0 0 0 0 0 0 0 0 0 0 0 0 0 0 0 0 0 0 127 0"/><feOffset dy="1.517"/><feGaussianBlur stdDeviation=".759"/><feComposite in2="hardAlpha" k2="-1" k3="1" operator="arithmetic"/><feColorMatrix values="0 0 0 0 0 0 0 0 0 0 0 0 0 0 0 0 0 0 0.25 0"/><feBlend in2="shape" result="effect1_innerShadow_7512_358"/></filter><radialGradient id="a" cx="0" cy="0" r="1" gradientTransform="matrix(3.60345 14.30915 -14.30789 3.60313 11.241 7.919)" gradientUnits="userSpaceOnUse"><stop stop-color="#EFA15E"/><stop offset=".601" stop-color="#D07140"/><stop offset=".838" stop-color="#AF5529"/><stop offset="1" stop-color="#B66F42"/></radialGradient></defs></svg>