<svg xmlns="http://www.w3.org/2000/svg" viewBox="0 0 20 20" fill="currentColor"><path d="m8.089 5.475.025-.16h2.131V4.036H5.762V2.264H4.484v1.772H0v1.279h2.186l.026.161c.258 1.68.93 3.269 1.956 4.624l.106.14-.13.117A8.071 8.071 0 0 1 0 12.366v1.282a9.076 9.076 0 0 0 4.993-2.361l.13-.12.13.12a9.085 9.085 0 0 0 3.991 2.142l.455-1.2a8.254 8.254 0 0 1-3.6-1.873l-.13-.117.1-.14a10.449 10.449 0 0 0 2.02-4.624ZM5.274 9l-.157.207-.149-.213A9.46 9.46 0 0 1 3.5 5.546l-.05-.231h3.34l-.038.224A7.95 7.95 0 0 1 5.274 9ZM20 13.524A4.467 4.467 0 0 1 15.552 18h-5.541v-1.25h5.541a3.226 3.226 0 0 0 0-6.452h-2.666l1.933 1.933-.884.884-3-3a.623.623 0 0 1 0-.884l3-3 .884.884-1.933 1.933h2.666A4.467 4.467 0 0 1 20 13.524Z"/></svg>