<svg xmlns="http://www.w3.org/2000/svg" viewBox="0 0 20 20" fill="currentColor"><path d="M12.125 10.875H15.5v1.25h-3.375V15.5h-1.25v-3.375H7.5v-1.25h3.375V7.5h1.25v3.375ZM19 5.625v11.75A1.627 1.627 0 0 1 17.375 19H5.625A1.627 1.627 0 0 1 4 17.375V5.625A1.627 1.627 0 0 1 5.625 4h11.75A1.627 1.627 0 0 1 19 5.625Zm-1.25 0a.375.375 0 0 0-.375-.375H5.625a.375.375 0 0 0-.375.375v11.75a.375.375 0 0 0 .375.375h11.75a.375.375 0 0 0 .375-.375V5.625ZM2.624 2.25h11.751a.375.375 0 0 1 .375.374H16A1.627 1.627 0 0 0 14.375 1H2.624A1.626 1.626 0 0 0 1 2.624v11.751A1.627 1.627 0 0 0 2.624 16v-1.25a.375.375 0 0 1-.374-.375V2.624a.375.375 0 0 1 .374-.374Z"/></svg>