<svg xmlns="http://www.w3.org/2000/svg" viewBox="0 0 20 20" fill="currentColor"><path d="M18.573 11.608a8.751 8.751 0 0 1-5.726 6.657 10.825 10.825 0 0 0 1.622-3.765l-.623-.011-.512-.352-.053-.037c-.687 2.861-2.032 4.65-3.281 4.65-1.7 0-3.582-3.308-3.735-8.125H9.59a11.808 11.808 0 0 1-.848-1.25H6.265c.116-3.66 1.23-6.443 2.5-7.572a6.946 6.946 0 0 1 1.7-1.779C10.312.016 10.158 0 10 0a10 10 0 1 0 10 10c0-.068-.009-.133-.01-.2a13.41 13.41 0 0 1-1.417 1.808ZM7.153 1.735a14.065 14.065 0 0 0-2.138 7.64H1.282a8.756 8.756 0 0 1 5.871-7.64Zm-5.871 8.89h3.733c-.035 2.7.707 5.351 2.138 7.64a8.756 8.756 0 0 1-5.871-7.64Zm13.253 2.553-.418-.238C13.59 12.578 9 9.316 9 5.55a5.5 5.5 0 0 1 11 0c0 3.765-4.591 7.028-5.114 7.387l-.351.241ZM14.5 1.25a4.28 4.28 0 0 0-4.25 4.3c0 2.718 3.2 5.34 4.25 6.124 1.041-.78 4.25-3.4 4.25-6.124a4.28 4.28 0 0 0-4.25-4.3Zm0 6.75a2.49 2.49 0 1 1 .02-4.98A2.49 2.49 0 0 1 14.5 8Zm0-3.73a1.25 1.25 0 1 0 0 2.5 1.25 1.25 0 0 0 0-2.5Z"/></svg>