<svg xmlns="http://www.w3.org/2000/svg" viewBox="0 0 20 20" fill="currentColor"><path d="M19.938 9.212a3.251 3.251 0 0 0-3.177-2.643 2.935 2.935 0 0 0-1.3.3 10.806 10.806 0 0 0-4.838-1.38l.81-3.741 2.444.519a1.492 1.492 0 1 0 .2-1.235L11.572.5a1.128 1.128 0 0 0-1.333.862L9.343 5.5A10.779 10.779 0 0 0 4.55 6.857a3.206 3.206 0 0 0-1.314-.289A3.25 3.25 0 0 0 .064 9.2c-.079.4-.085.812-.018 1.214a3.23 3.23 0 0 0 .912 1.754l.066.071v.127c.076 3.69 4.013 6.582 8.975 6.582 4.961 0 8.89-2.889 8.965-6.566l.006-.139.044-.046a3.252 3.252 0 0 0 .939-1.778c.067-.4.063-.809-.015-1.207Z"/></svg>