<svg xmlns="http://www.w3.org/2000/svg" viewBox="0 0 20 20" fill="currentColor"><path d="M1.737 17.125h-.649A1.064 1.064 0 0 1 0 16.089v-.41c0-3.063 2.774-5.554 6.184-5.554h.1c.31.608.72 1.159 1.216 1.628a7.326 7.326 0 0 0-5.763 5.372ZM11.55 1.45c.1 0 .193.01.29.015A4.457 4.457 0 0 0 8.55 0a4.526 4.526 0 0 0-2.9 7.982 5.938 5.938 0 0 1 1.702-4.777A5.95 5.95 0 0 1 11.55 1.45ZM13.816 13H9.184C5.774 13 3 15.49 3 18.554v.41A1.064 1.064 0 0 0 4.088 20h14.824A1.064 1.064 0 0 0 20 18.964v-.41C20 15.49 17.226 13 13.816 13ZM11.5 12a4.5 4.5 0 1 0 0-9.001 4.5 4.5 0 0 0 0 9Z"/></svg>