<svg xmlns="http://www.w3.org/2000/svg" viewBox="0 0 20 20" fill="currentColor"><path d="M12.942 10.942 10.884 13l2.058 2.058-.884.884L10 13.884l-2.058 2.058-.884-.884L9.116 13l-2.058-2.058.884-.884L10 12.116l2.058-2.058.884.884ZM19 3.625v12.78A2.6 2.6 0 0 1 16.4 19H3.6A2.6 2.6 0 0 1 1 16.405V3.625A2.629 2.629 0 0 1 3.625 1h12.75A2.63 2.63 0 0 1 19 3.625Zm-1.25 12.78V7.851a2.6 2.6 0 0 1-1.375.4H3.625a2.6 2.6 0 0 1-1.375-.4v8.554A1.348 1.348 0 0 0 3.6 17.75h12.8a1.348 1.348 0 0 0 1.35-1.345Zm0-11.331V3.625a1.377 1.377 0 0 0-1.375-1.375H3.625A1.377 1.377 0 0 0 2.25 3.625v2A1.377 1.377 0 0 0 3.625 7h12.75a1.377 1.377 0 0 0 1.375-1.375v-.551Z"/></svg>