<svg xmlns="http://www.w3.org/2000/svg" fill="none" viewBox="0 0 20 20"><path fill="#D98F00" d="M9.05 20V0h1.9c4.5 0 8.1 4.5 8.1 10s-3.6 10-8.1 10h-1.9Z"/><path fill="url(#a)" fill-opacity=".3" d="M9.05 20V0h1.9c4.5 0 8.1 4.5 8.1 10s-3.6 10-8.1 10h-1.9Z"/><path fill="#FFDD56" d="M9.05 20c4.473 0 8.1-4.477 8.1-10S13.522 0 9.05 0C4.575 0 .95 4.477.95 10s3.626 10 8.1 10Z"/><path fill="#D98F00" d="m11.55 14.1-.6-1.9c-.2.2-.4.4-.7.5-.3.2-.6.3-1 .3-.5 0-.9-.1-1.3-.4-.4-.3-.7-.6-.9-1.1-.1-.5-.2-1-.2-1.5 0-.6.1-1.1.3-1.5.2-.4.414-.831.804-1.102A2.231 2.231 0 0 1 9.25 7c.3 0 .6.1.9.2.3.1.6.3.8.6l.6-1.9c-.4-.3-.7-.5-1.1-.6-.4-.1-.8-.2-1.2-.2-.7 0-1.4.2-2 .6-.6.4-1.1 1-1.5 1.8-.4.7-.6 1.6-.6 2.5 0 .9.2 1.8.6 2.5.4.8.9 1.3 1.5 1.8.6.4 1.3.6 2.1.6.4 0 .8-.1 1.2-.2.3-.1.7-.3 1-.6Z"/><defs><linearGradient id="a" x1="11.628" x2="11.628" y1="0" y2="20" gradientUnits="userSpaceOnUse"><stop offset=".063" stop-color="white" stop-opacity="0"/><stop offset=".302" stop-color="white"/><stop offset=".432" stop-color="white"/><stop offset=".474" stop-color="white" stop-opacity="0"/></linearGradient></defs></svg>