<svg xmlns="http://www.w3.org/2000/svg" viewBox="0 0 20 20" fill="currentColor"><path d="m5.27.733-3.5 8.45h1.216L3.9 7.017h3.62l.917 2.166h1.3l-3.5-8.45H5.27Zm1.837 5.25H4.319L5.75 2.518l1.356 3.465Zm11.08 11.91v1.092h-6.534v-.38l.018-.026 4.415-6.472h-4.15v-1.092h6.155v.38l-.018.026-4.415 6.472h4.528ZM12.93 4.579l-.94-.824L14.41 1a.625.625 0 0 1 .463-.213.562.562 0 0 1 .469.2l2.5 2.75-.925.842-2.03-2.234-1.954 2.234ZM7.744 15.254l.938.826-2.5 2.833a.626.626 0 0 1-.47.212.625.625 0 0 1-.47-.22l-2.422-2.833.952-.81 1.949 2.284 2.023-2.292Z"/></svg>