<svg xmlns="http://www.w3.org/2000/svg" viewBox="0 0 20 20" fill="currentColor"><path d="M0 3.375h1.25v13.25H0V3.375ZM12.25 12.7A4.478 4.478 0 0 1 7.625 17 4.478 4.478 0 0 1 3 12.7a4.258 4.258 0 0 1 2.419-3.761A3.22 3.22 0 0 1 4 6.322 3.487 3.487 0 0 1 7.625 3a3.487 3.487 0 0 1 3.625 3.322 3.221 3.221 0 0 1-1.419 2.617A4.258 4.258 0 0 1 12.25 12.7ZM7.625 8.4A2.241 2.241 0 0 0 10 6.322 2.242 2.242 0 0 0 7.625 4.25 2.242 2.242 0 0 0 5.25 6.322a2.241 2.241 0 0 0 2.375 2.072V8.4ZM11 12.7a3.23 3.23 0 0 0-3.375-3.056A3.23 3.23 0 0 0 4.25 12.7a3.23 3.23 0 0 0 3.375 3.05A3.23 3.23 0 0 0 11 12.7ZM19.6 9H17V6.414h-1.25V9h-2.4v1.25h2.4v2.414H17V10.25h2.6V9Z"/></svg>