<svg xmlns="http://www.w3.org/2000/svg" viewBox="0 0 20 20" fill="currentColor"><path d="M18.74 6.914a3.901 3.901 0 0 0-2.466-1.964 22.274 22.274 0 0 0-5.775-.884l.883-2.694 2.457.522a1.494 1.494 0 1 0 .2-1.234L11.533.127a1.115 1.115 0 0 0-1.316.8l-1.01 3.07.218.07c-1.957.04-3.9.337-5.779.885A3.9 3.9 0 0 0 1.18 6.914a11.564 11.564 0 0 0 0 10.178 3.9 3.9 0 0 0 2.466 1.964c2.05.604 4.177.91 6.314.907a22.229 22.229 0 0 0 6.314-.907 3.9 3.9 0 0 0 2.466-1.964 11.565 11.565 0 0 0 0-10.178Zm-1.054 9.673a2.738 2.738 0 0 1-1.744 1.347 21.354 21.354 0 0 1-11.964 0 2.738 2.738 0 0 1-1.744-1.347 10.407 10.407 0 0 1 0-9.168 2.739 2.739 0 0 1 1.744-1.347 21.26 21.26 0 0 1 11.964 0 2.739 2.739 0 0 1 1.744 1.347 10.407 10.407 0 0 1 0 9.168Z"/><path d="M13.96 11.136 8.079 7.34a.718.718 0 0 0-.74-.028.726.726 0 0 0-.379.637v7.592a.725.725 0 0 0 1.118.609l5.882-3.794a.723.723 0 0 0 0-1.221Zm-5.75 3.442V8.913l4.391 2.833-4.391 2.832Z"/></svg>