<svg xmlns="http://www.w3.org/2000/svg" viewBox="0 0 24 24" fill="currentColor"><path d="m23.805 3.27-6.55 6.549 1.37 1.37a.628.628 0 0 1 0 .885l-3.233 3.233a5.51 5.51 0 0 0-7.614 7.614l-.388.389a2.363 2.363 0 0 1-1.689.68 2.89 2.89 0 0 1-1.425-.39A10.64 10.64 0 0 1 .4 19.724 2.562 2.562 0 0 1 .694 16.6L11.925 5.374a.626.626 0 0 1 .885 0l1.37 1.37 6.55-6.55a.626.626 0 0 1 .884 0l2.191 2.19a.628.628 0 0 1 0 .886Zm-8.528 13.824a3.989 3.989 0 0 0-1.607-.966l.012.027c-.165.222-.308.46-.426.709a7.056 7.056 0 0 0-.165 6.162l.388.8a4 4 0 0 0 1.8-1.022 4.044 4.044 0 0 0-.002-5.71Zm-3.35-.921c.03-.062.074-.146.115-.224a4 4 0 0 0-2.477 1.15 4.018 4.018 0 0 0 2.3 6.84l-.118-.245a8.419 8.419 0 0 1 .18-7.521Z"/></svg>