<svg xmlns="http://www.w3.org/2000/svg" viewBox="0 0 20 20" fill="currentColor"><path d="m5.082.909-3.76 8.573H3.17L4.087 7.5h3.25l.916 1.985h1.932L6.425.909H5.082Zm-.32 5.08.982-2.3.93 2.3H4.762Zm13.713 11.263v1.705h-7.109v-.764l4.187-6.311h-3.9v-1.7h6.727v.763l-4.187 6.312 4.282-.005ZM16.64 5.189l-1.748-1.921-1.678 1.909-1.5-1.321 2.416-2.75a1 1 0 0 1 .741-.339h.008a1 1 0 0 1 .74.327l2.5 2.75-1.479 1.345ZM5.712 19.233H5.7a1 1 0 0 1-.753-.35L2.534 16.05l1.522-1.3 1.67 1.957 1.736-1.97 1.5 1.324-2.5 2.839a1 1 0 0 1-.75.333Z"/></svg>