<svg xmlns="http://www.w3.org/2000/svg" viewBox="0 0 20 20" fill="currentColor"><path d="M18.375 2H1.625A1.627 1.627 0 0 0 0 3.625v12.75A1.627 1.627 0 0 0 1.625 18h16.75A1.627 1.627 0 0 0 20 16.375V3.625A1.627 1.627 0 0 0 18.375 2ZM13 12.375A2.63 2.63 0 0 1 10.375 15h-4.75A2.63 2.63 0 0 1 3 12.375v-4.75A2.629 2.629 0 0 1 5.625 5h4.75A2.63 2.63 0 0 1 13 7.625v4.75Zm3.29-2.045a.608.608 0 0 1-.15.12.557.557 0 0 1-.17.09.602.602 0 0 1-.19.06 1.223 1.223 0 0 1-.19.02 1.052 1.052 0 0 1-.71-.29 1.007 1.007 0 0 1-.27-.9c.01-.065.027-.128.05-.19a.95.95 0 0 1 .1-.17.61.61 0 0 1 .12-.16.933.933 0 0 1 .33-.21 1.02 1.02 0 0 1 1.08.21c.049.049.092.102.13.16.04.051.07.109.09.17.03.06.05.124.06.19.012.063.018.126.02.19-.003.267-.11.522-.3.71Zm0-3a1.01 1.01 0 0 1-.7.29.838.838 0 0 1-.38-.08.933.933 0 0 1-.33-.21 1.007 1.007 0 0 1-.27-.9c.01-.065.027-.128.05-.19a.95.95 0 0 1 .1-.17.61.61 0 0 1 .12-.16.933.933 0 0 1 .33-.21 1.02 1.02 0 0 1 1.08.21c.049.049.092.102.13.16.04.051.07.109.09.17.03.06.05.124.06.19.012.063.018.126.02.19-.003.267-.11.522-.3.71Z"/></svg>