<svg xmlns="http://www.w3.org/2000/svg" viewBox="0 0 20 20" fill="currentColor"><path d="M15.379 1.011H4.621A4.626 4.626 0 0 0 0 5.632v5.76a4.626 4.626 0 0 0 4.621 4.62h2L10 19.251l3.376-3.24h2A4.626 4.626 0 0 0 20 11.391v-5.76a4.626 4.626 0 0 0-4.621-4.62Zm-5.23 12.65a1 1 0 0 1-1.41 0 1.014 1.014 0 0 1 0-1.42l.15-.12a.705.705 0 0 1 .17-.09.812.812 0 0 1 .19-.06.856.856 0 0 1 .39 0c.066.008.13.029.19.06.061.02.119.05.17.09a.989.989 0 0 1 .149 1.54h.001Zm1.539-4.9c-.776.4-1.046.654-1.141 1.133 0 .006-.044.261-.046.267a.925.925 0 0 1-.227.422.911.911 0 0 1-.661.265.89.89 0 0 1-.665-.266.957.957 0 0 1-.276-.673c.004-.15.035-.3.093-.439A2.778 2.778 0 0 1 10.1 8c.728-.41 1.059-.7 1.059-1.35 0-.53-.45-.9-1.245-.9a2.989 2.989 0 0 0-1.753.65.832.832 0 0 1-1.081-.025l-.065-.06A.853.853 0 0 1 7.111 5a4.987 4.987 0 0 1 3.028-.95c2.012 0 3.111 1.018 3.111 2.422a2.452 2.452 0 0 1-1.562 2.291V8.76Z"/></svg>