<svg xmlns="http://www.w3.org/2000/svg" viewBox="0 0 20 20" fill="currentColor"><path d="M19.92 8.8a1.145 1.145 0 0 0-1.136-.99H17.71a.98.98 0 0 1-.887-.65A.969.969 0 0 1 17 6.1l.754-.754a1.15 1.15 0 0 0 .1-1.522 10.16 10.16 0 0 0-1.671-1.67 1.152 1.152 0 0 0-1.522.1L13.905 3a.975.975 0 0 1-1.09.167.97.97 0 0 1-.628-.878V1.216A1.144 1.144 0 0 0 11.2.08a9.13 9.13 0 0 0-2.4 0 1.145 1.145 0 0 0-.991 1.137V2.29a.98.98 0 0 1-.65.887A.966.966 0 0 1 6.1 3l-.753-.754a1.152 1.152 0 0 0-1.522-.1A10.159 10.159 0 0 0 2.148 3.82a1.15 1.15 0 0 0 .1 1.522l.752.76a.979.979 0 0 1 .167 1.09.97.97 0 0 1-.878.626H1.216A1.145 1.145 0 0 0 .079 8.8a9.1 9.1 0 0 0 0 2.393 1.145 1.145 0 0 0 1.137.991h1.073a.98.98 0 0 1 .887.65A.97.97 0 0 1 3 13.905l-.751.752a1.149 1.149 0 0 0-.1 1.523c.49.62 1.05 1.18 1.671 1.671a1.148 1.148 0 0 0 1.52-.1L6.1 17a.98.98 0 0 1 1.09-.167.97.97 0 0 1 .627.878v1.073a1.145 1.145 0 0 0 .983 1.137 9.103 9.103 0 0 0 2.393 0 1.144 1.144 0 0 0 .99-1.137v-1.073a.98.98 0 0 1 .65-.887.968.968 0 0 1 1.073.176l.753.753a1.148 1.148 0 0 0 1.522.1c.62-.49 1.18-1.05 1.67-1.671a1.149 1.149 0 0 0-.1-1.521L17 13.905a1.04 1.04 0 0 1 .71-1.717h1.074a1.146 1.146 0 0 0 1.137-.992 9.096 9.096 0 0 0 0-2.392V8.8ZM11.98 10a1.979 1.979 0 1 1-3.958 0 1.979 1.979 0 0 1 3.958 0Z"/></svg>