<svg xmlns="http://www.w3.org/2000/svg" viewBox="0 0 20 20" fill="currentColor"><path d="M17.29 5.169a3.09 3.09 0 0 0-5.19-3.244L10 4.438 7.905 1.925a3.089 3.089 0 0 0-5.192 3.249A2.628 2.628 0 0 0 1 7.63v8.759A2.614 2.614 0 0 0 3.611 19h12.778A2.614 2.614 0 0 0 19 16.389V7.608a2.605 2.605 0 0 0-1.71-2.439ZM4.434 3.906a1.069 1.069 0 0 1 .722-1.03c.129-.045.264-.068.4-.068a1.034 1.034 0 0 1 .817.4L7.865 5H5.528a1.1 1.1 0 0 1-1.094-1.094ZM14 13h-3v3H9v-3H6v-2h3V8h2v3h3v2Zm.472-8h-2.337l1.5-1.795A1.094 1.094 0 1 1 14.472 5Z"/></svg>