<svg xmlns="http://www.w3.org/2000/svg" viewBox="0 0 20 20" fill="currentColor"><path d="M9.891 19.854c-.25 0-.494-.087-.687-.247l-5.389-4.662H2.108A1.125 1.125 0 0 1 1 13.807V6.193a1.125 1.125 0 0 1 1.108-1.138h1.707L9.19.405a1.089 1.089 0 0 1 1.168-.153A1.129 1.129 0 0 1 11 1.285v17.43a1.129 1.129 0 0 1-.643 1.033c-.145.07-.305.106-.466.106ZM2.251 13.7h2.03l5.47 4.727V1.572L4.28 6.305h-2.03V13.7ZM16.124 10A3.13 3.13 0 0 0 13 6.875v1.25a1.875 1.875 0 1 1 0 3.75v1.25A3.129 3.129 0 0 0 16.125 10ZM20 10a7.008 7.008 0 0 0-7-7v1.25a5.75 5.75 0 1 1 0 11.5V17a7.008 7.008 0 0 0 7-7Z"/></svg>