<svg xmlns="http://www.w3.org/2000/svg" viewBox="0 0 20 20" fill="currentColor"><path d="M17.376 3.032h-2.355L13.8 1.446A1.155 1.155 0 0 0 12.892 1h-5.74a1.17 1.17 0 0 0-.923.454L5.014 3.031H2.625A2.629 2.629 0 0 0 0 5.656v9.719A2.63 2.63 0 0 0 2.625 18h14.75A2.63 2.63 0 0 0 20 15.375V5.657a2.627 2.627 0 0 0-2.624-2.625Zm1.374 12.343a1.377 1.377 0 0 1-1.375 1.375H2.625a1.377 1.377 0 0 1-1.375-1.375V5.656a1.377 1.377 0 0 1 1.375-1.375h3L7.152 2.25l5.657-.041 1.6 2.072h2.971a1.375 1.375 0 0 1 1.37 1.376v9.718Zm-8.125-6H14v1.25h-3.375V14h-1.25v-3.375H6v-1.25h3.375V6h1.25v3.375Z"/></svg>