<svg xmlns="http://www.w3.org/2000/svg" viewBox="0 0 20 20" fill="currentColor"><path d="M14.118 16H5.882A.888.888 0 0 1 5 15.107v-.268A3.782 3.782 0 0 1 8.713 11h2.574A3.782 3.782 0 0 1 15 14.839v.268a.888.888 0 0 1-.882.893Zm-7.867-1.25h7.5a2.526 2.526 0 0 0-2.462-2.5H8.713a2.526 2.526 0 0 0-2.462 2.5ZM18 1.625v16.75A1.627 1.627 0 0 1 16.375 20H3.625A1.627 1.627 0 0 1 2 18.375v-1.459h1.25v1.459a.375.375 0 0 0 .375.375h12.75a.375.375 0 0 0 .375-.375V1.625a.375.375 0 0 0-.375-.375H3.625a.375.375 0 0 0-.375.375v2.709H2V1.625A1.627 1.627 0 0 1 3.625 0h12.75A1.627 1.627 0 0 1 18 1.625Zm-5.155 5.29a2.845 2.845 0 1 0-5.69 0 2.845 2.845 0 0 0 5.69 0Zm-1.25 0A1.6 1.6 0 1 1 10 5.32a1.6 1.6 0 0 1 1.6 1.595h-.005ZM3.722 10H1v1.25h2.722V10Zm0 4H1v1.25h2.722V14Zm0-8H1v1.25h2.722V6Z"/></svg>