<svg xmlns="http://www.w3.org/2000/svg" viewBox="0 0 20 20" fill="currentColor"><path d="M17.3 7.44c-.067 0-.131.016-.2.02a7.51 7.51 0 0 0-1.482-2.483 2.56 2.56 0 1 0-4.5-2.434 7.326 7.326 0 0 0-2.232 0 2.56 2.56 0 1 0-4.5 2.434A7.509 7.509 0 0 0 2.9 7.46c-.066 0-.13-.02-.2-.02a2.571 2.571 0 0 0 0 5.14c.067 0 .131-.014.2-.02a7.52 7.52 0 0 0 1.482 2.485c-.232.39-.356.834-.359 1.287a2.563 2.563 0 0 0 4.861 1.147c.369.061.742.095 1.116.1a7.454 7.454 0 0 0 1.116-.1 2.56 2.56 0 1 0 4.5-2.434 7.52 7.52 0 0 0 1.484-2.484c.066.005.13.02.2.02a2.571 2.571 0 0 0 0-5.141ZM9.091 15.5A.925.925 0 0 0 9 15.456a2.569 2.569 0 0 0-2.4-1.693c-.205.002-.41.03-.608.08a5.547 5.547 0 0 1-1.3-2.22 2.515 2.515 0 0 0 0-3.224 5.54 5.54 0 0 1 1.3-2.22c.199.051.403.078.608.08A2.567 2.567 0 0 0 9 4.566a.902.902 0 0 0 .089-.042 5.336 5.336 0 0 1 1.818 0c.03.016.061.03.093.042a2.567 2.567 0 0 0 2.4 1.693c.205-.002.41-.029.608-.08a5.54 5.54 0 0 1 1.3 2.22 2.515 2.515 0 0 0 0 3.225 5.547 5.547 0 0 1-1.3 2.22 2.546 2.546 0 0 0-.608-.081 2.568 2.568 0 0 0-2.4 1.693.914.914 0 0 0-.089.042 5.285 5.285 0 0 1-1.82.002Z"/></svg>