<svg xmlns="http://www.w3.org/2000/svg" viewBox="0 0 20 20" fill="currentColor"><path d="M8.308 8h-2.4a4.048 4.048 0 0 1-.5-2.006 3.916 3.916 0 0 1 .557-2.1A3.722 3.722 0 0 1 7.529 2.5 5.212 5.212 0 0 1 9.858 2a5.083 5.083 0 0 1 2.914.8c.76.5 1.369 1.2 1.756 2.024l-1.745.691a3.7 3.7 0 0 0-1.13-1.22A2.993 2.993 0 0 0 9.88 3.77a3.036 3.036 0 0 0-1.28.265 2.208 2.208 0 0 0-.928.777c-.239.363-.36.79-.349 1.225-.012.521.156 1.03.477 1.441.152.19.322.365.508.522ZM19 9.007H1v1.25h8.467l.042.017.219.077c.53.184 1.05.4 1.554.649.475.24.898.572 1.244.976.376.43.577.984.562 1.555.006.49-.137.972-.409 1.38-.273.41-.65.742-1.091.961a3.218 3.218 0 0 1-1.468.343 3.174 3.174 0 0 1-1.495-.36 3.643 3.643 0 0 1-1.167-.96 4.227 4.227 0 0 1-.72-1.32l-1.838.758c.235.668.605 1.28 1.086 1.8a5.777 5.777 0 0 0 1.844 1.353 5.336 5.336 0 0 0 2.312.514 5.2 5.2 0 0 0 2.406-.573 4.563 4.563 0 0 0 1.789-1.615 4.283 4.283 0 0 0 .672-2.373A3.72 3.72 0 0 0 14.217 11a6.283 6.283 0 0 0-.716-.743H19v-1.25Z"/></svg>