<svg xmlns="http://www.w3.org/2000/svg" viewBox="0 0 20 20" fill="currentColor"><path d="m8.442 2.442-.884-.884L8.705.411a1.129 1.129 0 0 1 1.59 0l1.06 1.061a2.601 2.601 0 0 1 .77 1.856v.913l3.634 3.634h.913a2.607 2.607 0 0 1 1.856.77l1.06 1.055a1.129 1.129 0 0 1 0 1.592l-1.146 1.146-.884-.884 1.059-1.054-.972-.972a1.37 1.37 0 0 0-.973-.4h-1.43L10.875 4.76V3.33c0-.365-.144-.714-.4-.973L9.5 1.384 8.442 2.442ZM3.824.208l15.91 15.911-.883.881-2.485-2.485-2.07 2.07a1.129 1.129 0 0 1-1.591 0l-1.06-1.06a2.6 2.6 0 0 1-.77-1.857v-.913l-.374-.375-6.56 6.562a2.04 2.04 0 0 1-2.883-2.883L7.616 9.5l-.374-.375h-.913a2.607 2.607 0 0 1-1.856-.769L3.412 7.3a1.129 1.129 0 0 1 0-1.592l2.07-2.069L2.94 1.093l.884-.885ZM9.616 11.5 8.5 10.384l-6.558 6.558a.792.792 0 0 0 0 1.117.81.81 0 0 0 1.115 0L9.616 11.5Zm5.866 2.135L6.366 4.52 4.384 6.5l.972.972a1.372 1.372 0 0 0 .973.4h1.43l4.366 4.366v1.431c0 .364.144.713.4.972l.972.972 1.985-1.978Z"/></svg>