<svg xmlns="http://www.w3.org/2000/svg" viewBox="0 0 20 20" fill="currentColor"><path d="M10 14a4 4 0 1 1 0-8 4 4 0 0 1 0 8Zm0-6.75a2.75 2.75 0 1 0 0 5.5 2.75 2.75 0 0 0 0-5.5ZM10 17a10.735 10.735 0 0 1-7.475-2.989 10.385 10.385 0 0 1-2.441-3.583 1.142 1.142 0 0 1 0-.856A10.629 10.629 0 0 1 10 3a10.631 10.631 0 0 1 9.916 6.57c.11.275.11.583 0 .858a10.536 10.536 0 0 1-2.864 3.972A10.8 10.8 0 0 1 10 17Zm0-12.75a9.387 9.387 0 0 0-8.76 5.8 9.75 9.75 0 0 0 2.151 3.06 9.6 9.6 0 0 0 12.844.34 9.285 9.285 0 0 0 2.525-3.494A9.445 9.445 0 0 0 10 4.25Z"/></svg>