<svg xmlns="http://www.w3.org/2000/svg" viewBox="0 0 20 20" fill="currentColor"><path d="M18.757 18.392a2.555 2.555 0 0 1-2.345 1.522H3.587a2.555 2.555 0 0 1-2.345-1.523 2.628 2.628 0 0 1 .411-2.842l4.292-5.5L6 9.981V4.124h1.25V10.1a1.114 1.114 0 0 1-.332.732l-4.3 5.51a1.408 1.408 0 0 0-.237 1.529 1.3 1.3 0 0 0 1.207.79h12.825a1.3 1.3 0 0 0 1.208-.79 1.392 1.392 0 0 0-.215-1.5l-4.43-5.549a1.117 1.117 0 0 1-.276-.722V4.124h1.25V10.1l4.415 5.47a2.615 2.615 0 0 1 .392 2.822ZM13.974 1H6v1.25h7.974V1Z"/></svg>