<svg xmlns="http://www.w3.org/2000/svg" viewBox="0 0 20 20" fill="currentColor"><path d="M17.81 18H2.19A2.142 2.142 0 0 1 .1 16.512a2.031 2.031 0 0 1 .8-2.3L7.6 9.47l.722 1.02-6.7 4.743a.782.782 0 0 0-.325.9.9.9 0 0 0 .9.617H17.81a.9.9 0 0 0 .9-.617.784.784 0 0 0-.324-.9l-7.5-5.315a13.932 13.932 0 0 1-2.347-2.1 4.859 4.859 0 0 1-1.246-3.225A2.654 2.654 0 0 1 10 2a2.654 2.654 0 0 1 2.707 2.592v.625h-1.25v-.625A1.4 1.4 0 0 0 10 3.25a1.4 1.4 0 0 0-1.457 1.342 3.6 3.6 0 0 0 .925 2.394c.635.717 1.35 1.36 2.132 1.914l7.505 5.315a2.032 2.032 0 0 1 .794 2.3A2.141 2.141 0 0 1 17.809 18Z"/></svg>