<svg xmlns="http://www.w3.org/2000/svg" viewBox="0 0 20 20" fill="currentColor"><path d="M8.4 10.133a1.543 1.543 0 0 1 .744 1.31c0 .268-.072.53-.211.76-.138.23-.333.422-.567.555a1.515 1.515 0 0 1-.766.2 1.48 1.48 0 0 1-.824-.239 1.64 1.64 0 0 1-.578-.667 2.192 2.192 0 0 1-.211-.987 4.862 4.862 0 0 1 1.473-3.11l1.31-1.45.794.772-1.236 1.29a4.741 4.741 0 0 0-1 1.4.936.936 0 0 1 .316-.047c.267 0 .529.073.756.213Zm4.443 0c.226.138.413.331.543.562a1.486 1.486 0 0 1-.011 1.508c-.138.23-.333.422-.566.555a1.518 1.518 0 0 1-.766.2c-.292.004-.58-.08-.824-.239a1.636 1.636 0 0 1-.579-.667 2.206 2.206 0 0 1-.21-.987 4.862 4.862 0 0 1 1.473-3.11l1.309-1.45.8.772-1.241 1.29a4.747 4.747 0 0 0-1.006 1.4.936.936 0 0 1 .316-.047c.27-.002.536.072.766.213h-.004ZM10 20a1.14 1.14 0 0 1-.3-.042C8.25 19.554 1 17.281 1 12V3.187A1.12 1.12 0 0 1 1.848 2.1L9.73.108a1.1 1.1 0 0 1 .54 0L18.154 2.1A1.12 1.12 0 0 1 19 3.187V12c0 5.281-7.25 7.554-8.7 7.956A1.104 1.104 0 0 1 10 20ZM2.25 3.283V12c0 4.468 6.989 6.53 7.786 6.751.725-.221 7.714-2.283 7.714-6.751V3.283L10 1.329 2.25 3.283Z"/></svg>