<svg xmlns="http://www.w3.org/2000/svg" viewBox="0 0 20 20" fill="currentColor"><path d="m9.847.376.021 1.25a8.48 8.48 0 0 0-1.844.233L7.731.645A9.656 9.656 0 0 1 9.847.376ZM3.931 2.529l.789.97a8.364 8.364 0 0 1 1.56-1l-.554-1.12a9.581 9.581 0 0 0-1.795 1.15Zm15.387 5.053a9.615 9.615 0 0 0-.761-1.994l-1.112.574c.285.553.508 1.136.664 1.738l1.209-.318Zm-17.489.572L.61 7.88A9.667 9.667 0 0 0 .375 10h1.25a8.4 8.4 0 0 1 .204-1.846Zm1.589-3.331-.982-.774a9.62 9.62 0 0 0-1.128 1.813l1.129.538c.267-.56.596-1.09.981-1.577ZM10.4 18.366l.059 1.249a9.644 9.644 0 0 0 2.108-.335l-.332-1.205a8.382 8.382 0 0 1-1.835.291Zm6.348-3.4 1 .743a9.52 9.52 0 0 0 1.07-1.848l-1.144-.5a8.395 8.395 0 0 1-.929 1.604l.003.001ZM15.83 2.341l-.758.993c.493.378.944.808 1.344 1.283l.957-.8a9.728 9.728 0 0 0-1.543-1.476ZM11.971.577 11.717 1.8c.607.127 1.198.32 1.763.578L14 1.243a9.567 9.567 0 0 0-2.029-.666ZM19.62 9.7l-1.25.039v.266c0 .532-.05 1.063-.15 1.586l1.228.235A9.749 9.749 0 0 0 19.625 10l-.005-.3Zm-5.665 7.689.592 1.1a9.756 9.756 0 0 0 1.753-1.214l-.819-.944a8.44 8.44 0 0 1-1.526 1.053v.005ZM1.371 11.112a.723.723 0 0 0-.5.688v4.561a.726.726 0 0 0 .3.587l.35.2 3.038-1.012a.725.725 0 0 0 .465-.471l.081-.4-2.925-3.9a.726.726 0 0 0-.809-.253Z"/></svg>