<svg xmlns="http://www.w3.org/2000/svg" viewBox="0 0 20 20" fill="currentColor"><path d="M18.474 7.513A5.36 5.36 0 0 1 20 11.248a5.258 5.258 0 0 1-4.915 5.316v-1.25a4.008 4.008 0 0 0 3.662-4.068 4.107 4.107 0 0 0-4.1-4.1 1.13 1.13 0 0 0-.155.015l-.778.07-.075-.592a5.028 5.028 0 1 0-9.856 1.885l.143.561-.547.186a3.12 3.12 0 0 0-2.128 2.949 3.038 3.038 0 0 0 2.663 3.093v1.25A4.285 4.285 0 0 1 .001 12.22 4.366 4.366 0 0 1 2.46 8.3a6.115 6.115 0 0 1-.083-1.016A6.28 6.28 0 0 1 14.776 5.9a5.36 5.36 0 0 1 3.698 1.613Z"/><path d="M9.14 16.1a.69.69 0 1 0 .768-1.147.69.69 0 0 0-.767 1.148Z"/><path fill-rule="evenodd" d="M13 12h.375a.624.624 0 0 1 .625.625v2.206A4.173 4.173 0 0 1 9.83 19H9.17A4.173 4.173 0 0 1 5 14.831v-2.206A.625.625 0 0 1 5.625 12H6v-.7A3.3 3.3 0 0 1 9.293 8h.414A3.3 3.3 0 0 1 13 11.3v.7ZM7.847 9.852A2.047 2.047 0 0 0 7.25 11.3v.7h4.5v-.7a2.047 2.047 0 0 0-2.043-2.05h-.414a2.047 2.047 0 0 0-1.446.602Zm4.046 7.043a2.923 2.923 0 0 0 .857-2.061V13.25h-6.5v1.581a2.923 2.923 0 0 0 2.92 2.919h.661a2.923 2.923 0 0 0 2.062-.855Z" clip-rule="evenodd"/></svg>