<svg xmlns="http://www.w3.org/2000/svg" viewBox="0 0 24 24" fill="currentColor"><path d="M22.975 10.194c-.54 5.868-8.745 10.736-10.384 11.653a1.23 1.23 0 0 1-1.183 0 32.945 32.945 0 0 1-1.316-.786c.096-.265.146-.544.15-.825v-3.064l3.2-3.2a1.5 1.5 0 0 0 0-2.121l-1.415-1.414a1.499 1.499 0 0 0-2.122 0l-3.17 3.171H3.68c-.45.002-.891.126-1.276.36a8.74 8.74 0 0 1-1.382-3.774 5.706 5.706 0 0 1 5.113-6.129A6.346 6.346 0 0 1 12 6.311a6.334 6.334 0 0 1 5.863-2.246c.154.022.3.053.453.084l1.534-1.534-.95-.892a.319.319 0 0 1 .173-.549l3.815-.551a.319.319 0 0 1 .36.373l-.635 3.534a.32.32 0 0 1-.534.177l-.77-.723-.972.973a5.527 5.527 0 0 1 2.64 5.237ZM8.741 16.551v3.686a1 1 0 0 1-.293.707l-2.37 2.371a.992.992 0 0 1-.854.283 1 1 0 0 1-.736-.517l-1.325-2.473-2.327-1.247A1 1 0 0 1 .6 17.772L2.974 15.4a1 1 0 0 1 .707-.293h3.674l3.612-3.607 1.414 1.414-3.64 3.637Z"/></svg>