<svg xmlns="http://www.w3.org/2000/svg" viewBox="0 0 20 20" fill="currentColor"><path d="M10.492 11.153h-.625V9.9h.625a1.348 1.348 0 1 0-1.345-1.344v.625H7.9v-.625a2.6 2.6 0 1 1 2.6 2.6l-.008-.003Zm-2.33 6.6H4.25V14.43a.626.626 0 0 0-.35-.561l-1.565-.77.9-4.346a.608.608 0 0 0 .013-.127 7.25 7.25 0 1 1 7.242 7.153h-.623v1.25h.625A8.513 8.513 0 1 0 2 8.56l-.987 4.757a.625.625 0 0 0 .336.688L3 14.819v3.556a.625.625 0 0 0 .625.625h4.537v-1.247ZM14.42 5.51a.627.627 0 0 0 0-.884 5.55 5.55 0 0 0-7.853 0l-.44.443.884.883.441-.442a4.3 4.3 0 0 1 5.611-.41L11.58 6.583l.884.884L14.42 5.51Zm0 6.862a5.522 5.522 0 0 0 1.625-3.93V7.82h-1.25v.625a4.3 4.3 0 0 1-8.6 0v-.625H4.941v.625a5.551 5.551 0 0 0 9.478 3.929Z"/></svg>