<svg xmlns="http://www.w3.org/2000/svg" viewBox="0 0 20 20" fill="currentColor"><path d="M10 13.125a.624.624 0 0 1-.442-.183l-4-4 .884-.884L10 11.616l3.558-3.558.884.884-4 4a.624.624 0 0 1-.442.183Zm.3 6.832c1.453-.4 8.7-2.68 8.7-7.957V3.187a1.122 1.122 0 0 0-.847-1.087L10.271.108a1.129 1.129 0 0 0-.542 0L1.846 2.1A1.122 1.122 0 0 0 1 3.187V12c0 5.277 7.249 7.554 8.7 7.957.098.028.199.042.3.043.101-.001.202-.016.3-.043ZM10 1.33l7.75 1.953V12c0 4.465-6.989 6.531-7.714 6.751-.8-.22-7.786-2.286-7.786-6.751V3.283L10 1.33Z"/></svg>