<svg xmlns="http://www.w3.org/2000/svg" viewBox="0 0 20 20" fill="currentColor"><path d="M17.608 3.921 10.537.134a1.141 1.141 0 0 0-1.074 0L2.39 3.921a1.089 1.089 0 0 0-.554 1.237A1.107 1.107 0 0 0 2.93 6h14.14A1.107 1.107 0 0 0 18.1 4.443a1.09 1.09 0 0 0-.493-.522Zm-14.117.83L10 1.264l6.509 3.485H3.49Zm11.884 10.174V8.25h-2.75v6.675h-1.25V8.25h-2.75v6.675h-1.25V8.25h-2.75v6.675h-1.25V8.25h-1.2V7h15.65v1.25h-1.2v6.675h-1.25Zm4.506 3.326-1.012.733-1.254-1.734H2.385L1.13 18.984.12 18.25l1.334-1.846a1.154 1.154 0 0 1 .86-.405h15.375a1.13 1.13 0 0 1 .8.33l1.393 1.92Z"/></svg>