<svg xmlns="http://www.w3.org/2000/svg" viewBox="0 0 20 20" fill="currentColor"><g clip-path="url(#a)"><path d="M7.625 14.5A6.86 6.86 0 0 1 18 8.593V1.611A1.619 1.619 0 0 0 16.375 0h-13.7A1.626 1.626 0 0 0 1.05 1.625v1.5A1.127 1.127 0 0 0 2.175 4.25h.875v14.632A1.123 1.123 0 0 0 4.175 20h6.217a6.86 6.86 0 0 1-2.767-5.5Zm-1.38-9.66h8.23v1.25h-8.23V4.84Zm0 2.848h2.472v1.25H6.246v-1.25ZM14.5 9a5.5 5.5 0 1 0 5.5 5.5A5.506 5.506 0 0 0 14.5 9Zm2.583 7.2-.885.885-1.7-1.7-1.7 1.7-.885-.885 1.7-1.7-1.7-1.7.885-.885 1.7 1.7 1.7-1.7.885.885-1.7 1.7 1.7 1.7Z"/></g><defs><clipPath id="a"><path d="M0 0H20V20H0z"/></clipPath></defs></svg>