<svg xmlns="http://www.w3.org/2000/svg" viewBox="0 0 20 20" fill="currentColor"><path fill-rule="evenodd" d="M17.836 7.66a5.475 5.475 0 0 1 2.065 2 .614.614 0 0 1 0 .63 5.465 5.465 0 0 1-2.068 2.01 4.385 4.385 0 0 1-.36.172 7.236 7.236 0 0 1 .259 4.367 1.251 1.251 0 0 1-.9.9 7.142 7.142 0 0 1-4.379-.247c-.019.04-.035.08-.051.121a1.77 1.77 0 0 1-.08.179 5.473 5.473 0 0 1-2.01 2.06.616.616 0 0 1-.628 0 5.47 5.47 0 0 1-2.01-2.06c-.033-.057-.057-.12-.082-.182-.015-.04-.03-.08-.048-.118a7.141 7.141 0 0 1-4.38.247 1.249 1.249 0 0 1-.9-.9 7.236 7.236 0 0 1 .259-4.367 4.365 4.365 0 0 1-.36-.171 5.469 5.469 0 0 1-2.062-2.015.614.614 0 0 1 0-.63 5.485 5.485 0 0 1 2.066-2c.1-.058.204-.103.309-.149l.036-.015a7.228 7.228 0 0 1-.244-4.324 1.249 1.249 0 0 1 .9-.9 7.13 7.13 0 0 1 4.345.235l.005-.012c.05-.111.099-.223.158-.33A5.488 5.488 0 0 1 9.686.1a.608.608 0 0 1 .628 0 5.483 5.483 0 0 1 2.012 2.064c.054.096.099.196.143.297l.02.045a7.141 7.141 0 0 1 4.346-.235 1.252 1.252 0 0 1 .9.9 7.235 7.235 0 0 1-.244 4.324c.117.05.233.103.345.164ZM10 1.358c-.516.363-.943.84-1.247 1.393-.032.054-.052.112-.072.17-.014.04-.028.08-.045.119.493.29.951.637 1.364 1.035.412-.398.87-.745 1.364-1.034-.017-.039-.031-.078-.045-.118a1.164 1.164 0 0 0-.072-.172A4.147 4.147 0 0 0 10 1.358ZM1.36 9.976c.364.514.84.939 1.394 1.242a3.157 3.157 0 0 0 .302.14c.286-.492.63-.947 1.024-1.357a7.264 7.264 0 0 1-1.045-1.395l-.057.025a2.997 2.997 0 0 0-.218.103 4.151 4.151 0 0 0-1.4 1.242ZM10 18.594c.517-.364.943-.84 1.249-1.393.024-.045.042-.094.06-.143.012-.036.025-.071.04-.105a7.269 7.269 0 0 1-1.348-1.026c-.408.393-.86.737-1.347 1.025.014.033.026.067.038.101.018.05.036.1.062.148.304.553.73 1.03 1.247 1.393Zm5.01-1.875a6.12 6.12 0 0 0 1.516-.193A5.962 5.962 0 0 0 13.966 10a5.962 5.962 0 0 0 2.56-6.525 6.117 6.117 0 0 0-1.515-.193A5.984 5.984 0 0 0 10 6.036a5.98 5.98 0 0 0-5.01-2.753c-.51 0-1.02.065-1.515.193A5.965 5.965 0 0 0 6.036 10a5.965 5.965 0 0 0-2.56 6.525 6.129 6.129 0 0 0 1.516.193A5.98 5.98 0 0 0 10 13.966a5.984 5.984 0 0 0 5.01 2.753Zm2.002-5.39c.078-.035.157-.07.236-.111a4.159 4.159 0 0 0 1.394-1.242 4.148 4.148 0 0 0-1.394-1.242c-.073-.04-.15-.073-.226-.106a18.06 18.06 0 0 1-.05-.022A7.223 7.223 0 0 1 15.922 10c.394.41.738.866 1.026 1.357l.064-.029ZM6.63 8.615c.188-.442.463-.842.808-1.177a3.707 3.707 0 0 1 5.125.002 3.622 3.622 0 0 1 0 5.124 3.623 3.623 0 0 1-6.224-2.552c.003-.48.102-.956.29-1.397ZM10 12.352c.625 0 1.227-.24 1.68-.672a2.375 2.375 0 1 0-3.36 0 2.434 2.434 0 0 0 1.68.672Z" clip-rule="evenodd"/></svg>