<svg xmlns="http://www.w3.org/2000/svg" viewBox="0 0 20 20" fill="currentColor"><path d="M9.612.179A.967.967 0 0 0 8.6.135a1.087 1.087 0 0 0-.582.946v3.377c0 .165-.532.555-1.017.555-.485 0-1.017-.39-1.017-.555V1.081A1.087 1.087 0 0 0 5.4.134.967.967 0 0 0 4.39.18a5.111 5.111 0 0 0-1.8 2.008 4.683 4.683 0 0 0 .455 5.223l.144.177c.266.352.575.668.921.942v9.048c0 1.37 1.525 2.395 2.887 2.395s2.887-1.025 2.887-2.395v-9.05c.346-.274.656-.59.923-.942l.142-.175a4.684 4.684 0 0 0 .456-5.223A5.088 5.088 0 0 0 9.612.179Zm.376 6.435-.147.186c-.267.357-.589.67-.954.926a.621.621 0 0 0-.249.5v9.356c0 .546-.857 1.145-1.637 1.145s-1.637-.6-1.637-1.145V8.223a.621.621 0 0 0-.252-.5 4.154 4.154 0 0 1-.95-.924l-.148-.182A3.424 3.424 0 0 1 3.685 2.8c.25-.512.608-.964 1.05-1.325v2.983c0 1.1 1.342 1.8 2.266 1.8.924 0 2.267-.7 2.267-1.8V1.474c.44.362.798.814 1.05 1.326a3.424 3.424 0 0 1-.33 3.816v-.002ZM17.375 9h-1.65V.359h-1.25V9h-1.85a.625.625 0 0 0-.625.625v7.64A2.738 2.738 0 0 0 14.735 20h.53A2.739 2.739 0 0 0 18 17.265v-7.64A.625.625 0 0 0 17.375 9Zm-.625 8.265a1.486 1.486 0 0 1-1.485 1.485h-.53a1.486 1.486 0 0 1-1.485-1.485V10.25h3.5v7.015Z"/></svg>