<svg xmlns="http://www.w3.org/2000/svg" fill="none" viewBox="0 0 24 24"><g clip-path="url(#a)"><path fill="#898989" d="m9.423 24-.74-.74 1.35-1.349a1.477 1.477 0 0 0 0-2.093 1.511 1.511 0 0 0-2.088 0l-1.104 1.11a2.523 2.523 0 0 1-3.57-3.567l2.214-2.215.74.74-2.213 2.215a1.478 1.478 0 1 0 2.093 2.088l1.105-1.106a2.523 2.523 0 1 1 3.562 3.568L9.423 24Z"/><path fill="#F1A644" d="M21.397.902a.817.817 0 0 0-.894-.898l-9.506.942 9.466 9.465.934-9.51Z"/><path fill="#408526" d="M5.057 15.453a.818.818 0 0 0 .895.895l9.506-.935-9.47-9.465-.93 9.505Z"/><path fill="#FDF8EA" d="m20.08 14.296.383-3.888L10.997.946l-3.889.382a.817.817 0 0 0-.732.732l-.388 3.888 9.465 9.465 3.89-.382a.817.817 0 0 0 .737-.735Z"/><path fill="#F2E8CE" d="m10.841 1.378 9.186 9.185-.363 3.693a.4.4 0 0 1-.358.359l-3.692.363L6.428 5.79l.362-3.694a.4.4 0 0 1 .36-.356l3.691-.363Zm.156-.432-3.889.382a.817.817 0 0 0-.732.732l-.388 3.887 9.465 9.466 3.89-.382a.817.817 0 0 0 .732-.732l.382-3.89-9.46-9.463Z"/><path fill="#000080" d="M14.995 6.409a2.5 2.5 0 1 0-3.535 3.538 2.5 2.5 0 0 0 3.535-3.538Zm-.28 3.257a2.102 2.102 0 1 1-2.97-2.976 2.102 2.102 0 0 1 2.97 2.976Zm-1.123-1.433 1.271.341-.035.129-1.287-.346c-.012.021-.011.046-.028.065l.936.936-.094.094-.957-.957a.338.338 0 0 1-.05.02L13.7 9.83l-.13.034-.348-1.301c-.02 0-.034-.02-.053-.022l-.355 1.323-.129-.034.36-1.34c-.012-.007-.027-.007-.037-.015l-.979.977-.093-.094.985-.982c-.006-.01-.008-.022-.014-.032l-1.35.362-.034-.129 1.333-.358c0-.015-.012-.029-.012-.045l-1.321-.358.034-.128 1.338.359c0-.014.01-.027.016-.04l-.975-.974.093-.094.954.954c.015-.014.036-.013.054-.023l-.352-1.31.13-.034.346 1.291c.025 0 .045-.025.07-.025l.34-1.266.129.035-.344 1.284a.325.325 0 0 1 .066.027l.933-.933.094.094-.926.925a.352.352 0 0 1 .029.07l1.275-.341.035.128-1.256.338a.342.342 0 0 1-.014.08Z"/><path fill="black" fill-opacity=".04" d="m20.08 14.296.383-3.888.934-9.506a.815.815 0 0 0-.235-.658L5.293 16.112a.819.819 0 0 0 .66.236l9.505-.935 3.889-.382a.817.817 0 0 0 .733-.735Z"/></g><defs><clipPath id="a"><path fill="white" d="M0 0H24V24H0z"/></clipPath></defs></svg>