<svg xmlns="http://www.w3.org/2000/svg" viewBox="0 0 24 24" fill="currentColor"><path d="M10.88 8.885c0 1.042-1.96 1.886-4.38 1.886s-4.382-.844-4.382-1.886C2.118 7.843 4.08 7 6.5 7s4.381.844 4.381 1.885ZM2 11.026v.513C2 12.942 3.933 14 6.5 14c2.564 0 4.5-1.058 4.5-2.461v-.513a7.765 7.765 0 0 1-4.5 1.2 7.766 7.766 0 0 1-4.5-1.2Zm3.418 5.982V23H3.58a2.04 2.04 0 0 1-2.023-1.729l-.337-2.143a1.836 1.836 0 0 1 1.813-2.12h2.386ZM22.91 2.215a1.776 1.776 0 0 0-3.21-.354l-8.786 14.655a1.02 1.02 0 0 1-.868.492H7V23h4.021a2.265 2.265 0 0 0 1.992-1.186l9.772-18.2a1.775 1.775 0 0 0 .125-1.399Z"/></svg>