<svg xmlns="http://www.w3.org/2000/svg" viewBox="0 0 20 20" fill="currentColor"><path d="M18.386.88a1.162 1.162 0 0 0-1.213.088L10 6.107 2.827.967a1.164 1.164 0 0 0-1.662.326c-.108.176-.165.38-.165.587v11a.626.626 0 0 0 .261.508l8.061 5.775a1.169 1.169 0 0 0 1.357 0l8.06-5.775a.626.626 0 0 0 .261-.512v-11a1.118 1.118 0 0 0-.614-.996Zm-.636 11.677-7.7 5.586-7.8-5.588V8.21l7.392 5.178a.626.626 0 0 0 .738-.015l5.73-4.38L15.352 8l-5.368 4.1L2.25 6.684V2.092l7.386 5.292a.625.625 0 0 0 .728 0l7.386-5.346v10.519Z"/></svg>