<svg xmlns="http://www.w3.org/2000/svg" viewBox="0 0 20 20" fill="currentColor"><path d="M4.5 10a4.5 4.5 0 1 0 0 9 4.5 4.5 0 0 0 0-9Zm.821 3.375h-.75a1.2 1.2 0 0 0-1.2 1.2v.75h-1.5v-.75a2.7 2.7 0 0 1 2.7-2.695h.75v1.495ZM15.5 10a4.5 4.5 0 1 0 0 9 4.5 4.5 0 0 0 0-9Zm.821 3.375h-.75a1.2 1.2 0 0 0-1.2 1.2v.75h-1.5v-.75a2.7 2.7 0 0 1 2.7-2.695h.75v1.495ZM11 9.6H9v1.336a5.722 5.722 0 0 0-7.911-1.054L2.824 3.32A3.178 3.178 0 0 1 5.851 1 3.183 3.183 0 0 1 9 4.208V6h2V4.208a3.143 3.143 0 0 1 6.172-.9l1.739 6.573A5.722 5.722 0 0 0 11 10.931V9.6Z"/></svg>