<svg xmlns="http://www.w3.org/2000/svg" viewBox="0 0 20 20" fill="currentColor"><path d="M9.822 6.579c.06 0 .12.006.179.006a2.6 2.6 0 0 0 1.792-.709 2.633 2.633 0 0 0 .83-1.916A4.155 4.155 0 0 0 10.617.6a1.131 1.131 0 0 0-1.237 0 4.342 4.342 0 0 0-1.927 2.616 2.921 2.921 0 0 0 .514 2.341 2.515 2.515 0 0 0 1.856 1.022ZM8.675 3.48a3.122 3.122 0 0 1 1.324-1.79 2.9 2.9 0 0 1 1.375 2.27 1.375 1.375 0 0 1-1.475 1.372 1.28 1.28 0 0 1-.94-.527 1.65 1.65 0 0 1-.284-1.325ZM6.16 16.96c-.055 0-.108-.01-.162-.013V9.625A1.693 1.693 0 0 1 7.749 8h4.5a1.693 1.693 0 0 1 1.75 1.625v7.322c-.054 0-.107.013-.162.013h-1.088V9.625c0-.2-.23-.375-.5-.375h-4.5c-.271 0-.5.172-.5.375v7.335H6.16Zm13.009-.97-.206.59A5.2 5.2 0 0 1 14.017 20H5.98a5.2 5.2 0 0 1-4.947-3.42l-.206-.59 1.18-.411.206.59a3.95 3.95 0 0 0 3.767 2.58h8.036a3.95 3.95 0 0 0 3.767-2.58l.206-.59 1.18.412Z"/></svg>