<svg xmlns="http://www.w3.org/2000/svg" viewBox="0 0 20 20" fill="currentColor"><path d="M10 19.99a4.6 4.6 0 0 1-3.27-1.354l-5.366-5.365a4.627 4.627 0 0 1 0-6.542L6.73 1.364a4.627 4.627 0 0 1 6.542 0l5.365 5.364a4.627 4.627 0 0 1 0 6.542l-5.364 5.365A4.601 4.601 0 0 1 10 19.99Zm0-18.73a3.353 3.353 0 0 0-2.386.988L2.25 7.614a3.374 3.374 0 0 0 0 4.772l5.366 5.366a3.46 3.46 0 0 0 4.772 0l5.365-5.366a3.374 3.374 0 0 0 0-4.772L12.386 2.25A3.35 3.35 0 0 0 10 1.26Zm1.511 4.381c.407.188.754.487 1 .861.24.375.365.813.358 1.258.007.293-.05.584-.167.853-.1.229-.238.44-.407.623a8.035 8.035 0 0 1-.636.588 8.14 8.14 0 0 0-.533.482 1.735 1.735 0 0 0-.328.465 1.319 1.319 0 0 0-.13.59v.78h-1.44v-.758a2.22 2.22 0 0 1 .601-1.572c.204-.21.42-.406.65-.588.208-.174.373-.318.492-.432a1.5 1.5 0 0 0 .3-.4c.081-.157.122-.332.12-.509a1.1 1.1 0 0 0-.178-.619 1.183 1.183 0 0 0-.485-.42 1.511 1.511 0 0 0-.677-.15 1.548 1.548 0 0 0-.722.166c-.21.106-.386.267-.512.465-.128.2-.197.43-.2.667h-1.46a2.62 2.62 0 0 1 1.38-2.29 3.143 3.143 0 0 1 1.538-.367c.496-.008.987.097 1.436.307Zm-2.163 9.843a1.077 1.077 0 0 1-.387-.386 1.034 1.034 0 0 1-.144-.537 1.02 1.02 0 0 1 .144-.53c.094-.16.227-.293.387-.386.16-.095.343-.144.53-.143a1.062 1.062 0 0 1 .925 1.596c-.095.16-.229.292-.389.386a1.035 1.035 0 0 1-.537.143 1.015 1.015 0 0 1-.529-.143Z"/></svg>