<svg xmlns="http://www.w3.org/2000/svg" viewBox="0 0 20 20" fill="currentColor"><path d="M3.626 4.5h-1.25A2.629 2.629 0 0 1 5 1.875h8v1.25H5A1.377 1.377 0 0 0 3.626 4.5Z"/><path d="M19.294 7.206a1.116 1.116 0 0 0-.793-.328h-.009l-1.9.014a2.62 2.62 0 0 0-1.426.434l-1.54 1.013V7A1.127 1.127 0 0 0 12.5 5.875h-11A1.127 1.127 0 0 0 .376 7v3.494a8.3 8.3 0 0 1 1.25.219V7.125h10.75v3.536l3.475-2.291a1.37 1.37 0 0 1 .746-.227l1.778-.013v7.74l-1.775-.013a1.365 1.365 0 0 1-.747-.227l-3.475-2.291v3.536H7.805c.106.41.18.828.223 1.25H12.5A1.127 1.127 0 0 0 13.626 17v-1.339l1.536 1.013c.423.28.919.43 1.426.433l1.9.014a1.026 1.026 0 0 0 .8-.327 1.115 1.115 0 0 0 .332-.8V8a1.114 1.114 0 0 0-.326-.794Z"/><path d="M.374 11.877v1.275a5.856 5.856 0 0 1 5.007 4.973h1.263a7.12 7.12 0 0 0-6.27-6.248Z"/><path d="M.374 14.541v1.29a3.22 3.22 0 0 1 2.311 2.294h1.286a4.481 4.481 0 0 0-3.597-3.584Z"/></svg>