<svg xmlns="http://www.w3.org/2000/svg" viewBox="0 0 20 20" fill="currentColor"><path d="M8.625 16.1A.625.625 0 0 1 8 15.479V7.521A.626.626 0 0 1 8.964 7l6.168 3.98a.626.626 0 0 1 0 1.05l-6.168 3.98a.628.628 0 0 1-.339.09Zm.625-7.432v5.664l4.391-2.832L9.25 8.668ZM17.375 19H5.625A1.627 1.627 0 0 1 4 17.375V5.625A1.627 1.627 0 0 1 5.625 4h11.75A1.627 1.627 0 0 1 19 5.625v11.75A1.627 1.627 0 0 1 17.375 19ZM5.625 5.25a.375.375 0 0 0-.375.375v11.75a.375.375 0 0 0 .375.375h11.75a.375.375 0 0 0 .375-.375V5.625a.375.375 0 0 0-.375-.375H5.625Zm-3 9.5a.375.375 0 0 1-.375-.375V2.624a.375.375 0 0 1 .375-.374h11.75a.375.375 0 0 1 .375.374H16A1.627 1.627 0 0 0 14.375 1H2.625A1.627 1.627 0 0 0 1 2.624v11.751A1.627 1.627 0 0 0 2.625 16v-1.25Z"/></svg>