<svg xmlns="http://www.w3.org/2000/svg" viewBox="0 0 20 20" fill="currentColor"><path d="M12.375 7.935h-8.75A1.627 1.627 0 0 0 2 9.56v8.75a1.627 1.627 0 0 0 1.625 1.625h8.75A1.627 1.627 0 0 0 14 18.31V9.56a1.627 1.627 0 0 0-1.625-1.625Zm.375 10.375a.375.375 0 0 1-.375.375h-8.75a.375.375 0 0 1-.375-.375V9.56a.375.375 0 0 1 .375-.375h8.75a.375.375 0 0 1 .375.375v8.75ZM19 8.356v3.5h-1.25v-3.5a4.175 4.175 0 0 0-4.17-4.171H9.42v1.661a.6.6 0 0 1-.984.461L5.513 3.872l-.036-.312a.6.6 0 0 1 .215-.46L8.436.813a.6.6 0 0 1 .984.461v1.661h4.16A5.427 5.427 0 0 1 19 8.356Z"/></svg>