<svg xmlns="http://www.w3.org/2000/svg" viewBox="0 0 20 20" fill="currentColor"><path d="M19.933 7.681a1.139 1.139 0 0 1-.334.807l-.666.665a2.126 2.126 0 0 1-2.433.374l-2.03 2.03-.883-.883 2.846-2.847.442.443a.851.851 0 0 0 1.174 0l.588-.587-6.32-6.32-.587.588a.831.831 0 0 0 0 1.174l.442.442-2.845 2.846-.884-.884 2.03-2.03a2.087 2.087 0 0 1 .373-2.434L11.512.4a1.143 1.143 0 0 1 1.613 0l6.475 6.476a1.138 1.138 0 0 1 .334.805ZM2.486 1.6l15.913 15.913-.883.884-4.67-4.67a2.06 2.06 0 0 1-.51 2.025l-.665.666a1.129 1.129 0 0 1-1.237.247 1.134 1.134 0 0 1-.37-.247l-2.8-2.8-5.818 5.82-.884-.884 5.819-5.82-2.798-2.791a1.141 1.141 0 0 1 0-1.613l.665-.664a2.112 2.112 0 0 1 2.028-.506L1.6 2.487l.886-.887Zm8.521 11.65.681-.68-4.261-4.258-.68.68-.442-.442a.849.849 0 0 0-1.174 0l-.587.587 6.319 6.317.587-.587a.832.832 0 0 0 0-1.174l-.442-.443Z"/></svg>