<svg xmlns="http://www.w3.org/2000/svg" viewBox="0 0 20 20" fill="currentColor"><path d="M18.74 6.914a3.901 3.901 0 0 0-2.466-1.964 22.274 22.274 0 0 0-5.775-.884l.883-2.694 2.457.522a1.494 1.494 0 1 0 .2-1.234L11.533.127a1.116 1.116 0 0 0-1.316.8l-1.01 3.07.218.07c-1.957.04-3.9.337-5.779.885A3.9 3.9 0 0 0 1.18 6.914a11.564 11.564 0 0 0 0 10.178 3.9 3.9 0 0 0 2.466 1.964c2.05.604 4.177.91 6.314.907a22.229 22.229 0 0 0 6.314-.907 3.9 3.9 0 0 0 2.466-1.964 11.565 11.565 0 0 0 0-10.178Zm-5 5.127-5.88 3.795a.351.351 0 0 1-.54-.294V7.95a.35.35 0 0 1 .54-.294l5.883 3.8a.351.351 0 0 1 0 .59l-.003-.005Z"/></svg>