<svg xmlns="http://www.w3.org/2000/svg" viewBox="0 0 20 20" fill="currentColor"><path d="m8.94 7.118 3.942 3.942-8.458 8.457a1.65 1.65 0 0 1-2.334 0l-1.607-1.61a1.652 1.652 0 0 1 0-2.333L8.94 7.118Zm8.253-2.703-1.608-1.61a1.65 1.65 0 0 0-2.334 0l-2.875 2.877 3.942 3.942 2.877-2.878a1.652 1.652 0 0 0 0-2.331h-.002ZM7.951.507V0H6.682v.507a1.397 1.397 0 0 1-1.395 1.395H4.78v1.269h.507a1.397 1.397 0 0 1 1.395 1.395v.507h1.269v-.507a1.397 1.397 0 0 1 1.395-1.395h.507V1.902h-.507A1.397 1.397 0 0 1 7.95.507Zm11.745.38a.585.585 0 0 1-.584-.583V0h-1.268v.304a.584.584 0 0 1-.584.584h-.304v1.268h.304a.584.584 0 0 1 .584.584v.304h1.268V2.74a.584.584 0 0 1 .584-.584H20V.888h-.304Zm-1.599 9.564v-.304H16.83v.304a.584.584 0 0 1-.583.583h-.305v1.269h.305a.585.585 0 0 1 .583.583v.305h1.268v-.305a.584.584 0 0 1 .584-.583h.304v-1.269h-.304a.584.584 0 0 1-.584-.583Z"/></svg>