<svg xmlns="http://www.w3.org/2000/svg" viewBox="0 0 20 20" fill="currentColor"><path d="M16.95 6.984v-1.87A1.121 1.121 0 0 0 15.825 4h-2.7A1.121 1.121 0 0 0 12 5.114V7H8V2.325h1.125v-1.25h-8A1.127 1.127 0 0 0 0 2.2v5.3h.025A.589.589 0 0 0 0 7.625v7.75A.625.625 0 0 0 .625 16h1.426a3.487 3.487 0 0 0 6.886.125h3.076A2.995 2.995 0 0 0 18 16h1.325a.625.625 0 0 0 .625-.625V10.49a3.584 3.584 0 0 0-3-3.505ZM6.75 2.325V7h-5.5V2.325h5.5ZM5.5 17.75a2.25 2.25 0 1 1 2.151-2.875H5.625v1.25h2.026A2.247 2.247 0 0 1 5.5 17.75Zm9.5 0a1.75 1.75 0 1 1 0-3.499 1.75 1.75 0 0 1 0 3.5Zm3.7-3h-.981a2.99 2.99 0 0 0-5.5.125H8.937a3.494 3.494 0 0 0-6.852-.125H1.25v-6.5h10.875a1.17 1.17 0 0 0 1.125-1.182V5.25h2.45v2.307a.625.625 0 0 0 .625.625A2.344 2.344 0 0 1 18.7 10.49v4.261Z"/></svg>