<svg xmlns="http://www.w3.org/2000/svg" viewBox="0 0 20 20" fill="currentColor"><path d="M6.75 8.5A3.254 3.254 0 0 0 10 11.75a3.213 3.213 0 0 0 1.7-.492L7.242 6.8c-.32.51-.49 1.098-.492 1.7Z"/><path d="M10 5.25a3.213 3.213 0 0 0-1.7.492l4.458 4.458c.32-.51.49-1.098.492-1.7A3.254 3.254 0 0 0 10 5.25Z"/><path d="M16.377 1H3.623A2.626 2.626 0 0 0 1 3.623v9.8A2.581 2.581 0 0 0 3.578 16h3.434v2.664a1.119 1.119 0 0 0 1.113 1.118c.288-.004.565-.115.776-.311L12.331 16h4.046A2.626 2.626 0 0 0 19 13.377V3.623A2.626 2.626 0 0 0 16.377 1ZM10 13.25a4.75 4.75 0 1 1 4.75-4.75A4.756 4.756 0 0 1 10 13.25Z"/></svg>