<svg xmlns="http://www.w3.org/2000/svg" viewBox="0 0 20 20" fill="currentColor"><path d="M16 10.011v-.445A10.264 10.264 0 0 0 10.273.221L10 .087l-.273.134A10.263 10.263 0 0 0 4 9.566v.445a3.727 3.727 0 0 0-3 3.7v3.141A1.14 1.14 0 0 0 2.125 18h15.75A1.14 1.14 0 0 0 19 16.852v-3.141a3.727 3.727 0 0 0-3-3.7ZM2.25 16.75v-3.039A2.493 2.493 0 0 1 4 11.3v5.45H2.25Zm12.5 0h-9.5V9.566A9.037 9.037 0 0 1 10 1.483a9.037 9.037 0 0 1 4.75 8.083v7.184Zm3 0H16V11.3a2.493 2.493 0 0 1 1.75 2.416v3.034ZM7 18.75h6V20H7v-1.25ZM7 8a3 3 0 1 0 6 0 3 3 0 0 0-6 0Zm4.75 0a1.75 1.75 0 1 1-3.5 0 1.75 1.75 0 0 1 3.5 0Z"/></svg>