<svg xmlns="http://www.w3.org/2000/svg" viewBox="0 0 20 20" fill="currentColor"><path d="M1.067 3.388.183 2.5l2-2a.625.625 0 0 1 .884 0l2 2-.884.884-.933-.929v3.991H2V2.455l-.933.933ZM19 10.223v3.023A6.674 6.674 0 0 1 12.456 20H9.825a6.658 6.658 0 0 1-5.606-3.3L1.31 11.884a2.164 2.164 0 0 1 .725-2.965 2.124 2.124 0 0 1 2.812.552L6 11.016v-8.77A2.01 2.01 0 0 1 7.98.121a2.258 2.258 0 0 1 2.27 2.125V6.2c.223-.084.46-.127.7-.126a2.114 2.114 0 0 1 1.95 1.312 2.085 2.085 0 0 1 1.02-.265 2.113 2.113 0 0 1 1.926 1.256A2.078 2.078 0 0 1 16.89 8.1 2.12 2.12 0 0 1 19 10.223Zm-1.25 0a.86.86 0 1 0-1.72 0h-1.25v-.977a.86.86 0 1 0-1.72 0h-1.25v-1a.88.88 0 0 0-.86-.92c-.516 0-.7.471-.7.875H9V2.246a1.02 1.02 0 0 0-1.02-.875c-.5 0-.73.439-.73.875v10.183a.72.72 0 0 1-.518.677.816.816 0 0 1-.914-.244l-1.972-2.644a.876.876 0 0 0-1.162-.23.912.912 0 0 0-.3 1.25l2.906 4.817a5.32 5.32 0 0 0 4.55 2.7h2.614a5.488 5.488 0 0 0 5.3-5.5l-.004-3.032Z"/></svg>