<svg xmlns="http://www.w3.org/2000/svg" viewBox="0 0 20 20" fill="currentColor"><path d="M19.914 10.349a10.405 10.405 0 0 1-2.862 3.923c-.024.02-.05.038-.075.058l-3.2-3.164c.142-.4.218-.82.223-1.244a3.932 3.932 0 0 0-1.172-2.797A4.024 4.024 0 0 0 10 5.967c-.428.005-.853.079-1.257.22L6.2 3.672A11.038 11.038 0 0 1 10 3c2.12-.018 4.196.591 5.963 1.749a10.536 10.536 0 0 1 3.952 4.748c.114.273.113.58 0 .852ZM3.724 3.542l12.728 12.584-.885.874-1.13-1.117a10.918 10.918 0 0 1-4.437.96 10.798 10.798 0 0 1-7.476-2.956 10.264 10.264 0 0 1-2.44-3.542 1.117 1.117 0 0 1 0-.847 10.35 10.35 0 0 1 3.453-4.392l-.7-.692.887-.872Zm8.176 9.832L6.508 8.043A3.823 3.823 0 0 0 6 9.922c0 1.048.421 2.054 1.171 2.796A4.024 4.024 0 0 0 10 13.877a3.936 3.936 0 0 0 1.9-.503Z"/></svg>