<svg xmlns="http://www.w3.org/2000/svg" viewBox="0 0 20 20" fill="currentColor"><path d="M12.761 19.919A11.9 11.9 0 0 0 17.625 10 11.901 11.901 0 0 0 12.761.081C16.833.682 20 4.9 20 10c0 5.1-3.167 9.318-7.239 9.919ZM16.25 10c0 5.514-3.645 10-8.125 10S0 15.514 0 10 3.645 0 8.125 0s8.125 4.486 8.125 10Zm-5.613 4.129L10 12.245c-.18.249-.43.44-.717.548-.3.122-.619.185-.942.186-.45.004-.89-.133-1.257-.393A2.65 2.65 0 0 1 6.2 11.5a3.591 3.591 0 0 1-.319-1.53 3.4 3.4 0 0 1 .335-1.53 2.63 2.63 0 0 1 .9-1.049 2.166 2.166 0 0 1 1.224-.374c.309.002.614.064.9.181.296.115.553.312.74.568l.639-1.885a3.967 3.967 0 0 0-1.128-.6 3.615 3.615 0 0 0-3.225.428 4.423 4.423 0 0 0-1.514 1.76A5.582 5.582 0 0 0 4.188 10c-.012.872.18 1.735.564 2.519.34.71.86 1.32 1.511 1.764a3.635 3.635 0 0 0 2.065.634c.415 0 .827-.07 1.219-.207.392-.134.76-.33 1.09-.581Z"/></svg>