<svg xmlns="http://www.w3.org/2000/svg" viewBox="0 0 20 20" fill="currentColor"><path d="M11.66 14H8.34a1.126 1.126 0 0 1-.974-.562l-1.8-3.125a.623.623 0 0 1 0-.625l1.8-3.125A1.125 1.125 0 0 1 8.34 6h3.32a1.125 1.125 0 0 1 .974.563l1.8 3.125a.623.623 0 0 1 0 .625l-1.8 3.125a1.127 1.127 0 0 1-.974.562Zm-3.247-1.25h3.174L13.175 10l-1.588-2.75H8.413L6.825 10l1.588 2.75Zm-3.93-4.312 1.443-2.5a1.13 1.13 0 0 0 0-1.125l-1.9-3.292-1.083.625 1.864 3.229-1.37 2.375H.4V9h3.1a1.126 1.126 0 0 0 .982-.562Zm1.443 6.75a1.13 1.13 0 0 0 0-1.125l-1.444-2.5A1.125 1.125 0 0 0 3.508 11H.4v1.25h3.036l1.371 2.375-1.864 3.229 1.083.625 1.9-3.291ZM19.6 7.75h-3.036l-1.37-2.375 1.863-3.229-1.083-.625-1.9 3.292a1.13 1.13 0 0 0 0 1.125l1.444 2.5a1.126 1.126 0 0 0 .974.562h3.1l.008-1.25Zm-2.539 10.1-1.864-3.229 1.371-2.375H19.6V11h-3.1a1.125 1.125 0 0 0-.974.563l-1.444 2.5a1.13 1.13 0 0 0 0 1.125l1.9 3.291 1.08-.629Z"/></svg>