<svg xmlns="http://www.w3.org/2000/svg" viewBox="0 0 20 20" fill="currentColor"><path d="M18.875 2H1.125A1.127 1.127 0 0 0 0 3.125v12.25A2.63 2.63 0 0 0 2.625 18h14.75A2.63 2.63 0 0 0 20 15.375V3.125A1.127 1.127 0 0 0 18.875 2ZM11.08 6.24a.988.988 0 0 1 .21-.32 1.021 1.021 0 0 1 1.09-.22c.121.054.233.129.33.22.181.189.285.438.29.7 0 .266-.104.52-.29.71a1.19 1.19 0 0 1-.33.22 1 1 0 0 1-.38.08 1.007 1.007 0 0 1-1-1.01c.002-.13.029-.26.08-.38Zm.21 2.68a1 1 0 0 1 1.69.9.697.697 0 0 1-.06.19.557.557 0 0 1-.09.17 1.001 1.001 0 1 1-1.54-1.26ZM7.08 6.24a.988.988 0 0 1 .21-.32 1.037 1.037 0 0 1 1.42 0 1.036 1.036 0 0 1 .29.7 1.23 1.23 0 0 1-.02.2.7.7 0 0 1-.06.19.556.556 0 0 1-.09.17c-.04.05-.08.11-.12.15a.99.99 0 0 1-1.54-.15.556.556 0 0 1-.09-.17.7.7 0 0 1-.06-.19 1.23 1.23 0 0 1-.02-.2c.002-.13.03-.26.08-.38Zm.21 2.68a1.037 1.037 0 0 1 1.42 0A1.005 1.005 0 0 1 8 10.63a1.001 1.001 0 0 1-.38-.08 1.19 1.19 0 0 1-.33-.22 1 1 0 0 1 0-1.41Zm-2.31.9a.7.7 0 0 1-.06.19.556.556 0 0 1-.09.17.88.88 0 0 1-.12.15c-.047.046-.098.09-.15.13l-.18.09-.18.06a1.355 1.355 0 0 1-.2.02 1.017 1.017 0 0 1-.71-.3.88.88 0 0 1-.12-.15.556.556 0 0 1-.09-.17.7.7 0 0 1-.06-.19 1.014 1.014 0 0 1 .27-.9 1.052 1.052 0 0 1 .91-.28l.18.06.18.09c.052.04.103.084.15.13a1.014 1.014 0 0 1 .27.9Zm0-3a.7.7 0 0 1-.06.19.556.556 0 0 1-.09.17c-.04.05-.08.11-.12.15-.047.046-.098.09-.15.13l-.18.09-.18.06a1.5 1.5 0 0 1-.2.02 1 1 0 0 1-.38-.08 1.19 1.19 0 0 1-.33-.22A1.014 1.014 0 0 1 3 6.62c.005-.262.109-.511.29-.7a1.19 1.19 0 0 1 .33-.22 1.021 1.021 0 0 1 1.09.22c.09.092.162.2.21.32a.867.867 0 0 1 .08.38 1.23 1.23 0 0 1-.02.2Zm9.77 7.68h-9.5V13h9.5v1.5Zm1.96-4.17c-.047.046-.098.09-.15.13l-.18.09-.18.06a1.507 1.507 0 0 1-.2.02 1.001 1.001 0 0 1-.38-.08 1.19 1.19 0 0 1-.33-.22 1 1 0 0 1 .33-1.63c.184-.075.385-.096.58-.06l.18.06.18.09c.052.04.103.084.15.13a1 1 0 0 1 0 1.41Zm.27-3.51a.697.697 0 0 1-.06.19.557.557 0 0 1-.09.17 1.017 1.017 0 0 1-.83.45 1 1 0 0 1-.38-.08 1.19 1.19 0 0 1-.33-.22 1.014 1.014 0 0 1-.29-.71 1.04 1.04 0 0 1 .29-.7 1.19 1.19 0 0 1 .33-.22 1.021 1.021 0 0 1 1.09.22 1.036 1.036 0 0 1 .29.7 1.231 1.231 0 0 1-.02.2Z"/></svg>