<svg xmlns="http://www.w3.org/2000/svg" viewBox="0 0 20 20" fill="currentColor"><path d="M4.886 13.444a6.888 6.888 0 0 1-1.485-.644l-2.253.562a.617.617 0 0 1-.595-.162.625.625 0 0 1-.165-.593l.564-2.253a6.902 6.902 0 0 1-.75-5.153A6.8 6.8 0 0 1 5.338.169a6.913 6.913 0 0 1 6.398 1.847c.8.8 1.387 1.788 1.71 2.873a8.53 8.53 0 0 0-1.299.056A5.586 5.586 0 0 0 10.851 2.9 5.67 5.67 0 0 0 5.6 1.39a5.537 5.537 0 0 0-4.186 4.1 5.655 5.655 0 0 0 .73 4.42.624.624 0 0 1 .08.49l-.375 1.5 1.5-.375a.626.626 0 0 1 .489.082c.345.222.714.405 1.1.546-.052.429-.069.86-.052 1.291Zm9.91 6.356a6.797 6.797 0 0 0 5.033-5.136 6.892 6.892 0 0 0-4.806-8.146 6.884 6.884 0 0 0-3.436-.098 6.797 6.797 0 0 0-5.136 5.03 6.902 6.902 0 0 0 .748 5.15l-.564 2.252a.625.625 0 0 0 .758.758l2.252-.563a6.82 6.82 0 0 0 3.478.953 7.15 7.15 0 0 0 1.673-.2Zm-5.198-2.026-1.5.374.375-1.5a.624.624 0 0 0-.08-.489 5.653 5.653 0 0 1-.729-4.42 5.541 5.541 0 0 1 4.186-4.1 5.635 5.635 0 0 1 6.756 6.761 5.543 5.543 0 0 1-4.098 4.187 5.644 5.644 0 0 1-4.418-.729.648.648 0 0 0-.492-.084Z"/></svg>