<svg xmlns="http://www.w3.org/2000/svg" viewBox="0 0 20 20" fill="currentColor"><path d="m2.263 9.465-1.936.5A9.925 9.925 0 0 1 2.929.4l1.414 1.416a7.922 7.922 0 0 0-2.08 7.649ZM17.071.4l-1.414 1.416a7.921 7.921 0 0 1 2.08 7.649l1.936.5A9.925 9.925 0 0 0 17.071.4ZM9 18H8a2 2 0 0 0 4 0H9Zm8.263-7.07a2.7 2.7 0 0 1-1.189-2.23l-.005-1.61a6.07 6.07 0 0 0-12.138 0v1.613a2.7 2.7 0 0 1-1.193 2.227A3.949 3.949 0 0 0 1 14.208v.672A1.119 1.119 0 0 0 2.117 16h15.766A1.119 1.119 0 0 0 19 14.88v-.672a3.952 3.952 0 0 0-1.737-3.278Z"/></svg>