<svg xmlns="http://www.w3.org/2000/svg" viewBox="0 0 20 20" fill="currentColor"><path d="M17.375 5h-.622a2.716 2.716 0 0 0-4.37-3.21L10 4.649 7.617 1.79A2.716 2.716 0 0 0 3.247 5h-.62A1.629 1.629 0 0 0 1 6.627v10.746A1.63 1.63 0 0 0 2.627 19h14.746A1.629 1.629 0 0 0 19 17.373V6.625A1.627 1.627 0 0 0 17.375 5Zm-4.032-2.41a1.47 1.47 0 1 1 2.168 1.98 1.47 1.47 0 0 1-1.039.43h-3.138l2.009-2.41Zm-9.284.941a1.441 1.441 0 0 1 .969-1.382c.167-.06.342-.09.519-.091a1.416 1.416 0 0 1 1.11.532L8.666 5H5.528a1.471 1.471 0 0 1-1.469-1.469ZM17.75 17.373a.377.377 0 0 1-.377.377H2.627a.377.377 0 0 1-.377-.377V6.627a.377.377 0 0 1 .377-.377h14.748a.375.375 0 0 1 .375.375v10.748Zm-7.125-6H14v1.25h-3.375V16h-1.25v-3.375H6v-1.25h3.375V8h1.25v3.373Z"/></svg>