<svg xmlns="http://www.w3.org/2000/svg" viewBox="0 0 20 20" fill="currentColor"><path d="M11.611 19.871a10.009 10.009 0 0 0 8.123-7.589A9.997 9.997 0 0 0 12.274.264c-1.28-.3-2.606-.345-3.903-.132A10.047 10.047 0 0 0 .124 8.443a9.878 9.878 0 0 0 1.195 6.49L.085 19.012a.727.727 0 0 0 .178.721.718.718 0 0 0 .721.19l4.169-1.193A9.86 9.86 0 0 0 9.997 20c.54 0 1.08-.043 1.614-.128ZM1.558 18.457l1.119-3.69-.145-.24a8.647 8.647 0 0 1-1.173-5.892 8.779 8.779 0 0 1 7.21-7.27 8.76 8.76 0 0 1 8.913 3.995 8.75 8.75 0 0 1-6.068 13.277 8.674 8.674 0 0 1-5.86-1.118l-.232-.138-3.764 1.076ZM16.008 10a5.998 5.998 0 0 0-3.705-5.543A6.005 6.005 0 0 0 4.119 8.83a5.997 5.997 0 0 0 2.552 6.158A6.005 6.005 0 0 0 10.006 16 6.01 6.01 0 0 0 16.008 10Zm-1.25 0a4.747 4.747 0 0 1-2.934 4.388 4.755 4.755 0 0 1-6.479-3.461 4.747 4.747 0 0 1 4.66-5.677A4.759 4.759 0 0 1 14.76 10h-.001Zm-1.75 0A2.998 2.998 0 0 0 9.42 7.058a3.002 3.002 0 0 0-2.187 4.09A3 3 0 0 0 13.007 10Zm-1.251 0a1.75 1.75 0 0 1-2.99 1.237 1.75 1.75 0 1 1 2.477-2.474c.328.328.513.773.514 1.237h-.001Z"/></svg>