<svg xmlns="http://www.w3.org/2000/svg" viewBox="0 0 20 20" fill="currentColor"><path fill-rule="evenodd" d="M11.515 5.22A2.85 2.85 0 1 1 8.347.48a2.85 2.85 0 0 1 3.168 4.74Zm-.694-3.7a1.6 1.6 0 0 0-.889-.269V1.25a1.6 1.6 0 1 0 .889.27Z" clip-rule="evenodd"/><path d="M18.32 10.184a4.201 4.201 0 0 0-1.263-.254 7.16 7.16 0 0 0-3.267-5.376c.173-.402.281-.83.322-1.265a8.406 8.406 0 0 1 4.208 6.895Z"/><path d="M5.751 3.29c.04.436.149.863.322 1.265a7.16 7.16 0 0 0-3.268 5.378 4.17 4.17 0 0 0-1.263.257 8.4 8.4 0 0 1 4.209-6.9Z"/><path d="M13.562 16.734a7.1 7.1 0 0 1-7.253 0 4.233 4.233 0 0 1-.934.893 8.358 8.358 0 0 0 9.12-.005 4.248 4.248 0 0 1-.933-.888Z"/><path fill-rule="evenodd" d="M3.008 11.286a2.85 2.85 0 1 0-.002 5.7 2.85 2.85 0 0 0 .002-5.7Zm0 4.449a1.6 1.6 0 1 1 0-3.2 1.6 1.6 0 0 1 0 3.2Z" clip-rule="evenodd"/><path fill-rule="evenodd" d="M15.285 11.766a2.85 2.85 0 1 1 3.167 4.74 2.85 2.85 0 0 1-3.167-4.74Zm.694 3.7a1.6 1.6 0 1 0 1.778-2.661 1.6 1.6 0 0 0-1.778 2.66Z" clip-rule="evenodd"/></svg>