<svg xmlns="http://www.w3.org/2000/svg" viewBox="0 0 20 20" fill="currentColor"><path d="M18.066 18.843H1.934A1.919 1.919 0 0 1 .269 17.9a1.873 1.873 0 0 1-.02-1.9L8.314 1.7A1.91 1.91 0 0 1 10 .727a1.912 1.912 0 0 1 1.685.978L19.752 16a1.874 1.874 0 0 1-.021 1.9 1.918 1.918 0 0 1-1.665.943ZM9.418 2.314l-8.066 14.3a.644.644 0 0 0 .007.656.66.66 0 0 0 .575.325h16.132a.657.657 0 0 0 .575-.325.641.641 0 0 0 .007-.656l-8.066-14.3A.655.655 0 0 0 10 1.977a.654.654 0 0 0-.582.337ZM9.5 15.865a1.083 1.083 0 0 1-.386-.386 1.036 1.036 0 0 1-.144-.537 1.065 1.065 0 0 1 1.986-.533 1.047 1.047 0 0 1 0 1.07c-.096.16-.23.292-.39.386a1.039 1.039 0 0 1-.536.143 1.025 1.025 0 0 1-.53-.143Zm-.14-3.329-.194-6.513H10.9l-.2 6.513H9.36Z"/></svg>