<svg xmlns="http://www.w3.org/2000/svg" viewBox="0 0 20 20" fill="currentColor"><path d="M18.635 6.73 13.27 1.364a4.627 4.627 0 0 0-6.542 0L1.364 6.73a4.627 4.627 0 0 0 0 6.542l5.365 5.365a4.628 4.628 0 0 0 6.542 0l5.364-5.365a4.627 4.627 0 0 0 0-6.542Zm-7.549 8.622c-.11.194-.27.356-.462.47-.197.12-.425.181-.656.178a1.293 1.293 0 0 1-1.114-1.934 1.29 1.29 0 0 1 2.225 0c.116.197.176.421.174.65.002.223-.056.442-.167.636Zm1.8-6.239c-.1.234-.234.45-.4.643-.198.22-.408.428-.629.625-.222.2-.4.372-.529.514a1.992 1.992 0 0 0-.328.484c-.09.19-.136.399-.133.61v.573H9.038v-.568a2.36 2.36 0 0 1 .186-.963c.108-.255.255-.491.437-.7.207-.224.428-.434.662-.629.2-.174.35-.316.46-.428.107-.11.2-.234.273-.369a.92.92 0 0 0-.04-.94 1.008 1.008 0 0 0-.409-.347 1.283 1.283 0 0 0-.563-.123 1.3 1.3 0 0 0-.606.145c-.179.09-.332.226-.444.392a1.043 1.043 0 0 0-.175.568H6.927c.006-.51.143-1.01.4-1.45A2.815 2.815 0 0 1 8.423 6.1a3.37 3.37 0 0 1 1.662-.394 3.5 3.5 0 0 1 1.523.322c.43.196.798.508 1.061.9.257.39.39.849.383 1.316.005.298-.052.594-.168.87h.002Z"/></svg>