<svg xmlns="http://www.w3.org/2000/svg" viewBox="0 0 20 20" fill="currentColor"><path d="M10.406 8.777a3.828 3.828 0 0 0 1.386-4.5 5.987 5.987 0 0 0-5.112.73 5.675 5.675 0 0 1 3.726 3.77Z"/><path d="M9.133 8.94a4.486 4.486 0 0 0-3.571-2.96 5.964 5.964 0 0 0-1.551 3.856 5.672 5.672 0 0 1 5.122-.896Z"/><path d="M11.224 9.731a3.834 3.834 0 0 0 4.623-1.061 6.01 6.01 0 0 0-2.611-3.714 5.058 5.058 0 0 1-2.012 4.775Z"/><path d="M8.7 10.118a4.486 4.486 0 0 0-4.55 1.2 6.013 6.013 0 0 0 2.613 3.725A5.678 5.678 0 0 1 8.7 10.118Z"/><path d="M10 0a10 10 0 1 0 10 10A10.011 10.011 0 0 0 10 0Zm0 17.249A7.249 7.249 0 1 1 17.25 10 7.257 7.257 0 0 1 10 17.249Z"/><path d="M10.958 10.968a3.784 3.784 0 0 0 3.5 3.03 5.965 5.965 0 0 0 1.527-3.751 5.032 5.032 0 0 1-5.027.721Z"/><path d="M9.654 10.936a4.519 4.519 0 0 0-1.541 4.754 5.95 5.95 0 0 0 5.148-.661 5.18 5.18 0 0 1-3.607-4.093Z"/></svg>