<svg xmlns="http://www.w3.org/2000/svg" viewBox="0 0 20 20" fill="currentColor"><path d="m8.558 12.558.884.884-5.5 5.5a2.04 2.04 0 0 1-2.884-2.883l5.5-5.5L7 11l1.558 1.558Zm11.03-1.258a1.127 1.127 0 0 0 0-1.592l-1.06-1.06a2.607 2.607 0 0 0-1.857-.769h-.912l-3.634-3.638v-.913a2.606 2.606 0 0 0-.77-1.856L10.3.411a1.128 1.128 0 0 0-1.59 0l-1.25 1.25 10.879 10.884 1.249-1.245ZM2.94 1.149l2.513 2.514L3.412 5.7a1.127 1.127 0 0 0 0 1.592l1.06 1.06a2.608 2.608 0 0 0 1.857.769h.912l3.634 3.634v.913a2.608 2.608 0 0 0 .769 1.856l1.06 1.061a1.127 1.127 0 0 0 1.59 0l2.043-2.042 2.514 2.514.884-.885L3.824.265l-.884.884Z"/></svg>