<svg xmlns="http://www.w3.org/2000/svg" viewBox="0 0 20 20" fill="currentColor"><path d="m19.59 9.705-1.062-1.061a2.606 2.606 0 0 0-1.856-.769h-.913l-3.634-3.634v-.912a2.597 2.597 0 0 0-.769-1.856L10.3.411a1.128 1.128 0 0 0-1.6.001L3.411 5.705a1.125 1.125 0 0 0 0 1.59l1.061 1.061a2.607 2.607 0 0 0 1.856.769h.913l.375.375-6.557 6.558a2.04 2.04 0 0 0 2.883 2.884l6.558-6.558.375.375v.913a2.608 2.608 0 0 0 .77 1.856l1.06 1.06a1.127 1.127 0 0 0 1.591 0l5.292-5.288a1.124 1.124 0 0 0 0-1.591l.001-.004ZM3.06 18.058a.79.79 0 1 1-1.118-1.116L8.5 10.384 9.616 11.5 3.06 18.058Zm10.44-2.442-.972-.972a1.38 1.38 0 0 1-.4-.972v-1.431L7.76 7.875H6.33a1.367 1.367 0 0 1-.973-.4L4.384 6.5 9.5 1.384l.972.972c.257.259.4.609.4.973v1.43l4.366 4.366h1.431c.364 0 .713.144.972.4l.972.972-5.113 5.119Z"/></svg>