<svg xmlns="http://www.w3.org/2000/svg" viewBox="0 0 20 20" fill="currentColor"><path d="M19 7.627v9.777A2.617 2.617 0 0 1 16.307 20H3.745a2.675 2.675 0 0 1-2.719-2.62L1 7.627a.627.627 0 0 1 .625-.626h2.187v1.25H2.251l.025 9.124a1.423 1.423 0 0 0 1.469 1.373h12.562a1.385 1.385 0 0 0 1.443-1.345V8.251h-1.563v-1.25h2.188a.625.625 0 0 1 .625.626ZM8.013 7.002v1.25h3.974v-1.25H8.013ZM15 4.627a4.828 4.828 0 0 0-5-4.624 4.83 4.83 0 0 0-5 4.624v5.3h1.25v-5.3A3.58 3.58 0 0 1 10 1.253a3.581 3.581 0 0 1 3.75 3.374v5.3H15v-5.3Z"/></svg>