<svg xmlns="http://www.w3.org/2000/svg" viewBox="0 0 20 20" fill="currentColor"><path d="M17.031 11.5A4.538 4.538 0 0 0 19 11.04v6.914A1.053 1.053 0 0 1 17.942 19h-5.195a.71.71 0 0 1-.711-.709V13.25H7.964v5.041a.711.711 0 0 1-.711.709H2.058A1.053 1.053 0 0 1 1 17.954V11.04c.613.3 1.286.457 1.969.461h.242a4.582 4.582 0 0 0 2.182-.547c.67.361 1.42.55 2.182.547h.242A4.57 4.57 0 0 0 10 10.954a4.57 4.57 0 0 0 2.183.547h.242a4.568 4.568 0 0 0 2.182-.547c.67.36 1.42.549 2.182.547l.242-.001Zm.852-10.17a.626.626 0 0 0-.551-.33H2.668a.626.626 0 0 0-.551.33L.312 4.75h19.407l-1.836-3.42ZM0 7.186A2.9 2.9 0 0 0 2.969 10h.242a3.019 3.019 0 0 0 2.183-.909A3.011 3.011 0 0 0 7.575 10h.242A3.02 3.02 0 0 0 10 9.092a3.02 3.02 0 0 0 2.183.908h.242a3.01 3.01 0 0 0 2.181-.909 3.02 3.02 0 0 0 2.183.909h.242A2.9 2.9 0 0 0 20 7.186V6H0v1.186Z"/></svg>