<svg xmlns="http://www.w3.org/2000/svg" viewBox="0 0 20 20" fill="currentColor"><g clip-path="url(#a)"><path d="M20 10a9.993 9.993 0 0 1-17.57 6.522h2.954A8 8 0 1 0 3.3 5.642H1.01A9.994 9.994 0 0 1 20 10ZM5.916 13.673V8.327A1.315 1.315 0 0 0 4.616 7H.347l-.107.506a10.791 10.791 0 0 0 .929 7.145l.178.349h3.269a1.315 1.315 0 0 0 1.3-1.327Zm9.043-5.545a1.587 1.587 0 0 0-1.241-.6h-2.352l.683-1a2.174 2.174 0 0 0-.551-2.89l-.142-.1a1.073 1.073 0 0 0-1.485.217L7.087 7.39v7.117a3.748 3.748 0 0 0 1.666.406H12.8a1.61 1.61 0 0 0 1.558-1.259l.922-4.162a1.606 1.606 0 0 0-.321-1.364Z"/></g><defs><clipPath id="a"><path d="M0 0H20V20H0z"/></clipPath></defs></svg>