<svg xmlns="http://www.w3.org/2000/svg" viewBox="0 0 24 24" fill="currentColor"><path d="M20.2.115h-.08L6.983 1.406a.8.8 0 0 0-.72.721l-.38 3.817-.912 9.278-1.833 1.835a2.584 2.584 0 0 0 1.829 4.415c.685 0 1.343-.273 1.829-.757l1.082-1.083a1.337 1.337 0 1 1 1.892 1.89l-1.325 1.321.883.885 1.324-1.328a2.588 2.588 0 1 0-3.66-3.657L5.91 19.83a1.365 1.365 0 0 1-1.89 0 1.335 1.335 0 0 1 0-1.89l1.8-1.8h.028l13.136-1.291a.8.8 0 0 0 .72-.72L20.993 1A.799.799 0 0 0 20.2.115Zm-1.1 7.44-5.544-5.536 6.138-.6-.594 6.136ZM6.875 8.631l5.6 5.605-6.215.612.615-6.217Zm11.618 5.013-4.403.433L7.034 7.02l.432-4.403 4.479-.438 6.988 6.989-.1 1.03-.34 3.446ZM11.17 6.322a2.558 2.558 0 1 0 3.617 3.619 2.558 2.558 0 0 0-3.617-3.619Zm3.193 3.194a1.957 1.957 0 1 1-2.765-2.77 1.957 1.957 0 0 1 2.765 2.77ZM13.3 7.988l1.253-.336.033.123-1.238.332a.37.37 0 0 1-.012.079l1.25.335-.033.123-1.27-.344c-.012.021-.011.046-.027.065l.92.92-.09.09-.941-.941a.442.442 0 0 1-.05.02l.346 1.294-.123.033-.343-1.281c-.02 0-.034-.019-.053-.022l-.35 1.3-.122-.033.35-1.312c-.012-.007-.026-.007-.038-.015l-.961.961-.09-.09.969-.968c-.007-.011-.008-.022-.014-.033l-1.327.356-.033-.123 1.31-.352c0-.016-.012-.029-.011-.045l-1.3-.349.033-.123 1.315.353a.274.274 0 0 1 .016-.04l-.96-.958.09-.09.938.937c.016-.013.037-.012.054-.022l-.341-1.288.123-.033.34 1.272c.026 0 .046-.025.07-.024l.335-1.248.123.033-.341 1.263a.381.381 0 0 1 .066.027l.918-.917.09.09-.911.91a.366.366 0 0 1 .037.071Z"/></svg>