<svg xmlns="http://www.w3.org/2000/svg" viewBox="0 0 20 20" fill="currentColor"><path d="M11.625 11.354v.171h-4.25v-.171A1.89 1.89 0 0 1 9.294 9.5h.413a1.889 1.889 0 0 1 1.918 1.854ZM14.776 5.9a6.28 6.28 0 0 0-12.4 1.384c0 .34.027.68.083 1.016a4.371 4.371 0 0 0 1.922 8.3v-.626h.176c-.007-.106-.032-.207-.032-.315v-2.034a2.1 2.1 0 0 1 1.35-1.956v-.315A3.476 3.476 0 0 1 9.294 7.9h.413a3.476 3.476 0 0 1 3.418 3.454v.315a2.1 2.1 0 0 1 1.35 1.956v2.035c0 .108-.025.209-.032.315h.2v.625a5.353 5.353 0 0 0 .129-10.7h.004ZM13 13.625v2.035A3.343 3.343 0 0 1 9.66 19h-.32A3.343 3.343 0 0 1 6 15.66v-2.035A.625.625 0 0 1 6.625 13h5.75a.625.625 0 0 1 .625.625Zm-2.674 1.9a.8.8 0 1 0 0 .002v-.002Z"/></svg>