<svg xmlns="http://www.w3.org/2000/svg" viewBox="0 0 20 20" fill="currentColor"><path d="M5.613 3.627v-1.25h-.5A1.377 1.377 0 0 1 3.738 1V.5h-1.25V1a1.377 1.377 0 0 1-1.375 1.377h-.5v1.25h.5A1.376 1.376 0 0 1 2.488 5v.5h1.25V5a1.376 1.376 0 0 1 1.375-1.373h.5Zm13.248 1.249v1.25h-.3a.576.576 0 0 0-.575.576V7h-1.25v-.3a.576.576 0 0 0-.575-.576h-.3V4.876h.3a.575.575 0 0 0 .575-.575V4h1.25v.3a.575.575 0 0 0 .575.575h.3ZM13 6.544H7v-1.38a2.176 2.176 0 0 1 .6-1.51l3.065-3.23A1.316 1.316 0 0 1 12.13.1 1.39 1.39 0 0 1 13 1.4v5.144ZM6.624 8A1.627 1.627 0 0 0 5 9.626v8.749A1.627 1.627 0 0 0 6.624 20h6.75A1.627 1.627 0 0 0 15 18.375v-8.75A1.627 1.627 0 0 0 13.374 8h-6.75ZM12 17.025h-1.465V11H12v6.025Z"/></svg>