<svg xmlns="http://www.w3.org/2000/svg" viewBox="0 0 20 20" fill="currentColor"><path d="M19.987 3.636a1.627 1.627 0 0 0-1.624-1.623L1.626 2A1.627 1.627 0 0 0 0 3.625v12.75A1.627 1.627 0 0 0 1.625 18h16.749A1.629 1.629 0 0 0 20 16.373l-.013-12.737ZM1.625 3.25l16.738.013a.375.375 0 0 1 .374.375v1L14 8.767V6.454l-4-1.037-4 1.037v2.318L1.25 4.579v-.954a.375.375 0 0 1 .375-.375ZM12.75 7.421v3.454c0 1.423-2.144 2.215-2.75 2.41-.606-.2-2.75-.987-2.75-2.41V7.421L10 6.708l2.75.713Zm5.889 9.219a.376.376 0 0 1-.265.11H1.625a.375.375 0 0 1-.375-.375V6.246L6 10.438v.437c0 2.641 3.686 3.627 3.843 3.668l.157.04.157-.04C10.314 14.5 14 13.516 14 10.875v-.451L18.739 6.3l.01 10.078a.376.376 0 0 1-.11.262Z"/></svg>