<svg xmlns="http://www.w3.org/2000/svg" viewBox="0 0 20 20" fill="currentColor"><g clip-path="url(#a)"><path d="M13.476 6.09h-8.23V4.84h8.23v1.25Zm-8.23 2.848h2.978v-1.25H5.246v1.25ZM19 14.5A5.5 5.5 0 1 1 13.5 9a5.507 5.507 0 0 1 5.5 5.5Zm-1.25 0a4.25 4.25 0 1 0-8.502 0 4.25 4.25 0 0 0 8.502 0Zm-2.717-2.418L13.5 13.615l-1.533-1.533-.885.885 1.533 1.533-1.533 1.533.885.885 1.533-1.533 1.533 1.533.885-.885-1.533-1.533 1.533-1.533-.885-.885ZM7.97 18.75 9.238 20H3.175a1.123 1.123 0 0 1-1.125-1.118V4.25h-.875A1.127 1.127 0 0 1 .05 3.125v-1.5A1.626 1.626 0 0 1 1.675 0h13.7A1.62 1.62 0 0 1 17 1.611v6.915l-1.25-.58V1.611a.369.369 0 0 0-.375-.361H3.252a1.6 1.6 0 0 1 .048.375V18.75h4.67ZM1.3 3h.75V1.625a.375.375 0 1 0-.75 0V3Z"/></g><defs><clipPath id="a"><path d="M0 0H20V20H0z"/></clipPath></defs></svg>