<svg xmlns="http://www.w3.org/2000/svg" viewBox="0 0 20 20" fill="currentColor"><path d="M19.944 7.658a1.089 1.089 0 0 0-.808-.734l-5.378-1.198-2.812-4.717a1.14 1.14 0 0 0-1.9 0L6.238 5.722.862 6.924a1.1 1.1 0 0 0-.588 1.799l3.639 4.114-.515 5.459a1.098 1.098 0 0 0 1.534 1.113l5.066-2.172 5.062 2.172c.139.06.288.09.438.09a1.1 1.1 0 0 0 1.1-1.204l-.51-5.456 3.639-4.114a1.089 1.089 0 0 0 .217-1.067ZM9.998 13.98a3.002 3.002 0 0 1-2.772-1.85 2.994 2.994 0 0 1 2.187-4.086 3.003 3.003 0 0 1 3.08 1.274 2.995 2.995 0 0 1-2.495 4.662Z"/></svg>