<svg xmlns="http://www.w3.org/2000/svg" viewBox="0 0 20 20" fill="currentColor"><path d="M10.002 6.977a2.996 2.996 0 0 0-2.771 1.855 3.01 3.01 0 0 0 .65 3.275 2.998 2.998 0 0 0 5.121-2.124 2.997 2.997 0 0 0-3-3.005Zm0 4.758a1.748 1.748 0 0 1-1.617-1.083 1.756 1.756 0 0 1 1.276-2.39 1.747 1.747 0 0 1 1.797.746 1.755 1.755 0 0 1-1.456 2.728v-.001Zm1.783 3.55.318.318a6.015 6.015 0 0 1-7.184-2.367A6.044 6.044 0 0 1 5.704 5.7a6.02 6.02 0 0 1 9.985 2.335 6.046 6.046 0 0 1-.062 4.016l-.307-.308a1.467 1.467 0 0 0-.794-.388c.143-.444.22-.907.226-1.373a4.764 4.764 0 0 0-2.932-4.397 4.742 4.742 0 0 0-5.177 1.032 4.76 4.76 0 0 0 3.36 8.123 4.655 4.655 0 0 0 1.4-.236c.045.293.178.565.382.78Zm-.414 3.353a8.643 8.643 0 0 1-5.819-1.123l-.23-.139-3.764 1.078 1.117-3.697-.144-.24a8.672 8.672 0 0 1-1.173-5.902 8.767 8.767 0 0 1 6.587-7.163 8.735 8.735 0 0 1 9.127 3.355 8.772 8.772 0 0 1 1.574 6.52c.357.019.695.167.951.418l.206.207c.023-.113.05-.223.07-.338a10.037 10.037 0 0 0-1.767-7.461A10.008 10.008 0 0 0 11.591.128a9.985 9.985 0 0 0-7.449 1.769A10.012 10.012 0 0 0 .124 8.424a9.9 9.9 0 0 0 1.195 6.5L.086 19.005a.731.731 0 0 0 .9.917l4.164-1.194A9.851 9.851 0 0 0 9.991 20c.54 0 1.08-.044 1.614-.13.135-.02.266-.053.4-.08l-.219-.22a1.477 1.477 0 0 1-.415-.931v-.001Zm5.911-2.272 2.4 2.404-.885.885-2.4-2.404-2.4 2.404-.885-.885 2.4-2.404-2.4-2.405.885-.885 2.4 2.404 2.4-2.404.885.885-2.4 2.405Z"/></svg>