<svg xmlns="http://www.w3.org/2000/svg" viewBox="0 0 20 20" fill="currentColor"><path d="M9.784 12.331a7 7 0 0 0 1.165.6l-6.174 6.178a2.747 2.747 0 0 1-3.883-3.884l6.18-6.181c.162.409.362.8.6 1.171l-5.897 5.894a1.5 1.5 0 0 0 0 2.116 1.533 1.533 0 0 0 2.118 0l5.891-5.894Zm4.481-.309a5.7 5.7 0 0 0 4.671-3.953 5.372 5.372 0 0 0-.1-3.538 1.116 1.116 0 0 0-.813-.7 1.127 1.127 0 0 0-1.039.305L14.118 7A.807.807 0 0 1 13 7a.79.79 0 0 1 0-1.116l2.864-2.863a1.127 1.127 0 0 0 .3-1.04 1.112 1.112 0 0 0-.7-.812 5.363 5.363 0 0 0-3.539-.1 5.7 5.7 0 0 0-3.946 4.666 5.627 5.627 0 0 0 6.287 6.287Zm.58-9.75L12.117 5a2.043 2.043 0 0 0 0 2.884 2.088 2.088 0 0 0 2.883 0l2.727-2.726c.271.825.276 1.714.013 2.542a4.432 4.432 0 0 1-3.628 3.079A4.377 4.377 0 0 1 9.22 5.887a4.429 4.429 0 0 1 4.342-3.822c.437 0 .87.07 1.284.207Z"/></svg>