<svg xmlns="http://www.w3.org/2000/svg" viewBox="0 0 20 20" fill="currentColor"><path d="M8.61 11.39a7 7 0 0 0 2.34 1.545l-6.175 6.174a2.747 2.747 0 0 1-3.883-3.884l6.18-6.181c.349.878.872 1.676 1.538 2.346Zm10.223-6.859a1.128 1.128 0 0 0-1.852-.395L14.118 7A.807.807 0 0 1 13 7a.79.79 0 0 1 0-1.116l2.864-2.863a1.127 1.127 0 0 0 .3-1.04 1.112 1.112 0 0 0-.7-.812 5.363 5.363 0 0 0-3.539-.1 5.7 5.7 0 0 0-3.946 4.666 5.627 5.627 0 0 0 6.283 6.287 5.7 5.7 0 0 0 4.671-3.953 5.372 5.372 0 0 0-.099-3.538Z"/></svg>