<svg xmlns="http://www.w3.org/2000/svg" viewBox="0 0 20 20" fill="currentColor"><path d="M2.625 16A1.627 1.627 0 0 1 1 14.375V2.625A1.627 1.627 0 0 1 2.625 1h11.75A1.627 1.627 0 0 1 16 2.625h-1.25a.375.375 0 0 0-.375-.375H2.625a.375.375 0 0 0-.375.375v11.75a.375.375 0 0 0 .375.375V16Zm14.044-7.068a2.573 2.573 0 1 1-5.147.002 2.573 2.573 0 0 1 5.147-.002Zm-1.029 0a1.544 1.544 0 1 0-3.087.002 1.544 1.544 0 0 0 3.087-.002ZM19 5.622v11.756A1.624 1.624 0 0 1 17.378 19H5.622A1.624 1.624 0 0 1 4 17.378V5.622A1.624 1.624 0 0 1 5.622 4h11.756A1.624 1.624 0 0 1 19 5.622ZM5.622 17.75h9.151l-4.648-4.65a1.958 1.958 0 0 0-2.765 0l-2.11 2.11v2.166a.373.373 0 0 0 .372.374ZM17.75 5.622a.373.373 0 0 0-.372-.372H5.622a.373.373 0 0 0-.372.372v8.134l1.382-1.381a2.988 2.988 0 0 1 4.222 0l5.375 5.375h1.149a.373.373 0 0 0 .372-.372V5.622Z"/></svg>