<svg xmlns="http://www.w3.org/2000/svg" viewBox="0 0 20 20" fill="currentColor"><path d="M20 13.149A4.852 4.852 0 0 1 15.158 18H10v-2h5.158a2.851 2.851 0 0 0 0-5.7h-1.367l1.5 1.5-1.414 1.414-3.207-3.209a1 1 0 0 1 0-1.414l3.208-3.208L15.292 6.8l-1.5 1.5h1.367A4.852 4.852 0 0 1 20 13.149Zm-10-1.817V14.2a9.805 9.805 0 0 1-4.1-2.03l-.013.01-.012-.01a9.8 9.8 0 0 1-5.027 2.222L0 14.5v-2.773l.632-.1a7.264 7.264 0 0 0 3.378-1.509 10.928 10.928 0 0 1-1.7-4.053H0V3.286h4.483V1.514h2.805v1.772h4.483l-.965 2.779H9.464a10.928 10.928 0 0 1-1.7 4.053c.67.53 1.426.942 2.236 1.214ZM6.618 6.065H5.153c.179.618.424 1.216.732 1.781a8.828 8.828 0 0 0 .733-1.781Z"/></svg>