<svg xmlns="http://www.w3.org/2000/svg" viewBox="0 0 20 20" fill="currentColor"><path d="M11.762 0H7.7v.026C3.419.3 0 4.662 0 10s3.419 9.7 7.7 9.974V20h4.06C16.305 20 20 15.514 20 10S16.305 0 11.762 0ZM1.25 10c0-4.825 3.084-8.75 6.875-8.75S15 5.175 15 10s-3.084 8.75-6.875 8.75S1.25 14.825 1.25 10Zm10.826 8.73A10.55 10.55 0 0 0 16.25 10a10.55 10.55 0 0 0-4.174-8.73c3.707.208 6.674 4.038 6.674 8.73s-2.967 8.522-6.674 8.73Zm-5.813-4.447a4.47 4.47 0 0 1-1.511-1.764A5.558 5.558 0 0 1 4.188 10a5.582 5.582 0 0 1 .564-2.531c.338-.71.86-1.317 1.511-1.758a3.615 3.615 0 0 1 3.229-.428c.406.137.787.34 1.128.6L9.977 7.77a1.664 1.664 0 0 0-.74-.568 2.415 2.415 0 0 0-.9-.181c-.436 0-.862.133-1.222.379a2.63 2.63 0 0 0-.9 1.049 3.4 3.4 0 0 0-.335 1.53A3.591 3.591 0 0 0 6.2 11.5c.192.433.497.807.883 1.082.367.26.807.397 1.257.393.323 0 .643-.064.942-.186a1.57 1.57 0 0 0 .718-.544l.639 1.884c-.33.251-.698.447-1.09.581a3.725 3.725 0 0 1-1.219.207 3.635 3.635 0 0 1-2.067-.634Z"/></svg>