<svg xmlns="http://www.w3.org/2000/svg" viewBox="0 0 20 20" fill="currentColor"><path d="M9.625 16.667h2.646v1.25H9.625V20h-1.25v-2.083H5.812v-1.25h2.563v-1.45A6.008 6.008 0 0 1 3 9.25a5.947 5.947 0 0 1 .5-2.4l.25-.573 1.145.5-.25.573a4.752 4.752 0 0 0 6.255 6.255l.573-.25.5 1.145-.573.25a5.929 5.929 0 0 1-1.775.468v1.449ZM16.854 0h-4.271v1.25h3.283l-3.235 3.235A5.976 5.976 0 0 0 6.6 3.75L6.027 4l.5 1.145.573-.25a4.752 4.752 0 0 1 6.254 6.254l-.25.573 1.145.5.25-.573a5.986 5.986 0 0 0-.957-6.309l3.208-3.206v3.283H18V1.146A1.147 1.147 0 0 0 16.854 0Z"/></svg>