<svg xmlns="http://www.w3.org/2000/svg" viewBox="0 0 20 20" fill="currentColor"><path d="M12.025 17.275a27.692 27.692 0 0 0 4.917-2.321 7.956 7.956 0 0 1-9.592 3.587 27.777 27.777 0 0 0 4.675-1.266Zm-.75-1.508a22.944 22.944 0 0 1-7.379 1.525 6.084 6.084 0 0 1-2.6-.459 2.2 2.2 0 0 1-1.2-1.287c-.263-.8-.1-2.087 1.942-3.763A7.796 7.796 0 0 1 1.997 11a7.97 7.97 0 0 1 2.5-5.794V11a1.5 1.5 0 0 0 1.5 1.5h2a1.5 1.5 0 0 0 1.5-1.5V8.244h2.499a2.5 2.5 0 0 0 1.9-4.131l-.141-.164a8.077 8.077 0 0 1 2.985 2.757c2.16.124 2.918.994 3.16 1.73.849 2.583-3.875 5.61-8.625 7.331Zm.03-12.359 1.463-1.771A1 1 0 0 0 11.996 0h-5a1 1 0 0 0-1 1v10h2V6.744h4a1 1 0 0 0 .758-1.652l-1.45-1.684Z"/></svg>