<svg xmlns="http://www.w3.org/2000/svg" viewBox="0 0 20 20" fill="currentColor"><path d="M10.189 11.532a1.76 1.76 0 0 0 .056.5.612.612 0 0 0 .2.3c.129.097.273.171.426.22l-.882 2.079a3.857 3.857 0 0 1-1.122-.449 1.489 1.489 0 0 1-.58-.645h-.065c-.336.338-.73.611-1.165.806a3.427 3.427 0 0 1-1.41.288 3.391 3.391 0 0 1-1.571-.366 2.754 2.754 0 0 1-1.137-1.106 3.558 3.558 0 0 1-.425-1.8v-5.33H5v4.991c-.024.402.11.796.374 1.1a1.252 1.252 0 0 0 .956.4 1.294 1.294 0 0 0 1.192-.701c.125-.247.186-.522.178-.799V6.029h2.487l.002 5.503Zm6.29-10.116h2.064l-6.424 15.446h-2.02l6.38-15.446Z"/></svg>