<svg xmlns="http://www.w3.org/2000/svg" viewBox="0 0 20 20" fill="currentColor"><path d="M19.375 1H18.25V0H17v1h-1.375a.625.625 0 0 0-.625.625V3H5V1.625A.625.625 0 0 0 4.375 1H3.25V0H2v1H.625A.625.625 0 0 0 0 1.625v16.75A.625.625 0 0 0 .625 19H2v1h1.25v-1h1.125A.625.625 0 0 0 5 18.375V17h10v1.375a.624.624 0 0 0 .625.625H17v1h1.25v-1h1.125a.624.624 0 0 0 .625-.625V1.625A.625.625 0 0 0 19.375 1ZM3.75 17.75h-2.5V2.25h2.5v15.5Zm1.25-2V4.25h10v11.5H5Zm13.75 2h-2.5V2.25h2.5v15.5ZM7.782 7.025h4.436v1.25H7.782v-1.25Zm0 4h4.436v1.25H7.782v-1.25Z"/></svg>