<svg xmlns="http://www.w3.org/2000/svg" viewBox="0 0 20 20" fill="currentColor"><path d="M18.154 2.1 10.27.108a1.1 1.1 0 0 0-.54 0L1.848 2.1A1.12 1.12 0 0 0 1 3.187V12c0 5.281 7.25 7.554 8.7 7.955.098.028.198.044.3.045.101 0 .202-.014.3-.041C11.75 19.554 19 17.281 19 12V3.187a1.12 1.12 0 0 0-.846-1.087ZM8.472 8.706a5.45 5.45 0 0 0-.8 1.017c.296.003.586.086.839.24a1.74 1.74 0 0 1 .838 1.479 1.65 1.65 0 0 1-.24.864c-.156.26-.375.475-.638.626a1.722 1.722 0 0 1-.865.231 1.69 1.69 0 0 1-.934-.272 1.845 1.845 0 0 1-.649-.745 2.427 2.427 0 0 1-.231-1.078 5.074 5.074 0 0 1 1.522-3.242l1.449-1.6 1.087 1.05-1.378 1.43Zm4.479 1.257a1.74 1.74 0 0 1 .838 1.479c.001.304-.082.603-.239.863a1.763 1.763 0 0 1-1.504.858 1.69 1.69 0 0 1-.934-.272 1.842 1.842 0 0 1-.648-.745 2.422 2.422 0 0 1-.232-1.078 5.07 5.07 0 0 1 1.524-3.242l1.45-1.6 1.086 1.054-1.377 1.43a5.46 5.46 0 0 0-.8 1.017c.295.002.583.084.836.236Z"/></svg>