<svg xmlns="http://www.w3.org/2000/svg" viewBox="0 0 20 20" fill="currentColor"><g clip-path="url(#a)"><path d="M20 6.932v6.122a3.614 3.614 0 0 1-1.951 3.217l-6.374 3.32a3.627 3.627 0 0 1-3.349 0L1.95 16.27A3.613 3.613 0 0 1 0 13.054V6.932a3.614 3.614 0 0 1 1.951-3.218L8.325.396A3.612 3.612 0 0 1 11.3.254l-8.772 4.57A2.366 2.366 0 0 0 1.25 6.932v6.122a2.368 2.368 0 0 0 1.277 2.107l6.373 3.32a2.377 2.377 0 0 0 2.2 0l6.374-3.32a2.366 2.366 0 0 0 1.278-2.107V4.197A3.61 3.61 0 0 1 20 6.932ZM16.7 9.2a2.69 2.69 0 0 1-.94 2.045c-.41 2.345-2.876 4.143-5.753 4.143-2.877 0-5.352-1.8-5.757-4.153a2.696 2.696 0 0 1 2.418-4.647 6.425 6.425 0 0 1 2.624-.8 2.137 2.137 0 0 1 .416-2.201 3.791 3.791 0 0 1 2.8-.985 2.124 2.124 0 1 1-.041 1.253 2.541 2.541 0 0 0-1.813.548.908.908 0 0 0-.154 1.095l.135.286a6.553 6.553 0 0 1 2.72.807 2.613 2.613 0 0 1 2.15.383A2.69 2.69 0 0 1 16.7 9.2Zm-3.062-5.903a.875.875 0 1 0 .876-.875.876.876 0 0 0-.881.867l.005.008ZM15.45 9.2a1.443 1.443 0 0 0-.65-1.193 1.328 1.328 0 0 0-1.282-.154l-.309.13-.276-.184A5.704 5.704 0 0 0 7.1 7.792l-.272.181-.3-.118a1.404 1.404 0 0 0-.512-.1A1.478 1.478 0 0 0 4.555 9.2a1.387 1.387 0 0 0 .611 1.163l.254.163.03.3c.186 1.856 2.185 3.31 4.552 3.31 2.367 0 4.354-1.448 4.548-3.3l.03-.288.238-.163a1.442 1.442 0 0 0 .627-1.185h.005Zm-7 2.248c-.546.277.649 1.78 1.8 1.78a1.907 1.907 0 0 0 1.812-1.62c.45-.148.359-.349-.327-.507a5.815 5.815 0 0 0-3.291.344l.006.003Zm.562-1.631a.033.033 0 0 0 .052-.022c.106-1.54-2.425-1.3-2.137.21 0 .035.027.095.07.06a1.9 1.9 0 0 1 2.009-.251l.006.003Zm2.315-.064c-.006.035 0 .1.053.076a1.9 1.9 0 0 1 2.03.247.033.033 0 0 0 .043-.02c.462-1.47-2.053-1.842-2.132-.306l.006.003Z"/></g><defs><clipPath id="a"><path d="M0 0H20V20H0z"/></clipPath></defs></svg>