<svg xmlns="http://www.w3.org/2000/svg" viewBox="0 0 20 20" fill="currentColor"><path d="M4.8 7a4.1 4.1 0 0 1 .573-2.859 4.3 4.3 0 0 1 1.8-1.567A6.172 6.172 0 0 1 9.913 2a6.164 6.164 0 0 1 3.36.882A5.151 5.151 0 0 1 15.3 5.209l-3.358 1.359a2.22 2.22 0 0 0-.371-.648 2.38 2.38 0 0 0-.693-.594 1.789 1.789 0 0 0-.921-.245c-.268 0-.534.054-.781.159-.243.1-.456.264-.616.473-.163.215-.248.48-.241.749-.001.185.035.368.107.538H4.8ZM19 9H1v2h7.8c.048.016.09.036.138.052l.263.084c.516.156.97.312 1.363.468.386.151.74.37 1.048.648a1.29 1.29 0 0 1 .458.988 1.36 1.36 0 0 1-.251.781 1.807 1.807 0 0 1-.687.59c-.298.15-.627.227-.961.223a2.325 2.325 0 0 1-1.6-.622c-.454-.4-.798-.91-1-1.482l-3.4 1.4c.246.723.66 1.378 1.208 1.91a6.599 6.599 0 0 0 2.139 1.423c.848.36 1.76.543 2.682.537a5.928 5.928 0 0 0 2.816-.659 5.012 5.012 0 0 0 1.942-1.769c.46-.718.703-1.553.7-2.406a3.876 3.876 0 0 0-.6-2.166H19V9Z"/></svg>