<svg xmlns="http://www.w3.org/2000/svg" viewBox="0 0 20 20" fill="currentColor"><path d="M19.493 1.615a.629.629 0 0 0-.493-.24h-.877c-2.688 0-5.365-.33-7.972-.98a.594.594 0 0 0-.3 0c-2.608.65-5.285.98-7.972.98h-.88a.624.624 0 0 0-.605.776 32.91 32.91 0 0 1 .98 7.972v3.851a4.089 4.089 0 0 0 4.085 4.084 6.764 6.764 0 0 1 4.155 1.434.627.627 0 0 0 .772 0 6.764 6.764 0 0 1 4.155-1.434 4.09 4.09 0 0 0 4.084-4.084v-3.85c0-2.688.33-5.365.98-7.973a.625.625 0 0 0-.112-.536ZM1.877 2.625a34.158 34.158 0 0 0 7.5-.848v7.1H2.59a34.172 34.172 0 0 0-.8-6.25l.087-.002Zm.748 11.35v-3.85h6.75v7.735a7.999 7.999 0 0 0-3.916-1.052 2.837 2.837 0 0 1-2.834-2.834Zm11.916 2.833a7.999 7.999 0 0 0-3.916 1.052v-7.735h6.75v3.85a2.837 2.837 0 0 1-2.834 2.833Zm2.869-7.933h-6.785v-7.1c2.46.56 4.976.844 7.5.848h.086a34.174 34.174 0 0 0-.801 6.252Z"/></svg>