<svg xmlns="http://www.w3.org/2000/svg" viewBox="0 0 20 20" fill="currentColor"><path d="m6.447 8.472-.309.372-.479.575L1.75 5.548a.626.626 0 0 1-.015-.87A3.268 3.268 0 0 1 5.16 3.9l3.867 1.59c-.292.323-.57.657-.857.984L4.711 5.068a1.976 1.976 0 0 0-1.565.106l3.301 3.298Zm.344 10.833a1.123 1.123 0 0 0 .815-.722 4.965 4.965 0 0 0-.129-3.446l2.123-1.75 5.328 5.323.442-.442a3.265 3.265 0 0 0 .747-3.425l-2.126-5.221a122.4 122.4 0 0 0 2.568-2.443 12.172 12.172 0 0 0 2.623-3.9A1.875 1.875 0 0 0 16.7.828l-.055.024a12.167 12.167 0 0 0-3.74 2.553l-.172.17c-1.7 1.7-3.339 3.5-4.873 5.343l-3 3.607a4.959 4.959 0 0 0-3.448-.13A1.128 1.128 0 0 0 1 14.255L5.746 19a1.122 1.122 0 0 0 1.045.305Zm-2.42-5.63a1.11 1.11 0 0 0 1.387-.27l3.067-3.688a76.94 76.94 0 0 1 4.8-5.257l.172-.17A10.9 10.9 0 0 1 17.148 2l.057-.024a.606.606 0 0 1 .686.127.614.614 0 0 1 .138.69 10.909 10.909 0 0 1-2.354 3.5c-.722.723-2.06 1.97-2.6 2.473a1.111 1.111 0 0 0-.274 1.245l2.15 5.279a2 2 0 0 1-.095 1.579L10.4 12.422a1.123 1.123 0 0 0-1.51-.072L6.6 14.24a1.113 1.113 0 0 0-.272 1.392c.31.742.366 1.566.161 2.344l-4.464-4.463a3.655 3.655 0 0 1 2.345.163Z"/></svg>