<svg xmlns="http://www.w3.org/2000/svg" viewBox="0 0 20 20" fill="currentColor"><path d="M15.64 10.204a1.508 1.508 0 0 1-.827 1.66 1.497 1.497 0 0 1-2.08-.926 1.508 1.508 0 0 1-.033-.734c.018-.096.045-.19.08-.28.04-.091.087-.178.14-.261a1.03 1.03 0 0 1 .19-.221 1.546 1.546 0 0 1 2.12 0c.07.064.131.138.18.22.057.082.104.17.14.261.04.09.07.185.09.281ZM5.54 9.021c-.096.019-.19.05-.28.09a1.299 1.299 0 0 0-.26.14 1.506 1.506 0 0 0-.641 1.544c.021.097.051.191.092.281.032.094.08.182.14.261.164.246.397.438.67.552.09.04.183.07.28.09a1.476 1.476 0 0 0 1.35-.411c.068-.072.132-.15.19-.23.052-.084.099-.171.14-.261.037-.09.064-.185.08-.281a1.506 1.506 0 0 0-1.034-1.73 1.526 1.526 0 0 0-.726-.045Zm3.315 4.074h2.291v-1.253H8.855v1.253Zm11.125-2.497c.008.13.02.259.02.39v.189a.637.637 0 0 1-.018.116 7.323 7.323 0 0 1-2.967 5.41 11.344 11.344 0 0 1-7.014 2.296 11.343 11.343 0 0 1-7.015-2.296 7.316 7.316 0 0 1-2.967-5.415.588.588 0 0 1-.018-.111v-.188c0-.127.011-.254.019-.38a.543.543 0 0 1-.02-.101V2.62a1.106 1.106 0 0 1 .548-.956 1.173 1.173 0 0 1 1.153-.022l3.947 2.141a12.38 12.38 0 0 1 8.705 0L18.3 1.641a1.171 1.171 0 0 1 1.155.023A1.102 1.102 0 0 1 20 2.62v7.88a.546.546 0 0 1-.02.098Zm-1.24.558.008-.128v-.032a5.751 5.751 0 0 0-1.7-3.995l-.433-.452.9-.868.431.454c.292.305.56.634.8.982v-4.34l-4.057 2.25a.618.618 0 0 1-.654-.045.645.645 0 0 1-.1-.018c-2.538-.96-5.339-.96-7.877 0a.72.72 0 0 1-.091.016.62.62 0 0 1-.66.047L1.252 2.82v4.293c.24-.348.508-.676.8-.982l.43-.454.9.868-.432.452a5.751 5.751 0 0 0-1.7 3.995v.04l.008.108v.007a6.072 6.072 0 0 0 2.5 4.57A10.093 10.093 0 0 0 10 17.744a10.093 10.093 0 0 0 6.242-2.028 6.054 6.054 0 0 0 2.497-4.561Z"/></svg>