<svg xmlns="http://www.w3.org/2000/svg" viewBox="0 0 20 20" fill="currentColor"><path d="M5 3.723h9v-2H5a3 3 0 0 0-3 3h2a1 1 0 0 1 1-1Z"/><path d="M19.294 7.429A1.115 1.115 0 0 0 18.5 7.1h-.009l-2.345.018c-.218 0-.431.065-.613.185l-1.907 1.259V7.223A1.127 1.127 0 0 0 12.5 6.1h-11A1.127 1.127 0 0 0 .376 7.223v3.494a8.5 8.5 0 0 1 7.652 7.631H12.5a1.127 1.127 0 0 0 1.125-1.125v-1.339l1.91 1.26c.182.118.393.181.609.184l2.347.016h.009a1.125 1.125 0 0 0 1.125-1.125V8.226a1.116 1.116 0 0 0-.331-.797Z"/><path d="M.374 14.764v1.29a3.221 3.221 0 0 1 2.311 2.294h1.286a4.481 4.481 0 0 0-3.597-3.584Z"/><path d="M.374 12.1v1.275a5.856 5.856 0 0 1 5.007 4.973h1.263A7.12 7.12 0 0 0 .374 12.1Z"/></svg>