<svg xmlns="http://www.w3.org/2000/svg" viewBox="0 0 20 20" fill="currentColor"><path d="M7.819 9H2.181A1.185 1.185 0 0 1 1 7.812V2.188A1.185 1.185 0 0 1 2.181 1h5.638A1.185 1.185 0 0 1 9 2.188v5.624A1.185 1.185 0 0 1 7.819 9Zm-5.57-1.25h5.57L7.75 2.188l-5.569.062.068 5.5ZM17.819 9h-5.638A1.185 1.185 0 0 1 11 7.812V2.188A1.185 1.185 0 0 1 12.181 1h5.638A1.185 1.185 0 0 1 19 2.188v5.624A1.185 1.185 0 0 1 17.819 9ZM12.25 2.249v5.563l5.569-.062-.069-5.562-5.5.061ZM7.819 19H2.181A1.185 1.185 0 0 1 1 17.812v-5.624A1.185 1.185 0 0 1 2.181 11h5.638A1.185 1.185 0 0 1 9 12.188v5.624A1.185 1.185 0 0 1 7.819 19Zm-5.57-1.25h5.57l-.069-5.562-5.569.062.068 5.5ZM17.819 19h-5.638A1.185 1.185 0 0 1 11 17.812v-5.624A1.185 1.185 0 0 1 12.181 11h5.638A1.185 1.185 0 0 1 19 12.188v5.624A1.185 1.185 0 0 1 17.819 19Zm-5.569-6.751v5.563l5.569-.062-.069-5.562-5.5.061Z"/></svg>