<svg xmlns="http://www.w3.org/2000/svg" viewBox="0 0 20 20" fill="currentColor"><path d="M4.665 8.319v3.194a1.1 1.1 0 0 1-1.094 1.094h-.227a1.1 1.1 0 0 1-1.094-1.094V8.319a1.094 1.094 0 0 1 1.094-1.093h.227a1.094 1.094 0 0 1 1.094 1.093Zm5.493 1.571a1.505 1.505 0 0 0-1.929.708 1.217 1.217 0 0 0-.023.963 1.378 1.378 0 0 0 .783.76l3 1.2a.625.625 0 0 1-.464 1.16l-3-1.2a2.7 2.7 0 0 1-.9-.584c-.129.027-.26.041-.391.043h-.225c-.476 0-.94-.146-1.331-.419a2.342 2.342 0 0 1-2.107 1.336h-.227a2.32 2.32 0 0 1-1.335-.422 6.872 6.872 0 0 0 7.031 6.5l.684.008a7.044 7.044 0 0 0 6.618-4.6 3.468 3.468 0 0 0-.531-3.028c-.026-.041-.063-.069-.092-.107a1.428 1.428 0 0 0-.35-.208l-5.211-2.11Zm5.676.948c.134.06.263.13.386.209l1.515-7.977a1.676 1.676 0 0 0-.32-1.33 1.979 1.979 0 0 0-1.273-.751 1.938 1.938 0 0 0-2.257 1.442l-1.224 5-1.37-5.661a1.809 1.809 0 0 0-.852-1.151A2.039 2.039 0 0 0 8.958.368a1.947 1.947 0 0 0-1.238.8A1.674 1.674 0 0 0 7.458 2.5l.574 2.7a2.342 2.342 0 0 1 1.547 2.2v1.13c.358 0 .712.068 1.044.2l5.211 2.108Zm-8.743-.757a2.6 2.6 0 0 1 1.238-1.247V7.4a1.094 1.094 0 0 0-1.094-1.091h-.226A1.094 1.094 0 0 0 5.915 7.4v3.2a1.088 1.088 0 0 0 1.03 1.081 2.442 2.442 0 0 1 .146-1.6Z"/></svg>