<svg xmlns="http://www.w3.org/2000/svg" viewBox="0 0 20 20" fill="currentColor"><path d="M19.918 10.5a1.114 1.114 0 0 1-.33.8L14.3 16.588a1.127 1.127 0 0 1-1.592 0l-1.06-1.06a2.608 2.608 0 0 1-.769-1.856v-.913L7.241 9.125h-.913a2.607 2.607 0 0 1-1.856-.769L3.412 7.3a1.125 1.125 0 0 1 0-1.59L8.7.412a1.128 1.128 0 0 1 1.591 0l1.061 1.062a2.601 2.601 0 0 1 .77 1.856v.912l3.633 3.634h.913a2.607 2.607 0 0 1 1.856.769l1.061 1.061a1.12 1.12 0 0 1 .333.794ZM8.834 12.834l-1.392-1.392-.884-.884-5.5 5.5a2.04 2.04 0 0 0 2.883 2.884l5.5-5.5-.607-.608Z"/></svg>