<svg xmlns="http://www.w3.org/2000/svg" viewBox="0 0 20 20" fill="currentColor"><path d="m5.772 18.466-2.142-2 3.082-3.232-.794-1-3.268 3.451a1.145 1.145 0 0 0 .05 1.626L5 19.46c.213.197.491.307.78.307h.086a1.15 1.15 0 0 0 .81-.429l2.443-3.068-.8-1-2.547 3.197Z"/><path d="m17.35 15.684-4.232-4.437 1.047-1.315a6.937 6.937 0 0 0 1.645-4.045 5.778 5.778 0 0 0-1.7-4.113l-.227-.227L13 2.44l.219.22a4.54 4.54 0 0 1 1.338 3.228 5.795 5.795 0 0 1-1.385 3.281l-.928 1.166-1.381-1.448.96-1.009a2.69 2.69 0 0 0 .524-3.342l-.5-.864-.9.95.313.541a1.437 1.437 0 0 1 .058 1.33c-.087.19-.214.359-.372.495l-.951 1-.98-1.039a3.274 3.274 0 0 1 .415-3.734L9.625 3c.942-1.067 1.564-1.77 1.268-2.429a.885.885 0 0 0-.884-.495 5.816 5.816 0 0 0-5.817 5.811c.1 1.497.68 2.92 1.657 4.06l7.474 9.387a1.147 1.147 0 0 0 .81.43h.085c.29 0 .57-.109.783-.306l2.3-2.147a1.148 1.148 0 0 0 .048-1.627h.002Zm-3.12 2.782L6.839 9.184a5.813 5.813 0 0 1-1.4-3.3 4.563 4.563 0 0 1 3.932-4.52c-.216.27-.488.576-.686.8l-.2.223C7.312 3.734 6.852 6.2 8.047 7.74l.04.048 1.05 1.1-.012.013.272.26 6.975 7.311-2.142 1.995Z"/></svg>