<svg xmlns="http://www.w3.org/2000/svg" viewBox="0 0 20 20" fill="currentColor"><path d="M4.711 12.664A2.8 2.8 0 0 1 3.6 11.583 3.108 3.108 0 0 1 3.2 10a3.052 3.052 0 0 1 .411-1.583c.267-.46.659-.834 1.129-1.082a3.37 3.37 0 0 1 1.616-.385c.333 0 .664.043.986.128.309.081.605.205.879.369l-.5 1.169a1.314 1.314 0 0 0-.563-.357 2.3 2.3 0 0 0-.754-.124 1.733 1.733 0 0 0-1.863 1.848c-.006.344.073.684.232.99a1.7 1.7 0 0 0 1.542.925c.258.004.513-.051.746-.162.209-.097.387-.25.513-.443.121-.185.185-.401.183-.622H6.124V9.619L9 9.6v.928a2.4 2.4 0 0 1-1.293 2.193 2.955 2.955 0 0 1-1.417.328 3.247 3.247 0 0 1-1.579-.385Zm5.471-5.648H11.5v5.968h-1.318V7.016Zm2.862 0H16.5v1.169h-2.138v1.392h1.79v1.169h-1.79v2.238h-1.318V7.016ZM10 20a18.04 18.04 0 0 1-6.369-1.162 4.226 4.226 0 0 1-2.469-2.47 18.033 18.033 0 0 1 0-12.737 4.228 4.228 0 0 1 2.469-2.469 18.116 18.116 0 0 1 12.738 0 4.228 4.228 0 0 1 2.469 2.469 18.035 18.035 0 0 1 0 12.738 4.225 4.225 0 0 1-2.469 2.469A18.04 18.04 0 0 1 10 20Zm0-18.75a16.8 16.8 0 0 0-5.929 1.082 2.978 2.978 0 0 0-1.739 1.739 16.783 16.783 0 0 0 0 11.857 2.98 2.98 0 0 0 1.739 1.74 16.858 16.858 0 0 0 11.858 0 2.978 2.978 0 0 0 1.739-1.739 16.785 16.785 0 0 0 0-11.858 2.978 2.978 0 0 0-1.739-1.739A16.8 16.8 0 0 0 10 1.25Z"/></svg>