<svg xmlns="http://www.w3.org/2000/svg" viewBox="0 0 20 20" fill="currentColor"><path d="M11.61 19.872a10.013 10.013 0 0 0 6.51-4.035A9.999 9.999 0 0 0 12.275.264c-1.28-.3-2.606-.345-3.903-.132a10.05 10.05 0 0 0-8.25 8.311 9.877 9.877 0 0 0 1.202 6.491l-1.24 4.078a.727.727 0 0 0 .178.721.72.72 0 0 0 .72.19l4.17-1.193A9.87 9.87 0 0 0 9.998 20c.54 0 1.079-.043 1.612-.128ZM1.558 18.458l1.118-3.69-.145-.24A8.647 8.647 0 0 1 1.36 8.634a8.778 8.778 0 0 1 7.21-7.27 8.765 8.765 0 0 1 8.916 3.995 8.748 8.748 0 0 1-2.849 12.09 8.763 8.763 0 0 1-3.22 1.188 8.68 8.68 0 0 1-5.862-1.118l-.232-.138-3.764 1.076ZM6.006 9a1.001 1.001 0 0 0-.708 1.707A1 1 0 1 0 6.006 9Zm4.002 0a1.001 1.001 0 0 0-.195 1.981 1 1 0 1 0 .195-1.98Zm4.003 0a1.001 1.001 0 1 0 0 2.003 1.001 1.001 0 0 0 0-2.003Z"/></svg>