<svg xmlns="http://www.w3.org/2000/svg" viewBox="0 0 20 20" fill="currentColor"><path d="M18.451 12.275 8.381 2.184A.622.622 0 0 0 7.937 2H2.625A.625.625 0 0 0 2 2.625v5.437c0 .165.065.323.181.44l9.967 10.071c.12.115.279.181.444.186a.625.625 0 0 0 .442-.183l5.417-5.417a.627.627 0 0 0 0-.884Zm-12.7-4.817a1.417 1.417 0 1 1 0-2.834 1.417 1.417 0 0 1 0 2.834Zm11.788-2.269-1.748-1.921-1.678 1.909-1.5-1.321 2.417-2.75a1 1 0 0 1 .74-.339h.01a1 1 0 0 1 .738.327l2.5 2.75-1.479 1.345ZM3.912 19.233H3.9a1 1 0 0 1-.753-.35L.734 16.05l1.522-1.3 1.668 1.957 1.738-1.97 1.5 1.324-2.5 2.839a1 1 0 0 1-.75.333Z"/></svg>