<svg xmlns="http://www.w3.org/2000/svg" viewBox="0 0 20 20" fill="currentColor"><path d="M15.875 8H2.125A1.127 1.127 0 0 1 1 6.875v-4.75A1.127 1.127 0 0 1 2.125 1h13.75A1.127 1.127 0 0 1 17 2.125v4.75A1.127 1.127 0 0 1 15.875 8ZM18 3.5v4.4a1.078 1.078 0 0 1-.937.972l-6.519 1.3A3.074 3.074 0 0 0 8 13.1v.022a1.625 1.625 0 0 0-1 1.5v2.75A1.627 1.627 0 0 0 8.625 19h.75A1.627 1.627 0 0 0 11 17.375v-2.75a1.625 1.625 0 0 0-1-1.5V13.1a1.078 1.078 0 0 1 .937-.972l6.519-1.3A3.074 3.074 0 0 0 20 7.9V3.5h-2Z"/></svg>