<svg xmlns="http://www.w3.org/2000/svg" viewBox="0 0 20 20" fill="currentColor"><path d="M8.26 14.44H6.812v-.09l.121-.163A9.414 9.414 0 0 0 8.738 9.6l-1.726.87A2.591 2.591 0 0 1 4 9.98l-.669-.673a1.135 1.135 0 0 1-.1-1.467l4.2-5.655H5.818V.935h2.61A7.606 7.606 0 0 1 16 8.56v5.88h-1.25V8.56a6.363 6.363 0 0 0-5.778-6.352L4.289 8.5l.594.6a1.344 1.344 0 0 0 1.566.256l1.934-.974a1.1 1.1 0 0 1 1.126.073A1.145 1.145 0 0 1 10 9.5a10.65 10.65 0 0 1-1.74 4.94ZM18 17.625A1.618 1.618 0 0 0 16.393 16H4.607A1.618 1.618 0 0 0 3 17.625v2.325h1.25v-2.325a.367.367 0 0 1 .357-.375h11.786a.367.367 0 0 1 .357.375v2.325H18v-2.325Z"/></svg>