<svg xmlns="http://www.w3.org/2000/svg" viewBox="0 0 20 20" fill="currentColor"><path d="M10 17.384a9.32 9.32 0 0 0 5.271-1.628l.787 2.117a1.655 1.655 0 0 1-.184 1.523 1.351 1.351 0 0 1-1.115.6H5.141a1.352 1.352 0 0 1-1.116-.6 1.656 1.656 0 0 1-.183-1.523l.81-2.173A9.314 9.314 0 0 0 10 17.384Zm7.963-8.652A8.02 8.02 0 1 1 14.8 1.625c-.22.171-.405.383-.546.623l-.413.739-.737.412a2.24 2.24 0 0 0 0 3.912l.74.413.412.739v.006a2.242 2.242 0 0 0 1.952 1.14h.006a2.221 2.221 0 0 0 1.75-.877ZM9.95 3.088A4.917 4.917 0 0 0 5.038 8h1.25A3.666 3.666 0 0 1 9.95 4.338v-1.25Zm8.7 1.513L17.567 4l-.6-1.077a.864.864 0 0 0-1.509-.002L14.852 4l-1.078.6a.863.863 0 0 0 0 1.509l1.08.6.6 1.079a.868.868 0 0 0 1.19.321.864.864 0 0 0 .317-.323l.6-1.078 1.081-.6a.864.864 0 0 0 0-1.509l.008.002Z"/></svg>