<svg xmlns="http://www.w3.org/2000/svg" viewBox="0 0 20 20" fill="currentColor"><path d="M16.5 11.667v-1.25h3.468a9.941 9.941 0 0 0-9.32-9.361v3.467H9.4V1.054a9.941 9.941 0 0 0-5.99 2.462L5.861 5.97l-.884.884L2.523 4.4a9.945 9.945 0 0 0-2.487 5.975H3.5v1.25H.034A9.943 9.943 0 0 0 2.5 17.612l2.453-2.453.885.884L3.6 18.275h12.74l-2.2-2.2.884-.884 2.455 2.455a9.942 9.942 0 0 0 2.487-5.976l-3.466-.003Zm-1.2-4.355-3.995 5.242a.515.515 0 0 1-.086.088c-.394.32-.886.497-1.395.5-.057 0-.116 0-.174-.007a2.025 2.025 0 0 1-1.437-.759 2.053 2.053 0 0 1-.426-1.576c.078-.566.372-1.08.821-1.434.05-.04.106-.07.166-.088L14.7 6.554a.5.5 0 0 1 .607.758H15.3Z"/></svg>