<svg xmlns="http://www.w3.org/2000/svg" viewBox="0 0 20 20" fill="currentColor"><path d="M9.875 7.614a2.055 2.055 0 0 0-.974.222 1.62 1.62 0 0 0-.879 1.46v4.2H6.409V6.2h1.552v.93H8c.275-.32.616-.575 1-.748.453-.207.947-.31 1.445-.3.243-.003.487.02.725.071.158.03.31.084.451.161l-.649 1.559a1.731 1.731 0 0 0-.523-.2 2.755 2.755 0 0 0-.574-.059ZM20 10A10 10 0 1 1 10 0a10.011 10.011 0 0 1 10 10Zm-1.25 0a8.722 8.722 0 0 0-2.841-6.435l-4.974 11.986H9.581l5.3-12.809A8.748 8.748 0 1 0 18.75 10Z"/></svg>