<svg xmlns="http://www.w3.org/2000/svg" viewBox="0 0 20 20" fill="currentColor"><path d="M17.154 6.75H15.9A2.753 2.753 0 0 0 13.154 4V2.75A2.753 2.753 0 0 0 15.9 0h1.25a2.752 2.752 0 0 0 2.75 2.75V4a2.752 2.752 0 0 0-2.747 2.75ZM15.3 3.375c.494.316.914.735 1.23 1.23a4.02 4.02 0 0 1 1.23-1.23 4.02 4.02 0 0 1-1.23-1.23 4.032 4.032 0 0 1-1.23 1.23ZM16.153 19H14.9a2.253 2.253 0 0 0-2.25-2.25V15.5a2.253 2.253 0 0 0 2.25-2.25h1.25a2.253 2.253 0 0 0 2.25 2.25v1.25A2.253 2.253 0 0 0 16.153 19Zm-1.506-2.875c.343.24.642.537.88.881.24-.344.538-.642.882-.881a3.512 3.512 0 0 1-.881-.881c-.24.344-.538.642-.881.881ZM9.216 18.5h-1.33l-.085-.526c-.725-4.557-2.684-6.521-7.224-7.248l-.526-.084V9.358l.527-.084c4.54-.727 6.5-2.691 7.224-7.248l.084-.526h1.33l.084.526c.725 4.557 2.684 6.521 7.225 7.248l.526.084v1.284l-.526.084c-4.541.727-6.5 2.691-7.225 7.248l-.084.526ZM2.982 10a7.858 7.858 0 0 1 5.569 5.634A7.858 7.858 0 0 1 14.12 10a7.858 7.858 0 0 1-5.57-5.634A7.858 7.858 0 0 1 2.98 10Z"/></svg>