<svg xmlns="http://www.w3.org/2000/svg" viewBox="0 0 20 20" fill="currentColor"><path d="M18.854 5H1.146A1.131 1.131 0 0 0 0 6.112v5.257a4.673 4.673 0 0 0 3.9 4.564 4.71 4.71 0 0 0 5.41-3.35c.028-.108.053-.24.079-.385.155-.847.295-1 .611-1 .355 0 .478.125.608.952a4.513 4.513 0 0 0 3.055 3.592 5.38 5.38 0 0 0 1.625.258 4.845 4.845 0 0 0 2.879-.932 4.38 4.38 0 0 0 1.767-2.819H20V6.112A1.131 1.131 0 0 0 18.854 5ZM4.1 14.7a3.414 3.414 0 0 1-2.715-2.45H8.1l-.013.061a3.5 3.5 0 0 1-3.987 2.39Zm13.333-.638a3.746 3.746 0 0 1-3.39.491A3.269 3.269 0 0 1 11.9 12.26v-.01h6.767a3.183 3.183 0 0 1-1.238 1.811l.004.001ZM18.75 11h-7.158A1.6 1.6 0 0 0 10 9.95 1.61 1.61 0 0 0 8.436 11H1.25V9.25h17.5V11ZM1.25 8V6.25h17.5V8H1.25Z"/></svg>