<svg xmlns="http://www.w3.org/2000/svg" viewBox="0 0 20 20" fill="currentColor"><path d="M10 18.5c-.201 0-.4-.053-.573-.155C7.943 17.482.513 12.902.022 7.366a5.352 5.352 0 0 1 4.669-5.798A5.685 5.685 0 0 1 10 3.63a5.673 5.673 0 0 1 5.308-2.062 5.355 5.355 0 0 1 4.669 5.798c-.491 5.532-7.92 10.116-9.405 10.979a1.14 1.14 0 0 1-.572.155ZM5.548 2.756a4.7 4.7 0 0 0-.677.049 4.118 4.118 0 0 0-3.6 4.45c.431 4.857 7.22 9.095 8.73 9.978 1.51-.884 8.3-5.122 8.733-9.978a4.117 4.117 0 0 0-3.603-4.45 4.376 4.376 0 0 0-4.573 2.266.65.65 0 0 1-1.114 0 4.324 4.324 0 0 0-3.896-2.315Z"/></svg>