<svg xmlns="http://www.w3.org/2000/svg" viewBox="0 0 20 20" fill="currentColor"><path d="M10.492 0A8.569 8.569 0 0 0 2 8.56l-.987 4.757a.625.625 0 0 0 .336.688L3 14.819v3.556a.625.625 0 0 0 .625.625h3.912a.63.63 0 0 0 .347-.105l2.8-1.869A8.514 8.514 0 0 0 10.492 0ZM6.48 4.539a5.673 5.673 0 0 1 8.028 0 .75.75 0 0 1 0 1.061l-1.645 1.645c.227.4.348.851.351 1.311a2.725 2.725 0 0 1-2.72 2.722h-.75v-1.5h.75a1.223 1.223 0 1 0-1.22-1.222v.75h-1.5v-.75a2.725 2.725 0 0 1 2.72-2.723c.458.003.909.124 1.308.351l1.068-1.068a4.27 4.27 0 0 0-5.33.484l-.529.53-1.062-1.06.531-.531Zm9.69 3.905a5.676 5.676 0 1 1-11.353 0v-.75h1.5v.75a4.177 4.177 0 1 0 8.353 0v-.75h1.5v.75Z"/></svg>