<svg xmlns="http://www.w3.org/2000/svg" viewBox="0 0 20 20" fill="currentColor"><path d="M2.625 15.375V16A1.627 1.627 0 0 1 1 14.375V2.625A1.627 1.627 0 0 1 2.625 1h11.75A1.627 1.627 0 0 1 16 2.625H5.622a3 3 0 0 0-3 3l.003 9.75ZM19 5.622v11.756A1.624 1.624 0 0 1 17.378 19H5.622A1.624 1.624 0 0 1 4 17.378V5.622A1.624 1.624 0 0 1 5.622 4h11.756A1.624 1.624 0 0 1 19 5.622ZM13.148 8.9l.956.954 1.7-1.7-.955-.954-1.701 1.7Zm-7.059 3.275h2.4v-1.35h-2.4v1.35ZM9.852 14.1l-.952-.951-1.7 1.7.955.954L9.852 14.1Zm0-5.206-1.7-1.7-.952.956 1.7 1.7.952-.956Zm2.323 5.609h-1.35v2.406h1.35v-2.406Zm0-8.418h-1.35v2.409h1.35V6.085ZM15.8 14.85l-1.7-1.7-.956.954 1.7 1.7.956-.954Zm1.107-4.025h-2.4v1.35h2.4v-1.35Z"/></svg>