<svg xmlns="http://www.w3.org/2000/svg" viewBox="0 0 20 20" fill="currentColor"><path d="M7.625 11.481v1.374L6 12.112l-4.115 1.881A.625.625 0 0 1 1 13.425v-11.3A1.151 1.151 0 0 1 2.172 1h7.656A1.15 1.15 0 0 1 11 2.125v2.5h-.828a2.548 2.548 0 0 0-.422.042V2.25h-7.5v10.2l3.49-1.6a.632.632 0 0 1 .52 0l1.365.631Zm11.088 7.469a.623.623 0 0 0 .287-.525v-11.3A1.15 1.15 0 0 0 17.828 6h-7.656A1.151 1.151 0 0 0 9 7.125v11.3a.625.625 0 0 0 .885.568L14 17.112l4.115 1.881a.627.627 0 0 0 .598-.043Zm-4.973-3.094-3.49 1.6V7.25h7.5v10.2l-3.49-1.6a.632.632 0 0 0-.52 0v.006Z"/></svg>