<svg xmlns="http://www.w3.org/2000/svg" viewBox="0 0 20 20" fill="currentColor"><path d="M11 18h1a2 2 0 0 1-4 0h3Zm8-3.792v.673A1.12 1.12 0 0 1 17.883 16H2.117A1.12 1.12 0 0 1 1 14.881v-.673a3.947 3.947 0 0 1 1.738-3.277A2.706 2.706 0 0 0 3.926 8.7V7.087a6.07 6.07 0 0 1 12.138 0l.01 1.613a2.7 2.7 0 0 0 1.189 2.235A3.949 3.949 0 0 1 19 14.208Zm-1.25 0a2.7 2.7 0 0 0-1.188-2.242A3.956 3.956 0 0 1 14.824 8.7V7.088a4.819 4.819 0 1 0-9.638 0v1.615a3.956 3.956 0 0 1-1.738 3.266 2.7 2.7 0 0 0-1.198 2.239v.542h15.5v-.542Z"/></svg>