<svg xmlns="http://www.w3.org/2000/svg" viewBox="0 0 20 20" fill="currentColor"><path d="m17.583 4.588-2.03-2.234L13.6 4.58l-.939-.826L15.076 1a.626.626 0 0 1 .464-.208.54.54 0 0 1 .468.2l2.5 2.75-.925.846ZM4.46 19.208A.628.628 0 0 0 4.924 19l2.417-2.75-.94-.83-1.954 2.226-2.03-2.234-.925.842L3.992 19a.63.63 0 0 0 .463.2l.005.008Zm1.29-11.75a1.417 1.417 0 1 0 0-2.834 1.417 1.417 0 0 0 0 2.834Zm7.284 11.118 5.417-5.417a.627.627 0 0 0 0-.884L8.381 2.184A.622.622 0 0 0 7.937 2H2.625A.625.625 0 0 0 2 2.625v5.437c0 .165.065.323.181.44l9.966 10.071a.629.629 0 0 0 .887.003ZM3.25 3.25h4.428l9.447 9.467-4.53 4.531L3.25 7.806V3.25Z"/></svg>