<svg xmlns="http://www.w3.org/2000/svg" viewBox="0 0 20 20" fill="currentColor"><path d="M14.249 13.434a5.464 5.464 0 0 0-1.325-.525A4.897 4.897 0 0 0 10 4.08 4.902 4.902 0 0 0 5.348 7.44a4.895 4.895 0 0 0 1.728 5.469 5.464 5.464 0 0 0-1.325.525 6.143 6.143 0 0 1 4.25-10.582 6.149 6.149 0 0 1 5.705 3.855 6.14 6.14 0 0 1-1.455 6.728h-.002Zm-9.782.986A7.744 7.744 0 0 1 10 1.25a7.753 7.753 0 0 1 7.146 4.747 7.742 7.742 0 0 1-1.613 8.423c.295.3.557.629.783.983A8.993 8.993 0 0 0 10 0a9.003 9.003 0 0 0-8.328 5.584 8.99 8.99 0 0 0 2.012 9.82c.226-.355.488-.685.783-.984Zm7.114-.417H8.419A4.57 4.57 0 0 0 4 18.701v.34a.952.952 0 0 0 .941.959h10.118a.954.954 0 0 0 .941-.962V18.7a4.565 4.565 0 0 0-4.419-4.698Zm3.169 4.752h-9.5V18.7a3.32 3.32 0 0 1 3.169-3.45h3.162a3.323 3.323 0 0 1 3.169 3.45v.054ZM10 5.59a3.418 3.418 0 0 0-3.351 4.081 3.414 3.414 0 0 0 4.659 2.489 3.416 3.416 0 0 0 2.109-3.155A3.418 3.418 0 0 0 10 5.59Zm0 5.58a2.168 2.168 0 0 1-2.125-2.588 2.166 2.166 0 0 1 2.954-1.578 2.167 2.167 0 0 1 1.338 2A2.167 2.167 0 0 1 10 11.173Z"/></svg>