<svg xmlns="http://www.w3.org/2000/svg" viewBox="0 0 20 20" fill="currentColor"><path d="M15.175 13.11c-.237.462-.428.6-.514.627l-.133-.035c-.439-.238-1.278-2.03-1.278-5.2 0-2.95.729-4.718 1.184-5.144l.245-.087c.095.042.276.192.5.62l.284.556 1.113-.57-.285-.556c-.541-1.057-1.17-1.3-1.618-1.316h-.044a1.4 1.4 0 0 0-.754.23L3.7 5.852c-.915-.552-1.847-.991-2.61-.58C.237 5.735.044 6.98 0 9c.047 2 .24 3.245 1.093 3.7.783.423 1.754-.06 2.7-.637.288.1.685.218 1.224.37v4.347a1.122 1.122 0 0 0 1.121 1.12h2.75a1.123 1.123 0 0 0 1.122-1.12v-3l4.028 1.075c.183.088.384.134.587.135.45 0 1.1-.23 1.661-1.32l.285-.555-1.113-.57-.283.566Zm-11.882-2.2c-1.247.782-1.546.734-1.607.7C1.6 11.56 1.3 11.229 1.25 9c.049-2.25.345-2.582.434-2.63.064-.033.361-.081 1.61.7a.624.624 0 0 0 .54.058l8.838-3.146A13.9 13.9 0 0 0 12 8.5c-.034 1.608.221 3.21.754 4.728L3.79 10.834a.622.622 0 0 0-.497.073v.004Zm2.97 5.753v-3.877c.678.184 1.507.405 2.5.67v3.2l-2.5.007ZM19.25 8v1.25H16V8h3.25Zm-3.477-2.674 2.82-1.594.615 1.088-2.819 1.594-.616-1.088Zm.616 5.26 2.819 1.594-.615 1.088-2.82-1.594.616-1.088Z"/></svg>