<svg xmlns="http://www.w3.org/2000/svg" viewBox="0 0 20 20" fill="currentColor"><path d="M18.838 3.631a4.228 4.228 0 0 0-2.469-2.469 18.116 18.116 0 0 0-12.738 0 4.228 4.228 0 0 0-2.469 2.469 18.033 18.033 0 0 0 0 12.737 4.226 4.226 0 0 0 2.469 2.47 18.036 18.036 0 0 0 12.738 0 4.225 4.225 0 0 0 2.469-2.469 18.036 18.036 0 0 0 0-12.738Zm-1.17 12.3a2.98 2.98 0 0 1-1.739 1.739 16.858 16.858 0 0 1-11.858 0 2.98 2.98 0 0 1-1.739-1.74 16.783 16.783 0 0 1 0-11.857 2.978 2.978 0 0 1 1.739-1.741 16.785 16.785 0 0 1 11.858 0 2.98 2.98 0 0 1 1.739 1.739 16.785 16.785 0 0 1 0 11.858v.002Z"/><path d="M14 9.392 8.119 5.6A.725.725 0 0 0 7 6.2v7.6a.725.725 0 0 0 1.118.609L14 10.608a.827.827 0 0 0 .333-.608.827.827 0 0 0-.333-.608Zm-5.75 3.441V7.167L12.64 10l-4.39 2.833Z"/></svg>