<svg xmlns="http://www.w3.org/2000/svg" viewBox="0 0 20 20" fill="currentColor"><path d="M17.071 2.929A10 10 0 0 0 2.93 17.07 10 10 0 0 0 17.071 2.929Zm-.884 13.258A8.75 8.75 0 0 1 3.813 3.813a8.75 8.75 0 0 1 12.374 12.374Zm-.1-8.733-3.08 1.028a3.356 3.356 0 0 0-6.016.005l-3.1-1.033-.39 1.185 3.148 1.05c-.01.1-.032.2-.032.31a3.384 3.384 0 0 0 2.758 3.32v3.3h1.25v-3.3a3.383 3.383 0 0 0 2.757-3.32c0-.107-.022-.21-.032-.315l3.135-1.045-.398-1.185ZM10 12.132a2.132 2.132 0 1 1 0-4.264 2.132 2.132 0 0 1 0 4.264Z"/></svg>