<svg xmlns="http://www.w3.org/2000/svg" viewBox="0 0 20 20" fill="currentColor"><path d="m19.683 5.252-3.87-3.92a1.128 1.128 0 0 0-.8-.332h-1.55a1.093 1.093 0 0 0-1.1.91 1.9 1.9 0 0 1-3.744 0A1.094 1.094 0 0 0 7.533 1h-1.55c-.3 0-.588.12-.8.332L1.317 5.253a1.1 1.1 0 0 0 .014 1.557l1.87 1.829a1.121 1.121 0 0 0 1.48.076l.32-.24v1.936c.344-.31.786-.49 1.25-.511V5.977L3.993 7.668l-1.68-1.646L6.036 2.25H7.42a3.156 3.156 0 0 0 6.16 0h1.383l3.723 3.772-1.7 1.668-2.236-1.749v8.138c.501.337.927.774 1.25 1.284V8.509l.338.264a1.117 1.117 0 0 0 1.436-.109l1.894-1.853a1.101 1.101 0 0 0 .015-1.559ZM13.691 20H1.31A1.325 1.325 0 0 1 0 18.663v-4.916a1.03 1.03 0 0 1 .5-.884.988.988 0 0 1 .98-.014 3 3 0 0 0 3.3-.266c.334-.342.649-.702.944-1.078a.624.624 0 0 1 .775-.163l6.75 3.5A2.945 2.945 0 0 1 15 17.584v1.079A1.325 1.325 0 0 1 13.691 20Zm-12.44-5.873v4.536c0 .054.033.087.058.087h12.382c.025 0 .06-.033.06-.087v-1.079a1.72 1.72 0 0 0-1.035-1.609l-6.349-3.29a9.24 9.24 0 0 1-.76.831 4.235 4.235 0 0 1-4.357.611Zm4.022 4.042-.9-.862 3.138-3.3.9.862-3.138 3.3Zm3.04 0-.913-.857 2.09-2.219.91.857-2.088 2.219Z"/></svg>