<svg xmlns="http://www.w3.org/2000/svg" viewBox="0 0 20 20" fill="currentColor"><path d="M11.875 7h-3.75A1.127 1.127 0 0 0 7 8.125v3.75A1.127 1.127 0 0 0 8.125 13h3.75A1.127 1.127 0 0 0 13 11.875v-3.75A1.127 1.127 0 0 0 11.875 7Zm-.125 4.75h-3.5v-3.5h3.5v3.5Z"/><path d="M19 7.625v-1.25h-2v-1.75A1.627 1.627 0 0 0 15.375 3h-1.75V1h-1.25v2h-1.75V1h-1.25v2h-1.75V1h-1.25v2h-1.75A1.627 1.627 0 0 0 3 4.625v1.75H1v1.25h2v1.75H1v1.25h2v1.75H1v1.25h2v1.75A1.627 1.627 0 0 0 4.625 17h1.75v2h1.25v-2h1.75v2h1.25v-2h1.75v2h1.25v-2h1.75A1.627 1.627 0 0 0 17 15.375v-1.75h2v-1.25h-2v-1.75h2v-1.25h-2v-1.75h2Zm-3.25 7.75a.375.375 0 0 1-.375.375H4.625a.375.375 0 0 1-.375-.375V4.625a.375.375 0 0 1 .375-.375h10.75a.375.375 0 0 1 .375.375v10.75Z"/></svg>