<svg xmlns="http://www.w3.org/2000/svg" viewBox="0 0 20 20" fill="currentColor"><path d="M17.75 11H19v6.954A1.053 1.053 0 0 1 17.942 19h-5.195a.71.71 0 0 1-.711-.709V12.25H7.964v6.041a.711.711 0 0 1-.711.709H2.058A1.053 1.053 0 0 1 1 17.954V11h1.25v6.75h4.464v-6.125A.625.625 0 0 1 7.339 11h5.322a.624.624 0 0 1 .625.625v6.125h4.464V11ZM20 5.446v1.741A2.9 2.9 0 0 1 17.031 10h-.242a3.019 3.019 0 0 1-2.183-.909 3.012 3.012 0 0 1-2.181.909h-.242A3.02 3.02 0 0 1 10 9.093 3.019 3.019 0 0 1 7.817 10h-.242a3.01 3.01 0 0 1-2.181-.909A3.02 3.02 0 0 1 3.211 10h-.242A2.9 2.9 0 0 1 0 7.187V5.446c0-.103.025-.204.074-.295l2.043-3.82A.626.626 0 0 1 2.668 1h14.664a.626.626 0 0 1 .551.33l2.043 3.82a.624.624 0 0 1 .074.296ZM1.706 4.75h16.588l-1.337-2.5H3.043l-1.337 2.5ZM18.75 7.187V6H1.25v1.187a1.649 1.649 0 0 0 1.719 1.564h.242a1.727 1.727 0 0 0 1.6-1.02.627.627 0 0 1 1.157 0 1.724 1.724 0 0 0 1.6 1.02h.242a1.725 1.725 0 0 0 1.605-1.02.653.653 0 0 1 1.156 0 1.725 1.725 0 0 0 1.605 1.02h.242a1.724 1.724 0 0 0 1.6-1.02.627.627 0 0 1 1.157 0 1.726 1.726 0 0 0 1.6 1.02h.242a1.649 1.649 0 0 0 1.733-1.564Z"/></svg>