<svg xmlns="http://www.w3.org/2000/svg" viewBox="0 0 20 20" fill="currentColor"><path d="M17.852 4h-3.664a4.932 4.932 0 0 0-3.563 1.5A4.67 4.67 0 0 0 5.812 1H2.148A1.131 1.131 0 0 0 1 2.109v3.39A4.67 4.67 0 0 0 5.812 10h3.563v5.065A4.016 4.016 0 0 0 6 19.03v.625h1.25v-.625a2.75 2.75 0 0 1 5.5 0v.625H14v-.625a4.016 4.016 0 0 0-3.375-3.966V13h3.563A4.67 4.67 0 0 0 19 8.5V5.109a1.13 1.13 0 0 0-1.148-1.11ZM5.812 8.75A3.421 3.421 0 0 1 2.25 5.5V2.25h3.562A3.421 3.421 0 0 1 9.375 5.5v3.25H5.812ZM17.75 8.5a3.421 3.421 0 0 1-3.562 3.25h-3.563V8.5a3.421 3.421 0 0 1 3.563-3.25h3.562V8.5Z"/></svg>