<svg xmlns="http://www.w3.org/2000/svg" viewBox="0 0 20 20" fill="currentColor"><path d="M1 3.625a2.625 2.625 0 0 1 5.25 0 2.5 2.5 0 0 1-.029.289 4.092 4.092 0 0 1 4.232.883l1.757 1.582-1.339 1.485-1.795-1.617a2.025 2.025 0 0 0-2.865-.036 1.994 1.994 0 0 0-.527.927l-.243.97L3.5 7.624l.243-.97c.038-.146.085-.29.139-.43-.086.008-.17.026-.258.026A2.629 2.629 0 0 1 1 3.625Zm12.789 2.586a1.985 1.985 0 0 1 .422 2.203c-.107.25-.262.475-.458.663l-1.617 1.794 1.485 1.339 1.579-1.756a3.96 3.96 0 0 0 .909-4.231c.087.014.175.023.263.027a2.625 2.625 0 1 0-2.622-2.625c.004.086.013.173.026.258-.14-.054-.285-.1-.431-.139l-.971-.244-.482 1.941.97.242c.351.088.672.27.927.528Zm2.586 7.539c-.088 0-.172.018-.258.026.054-.14.1-.284.139-.43l.243-.97-1.94-.484-.243.97c-.088.351-.27.672-.527.927a2.024 2.024 0 0 1-2.865-.036l-1.795-1.617-1.339 1.485L9.547 15.2a3.958 3.958 0 0 0 4.23.909 2.547 2.547 0 0 0-.027.263 2.625 2.625 0 1 0 2.625-2.625v.003Zm-10.164.039a1.986 1.986 0 0 1-.422-2.203c.107-.25.262-.475.458-.663l1.617-1.794L6.379 7.79 4.8 9.546a3.959 3.959 0 0 0-.909 4.231 2.549 2.549 0 0 0-.263-.027 2.626 2.626 0 1 0 2.622 2.625 2.45 2.45 0 0 0-.026-.258c.14.054.285.1.431.139l.971.242.482-1.941-.97-.242a1.986 1.986 0 0 1-.927-.526Z"/></svg>