<svg xmlns="http://www.w3.org/2000/svg" viewBox="0 0 20 20" fill="currentColor"><path d="M17.381 6H7.619A1.621 1.621 0 0 0 6 7.619v9.762A1.621 1.621 0 0 0 7.619 19h9.762A1.62 1.62 0 0 0 19 17.381V7.619A1.62 1.62 0 0 0 17.381 6ZM9.5 10.763a1.263 1.263 0 1 1 0-2.526 1.263 1.263 0 0 1 0 2.526Zm3 3a1.263 1.263 0 1 1 0-2.526 1.263 1.263 0 0 1 0 2.526Zm2.908 2.908a1.263 1.263 0 1 1-.002-2.526 1.263 1.263 0 0 1 .002 2.526ZM11.369 1H2.631A1.633 1.633 0 0 0 1 2.632v8.736A1.633 1.633 0 0 0 2.631 13H4.625v-2.95a1.263 1.263 0 1 1 0-1.1V7.619a3 3 0 0 1 2.994-2.994h1.333a1.263 1.263 0 1 1 1.1 0H13V2.632A1.633 1.633 0 0 0 11.369 1ZM3.5 4.763a1.263 1.263 0 1 1 0-2.526 1.263 1.263 0 0 1 0 2.526Z"/></svg>