<svg xmlns="http://www.w3.org/2000/svg" viewBox="0 0 20 20" fill="currentColor"><path d="M15.954 6.894A10.6 10.6 0 0 0 12 6.125c-.339 0-.673.031-1.007.063-.013-.15-.037-.3-.074-.446a3.016 3.016 0 0 0-3.682-2.068 2.917 2.917 0 0 0-2.125 3.582c.103.37.278.716.516 1.018a10.226 10.226 0 0 0-2.323 2.415A8.615 8.615 0 0 1 1.97 9.683 8.192 8.192 0 0 1 .211 7.377a1.94 1.94 0 0 1 0-1.753A8.757 8.757 0 0 1 8.014 1a8.679 8.679 0 0 1 7.735 4.5c.226.428.298.92.205 1.394Zm3.654 7.6a8.198 8.198 0 0 1-2 2.488 8.78 8.78 0 0 1-11.55-.3 8.174 8.174 0 0 1-1.729-2.309 1.968 1.968 0 0 1 0-1.745A8.586 8.586 0 0 1 12 8a8.5 8.5 0 0 1 7.6 4.5 2.143 2.143 0 0 1 .01 1.991v.003Zm-4.759-1.752a2.947 2.947 0 1 0-2.086 3.583 2.923 2.923 0 0 0 2.086-3.583Z"/></svg>