<svg xmlns="http://www.w3.org/2000/svg" viewBox="0 0 20 20" fill="currentColor"><path d="M18.2 1.24a1.554 1.554 0 0 0-1.544-.027l-5.84 2.914a.58.58 0 0 0-.191-.039H4.932C2.682 4.088 1 6.41 1 8.486c0 2.076 1.682 4.4 3.932 4.4H5.4L4.105 17.58a.626.626 0 0 0-.022.166 1.156 1.156 0 0 0 1.111 1.194h2.872a1.146 1.146 0 0 0 1.106-1.077l1.656-4.979 5.8 2.861a1.565 1.565 0 0 0 1.571-.013 1.614 1.614 0 0 0 .8-1.409V2.649A1.615 1.615 0 0 0 18.2 1.24ZM2.25 8.486c0-1.456 1.171-3.148 2.682-3.148H10v6.3H4.932C3.421 11.635 2.25 9.942 2.25 8.486Zm5.709 9.063a.72.72 0 0 0-.029.141H5.371l1.322-4.805H9.51l-1.551 4.664Zm9.791-3.226a.371.371 0 0 1-.183.33.342.342 0 0 1-.357-.013l-5.96-2.94V5.308l5.99-2.991a.316.316 0 0 1 .327 0 .371.371 0 0 1 .183.33v11.676Z"/></svg>