<svg xmlns="http://www.w3.org/2000/svg" viewBox="0 0 20 20" fill="currentColor"><path d="M10 17.54a9.411 9.411 0 0 0 6-2.156v3.989a.63.63 0 0 1-.625.627.628.628 0 0 1-.222-.041L10 17.997l-5.153 1.962a.622.622 0 0 1-.775-.295.63.63 0 0 1-.072-.291v-3.99a9.411 9.411 0 0 0 6 2.158Zm8-9.51c0 1.588-.47 3.14-1.348 4.461a8.007 8.007 0 0 1-3.59 2.958 7.972 7.972 0 0 1-8.719-1.74A8.058 8.058 0 0 1 2.61 4.957a8.024 8.024 0 0 1 2.946-3.605A7.979 7.979 0 0 1 10 0a7.994 7.994 0 0 1 5.654 2.355A8.054 8.054 0 0 1 18 8.03Zm-3.5-2.123-1.058-1.065-4.766 4.785-2.118-2.126L5.5 8.565l3.179 3.191L14.5 5.907Z"/></svg>