<svg xmlns="http://www.w3.org/2000/svg" viewBox="0 0 20 20" fill="currentColor"><path d="M19.64 14.463A4.34 4.34 0 0 1 15.497 19h-.2a4.34 4.34 0 0 1-3.487-1.756l1-.746a3.092 3.092 0 1 0 .965-4.535l-.537.3-3.42-5.881a1.071 1.071 0 0 1-.907-1.049 1.086 1.086 0 1 1 2.172 0 1.063 1.063 0 0 1-.138.5l2.782 4.776a4.345 4.345 0 0 1 5.913 3.854ZM13.704 3.1a4.343 4.343 0 0 0-7.32 4.675c.254.396.57.748.935 1.043l-2.87 4.831a1.076 1.076 0 0 0-.969 1.062 1.086 1.086 0 1 0 2.172 0 1.065 1.065 0 0 0-.109-.457l3.468-5.83-.54-.324a3.053 3.053 0 0 1-1.033-1 3.093 3.093 0 1 1 5.443-.433l1.148.5a4.342 4.342 0 0 0-.325-4.067Zm1.671 10.425a1.068 1.068 0 0 0-.88.486h-6.7l-.007.619a3.092 3.092 0 1 1-3.448-3.107l-.143-1.235a4.343 4.343 0 1 0 4.788 4.977h5.542a1.07 1.07 0 0 0 .848.436 1.086 1.086 0 0 0 0-2.172v-.004Z"/></svg>