<svg xmlns="http://www.w3.org/2000/svg" viewBox="0 0 20 20" fill="currentColor"><path d="M11.375 10a1.375 1.375 0 1 1-2.75 0 1.375 1.375 0 0 1 2.75 0Zm-3.188 1.89-1.539 2.666.541.312a5.6 5.6 0 0 0 5.622 0l.541-.312-1.539-2.666a2.6 2.6 0 0 1-3.626 0Zm1.086-4.4L7.73 4.818l-.542.314A5.646 5.646 0 0 0 4.375 10v.625h3.083A2.577 2.577 0 0 1 9.273 7.49ZM12.625 10c-.002.211-.03.42-.083.625h3.083V10a5.646 5.646 0 0 0-2.813-4.868l-.542-.314-1.543 2.672A2.622 2.622 0 0 1 12.625 10ZM10 19.99a4.6 4.6 0 0 1-3.27-1.354l-5.366-5.365a4.627 4.627 0 0 1 0-6.542L6.73 1.364a4.627 4.627 0 0 1 6.542 0l5.365 5.364a4.627 4.627 0 0 1 0 6.542l-5.364 5.365A4.601 4.601 0 0 1 10 19.99Zm0-18.73a3.353 3.353 0 0 0-2.386.988L2.25 7.614a3.374 3.374 0 0 0 0 4.772l5.366 5.366a3.46 3.46 0 0 0 4.772 0l5.365-5.366a3.374 3.374 0 0 0 0-4.772L12.386 2.25A3.35 3.35 0 0 0 10 1.26Z"/></svg>