<svg xmlns="http://www.w3.org/2000/svg" viewBox="0 0 20 20" fill="currentColor"><path d="M18.375 8H6.45L17.3 5.093a.625.625 0 0 0 .44-.765L16.709.464a.62.62 0 0 0-.522-.459.616.616 0 0 0-.244.017L.488 4.162a.624.624 0 0 0-.441.766l.969 3.618A.527.527 0 0 0 1 8.625v8.75A2.629 2.629 0 0 0 3.625 20h12.75A2.628 2.628 0 0 0 19 17.375v-8.75A.625.625 0 0 0 18.375 8ZM8.06 6.275l-2.75.737v-2.7a.61.61 0 0 0-.028-.135l2.778-.744v2.842Zm1.25-3.182 2.75-.737V5.2l-2.75.737V3.093Zm7.063.954-3.063.82V2.022l2.35-.63.713 2.656ZM4.06 4.5v2.807c0 .013.006.025.007.038l-1.94.52-.712-2.657L4.06 4.5ZM17.75 17.375a1.377 1.377 0 0 1-1.375 1.375H3.625a1.377 1.377 0 0 1-1.375-1.375V9.25h15.5v8.125Z"/></svg>