<svg xmlns="http://www.w3.org/2000/svg" viewBox="0 0 20 20" fill="currentColor"><path d="M4.706 3.114h-.932a.7.7 0 0 0-.7.423 1.343 1.343 0 0 0-.12.44 4.79 4.79 0 0 0-.027.5v3.239c.01.34-.05.678-.173.994a2.275 2.275 0 0 1-.414.665c-.14.156-.307.287-.492.387a1.715 1.715 0 0 1-.406.164v.036c.141.022.278.066.406.128.185.09.352.213.492.364.18.196.32.424.414.673.125.34.184.7.173 1.061v3.323c0 .167.009.334.026.5.014.15.055.296.121.431.06.123.149.23.26.312a.73.73 0 0 0 .44.12h.931v1.036H3.5c-.223 0-.444-.048-.648-.138a1.725 1.725 0 0 1-.578-.415 2.152 2.152 0 0 1-.423-.681 2.456 2.456 0 0 1-.164-.924V12.43a2.445 2.445 0 0 0-.13-.829 2.14 2.14 0 0 0-.336-.621 1.38 1.38 0 0 0-.475-.389 1.26 1.26 0 0 0-.546-.129V9.426c.19-.001.377-.048.544-.138.183-.096.345-.228.475-.388a2 2 0 0 0 .336-.612 2.39 2.39 0 0 0 .13-.812v-3.24a2.325 2.325 0 0 1 .604-1.605c.162-.177.359-.318.578-.415.2-.09.415-.136.633-.138h1.206v1.036Zm10.588 13.76h.932a.7.7 0 0 0 .7-.423c.065-.139.106-.288.121-.44a4.8 4.8 0 0 0 .026-.5v-3.339c-.01-.34.05-.678.173-.994.099-.244.239-.469.414-.665a1.857 1.857 0 0 1 .898-.551v-.036a1.448 1.448 0 0 1-.406-.128 1.647 1.647 0 0 1-.492-.364 2.09 2.09 0 0 1-.414-.673c-.125-.34-.184-.7-.174-1.061V4.477a4.8 4.8 0 0 0-.026-.5 1.257 1.257 0 0 0-.12-.431.848.848 0 0 0-.26-.312.73.73 0 0 0-.44-.12h-.932V2.078H16.5c.223 0 .444.048.648.138.22.097.416.238.578.415.183.199.326.43.423.681.114.295.17.608.164.924v3.222c-.005.282.04.562.13.829.077.224.19.434.336.621.127.164.29.297.475.389.17.083.355.127.544.129v1.036c-.19.001-.376.048-.544.138a1.535 1.535 0 0 0-.475.389 2 2 0 0 0-.336.612 2.39 2.39 0 0 0-.13.812v3.339a2.325 2.325 0 0 1-.604 1.605 1.734 1.734 0 0 1-.578.415 1.585 1.585 0 0 1-.63.138h-1.207v-1.036ZM6 13.944V6.215h1.084l2.893 4.305h.046l2.893-4.3H14v7.729h-1.39v-3.466l.028-1.762h-.045L10.181 12.4h-.363l-2.41-3.679h-.046l.038 1.762v3.461H6Z"/></svg>