<svg xmlns="http://www.w3.org/2000/svg" viewBox="0 0 20 20" fill="currentColor"><path d="M20 8h-1V6.625a2.628 2.628 0 0 0-1.6-2.417L17.089 2.3A2.364 2.364 0 0 0 14.377.343L2.354 2.288A2.364 2.364 0 0 0 .389 4.947v.322A2.6 2.6 0 0 0 0 6.625v8.75A2.63 2.63 0 0 0 2.625 18h13.75A2.63 2.63 0 0 0 19 15.375V14h1V8ZM1.827 3.971a1.1 1.1 0 0 1 .726-.449l12.024-1.945a1.112 1.112 0 0 1 1.278.922L16.1 4H2.625a2.586 2.586 0 0 0-.887.165c.023-.067.053-.132.089-.194Zm15.923 11.4a1.377 1.377 0 0 1-1.375 1.375H2.625a1.377 1.377 0 0 1-1.375-1.371v-8.75A1.377 1.377 0 0 1 2.625 5.25h13.75a1.377 1.377 0 0 1 1.375 1.375V8H14a3 3 0 0 0 0 6h3.75v1.371Zm1-2.625H14a1.75 1.75 0 0 1 0-3.5h4.75v3.5Z"/><path d="M14.505 12.286a1.25 1.25 0 1 0 0-2.5 1.25 1.25 0 0 0 0 2.5Z"/></svg>