<svg xmlns="http://www.w3.org/2000/svg" viewBox="0 0 20 20" fill="currentColor"><path d="M4.807 6.6c-.015-.155-.049-.3-.049-.464a5.177 5.177 0 0 1 5.265-5.076c.2.008.401.028.6.059L11.8 0l1.385 1.435-.41.391a5.022 5.022 0 0 1 2.517 4.305c0 .159-.034.309-.05.464a4.252 4.252 0 0 0-2-.015c.03-.148.046-.298.05-.449a3.18 3.18 0 0 0-3.27-3.081 3.18 3.18 0 0 0-3.264 3.081c.004.151.02.301.048.45a4.261 4.261 0 0 0-1.999.019Zm3.213-.752a.591.591 0 0 0 .44.179.672.672 0 0 0 .24-.04.7.7 0 0 0 .34-.338.734.734 0 0 0 0-.478.63.63 0 0 0-1.02-.2.594.594 0 0 0-.14.677.657.657 0 0 0 .14.2Zm3.2 0a.6.6 0 0 0 .2.139.672.672 0 0 0 .24.04.624.624 0 0 0 .44-.179.902.902 0 0 0 .14-.2.667.667 0 0 0 .04-.239.585.585 0 0 0-.18-.438.63.63 0 0 0-.88 0 .594.594 0 0 0-.14.677.659.659 0 0 0 .14.2Zm-4.136 2.27a2.888 2.888 0 0 0-2.792.154A2.7 2.7 0 0 0 3 10.568v.837l5.242-2.643-1.158-.644Zm8.624.154a2.891 2.891 0 0 0-2.792-.154l-2.087 1v.009L3 13.076a6.913 6.913 0 0 0 .908 3.344L16.92 9.947a2.718 2.718 0 0 0-1.212-1.675ZM4.8 17.649a6.974 6.974 0 0 0 4.986 2.35h.218a7.07 7.07 0 0 0 4.957-1.983A6.568 6.568 0 0 0 17 13.264v-1.688L4.8 17.649Z"/></svg>