<svg xmlns="http://www.w3.org/2000/svg" viewBox="0 0 20 20" fill="currentColor"><path d="M6 10.8a.619.619 0 0 0-.26.056l-3.49 1.6V2.25h7.5v2.417c.14-.026.28-.04.422-.042H11v-2.5A1.15 1.15 0 0 0 9.828 1H2.172A1.151 1.151 0 0 0 1 2.125v11.3a.625.625 0 0 0 .885.568L6 12.112l1.625.743v-1.374l-1.365-.625A.619.619 0 0 0 6 10.8Z"/><path d="M17.828 6h-7.656A1.151 1.151 0 0 0 9 7.125v11.3a.625.625 0 0 0 .885.568L14 17.112l4.115 1.881a.627.627 0 0 0 .701-.127.627.627 0 0 0 .184-.441v-11.3A1.15 1.15 0 0 0 17.828 6Zm-.078 11.452-3.49-1.6a.632.632 0 0 0-.52 0l-3.49 1.6V7.25h7.5v10.202Z"/></svg>