<svg xmlns="http://www.w3.org/2000/svg" viewBox="0 0 20 20" fill="currentColor"><path d="M18.838 3.631a4.228 4.228 0 0 0-2.469-2.469 18.116 18.116 0 0 0-12.738 0 4.228 4.228 0 0 0-2.469 2.469 18.033 18.033 0 0 0 0 12.737 4.226 4.226 0 0 0 2.469 2.47 18.036 18.036 0 0 0 12.738 0 4.225 4.225 0 0 0 2.469-2.469 18.036 18.036 0 0 0 0-12.738ZM9 10.53a2.4 2.4 0 0 1-1.293 2.193 2.955 2.955 0 0 1-1.417.328 3.248 3.248 0 0 1-1.579-.386A2.811 2.811 0 0 1 3.6 11.583 3.108 3.108 0 0 1 3.2 10a3.052 3.052 0 0 1 .411-1.583c.267-.46.659-.834 1.129-1.082a3.37 3.37 0 0 1 1.616-.385c.333 0 .664.043.986.128.309.081.605.205.879.369l-.5 1.169a1.314 1.314 0 0 0-.563-.357 2.3 2.3 0 0 0-.754-.124 1.733 1.733 0 0 0-1.863 1.848c-.006.344.073.684.232.99a1.7 1.7 0 0 0 1.542.925c.258.004.513-.051.746-.162.209-.097.387-.25.513-.443.121-.185.185-.401.183-.622H6.124V9.619L9 9.6v.93Zm2.5 2.454H10V7.016h1.5v5.968Zm5-4.8h-2.138v1.393h1.79v1.169h-1.79v2.238H13V7.016h3.5v1.168Z"/></svg>