<svg xmlns="http://www.w3.org/2000/svg" viewBox="0 0 20 20" fill="currentColor"><path d="M17.564 12.614a8.049 8.049 0 0 1-4.075 4.6c.433-.862.765-1.772.987-2.711l-.63-.011-.512-.352c-.146-.1-.387-.274-.679-.5-.588 2.75-1.765 4.385-2.655 4.385-1.147 0-2.775-2.706-3-7.025h2.894a11.77 11.77 0 0 1-1.353-2H7c.057-1.288.273-2.565.644-3.8A6.92 6.92 0 0 1 10.468.024C10.312.016 10.158 0 10 0a10 10 0 1 0 10 10c0-.068-.009-.133-.01-.2a14.901 14.901 0 0 1-2.426 2.814ZM2.044 11h2.98c.055 2.153.562 4.27 1.487 6.216A8.033 8.033 0 0 1 2.044 11Zm2.98-2h-2.98a8.033 8.033 0 0 1 4.467-6.216A15.388 15.388 0 0 0 5.024 9ZM14.5 0A5.532 5.532 0 0 0 9 5.55c0 3.766 4.59 7.028 5.117 7.39l.418.238.351-.241C15.409 12.578 20 9.315 20 5.55A5.532 5.532 0 0 0 14.5 0Zm0 8.02a2.5 2.5 0 1 1 0-5 2.5 2.5 0 0 1 0 5Z"/></svg>