<svg xmlns="http://www.w3.org/2000/svg" viewBox="0 0 20 20" fill="currentColor"><path d="M7.374 14.367V17.5a8.374 8.374 0 0 1-2.024-.794l-3.4.973a.798.798 0 0 1-.7-.181.712.712 0 0 1-.177-.706l1.007-3.328a8.277 8.277 0 0 1-.977-5.4 8.367 8.367 0 0 1 16.077-1.7A4.637 4.637 0 0 0 14.5 5.5a5.285 5.285 0 0 0-5 5.519v.38a3.14 3.14 0 0 0-2.126 2.968ZM20 14.217v4.565A1.255 1.255 0 0 1 18.714 20h-8.428A1.255 1.255 0 0 1 9 18.782v-4.564A1.255 1.255 0 0 1 10.286 13H11v-1.98A3.79 3.79 0 0 1 14.5 7a3.79 3.79 0 0 1 3.5 4.02V13h.714A1.255 1.255 0 0 1 20 14.218ZM13 13h3v-1.98C16 9.925 15.313 9 14.5 9s-1.5.925-1.5 2.02V13Z"/></svg>