<svg xmlns="http://www.w3.org/2000/svg" viewBox="0 0 20 20" fill="currentColor"><path d="m2.183 6.738-2-2 .883-.884.934.933V.8h1.25v3.987l.933-.933.883.884-2 2a.624.624 0 0 1-.883 0ZM19 10.223v3.023A6.674 6.674 0 0 1 12.456 20H9.825a6.658 6.658 0 0 1-5.606-3.3L1.31 11.884a2.163 2.163 0 0 1 .725-2.965 2.124 2.124 0 0 1 2.812.552L6 11.016v-8.77A2.235 2.235 0 0 1 6.524.774 1.906 1.906 0 0 1 7.98.121a2.258 2.258 0 0 1 2.269 2.124V6.2c.223-.085.46-.128.7-.127a2.112 2.112 0 0 1 1.95 1.313 2.09 2.09 0 0 1 2.17.078c.341.223.611.54.777.913A2.078 2.078 0 0 1 16.89 8.1 2.12 2.12 0 0 1 19 10.223Zm-1.25 0a.86.86 0 1 0-1.72 0h-1.25v-.977a.86.86 0 1 0-1.72 0h-1.25v-1a.88.88 0 0 0-.86-.92.616.616 0 0 0-.492.217c-.144.188-.217.42-.208.657H9V2.246a1.021 1.021 0 0 0-1.02-.875.649.649 0 0 0-.513.225.981.981 0 0 0-.217.649v10.184a.719.719 0 0 1-.518.677.816.816 0 0 1-.914-.244l-1.972-2.644a.876.876 0 0 0-1.162-.23.911.911 0 0 0-.3 1.249l2.906 4.818a5.4 5.4 0 0 0 4.537 2.7h2.627a5.488 5.488 0 0 0 5.3-5.5l-.004-3.032Z"/></svg>