<svg xmlns="http://www.w3.org/2000/svg" viewBox="0 0 20 20" fill="currentColor"><path d="M19.785 6.9 17.193.745a.625.625 0 0 0-.82-.333l-2.243.954a.625.625 0 0 0-.33.818l.04.095-9.924 4.694a.624.624 0 0 0-.309.807l.072.17L.827 9.153A.625.625 0 0 0 .5 9.97l1.027 2.44a.625.625 0 0 0 .341.338.624.624 0 0 0 .478 0l2.852-1.2.073.172a.625.625 0 0 0 .793.344l1.636-.611a2.97 2.97 0 0 0 1.53 1.626l-3.62 6.49.07.052H7.06l2.94-5.27v5.27h1.25v-5.63l3.14 5.63h1.38l.071-.051-3.758-6.737A2.887 2.887 0 0 0 13.2 9.413l3.154-1.17.04.095a.632.632 0 0 0 .576.383.63.63 0 0 0 .245-.05l2.242-.953a.626.626 0 0 0 .33-.818ZM2.431 11.352l-.543-1.29L4.164 9.1l.543 1.29-2.276.962Zm8.007.752a1.686 1.686 0 0 1-1.554-1.092l3.138-1.163c.068.18.104.37.107.563a1.693 1.693 0 0 1-1.69 1.688v.004ZM6.185 10.68l-.083-.2-.514-1.22-.6-1.417 9.334-4.414.342.814 1.2 2.843-9.679 3.594ZM17.3 7.275l-2.106-5 1.092-.464 2.106 5-1.092.464Z"/></svg>