<svg xmlns="http://www.w3.org/2000/svg" viewBox="0 0 24 24" fill="currentColor"><path d="M22.731 2.973a2.168 2.168 0 0 0-1.707-1.707A17.048 17.048 0 0 0 16.805 1 16.8 16.8 0 0 0 1.062 16.75a17.008 17.008 0 0 0 .27 4.21 2.169 2.169 0 0 0 1.706 1.706 16.994 16.994 0 0 0 4.217.268A16.8 16.8 0 0 0 23 7.184a17.13 17.13 0 0 0-.269-4.21ZM16.284 8.72l-.2.113c-.363.208-.724.436-1.074.676l-.119.082-1.06-1.064c-.41.31-.824.65-1.257 1.033l1.025 1.026-.142.123a20.93 20.93 0 0 0-.916.837l-.124.121-1.006-1.006a27.39 27.39 0 0 0-1.1 1.19l.993.993-.109.123c-.286.328-.554.651-.8.96l-.122.153-.993-.992c-.334.43-.66.872-.972 1.32l1 1-.08.118c-.235.35-.43.66-.585.914l-.279.285-.956-.955c-.332.54-.5.857-.5.86l-.6 1.05-.16-.15c-.293-.27-.638-.592-.94-.876l-.1-.094.4-.7c.008-.016.268-.5.741-1.256l-.98-.98.18-.343c.021-.039.205-.378.534-.9l.117-.187 1.055 1.056c.31-.436.64-.876.981-1.309l-1.072-1.074 1.131-1.13.973.972a31.06 31.06 0 0 1 1.1-1.187l-.95-.955 1.13-1.13.986.985c.395-.35.816-.7 1.255-1.035l-1.12-1.12.235-.233c.321-.228.64-.435.973-.634l.117-.07 1.12 1.12c.47-.306.88-.552 1.281-.768L16 5.33l1.164 1.2-1.133.57c-.28.151-.573.321-.866.5l1.12 1.12Z"/></svg>