<svg xmlns="http://www.w3.org/2000/svg" viewBox="0 0 20 20" fill="currentColor"><path d="M10 20c-.101 0-.202-.013-.3-.04C8.249 19.554 1 17.277 1 12V3.187A1.122 1.122 0 0 1 1.846 2.1L9.729.108c.178-.044.364-.044.542 0L18.153 2.1A1.122 1.122 0 0 1 19 3.187V12c0 5.277-7.249 7.554-8.7 7.957A1.162 1.162 0 0 1 10 20ZM2.25 3.283V12c0 4.465 6.989 6.531 7.786 6.751.725-.22 7.714-2.286 7.714-6.751V3.283L10 1.33 2.25 3.283ZM14.381 13H5.619a.724.724 0 0 1-.608-1.119l4.563-7.075.768-.046.268.334 4.38 6.788A.724.724 0 0 1 14.381 13Zm-7.8-1.25h6.834L10 6.453 6.581 11.75Z"/></svg>