<svg xmlns="http://www.w3.org/2000/svg" viewBox="0 0 20 20" fill="currentColor"><path d="m18.937 19.672-2.27-2.23A9.917 9.917 0 0 1 10 20a10.032 10.032 0 0 1-7.419-3.297 1.976 1.976 0 0 1-.475-1.418 3.455 3.455 0 0 1 2.173-3.207c.426-.17.881-.255 1.34-.248h2.49a3.569 3.569 0 0 1 3.616 3.504v1.57h-1.25v-1.565a2.313 2.313 0 0 0-2.366-2.256h-2.49a2.243 2.243 0 0 0-2.098 1.388c-.113.275-.17.57-.167.868a.784.784 0 0 0 .143.52A8.778 8.778 0 0 0 10 18.752a8.694 8.694 0 0 0 6.234-2.607l.084-.085v-.72a2.235 2.235 0 0 0-2.218-2.256h-2.361v-1.248H14.1a3.492 3.492 0 0 1 3.464 3.504v1.237l2.245 2.206-.872.89ZM4.63 8.53a2.443 2.443 0 0 1 1.511-2.259A2.45 2.45 0 0 1 9.48 8.053a2.443 2.443 0 0 1-2.401 2.923A2.451 2.451 0 0 1 4.63 8.53Zm1.25 0a1.198 1.198 0 0 0 1.434 1.176 1.2 1.2 0 0 0 .875-1.634 1.2 1.2 0 0 0-2.309.458Zm4.794 0a2.443 2.443 0 0 1 1.511-2.259 2.45 2.45 0 0 1 3.338 1.782 2.443 2.443 0 0 1-2.401 2.923 2.451 2.451 0 0 1-2.448-2.446Zm1.25 0a1.197 1.197 0 0 0 1.434 1.176 1.2 1.2 0 0 0 .875-1.634 1.2 1.2 0 0 0-2.309.458ZM1.25 10.01A8.733 8.733 0 0 1 4.361 3.3a8.753 8.753 0 0 1 10.654-.48 8.745 8.745 0 0 1 3.702 6.406 8.732 8.732 0 0 1-.498 3.756l.714 1.498a9.98 9.98 0 0 0-2.62-12.237A10.005 10.005 0 0 0 .992 5.652a9.98 9.98 0 0 0-.103 8.454l.729-1.598a8.723 8.723 0 0 1-.368-2.497Z"/></svg>