<svg xmlns="http://www.w3.org/2000/svg" viewBox="0 0 24 24" fill="currentColor"><path d="M22.975 10.194c-.54 5.868-8.745 10.736-10.384 11.653a1.23 1.23 0 0 1-1.183 0c-.367-.2-1.07-.618-1.934-1.184v-1.5c1.142.786 2.1 1.347 2.543 1.594 1.507-.862 9.23-5.432 9.713-10.676A4.472 4.472 0 0 0 17.69 5.3a4.954 4.954 0 0 0-5.138 2.44.648.648 0 0 1-1.106 0 4.887 4.887 0 0 0-4.375-2.489c-.255 0-.51.018-.763.053a4.472 4.472 0 0 0-4.04 4.775A8.341 8.341 0 0 0 4.052 14.2H2.546a8.932 8.932 0 0 1-1.523-4.007 5.706 5.706 0 0 1 5.113-6.128A6.343 6.343 0 0 1 12 6.311a6.336 6.336 0 0 1 5.863-2.246c.296.043.59.107.876.19l1.384-1.384L18.9 1.723a.32.32 0 0 1 .173-.549l3.815-.551a.32.32 0 0 1 .36.373l-.635 3.534a.32.32 0 0 1-.534.177l-1.043-.979L20 4.759a5.552 5.552 0 0 1 2.976 5.435Zm-10.24 1.834L8.365 16.4v3.841a.628.628 0 0 1-.182.443l-2.372 2.367a.629.629 0 0 1-.802.067.626.626 0 0 1-.19-.218L3.44 20.331l-2.427-1.3a.624.624 0 0 1-.147-.993l2.372-2.372a.626.626 0 0 1 .442-.183h3.83l4.34-4.339.883.884Zm-8.878 7.108 2.4-2.4H3.94l-1.593 1.59 1.511.81Zm3.26-1.49L4.71 20.053l.813 1.518 1.593-1.592v-2.333Z"/></svg>