<svg xmlns="http://www.w3.org/2000/svg" viewBox="0 0 20 20" fill="currentColor"><path d="M19.62 9.149 16.906 6.9V4.216a1.124 1.124 0 0 0-1.122-1.123H13.1L10.81.335a1.158 1.158 0 0 0-1.66.044L6.9 3.093H4.214a1.124 1.124 0 0 0-1.122 1.123V6.9L.334 9.189a1.162 1.162 0 0 0 .044 1.662L3.092 13.1v2.686a1.124 1.124 0 0 0 1.122 1.123H6.9l2.29 2.756a1.116 1.116 0 0 0 .794.329 1.22 1.22 0 0 0 .866-.373l2.25-2.714h2.687a1.124 1.124 0 0 0 1.122-1.123V13.1l2.758-2.288a1.16 1.16 0 0 0-.046-1.663ZM9.03 13.53a.746.746 0 0 1-1.06 0l-2-2 1.06-1.06 1.47 1.469 4.47-4.469 1.06 1.06-5 5Z"/></svg>