<svg xmlns="http://www.w3.org/2000/svg" viewBox="0 0 20 20" fill="currentColor"><path d="M19.995 14.041a4.71 4.71 0 0 1-2.713 4.477c-.56.261-1.168.41-1.786.436h-.213a4.698 4.698 0 0 1-3.778-1.9l1.6-1.191a2.722 2.722 0 0 0 2.3 1.094 2.71 2.71 0 1 0-1.454-5.07l-.857.484L9.237 5.74a1.071 1.071 0 0 1-.357-.792 1.075 1.075 0 0 1 2.147-.1l2.86 4.91a4.713 4.713 0 0 1 6.109 4.283ZM14.01 2.524a4.705 4.705 0 1 0-7.165 5.984L3.878 13.5a1.067 1.067 0 0 0-.064 1.576c.203.203.478.317.765.317a1.07 1.07 0 0 0 1.055-.941L9.526 7.9l-.86-.508a2.713 2.713 0 1 1 3.865-1.257l1.83.793a4.7 4.7 0 0 0-.351-4.404Zm1.351 10.6c-.158.002-.315.04-.457.109H7.426l-.008.988A2.715 2.715 0 0 1 3.457 16.6a2.712 2.712 0 0 1 .942-5.1l-.23-1.982a4.706 4.706 0 0 0-2.965 7.822 4.706 4.706 0 0 0 8.094-2.108h5.761c.097.035.198.055.3.061a1.083 1.083 0 0 0 0-2.166l.002-.003Z"/></svg>