<svg xmlns="http://www.w3.org/2000/svg" viewBox="0 0 20 20" fill="currentColor"><path d="M14.375 2.983A3.108 3.108 0 0 0 13.369.826a3.147 3.147 0 0 0-2.244-.824h-2.25a3.148 3.148 0 0 0-2.244.824 3.108 3.108 0 0 0-1.006 2.157H2v1.988h16V2.983h-3.625Zm-5.5-.993h2.25c.297-.03.595.059.828.244.234.186.385.454.422.75h-4.75c.037-.296.189-.564.422-.75.233-.185.53-.273.828-.244ZM3.025 6.46h13.95l-.737 11.013a2.554 2.554 0 0 1-.717 1.741A2.586 2.586 0 0 1 13.8 20H6.2a2.585 2.585 0 0 1-1.718-.783 2.553 2.553 0 0 1-.719-1.737L3.025 6.461Z"/></svg>