<svg xmlns="http://www.w3.org/2000/svg" viewBox="0 0 20 20" fill="currentColor"><path d="M12.73 10.127c.004-.069.02-.135.02-.205 0-.721-.29-1.413-.806-1.922A2.768 2.768 0 0 0 10 7.203c-.071 0-.138.015-.208.02l-1.05-1.037c.405-.14.83-.214 1.258-.22 1.06 0 2.078.417 2.829 1.159A3.932 3.932 0 0 1 14 9.922c-.005.423-.08.843-.222 1.242l-1.049-1.037Zm7.187-.63a10.538 10.538 0 0 0-3.954-4.748A10.72 10.72 0 0 0 10 3c-1.297 0-2.584.227-3.8.673l.985.973A9.819 9.819 0 0 1 10 4.236a9.525 9.525 0 0 1 5.242 1.514 9.368 9.368 0 0 1 3.519 4.128 9.186 9.186 0 0 1-2.526 3.455c-.047.04-.1.075-.148.114l.89.88c.024-.02.051-.037.075-.058a10.421 10.421 0 0 0 2.866-3.924c.11-.273.11-.576-.001-.849ZM3.724 3.541l12.73 12.584-.886.874-1.13-1.117a10.923 10.923 0 0 1-4.438.96 10.804 10.804 0 0 1-7.476-2.956 10.265 10.265 0 0 1-2.44-3.542 1.117 1.117 0 0 1 0-.847 10.35 10.35 0 0 1 3.453-4.392l-.7-.692.887-.872Zm9.766 11.403-1.59-1.57a3.936 3.936 0 0 1-1.9.502 4.024 4.024 0 0 1-2.829-1.159A3.932 3.932 0 0 1 6 9.922c.004-.66.179-1.306.508-1.879L4.447 6.005a9.065 9.065 0 0 0-3.208 3.961 9.64 9.64 0 0 0 2.151 3.03 9.552 9.552 0 0 0 6.61 2.61 9.669 9.669 0 0 0 3.49-.66ZM7.25 9.922c0 .72.29 1.412.806 1.922.515.51 1.215.796 1.944.797.333 0 .664-.063.974-.183L7.434 8.96a2.609 2.609 0 0 0-.184.962Z"/></svg>