<svg xmlns="http://www.w3.org/2000/svg" viewBox="0 0 20 20" fill="currentColor"><path d="M18.375 2H1.625A1.627 1.627 0 0 0 0 3.625v11.75A2.63 2.63 0 0 0 2.625 18h14.75A2.63 2.63 0 0 0 20 15.375V3.625A1.627 1.627 0 0 0 18.375 2Zm-6.542 2.7a1.3 1.3 0 1 1 0 2.6 1.3 1.3 0 0 1 0-2.6Zm0 4a1.3 1.3 0 1 1 0 2.6 1.3 1.3 0 0 1 0-2.6Zm-3.666-4a1.3 1.3 0 1 1 0 2.6 1.3 1.3 0 0 1 0-2.6Zm0 4a1.3 1.3 0 1 1 0 2.6 1.3 1.3 0 0 1 0-2.6ZM4.5 11.3a1.3 1.3 0 1 1 0-2.6 1.3 1.3 0 0 1 0 2.6Zm0-4a1.3 1.3 0 1 1 0-2.6 1.3 1.3 0 0 1 0 2.6ZM13 15H7a1 1 0 0 1 0-2h6a1 1 0 0 1 0 2Zm2.5-3.7a1.3 1.3 0 1 1 0-2.599 1.3 1.3 0 0 1 0 2.599Zm0-4a1.3 1.3 0 1 1 0-2.6 1.3 1.3 0 0 1 0 2.6Z"/></svg>