<svg xmlns="http://www.w3.org/2000/svg" viewBox="0 0 20 20" fill="currentColor"><path d="m17.812 16.367 2.14 2.142-1.415 1.416-2.135-2.142-2.138 2.142-1.414-1.416 2.138-2.142-2.138-2.143 1.414-1.416 2.138 2.142 2.14-2.142 1.413 1.416-2.143 2.143Zm-6.41-1.861c-.452.15-.924.229-1.4.235a4.745 4.745 0 0 1-4.388-2.937 4.766 4.766 0 0 1 1.03-5.185 4.748 4.748 0 0 1 8.108 3.364c-.006.467-.083.93-.226 1.374a1.564 1.564 0 0 0-.266-.052 1.496 1.496 0 0 0-1.06.441l-1.415 1.416a1.475 1.475 0 0 0-.383 1.344Zm-1.4-1.518a2.997 2.997 0 0 0 2.772-1.855 3.01 3.01 0 0 0-.65-3.275 2.999 2.999 0 0 0-5.122 2.125c0 .797.316 1.561.879 2.125.563.563 1.326.88 2.121.88Zm0-4.758a1.748 1.748 0 0 0-1.617 1.082 1.756 1.756 0 0 0 1.276 2.39 1.748 1.748 0 0 0 2.091-1.719 1.756 1.756 0 0 0-1.75-1.753Zm1.783 9.216 1.078-1.08-.76-.762a6.015 6.015 0 0 1-7.184-2.368 6.043 6.043 0 0 1 .785-7.534 6.021 6.021 0 0 1 9.985 2.334 6.044 6.044 0 0 1-.062 4.017l.771.77 1.078-1.078a1.499 1.499 0 0 1 2.121 0l.207.206c.022-.113.05-.223.068-.337a10.036 10.036 0 0 0-1.766-7.461A10.008 10.008 0 0 0 11.591.128a9.985 9.985 0 0 0-7.449 1.769A10.012 10.012 0 0 0 .124 8.423a9.902 9.902 0 0 0 1.195 6.501L.086 19.005a.73.73 0 0 0 .9.917l4.164-1.194A9.84 9.84 0 0 0 9.991 20c.54 0 1.08-.044 1.614-.13.135-.02.266-.052.4-.08l-.219-.219a1.504 1.504 0 0 1 0-2.125Z"/></svg>