<svg xmlns="http://www.w3.org/2000/svg" viewBox="0 0 20 20" fill="currentColor"><path d="M18.41 7.61a8.793 8.793 0 1 1-6.124-6.047V.274A9.995 9.995 0 1 0 20 10a9.923 9.923 0 0 0-.3-2.39h-1.29Z"/><path d="M10 13.829a3.042 3.042 0 0 1-2.488-1.188l-1.024.718A4.255 4.255 0 0 0 10 15.079a4.255 4.255 0 0 0 3.512-1.72l-1.024-.718A3.041 3.041 0 0 1 10 13.829Z"/><path d="M6 10.5a1.5 1.5 0 1 0 0-3 1.5 1.5 0 0 0 0 3Z"/><path d="M17.625 2.375V0h-1.25v2.375H14v1.25h2.375V6h1.25V3.625H20v-1.25h-2.375Z"/><path d="M14 10.5a1.5 1.5 0 1 0 0-3 1.5 1.5 0 0 0 0 3Z"/></svg>