<svg xmlns="http://www.w3.org/2000/svg" viewBox="0 0 20 20" fill="currentColor"><path d="m2.528 8.437 1.513 3.593-1.7.716a.624.624 0 0 1-.682-.135.625.625 0 0 1-.137-.202L.5 9.97a.625.625 0 0 1 .333-.82l1.695-.714Zm1.39-1.464a.624.624 0 0 0-.31.807l1.658 3.937a.625.625 0 0 0 .793.344l9.12-3.383-2.47-5.864-8.792 4.159ZM19.785 6.9 17.194.745a.625.625 0 0 0-.82-.333l-2.243.954a.625.625 0 0 0-.33.818l2.59 6.154a.632.632 0 0 0 .576.383.63.63 0 0 0 .245-.05l2.242-.953a.626.626 0 0 0 .332-.818Zm-10 5.074-4.178 7.6.071.05H7.6L10 15.31v4.313h2v-4.413l2.461 4.413h1.914l.072-.051-4.793-8.171-1.868.574Z"/></svg>