<svg xmlns="http://www.w3.org/2000/svg" viewBox="0 0 20 20" fill="currentColor"><path d="M15.067 1H4.933A3.937 3.937 0 0 0 1 4.933v.134A3.937 3.937 0 0 0 4.933 9h10.134A3.937 3.937 0 0 0 19 5.067v-.134A3.937 3.937 0 0 0 15.067 1ZM4.928 7.737a2.734 2.734 0 0 1 0-5.466 2.734 2.734 0 0 1 0 5.466Zm12.822-2.67a2.685 2.685 0 0 1-2.683 2.683H7.76a3.993 3.993 0 0 0-.006-5.5h7.313a2.685 2.685 0 0 1 2.683 2.683v.134ZM15.067 11H4.933A3.937 3.937 0 0 0 1 14.933v.134A3.937 3.937 0 0 0 4.933 19h10.134A3.937 3.937 0 0 0 19 15.067v-.134A3.937 3.937 0 0 0 15.067 11Zm0 1.267A2.735 2.735 0 1 1 12.4 15a2.71 2.71 0 0 1 2.672-2.733h-.005Zm-12.817 2.8v-.134a2.685 2.685 0 0 1 2.683-2.683h7.31a3.993 3.993 0 0 0 0 5.5h-7.31a2.685 2.685 0 0 1-2.683-2.683Z"/></svg>