<svg xmlns="http://www.w3.org/2000/svg" viewBox="0 0 20 20" fill="currentColor"><path d="M10 19.99a4.6 4.6 0 0 1-3.27-1.354l-5.366-5.365a4.627 4.627 0 0 1 0-6.542L6.73 1.364a4.627 4.627 0 0 1 6.542 0l5.365 5.364a4.627 4.627 0 0 1 0 6.542l-5.364 5.365A4.601 4.601 0 0 1 10 19.99Zm0-18.73a3.353 3.353 0 0 0-2.386.988L2.25 7.614a3.374 3.374 0 0 0 0 4.772l5.366 5.366a3.46 3.46 0 0 0 4.772 0l5.365-5.366a3.374 3.374 0 0 0 0-4.772L12.386 2.25A3.35 3.35 0 0 0 10 1.26Zm3.92 10.258c.066.112.1.24.1.37a.8.8 0 0 1-.094.35.7.7 0 0 1-.633.375.83.83 0 0 1-.387-.105c-.2-.116-1.033-.734-2.5-1.852.219 1.75.328 2.734.328 2.953.02.238-.043.476-.176.674a.651.651 0 0 1-.539.217c-.476 0-.714-.289-.714-.867 0-.242.11-1.226.328-2.953l-.364.27c-1.192.905-1.902 1.425-2.128 1.558a.85.85 0 0 1-.4.105.739.739 0 0 1-.715-.727.72.72 0 0 1 .1-.369.748.748 0 0 1 .287-.276c.234-.133 1.187-.547 2.86-1.242-1.67-.694-2.623-1.107-2.859-1.24a.859.859 0 0 1-.287-.282.673.673 0 0 1-.1-.352.681.681 0 0 1 .094-.363.756.756 0 0 1 .27-.287.658.658 0 0 1 .351-.1.829.829 0 0 1 .4.117c.226.134.937.653 2.132 1.56l.364.268c-.22-1.726-.328-2.706-.328-2.94a1.039 1.039 0 0 1 .175-.663.653.653 0 0 1 .54-.217.649.649 0 0 1 .544.217c.13.204.19.444.17.685 0 .22-.11 1.2-.328 2.942 1.462-1.116 2.295-1.734 2.5-1.852a.829.829 0 0 1 .4-.117c.124 0 .246.034.351.1.114.07.207.17.27.287a.68.68 0 0 1 .094.363.673.673 0 0 1-.1.352.86.86 0 0 1-.287.281c-.2.118-1.145.532-2.836 1.242l.844.363c1.047.438 1.711.731 1.992.88.117.064.214.16.281.275Z"/></svg>