<svg xmlns="http://www.w3.org/2000/svg" viewBox="0 0 20 20" fill="currentColor"><path d="M18.209 4.158 12.318.641a4.512 4.512 0 0 0-4.636 0L1.8 4.155a1.637 1.637 0 0 0-.8 1.4v11.8a1.626 1.626 0 0 0 1.625 1.624h14.75A1.626 1.626 0 0 0 19 17.36V5.55a1.627 1.627 0 0 0-.791-1.392Zm-.459 13.2a.375.375 0 0 1-.375.374H2.625a.375.375 0 0 1-.375-.374V5.556a.382.382 0 0 1 .187-.328l5.885-3.514a3.266 3.266 0 0 1 3.356 0l5.891 3.517a.373.373 0 0 1 .181.319v11.808Zm-4.692-9.716.884.884-4.929 4.929a.727.727 0 0 1-1.026 0l-1.929-1.929.884-.884L8.5 12.2l4.558-4.558Z"/></svg>