<svg xmlns="http://www.w3.org/2000/svg" viewBox="0 0 20 20" fill="currentColor"><path d="M6.468 10c0 .672.253 1.319.711 1.81l-.914.852a3.908 3.908 0 0 1 2.86-6.57h.408L8.287 4.847l.885-.884 2.708 2.708-.433.524-2.276 2.276-.884-.884 1.246-1.245h-.408A2.661 2.661 0 0 0 6.468 10Zm6.353-1.81a2.658 2.658 0 0 1-1.946 4.468h-.408l1.246-1.245-.884-.884-2.276 2.276-.433.524 2.708 2.708.885-.884-1.246-1.245h.408a3.907 3.907 0 0 0 2.86-6.57l-.914.852ZM20 5.657v9.718A2.63 2.63 0 0 1 17.375 18H2.625A2.63 2.63 0 0 1 0 15.375V5.656a2.629 2.629 0 0 1 2.625-2.625h2.389l1.215-1.577A1.16 1.16 0 0 1 7.152 1h5.74a1.151 1.151 0 0 1 .909.448l1.22 1.583h2.355A2.627 2.627 0 0 1 20 5.657Zm-1.25 0a1.375 1.375 0 0 0-1.374-1.375h-2.971l-1.6-2.072-5.653.04-1.523 2.031h-3A1.377 1.377 0 0 0 1.25 5.656v9.719a1.377 1.377 0 0 0 1.375 1.375h14.75a1.377 1.377 0 0 0 1.375-1.375V5.657Z"/></svg>