<svg xmlns="http://www.w3.org/2000/svg" viewBox="0 0 20 20" fill="currentColor"><path d="M18.635 6.73 13.27 1.364a4.627 4.627 0 0 0-6.542 0L1.364 6.73a4.627 4.627 0 0 0 0 6.542l5.365 5.365a4.628 4.628 0 0 0 6.542 0l5.364-5.365a4.627 4.627 0 0 0 0-6.542Zm-6.415 3.663c.46.142.91.314 1.347.515.164.094.301.227.4.387a.97.97 0 0 1 .012.984 1.035 1.035 0 0 1-.364.381.908.908 0 0 1-.48.135 1.16 1.16 0 0 1-.563-.164 4.524 4.524 0 0 1-.638-.5l-.5-.44-.9-.785c.133.667.208 1.034.223 1.1.015.086.058.308.13.668.058.266.093.536.104.808.017.29-.075.575-.258.8a.926.926 0 0 1-.726.287.914.914 0 0 1-.715-.287 1.158 1.158 0 0 1-.258-.8c.039-.47.113-.936.223-1.394.032-.133.106-.528.223-1.184l-.9.785-.5.44a4.461 4.461 0 0 1-.639.5c-.17.102-.363.159-.562.164a.893.893 0 0 1-.463-.129 1.027 1.027 0 0 1-.357-.363.926.926 0 0 1-.153-.516.9.9 0 0 1 .147-.5c.102-.156.239-.287.4-.38.175-.1.36-.183.551-.247.258-.094.54-.187.844-.28.29-.095.656-.22 1.1-.376l-1.017-.348a36.992 36.992 0 0 1-.9-.31 3.707 3.707 0 0 1-.58-.252 1.186 1.186 0 0 1-.4-.38.9.9 0 0 1-.147-.5 1 1 0 0 1 .152-.512c.087-.149.21-.274.357-.363.14-.084.3-.129.463-.129.199.006.392.062.562.164.193.12.376.258.545.41.24.2.5.43.78.68.28.25.515.445.7.61l-.176-.88a12.028 12.028 0 0 1-.258-1.664 1.2 1.2 0 0 1 .252-.808.9.9 0 0 1 .721-.293.926.926 0 0 1 .726.287c.185.23.277.52.258.814a10.438 10.438 0 0 1-.258 1.582l-.187.961c.187-.164.42-.367.7-.609.28-.242.54-.468.78-.68.169-.152.351-.289.544-.41a1.07 1.07 0 0 1 .563-.164c.17 0 .336.046.48.135.152.094.278.225.364.381.09.152.138.324.14.5a.891.891 0 0 1-.146.486 1.2 1.2 0 0 1-.405.381c-.24.126-.492.232-.75.316-.35.125-.578.2-.679.235-.538.179-.894.3-1.067.363.404.14.789.27 1.155.388Z"/></svg>