<svg xmlns="http://www.w3.org/2000/svg" viewBox="0 0 20 20" fill="currentColor"><path d="M11.538 10.02 14.812 15h-2.666l-2.132-3.338h-.035L7.826 15H5.188l3.281-4.98v-.054L5.242 5h2.584l2.153 3.561h.035L12.153 5h2.6l-3.22 4.966.005.054ZM14.375 19h-8.75A4.631 4.631 0 0 1 1 14.375v-8.75A4.631 4.631 0 0 1 5.625 1h8.75A4.631 4.631 0 0 1 19 5.625v8.75A4.631 4.631 0 0 1 14.375 19ZM5.625 2.25A3.379 3.379 0 0 0 2.25 5.625v8.75a3.379 3.379 0 0 0 3.375 3.375h8.75a3.38 3.38 0 0 0 3.375-3.375v-8.75a3.38 3.38 0 0 0-3.375-3.375h-8.75Z"/></svg>