<svg xmlns="http://www.w3.org/2000/svg" viewBox="0 0 20 20" fill="currentColor"><path d="M10 20a1.143 1.143 0 0 1-1.007-.6l-1.281-2.36-2.424 1.16a1.145 1.145 0 0 1-1.63-1.184l.353-2.662-2.641-.492a1.144 1.144 0 0 1-.622-1.915L2.6 10 .748 8.053a1.145 1.145 0 0 1 .623-1.916l2.64-.488-.352-2.662A1.145 1.145 0 0 1 5.288 1.8l2.424 1.16L8.992.6a1.19 1.19 0 0 1 2.014 0l1.281 2.36 2.424-1.16a1.145 1.145 0 0 1 1.63 1.184l-.353 2.662 2.642.489a1.145 1.145 0 0 1 .622 1.915L17.4 10l1.85 1.947a1.145 1.145 0 0 1-.623 1.916l-2.64.488.351 2.662a1.144 1.144 0 0 1-1.627 1.187l-2.424-1.16-1.28 2.36A1.142 1.142 0 0 1 10 20Zm-2.244-4.242a1.144 1.144 0 0 1 1.007.6L10 18.636l1.236-2.279a1.147 1.147 0 0 1 1.5-.488l2.34 1.116-.34-2.569a1.146 1.146 0 0 1 .93-1.277l2.546-.47-1.785-1.88a1.146 1.146 0 0 1 0-1.578l1.785-1.88-2.547-.471a1.142 1.142 0 0 1-.928-1.276l.338-2.569-2.338 1.116a1.149 1.149 0 0 1-1.5-.488L10 1.364 8.763 3.643a1.147 1.147 0 0 1-1.5.488l-2.34-1.116.34 2.569a1.146 1.146 0 0 1-.93 1.277l-2.546.47 1.786 1.88a1.146 1.146 0 0 1 0 1.578l-1.786 1.88 2.548.471a1.142 1.142 0 0 1 .928 1.276l-.34 2.569 2.34-1.116c.154-.073.322-.11.493-.111Z"/></svg>