<svg xmlns="http://www.w3.org/2000/svg" viewBox="0 0 24 24" fill="currentColor"><path d="M11.987 23c-1.856 0-3.68-.476-5.3-1.384l-4.53 1.3a.85.85 0 0 1-.85-.222.86.86 0 0 1-.214-.859L2.434 17.4a10.862 10.862 0 0 1-1.3-7.114A11.046 11.046 0 0 1 10.2 1.145a11.016 11.016 0 0 1 12.657 12.647A11.01 11.01 0 0 1 11.987 23Zm-5.1-3 .278.166a9.413 9.413 0 0 0 6.36 1.214 9.503 9.503 0 1 0-3.087-18.755 9.535 9.535 0 0 0-7.823 7.893 9.393 9.393 0 0 0 1.272 6.4l.175.286-1.2 3.948L6.887 20ZM8.4 12A1.2 1.2 0 1 1 6 12a1.2 1.2 0 0 1 2.4 0Zm3.6-1.2a1.2 1.2 0 1 0 0 2.4 1.2 1.2 0 0 0 0-2.4Zm4.8 0a1.2 1.2 0 1 0 0 2.4 1.2 1.2 0 0 0 0-2.4Z"/></svg>