<svg xmlns="http://www.w3.org/2000/svg" viewBox="0 0 20 20" fill="currentColor"><path d="M10.375 15h-4.75A2.63 2.63 0 0 1 3 12.375v-4.75A2.629 2.629 0 0 1 5.625 5h4.75A2.63 2.63 0 0 1 13 7.625v4.75A2.63 2.63 0 0 1 10.375 15Zm-4.75-8.75A1.377 1.377 0 0 0 4.25 7.625v4.75a1.377 1.377 0 0 0 1.375 1.375h4.75a1.377 1.377 0 0 0 1.375-1.375v-4.75a1.377 1.377 0 0 0-1.375-1.375h-4.75ZM16.29 7.33c.19-.188.297-.443.3-.71a1.224 1.224 0 0 0-.02-.19.602.602 0 0 0-.06-.19.557.557 0 0 0-.09-.17 1.01 1.01 0 0 0-.13-.16 1.02 1.02 0 0 0-1.08-.21.933.933 0 0 0-.33.21.61.61 0 0 0-.12.16.95.95 0 0 0-.1.17c-.023.062-.04.125-.05.19a1.007 1.007 0 0 0 .27.9.933.933 0 0 0 .33.21.838.838 0 0 0 .38.08 1.01 1.01 0 0 0 .7-.29Zm-.51 3.27c.066-.01.13-.03.19-.06a.557.557 0 0 0 .17-.09 1.017 1.017 0 0 0 .45-.83 1.224 1.224 0 0 0-.02-.19.602.602 0 0 0-.06-.19.557.557 0 0 0-.09-.17 1.01 1.01 0 0 0-.13-.16 1.02 1.02 0 0 0-1.08-.21.933.933 0 0 0-.33.21.61.61 0 0 0-.12.16.95.95 0 0 0-.1.17c-.023.062-.04.125-.05.19a1.007 1.007 0 0 0 .27.9c.192.183.445.286.71.29.064-.002.127-.008.19-.02Zm2.6 7.4H1.625A1.627 1.627 0 0 1 0 16.375V3.625A1.627 1.627 0 0 1 1.625 2h16.75A1.627 1.627 0 0 1 20 3.625v12.75A1.627 1.627 0 0 1 18.375 18h.005ZM1.625 3.25a.375.375 0 0 0-.375.375v12.75a.375.375 0 0 0 .375.375h16.75a.375.375 0 0 0 .375-.375V3.625a.375.375 0 0 0-.375-.375H1.625Z"/></svg>