<svg xmlns="http://www.w3.org/2000/svg" viewBox="0 0 20 20" fill="currentColor"><path d="M10 3.625a19.081 19.081 0 0 0-6.606 1.084l-.935.357.714 1.869.933-.357A17.05 17.05 0 0 1 10 5.625c2.005-.031 4 .291 5.894.953l.933.357.714-1.869-.935-.357A19.08 19.08 0 0 0 10 3.625Z"/><path d="M19.985 5.767c0-.048.015-.094.015-.142C20 2.988 15.7 1 10 1S0 2.988 0 5.625c0 .043.011.084.013.126L0 5.739v2.849c0 1.805 2.244 3.285 5.632 3.972a3.726 3.726 0 0 1 2.863-1.268c.253 0 .506.024.755.072v-1.13c.248.007.5.016.75.016s.5-.009.75-.016v1.13c.249-.048.502-.072.755-.072a3.726 3.726 0 0 1 2.863 1.268C17.756 11.873 20 10.393 20 8.588V5.756l-.015.011ZM1.25 5.625c0-1.6 3.594-3.375 8.75-3.375 5.156 0 8.75 1.779 8.75 3.375S15.156 9 10 9C4.844 9 1.25 7.221 1.25 5.625Z"/><path d="M11.505 12.667a2.494 2.494 0 0 0-1.505.494 2.494 2.494 0 0 0-1.505-.494 2.434 2.434 0 0 0-2.473 2.642c0 2.849 3.424 4.415 3.574 4.482a1 1 0 0 0 .812 0c.146-.065 3.57-1.631 3.57-4.48a2.433 2.433 0 0 0-2.473-2.644Z"/></svg>