<svg xmlns="http://www.w3.org/2000/svg" viewBox="0 0 20 20" fill="currentColor"><path d="M13 9.25h-2V12H4V9.25H.771a7.09 7.09 0 0 0-.2 1.625 7.545 7.545 0 0 0 2.81 5.779A10.231 10.231 0 0 0 10.024 19c2.423.03 4.778-.802 6.645-2.346A7.7 7.7 0 0 0 19.375 12H13V9.25Zm-3 7a6.26 6.26 0 0 1-4.357-1.713l1.048-1.073a4.977 4.977 0 0 0 4.616 1.117l.386 1.449a6.569 6.569 0 0 1-1.693.22ZM4 8H1.064V1.271a1.128 1.128 0 0 1 .582-.987 1.107 1.107 0 0 1 1.125.033l3.9 2.458c2.18-.696 4.521-.696 6.7 0l3.9-2.458a1.11 1.11 0 0 1 1.554.381c.102.174.156.372.155.573V7H13v1h-2V7H4v1Z"/></svg>