<svg xmlns="http://www.w3.org/2000/svg" viewBox="0 0 20 20" fill="currentColor"><path d="M12.306 18.444h-1.25V15a1.1 1.1 0 0 1 .423-.87 1.164 1.164 0 0 1 1-.218 3.153 3.153 0 0 0 2.1-.212 3.46 3.46 0 0 0 2.15-2.669 3.25 3.25 0 0 0-1.063-2.813.624.624 0 0 1-.151-.707c.12-.278.183-.578.184-.882A2.46 2.46 0 0 0 13.16 4.25a.625.625 0 0 1-.625-.625A2.462 2.462 0 0 0 10 1.25a2.462 2.462 0 0 0-2.536 2.375.625.625 0 0 1-.625.625 2.46 2.46 0 0 0-2.54 2.375c.002.304.064.604.185.882a.625.625 0 0 1-.151.707 3.251 3.251 0 0 0-1.064 2.807 3.461 3.461 0 0 0 2.142 2.67 3.146 3.146 0 0 0 2.11.217 1.162 1.162 0 0 1 1.312.604 1.1 1.1 0 0 1 .11.484v3.448h-1.25V15.12a4.112 4.112 0 0 1-2.774-.28 4.712 4.712 0 0 1-2.886-3.669 4.462 4.462 0 0 1 1.16-3.579 3.452 3.452 0 0 1-.139-.967 3.683 3.683 0 0 1 3.209-3.583A3.747 3.747 0 0 1 10 0a3.747 3.747 0 0 1 3.737 3.042 3.683 3.683 0 0 1 3.209 3.583c0 .328-.047.653-.14.967a4.461 4.461 0 0 1 1.16 3.588 4.711 4.711 0 0 1-2.9 3.665 4.358 4.358 0 0 1-2.762.3l.002 3.299Z"/></svg>