<svg xmlns="http://www.w3.org/2000/svg" viewBox="0 0 20 20" fill="currentColor"><path d="M14.21 11.433V2.904a1.3 1.3 0 0 0-1.289-1.3h-.034a1.3 1.3 0 0 0-1.283 1.311c.006 1.691.012 5.137.018 6.482a.482.482 0 1 1-.963 0c.008-1.79.016-5.928.024-8.081v-.011A1.3 1.3 0 0 0 9.4 0h-.048a1.3 1.3 0 0 0-1.284 1.308c.005 2.109.011 6.273.016 8.014a.485.485 0 0 1-.484.488h-.006a.485.485 0 0 1-.478-.49c.006-1.162.021-4.846.03-6.424v-.008a1.3 1.3 0 0 0-1.289-1.3h-.043a1.3 1.3 0 0 0-1.282 1.306c.009 1.863.024 5.133.026 6.453a.484.484 0 0 1-.481.486h-.02a.483.483 0 0 1-.474-.493c.012-1.027.04-2.346.051-3.62v-.01a1.289 1.289 0 1 0-2.577 0v7.562a.21.21 0 0 0 0 .021 6.652 6.652 0 0 0 6.581 6.7l2.625.007h.019a6.619 6.619 0 0 0 5.638-3.2l2.928-4.862c.717-1.192.489-2.269-.783-2.416a2.56 2.56 0 0 0-2.284 1.068l-1.525 2.022-.046-1.179Z"/></svg>