<svg xmlns="http://www.w3.org/2000/svg" viewBox="0 0 20 20" fill="currentColor"><path d="m9.117 13.7.83.953-2.594 3.025a1.125 1.125 0 0 1-1.71 0L.379 11.534a.876.876 0 0 1 .664-1.445h3.032V5.182a1.127 1.127 0 0 1 1.125-1.125h2.6a1.127 1.127 0 0 1 1.125 1.125V6.8h-1.25V5.307h-2.35v6.032H1.857l4.642 5.414L9.117 13.7Zm5.236 1.922 5.268-6.145a.876.876 0 0 0-.665-1.444h-3.032V3.125A1.127 1.127 0 0 0 14.799 2h-2.6a1.127 1.127 0 0 0-1.125 1.125v4.907H8.042a.876.876 0 0 0-.664 1.445l5.266 6.143a1.126 1.126 0 0 0 1.709 0v.002Zm-2.03-6.34V3.25h2.35v6.032h3.467L13.499 14.7 8.858 9.282h3.466Z"/></svg>