<svg xmlns="http://www.w3.org/2000/svg" viewBox="0 0 20 20" fill="currentColor"><path d="M7.119 3.533 5.589 2a5.627 5.627 0 0 1 4.412 2.12 5.693 5.693 0 0 1 5.309-2.065 5.352 5.352 0 0 1 3.507 1.957 5.361 5.361 0 0 1 1.16 3.848 10.384 10.384 0 0 1-2.825 5.714l-.876-.877a9.079 9.079 0 0 0 2.458-4.947 4.126 4.126 0 0 0-3.603-4.457 4.367 4.367 0 0 0-4.573 2.27.625.625 0 0 1-1.115 0 4.19 4.19 0 0 0-2.324-2.031ZM1.443.55l18 18.015-.885.885-3.667-3.671a31.067 31.067 0 0 1-4.316 3.075 1.147 1.147 0 0 1-1.148 0C7.943 17.99.514 13.402.022 7.86a5.255 5.255 0 0 1 2.192-4.767L.56 1.434 1.443.55Zm12.568 14.354L3.1 3.982a4.036 4.036 0 0 0-1.833 3.77c.43 4.861 7.224 9.107 8.733 9.988a30.392 30.392 0 0 0 4.01-2.836Z"/></svg>