<svg xmlns="http://www.w3.org/2000/svg" viewBox="0 0 20 20" fill="currentColor"><path d="M2.625 16A1.627 1.627 0 0 1 1 14.375V2.625A1.627 1.627 0 0 1 2.625 1h11.75A1.627 1.627 0 0 1 16 2.625h-1.25a.375.375 0 0 0-.375-.375H2.625a.375.375 0 0 0-.375.375v11.75a.375.375 0 0 0 .375.375V16Zm8.129 1.75H5.629a.379.379 0 0 1-.379-.379V5.629a.379.379 0 0 1 .379-.379h11.742a.38.38 0 0 1 .379.379v5.125a4.99 4.99 0 0 1 1.25 1.5V5.629A1.63 1.63 0 0 0 17.371 4H5.629A1.631 1.631 0 0 0 4 5.629v11.742A1.631 1.631 0 0 0 5.629 19h6.626a4.99 4.99 0 0 1-1.501-1.25Zm7.5-3.125a3.625 3.625 0 1 0-3.625 3.625 3.629 3.629 0 0 0 3.621-3.625h.004Zm-1.25 0a2.375 2.375 0 1 1-2.375-2.375A2.377 2.377 0 0 1 17 14.625h.004Zm2.567 4.058L17.188 16.3l-.884.884 2.379 2.379.888-.88Z"/></svg>