<svg xmlns="http://www.w3.org/2000/svg" viewBox="0 0 20 20" fill="currentColor"><path d="M16.5 4a.6.6 0 0 1-.215.46l-2.744 2.288a.6.6 0 0 1-.985-.462V1.713a.599.599 0 0 1 .983-.462l2.925 2.437L16.5 4Zm-5.523 0-.036-.312-2.925-2.437a.6.6 0 0 0-.983.462v1.8a7.645 7.645 0 0 0-6.007 5.879h1.29a6.381 6.381 0 0 1 4.717-4.581v1.475a.6.6 0 0 0 .985.462l2.744-2.288a.6.6 0 0 0 .215-.46Zm-6.614 7.529v1.348l1.682-.8v6.832h1.441V10.27h-.468l-2.655 1.259Zm10.9.495a5.1 5.1 0 0 1 .4 2.1v.967a5.023 5.023 0 0 1-.4 2.086 3.084 3.084 0 0 1-1.122 1.353 3.171 3.171 0 0 1-3.329-.006 3.119 3.119 0 0 1-1.13-1.359 4.942 4.942 0 0 1-.4-2.074v-.967a4.986 4.986 0 0 1 .418-2.117 3.178 3.178 0 0 1 1.143-1.365 3.107 3.107 0 0 1 3.305.008c.496.342.883.82 1.117 1.374h-.002ZM14.236 13.9a3.021 3.021 0 0 0-.463-1.836 1.517 1.517 0 0 0-1.283-.613 1.523 1.523 0 0 0-1.318.648 3.049 3.049 0 0 0-.463 1.8v1.4c-.01.44.063.878.214 1.292.12.335.335.628.618.844.278.201.613.306.955.3.327.008.648-.088.917-.273.279-.206.49-.49.607-.817.155-.43.229-.885.216-1.342V13.9Z"/></svg>