<svg xmlns="http://www.w3.org/2000/svg" viewBox="0 0 20 20" fill="currentColor"><path d="M20 2.62a1.105 1.105 0 0 0-.548-.956A1.171 1.171 0 0 0 18.3 1.64l-3.945 2.142a12.353 12.353 0 0 0-8.71 0L1.7 1.642a1.173 1.173 0 0 0-1.156.022A1.102 1.102 0 0 0 0 2.619v7.882c.003.034.01.067.02.1-.008.124-.02.25-.02.375v.2a.587.587 0 0 0 .018.112 7.316 7.316 0 0 0 2.967 5.415A11.345 11.345 0 0 0 10 19c2.528.038 4.996-.77 7.015-2.296A7.251 7.251 0 0 0 20 10.993c0-.132-.012-.264-.02-.395a.543.543 0 0 0 .02-.1V2.619ZM6.89 11.567a1.48 1.48 0 0 1-1.35.41c-.096-.018-.19-.049-.28-.09a1.294 1.294 0 0 1-.26-.14 1.298 1.298 0 0 1-.23-.18 1.522 1.522 0 0 1-.44-1.063c-.003-.2.038-.4.12-.582a.917.917 0 0 1 .14-.26.965.965 0 0 1 .18-.221c.07-.072.147-.136.23-.19.081-.057.168-.105.26-.141.09-.041.184-.071.28-.09a1.526 1.526 0 0 1 1.35.42c.071.067.135.141.19.221.053.084.1.17.14.261a1.614 1.614 0 0 1 .11.582c-.002.398-.16.78-.44 1.063Zm4.381 1.915H8.729V11.98h2.542v1.504Zm4.369-2.688a1.621 1.621 0 0 1-.23.542 1.31 1.31 0 0 1-.181.23 1.498 1.498 0 0 1-2.529-.772 1.508 1.508 0 0 1 .409-1.363 1.566 1.566 0 0 1 2.12 0 1.504 1.504 0 0 1 .411 1.363Zm3.735.382-.011-.013c0-.058.011-.114.011-.172v.184Z"/></svg>