<svg xmlns="http://www.w3.org/2000/svg" viewBox="0 0 20 20" fill="currentColor"><path d="M17.626 1.744a2.255 2.255 0 0 0-1.482-.912 2.228 2.228 0 0 0-2.568 1.7l-.824 3.506-1.139-4.19A2.277 2.277 0 0 0 7.525 1.2a2.028 2.028 0 0 0-.274 1.567L8 5.987a2.095 2.095 0 0 0-.436-.046h-.221a2.124 2.124 0 0 0-1.916 1.22 2.111 2.111 0 0 0-1.084-.307h-.218A2.128 2.128 0 0 0 2 8.979v4.247a6.863 6.863 0 0 0 7.034 6.625l.685.008h.007c.019 0 .036-.01.056-.011a6.851 6.851 0 0 0 6.893-6.618v-2.95L17.97 3.3a2.038 2.038 0 0 0-.344-1.556ZM6.469 8.979v-.913a.874.874 0 0 1 .874-.874h.219a.875.875 0 0 1 .874.874v1.276a2.34 2.34 0 0 0-.778.923c-.21.459-.257.975-.135 1.464h-.18a.875.875 0 0 1-.874-.875V8.979Zm-3.218 0a.876.876 0 0 1 .874-.874h.218a.876.876 0 0 1 .874.874v2.788a.876.876 0 0 1-.874.875h-.218a.876.876 0 0 1-.874-.875V8.979Zm6.381 9.626h-.013l-.576-.005a5.661 5.661 0 0 1-5.766-4.888c.267.118.556.18.848.18h.218a2.125 2.125 0 0 0 1.916-1.221 2.1 2.1 0 0 0 1.084.307h.219c.214 0 .426-.034.629-.1.227.214.493.384.783.5l2.673 1.064a.637.637 0 0 0 .232.044.625.625 0 0 0 .231-1.2l-2.674-1.069a1.162 1.162 0 0 1-.662-.638 1 1 0 0 1 .021-.793 1.281 1.281 0 0 1 1.637-.593l4.257 1.694a1.14 1.14 0 0 1 .7.762c.01.022.02.044.032.065v.516a5.614 5.614 0 0 1-5.789 5.375Zm5.674-7.8c-.053-.026-.1-.061-.154-.083L10.9 9.032a2.6 2.6 0 0 0-.951-.182L8.468 2.481a.787.787 0 0 1 .109-.608.97.97 0 0 1 .638-.42.982.982 0 0 1 1.185.7L12.154 8.6l.18.486 1-.054L14.8 2.785a.974.974 0 0 1 1.145-.719 1 1 0 0 1 .66.4.8.8 0 0 1 .137.6l-1.436 7.739Z"/></svg>