<svg xmlns="http://www.w3.org/2000/svg" viewBox="0 0 20 20" fill="currentColor"><path d="M19.915 8.545c-.214-.623-.894-1.315-2.948-1.455a8.011 8.011 0 0 0-2.393-2.655l-.715 1.025A6.76 6.76 0 0 1 16.75 11c0 .112-.011.221-.016.332a24.243 24.243 0 0 1-5.962 2.9 26.17 26.17 0 0 1-5.711 1.35 6.728 6.728 0 0 1-.58-8.473l-1.021-.717A7.862 7.862 0 0 0 2.07 12C.03 13.574-.155 14.733.087 15.436a1.838 1.838 0 0 0 1 1.044c.81.333 1.684.485 2.56.446.3 0 .623-.016.953-.039a7.98 7.98 0 0 0 13.33-4.9c1.508-1.163 2.352-2.376 1.985-3.442ZM1.269 15.029c-.078-.227.11-.8 1.09-1.662.257.82.646 1.594 1.15 2.29a4.756 4.756 0 0 1-1.873-.3.7.7 0 0 1-.367-.328ZM10 17.75a6.705 6.705 0 0 1-3.641-1.075 29.729 29.729 0 0 0 4.823-1.258A28.588 28.588 0 0 0 16.449 13 6.765 6.765 0 0 1 10 17.75Zm7.959-7.423a7.923 7.923 0 0 0-.41-1.939c.715.116 1.107.341 1.184.564.095.277-.162.769-.774 1.375ZM7.25 5.994h4.376a.625.625 0 0 0 .475-1.033l-1.657-1.923 1.664-2.015A.623.623 0 0 0 11.626 0h-5A.626.626 0 0 0 6 .625v10h1.25V5.994Zm0-4.744h3.05l-1.153 1.4a.626.626 0 0 0 .008.807l1.11 1.289H7.25V1.25Z"/></svg>