<svg xmlns="http://www.w3.org/2000/svg" viewBox="0 0 20 20" fill="currentColor"><path d="M11.935 8.191c.29.524.43 1.117.407 1.715.021.607-.12 1.21-.407 1.744-.236.43-.586.784-1.012 1.026a2.5 2.5 0 0 1-1.2.328h-1.45V6.92h1.45c.418.004.83.107 1.2.3.424.22.775.557 1.012.971ZM19 5.625v8.75A4.631 4.631 0 0 1 14.375 19h-8.75A4.631 4.631 0 0 1 1 14.375v-8.75A4.631 4.631 0 0 1 5.625 1h8.75A4.631 4.631 0 0 1 19 5.625Zm-4.416 4.268a4.975 4.975 0 0 0-.732-2.776 4.475 4.475 0 0 0-1.893-1.657 5.83 5.83 0 0 0-2.475-.536H6.031V15h3.631a5.127 5.127 0 0 0 2.393-.585c.76-.398 1.393-1 1.828-1.739.487-.845.73-1.808.701-2.783Z"/></svg>