<svg xmlns="http://www.w3.org/2000/svg" viewBox="0 0 20 20" fill="currentColor"><path d="M2.25 12V3.283l7.717-1.962 7.783 1.962v7.053c.163.026.328.043.493.05H19v-7.2a1.12 1.12 0 0 0-.847-1.086L10.271.108a1.117 1.117 0 0 0-.542 0L1.847 2.1A1.121 1.121 0 0 0 1 3.187V12c0 5.273 7.249 7.553 8.7 7.957.098.027.199.042.3.043h.014v-1.25C9.144 18.5 2.25 16.433 2.25 12Zm10.83 7.872h-1.25v-1.466a5.244 5.244 0 0 0-5.237-5.237H5.128v-1.25h1.465a5.243 5.243 0 0 0 5.237-5.237V5.216h1.25v1.466a5.243 5.243 0 0 0 5.237 5.237h1.466v1.25h-1.466a5.244 5.244 0 0 0-5.237 5.237v1.466Zm-3.71-7.328a6.528 6.528 0 0 1 3.085 3.085 6.528 6.528 0 0 1 3.085-3.085 6.52 6.52 0 0 1-3.085-3.085 6.52 6.52 0 0 1-3.085 3.085Z"/></svg>