<svg xmlns="http://www.w3.org/2000/svg" viewBox="0 0 20 20" fill="currentColor"><path d="m19.567 18.683-2.194-2.194a3.508 3.508 0 1 0-.884.885l2.194 2.193.884-.884ZM14.5 16.75a2.25 2.25 0 1 1 0-4.5 2.25 2.25 0 0 1 0 4.5ZM5.5 2a3.5 3.5 0 1 0 0 7 3.5 3.5 0 0 0 0-7Zm0 5.75a2.25 2.25 0 1 1 0-4.5 2.25 2.25 0 0 1 0 4.5ZM12.125 9h4.75A1.127 1.127 0 0 0 18 7.875v-4.75A1.127 1.127 0 0 0 16.875 2h-4.75A1.127 1.127 0 0 0 11 3.125v4.75A1.127 1.127 0 0 0 12.125 9Zm.125-5.75h4.5v4.5h-4.5v-4.5ZM7.875 11h-4.75A1.127 1.127 0 0 0 2 12.125v4.75A1.127 1.127 0 0 0 3.125 18h4.75A1.127 1.127 0 0 0 9 16.875v-4.75A1.127 1.127 0 0 0 7.875 11Zm-.125 5.75h-4.5v-4.5h4.5v4.5Z"/></svg>