<svg xmlns="http://www.w3.org/2000/svg" viewBox="0 0 20 20" fill="currentColor"><path d="M5.019 14.26h5.351l-1.2 3.6a1.146 1.146 0 0 1-1.104 1.08H5.194a1.157 1.157 0 0 1-1.111-1.194c0-.056.007-.112.022-.166l.914-3.32ZM9 4.8c.005-.243.055-.482.146-.707H4.932C2.681 4.088 1 6.41 1 8.486c0 2.076 1.681 4.4 3.932 4.4h4.2A1.99 1.99 0 0 1 9 12.211V4.8Zm9.2-3.56a1.554 1.554 0 0 0-1.544-.027L10.6 4.235a.627.627 0 0 0-.346.56v7.416a.624.624 0 0 0 .348.56l6.043 2.983a1.562 1.562 0 0 0 1.554-.022 1.614 1.614 0 0 0 .8-1.409V2.649A1.615 1.615 0 0 0 18.2 1.24Z"/></svg>