<svg xmlns="http://www.w3.org/2000/svg" viewBox="0 0 20 20" fill="currentColor"><path d="m19.832 18.418-2.266-2.266A3.45 3.45 0 0 0 18 14.5a3.5 3.5 0 1 0-3.5 3.5 3.45 3.45 0 0 0 1.652-.434l2.266 2.266 1.414-1.414ZM14.5 12.725a1.775 1.775 0 1 1 0 3.55 1.775 1.775 0 0 1 0-3.55ZM9 5.5a3.5 3.5 0 1 1-7 0 3.5 3.5 0 0 1 7 0Zm2 2.375v-4.75A1.127 1.127 0 0 1 12.125 2h4.75A1.127 1.127 0 0 1 18 3.125v4.75A1.127 1.127 0 0 1 16.875 9h-4.75A1.127 1.127 0 0 1 11 7.875Zm-2 4.25v4.75A1.127 1.127 0 0 1 7.875 18h-4.75A1.127 1.127 0 0 1 2 16.875v-4.75A1.127 1.127 0 0 1 3.125 11h4.75A1.127 1.127 0 0 1 9 12.125Z"/></svg>