<svg xmlns="http://www.w3.org/2000/svg" viewBox="0 0 20 20" fill="currentColor"><path d="M5 2.25c-1.566 0-3.128.163-4.66.486L.08 1.513A23.856 23.856 0 0 1 5 1v1.25Zm14 7.973v3.023A6.673 6.673 0 0 1 12.456 20H9.825a6.657 6.657 0 0 1-5.6-3.3l-2.913-4.816a2.163 2.163 0 0 1 .724-2.965 2.125 2.125 0 0 1 2.812.552L6 11.016v-8.77A2.012 2.012 0 0 1 7.982.121a2.258 2.258 0 0 1 2.268 2.125V6.2c.224-.084.461-.127.7-.126a2.112 2.112 0 0 1 1.95 1.313 2.079 2.079 0 0 1 1.021-.266 2.112 2.112 0 0 1 1.925 1.256A2.078 2.078 0 0 1 16.89 8.1 2.119 2.119 0 0 1 19 10.223Z"/></svg>