<svg xmlns="http://www.w3.org/2000/svg" viewBox="0 0 20 20" fill="currentColor"><path d="M13.25 12A1.252 1.252 0 0 0 12 13.25v5.536L18.787 12H13.25Z"/><path d="M10.125 14.875A4.377 4.377 0 0 1 6.512 13.1l-.432-.613 1.228-.863.43.614a3.068 3.068 0 0 0 2.737 1.1v-.116a2.752 2.752 0 0 1 2.75-2.75H19V3.6A2.6 2.6 0 0 0 16.4 1H3.6A2.6 2.6 0 0 0 1 3.6v12.8A2.6 2.6 0 0 0 3.6 19h6.879v-4.157c-.121.01-.235.032-.354.032Zm4-8.25a1.5 1.5 0 1 1 0 3 1.5 1.5 0 0 1 0-3Zm-9.5 1.5a1.5 1.5 0 1 1 3 0 1.5 1.5 0 0 1-3 0Z"/></svg>