<svg xmlns="http://www.w3.org/2000/svg" viewBox="0 0 20 20" fill="currentColor"><path d="M8.117 11.685a16.055 16.055 0 0 1-2.267 2.733l-2.233 2.127L2 14.788l2.039-1.9c.082-.067.278-.242.589-.527.3-.27.584-.558.852-.861.243-.273.46-.567.651-.879-.212.06-.43.09-.651.088a3.153 3.153 0 0 1-1.582-.43 3.386 3.386 0 0 1-1.221-1.187 3.212 3.212 0 0 1-.466-1.722 3.138 3.138 0 0 1 .475-1.706A3.29 3.29 0 0 1 3.96 4.487a3.609 3.609 0 0 1 1.714-.422 3.363 3.363 0 0 1 1.731.457 3.3 3.3 0 0 1 1.257 1.362c.334.68.497 1.432.475 2.189a6.384 6.384 0 0 1-1.02 3.612Zm8.863 0a16.006 16.006 0 0 1-2.267 2.733l-2.233 2.127-1.617-1.757 2.039-1.9c.082-.07.279-.246.589-.527.3-.271.585-.559.853-.862.243-.273.46-.567.65-.879-.211.06-.43.09-.65.088a3.15 3.15 0 0 1-1.582-.43 3.39 3.39 0 0 1-1.222-1.186 3.212 3.212 0 0 1-.466-1.722 3.139 3.139 0 0 1 .475-1.706 3.29 3.29 0 0 1 1.274-1.177 3.612 3.612 0 0 1 1.714-.422 3.369 3.369 0 0 1 1.732.457c.54.325.976.798 1.256 1.362.334.68.497 1.432.475 2.189a6.384 6.384 0 0 1-1.02 3.612Z"/></svg>