<svg xmlns="http://www.w3.org/2000/svg" viewBox="0 0 20 20" fill="currentColor"><path d="M2.625 15.375V16A1.627 1.627 0 0 1 1 14.375V2.624A1.627 1.627 0 0 1 2.625 1h11.75A1.627 1.627 0 0 1 16 2.624H5.629a3.008 3.008 0 0 0-3 3l-.004 9.751ZM19 5.625v11.75A1.627 1.627 0 0 1 17.375 19H5.625A1.627 1.627 0 0 1 4 17.375V5.625A1.627 1.627 0 0 1 5.625 4h11.75A1.627 1.627 0 0 1 19 5.625Zm-3 4.855a2.7 2.7 0 0 0-2.664-2.73 2.629 2.629 0 0 0-1.836.761 2.629 2.629 0 0 0-1.836-.761A2.7 2.7 0 0 0 7 10.48c0 3.056 4.009 5.488 4.18 5.589l.32.193.32-.193c.171-.101 4.18-2.533 4.18-5.589Z"/></svg>