<svg xmlns="http://www.w3.org/2000/svg" viewBox="0 0 20 20" fill="currentColor"><path d="M17 7.1a7.167 7.167 0 0 0-1.135-3.877 7.026 7.026 0 0 0-3.04-2.62 6.913 6.913 0 0 0-3.957-.51 6.962 6.962 0 0 0-3.59 1.765 7.115 7.115 0 0 0-2.056 3.466 7.19 7.19 0 0 0 .146 4.041 7.096 7.096 0 0 0 2.3 3.305 6.947 6.947 0 0 0 3.707 1.494v1.806h-3v1.268h3V20h1.25v-2.762h3V15.97h-3v-1.806a6.972 6.972 0 0 0 4.538-2.28A7.157 7.157 0 0 0 17 7.1Zm-12.75 0c0-1.153.337-2.28.97-3.238A5.768 5.768 0 0 1 7.8 1.715a5.678 5.678 0 0 1 3.322-.332c1.115.225 2.14.78 2.944 1.596a5.855 5.855 0 0 1 1.573 2.984 5.903 5.903 0 0 1-.327 3.368 5.812 5.812 0 0 1-2.117 2.616 5.695 5.695 0 0 1-3.195.982 5.718 5.718 0 0 1-4.064-1.71A5.877 5.877 0 0 1 4.25 7.1Z"/></svg>