<svg xmlns="http://www.w3.org/2000/svg" viewBox="0 0 20 20" fill="currentColor"><path d="M17.381 6H7.619A1.621 1.621 0 0 0 6 7.619v9.762A1.621 1.621 0 0 0 7.619 19h9.762A1.62 1.62 0 0 0 19 17.381V7.619A1.62 1.62 0 0 0 17.381 6Zm.369 11.381a.37.37 0 0 1-.369.369H7.619a.37.37 0 0 1-.369-.369V7.619a.37.37 0 0 1 .369-.369h9.762a.37.37 0 0 1 .369.369v9.762ZM2.631 11.75h1.4V13h-1.4A1.633 1.633 0 0 1 1 11.368V2.632A1.633 1.633 0 0 1 2.631 1h8.738A1.633 1.633 0 0 1 13 2.632v1.4h-1.25v-1.4a.382.382 0 0 0-.381-.382H2.631a.382.382 0 0 0-.381.382v8.736a.382.382 0 0 0 .381.382Zm11.132.75a1.263 1.263 0 1 1-2.526 0 1.263 1.263 0 0 1 2.526 0Zm-2.908-2.908a1.263 1.263 0 1 1-2.526 0 1.263 1.263 0 0 1 2.526 0Zm5.815 5.816a1.263 1.263 0 1 1-2.526.002 1.263 1.263 0 0 1 2.526-.002ZM5.355 4.092a1.263 1.263 0 1 1-2.526 0 1.263 1.263 0 0 1 2.526 0Zm4.553-1.263a1.263 1.263 0 1 1 0 2.526 1.263 1.263 0 0 1 0-2.526ZM5.355 9.908a1.263 1.263 0 1 1-2.527.002 1.263 1.263 0 0 1 2.527-.002Z"/></svg>