<svg xmlns="http://www.w3.org/2000/svg" viewBox="0 0 20 20" fill="currentColor"><path d="M4.571 12H5.2v1.25h-.629a1.322 1.322 0 0 0-1.321 1.32v.63H2v-.63A2.573 2.573 0 0 1 4.571 12ZM13 14.57v.63h1.25v-.63a1.321 1.321 0 0 1 1.321-1.32h.629V12h-.625A2.573 2.573 0 0 0 13 14.57Zm7-.07a4.5 4.5 0 1 1-9 0V12H9v2.447a.1.1 0 0 1 0 .018v.035a4.5 4.5 0 1 1-9 0 4.456 4.456 0 0 1 .271-1.483.525.525 0 0 1 0-.056L2.824 3.32A3.178 3.178 0 0 1 5.851 1 3.183 3.183 0 0 1 9 4.208V6h2V4.208a3.143 3.143 0 0 1 6.172-.9l2.554 9.652a.523.523 0 0 1 0 .056c.175.476.268.977.274 1.484Zm-12.25 0a3.25 3.25 0 1 0-6.5 0 3.25 3.25 0 0 0 6.5 0Zm0-3.1V4.2a1.931 1.931 0 0 0-1.9-1.958 1.92 1.92 0 0 0-1.822 1.4l-1.854 7.025a4.434 4.434 0 0 1 5.576.733Zm3.25-.65v-3.5H9v3.5h2Zm1.25.654a4.434 4.434 0 0 1 5.576-.737l-1.858-7.026a1.893 1.893 0 0 0-3.718.567v7.196Zm6.5 3.1a3.25 3.25 0 1 0-.952 2.295c.61-.61.952-1.437.952-2.299v.004Z"/></svg>