<svg xmlns="http://www.w3.org/2000/svg" viewBox="0 0 20 20" fill="currentColor"><path d="M10 0a10 10 0 1 0 10 10A10.011 10.011 0 0 0 10 0Zm0 1.25a8.755 8.755 0 0 1 7.93 5.074H10a3.668 3.668 0 0 0-3.444 2.449l-2.8-4.9A8.724 8.724 0 0 1 10 1.25ZM12.43 10a2.422 2.422 0 0 1-4.682.873l-.012-.021a2.4 2.4 0 0 1-.162-.849 2.426 2.426 0 1 1 4.851 0L12.43 10ZM1.25 10c0-1.832.58-3.617 1.655-5.1l3.7 6.475a3.632 3.632 0 0 0 4.08 2.232L7.9 18.484A8.758 8.758 0 0 1 1.25 10ZM10 18.75a8.64 8.64 0 0 1-.792-.04l3.7-6.465H12.9a3.6 3.6 0 0 0-.152-4.667H18.4A8.732 8.732 0 0 1 10 18.75Z"/></svg>