<svg xmlns="http://www.w3.org/2000/svg" viewBox="0 0 20 20" fill="currentColor"><path d="M18.7 3.223a22.542 22.542 0 0 0-6.56-.973V1c2.344 0 4.675.345 6.918 1.026L18.7 3.223Zm.3 7v3.023A6.673 6.673 0 0 1 12.456 20H9.825a6.657 6.657 0 0 1-5.6-3.3l-2.913-4.816a2.163 2.163 0 0 1 .724-2.965 2.126 2.126 0 0 1 2.812.552L6 11.016v-8.77A2.012 2.012 0 0 1 7.982.121a2.258 2.258 0 0 1 2.268 2.125V6.2c.224-.084.46-.127.7-.126a2.112 2.112 0 0 1 1.95 1.313 2.079 2.079 0 0 1 1.02-.266 2.112 2.112 0 0 1 1.926 1.256A2.078 2.078 0 0 1 16.89 8.1 2.119 2.119 0 0 1 19 10.223Z"/></svg>