<svg xmlns="http://www.w3.org/2000/svg" viewBox="0 0 20 20" fill="currentColor"><path d="M20 5.474C19.949 2.92 15.67 1 10 1S.051 2.92 0 5.474v3.011c0 2.141 2.979 3.84 7.262 4.352A2.59 2.59 0 0 0 6 15.184c0 2.851 3.446 4.416 3.6 4.482a1.006 1.006 0 0 0 .812 0C10.554 19.6 14 18.035 14 15.184a2.59 2.59 0 0 0-1.262-2.347 15.049 15.049 0 0 0 4.493-1.176C19.022 10.872 20 9.807 20 8.615V5.474ZM10 2.25c5.156 0 8.75 1.721 8.75 3.265S15.156 8.78 10 8.78c-5.156 0-8.75-1.721-8.75-3.265S4.844 2.25 10 2.25ZM1.25 8.485v-.722C2.925 9.137 6.138 10.03 10 10.03s7.075-.893 8.75-2.267v.722c0 .672-.682 1.377-1.875 1.96l-.054.025c-.092.044-.191.085-.288.127-.158.066-.32.131-.492.192l-.568.2c-1.574.469-3.206.72-4.848.747v-.862h-1.25v.862C4.558 11.6 1.25 9.966 1.25 8.485Zm8.75 9.99c-.506-.251-2.75-1.465-2.75-3.291a1.226 1.226 0 0 1 1.235-1.392 1.274 1.274 0 0 1 1.029.5l.486.6.486-.6a1.272 1.272 0 0 1 1.029-.5 1.227 1.227 0 0 1 1.235 1.392c0 1.828-2.25 3.042-2.75 3.291Z"/><path d="M3.968 6.2A17.877 17.877 0 0 1 10 5.25c2.05-.031 4.09.291 6.032.952l.586.217.436-1.171-.586-.218A19.157 19.157 0 0 0 10 4c-2.2-.03-4.387.318-6.468 1.03l-.586.218.436 1.171.586-.219Z"/></svg>