<svg xmlns="http://www.w3.org/2000/svg" viewBox="0 0 24 24" fill="currentColor"><path d="M6.18 23c-1.065 0-2.128-.1-3.174-.3A2.167 2.167 0 0 1 1.3 20.993a17.008 17.008 0 0 1-.268-4.21A16.8 16.8 0 0 1 16.773 1.033c1.412-.087 2.83.003 4.22.266a2.168 2.168 0 0 1 1.706 1.709c.262 1.387.352 2.802.267 4.21A16.8 16.8 0 0 1 6.18 23ZM17.817 2.25a15.551 15.551 0 0 0-15.54 14.608c-.079 1.305.004 2.615.248 3.9a.9.9 0 0 0 .715.715c1.287.245 2.6.328 3.906.247A15.549 15.549 0 0 0 21.72 7.144a15.843 15.843 0 0 0-.248-3.9.9.9 0 0 0-.715-.715 15.592 15.592 0 0 0-2.939-.28Zm-.988 4.268-.784-.936-.7.287c-.48.258-.939.543-1.387.838l-1.124-1.125c-.323.192-.636.395-.94.608l-.11.11 1.138 1.138c-.536.4-1.047.825-1.528 1.258l-.979-.98-.884.884.955.955c-.483.482-.927.966-1.342 1.443l-.982-.981-.884.883 1.061 1.06c-.45.565-.85 1.1-1.192 1.594L6.1 12.509c-.338.539-.52.878-.527.892l-.12.228.988.988c-.5.779-.776 1.3-.812 1.369l-.33.577c.3.284.645.605.937.876l.488-.851c.01-.016.225-.42.627-1.061l.988.988.13-.13c.155-.256.351-.566.588-.92l-1-1c.336-.486.73-1.027 1.183-1.6l.994.994c.246-.314.516-.637.8-.966l-.993-.993c.412-.48.857-.965 1.34-1.447l1.007 1.008c.294-.286.602-.567.924-.844l-1.026-1.031c.483-.435.991-.858 1.528-1.257l1.07 1.07c.35-.24.711-.466 1.084-.681l-1.11-1.11c.346-.221.7-.432 1.066-.628l.907-.462Z"/></svg>