<svg xmlns="http://www.w3.org/2000/svg" viewBox="0 0 20 20" fill="currentColor"><path d="M11 18h1a2 2 0 0 1-4 0h3Zm8-3.792v.673A1.119 1.119 0 0 1 17.883 16H2.117A1.119 1.119 0 0 1 1 14.881v-.673a3.947 3.947 0 0 1 1.738-3.277A2.706 2.706 0 0 0 3.926 8.7V7.087a6.069 6.069 0 1 1 12.138 0l.01 1.613a2.702 2.702 0 0 0 1.189 2.235A3.949 3.949 0 0 1 19 14.208Zm-1.25 0a2.7 2.7 0 0 0-1.188-2.242A3.956 3.956 0 0 1 14.824 8.7V7.088a4.819 4.819 0 1 0-9.638 0v1.615a3.956 3.956 0 0 1-1.738 3.266 2.7 2.7 0 0 0-1.198 2.239v.542h15.5v-.542ZM1.625 7.473a8.32 8.32 0 0 1 2.453-5.922L3.193.667A9.553 9.553 0 0 0 .69 9.875L1.9 9.56a8.364 8.364 0 0 1-.275-2.087ZM16.807.667l-.885.884A8.305 8.305 0 0 1 18.1 9.56l1.209.315a9.552 9.552 0 0 0-2.5-9.208h-.002Z"/></svg>