<svg xmlns="http://www.w3.org/2000/svg" viewBox="0 0 20 20" fill="currentColor"><path d="M17.375 2H2.625A2.629 2.629 0 0 0 0 4.625v10.75A2.63 2.63 0 0 0 2.625 18h14.75A2.63 2.63 0 0 0 20 15.375V4.625A2.63 2.63 0 0 0 17.375 2Zm1.375 13.375a1.377 1.377 0 0 1-1.375 1.375H2.625a1.377 1.377 0 0 1-1.375-1.375V4.625A1.377 1.377 0 0 1 2.625 3.25h14.75a1.377 1.377 0 0 1 1.375 1.375v10.75Zm-2.2-5.7.029.589-.212.254-2.929 2.929-.884-.884L15.116 10l-2.558-2.558.884-.884 3.108 3.117ZM7.442 7.442 4.884 10l2.558 2.558-.884.884-3.112-3.112-.029-.589.212-.254 2.929-2.929.884.884ZM9.375 6h1.25v8h-1.25V6Z"/></svg>