<svg xmlns="http://www.w3.org/2000/svg" viewBox="0 0 20 20" fill="currentColor"><path d="M18.376 4H1.624A1.618 1.618 0 0 0 0 5.607v11.786A1.618 1.618 0 0 0 1.624 19h16.752A1.618 1.618 0 0 0 20 17.393V5.607A1.618 1.618 0 0 0 18.376 4Zm.374 13.393a.366.366 0 0 1-.374.357H1.624a.366.366 0 0 1-.374-.357V5.607a.366.366 0 0 1 .374-.357h16.752a.366.366 0 0 1 .374.357v11.786ZM6 14.529h.014A2.049 2.049 0 0 0 8.07 16.3h3.858A1.854 1.854 0 0 0 14 14.529V12H6v2.529Zm1.249-1.279h5.5v1.279c0 .47-.574.521-.821.521H8.07a.79.79 0 0 1-.821-.75v-1.05ZM8.624 3h-1.25a2.625 2.625 0 0 1 5.25 0h-1.25a1.375 1.375 0 0 0-2.75 0ZM7 10H5V8h2v2Zm6-2h2v2h-2V8Z"/></svg>