<svg xmlns="http://www.w3.org/2000/svg" viewBox="0 0 20 20" fill="currentColor"><path d="M10 5.5a4.5 4.5 0 1 0 0 9 4.5 4.5 0 0 0 0-9ZM6.75 10a3.227 3.227 0 0 1 .55-1.812l4.512 4.511A3.248 3.248 0 0 1 6.75 10Zm5.95 1.811L8.188 7.3A3.248 3.248 0 0 1 12.7 11.81Zm7.16-2.36-4.451-7.884A1.117 1.117 0 0 0 14.437 1H5.562a1.116 1.116 0 0 0-.97.567L.145 9.45a1.11 1.11 0 0 0 0 1.1L4.59 18.43a1.118 1.118 0 0 0 .972.568h8.875a1.117 1.117 0 0 0 .972-.567l4.446-7.882a1.11 1.11 0 0 0 0-1.098h.005Zm-5.5 8.3H5.641L1.271 10l4.37-7.75h8.718l4.37 7.75-4.369 7.751Z"/></svg>