<svg xmlns="http://www.w3.org/2000/svg" viewBox="0 0 20 20" fill="currentColor"><path d="m19.691 8.793-3.613 3.868-.884-.884 3.454-3.7-5.792-1.12L10 1.8 8.3 4.878l-.92-.92L9 1.023a1.191 1.191 0 0 1 2 0l2.666 4.818 5.4 1.047a1.144 1.144 0 0 1 .619 1.9l.006.005ZM1.63.91 19.219 18.5l-.884.885-1.815-1.816.088.711a1.144 1.144 0 0 1-1.62 1.178L10 17.127l-4.988 2.331a1.144 1.144 0 0 1-1.62-1.178l.675-5.464L.309 8.793a1.144 1.144 0 0 1 .618-1.9l4.115-.8L.747 1.8 1.63.91Zm13.453 15.222L6.11 7.158l-4.758.92 4.027 4.313-.724 5.854L10 15.748l5.345 2.5-.262-2.116Z"/></svg>