<svg xmlns="http://www.w3.org/2000/svg" viewBox="0 0 20 20" fill="currentColor"><path d="m5.99 10.108 3.957 4.544-2.594 3.026a1.125 1.125 0 0 1-1.71 0L.379 11.534a.876.876 0 0 1 .664-1.445h3.032V5.182a1.127 1.127 0 0 1 1.125-1.125h2.6a1.127 1.127 0 0 1 1.125 1.125V6.8H7.499a2 2 0 0 0-1.508 3.313v-.005Zm13.76-1.567a.867.867 0 0 0-.794-.509h-3.032V3.125A1.127 1.127 0 0 0 14.799 2h-2.6a1.127 1.127 0 0 0-1.125 1.125v4.907H8.042a.876.876 0 0 0-.664 1.445l5.266 6.143a1.126 1.126 0 0 0 1.709 0l5.268-6.145a.867.867 0 0 0 .129-.934Z"/></svg>