<svg xmlns="http://www.w3.org/2000/svg" viewBox="0 0 20 20" fill="currentColor"><path d="M9.354 4.47 3.9 8.782.558 5.442a.625.625 0 0 1 0-.884l4-4a.625.625 0 0 1 .884 0L9.354 4.47Zm5.2 14.972a.625.625 0 0 0 .884 0l4-4a.623.623 0 0 0 0-.884l-3.924-3.928-4.328 5.44 3.368 3.372Zm3.888-17.884a2.244 2.244 0 0 0-2.95-.186L5.813 9.02a5.493 5.493 0 0 1 5.158 5.11l7.661-9.63a2.242 2.242 0 0 0-.19-2.942Zm-12.806 8.82A3.971 3.971 0 0 0 2.747 11.5a4.474 4.474 0 0 0-1.373 3.147 10.719 10.719 0 0 1-.719 3.573.871.871 0 0 0 1.128 1.125 10.731 10.731 0 0 1 3.572-.718A4.475 4.475 0 0 0 8.5 17.253a3.985 3.985 0 0 0 1.122-2.889 4.132 4.132 0 0 0-3.986-3.987Z"/></svg>