<svg xmlns="http://www.w3.org/2000/svg" viewBox="0 0 20 20" fill="currentColor"><path d="M2.16 15.875a6.43 6.43 0 0 0-.423 1.25h-.649A1.064 1.064 0 0 1 0 16.089v-.41c0-3.063 2.774-5.554 6.184-5.554h.1c.23.451.517.871.854 1.25h-.95c-2.721 0-4.934 1.93-4.934 4.3v.2h.906Zm3.593-9.691A3.273 3.273 0 0 1 8.55 1.25c.53.005 1.051.142 1.515.4a5.87 5.87 0 0 1 1.485-.2c.1 0 .193.01.29.015A4.457 4.457 0 0 0 8.55 0a4.526 4.526 0 0 0-2.9 7.982 5.938 5.938 0 0 1-.03-.57 6 6 0 0 1 .133-1.228ZM13.816 13H9.184C5.774 13 3 15.49 3 18.554v.41A1.064 1.064 0 0 0 4.088 20h14.824A1.064 1.064 0 0 0 20 18.964v-.41C20 15.49 17.226 13 13.816 13Zm4.934 5.75H4.25v-.2c0-2.373 2.213-4.3 4.934-4.3h4.632c2.72 0 4.934 1.93 4.934 4.3v.2ZM11.5 3a4.5 4.5 0 1 0 0 9 4.5 4.5 0 0 0 0-9Zm0 7.75a3.25 3.25 0 1 1 0-6.5 3.25 3.25 0 0 1 0 6.5Z"/></svg>