<svg xmlns="http://www.w3.org/2000/svg" viewBox="0 0 20 20" fill="currentColor"><path d="M9 2.188v5.624A1.185 1.185 0 0 1 7.819 9H2.181A1.185 1.185 0 0 1 1 7.812V2.188A1.185 1.185 0 0 1 2.181 1h5.638A1.185 1.185 0 0 1 9 2.188ZM17.819 1h-5.638A1.185 1.185 0 0 0 11 2.188v5.624A1.185 1.185 0 0 0 12.181 9h5.638A1.185 1.185 0 0 0 19 7.812V2.188A1.185 1.185 0 0 0 17.819 1Zm-10 10H2.181A1.185 1.185 0 0 0 1 12.188v5.624A1.185 1.185 0 0 0 2.181 19h5.638A1.185 1.185 0 0 0 9 17.812v-5.624A1.185 1.185 0 0 0 7.819 11Zm10 0h-5.638A1.185 1.185 0 0 0 11 12.188v5.624A1.185 1.185 0 0 0 12.181 19h5.638A1.185 1.185 0 0 0 19 17.812v-5.624A1.185 1.185 0 0 0 17.819 11Z"/></svg>