<svg xmlns="http://www.w3.org/2000/svg" viewBox="0 0 20 20" fill="currentColor"><path d="M5 15V5h1.611l3.362 4.817h.054L13.389 5H15v10h-2.168v-3.311l.046-2.632h-.053l-2.613 3.886h-.424L7.175 9.057h-.053l.053 2.632V15H5Zm9.375 4h-8.75A4.631 4.631 0 0 1 1 14.375v-8.75A4.631 4.631 0 0 1 5.625 1h8.75A4.631 4.631 0 0 1 19 5.625v8.75A4.631 4.631 0 0 1 14.375 19ZM5.625 2.25A3.379 3.379 0 0 0 2.25 5.625v8.75a3.379 3.379 0 0 0 3.375 3.375h8.75a3.38 3.38 0 0 0 3.375-3.375v-8.75a3.38 3.38 0 0 0-3.375-3.375h-8.75Z"/></svg>