<svg xmlns="http://www.w3.org/2000/svg" viewBox="0 0 24 24" fill="currentColor"><path d="M12 17a5 5 0 1 1 0-9.999A5 5 0 0 1 12 17Zm0-8.5a3.5 3.5 0 1 0 0 7 3.5 3.5 0 0 0 0-7ZM20.063 21H3.937A2.94 2.94 0 0 1 1 18.065V7.353a2.939 2.939 0 0 1 2.937-2.935h2.557L7.8 2.549A1.365 1.365 0 0 1 8.886 2h6.275a1.327 1.327 0 0 1 1.045.513l1.337 1.905h2.521A2.938 2.938 0 0 1 23 7.353v10.712A2.94 2.94 0 0 1 20.063 21ZM3.937 5.918A1.438 1.438 0 0 0 2.5 7.353v10.712A1.438 1.438 0 0 0 3.937 19.5h16.126a1.438 1.438 0 0 0 1.437-1.435V7.353a1.436 1.436 0 0 0-1.436-1.434h-3.3L15.067 3.5h-6.1L7.274 5.918H3.937Z"/></svg>