<svg xmlns="http://www.w3.org/2000/svg" viewBox="0 0 20 20" fill="currentColor"><path d="M15.128 0a4.78 4.78 0 0 0-4.774 4.774c.007.214.029.427.065.638l-.137-.138a1.143 1.143 0 0 0-1.719.126L.461 16.2a2.315 2.315 0 0 0 3.241 3.24l10.8-8.1a1.14 1.14 0 0 0 .122-1.718l-.138-.138c.212.036.426.058.64.065a4.773 4.773 0 1 0 0-9.547L15.128 0ZM2.955 18.445a1.07 1.07 0 0 1-1.5-1.5L9.487 6.239l4.175 4.176-10.707 8.03ZM15.128 8.3a3.53 3.53 0 1 1 0-7.06 3.53 3.53 0 0 1 0 7.06Zm-7.186 2.78L10.018 9l.88.88-2.077 2.08-.879-.88Z"/></svg>