<svg xmlns="http://www.w3.org/2000/svg" viewBox="0 0 20 20" fill="currentColor"><path d="M8.5 11.136a.624.624 0 0 1-.442-.183l-2-2 .884-.883L8.5 9.628l4.558-4.558.884.883-5 5a.623.623 0 0 1-.442.183ZM16.875 0H4.625A2.624 2.624 0 0 0 2 2.618v14.708h.018c0 .061-.018.118-.018.18A2.5 2.5 0 0 0 4.5 20h12.375A1.125 1.125 0 0 0 18 18.878V1.122A1.125 1.125 0 0 0 16.875 0Zm-.125 18.753H4.5a1.247 1.247 0 0 1 0-2.494h12.25v2.494ZM4.5 15.012c-.44.002-.872.122-1.25.347V2.618a1.375 1.375 0 0 1 1.375-1.371H16.75v13.765H4.5Z"/></svg>