<svg xmlns="http://www.w3.org/2000/svg" viewBox="0 0 20 20" fill="currentColor"><path d="M20 12.313v.625h-1.25v-.625a2.443 2.443 0 0 0-1.542-2.28l-8.482-3.4a.6.6 0 0 1-.209-.133l-.126-.126c-.353.421-.731.822-1.131 1.2a5.738 5.738 0 0 1-6.01.615v4.748H0V8.014a1.129 1.129 0 0 1 .545-.973 1.147 1.147 0 0 1 1.134-.035 4.482 4.482 0 0 0 4.768-.38c.373-.36.726-.741 1.058-1.14L5.991 3.973l.884-.884L9.31 5.524l8.363 3.35A3.685 3.685 0 0 1 20 12.313Zm-15.05 0 .884.883 4.008-4.011-.884-.885-4.008 4.013Zm8.017-2.086-.884-.884-2.967 2.97.884.887 2.967-2.973ZM0 16h20v-1.25H0V16Z"/></svg>