<svg xmlns="http://www.w3.org/2000/svg" viewBox="0 0 20 20" fill="currentColor"><path d="M11.707 12.683h1.464V11.24a1.463 1.463 0 0 1 1.463-1.463h1.951a1.464 1.464 0 0 1 1.464 1.463v1.442h.535a5.455 5.455 0 0 0 .928-3.049V5.99A5.509 5.509 0 0 0 14.01.488H5.502A5.508 5.508 0 0 0 0 5.99V9.66a5.464 5.464 0 0 0 5.463 5.463h.43v2.598a1.087 1.087 0 0 0 1.079 1.09 1.17 1.17 0 0 0 .78-.326l2.492-2.795v-1.543a1.463 1.463 0 0 1 1.463-1.463Zm.61-6.612h1.463v3.512h-1.463V6.071ZM7.195 9.583H5.732V6.071h1.463v3.512Zm1.83-5.31h1.463v7.106H9.024V4.272Zm10.487 11.825h-2.927v2.926h-1.95v-2.926h-2.928v-1.952h2.927v-2.905h1.951v2.905h2.927v1.952Z"/></svg>