<svg xmlns="http://www.w3.org/2000/svg" viewBox="0 0 20 20" fill="currentColor"><path d="M6.157 12.683a3.24 3.24 0 0 0 1.6.407c.327 0 .652-.045.967-.133a2.92 2.92 0 0 0 .863-.388l-.441-1.035a1.51 1.51 0 0 1-.605.367 2.32 2.32 0 0 1-.764.13A2.006 2.006 0 0 1 5.754 10a1.942 1.942 0 0 1 1.01-1.733c.306-.17.65-.257 1-.255.261 0 .52.046.765.137.222.079.426.201.6.36l.44-1.043a3.471 3.471 0 0 0-1.817-.513 3.256 3.256 0 0 0-1.589.4 3.065 3.065 0 0 0-1.161 1.1c-.29.47-.44 1.014-.432 1.566A2.958 2.958 0 0 0 5 11.571c.28.466.68.85 1.157 1.112Z"/><path d="M11.9 12.683a3.24 3.24 0 0 0 1.6.407c.327 0 .653-.045.968-.133.306-.082.598-.213.862-.388l-.43-1.035a1.51 1.51 0 0 1-.605.367 2.32 2.32 0 0 1-.764.13A2.005 2.005 0 0 1 11.5 10a1.943 1.943 0 0 1 1.01-1.733c.306-.17.65-.257 1-.255.261 0 .52.046.765.137.222.079.426.201.6.36l.44-1.043a3.471 3.471 0 0 0-1.815-.512 3.256 3.256 0 0 0-1.589.4 3.065 3.065 0 0 0-1.161 1.1c-.29.47-.44 1.014-.432 1.566a2.958 2.958 0 0 0 .426 1.557c.281.464.68.845 1.156 1.106Z"/><path d="M17.875 2H2.125A1.127 1.127 0 0 0 1 3.125v13.75A1.127 1.127 0 0 0 2.125 18h15.75A1.127 1.127 0 0 0 19 16.875V3.125A1.127 1.127 0 0 0 17.875 2Zm-.125 14.75H2.25V3.25h15.5v13.5Z"/></svg>