<svg xmlns="http://www.w3.org/2000/svg" viewBox="0 0 20 20" fill="currentColor"><path d="M14.625 14.25h-9.25V13h9.25v1.25ZM4.71 7.33c.184-.187.288-.438.29-.7a1.046 1.046 0 0 0-.29-.71 1.047 1.047 0 0 0-1.42 0 1 1 0 0 0 1.42 1.41Zm4 0a1 1 0 0 0 0-1.41 1.047 1.047 0 0 0-1.42 0 1.046 1.046 0 0 0-.29.71 1 1 0 0 0 1.71.7Zm4 0a1.01 1.01 0 0 0 .29-.7 1.047 1.047 0 0 0-.29-.71 1.017 1.017 0 0 0-.91-.27 1.209 1.209 0 0 0-.18.05l-.18.09c-.052.04-.102.084-.15.13a1.047 1.047 0 0 0-.29.71c.002.262.106.513.29.7.048.046.098.09.15.13l.18.09a1.209 1.209 0 0 0 .38.07c.266 0 .52-.103.71-.29Zm4 0a1.01 1.01 0 0 0 .29-.7 1.047 1.047 0 0 0-.29-.71 1.047 1.047 0 0 0-1.42 0 1 1 0 0 0 1.42 1.41Zm-8.33 3.22a1.19 1.19 0 0 0 .33-.22c.184-.187.288-.438.29-.7a.88.88 0 0 0-.08-.39.988.988 0 0 0-.21-.32 1.047 1.047 0 0 0-1.42 0 1.046 1.046 0 0 0-.29.71.99.99 0 0 0 1 .99c.13.002.26-.022.38-.07Zm4.33-.22a1.01 1.01 0 0 0 .29-.7 1.047 1.047 0 0 0-.29-.71 1.047 1.047 0 0 0-1.42 0 1 1 0 0 0 .33 1.63c.12.048.25.072.38.07.266 0 .52-.103.71-.29Zm4 0a1 1 0 0 0 0-1.41 1.047 1.047 0 0 0-1.42 0 1.047 1.047 0 0 0-.29.71 1 1 0 0 0 1.71.7Zm-12 0c.184-.187.288-.438.29-.7a1.046 1.046 0 0 0-.29-.71 1.047 1.047 0 0 0-1.42 0 1.046 1.046 0 0 0-.29.71 1 1 0 0 0 1.71.7ZM20 15.375V3.125A1.127 1.127 0 0 0 18.875 2H1.125A1.127 1.127 0 0 0 0 3.125v12.25A2.63 2.63 0 0 0 2.625 18h14.75A2.63 2.63 0 0 0 20 15.375ZM18.75 3.25v12.125a1.377 1.377 0 0 1-1.375 1.375H2.625a1.377 1.377 0 0 1-1.375-1.375V3.25h17.5Z"/></svg>