<svg xmlns="http://www.w3.org/2000/svg" viewBox="0 0 20 20" fill="currentColor"><path d="M7.5 13.205h1.424v1.613A1.127 1.127 0 0 1 7.8 15.943H5.2a1.128 1.128 0 0 1-1.125-1.125V9.91h-3.03a.875.875 0 0 1-.665-1.445l5.266-6.143a1.16 1.16 0 0 1 1.71 0l2.593 3.026-3.957 4.543A2 2 0 0 0 7.5 13.205Zm12.12-2.681L14.354 4.38a1.16 1.16 0 0 0-1.709 0L7.38 10.523a.875.875 0 0 0 .664 1.445h3.031v4.907A1.127 1.127 0 0 0 12.2 18h2.6a1.128 1.128 0 0 0 1.125-1.125v-4.907h3.032a.876.876 0 0 0 .664-1.444Z"/></svg>