<svg xmlns="http://www.w3.org/2000/svg" viewBox="0 0 20 20" fill="currentColor"><path d="M9.983 19.994a1.115 1.115 0 0 1-.794-.329L6.9 16.907H4.214a1.124 1.124 0 0 1-1.122-1.123V13.1L.378 10.851a1.163 1.163 0 0 1-.044-1.662L3.092 6.9V4.216a1.124 1.124 0 0 1 1.122-1.123H6.9L9.15.379a1.158 1.158 0 0 1 1.66-.044l2.29 2.758h2.687a1.124 1.124 0 0 1 1.122 1.123V6.9l2.714 2.248a1.162 1.162 0 0 1 .044 1.662l-2.76 2.29v2.685a1.124 1.124 0 0 1-1.122 1.123H13.1l-2.25 2.713a1.218 1.218 0 0 1-.866.373Zm-5.64-4.337h2.956l.253.118.155.139L10 18.69l2.383-2.882.252-.12.207-.031h2.813V12.71l.12-.251.144-.167L18.69 10l-2.875-2.38-.12-.252-.038-.221v-2.8h-2.952l-.253-.118-.152-.143L10 1.31 7.614 4.192l-.252.12-.207.031H4.342V7.29l-.12.251-.144.167L1.31 10l2.89 2.388.116.254.031.2-.004 2.815Zm12.14-2.8-.165-.08.165.08Zm-7.542.589 5-5-.884-.884L8.5 12.116l-1.558-1.558-.884.884 2 2a.624.624 0 0 0 .884 0v.004Z"/></svg>